<svg width="123" height="136" viewBox="0 0 123 136" fill="none" xmlns="http://www.w3.org/2000/svg">
<path d="M106.027 0H0V16.2935H100.734V16.3082C101.423 16.3057 102.106 16.4395 102.743 16.702C103.381 16.9645 103.96 17.3504 104.447 17.8376C104.934 18.3248 105.321 18.9035 105.584 19.5406C105.846 20.1777 105.981 20.8605 105.978 21.5496V76.2659L105.964 76.3115C105.954 77.6982 105.397 79.0248 104.412 80.0017C103.428 80.9785 102.097 81.5261 100.711 81.5249H21.5482C20.8566 81.5257 20.1717 81.3902 19.5326 81.1263C18.8934 80.8623 18.3125 80.475 17.823 79.9865C17.3336 79.498 16.9451 78.9179 16.6799 78.2792C16.4147 77.6406 16.2779 76.9559 16.2773 76.2644V54.1617C16.2808 52.7658 16.8376 51.4282 17.8256 50.4421C18.8136 49.4561 20.1523 48.9019 21.5482 48.9011H89.654V32.6297H16.2464C7.27294 32.6282 0 39.8894 0 48.8541V81.5705C0 90.5426 7.27442 97.8126 16.2464 97.8126H106.026C115.006 97.8126 122.27 90.5426 122.27 81.5691V16.2494C122.27 7.27736 115.006 0 106.027 0Z" fill="#159BD7"/>
<path d="M9.8346 124.121H15.3464L12.6155 115.968H12.5398L9.8346 124.121ZM17.8626 110.335L24.2119 129.264C24.9656 131.572 25.4987 132.107 26.8222 132.107H28.1126V135.44H14.2501V132.106H15.3876C16.5273 132.106 17.4751 131.955 17.4751 131.544C17.4751 131.155 17.4368 130.739 17.2839 130.17L16.492 127.45H8.74195L8.27872 128.965C7.86327 130.287 7.7096 130.848 7.7096 131.379C7.7096 131.991 9.04343 132.106 10.0773 132.106H11.1692V135.439H0V132.106H1.29339C2.62281 132.106 3.14634 131.571 3.91693 129.263L10.2603 110.334L17.8626 110.335ZM36.6288 126.572C36.6288 130.441 37.5002 132.746 39.6252 132.746C41.7642 132.746 42.6281 130.441 42.6281 126.572C42.6281 122.713 41.7642 120.406 39.6252 120.406C37.5002 120.406 36.6288 122.713 36.6288 126.572ZM30.3163 114.994C30.3163 113.924 30.0516 113.363 28.9501 113.363H27.2038V110.335H36.6288V119.758C38.0318 118.168 39.8208 117.146 41.5223 117.146C47.223 117.146 49.3473 121.584 49.3473 126.572C49.3473 131.573 47.223 136.001 41.5223 136.001C39.1296 136.001 37.0002 135.169 35.6752 133.086L34.5781 135.442H30.3163V114.994ZM57.9407 126.572C57.9407 130.441 58.8223 132.746 60.9444 132.746C63.0746 132.746 63.9437 130.441 63.9437 126.572C63.9437 122.713 63.0738 120.406 60.9444 120.406C58.8223 120.406 57.9407 122.713 57.9407 126.572ZM51.6304 114.994C51.6304 113.924 51.3627 113.363 50.2723 113.363H48.5208V110.335H57.94V119.758C59.3503 118.168 61.1326 117.146 62.8422 117.146C68.543 117.146 70.6724 121.584 70.6724 126.572C70.6724 131.573 68.543 136.001 62.8415 136.001C60.4495 136.001 58.3194 135.169 56.9922 133.086L55.887 135.442H51.6304V114.994ZM79.2195 126.573C79.2195 131.04 80.0158 132.973 82.2967 132.973C84.5732 132.973 85.3688 131.04 85.3688 126.573C85.3688 122.107 84.5732 120.176 82.2967 120.176C80.0158 120.176 79.2195 122.107 79.2195 126.573ZM92.0982 126.573C92.0982 132.634 87.9541 136.001 82.2967 136.001C76.6268 136.001 72.4922 132.635 72.4922 126.573C72.4922 120.516 76.6268 117.146 82.2967 117.146C87.9541 117.146 92.0982 120.516 92.0982 126.573ZM119.186 126.88V129.833C119.186 131.573 118.809 132.603 117.365 132.603C116.492 132.603 116.078 131.954 116.078 131.156V120.745H120.742V117.713H116.078V110.68H112.309C112.001 113.817 111.017 117.713 107.219 117.713H101.294V110.68H97.5365C97.2291 113.817 96.2394 117.713 92.4453 117.713V120.743H94.9894V130.246C94.9894 134.11 97.1541 135.999 101.06 135.999C105.63 135.999 107.442 133.961 107.442 130.246V126.879H104.413V129.832C104.413 131.572 104.029 132.601 102.589 132.601C101.709 132.601 101.294 131.953 101.294 131.154V120.744H109.776V130.247C109.776 134.111 111.931 136 115.845 136C120.403 136 122.231 133.961 122.231 130.247V126.88H119.187H119.186Z" fill="black"/>
</svg>
