<svg width="30" height="30" viewBox="0 0 30 30" fill="none" xmlns="http://www.w3.org/2000/svg">
<path fill-rule="evenodd" clip-rule="evenodd" d="M5 0C2.23858 0 0 2.23858 0 5V25C0 27.7614 2.23858 30 5 30H25C27.7614 30 30 27.7614 30 25V5C30 2.23858 27.7614 0 25 0H5ZM11.5626 8H8.37909L4 21.7749H6.5748L7.75096 17.8715H12.0902L13.3266 21.7749H16.0036L11.5626 8ZM8.15654 15.9709L9.2107 12.5781C9.37031 12.0415 9.51259 11.4433 9.64889 10.8702C9.72025 10.5701 9.78996 10.277 9.85968 10.0032H9.90015C9.93886 10.1554 9.97831 10.3128 10.0186 10.4737C10.1895 11.1555 10.3761 11.9003 10.5895 12.5781L11.6641 15.9709H8.15654ZM21.7421 11.5971C18.579 11.5971 16.9164 14.1929 16.9164 16.9517C16.9164 19.9968 18.8019 22 22.0053 22C23.4252 22 24.6009 21.7135 25.4526 21.3665L25.0876 19.6292C24.3373 19.9155 23.5059 20.0784 22.3502 20.0784C20.7686 20.0784 19.3698 19.3023 19.3091 17.5035H25.9188C25.9595 17.2787 26 16.9107 26 16.4409C26 14.2542 24.9656 11.5971 21.7421 11.5971ZM19.3091 15.7458C19.41 14.724 20.059 13.314 21.6001 13.314C23.2625 13.314 23.6683 14.8264 23.6481 15.7458H19.3091Z" fill="white"/>
</svg>
