<svg width="152" height="37" viewBox="0 0 152 37" fill="none" xmlns="http://www.w3.org/2000/svg">
<path d="M70.8697 9.08514H74.6071V27.0532H70.8518L70.708 24.4478C70.181 25.3702 69.4682 26.1129 68.5698 26.6759C67.6714 27.2389 66.6113 27.5204 65.3895 27.5204C64.0718 27.5204 62.832 27.2748 61.6701 26.7837C60.5082 26.2806 59.484 25.5858 58.5976 24.6994C57.7231 23.813 57.0403 22.7948 56.5492 21.6448C56.0581 20.4829 55.8125 19.2371 55.8125 17.9075C55.8125 16.6257 56.0521 15.4219 56.5312 14.2959C57.0104 13.1579 57.6752 12.1637 58.5257 11.3132C59.3762 10.4627 60.3584 9.79787 61.4724 9.31872C62.5984 8.82759 63.8023 8.58203 65.084 8.58203C66.3897 8.58203 67.5397 8.8815 68.5339 9.48043C69.5401 10.0674 70.3726 10.822 71.0315 11.7444L70.8697 9.08514ZM65.2996 23.9088C66.3538 23.9088 67.2761 23.6513 68.0667 23.1362C68.8573 22.6091 69.4682 21.9024 69.8995 21.0159C70.3427 20.1295 70.5643 19.1473 70.5643 18.0692C70.5643 16.9791 70.3427 15.9909 69.8995 15.1044C69.4563 14.218 68.8394 13.5173 68.0488 13.0022C67.2701 12.4751 66.3538 12.2116 65.2996 12.2116C64.2575 12.2116 63.3052 12.4751 62.4427 13.0022C61.5803 13.5292 60.8975 14.236 60.3944 15.1224C59.8913 16.0088 59.6397 16.9911 59.6397 18.0692C59.6397 19.1592 59.8972 20.1475 60.4123 21.0339C60.9394 21.9083 61.6282 22.6091 62.4787 23.1362C63.3411 23.6513 64.2815 23.9088 65.2996 23.9088Z" fill="#0C1B36"/>
<path d="M91.5153 9.08514H95.2527V27.5204C95.2527 28.7542 94.9892 29.8922 94.4621 30.9343C93.947 31.9765 93.2463 32.8749 92.3598 33.6295C91.4734 34.3962 90.4552 34.9891 89.3053 35.4084C88.1673 35.8276 86.9754 36.0372 85.7296 36.0372C84.4719 36.0372 83.262 35.7677 82.1001 35.2287C80.9381 34.7016 79.914 33.9829 79.0275 33.0725C78.1531 32.1621 77.5002 31.132 77.069 29.982L80.5009 28.4367C80.7405 29.1794 81.1238 29.8383 81.6509 30.4132C82.1899 30.9882 82.8128 31.4434 83.5196 31.7788C84.2383 32.1142 84.975 32.2819 85.7296 32.2819C86.4723 32.2819 87.185 32.1621 87.8678 31.9226C88.5626 31.695 89.1795 31.3715 89.7185 30.9523C90.2696 30.533 90.7068 30.0299 91.0302 29.443C91.3536 28.856 91.5153 28.2151 91.5153 27.5204V24.4838C90.9284 25.3942 90.1737 26.1308 89.2514 26.6938C88.329 27.2449 87.2569 27.5204 86.0351 27.5204C84.7653 27.5204 83.5675 27.2748 82.4415 26.7837C81.3155 26.2926 80.3272 25.6158 79.4767 24.7533C78.6262 23.8788 77.9614 22.8726 77.4823 21.7347C77.0031 20.5967 76.7636 19.3749 76.7636 18.0692C76.7636 16.7635 77.0031 15.5417 77.4823 14.4037C77.9614 13.2537 78.6262 12.2475 79.4767 11.385C80.3272 10.5106 81.3155 9.82782 82.4415 9.33669C83.5675 8.84556 84.7653 8.6 86.0351 8.6C87.2569 8.6 88.329 8.8815 89.2514 9.4445C90.1737 9.99552 90.9284 10.7322 91.5153 11.6546V9.08514ZM86.071 23.9088C87.1132 23.9088 88.0235 23.6453 88.8022 23.1182C89.5808 22.5792 90.1857 21.8664 90.6169 20.98C91.0482 20.0936 91.2638 19.1233 91.2638 18.0692C91.2638 16.9911 91.0422 16.0148 90.599 15.1404C90.1677 14.254 89.5628 13.5472 88.7842 13.0201C88.0056 12.4811 87.1012 12.2116 86.071 12.2116C85.0648 12.2116 84.1424 12.4751 83.3039 13.0022C82.4774 13.5292 81.8186 14.236 81.3274 15.1224C80.8363 16.0088 80.5907 16.9911 80.5907 18.0692C80.5907 19.1473 80.8363 20.1295 81.3274 21.0159C81.8306 21.9024 82.4954 22.6091 83.3219 23.1362C84.1604 23.6513 85.0768 23.9088 86.071 23.9088Z" fill="#0C1B36"/>
<path d="M107.155 27.5204C105.502 27.5204 103.992 27.0951 102.627 26.2446C101.273 25.3942 100.189 24.2562 99.3747 22.8307C98.5721 21.3933 98.1708 19.8061 98.1708 18.0692C98.1708 16.7515 98.4044 15.5237 98.8716 14.3857C99.3388 13.2358 99.9796 12.2295 100.794 11.3671C101.621 10.4926 102.579 9.80985 103.669 9.31872C104.759 8.82759 105.921 8.58203 107.155 8.58203C108.808 8.58203 110.311 9.00728 111.665 9.85776C113.03 10.7083 114.114 11.8522 114.917 13.2897C115.732 14.7271 116.139 16.3203 116.139 18.0692C116.139 19.3749 115.905 20.5967 115.438 21.7347C114.971 22.8726 114.324 23.8788 113.498 24.7533C112.683 25.6158 111.731 26.2926 110.641 26.7837C109.563 27.2748 108.401 27.5204 107.155 27.5204ZM107.155 23.783C108.149 23.783 109.042 23.5195 109.832 22.9924C110.623 22.4654 111.246 21.7706 111.701 20.9081C112.168 20.0337 112.402 19.0874 112.402 18.0692C112.402 17.027 112.162 16.0687 111.683 15.1943C111.216 14.3198 110.587 13.6251 109.796 13.11C109.006 12.5829 108.125 12.3194 107.155 12.3194C106.173 12.3194 105.28 12.5829 104.478 13.11C103.687 13.637 103.058 14.3378 102.591 15.2122C102.136 16.0867 101.908 17.039 101.908 18.0692C101.908 19.1353 102.148 20.0996 102.627 20.962C103.106 21.8245 103.741 22.5133 104.532 23.0284C105.334 23.5315 106.209 23.783 107.155 23.783Z" fill="#0C1B36"/>
<path d="M119.042 27.0532V9.08514H122.779V10.9898C123.402 10.2471 124.169 9.66011 125.079 9.22888C125.99 8.79765 126.972 8.58203 128.026 8.58203C128.697 8.58203 129.362 8.67187 130.02 8.85155L128.529 12.6248C128.062 12.4452 127.595 12.3553 127.128 12.3553C126.337 12.3553 125.612 12.553 124.953 12.9483C124.295 13.3316 123.767 13.8527 123.372 14.5115C122.977 15.1703 122.779 15.901 122.779 16.7036V27.0532H119.042Z" fill="#0C1B36"/>
<path d="M145.234 9.08514H148.971V27.0532H145.216L145.072 24.4478C144.545 25.3702 143.832 26.1129 142.934 26.6759C142.035 27.2389 140.975 27.5204 139.753 27.5204C138.436 27.5204 137.196 27.2748 136.034 26.7837C134.872 26.2806 133.848 25.5858 132.962 24.6994C132.087 23.813 131.404 22.7948 130.913 21.6448C130.422 20.4829 130.176 19.2371 130.176 17.9075C130.176 16.6257 130.416 15.4219 130.895 14.2959C131.374 13.1579 132.039 12.1637 132.89 11.3132C133.74 10.4627 134.722 9.79787 135.836 9.31872C136.962 8.82759 138.166 8.58203 139.448 8.58203C140.754 8.58203 141.904 8.8815 142.898 9.48043C143.904 10.0674 144.737 10.822 145.395 11.7444L145.234 9.08514ZM139.664 23.9088C140.718 23.9088 141.64 23.6513 142.431 23.1362C143.221 22.6091 143.832 21.9024 144.263 21.0159C144.707 20.1295 144.928 19.1473 144.928 18.0692C144.928 16.9791 144.707 15.9909 144.263 15.1044C143.82 14.218 143.203 13.5173 142.413 13.0022C141.634 12.4751 140.718 12.2116 139.664 12.2116C138.621 12.2116 137.669 12.4751 136.807 13.0022C135.944 13.5292 135.261 14.236 134.758 15.1224C134.255 16.0088 134.004 16.9911 134.004 18.0692C134.004 19.1592 134.261 20.1475 134.776 21.0339C135.303 21.9083 135.992 22.6091 136.843 23.1362C137.705 23.6513 138.645 23.9088 139.664 23.9088Z" fill="#0C1B36"/>
<path d="M22.3163 2.88946C19.7259 3.25935 17.6058 5.15318 16.8892 7.72759C16.7474 8.24543 16.725 8.52655 16.7175 9.90993C16.7026 12.0035 16.5533 12.6841 15.7993 14.1636C14.6198 16.4791 12.2683 18.3138 9.45399 19.1275C8.61044 19.3642 7.81168 19.4974 6.37839 19.6306C4.42254 19.8155 3.22067 20.3112 2.04119 21.4282C1.07073 22.3529 0.443666 23.4404 0.137598 24.7498C-0.0639584 25.5932 -0.0490283 26.9765 0.174923 27.8051C0.801988 30.1502 2.57867 31.933 4.9227 32.5544C5.77372 32.7838 7.28166 32.7838 8.13268 32.5544C10.1706 32.0144 11.8951 30.4905 12.6117 28.5966C12.985 27.6127 13.0447 27.2133 13.0596 25.5192C13.0745 24.0766 13.0969 23.8621 13.2686 23.2185C13.7539 21.3912 14.4929 20.1336 15.8366 18.8538C17.2475 17.5 18.957 16.6345 21.0846 16.1906C22.2043 15.9539 23.8541 15.9539 25.0261 16.1832C26.6236 16.5013 28.0644 17.0783 29.3334 17.9143C30.1023 18.4173 31.4759 19.7711 31.9835 20.5183C33.0734 22.131 33.5213 23.7807 33.4243 25.8003C33.3944 26.5253 33.4094 26.8952 33.5064 27.4056C33.9991 29.98 35.8803 31.933 38.4781 32.5914C39.2918 32.7912 40.6878 32.7764 41.5239 32.5618C44.5099 31.7703 46.4658 29.2402 46.4658 26.1776C46.4658 23.6697 45.0996 21.4356 42.8825 20.3407C41.8523 19.8377 41.3074 19.7045 39.6427 19.5936C39.038 19.5566 38.2094 19.4604 37.8138 19.3864C33.6333 18.5801 30.5204 15.6062 29.856 11.7964C29.7813 11.3451 29.7515 10.7089 29.759 9.83595C29.7739 8.06789 29.5649 7.22454 28.8184 5.95213C28.3854 5.21976 27.2582 4.11749 26.5117 3.70322C25.1903 2.96344 23.7421 2.68972 22.3163 2.88946Z" fill="#0C1B36"/>
<path d="M39.1382 2.88103C37.7422 3.10297 36.5478 3.70958 35.5549 4.70828C34.7114 5.55162 34.159 6.50593 33.8454 7.65258C33.614 8.49592 33.614 10.0642 33.8454 10.9076C34.1814 12.1578 34.7935 13.1417 35.8013 14.0812C36.3014 14.5473 36.5627 14.7248 37.242 15.0503C38.3245 15.5682 38.9963 15.7161 40.1609 15.7087C41.2209 15.6939 41.9376 15.5312 42.8408 15.0873C44.4384 14.3179 45.588 12.9938 46.1852 11.2405C46.4166 10.5673 46.4241 10.4933 46.4315 9.31707C46.4315 7.97068 46.3643 7.60079 45.9015 6.6021C44.8788 4.35318 42.7737 2.94022 40.3102 2.84404C39.8996 2.82925 39.3696 2.84404 39.1382 2.88103Z" fill="#0C1B36"/>
</svg>
