<svg width="19" height="20" viewBox="0 0 19 20" fill="none" xmlns="http://www.w3.org/2000/svg">
<path d="M18.4265 10.3676C18.298 10.167 18.1053 10.0332 17.8483 10.0332C16.4348 10.0332 15.0856 10.7021 14.2503 11.9061L13.6721 12.7088C12.9653 13.5784 11.8731 14.0466 10.7808 14.0466H8.85334C8.46784 14.0466 8.21084 13.779 8.21084 13.3777C8.21084 12.9763 8.46784 12.7088 8.85334 12.7088H10.0741C11.1021 12.7088 12.0658 11.8392 12.0658 10.769V10.7021C12.0658 10.3676 11.7446 10.0332 11.4233 10.0332V6.62183C13.9291 6.28738 15.9208 4.01313 15.9208 1.33755C15.9208 0.936211 15.6638 0.668652 15.2783 0.668652C13.7363 0.668652 12.3871 1.40444 11.4233 2.47467V0.668652C11.4233 0.267314 11.1663 -0.000244141 10.7808 -0.000244141C10.3953 -0.000244141 10.1383 0.267314 10.1383 0.668652V4.48136C9.17459 3.41113 7.82534 2.67534 6.28335 2.67534C5.89785 2.67534 5.64085 2.9429 5.64085 3.34424C5.64085 6.08671 7.63259 8.29407 10.1383 8.62852V10.0332H7.50409C5.1911 10.0332 3.32786 11.1034 2.29987 12.8426L0.565125 15.6519C0.436625 15.8526 0.436625 16.1202 0.565125 16.3208L2.49262 19.6653C2.55687 19.7991 2.74962 19.9329 2.87811 19.9998C2.94236 19.9998 2.94236 19.9998 3.00661 19.9998C3.13511 19.9998 3.26361 19.9329 3.39211 19.866C5.8336 18.1937 8.66059 17.3242 11.5518 17.3242C13.6721 17.3242 15.5996 16.1202 16.6276 14.1804L18.3623 10.9697C18.4908 10.8359 18.4908 10.5683 18.4265 10.3676Z" fill="#6167F8"/>
</svg>
