<svg width="440" height="93" viewBox="0 0 440 93" fill="none" xmlns="http://www.w3.org/2000/svg">
<path d="M68.4261 75.5139L63.3077 62.6221H33.9845L28.8664 75.5139H16.9238L44.1144 11.584H53.1781L80.3687 75.5139H68.4261ZM48.9127 25.955L37.3968 54.3801H60.2156L48.9127 25.955Z" fill="#1C3B6F"/>
<path d="M120.354 75.5118L105.533 54.4836L97.7489 62.0919V75.5118H87.0859V11.582H97.7489V50.9967L118.222 29.9685H131.124L112.784 47.8265L133.47 75.5118H120.354Z" fill="#1C3B6F"/>
<path d="M174.843 75.5118L160.021 54.4836L152.237 62.0919V75.5118H141.574V11.582H152.237V50.9967L172.817 29.9685H185.719L167.379 47.8265L188.065 75.5118H174.843Z" fill="#1C3B6F"/>
<path d="M223.464 75.5123V71.3913C219.625 74.6668 216 76.0407 209.389 76.0407C202.778 76.0407 198.406 74.6668 195.207 71.9197C192.541 69.4893 191.049 66.002 191.049 62.0924C191.049 54.4841 197.233 48.9892 209.389 48.9892H223.251V45.7137C223.251 39.9017 220.052 37.1543 211.628 37.1543C205.977 37.1543 203.098 38.4225 200.006 41.698L193.075 35.9921C197.98 30.9199 203.098 29.335 211.948 29.335C226.557 29.335 233.701 34.7239 233.701 44.9739V75.4066H223.464V75.5123ZM223.251 55.3296H211.095C204.591 55.3296 201.392 57.6543 201.392 61.881C201.392 66.1077 204.377 68.3268 211.415 68.3268C215.147 68.3268 218.239 68.0097 221.012 65.685C222.718 64.3114 223.358 62.1981 223.358 58.9222V55.3296H223.251Z" fill="#1C3B6F"/>
<path d="M278.059 75.5118V70.6512C274.114 74.7723 269.848 76.0402 264.09 76.0402C258.759 76.0402 254.067 74.5609 251.188 72.0248C246.07 67.5867 245.217 60.2955 245.217 52.6873C245.217 45.1847 246.07 37.9992 251.188 33.4555C254.067 30.9194 258.652 29.4401 263.984 29.4401C269.635 29.4401 274.007 30.6026 277.846 34.5123V11.582H288.508V75.5118H278.059ZM266.863 37.5768C257.159 37.5768 255.773 44.5509 255.773 52.6873C255.773 60.824 257.159 67.9038 266.863 67.9038C276.459 67.9038 277.846 60.824 277.846 52.6873C277.846 44.5509 276.459 37.5768 266.863 37.5768Z" fill="#1C3B6F"/>
<path d="M302.373 20.9872V11.2656H313.675V20.9872H302.373ZM302.692 75.5125V29.969H313.356V75.5125H302.692Z" fill="#1C3B6F"/>
<path d="M356.113 75.5123V71.3913C352.274 74.6668 348.649 76.0407 342.038 76.0407C335.427 76.0407 331.055 74.6668 327.857 71.9197C325.191 69.4893 323.699 66.002 323.699 62.0924C323.699 54.4841 329.882 48.9892 342.038 48.9892H355.901V45.7137C355.901 39.9017 352.703 37.1543 344.278 37.1543C338.625 37.1543 335.748 38.4225 332.762 41.698L325.832 35.9921C330.736 30.9199 335.853 29.335 344.704 29.335C359.314 29.335 366.455 34.7239 366.455 44.9739V75.4066H356.113V75.5123ZM355.901 55.3296H343.745C337.241 55.3296 334.042 57.6543 334.042 61.881C334.042 66.1077 337.026 68.3268 344.063 68.3268C347.798 68.3268 350.889 68.0097 353.662 65.685C355.368 64.3114 356.008 62.1981 356.008 58.9222V55.3296H355.901Z" fill="#1C3B6F"/>
<path d="M412.522 75.5123V47.7214C412.522 40.6416 407.829 37.5771 401.858 37.5771C395.887 37.5771 390.874 40.7473 390.874 47.7214V75.5123H380.213V29.9688H390.663V34.5126C394.287 31.1313 399.407 29.4404 404.737 29.4404C410.175 29.4404 414.654 30.92 417.745 33.5617C421.799 36.943 423.076 41.2754 423.076 46.4532V75.5123H412.522Z" fill="#1C3B6F"/>
</svg>
