<svg width="163" height="163" viewBox="0 0 163 163" fill="none" xmlns="http://www.w3.org/2000/svg">
<path d="M83.6186 18.582V34.5561C110.025 35.6971 131.215 57.5391 131.215 84.2711C131.215 111.655 109.047 134.149 81.6626 134.149C54.1156 134.149 31.7846 111.981 31.7846 84.434C31.7846 82.641 31.9475 81.0111 32.1105 79.2181H16.1365C15.9735 81.0111 15.8105 82.641 15.8105 84.434C15.8105 120.62 45.3135 150.286 81.3365 150.286C117.523 150.286 146.863 120.783 146.863 84.434C147.189 48.737 118.827 19.56 83.6186 18.582Z" fill="#92959A"/>
<path d="M64.3848 24.6135L84.2708 44.4995V4.56445L64.3848 24.6135Z" fill="#92959A"/>
<path d="M80.6858 108.395C68.9498 108.069 59.3328 98.6148 59.3328 86.7158C59.3328 74.6538 69.1128 64.8737 81.0118 64.8737C90.9548 64.8737 99.5938 71.7197 101.876 81.1738H118.665C115.731 63.2437 100.246 49.5518 81.6638 49.5518C60.9628 49.5518 44.1738 66.5038 44.1738 87.0418C44.1738 107.417 60.4738 124.043 80.6858 124.532V108.395Z" fill="#069FE3"/>
<path d="M89.3242 79.2178L108.721 100.408L127.792 79.5437L89.3242 79.2178Z" fill="#069FE3"/>
</svg>
