<svg width="13" height="19" viewBox="0 0 13 19" fill="none" xmlns="http://www.w3.org/2000/svg">
<path d="M0.68645 8.02505L9.78282 0.444732C10.092 0.188945 10.49 0.0661212 10.8896 0.103158C11.2892 0.140194 11.6579 0.334072 11.9148 0.642335C12.1718 0.950599 12.2961 1.34812 12.2606 1.74786C12.225 2.14759 12.0326 2.51696 11.7253 2.77507L4.02652 9.19027L11.7253 15.6055C12.0337 15.8632 12.2273 16.2329 12.2634 16.6332C12.2995 17.0336 12.1752 17.4319 11.9178 17.7407C11.6604 18.0495 11.291 18.2435 10.8907 18.2801C10.4904 18.3167 10.0919 18.1928 9.78282 17.9358L0.68645 10.3554C0.515887 10.2129 0.378688 10.0347 0.284542 9.83335C0.190397 9.63202 0.141603 9.41248 0.141603 9.19022C0.141603 8.96796 0.190397 8.74842 0.284542 8.54709C0.378688 8.34575 0.515887 8.16755 0.68645 8.02505Z" fill="#fff"/>
</svg>
