<svg width="27" height="25" viewBox="0 0 27 25" fill="none" xmlns="http://www.w3.org/2000/svg">
<path d="M6.29988 17.4306L21.6406 8.57367C21.8745 8.43862 22.003 8.17272 21.9657 7.90124C21.928 7.62917 21.7323 7.40438 21.4694 7.33146L10.441 4.27132C10.0817 4.17157 9.71584 4.38282 9.62259 4.74383C9.52935 5.10484 9.74434 5.47722 10.1036 5.57698L19.5626 8.20216L5.6201 16.2519C5.29957 16.4369 5.19331 16.8502 5.38109 17.1755C5.56887 17.5007 5.97993 17.6154 6.29988 17.4306Z" fill="white"/>
<path d="M18.7774 19.6534C18.9253 19.568 19.0405 19.4246 19.0873 19.2444L20.997 11.8568C21.0903 11.4958 20.8753 11.1234 20.516 11.0237C20.1567 10.9239 19.7908 11.1352 19.6976 11.4962L17.7878 18.8837C17.6946 19.2447 17.9096 19.6171 18.2689 19.7169C18.4477 19.7668 18.6295 19.7388 18.7774 19.6534Z" fill="white"/>
</svg>
