<svg width="279" height="137" viewBox="0 0 279 137" fill="none" xmlns="http://www.w3.org/2000/svg">
<path d="M151.491 43.9052C151.491 45.0168 151.049 46.0829 150.263 46.869C149.477 47.655 148.411 48.0966 147.299 48.0966H130.128C129.578 48.0966 129.033 47.9882 128.524 47.7776C128.015 47.567 127.553 47.2582 127.164 46.869C126.775 46.4798 126.466 46.0177 126.256 45.5092C126.045 45.0006 125.937 44.4556 125.937 43.9052V4.80473C125.937 4.25429 126.045 3.70926 126.256 3.20073C126.466 2.6922 126.775 2.23013 127.164 1.84092C127.553 1.45171 128.015 1.14296 128.524 0.932319C129.033 0.721678 129.578 0.613281 130.128 0.613281H147.299C148.411 0.613281 149.477 1.05487 150.263 1.84092C151.049 2.62697 151.491 3.69308 151.491 4.80473V43.9052ZM141.873 3.52428C141.873 3.47886 141.864 3.43394 141.846 3.39208C141.829 3.3502 141.803 3.31219 141.771 3.28025C141.739 3.2483 141.7 3.22302 141.658 3.20586C141.616 3.18871 141.571 3.18 141.526 3.18024L135.921 3.20958C135.876 3.20981 135.831 3.21898 135.789 3.23658C135.747 3.25417 135.709 3.27985 135.677 3.31212C135.645 3.3444 135.62 3.38267 135.603 3.42472C135.586 3.46676 135.577 3.51177 135.577 3.55718L135.578 3.61682C135.578 3.66224 135.587 3.70716 135.605 3.74903C135.622 3.7909 135.648 3.82888 135.68 3.86082C135.712 3.89277 135.751 3.91805 135.793 3.93521C135.835 3.95236 135.88 3.96107 135.925 3.96083L141.53 3.93149C141.575 3.93126 141.62 3.92209 141.662 3.90449C141.704 3.8869 141.742 3.86122 141.774 3.82895C141.806 3.79667 141.831 3.7584 141.848 3.71635C141.865 3.67431 141.874 3.6293 141.874 3.58389L141.873 3.52428ZM149.231 6.24758C149.231 6.20172 149.213 6.15777 149.18 6.12534C149.148 6.09292 149.104 6.07469 149.058 6.07469H128.548C128.502 6.07469 128.458 6.09292 128.426 6.12534C128.393 6.15777 128.375 6.20172 128.375 6.24758V40.3755C128.375 40.4214 128.393 40.4654 128.426 40.4978C128.458 40.5302 128.502 40.5484 128.548 40.5484H149.058C149.104 40.5484 149.148 40.5302 149.18 40.4978C149.213 40.4654 149.231 40.4214 149.231 40.3755V6.24758ZM140.678 44.5688C140.691 44.3335 140.654 44.0977 140.568 43.8748C140.482 43.6519 140.349 43.4464 140.177 43.2698C140.005 43.0933 139.797 42.9493 139.565 42.846C139.333 42.7427 139.082 42.6822 138.826 42.6678C138.308 42.6389 137.801 42.7999 137.416 43.1155C137.031 43.431 136.8 43.8753 136.773 44.3505C136.76 44.5858 136.797 44.8216 136.883 45.0445C136.969 45.2674 137.102 45.473 137.274 45.6495C137.446 45.826 137.654 45.9701 137.886 46.0733C138.118 46.1766 138.369 46.2372 138.625 46.2515C139.143 46.2805 139.65 46.1194 140.035 45.8039C140.42 45.4883 140.652 45.0441 140.678 44.5688Z" fill="#1E1E1E"/>
<path d="M141.525 3.18173L135.921 3.21108C135.73 3.21208 135.576 3.36771 135.577 3.5587L135.577 3.61832C135.578 3.8093 135.734 3.96331 135.925 3.96231L141.529 3.93297C141.72 3.93197 141.874 3.77634 141.873 3.58535L141.873 3.52573C141.872 3.33475 141.716 3.18073 141.525 3.18173Z" fill="#1E1E1E"/>
<path d="M13.4286 34.7055C13.2974 40.9719 11.6459 50.9646 7.25168 55.9967C7.08871 56.1796 6.96742 56.1537 6.88792 55.9192C4.23472 47.7867 7.20992 40.2385 13.1125 34.5624C13.3312 34.3517 13.4365 34.3995 13.4286 34.7055Z" fill="#1E1E1E"/>
<path d="M265.441 34.4553C271.278 40.4474 274.409 47.6677 271.666 56.0685C271.656 56.0991 271.637 56.1263 271.613 56.1473C271.588 56.1682 271.559 56.1822 271.527 56.1877C271.495 56.1932 271.463 56.1901 271.432 56.1785C271.402 56.167 271.376 56.1475 271.356 56.1222C266.914 50.5534 265.304 41.4789 265.102 34.6044C265.101 34.564 265.113 34.5242 265.135 34.4901C265.157 34.4559 265.188 34.4291 265.224 34.4131C265.261 34.397 265.301 34.3925 265.34 34.4C265.379 34.4076 265.414 34.4268 265.441 34.4553Z" fill="#1E1E1E"/>
<path d="M275.875 50.6559C277.693 55.7 277.228 62.652 272.339 65.9193C272.303 65.9433 272.26 65.9574 272.217 65.9601C272.173 65.9628 272.13 65.9541 272.091 65.9349C272.051 65.9156 272.018 65.8864 271.994 65.8502C271.969 65.814 271.955 65.772 271.951 65.7285C271.606 60.3207 271.963 54.9547 275.541 50.5963C275.688 50.4214 275.799 50.4413 275.875 50.6559Z" fill="#1E1E1E"/>
<path d="M6.23736 65.9534C1.36023 62.6325 0.853449 55.7818 2.66597 50.6901C2.74945 50.4556 2.87266 50.4337 3.03563 50.6245C6.57721 54.8159 6.98858 60.5516 6.58911 65.7865C6.58543 65.8256 6.57167 65.863 6.54915 65.8952C6.52664 65.9274 6.49619 65.9531 6.46072 65.9699C6.42525 65.9868 6.38597 65.9941 6.34682 65.9912C6.30767 65.9883 6.26996 65.9753 6.23736 65.9534Z" fill="#1E1E1E"/>
<path d="M7.09018 63.1228C7.30879 58.0589 9.36974 53.9907 13.273 50.9181C13.9448 50.3934 14.3541 50.5504 14.5012 51.3891C15.2465 55.6819 10.7391 61.1791 7.4658 63.3315C7.42803 63.3557 7.38427 63.3694 7.33938 63.371C7.29449 63.3725 7.25019 63.362 7.21136 63.3404C7.17252 63.3188 7.14067 63.2871 7.11929 63.2487C7.0979 63.2103 7.08783 63.1668 7.09018 63.1228Z" fill="#1E1E1E"/>
<path d="M264.809 50.6377C268.804 53.3445 271.481 58.2157 271.422 63.0392C271.418 63.3532 271.284 63.4247 271.022 63.2538C267.367 60.8689 263.373 55.5685 264.094 50.9477C264.169 50.4668 264.408 50.3634 264.809 50.6377Z" fill="#1E1E1E"/>
<path d="M193.726 82.9163C191.216 85.2357 186.965 85.0568 184.27 83.0952C179.494 79.6132 179.846 69.388 185.087 66.3592C187.948 64.7096 190.842 64.8825 193.768 66.8779C193.911 66.9772 193.982 66.9375 193.982 66.7586L193.976 58.2386C193.976 58.012 194.092 57.8987 194.322 57.8987L198.245 57.8868C198.472 57.8828 198.585 57.9941 198.585 58.2207V84.079C198.585 84.2698 198.488 84.3652 198.293 84.3652H194.268C194.058 84.3691 193.954 84.2658 193.958 84.0551L193.988 83.0356C193.996 82.7852 193.909 82.7454 193.726 82.9163ZM190.149 80.6865C190.723 80.6865 191.292 80.537 191.823 80.2467C192.354 79.9563 192.837 79.5308 193.243 78.9943C193.649 78.4578 193.972 77.8209 194.192 77.12C194.412 76.419 194.525 75.6677 194.525 74.909C194.525 74.1503 194.412 73.3991 194.192 72.6981C193.972 71.9972 193.649 71.3603 193.243 70.8238C192.837 70.2873 192.354 69.8617 191.823 69.5714C191.292 69.2811 190.723 69.1316 190.149 69.1316C188.988 69.1316 187.875 69.7403 187.054 70.8238C186.233 71.9073 185.772 73.3768 185.772 74.909C185.772 76.4413 186.233 77.9108 187.054 78.9943C187.875 80.0778 188.988 80.6865 190.149 80.6865Z" fill="#1E1E1E"/>
<path d="M13.4942 61.273C14.8655 66.4006 11.9977 71.2717 7.53795 73.6328C7.51034 73.6466 7.47977 73.6538 7.44893 73.6537C7.4181 73.6535 7.38793 73.6461 7.36094 73.6321C7.33396 73.618 7.311 73.5977 7.29406 73.5729C7.27711 73.5481 7.26665 73.5195 7.26363 73.4897C6.78665 68.1594 8.70452 64.0276 13.0172 61.0941C13.0584 61.0657 13.1058 61.0476 13.1555 61.0414C13.2052 61.0353 13.2557 61.0412 13.3025 61.0588C13.3494 61.0764 13.3913 61.1051 13.4247 61.1424C13.4581 61.1797 13.4819 61.2245 13.4942 61.273Z" fill="#1E1E1E"/>
<path d="M265.482 61.1247C269.727 63.6646 271.921 68.5775 271.265 73.4248C271.238 73.6315 271.132 73.6831 270.949 73.5798C266.211 70.9644 264.192 66.91 264.892 61.4168C264.9 61.3519 264.923 61.29 264.961 61.2366C264.999 61.1833 265.049 61.1401 265.108 61.1111C265.167 61.0822 265.231 61.0682 265.297 61.0706C265.362 61.0729 265.426 61.0915 265.482 61.1247Z" fill="#1E1E1E"/>
<path d="M6.16102 75.2135C0.894362 73.1187 -0.942005 69.2651 0.651903 63.6526C0.715501 63.4261 0.85662 63.3545 1.07524 63.438C4.50353 64.7259 6.50682 71.7553 6.74531 74.7842C6.77711 75.2373 6.58235 75.3804 6.16102 75.2135Z" fill="#1E1E1E"/>
<path d="M272.512 75.178C272.015 75.3847 271.787 75.2198 271.827 74.6832C272.059 71.6722 274.063 64.7739 277.485 63.4443C277.696 63.3608 277.835 63.4304 277.902 63.653C279.504 69.2019 277.707 73.0436 272.512 75.178Z" fill="#1E1E1E"/>
<path d="M206.057 77.6405C208.978 83.7161 215.054 78.2606 210.302 76.6151C208.625 76.0347 207.309 75.4981 206.355 75.0052C201.418 72.4594 203.666 65.6505 208.674 65.0483C211.242 64.7422 213.402 65.734 215.155 68.0235C215.259 68.1626 215.247 68.2898 215.119 68.405L212.854 70.456C212.687 70.6111 212.52 70.6091 212.353 70.4501C211.155 69.2755 209.109 68.2679 207.833 69.9314C207.702 70.0943 207.649 70.2811 207.673 70.4918C207.762 71.3862 208.227 71.9705 209.133 72.2567C212.919 73.4491 217.522 75.0649 216.014 79.9062C214.923 83.4061 211.435 84.8847 207.989 84.1692C205.461 83.6445 203.555 82.1321 202.271 79.632C202.175 79.4491 202.219 79.308 202.402 79.2086L205.562 77.4796C205.604 77.4565 205.651 77.4423 205.699 77.4379C205.747 77.4335 205.796 77.439 205.842 77.4541C205.888 77.4691 205.931 77.4934 205.968 77.5254C206.005 77.5575 206.035 77.5966 206.057 77.6405Z" fill="#1E1E1E"/>
<path d="M68.4069 72.4875C68.7368 71.0288 68.2936 70.047 67.0773 69.5422C64.8912 68.6359 63.2019 69.1447 62.0094 71.0685C61.9061 71.2355 61.759 71.2971 61.5682 71.2534L58.4857 70.5975C58.4318 70.586 58.3808 70.5633 58.3362 70.5309C58.2916 70.4984 58.2544 70.457 58.2268 70.4092C58.1993 70.3614 58.182 70.3083 58.1763 70.2535C58.1706 70.1986 58.1765 70.1432 58.1936 70.0907C60.2744 63.9794 69.6173 63.5442 72.3122 68.94C72.9243 70.1603 73.2343 72.2312 73.2423 75.1527C73.2463 78.0861 73.2443 81.0155 73.2363 83.941C73.2323 84.1397 73.133 84.2391 72.9382 84.2391L69.6828 84.2511C69.5864 84.2524 69.4929 84.2193 69.4195 84.1579C69.3461 84.0966 69.2977 84.0111 69.2833 83.9172L69.021 82.2776C68.9694 81.9755 68.8382 81.9357 68.6275 82.1583C66.9303 83.9589 64.9349 84.7499 62.6414 84.5313C58.5334 84.1438 56.1246 80.1729 58.0206 76.4346C59.857 72.8155 64.3705 72.5651 68.0611 72.7499C68.2479 72.7578 68.3632 72.6704 68.4069 72.4875ZM65.7358 80.4531C67.5046 79.8609 68.4288 78.6525 68.5083 76.828C68.5107 76.7865 68.5049 76.745 68.4912 76.7057C68.4775 76.6664 68.4562 76.6302 68.4285 76.5992C68.4008 76.5682 68.3673 76.543 68.3298 76.5249C68.2924 76.5069 68.2517 76.4964 68.2102 76.4942C66.8269 76.4286 64.3645 76.1722 63.2198 76.9473C60.7097 78.6525 63.1661 81.3117 65.7358 80.4531Z" fill="#1E1E1E"/>
<path d="M158.46 82.1594C156.139 84.5245 153.523 85.1962 150.614 84.1747C148.917 83.5745 147.867 82.4158 147.466 80.6987C145.838 73.7229 153.088 72.4052 158.001 72.7629C158.22 72.7788 158.343 72.6775 158.371 72.4589C158.86 68.5715 153.559 68.2018 151.914 70.9802C151.774 71.2147 151.572 71.3022 151.305 71.2426L148.241 70.5867C148.185 70.5743 148.133 70.5499 148.088 70.5154C148.043 70.4809 148.006 70.437 147.979 70.3869C147.953 70.3368 147.939 70.2817 147.936 70.2256C147.934 70.1694 147.944 70.1136 147.967 70.0621C149.477 66.4052 152.379 64.8471 156.671 65.3876C162.121 66.0793 162.914 69.3525 162.98 74.4383C163.023 77.6023 163.023 80.7702 162.98 83.9422C162.98 84.1488 162.874 84.2522 162.664 84.2522L159.426 84.2462C159.219 84.2462 159.1 84.1449 159.068 83.9422L158.794 82.2668C158.754 82.0124 158.643 81.9766 158.46 82.1594ZM158.353 77.8249C158.766 77.0657 158.546 76.6305 157.691 76.5192C156.606 76.382 153.744 76.1912 152.754 77.0975C151.574 78.1767 151.908 80.3052 153.672 80.5198C155.676 80.7623 157.236 79.864 158.353 77.8249Z" fill="#1E1E1E"/>
<path d="M172.091 68.1123C173.84 65.7075 176.209 64.839 179.198 65.5068C179.307 65.5309 179.403 65.5973 179.464 65.692C179.526 65.7867 179.548 65.9021 179.526 66.0135L178.793 69.4717C178.733 69.734 178.578 69.8155 178.328 69.7161C174.446 68.1778 172.228 71.7492 171.972 75.1656C171.749 78.0911 171.718 81.0166 171.876 83.942C171.888 84.1567 171.789 84.268 171.578 84.2759L167.649 84.3833C167.359 84.3912 167.214 84.2501 167.214 83.9599L167.208 65.9122C167.208 65.6737 167.329 65.5545 167.572 65.5545L171.632 65.5783C171.672 65.5782 171.712 65.5863 171.749 65.6023C171.786 65.6182 171.819 65.6416 171.846 65.6708C171.873 65.7001 171.893 65.7346 171.906 65.7721C171.918 65.8096 171.922 65.8492 171.918 65.8884L171.739 67.9751C171.736 68.0175 171.746 68.0599 171.768 68.096C171.791 68.132 171.824 68.1599 171.864 68.1754C171.904 68.1908 171.947 68.193 171.988 68.1816C172.029 68.1702 172.065 68.1459 172.091 68.1123Z" fill="#1E1E1E"/>
<path d="M83.3651 77.7552L86.3403 65.8009C86.351 65.7568 86.3762 65.7175 86.4119 65.6894C86.4476 65.6613 86.4917 65.646 86.5371 65.6459L90.5318 65.634C90.5772 65.6341 90.6213 65.6494 90.6569 65.6775C90.6926 65.7056 90.7178 65.7449 90.7285 65.789L93.7096 77.7731C93.7217 77.8148 93.7469 77.8515 93.7814 77.8778C93.8159 77.9041 93.8579 77.9187 93.9012 77.9193C93.9446 77.92 93.987 77.9067 94.0223 77.8815C94.0576 77.8563 94.0838 77.8204 94.0972 77.7791L97.1857 65.7711C97.1972 65.729 97.222 65.6918 97.2563 65.665C97.2907 65.6381 97.3328 65.6231 97.3764 65.6221L101.359 65.5684C101.391 65.5679 101.423 65.575 101.452 65.5891C101.48 65.6032 101.505 65.6239 101.524 65.6495C101.544 65.675 101.556 65.7048 101.562 65.7363C101.567 65.7678 101.565 65.8002 101.556 65.8307L95.713 84.111C95.7001 84.1529 95.6739 84.1895 95.6385 84.2153C95.603 84.2411 95.5601 84.2547 95.5162 84.2541L91.7838 84.2601C91.7392 84.2603 91.6957 84.2459 91.6602 84.2189C91.6246 84.192 91.5989 84.154 91.5871 84.111L88.6239 72.9198C88.613 72.8759 88.5876 72.8369 88.552 72.809C88.5163 72.7811 88.4723 72.766 88.4271 72.766C88.3818 72.766 88.3378 72.7811 88.3022 72.809C88.2665 72.8369 88.2412 72.8759 88.2303 72.9198L85.2373 84.2183C85.2255 84.2614 85.1998 84.2993 85.1642 84.3263C85.1286 84.3532 85.0852 84.3677 85.0406 84.3674L81.3141 84.3733C81.2703 84.374 81.2273 84.3604 81.1919 84.3346C81.1564 84.3088 81.1302 84.2722 81.1173 84.2303L75.2863 65.8963C75.2769 65.8658 75.2749 65.8334 75.2803 65.8019C75.2858 65.7704 75.2986 65.7406 75.3178 65.715C75.337 65.6895 75.3621 65.6688 75.3908 65.6547C75.4195 65.6406 75.4511 65.6335 75.483 65.634L79.7162 65.6519C79.7609 65.6516 79.8044 65.666 79.84 65.693C79.8755 65.7199 79.9012 65.7579 79.913 65.8009L82.9717 77.7552C82.9826 77.7992 83.0078 77.8382 83.0435 77.8661C83.0792 77.894 83.1231 77.9092 83.1684 77.9092C83.2137 77.9092 83.2576 77.894 83.2933 77.8661C83.3289 77.8382 83.3542 77.7992 83.3651 77.7552Z" fill="#1E1E1E"/>
<path d="M116.11 77.8967L119.222 65.692C119.232 65.6531 119.254 65.6184 119.285 65.5936C119.317 65.5687 119.355 65.5551 119.395 65.5549L123.664 65.5608C123.693 65.5605 123.72 65.5668 123.746 65.5794C123.771 65.5919 123.793 65.6103 123.81 65.633C123.827 65.6557 123.838 65.682 123.843 65.7099C123.848 65.7378 123.846 65.7664 123.837 65.7933L117.994 84.2465C117.983 84.2832 117.96 84.3152 117.928 84.3377C117.897 84.3603 117.86 84.3722 117.821 84.3717L113.934 84.3658C113.895 84.3659 113.856 84.3531 113.825 84.3294C113.794 84.3057 113.771 84.2724 113.761 84.2346L110.744 72.8527C110.734 72.8145 110.711 72.7808 110.68 72.7567C110.649 72.7326 110.611 72.7196 110.571 72.7196C110.532 72.7196 110.493 72.7326 110.462 72.7567C110.431 72.7808 110.408 72.8145 110.398 72.8527L107.405 84.2465C107.395 84.2843 107.372 84.3176 107.341 84.3413C107.31 84.365 107.271 84.3778 107.232 84.3777L103.44 84.3658C103.402 84.3662 103.364 84.3543 103.333 84.3318C103.302 84.3092 103.279 84.2772 103.267 84.2405L100.948 76.7758C100.935 76.7415 100.933 76.704 100.942 76.6685L102.486 71.2488C102.497 71.2126 102.518 71.1805 102.548 71.1573C102.578 71.1341 102.614 71.1209 102.652 71.1196C102.69 71.1183 102.727 71.1289 102.758 71.15C102.789 71.171 102.813 71.2014 102.826 71.2369L105.122 77.8848C105.134 77.9226 105.158 77.9553 105.19 77.9779C105.223 78.0005 105.262 78.0117 105.301 78.0096C105.341 78.0076 105.379 77.9925 105.409 77.9666C105.439 77.9408 105.46 77.9057 105.467 77.8669L108.395 65.686C108.404 65.6461 108.427 65.6107 108.46 65.5858C108.493 65.5608 108.533 65.5478 108.574 65.5489L112.616 65.5608C112.657 65.5597 112.697 65.5727 112.73 65.5977C112.763 65.6226 112.785 65.658 112.795 65.698L115.764 77.8967C115.774 77.9349 115.797 77.9686 115.828 77.9927C115.859 78.0167 115.898 78.0298 115.937 78.0298C115.977 78.0298 116.015 78.0167 116.046 77.9927C116.078 77.9686 116.1 77.9349 116.11 77.8967Z" fill="#1E1E1E"/>
<path d="M141.665 65.5608L145.94 65.5549C145.968 65.5554 145.995 65.5625 146.019 65.5754C146.044 65.5883 146.065 65.6068 146.081 65.6294C146.098 65.6519 146.108 65.6779 146.113 65.7054C146.117 65.7328 146.115 65.7609 146.107 65.7874L140.15 84.2405C140.139 84.2772 140.116 84.3092 140.085 84.3318C140.054 84.3543 140.016 84.3662 139.978 84.3658L136.215 84.3717C136.176 84.3718 136.138 84.3591 136.107 84.3354C136.076 84.3117 136.053 84.2783 136.042 84.2405L133.026 72.7751C133.015 72.737 132.993 72.7032 132.962 72.6792C132.93 72.6551 132.892 72.6421 132.853 72.6421C132.813 72.6421 132.775 72.6551 132.744 72.6792C132.712 72.7032 132.69 72.737 132.68 72.7751L129.687 84.2346C129.676 84.2724 129.654 84.3057 129.622 84.3294C129.591 84.3531 129.553 84.3659 129.514 84.3658L125.752 84.3717C125.714 84.3726 125.677 84.3616 125.646 84.3401C125.615 84.3187 125.591 84.288 125.579 84.2525L123.081 76.7937C123.07 76.7588 123.07 76.7213 123.081 76.6864L124.78 71.2726C124.791 71.2366 124.813 71.2051 124.843 71.1824C124.873 71.1598 124.91 71.1472 124.948 71.1466C124.985 71.1459 125.022 71.1572 125.053 71.1788C125.084 71.2003 125.107 71.2311 125.12 71.2667L127.403 77.9921C127.416 78.0275 127.44 78.058 127.471 78.079C127.503 78.1001 127.54 78.1107 127.577 78.1094C127.615 78.1081 127.651 78.0949 127.681 78.0717C127.711 78.0485 127.733 78.0164 127.743 77.9802L130.665 65.698C130.674 65.6591 130.696 65.6244 130.727 65.5996C130.759 65.5747 130.797 65.5611 130.837 65.5608L134.868 65.5489C134.909 65.5478 134.949 65.5608 134.982 65.5858C135.014 65.6107 135.037 65.6461 135.047 65.686L138.04 77.8729C138.047 77.914 138.069 77.9511 138.101 77.9778C138.133 78.0046 138.174 78.0192 138.216 78.0192C138.257 78.0192 138.298 78.0046 138.33 77.9778C138.362 77.9511 138.384 77.914 138.392 77.8729L141.492 65.698C141.501 65.6591 141.523 65.6244 141.555 65.5996C141.586 65.5747 141.625 65.5611 141.665 65.5608Z" fill="#1E1E1E"/>
<path d="M8.52711 84.3532C7.20945 79.6371 8.95642 74.4142 13.3208 71.9518C13.5116 71.8405 13.6507 71.8862 13.7381 72.0889C15.6043 76.4115 12.1164 81.8073 8.87894 84.4665C8.85043 84.4896 8.8166 84.5053 8.78054 84.512C8.74447 84.5188 8.70724 84.5164 8.67231 84.5052C8.63738 84.4939 8.60581 84.4741 8.58046 84.4476C8.5551 84.4211 8.53677 84.3886 8.52711 84.3532Z" fill="#1E1E1E"/>
<path d="M265.268 71.9713C269.603 74.4397 271.326 79.5374 270.038 84.2774C269.979 84.492 269.859 84.5318 269.68 84.3966C266.497 81.9163 262.884 76.2939 264.815 72.1144C264.915 71.9037 265.066 71.856 265.268 71.9713Z" fill="#1E1E1E"/>
<path d="M1.33119 74.3898C5.62998 76.9535 7.52597 81.5206 8.4859 86.201C8.53359 86.4435 8.43821 86.5349 8.19972 86.4752C2.96486 85.1278 -0.523074 79.9168 0.949602 74.5448C1.00922 74.3262 1.13643 74.2745 1.33119 74.3898Z" fill="#1E1E1E"/>
<path d="M270.068 86.2679C271.01 81.5756 272.882 77.0145 277.187 74.403C277.39 74.2798 277.525 74.3315 277.592 74.558C279.226 79.9837 275.476 85.0695 270.318 86.5004C270.108 86.5561 270.024 86.4786 270.068 86.2679Z" fill="#1E1E1E"/>
<path d="M222.322 84.483C224.05 84.483 225.452 83.0816 225.452 81.3528C225.452 79.6241 224.05 78.2227 222.322 78.2227C220.593 78.2227 219.191 79.6241 219.191 81.3528C219.191 83.0816 220.593 84.483 222.322 84.483Z" fill="#1E1E1E"/>
<path d="M14.6326 81.7082C17.2858 86.3349 16.791 91.6055 13.4164 95.6718C13.2495 95.8705 13.1064 95.8546 12.9871 95.6241C10.8646 91.5399 10.2445 84.9099 14.1438 81.6247C14.1806 81.5945 14.2234 81.5724 14.2693 81.5601C14.3152 81.5478 14.3631 81.5455 14.4096 81.5535C14.4562 81.5614 14.5002 81.5794 14.5388 81.6061C14.5773 81.6328 14.6093 81.6676 14.6326 81.7082Z" fill="#1E1E1E"/>
<path d="M263.641 82.1281C263.852 81.6829 264.17 81.5875 264.595 81.8419C268.614 84.2626 267.207 92.4845 265.526 95.7697C265.454 95.9088 265.369 95.9187 265.269 95.7995C261.851 91.6259 261.308 87.0688 263.641 82.1281Z" fill="#1E1E1E"/>
<path d="M1.58675 86.8147C6.52946 87.5003 11.508 93.8442 13.5053 98.1191C13.5808 98.2781 13.5312 98.3596 13.3563 98.3636C6.75606 98.4768 1.04421 93.9932 1.30655 87.0532C1.3145 86.8703 1.40789 86.7908 1.58675 86.8147Z" fill="#1E1E1E"/>
<path d="M277.253 87.0015C277.659 94.0906 271.643 98.4192 265.037 98.4013C265.012 98.4009 264.988 98.3944 264.967 98.3822C264.946 98.3701 264.928 98.3528 264.916 98.3318C264.903 98.3109 264.896 98.2872 264.896 98.2628C264.895 98.2385 264.9 98.2143 264.911 98.1926C267.374 93.4288 271.559 88.1581 276.907 86.7511C277.126 86.6914 277.241 86.7749 277.253 87.0015Z" fill="#1E1E1E"/>
<path d="M20.19 107.261C15.9627 102.981 15.5215 96.4221 18.5384 91.39C18.5632 91.3493 18.5972 91.3148 18.6375 91.2894C18.6777 91.264 18.7232 91.2483 18.7702 91.2436C18.8172 91.239 18.8645 91.2455 18.9081 91.2626C18.9518 91.2798 18.9905 91.3071 19.0214 91.3423C22.6226 95.4383 22.3542 102.498 20.5536 107.184C20.4741 107.403 20.3529 107.428 20.19 107.261Z" fill="#1E1E1E"/>
<path d="M258.059 107.177C256.175 102.515 255.937 95.372 259.526 91.3654C259.669 91.2024 259.808 91.2064 259.943 91.3773C263.586 96.0696 262.06 103.242 258.399 107.243C258.252 107.402 258.139 107.38 258.059 107.177Z" fill="#1E1E1E"/>
<path d="M6.81646 100.082C11.5088 100.386 17.4889 105.519 20.5356 108.906C20.7065 109.097 20.6628 109.2 20.4045 109.216C14.162 109.609 6.44684 108.53 6.47665 100.398C6.47665 100.171 6.5899 100.066 6.81646 100.082Z" fill="#1E1E1E"/>
<path d="M257.959 108.898C261.256 105.392 266.878 100.527 271.755 100.062C271.978 100.038 272.087 100.138 272.083 100.36C272 108.612 264.481 109.596 258.078 109.202C258.044 109.2 258.012 109.189 257.985 109.169C257.958 109.149 257.937 109.122 257.925 109.09C257.912 109.059 257.909 109.024 257.915 108.99C257.921 108.956 257.936 108.924 257.959 108.898Z" fill="#1E1E1E"/>
<path d="M28.269 116.133C24.3339 112.192 21.6151 105.765 24.6022 100.781C24.8009 100.451 25.0275 100.429 25.2819 100.715C29.1216 105.032 30.4333 110.078 29.217 115.853C29.0739 116.529 28.7579 116.622 28.269 116.133Z" fill="#1E1E1E"/>
<path d="M249.456 116.048C248.007 110.837 249.461 104.452 253.438 100.594C253.605 100.431 253.746 100.453 253.862 100.66C256.837 106.026 254.339 112.358 250.093 116.233C249.779 116.519 249.567 116.458 249.456 116.048Z" fill="#1E1E1E"/>
<path d="M86.0089 112.712C85.388 112.715 84.7725 112.59 84.1976 112.345C83.6226 112.099 83.0995 111.738 82.6581 111.281C82.2167 110.825 81.8655 110.282 81.6248 109.683C81.384 109.085 81.2583 108.443 81.255 107.794C81.2516 107.145 81.3705 106.501 81.605 105.9C81.8394 105.299 82.1849 104.753 82.6215 104.291C83.0581 103.83 83.5774 103.463 84.1498 103.212C84.7221 102.961 85.3363 102.829 85.9571 102.826C86.578 102.823 87.1934 102.948 87.7684 103.193C88.3433 103.438 88.8665 103.8 89.3079 104.256C89.7494 104.713 90.1005 105.256 90.3412 105.855C90.5819 106.453 90.7076 107.095 90.711 107.744C90.7144 108.393 90.5955 109.037 90.361 109.638C90.1265 110.238 89.7811 110.785 89.3445 111.246C88.9078 111.708 88.3885 112.074 87.8162 112.326C87.2439 112.577 86.6298 112.708 86.0089 112.712ZM85.9745 110.523C86.6213 110.527 87.243 110.24 87.703 109.726C88.163 109.211 88.4237 108.512 88.4275 107.782C88.4313 107.051 88.178 106.349 87.7234 105.83C87.2688 105.311 86.6501 105.018 86.0034 105.014C85.3566 105.011 84.7349 105.298 84.2749 105.812C83.8149 106.326 83.5543 107.026 83.5505 107.756C83.5467 108.487 83.7999 109.189 84.2545 109.708C84.7091 110.227 85.3278 110.52 85.9745 110.523Z" fill="#1E1E1E"/>
<path d="M147.859 105.257C144.46 103.826 142.934 109.138 146.118 110.462C147.131 110.887 147.99 110.565 148.694 109.496C148.821 109.305 149.002 109.21 149.236 109.21L150.935 109.228C151.214 109.228 151.293 109.355 151.174 109.609C150.041 112.026 148.352 113.028 146.106 112.614C141.318 111.738 140.668 105.138 144.83 103.265C147.477 102.079 150.077 103.331 151.102 105.996C151.178 106.195 151.11 106.296 150.9 106.3L149.004 106.342C148.829 106.346 148.696 106.272 148.604 106.121L148.318 105.65C148.207 105.467 148.054 105.336 147.859 105.257Z" fill="#1E1E1E"/>
<path d="M199.451 105.007C196.368 105.24 196.321 110.361 199.498 110.48C200.393 110.512 201.084 110.176 201.573 109.473C201.693 109.294 201.859 109.205 202.074 109.205L203.696 109.187C203.739 109.186 203.781 109.196 203.819 109.216C203.856 109.236 203.888 109.265 203.912 109.301C203.936 109.336 203.95 109.377 203.954 109.42C203.958 109.462 203.951 109.505 203.934 109.544C202.462 113.11 198.646 113.766 196.058 111.154C194.945 110.033 194.554 108.658 194.884 107.028C195.861 102.211 202.062 101.054 203.797 105.961C203.873 106.184 203.793 106.299 203.559 106.307L201.979 106.367C201.78 106.374 201.625 106.293 201.514 106.122C200.981 105.315 200.293 104.944 199.451 105.007Z" fill="#1E1E1E"/>
<path d="M71.8177 108.615L71.8655 112.258C71.8655 112.441 71.774 112.532 71.5912 112.532L69.8025 112.538C69.5918 112.542 69.4865 112.436 69.4865 112.222L69.4806 103.32C69.4766 103.106 69.5819 102.998 69.7965 102.998L71.2096 102.992C71.4361 102.988 71.5952 103.09 71.6866 103.296L74.3935 109.175C74.5246 109.461 74.6558 109.461 74.7869 109.175L77.464 103.338C77.5673 103.108 77.7462 102.992 78.0006 102.992L79.3779 102.998C79.4617 102.998 79.5421 103.032 79.6013 103.091C79.6606 103.15 79.6939 103.23 79.6939 103.314L79.6998 112.174C79.6998 112.413 79.5806 112.532 79.3421 112.532L77.6787 112.544C77.4481 112.544 77.3328 112.429 77.3328 112.198V108.68C77.3288 108.323 77.2533 108.307 77.1062 108.633L75.5978 111.93C75.5095 112.121 75.3683 112.283 75.1908 112.397C75.0133 112.51 74.8069 112.571 74.5962 112.571C74.3854 112.571 74.1791 112.51 74.0015 112.397C73.824 112.283 73.6827 112.121 73.5945 111.93L72.0324 108.561C71.8813 108.235 71.8098 108.253 71.8177 108.615Z" fill="#1E1E1E"/>
<path d="M98.4439 107.721C99.535 108.967 100.078 110.195 98.8255 111.59C97.5853 112.973 94.1988 112.628 92.4757 112.49C92.2451 112.471 92.1299 112.345 92.1299 112.115L92.1417 103.297C92.1417 103.09 92.2431 102.987 92.4458 102.987C94.7174 102.975 99.1295 102.265 99.2607 105.688C99.2806 106.22 99.0163 106.735 98.4678 107.232C98.3008 107.387 98.2928 107.55 98.4439 107.721ZM94.4611 105.073V106.564C94.4611 106.64 94.4912 106.713 94.5449 106.766C94.5986 106.82 94.6714 106.85 94.7473 106.85H95.7907C95.9544 106.85 96.1165 106.825 96.2678 106.777C96.4191 106.728 96.5565 106.657 96.6722 106.568C96.788 106.478 96.8797 106.371 96.9423 106.254C97.0048 106.137 97.037 106.011 97.0368 105.884V105.753C97.0365 105.497 96.9051 105.252 96.6714 105.07C96.4378 104.889 96.121 104.788 95.7907 104.787H94.7473C94.7097 104.787 94.6725 104.795 94.6378 104.809C94.6031 104.823 94.5715 104.845 94.5449 104.871C94.5183 104.898 94.4973 104.929 94.4829 104.964C94.4685 104.999 94.4611 105.036 94.4611 105.073ZM94.4432 108.877L94.4551 110.463C94.4567 110.543 94.4894 110.619 94.5463 110.675C94.6032 110.73 94.6796 110.761 94.7592 110.761L96.0351 110.755C96.2148 110.754 96.3926 110.726 96.5582 110.673C96.7238 110.62 96.8741 110.543 97.0004 110.446C97.1267 110.349 97.2265 110.234 97.2942 110.109C97.3618 109.983 97.3959 109.848 97.3945 109.712V109.581C97.3918 109.308 97.2459 109.047 96.9888 108.856C96.7318 108.665 96.3845 108.559 96.0232 108.561L94.7473 108.567C94.7069 108.567 94.6668 108.575 94.6296 108.591C94.5923 108.607 94.5585 108.63 94.5301 108.659C94.5018 108.687 94.4796 108.722 94.4646 108.759C94.4497 108.797 94.4424 108.837 94.4432 108.877Z" fill="#1E1E1E"/>
<path d="M103.289 103.006L101.25 103.002C101.158 103.002 101.083 103.077 101.083 103.169L101.067 112.363C101.067 112.455 101.141 112.53 101.233 112.53L103.272 112.533C103.365 112.534 103.439 112.459 103.44 112.367L103.456 103.173C103.456 103.081 103.381 103.006 103.289 103.006Z" fill="#1E1E1E"/>
<path d="M107.799 110.415L111.686 110.403C111.737 110.403 111.785 110.423 111.821 110.459C111.857 110.495 111.877 110.543 111.877 110.594L111.889 112.347C111.889 112.397 111.869 112.446 111.833 112.482C111.797 112.518 111.749 112.538 111.698 112.538H105.45C105.399 112.538 105.35 112.518 105.315 112.482C105.279 112.446 105.259 112.397 105.259 112.347V103.189C105.259 103.138 105.279 103.09 105.315 103.054C105.35 103.018 105.399 102.998 105.45 102.998H107.429C107.48 102.998 107.528 103.018 107.564 103.054C107.6 103.09 107.62 103.138 107.62 103.189L107.608 110.224C107.608 110.275 107.628 110.323 107.664 110.359C107.7 110.395 107.748 110.415 107.799 110.415Z" fill="#1E1E1E"/>
<path d="M115.382 105.377L115.328 106.414C115.327 106.451 115.332 106.487 115.345 106.522C115.358 106.556 115.377 106.587 115.402 106.614C115.427 106.641 115.457 106.662 115.49 106.677C115.524 106.692 115.56 106.7 115.596 106.701L119.293 106.707C119.366 106.707 119.436 106.735 119.487 106.787C119.538 106.838 119.567 106.908 119.567 106.981L119.585 108.561C119.585 108.634 119.556 108.703 119.505 108.755C119.453 108.806 119.384 108.835 119.311 108.835H115.608C115.571 108.835 115.535 108.843 115.501 108.857C115.467 108.872 115.436 108.893 115.41 108.92C115.384 108.946 115.365 108.978 115.351 109.013C115.338 109.047 115.332 109.084 115.334 109.121L115.364 110.153C115.365 110.189 115.373 110.224 115.387 110.257C115.402 110.29 115.422 110.32 115.448 110.345C115.474 110.37 115.505 110.389 115.539 110.402C115.572 110.416 115.608 110.422 115.644 110.421L119.859 110.409C119.93 110.409 119.998 110.436 120.049 110.485C120.1 110.534 120.131 110.601 120.134 110.671L120.187 112.246C120.189 112.283 120.183 112.319 120.17 112.354C120.157 112.389 120.137 112.42 120.111 112.447C120.086 112.474 120.055 112.495 120.021 112.51C119.987 112.524 119.95 112.532 119.913 112.532L113.283 112.538C113.21 112.538 113.141 112.509 113.089 112.457C113.038 112.406 113.009 112.336 113.009 112.263V103.272C113.009 103.2 113.038 103.13 113.089 103.078C113.141 103.027 113.21 102.998 113.283 102.998L119.621 103.004C119.694 103.004 119.763 103.033 119.815 103.084C119.866 103.136 119.895 103.206 119.895 103.278L119.901 104.834C119.901 104.907 119.872 104.977 119.821 105.028C119.769 105.08 119.7 105.109 119.627 105.109L115.656 105.121C115.586 105.12 115.519 105.147 115.468 105.195C115.417 105.242 115.386 105.307 115.382 105.377Z" fill="#1E1E1E"/>
<path d="M127.54 109.032L127.522 110.236C127.521 110.263 127.526 110.29 127.536 110.315C127.546 110.34 127.561 110.362 127.58 110.381C127.599 110.4 127.622 110.415 127.646 110.425C127.671 110.435 127.698 110.44 127.725 110.439L132.095 110.397C132.147 110.397 132.198 110.418 132.234 110.455C132.271 110.492 132.292 110.542 132.292 110.594L132.304 112.341C132.304 112.393 132.283 112.443 132.246 112.48C132.209 112.517 132.159 112.538 132.107 112.538H125.465C125.413 112.538 125.363 112.517 125.326 112.48C125.289 112.443 125.269 112.393 125.269 112.341V103.195C125.269 103.169 125.274 103.143 125.284 103.12C125.293 103.096 125.308 103.074 125.326 103.056C125.344 103.037 125.366 103.023 125.39 103.013C125.414 103.003 125.439 102.998 125.465 102.998H131.958C132.01 102.998 132.06 103.019 132.097 103.056C132.134 103.093 132.155 103.143 132.155 103.195L132.167 104.912C132.167 104.964 132.146 105.014 132.109 105.051C132.072 105.088 132.022 105.109 131.97 105.109L127.713 105.121C127.661 105.121 127.611 105.141 127.574 105.178C127.537 105.215 127.516 105.265 127.516 105.317V106.51C127.516 106.562 127.537 106.612 127.574 106.649C127.611 106.686 127.661 106.707 127.713 106.707H131.523C131.575 106.707 131.625 106.727 131.662 106.764C131.699 106.801 131.72 106.851 131.72 106.903L131.69 108.638C131.688 108.688 131.668 108.736 131.632 108.772C131.597 108.807 131.549 108.828 131.499 108.829L127.737 108.835C127.685 108.835 127.635 108.856 127.598 108.893C127.561 108.93 127.54 108.98 127.54 109.032Z" fill="#1E1E1E"/>
<path d="M137.246 109.61L135.541 112.442C135.525 112.471 135.501 112.494 135.473 112.511C135.445 112.528 135.413 112.537 135.38 112.538L133.293 112.532C133.259 112.532 133.226 112.522 133.197 112.505C133.167 112.488 133.143 112.463 133.127 112.433C133.111 112.403 133.102 112.369 133.103 112.335C133.104 112.301 133.114 112.268 133.132 112.24L135.911 107.792C135.93 107.761 135.94 107.726 135.94 107.69C135.94 107.654 135.93 107.619 135.911 107.589L133.281 103.284C133.263 103.255 133.253 103.222 133.252 103.188C133.251 103.154 133.26 103.121 133.276 103.091C133.292 103.061 133.317 103.036 133.346 103.019C133.375 103.001 133.408 102.992 133.442 102.992L135.535 103.004C135.568 103.005 135.6 103.014 135.628 103.031C135.656 103.047 135.68 103.071 135.696 103.099L137.24 105.747C137.257 105.775 137.281 105.799 137.31 105.815C137.339 105.831 137.371 105.84 137.404 105.84C137.437 105.84 137.47 105.831 137.499 105.815C137.527 105.799 137.551 105.775 137.568 105.747L139.059 103.087C139.075 103.057 139.099 103.032 139.128 103.014C139.158 102.996 139.191 102.986 139.226 102.986L141.325 103.01C141.359 103.01 141.392 103.019 141.421 103.037C141.451 103.054 141.475 103.079 141.491 103.109C141.507 103.138 141.516 103.172 141.515 103.206C141.514 103.24 141.504 103.273 141.486 103.302L138.832 107.607C138.813 107.637 138.803 107.672 138.803 107.708C138.803 107.744 138.813 107.779 138.832 107.81L141.658 112.24C141.677 112.268 141.687 112.301 141.688 112.335C141.689 112.369 141.68 112.403 141.664 112.433C141.647 112.463 141.623 112.488 141.594 112.505C141.565 112.522 141.531 112.532 141.497 112.532L139.381 112.538C139.347 112.538 139.314 112.529 139.285 112.512C139.255 112.496 139.231 112.472 139.214 112.442L137.574 109.61C137.557 109.582 137.533 109.558 137.505 109.542C137.476 109.526 137.443 109.517 137.41 109.517C137.377 109.517 137.345 109.526 137.316 109.542C137.287 109.558 137.263 109.582 137.246 109.61Z" fill="#1E1E1E"/>
<path d="M154.955 105.305L154.967 106.504C154.967 106.53 154.972 106.555 154.982 106.579C154.992 106.603 155.006 106.625 155.025 106.643C155.043 106.661 155.064 106.676 155.088 106.686C155.112 106.696 155.138 106.701 155.164 106.701L158.95 106.707C158.976 106.707 159.002 106.712 159.026 106.722C159.051 106.732 159.073 106.747 159.091 106.766C159.109 106.785 159.124 106.808 159.133 106.832C159.143 106.857 159.147 106.883 159.146 106.909L159.117 108.638C159.115 108.689 159.094 108.738 159.057 108.774C159.02 108.809 158.971 108.829 158.92 108.829H155.158C155.132 108.829 155.106 108.834 155.082 108.844C155.059 108.854 155.037 108.868 155.019 108.887C155 108.905 154.986 108.927 154.976 108.951C154.966 108.974 154.961 109 154.961 109.026L154.949 110.236C154.949 110.288 154.97 110.338 155.007 110.375C155.044 110.412 155.094 110.433 155.146 110.433L159.51 110.409C159.537 110.408 159.563 110.413 159.587 110.422C159.612 110.432 159.634 110.446 159.653 110.465C159.672 110.483 159.687 110.505 159.697 110.529C159.708 110.553 159.713 110.58 159.713 110.606L159.743 112.335C159.743 112.361 159.739 112.388 159.729 112.412C159.72 112.437 159.706 112.459 159.687 112.478C159.669 112.497 159.647 112.512 159.623 112.522C159.598 112.532 159.572 112.538 159.546 112.538H152.892C152.84 112.538 152.79 112.517 152.753 112.48C152.716 112.443 152.695 112.393 152.695 112.341V103.195C152.695 103.169 152.7 103.143 152.71 103.12C152.72 103.096 152.735 103.074 152.753 103.056C152.771 103.037 152.793 103.023 152.817 103.013C152.841 103.003 152.866 102.998 152.892 102.998H159.421C159.447 102.998 159.473 103.003 159.497 103.014C159.522 103.024 159.544 103.039 159.562 103.058C159.58 103.077 159.595 103.099 159.604 103.124C159.614 103.148 159.618 103.174 159.617 103.201L159.588 104.936C159.588 104.962 159.582 104.988 159.572 105.012C159.562 105.037 159.547 105.059 159.528 105.077C159.509 105.095 159.487 105.11 159.462 105.119C159.438 105.129 159.411 105.133 159.385 105.133L155.152 105.109C155.1 105.109 155.049 105.129 155.013 105.166C154.976 105.203 154.955 105.253 154.955 105.305Z" fill="#1E1E1E"/>
<path d="M163.839 110.421L167.744 110.409C167.795 110.409 167.843 110.429 167.879 110.465C167.915 110.501 167.935 110.549 167.935 110.6L167.929 112.347C167.929 112.397 167.909 112.446 167.873 112.482C167.837 112.518 167.789 112.538 167.738 112.538H161.484C161.433 112.538 161.385 112.518 161.349 112.482C161.313 112.446 161.293 112.397 161.293 112.347L161.311 103.189C161.311 103.138 161.331 103.09 161.367 103.054C161.402 103.018 161.451 102.998 161.502 102.998H163.481C163.506 102.998 163.531 103.003 163.554 103.013C163.577 103.022 163.598 103.036 163.616 103.054C163.634 103.072 163.648 103.093 163.657 103.116C163.667 103.139 163.672 103.164 163.672 103.189L163.648 110.23C163.648 110.281 163.668 110.329 163.704 110.365C163.74 110.401 163.788 110.421 163.839 110.421Z" fill="#1E1E1E"/>
<path d="M171.596 110.415L175.489 110.403C175.54 110.403 175.588 110.423 175.624 110.459C175.66 110.495 175.68 110.543 175.68 110.594L175.686 112.347C175.686 112.397 175.666 112.446 175.63 112.482C175.594 112.518 175.546 112.538 175.495 112.538H169.247C169.196 112.538 169.147 112.518 169.112 112.482C169.076 112.446 169.056 112.397 169.056 112.347L169.05 103.189C169.05 103.138 169.07 103.09 169.106 103.054C169.141 103.018 169.19 102.998 169.241 102.998H171.226C171.277 102.998 171.325 103.018 171.361 103.054C171.397 103.09 171.417 103.138 171.417 103.189L171.405 110.224C171.405 110.275 171.425 110.323 171.461 110.359C171.497 110.395 171.545 110.415 171.596 110.415Z" fill="#1E1E1E"/>
<path d="M179.198 105.288L179.132 106.498C179.13 106.525 179.134 106.552 179.143 106.577C179.153 106.602 179.167 106.625 179.185 106.645C179.204 106.664 179.226 106.68 179.251 106.691C179.275 106.701 179.302 106.707 179.329 106.707L183.127 106.701C183.178 106.701 183.227 106.72 183.264 106.756C183.3 106.792 183.322 106.84 183.323 106.891L183.371 108.632C183.372 108.659 183.367 108.685 183.358 108.709C183.348 108.734 183.334 108.756 183.316 108.775C183.297 108.794 183.275 108.809 183.251 108.82C183.227 108.83 183.201 108.835 183.174 108.835L179.323 108.823C179.296 108.823 179.27 108.828 179.246 108.839C179.222 108.849 179.2 108.864 179.182 108.883C179.163 108.902 179.149 108.924 179.139 108.949C179.13 108.973 179.125 109 179.126 109.026L179.18 110.236C179.181 110.287 179.203 110.336 179.239 110.371C179.276 110.407 179.325 110.427 179.376 110.427L183.729 110.415C183.781 110.415 183.831 110.436 183.868 110.473C183.905 110.51 183.926 110.56 183.926 110.612L183.95 112.341C183.95 112.393 183.929 112.443 183.892 112.48C183.855 112.517 183.805 112.538 183.753 112.538H177.009C176.957 112.538 176.907 112.517 176.87 112.48C176.833 112.443 176.813 112.393 176.813 112.341L176.801 103.195C176.801 103.169 176.806 103.143 176.816 103.12C176.826 103.096 176.84 103.074 176.858 103.056C176.877 103.037 176.898 103.023 176.922 103.013C176.946 103.003 176.972 102.998 176.998 102.998H183.496C183.549 102.998 183.599 103.019 183.635 103.056C183.672 103.093 183.693 103.143 183.693 103.195L183.705 104.942C183.705 104.994 183.684 105.044 183.647 105.081C183.61 105.118 183.56 105.139 183.508 105.139L179.394 105.103C179.344 105.103 179.296 105.122 179.259 105.156C179.223 105.19 179.201 105.237 179.198 105.288Z" fill="#1E1E1E"/>
<path d="M191.235 107.899L191.211 103.344C191.207 103.109 191.32 102.994 191.551 102.998H193.185C193.447 103.002 193.578 103.133 193.578 103.392L193.572 112.18C193.572 112.415 193.453 112.532 193.214 112.532L191.897 112.538C191.638 112.542 191.436 112.436 191.289 112.222L188.123 107.649C188.098 107.613 188.063 107.586 188.022 107.572C187.982 107.558 187.938 107.557 187.896 107.57C187.855 107.583 187.819 107.608 187.793 107.642C187.767 107.677 187.753 107.719 187.753 107.762L187.747 112.079C187.747 112.381 187.594 112.534 187.288 112.538H185.863C185.613 112.538 185.487 112.415 185.487 112.168V103.296C185.487 103.098 185.587 102.998 185.785 102.998H187.24C187.334 102.998 187.427 103.021 187.51 103.064C187.593 103.108 187.664 103.171 187.717 103.249L190.955 107.989C191.142 108.259 191.235 108.229 191.235 107.899Z" fill="#1E1E1E"/>
<path d="M207.809 105.293L207.749 106.498C207.748 106.525 207.751 106.552 207.761 106.577C207.77 106.602 207.784 106.625 207.802 106.645C207.821 106.664 207.843 106.68 207.868 106.691C207.892 106.701 207.919 106.707 207.946 106.707H211.732C211.783 106.707 211.832 106.726 211.869 106.762C211.906 106.798 211.927 106.846 211.929 106.897L211.988 108.632C211.989 108.659 211.985 108.685 211.975 108.709C211.966 108.734 211.951 108.756 211.933 108.775C211.914 108.794 211.893 108.809 211.868 108.82C211.844 108.83 211.818 108.835 211.792 108.835L207.952 108.823C207.926 108.823 207.899 108.828 207.875 108.839C207.851 108.849 207.829 108.864 207.811 108.883C207.792 108.902 207.778 108.924 207.768 108.949C207.759 108.973 207.754 109 207.755 109.026L207.779 110.236C207.781 110.287 207.802 110.336 207.839 110.371C207.875 110.407 207.925 110.427 207.976 110.427L212.334 110.415C212.385 110.415 212.434 110.435 212.471 110.471C212.508 110.506 212.529 110.555 212.531 110.606L212.579 112.335C212.579 112.361 212.575 112.388 212.565 112.412C212.556 112.437 212.541 112.459 212.523 112.478C212.505 112.497 212.483 112.512 212.459 112.522C212.434 112.532 212.408 112.538 212.382 112.538H205.627C205.574 112.538 205.524 112.517 205.487 112.48C205.451 112.443 205.43 112.393 205.43 112.341L205.418 103.195C205.418 103.169 205.423 103.143 205.433 103.12C205.443 103.096 205.457 103.074 205.476 103.056C205.494 103.037 205.515 103.023 205.539 103.013C205.563 103.003 205.589 102.998 205.615 102.998H212.12C212.145 102.998 212.171 103.003 212.195 103.013C212.219 103.023 212.24 103.037 212.259 103.056C212.277 103.074 212.291 103.096 212.301 103.12C212.311 103.143 212.316 103.169 212.316 103.195V104.93C212.316 104.982 212.296 105.032 212.259 105.069C212.222 105.106 212.172 105.127 212.12 105.127L208.006 105.109C207.955 105.109 207.907 105.128 207.87 105.162C207.834 105.196 207.812 105.243 207.809 105.293Z" fill="#1E1E1E"/>
<path d="M32.729 110.31C37.6479 112.17 39.3352 118.293 38.9595 123.039C38.9436 123.286 38.8244 123.355 38.6018 123.248C33.8201 120.976 30.7257 115.813 32.4011 110.465C32.4117 110.433 32.4288 110.403 32.4513 110.377C32.4738 110.352 32.5011 110.331 32.5318 110.317C32.5625 110.302 32.5958 110.294 32.6297 110.293C32.6636 110.292 32.6974 110.298 32.729 110.31Z" fill="#1E1E1E"/>
<path d="M245.646 110.32C245.694 110.297 245.747 110.284 245.8 110.283C245.853 110.282 245.906 110.292 245.956 110.313C246.005 110.334 246.05 110.365 246.087 110.404C246.124 110.443 246.153 110.489 246.171 110.54C248.025 115.721 244.531 121.022 239.982 123.228C239.752 123.339 239.627 123.27 239.607 123.019C239.171 118.19 240.906 112.526 245.646 110.32Z" fill="#1E1E1E"/>
<path d="M13.4517 112.705C19.086 111.637 25.1914 113.766 29.4305 117.534C29.48 117.578 29.5174 117.634 29.5393 117.696C29.5611 117.759 29.5666 117.826 29.5552 117.891C29.5439 117.956 29.5161 118.017 29.4744 118.068C29.4328 118.12 29.3786 118.159 29.3172 118.184C22.4447 120.966 17.0827 119.307 13.2311 113.206C13.2032 113.16 13.1868 113.108 13.1833 113.054C13.1798 113 13.1893 112.947 13.2109 112.898C13.2326 112.849 13.2658 112.805 13.3077 112.772C13.3496 112.738 13.399 112.715 13.4517 112.705Z" fill="#1E1E1E"/>
<path d="M249.48 117.265C253.456 113.527 259.788 111.816 265.071 112.668C265.128 112.678 265.181 112.701 265.227 112.736C265.273 112.771 265.31 112.816 265.334 112.868C265.358 112.92 265.369 112.977 265.366 113.033C265.363 113.09 265.345 113.145 265.315 113.193C261.651 119.119 256.449 120.858 249.712 118.41C249.017 118.156 248.939 117.774 249.48 117.265Z" fill="#1E1E1E"/>
<path d="M49.5535 128.183C44.432 126.657 40.2286 122.769 40.6877 117.129C40.6911 117.087 40.7032 117.047 40.7233 117.01C40.7433 116.974 40.7708 116.942 40.804 116.917C40.8371 116.891 40.8752 116.873 40.9158 116.864C40.9563 116.854 40.9985 116.853 41.0394 116.861C46.3041 117.785 49.4761 122.859 49.8755 127.921C49.8914 128.167 49.7841 128.254 49.5535 128.183Z" fill="#1E1E1E"/>
<path d="M228.63 127.891C229.22 122.578 232.106 118.154 237.454 116.825C237.689 116.769 237.818 116.859 237.842 117.093C238.492 122.65 233.93 126.907 228.892 128.123C228.694 128.167 228.606 128.09 228.63 127.891Z" fill="#1E1E1E"/>
<path d="M62.9626 131.14C57.6502 130.734 52.2484 128.314 51.7357 122.292C51.7158 122.045 51.827 121.948 52.0695 122C56.8751 123.049 61.782 125.595 63.2786 130.752C63.2922 130.8 63.2942 130.849 63.2844 130.898C63.2746 130.946 63.2532 130.991 63.2221 131.029C63.191 131.067 63.1512 131.097 63.106 131.116C63.0608 131.136 63.0116 131.144 62.9626 131.14Z" fill="#1E1E1E"/>
<path d="M215.327 130.819C216.013 125.894 222.106 123.015 226.417 122.019C226.624 121.967 226.727 122.049 226.727 122.263C226.816 128.065 220.544 130.879 215.583 131.099C215.389 131.107 215.303 131.014 215.327 130.819Z" fill="#1E1E1E"/>
<path d="M40.3428 124.575C40.3963 124.597 40.4428 124.633 40.4775 124.679C40.5121 124.725 40.5337 124.78 40.5398 124.838C40.5459 124.896 40.5363 124.954 40.5121 125.008C40.488 125.061 40.4501 125.108 40.4024 125.142C35.2033 128.808 27.9413 127.652 23.4219 123.544C23.2629 123.397 23.2788 123.274 23.4696 123.174C28.0486 120.753 35.4955 122.554 40.3428 124.575Z" fill="#1E1E1E"/>
<path d="M240.31 126.297C239.432 125.99 238.707 125.579 238.134 125.062C237.94 124.887 237.961 124.744 238.2 124.633C242.999 122.457 250.011 120.919 255.097 123.125C255.327 123.224 255.349 123.357 255.162 123.524C250.885 127.336 245.935 128.26 240.31 126.297Z" fill="#1E1E1E"/>
<path d="M33.0258 130.098C38.7853 127.504 45.5167 127.742 51.5147 129.299C51.5523 129.308 51.5866 129.327 51.6138 129.355C51.641 129.382 51.6601 129.417 51.6687 129.455C51.6774 129.492 51.6754 129.532 51.6629 129.569C51.6504 129.605 51.628 129.638 51.5981 129.662C45.8108 134.436 39.6041 134.985 32.978 131.308C32.187 130.871 32.203 130.467 33.0258 130.098Z" fill="#1E1E1E"/>
<path d="M246.009 130.937C240.351 134.783 232.206 134.723 227.073 129.673C226.894 129.498 226.924 129.379 227.162 129.315C232.385 127.92 241.681 127.145 246.021 130.555C246.188 130.686 246.184 130.814 246.009 130.937Z" fill="#1E1E1E"/>
<path d="M47.3358 134.554C47.2804 134.534 47.2316 134.498 47.1946 134.452C47.1577 134.406 47.134 134.35 47.126 134.291C47.1181 134.233 47.1262 134.173 47.1494 134.118C47.1727 134.064 47.2104 134.017 47.2583 133.982C51.0861 131.12 58.1394 131.4 62.9152 131.931C63.1259 131.955 63.2312 132.072 63.2312 132.283C63.2192 133.173 62.8914 133.867 62.2474 134.364C57.9487 137.685 52.046 136.379 47.3358 134.554Z" fill="#1E1E1E"/>
<path d="M215.574 132.021C219.085 131.454 228.858 131.043 231.32 134.131C231.483 134.338 231.441 134.491 231.195 134.59C226.902 136.266 220.355 137.75 216.301 134.364C215.737 133.895 215.407 133.227 215.311 132.361C215.291 132.166 215.379 132.052 215.574 132.021Z" fill="#1E1E1E"/>
</svg>
