<svg width="91" height="34" viewBox="0 0 91 34" fill="none" xmlns="http://www.w3.org/2000/svg">
<path d="M4.33122 0.666216C4.29633 2.66489 3.7477 6.09037 2.31703 7.61216C2.26404 7.66902 2.22527 7.65998 2.20072 7.58502C1.32836 4.86519 2.33253 2.58929 4.22265 0.621626C4.23159 0.612934 4.24287 0.607042 4.25512 0.604677C4.26736 0.602311 4.28003 0.603578 4.29156 0.608315C4.30309 0.613052 4.31298 0.621054 4.32003 0.63134C4.32707 0.641627 4.33097 0.65375 4.33122 0.666216Z" fill="white"/>
<path d="M86.2805 0.621617C88.1609 2.51949 89.1806 4.89619 88.3082 7.57725C88.2836 7.6548 88.2442 7.6632 88.1899 7.60246C86.7438 5.99343 86.2262 2.74436 86.1719 0.668142C86.1717 0.655511 86.1754 0.643125 86.1823 0.632545C86.1892 0.621964 86.1991 0.613667 86.2107 0.608691C86.2223 0.603715 86.2351 0.602284 86.2475 0.604585C86.2599 0.606886 86.2714 0.612813 86.2805 0.621617Z" fill="white"/>
<path d="M89.6657 5.88445C90.2434 7.47409 90.1193 9.81202 88.5181 10.8162C88.4521 10.8576 88.4153 10.8395 88.4075 10.7619C88.2331 9.12576 88.4269 7.14647 89.5552 5.86313C89.603 5.80755 89.6398 5.81466 89.6657 5.88445Z" fill="white"/>
<path d="M0.938783 5.8561C2.07479 7.05803 2.29384 9.21955 2.08447 10.782C2.07413 10.8596 2.03731 10.8751 1.97398 10.8286C0.399851 9.67899 0.260278 7.60277 0.816652 5.88325C0.842499 5.807 0.883211 5.79795 0.938783 5.8561Z" fill="white"/>
<path d="M2.28131 9.90254C2.27355 8.35749 3.07807 6.93651 4.29938 5.93039C4.4997 5.76367 4.62248 5.8089 4.66771 6.06608C4.92167 7.48513 3.52976 9.25699 2.40926 9.97039C2.39684 9.97827 2.38257 9.98271 2.36787 9.98328C2.35317 9.98385 2.33858 9.98052 2.32558 9.97363C2.31259 9.96674 2.30165 9.95653 2.29387 9.94405C2.2861 9.93156 2.28176 9.91724 2.28131 9.90254Z" fill="white"/>
<path d="M88.2324 9.8041C88.2362 9.8545 88.2272 9.90297 88.2052 9.94949C88.2006 9.95938 88.1939 9.96816 88.1856 9.97522C88.1773 9.98228 88.1676 9.98746 88.1571 9.9904C88.1466 9.99335 88.1356 9.99399 88.1248 9.99229C88.1141 9.99058 88.1038 9.98656 88.0947 9.98051C86.7765 9.1159 85.7122 7.5127 85.8111 5.91724C85.8162 5.82678 85.8602 5.79963 85.9429 5.83582C87.3367 6.44454 88.1548 8.39281 88.2324 9.8041Z" fill="white"/>
<path d="M19.758 10.2567C18.5871 9.75268 17.3929 9.73523 16.4837 10.5184C15.4252 11.4315 15.2604 13.089 15.8052 14.3413C16.4701 15.8689 18.4068 16.0279 19.7308 15.3203C19.8303 15.2673 19.882 15.297 19.8859 15.4095L19.9014 15.9038C19.9019 15.9307 19.8946 15.957 19.8805 15.9794C19.8663 16.0019 19.846 16.0194 19.822 16.0298C17.8194 16.8847 15.5299 16.3439 14.9057 14.0583C14.0469 10.9042 16.6155 8.29486 19.7948 9.44444C19.8698 9.47158 19.9059 9.52521 19.9034 9.60534L19.8801 10.1792C19.8775 10.2645 19.8368 10.2903 19.758 10.2567Z" fill="white"/>
<path d="M23.3098 12.4561C24.2383 12.8904 25.1107 13.4584 25.1243 14.5731C25.1495 16.5853 22.639 16.6299 21.2374 16.0755C21.1599 16.0445 21.1211 15.9876 21.1211 15.9049L21.125 15.3C21.1248 15.2825 21.1293 15.2654 21.138 15.2502C21.1468 15.2351 21.1595 15.2225 21.1749 15.2139C21.1902 15.2052 21.2077 15.2007 21.2255 15.2009C21.2433 15.201 21.2608 15.2058 21.2762 15.2147C22.0342 15.6664 23.0112 15.9844 23.7983 15.5307C24.6881 15.0151 24.4729 13.974 23.6626 13.5107C22.9356 13.0939 21.9605 12.6655 21.5049 12.0219C21.0681 11.4054 21.0416 10.7999 21.4254 10.2054C22.135 9.10821 23.5618 8.93567 24.7269 9.38542C24.8005 9.41385 24.8393 9.46684 24.8432 9.54439L24.8781 10.1531C24.8791 10.1679 24.8762 10.1828 24.8695 10.1961C24.8629 10.2094 24.8528 10.2207 24.8404 10.2288C24.8279 10.2369 24.8135 10.2415 24.7987 10.2422C24.7838 10.2428 24.7691 10.2395 24.7559 10.2326C24.0193 9.84293 22.5401 9.61805 22.0652 10.5214C21.6057 11.3996 22.4665 12.0607 23.3098 12.4561Z" fill="white"/>
<path d="M30.0015 10.2438C29.1621 9.77462 27.0588 9.55751 27.208 11.1491C27.3399 12.5526 30.2089 12.5332 30.3485 14.3148C30.4287 15.3461 29.9951 16.0014 29.0477 16.2805C28.441 16.4608 27.3108 16.4375 26.7001 16.1875C26.3731 16.0543 26.2762 15.7493 26.4093 15.2724C26.413 15.2576 26.4203 15.244 26.4306 15.2327C26.4408 15.2213 26.4537 15.2126 26.4681 15.2073C26.4826 15.202 26.4982 15.2002 26.5136 15.2021C26.529 15.204 26.5438 15.2095 26.5567 15.2182C27.4161 15.8191 28.3201 15.8947 29.2687 15.445C29.3308 15.4153 29.3779 15.37 29.4103 15.3093C30.5056 13.2524 26.7486 13.204 26.4326 11.3197C26.3305 10.7071 26.5004 10.2063 26.9424 9.81727C27.8058 9.05605 28.8313 8.92617 30.019 9.42762C30.0849 9.45605 30.1172 9.50646 30.1159 9.57883L30.1062 10.1837C30.1049 10.2625 30.07 10.2825 30.0015 10.2438Z" fill="white"/>
<path d="M4.35876 9.32736C4.79107 10.9945 3.88379 12.5629 2.42598 13.3422C2.36653 13.3745 2.33357 13.3564 2.32711 13.2879C2.1746 11.5587 2.80013 10.2185 4.20367 9.26727C4.217 9.25815 4.23234 9.25245 4.24841 9.25063C4.26449 9.24881 4.28083 9.25094 4.29603 9.25683C4.31123 9.26272 4.32484 9.2722 4.33576 9.28448C4.34668 9.29675 4.35457 9.31146 4.35876 9.32736Z" fill="white"/>
<path d="M32.3104 9.32791L36.5714 15.6729C36.5789 15.6842 36.5827 15.6975 36.5823 15.711C36.582 15.7245 36.5775 15.7376 36.5694 15.7485L36.236 16.2099C36.23 16.2187 36.2219 16.2259 36.2124 16.2308C36.2029 16.2358 36.1924 16.2384 36.1817 16.2384C36.1711 16.2384 36.1605 16.2358 36.1511 16.2308C36.1416 16.2259 36.1335 16.2187 36.1274 16.2099L31.566 9.4132C31.5594 9.40345 31.5555 9.39211 31.5548 9.38036C31.5541 9.36862 31.5565 9.3569 31.5619 9.34641C31.5672 9.33593 31.5753 9.32706 31.5852 9.32074C31.5951 9.31442 31.6066 9.31087 31.6183 9.31046L32.2561 9.29883C32.2668 9.29889 32.2774 9.30157 32.2868 9.30664C32.2963 9.3117 32.3044 9.31901 32.3104 9.32791Z" fill="white"/>
<path d="M40.801 9.40163L38.0501 13.5017C38.0445 13.5098 38.0371 13.5165 38.0284 13.5212C38.0197 13.5259 38.0101 13.5284 38.0002 13.5286C37.9904 13.5288 37.9806 13.5266 37.9718 13.5223C37.9629 13.5179 37.9552 13.5116 37.9493 13.5037L37.6101 13.0442C37.6023 13.0339 37.598 13.0215 37.5977 13.0087C37.5973 12.9958 37.601 12.9832 37.6081 12.9725L40.0372 9.33183C40.0428 9.32359 40.0503 9.31683 40.0591 9.3121C40.0678 9.30738 40.0776 9.30484 40.0876 9.3047H40.7486C40.76 9.3045 40.7712 9.30743 40.781 9.31317C40.7908 9.31891 40.7989 9.32724 40.8043 9.33725C40.8097 9.34725 40.8122 9.35854 40.8117 9.3699C40.8111 9.38125 40.8074 9.39223 40.801 9.40163Z" fill="white"/>
<path d="M38.0557 15.0351L41.8612 9.3395C41.8668 9.33126 41.8743 9.3245 41.8831 9.31977C41.8918 9.31505 41.9016 9.31251 41.9116 9.31236L42.5843 9.29298C42.5956 9.29278 42.6068 9.29572 42.6167 9.30146C42.6265 9.3072 42.6345 9.31552 42.6399 9.32553C42.6453 9.33553 42.6479 9.34683 42.6473 9.35818C42.6467 9.36953 42.643 9.38051 42.6366 9.38991L38.0596 16.2195C38.054 16.2283 38.0463 16.2356 38.0371 16.2406C38.028 16.2456 38.0177 16.2483 38.0073 16.2483C37.9968 16.2483 37.9865 16.2456 37.9774 16.2406C37.9682 16.2356 37.9605 16.2283 37.9549 16.2195L34.417 10.9446C34.4106 10.9352 34.4069 10.9243 34.4063 10.9129C34.4057 10.9016 34.4083 10.8903 34.4137 10.8803C34.4191 10.8703 34.4272 10.8619 34.437 10.8562C34.4468 10.8505 34.458 10.8475 34.4693 10.8477L35.1459 10.8671C35.1559 10.8672 35.1657 10.8698 35.1744 10.8745C35.1832 10.8792 35.1907 10.886 35.1963 10.8942L37.951 15.0351C37.9566 15.0439 37.9644 15.0511 37.9735 15.0561C37.9827 15.0612 37.9929 15.0638 38.0034 15.0638C38.0138 15.0638 38.0241 15.0612 38.0332 15.0561C38.0424 15.0511 38.0501 15.0439 38.0557 15.0351Z" fill="white"/>
<path d="M51.7889 14.8965L51.7831 9.41415C51.7831 9.3379 51.8213 9.30041 51.8975 9.30171L52.4054 9.31334C52.492 9.31463 52.5347 9.35858 52.5334 9.44517L52.5314 15.9724C52.5315 16.0645 52.5027 16.1543 52.4491 16.2293C52.3956 16.3043 52.32 16.3607 52.2329 16.3906C52.1457 16.4204 52.0514 16.4224 51.9632 16.3961C51.8749 16.3697 51.797 16.3165 51.7405 16.2438L47.4271 10.6839C47.4175 10.6713 47.4041 10.662 47.389 10.6574C47.3738 10.6528 47.3575 10.6531 47.3425 10.6583C47.3275 10.6634 47.3145 10.6732 47.3053 10.6861C47.2962 10.6991 47.2913 10.7146 47.2914 10.7304L47.3244 16.1934C47.3257 16.2735 47.2856 16.3161 47.2042 16.3213L46.6885 16.3465C46.6071 16.3517 46.5664 16.3136 46.5664 16.2321L46.5683 9.46649C46.5683 9.3967 46.602 9.35146 46.6692 9.33078C47.0388 9.21576 47.3341 9.30106 47.5551 9.58668C48.9366 11.3676 50.3143 13.1491 51.6881 14.9314C51.6953 14.9407 51.7053 14.9476 51.7166 14.951C51.7279 14.9544 51.74 14.9541 51.7511 14.9502C51.7623 14.9464 51.7719 14.9391 51.7787 14.9295C51.7855 14.9198 51.7891 14.9083 51.7889 14.8965Z" fill="white"/>
<path d="M59.6112 14.8529L59.5976 9.4113C59.5976 9.38302 59.6086 9.3559 59.6283 9.33591C59.6479 9.31591 59.6745 9.30468 59.7023 9.30468L60.28 9.30662C60.3265 9.30662 60.3498 9.32988 60.3498 9.3764V16.2099C60.3498 16.2745 60.3188 16.3146 60.2567 16.3301C59.8942 16.4212 59.6519 16.3669 59.4173 16.0529C58.0551 14.2435 56.6652 12.4562 55.2474 10.6908C55.2389 10.6809 55.2277 10.6739 55.2152 10.6706C55.2026 10.6673 55.1894 10.6679 55.1772 10.6724C55.165 10.6768 55.1544 10.6848 55.1469 10.6953C55.1394 10.7059 55.1352 10.7185 55.135 10.7315L55.1389 16.2002C55.1389 16.2959 55.091 16.343 54.9954 16.3417L54.5127 16.3398C54.4261 16.3398 54.3828 16.2965 54.3828 16.2099V9.41324C54.3841 9.33569 54.4235 9.29757 54.5011 9.29886L55.0497 9.31049C55.1337 9.31178 55.2015 9.34603 55.2532 9.41324L59.4949 14.8917C59.5034 14.9022 59.5151 14.91 59.5282 14.9138C59.5413 14.9177 59.5552 14.9175 59.568 14.9132C59.5808 14.9089 59.5918 14.9008 59.5995 14.89C59.6073 14.8792 59.6113 14.8663 59.6112 14.8529Z" fill="white"/>
<path d="M86.2816 9.28482C87.6735 10.0603 88.3656 11.7236 88.1698 13.2744C88.1607 13.3416 88.1265 13.3591 88.067 13.3268C86.5213 12.479 85.8661 11.162 86.1013 9.37594C86.1039 9.35618 86.1112 9.33736 86.1227 9.3211C86.1342 9.30484 86.1495 9.29164 86.1673 9.28266C86.1851 9.27367 86.2048 9.26918 86.2247 9.26955C86.2446 9.26993 86.2642 9.27517 86.2816 9.28482Z" fill="white"/>
<path d="M44.5811 9.30859H44.0306C43.9813 9.30859 43.9414 9.34852 43.9414 9.39777V16.2448C43.9414 16.2941 43.9813 16.334 44.0306 16.334H44.5811C44.6304 16.334 44.6703 16.2941 44.6703 16.2448V9.39777C44.6703 9.34852 44.6304 9.30859 44.5811 9.30859Z" fill="white"/>
<path d="M63.0662 15.5799L66.515 15.576C66.5463 15.576 66.5764 15.5885 66.5986 15.6106C66.6208 15.6328 66.6332 15.6629 66.6332 15.6943L66.639 16.2177C66.639 16.249 66.6266 16.2791 66.6044 16.3013C66.5822 16.3235 66.5521 16.3359 66.5208 16.3359L62.3839 16.3398C62.3525 16.3398 62.3224 16.3273 62.3002 16.3052C62.2781 16.283 62.2656 16.2529 62.2656 16.2216L62.2617 9.42681C62.2617 9.39545 62.2742 9.36537 62.2964 9.3432C62.3185 9.32102 62.3486 9.30856 62.38 9.30856L66.4103 9.30469C66.426 9.30469 66.4415 9.30781 66.456 9.31387C66.4705 9.31993 66.4836 9.32881 66.4946 9.34C66.5056 9.35119 66.5143 9.36446 66.5201 9.37903C66.5259 9.3936 66.5288 9.40919 66.5285 9.42488L66.5247 9.87075C66.5242 9.90178 66.5115 9.93136 66.4894 9.95312C66.4672 9.97488 66.4374 9.98707 66.4064 9.98707L63.0682 10.0026C63.0372 10.0031 63.0076 10.0158 62.9858 10.0379C62.964 10.06 62.9519 10.0898 62.9519 10.1208L62.9751 12.3076C62.9756 12.3386 62.9883 12.3682 63.0104 12.3899C63.0326 12.4117 63.0623 12.4239 63.0934 12.4239L65.7803 12.42C65.7961 12.42 65.8118 12.4232 65.8264 12.4293C65.841 12.4355 65.8542 12.4446 65.8653 12.456C65.8763 12.4674 65.8849 12.4809 65.8906 12.4957C65.8964 12.5105 65.899 12.5263 65.8985 12.5421L65.8869 12.9802C65.8864 13.0113 65.8737 13.0408 65.8516 13.0626C65.8294 13.0844 65.7996 13.0966 65.7686 13.0966L63.0817 13.1237C63.0507 13.1242 63.0211 13.1369 62.9994 13.159C62.9776 13.1811 62.9654 13.2109 62.9654 13.2419L62.946 15.4597C62.9458 15.4755 62.9487 15.4913 62.9547 15.506C62.9606 15.5207 62.9695 15.534 62.9807 15.5453C62.9919 15.5565 63.0052 15.5653 63.0199 15.5713C63.0346 15.5772 63.0504 15.5801 63.0662 15.5799Z" fill="white"/>
<path d="M71.3454 13.117C72.0407 14.098 72.6358 15.1377 73.1308 16.2362C73.1631 16.3073 73.1405 16.3428 73.0629 16.3428H72.4523C72.422 16.3428 72.3922 16.3345 72.3662 16.3188C72.3403 16.303 72.3191 16.2805 72.305 16.2537C71.9263 15.5441 71.5541 14.8333 71.1883 14.1212C70.7076 13.1849 69.9399 13.2334 69.0268 13.3109C68.948 13.3174 68.9086 13.36 68.9086 13.4388L68.9047 16.2246C68.9047 16.3034 68.8659 16.3422 68.7884 16.3409H68.294C68.2627 16.3409 68.2326 16.3284 68.2104 16.3063C68.1882 16.2841 68.1758 16.254 68.1758 16.2227V9.42404C68.1758 9.36847 68.2042 9.33939 68.2611 9.33681C69.7325 9.27477 71.7098 9.02857 72.4038 10.2208C73.0339 11.3025 72.5628 12.5568 71.3783 13.0046C71.3189 13.0279 71.3079 13.0653 71.3454 13.117ZM68.9047 10.1452L68.893 12.4521C68.893 12.4914 68.9085 12.529 68.9361 12.557C68.9637 12.5849 69.0011 12.6009 69.0404 12.6014L70.5447 12.6091C70.7227 12.6102 70.8991 12.5783 71.064 12.5151C71.2288 12.452 71.3788 12.3589 71.5053 12.2411C71.6319 12.1234 71.7325 11.9833 71.8016 11.8289C71.8706 11.6745 71.9066 11.5088 71.9076 11.3413V11.287C71.9095 10.9488 71.7687 10.6236 71.516 10.3829C71.2634 10.1422 70.9196 10.0058 70.5602 10.0037L69.0559 9.99592C69.0361 9.99567 69.0165 9.99934 68.9982 10.0067C68.9799 10.0141 68.9632 10.0251 68.9491 10.039C68.935 10.0528 68.9239 10.0694 68.9162 10.0876C68.9086 10.1059 68.9047 10.1254 68.9047 10.1452Z" fill="white"/>
<path d="M1.98813 13.8629C0.266672 13.1948 -0.336867 11.9405 0.177503 10.1001C0.198182 10.0252 0.244702 10.0013 0.317076 10.0284C1.43176 10.4452 2.08894 12.754 2.16261 13.735C2.17166 13.8694 2.11349 13.912 1.98813 13.8629Z" fill="white"/>
<path d="M88.5979 13.8381C88.4157 13.9143 88.333 13.8536 88.3498 13.6558C88.439 12.6206 89.0709 10.5367 90.1798 10.0307C90.2548 9.99709 90.3032 10.0197 90.3252 10.0985C90.8434 11.8924 90.2677 13.1389 88.5979 13.8381Z" fill="white"/>
<path d="M4.44845 12.8492C4.98544 14.3128 3.94831 15.9412 2.85494 16.8775C2.84492 16.8865 2.83272 16.8926 2.81954 16.8953C2.80636 16.898 2.79264 16.8972 2.77974 16.8929C2.76684 16.8886 2.75519 16.881 2.74595 16.8708C2.7367 16.8606 2.73017 16.8483 2.72699 16.8349C2.33927 15.1173 2.85042 13.7687 4.26042 12.7891C4.3483 12.727 4.41097 12.7471 4.44845 12.8492Z" fill="white"/>
<path d="M87.6449 16.8669C86.5283 15.9209 85.5377 14.3235 86.0553 12.8328C86.0608 12.8167 86.07 12.8021 86.082 12.7901C86.094 12.7782 86.1085 12.7691 86.1245 12.7636C86.1404 12.7582 86.1573 12.7565 86.1739 12.7588C86.1905 12.761 86.2063 12.7671 86.22 12.7765C87.6507 13.7432 88.167 15.0931 87.769 16.8262C87.7662 16.8392 87.7601 16.8511 87.7513 16.8609C87.7424 16.8708 87.7312 16.8781 87.7186 16.8822C87.7061 16.8863 87.6927 16.8871 87.6797 16.8844C87.6668 16.8817 87.6548 16.8757 87.6449 16.8669Z" fill="white"/>
<path d="M0.406213 13.6008C1.81362 14.4382 2.4107 15.9309 2.72669 17.4411C2.74349 17.5186 2.71313 17.5477 2.63558 17.5283C0.910245 17.0863 -0.167629 15.4095 0.262736 13.6609C0.283414 13.5769 0.331255 13.5568 0.406213 13.6008Z" fill="white"/>
<path d="M87.7779 17.4372C88.1249 15.865 88.6813 14.479 90.0868 13.595C90.1553 13.5523 90.2018 13.5698 90.2264 13.6473C90.7478 15.3959 89.5382 17.0786 87.869 17.5225C87.7915 17.5432 87.7611 17.5148 87.7779 17.4372Z" fill="white"/>
<path d="M4.72283 15.9915C5.64172 17.523 5.36644 19.1029 4.35256 20.5103C4.34178 20.5248 4.32744 20.5362 4.31096 20.5435C4.29447 20.5508 4.27641 20.5537 4.25847 20.5519C4.24053 20.5501 4.22334 20.5438 4.20858 20.5334C4.19382 20.5231 4.18197 20.5091 4.1742 20.4929C3.58875 19.2502 3.23205 16.8619 4.58324 15.9605C4.6401 15.9217 4.68665 15.932 4.72283 15.9915Z" fill="white"/>
<path d="M85.6831 16.1155C85.758 15.9578 85.8659 15.9307 86.0068 16.0341C87.2494 16.9433 86.9276 19.3064 86.3092 20.4967C86.2705 20.5704 86.2259 20.5749 86.1755 20.5103C85.1041 19.1571 84.94 17.6922 85.6831 16.1155Z" fill="white"/>
<path d="M0.489721 17.6299C2.10068 17.8296 3.78338 20.0183 4.39791 21.3869C4.40437 21.3998 4.40051 21.4063 4.38629 21.4063C2.25191 21.4257 0.301691 20.0473 0.406375 17.7017C0.40896 17.6474 0.436733 17.6235 0.489721 17.6299Z" fill="white"/>
<path d="M86.1477 21.3135C86.7854 19.9196 88.4178 17.8531 90.021 17.6244C90.0804 17.6166 90.1114 17.6431 90.114 17.7038C90.1877 19.972 88.3441 21.4104 86.1981 21.393C86.1399 21.3917 86.1231 21.3652 86.1477 21.3135Z" fill="white"/>
<path d="M5.86334 19.2953C5.96544 19.0794 6.09406 19.062 6.24914 19.2429C7.32506 20.4972 7.20872 22.7983 6.64072 24.2541C6.6097 24.3356 6.56577 24.3433 6.50891 24.2774C5.22427 22.7756 5.00908 21.1149 5.86334 19.2953Z" fill="white"/>
<path d="M83.8642 24.2509C83.2885 22.7989 83.1683 20.3659 84.3566 19.102C84.3696 19.0882 84.3857 19.0777 84.4035 19.0714C84.4213 19.065 84.4404 19.063 84.459 19.0655C84.4776 19.0679 84.4953 19.0748 84.5105 19.0856C84.5258 19.0963 84.5381 19.1106 84.5466 19.1272C85.512 20.9831 85.3305 22.6987 84.0019 24.2741C83.9437 24.3426 83.8978 24.3349 83.8642 24.2509Z" fill="white"/>
<path d="M2.1808 21.9439C3.72585 22.0524 5.65475 23.7138 6.65119 24.8265C6.70288 24.8834 6.68994 24.9138 6.6124 24.9177C4.56526 25.0165 2.07613 24.7219 2.07031 22.0485C2.07031 21.9736 2.10714 21.9387 2.1808 21.9439Z" fill="white"/>
<path d="M83.8677 24.7887C84.9126 23.6701 86.7329 22.1038 88.3031 21.9429C88.4014 21.9325 88.4485 21.9771 88.4447 22.0766C88.3419 24.7189 85.9962 25.0272 83.9161 24.9108C83.8127 24.9044 83.7966 24.8637 83.8677 24.7887Z" fill="white"/>
<path d="M8.12754 22.1075C9.44966 23.3792 9.89554 25.4632 9.41865 27.1963C9.41519 27.2092 9.40847 27.2209 9.39912 27.2305C9.38978 27.24 9.3781 27.2471 9.36516 27.2509C9.35223 27.2548 9.33845 27.2554 9.3251 27.2526C9.31175 27.2498 9.29924 27.2438 9.28875 27.235C7.81155 25.9924 7.07683 23.9394 7.98215 22.1327C8.01963 22.059 8.06809 22.0506 8.12754 22.1075Z" fill="white"/>
<path d="M81.0697 27.1139C80.6005 25.4371 81.0871 23.3531 82.3705 22.1085C82.3806 22.0984 82.3931 22.0908 82.4067 22.0864C82.4204 22.082 82.4349 22.0809 82.4491 22.0832C82.4632 22.0854 82.4767 22.091 82.4883 22.0995C82.4999 22.1079 82.5093 22.119 82.5158 22.1318C83.4483 23.9095 82.6826 25.8558 81.3139 27.1818C81.195 27.2955 81.1136 27.2729 81.0697 27.1139Z" fill="white"/>
<path d="M27.0219 24.8434C27.0535 24.8021 27.0732 24.7528 27.0787 24.7011C27.0842 24.6493 27.0753 24.5971 27.053 24.5503C27.0306 24.5035 26.9958 24.4638 26.9523 24.4358C26.9089 24.4078 26.8584 24.3925 26.8067 24.3917C26.2471 24.3788 25.8516 24.1552 25.6203 23.7209C24.9903 22.5442 27.272 21.7319 27.7644 23.2906C27.7825 23.3474 27.765 23.3881 27.712 23.4127C27.3502 23.5807 27.0813 23.5109 26.9056 23.2033C26.8668 23.1348 26.808 23.0961 26.7292 23.087C26.5999 23.0728 26.4843 23.1148 26.3822 23.213C26.3478 23.2465 26.3236 23.289 26.3123 23.3357C26.3011 23.3823 26.3033 23.4312 26.3187 23.4766C26.3342 23.5221 26.3621 23.5622 26.3994 23.5924C26.4367 23.6226 26.4818 23.6416 26.5295 23.6473C26.8371 23.6822 27.1175 23.7791 27.3708 23.938C27.8245 24.223 28.0009 24.8085 27.6694 25.2369C27.115 25.9522 25.5563 25.8282 25.5079 24.7329C25.5066 24.6876 25.5285 24.6618 25.5738 24.6553L26.1108 24.5875C26.1806 24.5784 26.2232 24.6088 26.2387 24.6786L26.2659 24.8104C26.2775 24.8621 26.3059 24.9015 26.3511 24.9287C26.6238 25.0993 26.8474 25.0708 27.0219 24.8434Z" fill="white"/>
<path d="M35.8857 24.9541C36.0887 25.0678 36.2806 25.0588 36.4615 24.927C36.5011 24.8983 36.5316 24.8589 36.5496 24.8134C36.5675 24.7679 36.572 24.7182 36.5627 24.6701C36.5533 24.6219 36.5305 24.5773 36.4968 24.5415C36.4631 24.5056 36.4199 24.48 36.3723 24.4675C35.5872 24.2678 34.5888 23.8569 35.1937 22.81C35.288 22.6446 35.5491 22.5347 35.9769 22.4805C36.6709 22.3939 37.0986 22.6672 37.2602 23.3005C37.2731 23.3509 37.2563 23.3871 37.2098 23.4091C36.8466 23.5848 36.583 23.515 36.4189 23.1997C36.3904 23.1454 36.3458 23.1112 36.2851 23.0969C36.1145 23.0582 35.9691 23.1099 35.8489 23.252C35.8227 23.2834 35.8052 23.3211 35.7984 23.3614C35.7915 23.4017 35.7955 23.4431 35.8099 23.4814C35.8243 23.5196 35.8486 23.5534 35.8803 23.5792C35.912 23.605 35.95 23.6218 35.9904 23.6281C36.5119 23.7057 37.1245 23.9208 37.2932 24.4695C37.7177 25.8478 35.089 26.2064 35.0095 24.7312C35.0069 24.6821 35.0302 24.6556 35.0793 24.6517L35.6027 24.5974C35.6777 24.5909 35.7248 24.6239 35.7442 24.6963L35.7733 24.8087C35.7888 24.8733 35.8263 24.9218 35.8857 24.9541Z" fill="white"/>
<path d="M40.321 25.6633C39.9138 25.6605 39.5245 25.4885 39.2387 25.1851C38.9528 24.8817 38.7939 24.4718 38.7969 24.0456C38.7984 23.8345 38.8396 23.6258 38.9181 23.4314C38.9966 23.237 39.1109 23.0606 39.2545 22.9124C39.3981 22.7641 39.5682 22.6469 39.7551 22.5675C39.9419 22.488 40.1418 22.4478 40.3435 22.4493C40.7506 22.4521 41.14 22.6241 41.4258 22.9275C41.7116 23.2309 41.8705 23.6408 41.8676 24.067C41.8661 24.2781 41.8249 24.4868 41.7464 24.6812C41.6679 24.8756 41.5535 25.052 41.4099 25.2002C41.2663 25.3485 41.0962 25.4657 40.9094 25.5451C40.7226 25.6246 40.5226 25.6648 40.321 25.6633ZM40.3311 24.9519C40.4352 24.9523 40.5384 24.9295 40.6347 24.8848C40.7311 24.8401 40.8187 24.7745 40.8926 24.6916C40.9665 24.6087 41.0253 24.5101 41.0655 24.4016C41.1057 24.2931 41.1266 24.1767 41.127 24.0591C41.1275 23.9415 41.1074 23.8249 41.0679 23.7161C41.0284 23.6073 40.9704 23.5084 40.897 23.425C40.8237 23.3415 40.7365 23.2753 40.6405 23.2299C40.5444 23.1846 40.4414 23.161 40.3373 23.1607C40.2332 23.1603 40.13 23.1831 40.0336 23.2278C39.9373 23.2725 39.8497 23.3381 39.7757 23.421C39.7018 23.5039 39.6431 23.6025 39.6029 23.711C39.5626 23.8195 39.5417 23.9359 39.5413 24.0535C39.5409 24.1711 39.561 24.2877 39.6005 24.3965C39.6399 24.5053 39.698 24.6042 39.7713 24.6876C39.8447 24.7711 39.9318 24.8373 40.0279 24.8827C40.1239 24.928 40.2269 24.9516 40.3311 24.9519Z" fill="white"/>
<path d="M28.9502 22.5039H28.3725C28.3286 22.5039 28.293 22.5395 28.293 22.5834V25.5262C28.293 25.5701 28.3286 25.6056 28.3725 25.6056H28.9502C28.994 25.6056 29.0296 25.5701 29.0296 25.5262V22.5834C29.0296 22.5395 28.994 22.5039 28.9502 22.5039Z" fill="white"/>
<path d="M30.1795 23.1824L29.472 23.2018C29.4603 23.2021 29.4488 23.2 29.438 23.1957C29.4272 23.1915 29.4173 23.1851 29.409 23.1769C29.4007 23.1688 29.3941 23.1591 29.3896 23.1484C29.3851 23.1377 29.3828 23.1262 29.3828 23.1146L29.3789 22.5911C29.3789 22.568 29.3881 22.5458 29.4045 22.5295C29.4208 22.5131 29.443 22.5039 29.4662 22.5039H31.806C31.8292 22.5039 31.8513 22.5131 31.8677 22.5295C31.8841 22.5458 31.8932 22.568 31.8932 22.5911L31.8894 23.1126C31.8894 23.1242 31.8871 23.1357 31.8825 23.1465C31.878 23.1572 31.8714 23.1669 31.8631 23.175C31.8548 23.1831 31.845 23.1895 31.8342 23.1938C31.8234 23.198 31.8118 23.2001 31.8002 23.1999L31.0965 23.1805C31.0849 23.1802 31.0733 23.1823 31.0625 23.1865C31.0517 23.1908 31.0418 23.1972 31.0335 23.2053C31.0252 23.2135 31.0186 23.2232 31.0141 23.2339C31.0096 23.2446 31.0073 23.2561 31.0073 23.2677L31.0034 25.5184C31.0034 25.5415 30.9942 25.5637 30.9779 25.5801C30.9615 25.5964 30.9393 25.6056 30.9162 25.6056H30.3579C30.3348 25.6056 30.3126 25.5964 30.2962 25.5801C30.2798 25.5637 30.2706 25.5415 30.2706 25.5184L30.2687 23.2696C30.2687 23.258 30.2664 23.2465 30.2619 23.2358C30.2574 23.2251 30.2508 23.2154 30.2425 23.2073C30.2342 23.1991 30.2243 23.1928 30.2135 23.1885C30.2027 23.1842 30.1912 23.1822 30.1795 23.1824Z" fill="white"/>
<path d="M33.0863 23.2696L33.0902 23.6341C33.0902 23.6435 33.0921 23.6528 33.0957 23.6615C33.0993 23.6703 33.1046 23.6782 33.1112 23.6848C33.1179 23.6915 33.1258 23.6968 33.1345 23.7004C33.1432 23.704 33.1525 23.7058 33.162 23.7058L34.3774 23.7078C34.3965 23.7078 34.4147 23.7153 34.4282 23.7288C34.4416 23.7422 34.4492 23.7605 34.4492 23.7795L34.4569 24.3281C34.4569 24.3471 34.4494 24.3654 34.4359 24.3788C34.4225 24.3923 34.4042 24.3998 34.3852 24.3998L33.1697 24.4134C33.1517 24.4139 33.1345 24.4211 33.1215 24.4337C33.1086 24.4463 33.1009 24.4633 33.0999 24.4813L33.0844 24.8399C33.0839 24.8498 33.0854 24.8597 33.0889 24.869C33.0924 24.8783 33.0977 24.8868 33.1047 24.8939C33.1116 24.901 33.1199 24.9066 33.1291 24.9103C33.1383 24.914 33.1482 24.9158 33.1581 24.9155L34.5616 24.9077C34.5803 24.9077 34.5983 24.915 34.6117 24.9281C34.6251 24.9411 34.6328 24.9589 34.6333 24.9775L34.6547 25.532C34.6549 25.5416 34.6533 25.5511 34.6498 25.56C34.6463 25.5689 34.641 25.5771 34.6343 25.584C34.6277 25.5908 34.6197 25.5963 34.6108 25.6C34.602 25.6037 34.5925 25.6056 34.5829 25.6056H32.4311C32.4121 25.6056 32.3938 25.5981 32.3804 25.5846C32.3669 25.5712 32.3594 25.5529 32.3594 25.5339V22.5756C32.3594 22.5566 32.3669 22.5384 32.3804 22.5249C32.3938 22.5115 32.4121 22.5039 32.4311 22.5039H34.5325C34.5515 22.5039 34.5698 22.5115 34.5833 22.5249C34.5967 22.5384 34.6042 22.5566 34.6042 22.5756L34.5965 23.1243C34.596 23.1426 34.5885 23.1601 34.5755 23.1731C34.5625 23.186 34.5451 23.1936 34.5267 23.194L33.1581 23.1979C33.139 23.1979 33.1208 23.2055 33.1074 23.2189C33.0939 23.2324 33.0863 23.2506 33.0863 23.2696Z" fill="white"/>
<path d="M43.09 24.6111L43.0977 25.5436C43.0977 25.5601 43.0912 25.5758 43.0796 25.5875C43.0679 25.5991 43.0521 25.6056 43.0357 25.6056H42.3921C42.3756 25.6056 42.3598 25.5991 42.3482 25.5875C42.3366 25.5758 42.33 25.5601 42.33 25.5436L42.3281 22.5659C42.3281 22.5495 42.3346 22.5337 42.3463 22.5221C42.3579 22.5104 42.3737 22.5039 42.3901 22.5039H44.4276C44.4441 22.5039 44.4598 22.5104 44.4715 22.5221C44.4831 22.5337 44.4896 22.5495 44.4896 22.5659L44.4877 23.132C44.4877 23.1485 44.4812 23.1642 44.4695 23.1759C44.4579 23.1875 44.4421 23.194 44.4257 23.194L43.1578 23.1921C43.1414 23.1921 43.1256 23.1986 43.114 23.2103C43.1023 23.2219 43.0958 23.2377 43.0958 23.2541L43.0977 23.7989C43.0977 23.8153 43.1043 23.8311 43.1159 23.8427C43.1275 23.8544 43.1433 23.8609 43.1598 23.8609H44.1911C44.2076 23.8609 44.2233 23.8674 44.235 23.8791C44.2466 23.8907 44.2531 23.9065 44.2531 23.923L44.2609 24.489C44.2609 24.5055 44.2543 24.5212 44.2427 24.5329C44.2311 24.5445 44.2153 24.551 44.1988 24.551L43.152 24.5491C43.1356 24.5491 43.1198 24.5556 43.1081 24.5673C43.0965 24.5789 43.09 24.5947 43.09 24.6111Z" fill="white"/>
<path d="M47.5914 23.2541L47.5952 25.5417C47.5952 25.5581 47.5887 25.5739 47.5771 25.5855C47.5654 25.5972 47.5497 25.6037 47.5332 25.6037L46.8915 25.6056C46.8751 25.6056 46.8593 25.5991 46.8477 25.5875C46.836 25.5758 46.8295 25.5601 46.8295 25.5436L46.8276 23.2503C46.8276 23.2419 46.8259 23.2337 46.8227 23.2261C46.8194 23.2184 46.8147 23.2115 46.8087 23.2057C46.8028 23.1999 46.7957 23.1954 46.7879 23.1924C46.7802 23.1894 46.7719 23.188 46.7636 23.1882L46.0424 23.2037C46.0343 23.204 46.0262 23.2026 46.0185 23.1998C46.0109 23.1969 46.0039 23.1925 45.998 23.1869C45.9921 23.1814 45.9873 23.1747 45.9839 23.1672C45.9806 23.1598 45.9787 23.1518 45.9785 23.1436L45.9688 22.5679C45.9685 22.5596 45.9699 22.5513 45.9729 22.5435C45.9759 22.5358 45.9805 22.5287 45.9862 22.5228C45.992 22.5168 45.999 22.512 46.0066 22.5088C46.0143 22.5056 46.0225 22.5039 46.0308 22.5039H48.3901C48.4065 22.5039 48.4223 22.5104 48.4339 22.5221C48.4456 22.5337 48.4521 22.5495 48.4521 22.5659L48.454 23.132C48.454 23.1485 48.4475 23.1642 48.4359 23.1759C48.4242 23.1875 48.4085 23.194 48.392 23.194L47.6534 23.1921C47.6369 23.1921 47.6212 23.1986 47.6095 23.2103C47.5979 23.2219 47.5914 23.2377 47.5914 23.2541Z" fill="white"/>
<path d="M50.7087 23.6419L50.7048 22.5679C50.7048 22.5509 50.7115 22.5346 50.7235 22.5226C50.7355 22.5106 50.7518 22.5039 50.7688 22.5039H51.4104C51.4274 22.5039 51.4437 22.5106 51.4557 22.5226C51.4677 22.5346 51.4744 22.5509 51.4744 22.5679L51.4763 25.5397C51.4763 25.5567 51.4696 25.573 51.4576 25.585C51.4456 25.597 51.4293 25.6037 51.4124 25.6037L50.7649 25.6056C50.7479 25.6056 50.7316 25.5989 50.7196 25.5869C50.7076 25.5749 50.7009 25.5586 50.7009 25.5417L50.7067 24.4716C50.7067 24.4546 50.7 24.4383 50.688 24.4263C50.676 24.4143 50.6597 24.4076 50.6428 24.4076L49.6424 24.3998C49.634 24.3998 49.6257 24.4015 49.618 24.4047C49.6102 24.4079 49.6031 24.4126 49.5972 24.4186C49.5913 24.4245 49.5865 24.4316 49.5833 24.4393C49.5801 24.4471 49.5785 24.4554 49.5785 24.4638L49.5804 25.5397C49.5804 25.5567 49.5737 25.573 49.5617 25.585C49.5497 25.597 49.5334 25.6037 49.5164 25.6037L48.9077 25.6056C48.8907 25.6056 48.8745 25.5989 48.8625 25.5869C48.8505 25.5749 48.8438 25.5586 48.8438 25.5417V22.5679C48.8438 22.5509 48.8505 22.5346 48.8625 22.5226C48.8745 22.5106 48.8907 22.5039 48.9077 22.5039H49.5106C49.5276 22.5039 49.5439 22.5106 49.5559 22.5226C49.5679 22.5346 49.5746 22.5509 49.5746 22.5679L49.5824 23.6457C49.5824 23.6627 49.5891 23.679 49.6011 23.691C49.6131 23.703 49.6294 23.7097 49.6463 23.7097L50.6447 23.7058C50.6617 23.7058 50.6779 23.6991 50.6899 23.6871C50.7019 23.6751 50.7087 23.6588 50.7087 23.6419Z" fill="white"/>
<path d="M52.8551 23.7078L54.0764 23.7097C54.093 23.7097 54.109 23.7162 54.1209 23.7277C54.1329 23.7393 54.1399 23.7551 54.1404 23.7717L54.1539 24.3378C54.1542 24.3464 54.1527 24.3549 54.1496 24.3629C54.1465 24.3709 54.1418 24.3782 54.1359 24.3843C54.1299 24.3904 54.1228 24.3953 54.1149 24.3987C54.107 24.402 54.0985 24.4037 54.0899 24.4037L52.8512 24.4018C52.8342 24.4018 52.818 24.4085 52.806 24.4205C52.794 24.4325 52.7872 24.4488 52.7872 24.4658L52.793 24.8535C52.793 24.8704 52.7998 24.8867 52.8118 24.8987C52.8238 24.9107 52.84 24.9174 52.857 24.9174L54.2819 24.9155C54.2988 24.9155 54.3151 24.9222 54.3271 24.9342C54.3391 24.9462 54.3459 24.9625 54.3459 24.9795L54.34 25.5417C54.34 25.5586 54.3333 25.5749 54.3213 25.5869C54.3093 25.5989 54.293 25.6056 54.2761 25.6056H52.0874C52.0704 25.6056 52.0542 25.5989 52.0422 25.5869C52.0302 25.5749 52.0234 25.5586 52.0234 25.5417V22.5679C52.0234 22.5509 52.0302 22.5346 52.0422 22.5226C52.0542 22.5106 52.0704 22.5039 52.0874 22.5039H54.2024C54.2194 22.5039 54.2356 22.5106 54.2476 22.5226C54.2596 22.5346 54.2664 22.5509 54.2664 22.5679L54.2644 23.1262C54.2644 23.1432 54.2577 23.1594 54.2457 23.1714C54.2337 23.1834 54.2174 23.1902 54.2005 23.1902L52.8531 23.1921C52.8362 23.1921 52.8199 23.1988 52.8079 23.2108C52.7959 23.2228 52.7892 23.2391 52.7892 23.2561L52.7911 23.6438C52.7911 23.6608 52.7979 23.677 52.8099 23.689C52.8218 23.701 52.8381 23.7078 52.8551 23.7078Z" fill="white"/>
<path d="M56.0859 22.5834C56.0859 22.5628 56.0941 22.5431 56.1087 22.5286C56.1232 22.514 56.1429 22.5058 56.1635 22.5058L57.1696 22.5039C57.374 22.5036 57.5765 22.5426 57.7655 22.6185C57.9545 22.6945 58.1262 22.8059 58.2709 22.9465C58.4157 23.0871 58.5305 23.2541 58.609 23.4379C58.6875 23.6218 58.728 23.8189 58.7282 24.0179V24.0916C58.7287 24.4937 58.5652 24.8794 58.2736 25.1641C57.9821 25.4488 57.5863 25.609 57.1735 25.6095L56.1674 25.6115C56.1468 25.6115 56.1271 25.6033 56.1125 25.5887C56.098 25.5742 56.0898 25.5545 56.0898 25.5339L56.0859 22.5834ZM56.8498 23.3007L56.842 24.8128C56.8417 24.8277 56.8445 24.8425 56.85 24.8564C56.8555 24.8703 56.8638 24.8829 56.8742 24.8935C56.8847 24.9042 56.8972 24.9126 56.9109 24.9184C56.9247 24.9242 56.9395 24.9271 56.9544 24.9271H57.0901C57.3294 24.9283 57.5594 24.8413 57.7294 24.6854C57.8995 24.5295 57.9959 24.3173 57.9974 24.0955V24.0335C57.9981 23.9233 57.9754 23.8142 57.9306 23.7122C57.8858 23.6102 57.8197 23.5173 57.7361 23.439C57.6526 23.3607 57.5532 23.2984 57.4437 23.2557C57.3342 23.213 57.2166 23.1907 57.0979 23.1902H56.9622C56.9327 23.1902 56.9044 23.2017 56.8834 23.2224C56.8623 23.2431 56.8503 23.2712 56.8498 23.3007Z" fill="white"/>
<path d="M59.6825 25.1149L59.5972 25.4968C59.5817 25.5691 59.5365 25.6053 59.4615 25.6053L58.8819 25.6034C58.8095 25.6034 58.7856 25.5691 58.8101 25.5006L59.7813 22.7963C59.8173 22.6962 59.8834 22.6097 59.9704 22.5486C60.0575 22.4875 60.1613 22.4549 60.2676 22.4551C60.374 22.4553 60.4777 22.4884 60.5645 22.5498C60.6513 22.6113 60.717 22.698 60.7526 22.7983L61.7044 25.4871C61.7316 25.5646 61.7044 25.6034 61.623 25.6034L61.0879 25.6053C61.0078 25.6053 60.9574 25.5672 60.9368 25.491L60.8379 25.1381C60.8159 25.0619 60.7649 25.0238 60.6847 25.0238H59.7949C59.7329 25.0238 59.6954 25.0541 59.6825 25.1149ZM60.0295 24.3724L60.4734 24.3569C60.5497 24.3543 60.5749 24.3175 60.549 24.2464L60.3087 23.5737C60.2789 23.4923 60.2498 23.4923 60.2214 23.5737L59.9713 24.2929C59.9682 24.3021 59.9674 24.3118 59.9688 24.3214C59.9703 24.3309 59.974 24.34 59.9797 24.3478C59.9854 24.3556 59.9929 24.3619 60.0016 24.3662C60.0103 24.3705 60.0198 24.3726 60.0295 24.3724Z" fill="white"/>
<path d="M62.9934 23.5682L63.4896 22.5737C63.5142 22.5259 63.553 22.5027 63.606 22.504L64.1933 22.5059C64.2812 22.5072 64.3045 22.546 64.2631 22.6222C63.9917 23.1262 63.7248 23.6283 63.4625 24.1285C63.2202 24.5879 63.2822 24.9892 63.2977 25.4836C63.3003 25.565 63.2609 25.6057 63.1795 25.6057H62.6134C62.5475 25.6057 62.5165 25.5727 62.5203 25.5068C62.5572 24.9272 62.5824 24.4871 62.2838 23.9521C62.0357 23.5088 61.7973 23.0623 61.5685 22.6125C61.531 22.5401 61.553 22.504 61.6344 22.504H62.1791C62.2631 22.504 62.3245 22.5414 62.3633 22.6164L62.848 23.5682C62.8971 23.6652 62.9455 23.6652 62.9934 23.5682Z" fill="white"/>
<path d="M10.6568 25.2647C12.2154 25.9955 12.7601 27.8236 12.6419 29.4016C12.6408 29.4174 12.6358 29.4328 12.6273 29.4462C12.6188 29.4596 12.6071 29.4707 12.5932 29.4784C12.5793 29.4861 12.5637 29.4902 12.5478 29.4903C12.5319 29.4905 12.5163 29.4866 12.5023 29.4791C10.9824 28.6901 9.92784 27.0695 10.4958 25.3344C10.5008 25.3188 10.5091 25.3044 10.5202 25.2922C10.5312 25.28 10.5448 25.2703 10.56 25.2637C10.5752 25.2571 10.5917 25.2537 10.6084 25.2539C10.6251 25.2541 10.6415 25.2577 10.6568 25.2647Z" fill="white"/>
<path d="M79.7773 25.2903C79.7999 25.2783 79.8248 25.2713 79.8503 25.2698C79.8759 25.2684 79.9014 25.2725 79.9252 25.2819C79.949 25.2913 79.9705 25.3058 79.9881 25.3243C80.0057 25.3428 80.0191 25.365 80.0274 25.3892C80.5876 27.0893 79.4497 28.7623 77.9705 29.4893C77.9592 29.495 77.9466 29.4978 77.9338 29.4973C77.9211 29.4969 77.9086 29.4932 77.8975 29.4867C77.8864 29.4802 77.877 29.471 77.8701 29.46C77.8632 29.4489 77.8591 29.4364 77.8581 29.4234C77.7476 27.8221 78.2652 26.0948 79.7773 25.2903Z" fill="white"/>
<path d="M9.52753 27.5711C9.62317 27.6473 9.61801 27.7152 9.51203 27.7746C7.54825 28.8796 5.34991 28.0693 4.26624 26.185C4.25924 26.1736 4.25509 26.1607 4.25412 26.1473C4.25316 26.1339 4.2554 26.1205 4.26068 26.108C4.26596 26.0956 4.27414 26.0845 4.28453 26.0756C4.29493 26.0668 4.30724 26.0604 4.3205 26.0571C6.12145 25.6267 8.08523 26.4331 9.52753 27.5711Z" fill="white"/>
<path d="M80.9745 27.6089C82.3702 26.3546 84.3088 25.7518 86.166 26.0328C86.1834 26.0354 86.1999 26.0422 86.2141 26.0527C86.2282 26.0632 86.2395 26.0771 86.247 26.093C86.2545 26.1089 86.2579 26.1265 86.257 26.1441C86.256 26.1616 86.2507 26.1787 86.2416 26.1937C85.0048 28.1866 83.2626 28.7339 81.0152 27.8357C80.9937 27.8272 80.9749 27.8133 80.9603 27.7955C80.9457 27.7776 80.9359 27.7563 80.9318 27.7336C80.9277 27.7109 80.9295 27.6876 80.937 27.6657C80.9444 27.6439 80.9573 27.6244 80.9745 27.6089Z" fill="white"/>
<path d="M16.0741 31.0745C14.4146 30.6305 13.0421 29.2735 13.1953 27.492C13.2017 27.4196 13.2405 27.3892 13.3116 27.4009C15.0175 27.6858 16.0489 29.3569 16.1807 30.9853C16.1872 31.0654 16.1516 31.0951 16.0741 31.0745Z" fill="white"/>
<path d="M74.3056 30.981C74.4878 29.2634 75.4435 27.8308 77.1592 27.383C77.1765 27.3784 77.1946 27.3777 77.2122 27.3808C77.2299 27.384 77.2466 27.391 77.2612 27.4014C77.2758 27.4118 77.288 27.4252 77.2968 27.4408C77.3057 27.4564 77.311 27.4737 77.3123 27.4916C77.4597 29.2925 76.0891 30.6534 74.389 31.0527C74.3269 31.067 74.2991 31.0431 74.3056 30.981Z" fill="white"/>
<path d="M20.4421 32.0438C18.7168 31.9061 16.9585 31.1229 16.7899 29.1669C16.7834 29.0945 16.8164 29.0655 16.8887 29.0797C18.4822 29.4015 20.0738 30.2661 20.541 31.9216C20.5455 31.9365 20.5463 31.9522 20.5433 31.9674C20.5403 31.9826 20.5337 31.9968 20.5239 32.0089C20.5142 32.0209 20.5016 32.0304 20.4874 32.0365C20.4731 32.0426 20.4576 32.0451 20.4421 32.0438Z" fill="white"/>
<path d="M69.9757 31.7199C70.7705 30.1263 71.9724 29.4246 73.5989 29.0795C73.6583 29.0666 73.6881 29.0911 73.6881 29.1532C73.6977 31.0026 71.701 31.9796 70.1618 32.0126C69.9382 32.0165 69.8762 31.9189 69.9757 31.7199Z" fill="white"/>
<path d="M13.0949 29.9135C13.1944 29.9549 13.2009 30.0085 13.1143 30.0744C11.4587 31.3422 9.00642 30.8556 7.58156 29.5723C7.53116 29.5258 7.53569 29.487 7.59514 29.456C9.08591 28.6612 11.5091 29.2524 13.0949 29.9135Z" fill="white"/>
<path d="M78.1048 30.4688C77.814 30.368 77.5762 30.2342 77.3914 30.0675C77.3319 30.0132 77.339 29.9693 77.4127 29.9357C78.9694 29.2242 81.2976 28.7027 82.9202 29.4452C82.9874 29.4762 82.9932 29.5163 82.9377 29.5654C81.5496 30.8035 79.9387 31.1047 78.1048 30.4688Z" fill="white"/>
<path d="M10.6915 32.0958C10.5054 31.9924 10.4989 31.8793 10.6721 31.7566C12.0989 30.7369 15.1173 31.0373 16.7224 31.4367C16.7346 31.4397 16.7458 31.446 16.7547 31.455C16.7635 31.4639 16.7697 31.4752 16.7725 31.4874C16.7753 31.4997 16.7747 31.5125 16.7706 31.5244C16.7666 31.5364 16.7593 31.5469 16.7495 31.5549C14.8652 33.1123 12.8459 33.2926 10.6915 32.0958Z" fill="white"/>
<path d="M79.9563 31.9731C78.1146 33.2274 75.4704 33.2061 73.7993 31.5602C73.7399 31.502 73.7509 31.4626 73.8323 31.4419C75.4394 31.0096 78.578 30.7305 79.9621 31.8452C80.0177 31.8904 80.0157 31.9331 79.9563 31.9731Z" fill="white"/>
<path d="M15.3365 33.0104C16.1565 32.0121 19.2912 32.1439 20.4446 32.3261C20.5067 32.3352 20.5357 32.3713 20.5319 32.4347C20.5176 32.6712 20.4401 32.8573 20.2992 32.993C19.0178 34.222 16.7749 33.7219 15.3752 33.1636C15.2912 33.1313 15.2783 33.0802 15.3365 33.0104Z" fill="white"/>
<path d="M75.1374 33.1507C73.6505 33.7419 71.6499 34.1607 70.32 33.1177C70.1094 32.9536 69.995 32.7177 69.9769 32.4101C69.973 32.3455 70.0034 32.3093 70.068 32.3016C71.3746 32.1426 74.1448 32.005 75.1684 32.9878C75.2408 33.0589 75.2305 33.1132 75.1374 33.1507Z" fill="white"/>
</svg>
