<svg width="279" height="103" viewBox="0 0 279 103" fill="none" xmlns="http://www.w3.org/2000/svg">
<path d="M13.7259 1.08142C13.5947 7.24042 11.9313 17.889 7.50729 22.4799C7.34035 22.6548 7.22112 22.627 7.14957 22.3965C4.62157 14.2341 7.46558 6.68592 13.4934 0.98005C13.5129 0.961134 13.5376 0.948452 13.5644 0.943604C13.5911 0.938757 13.6187 0.941968 13.6436 0.95283C13.6686 0.963691 13.6897 0.981719 13.7043 1.00461C13.719 1.02751 13.7265 1.05424 13.7259 1.08142Z" fill="#1E1E1E"/>
<path d="M265.75 0.96248C271.539 6.79952 274.681 14.1391 271.998 22.3908C271.923 22.6293 271.802 22.6551 271.635 22.4683C267.199 17.5793 265.583 7.43153 265.422 1.09962C265.421 1.06123 265.432 1.02346 265.453 0.991247C265.474 0.959033 265.504 0.93388 265.539 0.919066C265.575 0.904252 265.614 0.900474 265.651 0.908222C265.689 0.915969 265.723 0.934871 265.75 0.96248Z" fill="#1E1E1E"/>
<path d="M103.214 25.9972C128.494 29.9382 139.482 60.9181 121.071 79.4369C113.28 87.2713 103.947 90.3617 93.072 88.7082C79.6987 86.681 69.1634 75.5912 67.0349 62.4444C64.2207 45.0645 75.9485 28.6027 93.4954 25.9912C93.6981 25.9634 93.7994 25.8461 93.7994 25.6395L93.8113 18.7769C93.8113 18.6619 93.7751 18.5496 93.7078 18.4556C93.6405 18.3616 93.5454 18.2905 93.4357 18.2522C87.708 16.2449 84.4049 12.2164 83.5265 6.16674C83.5136 6.07864 83.5199 5.9888 83.5449 5.90334C83.5698 5.81789 83.613 5.73882 83.6712 5.6715C83.7295 5.60418 83.8015 5.55021 83.8825 5.51324C83.9635 5.47626 84.0516 5.45716 84.1406 5.45723L92.3148 5.45126C92.5215 5.45126 92.6467 5.55462 92.6904 5.76131C94.0916 12.606 103.041 12.5106 104.072 5.77323C104.104 5.56654 104.223 5.4632 104.43 5.4632L112.753 5.44531C113.139 5.44531 113.306 5.6361 113.254 6.01768C112.416 12.2184 109.043 16.3205 103.136 18.3238C102.973 18.3794 102.892 18.4927 102.892 18.6636L102.916 25.6514C102.916 25.8541 103.015 25.9694 103.214 25.9972ZM98.0386 51.7005C90.9852 52.4278 90.7348 61.6097 97.9432 62.9572C98.1737 63.0009 98.289 63.14 98.289 63.3745L98.295 71.7515C98.295 72.0297 98.1558 72.153 97.8776 72.1212C91.5258 71.4176 87.233 68.1026 84.9992 62.1761C84.9236 61.9774 84.7805 61.878 84.5699 61.878L75.9425 61.8899C75.7 61.8899 75.5987 62.0112 75.6384 62.2536C77.0992 70.6008 84.0094 77.2964 91.5695 79.6097C105.408 83.8489 119.688 74.5657 121.464 60.5127C122.561 51.8197 119.014 43.401 111.853 38.3629C98.0028 28.6087 79.3887 36.2463 75.6026 52.3682C75.5919 52.4155 75.5919 52.4647 75.6028 52.512C75.6137 52.5593 75.6351 52.6035 75.6655 52.6414C75.6959 52.6792 75.7345 52.7097 75.7783 52.7305C75.8221 52.7514 75.8701 52.762 75.9186 52.7617L84.5222 52.7438C84.6287 52.7443 84.7327 52.7119 84.8202 52.6511C84.9077 52.5903 84.9743 52.504 85.0111 52.404C87.1773 46.6564 91.3211 43.3613 97.4424 42.5186C98.0108 42.4431 98.295 42.6915 98.295 43.2639V51.4143C98.295 51.5892 98.2095 51.6846 98.0386 51.7005Z" fill="#1E1E1E"/>
<path d="M143.345 12.1281L141.944 12.1042C141.725 12.1003 141.614 11.989 141.61 11.7703L141.586 10.4527C141.578 10.1904 141.705 10.0592 141.968 10.0592L145.861 10.0652C146.124 10.0652 146.255 10.1983 146.255 10.4646L146.213 15.6339C146.211 15.7327 146.181 15.8284 146.125 15.909C146.07 15.9897 145.993 16.0516 145.903 16.087C143.47 17.047 137.913 18.1977 137.603 14.0658C137.425 11.6968 137.423 9.7432 137.597 8.20494C138.015 4.50238 142.898 5.23572 145.563 5.84387C145.656 5.86531 145.737 5.922 145.79 6.00204C145.842 6.08208 145.861 6.17925 145.843 6.27315L145.641 7.4358C145.626 7.52035 145.582 7.5967 145.516 7.6505C145.45 7.70431 145.367 7.73185 145.283 7.72794L140.972 7.52523C140.863 7.51959 140.755 7.53603 140.653 7.57358C140.551 7.61112 140.457 7.66897 140.378 7.74365C140.299 7.81832 140.236 7.90826 140.192 8.00804C140.149 8.10782 140.126 8.21537 140.125 8.32417L140.09 13.8631C140.089 14.0131 140.12 14.1616 140.18 14.2988C140.24 14.436 140.329 14.5588 140.44 14.6591C140.551 14.7594 140.682 14.8349 140.824 14.8806C140.966 14.9263 141.116 14.9412 141.264 14.9244L143.333 14.6978C143.568 14.674 143.685 14.5448 143.685 14.3103L143.703 12.4918C143.707 12.2533 143.588 12.1321 143.345 12.1281Z" fill="#1E1E1E"/>
<path d="M151.299 7.90217L151.317 9.73259C151.319 9.79954 151.346 9.86323 151.394 9.91003C151.442 9.95683 151.506 9.98301 151.573 9.98299L155.747 9.98896C155.783 9.98871 155.819 9.9962 155.853 10.0109C155.886 10.0256 155.915 10.0472 155.94 10.0743C155.964 10.1013 155.982 10.1332 155.993 10.1679C156.004 10.2025 156.008 10.2391 156.003 10.2752L155.819 11.7597C155.81 11.8214 155.779 11.8777 155.732 11.9183C155.685 11.9589 155.624 11.981 155.562 11.9803L151.55 11.9982C151.483 11.9998 151.419 12.0275 151.372 12.0754C151.325 12.1233 151.299 12.1876 151.299 12.2546L151.323 14.3951C151.323 14.4292 151.33 14.4631 151.343 14.4946C151.356 14.5261 151.376 14.5546 151.4 14.5785C151.425 14.6024 151.454 14.6211 151.485 14.6337C151.517 14.6462 151.551 14.6522 151.585 14.6514L156.146 14.6336C156.214 14.6336 156.28 14.6606 156.328 14.7087C156.376 14.7567 156.403 14.8219 156.403 14.8899L156.415 16.5594C156.415 16.6273 156.388 16.6926 156.34 16.7407C156.292 16.7887 156.226 16.8157 156.158 16.8157L148.932 16.7859C148.864 16.7859 148.799 16.7589 148.751 16.7108C148.703 16.6628 148.676 16.5975 148.676 16.5296V5.79153C148.676 5.72353 148.703 5.65833 148.751 5.61025C148.799 5.56217 148.864 5.53516 148.932 5.53516L156.17 5.54112C156.206 5.54171 156.241 5.5498 156.274 5.56487C156.306 5.57994 156.335 5.60168 156.359 5.62864C156.383 5.65561 156.4 5.68722 156.411 5.72144C156.422 5.75566 156.425 5.79171 156.421 5.8273L156.236 7.41326C156.229 7.47495 156.199 7.53193 156.153 7.5736C156.107 7.61527 156.048 7.63881 155.986 7.63983H151.556C151.521 7.63982 151.488 7.64664 151.456 7.6599C151.425 7.67316 151.396 7.69257 151.372 7.71702C151.348 7.74146 151.329 7.77043 151.317 7.80222C151.304 7.83402 151.298 7.868 151.299 7.90217Z" fill="#1E1E1E"/>
<path d="M161.215 12.9872L161.275 16.4453C161.275 16.4896 161.267 16.5337 161.251 16.5749C161.235 16.6161 161.21 16.6536 161.179 16.6852C161.148 16.7169 161.111 16.742 161.07 16.7592C161.029 16.7763 160.985 16.7851 160.941 16.7851L159.009 16.803C158.963 16.8038 158.917 16.7956 158.875 16.7789C158.832 16.7622 158.793 16.7372 158.761 16.7056C158.728 16.674 158.702 16.6362 158.684 16.5946C158.666 16.553 158.657 16.5083 158.657 16.4632V5.84438C158.657 5.68141 158.739 5.59596 158.902 5.58801C161.138 5.4628 165.818 4.89043 166.754 7.19186C167.597 9.25877 167.209 10.8885 165.591 12.0809C165.432 12.2002 165.399 12.3452 165.49 12.5161L167.577 16.3916C167.72 16.6579 167.64 16.7931 167.338 16.7971L165.144 16.809C164.922 16.809 164.765 16.7096 164.673 16.5109L162.896 12.6115C162.812 12.4272 162.667 12.2771 162.485 12.1866C162.303 12.0962 162.096 12.0709 161.898 12.115C161.7 12.1592 161.524 12.27 161.4 12.4289C161.276 12.5878 161.21 12.785 161.215 12.9872ZM164.492 8.19573C164.493 8.12762 164.481 8.06 164.455 7.99675C164.43 7.9335 164.393 7.87585 164.345 7.82709C164.297 7.77834 164.241 7.73943 164.178 7.71259C164.115 7.68575 164.048 7.67152 163.98 7.67069L161.738 7.64332C161.67 7.64249 161.603 7.65507 161.539 7.68037C161.476 7.70566 161.419 7.74316 161.37 7.79074C161.321 7.83831 161.282 7.89503 161.255 7.95765C161.229 8.02026 161.214 8.08755 161.213 8.15567L161.193 9.82496C161.192 9.89308 161.205 9.9607 161.23 10.0239C161.255 10.0872 161.293 10.1448 161.34 10.1936C161.388 10.2424 161.445 10.2813 161.507 10.3081C161.57 10.3349 161.637 10.3492 161.705 10.35L163.947 10.3774C164.015 10.3782 164.083 10.3656 164.146 10.3403C164.209 10.315 164.267 10.2775 164.316 10.2299C164.364 10.1824 164.403 10.1257 164.43 10.063C164.457 10.0004 164.471 9.93314 164.472 9.86503L164.492 8.19573Z" fill="#1E1E1E"/>
<path d="M171.935 10.0366L172.001 16.458C172.001 16.5466 171.966 16.6315 171.903 16.6941C171.84 16.7567 171.755 16.7919 171.667 16.7919L169.884 16.8098C169.642 16.8138 169.522 16.6965 169.526 16.458L169.532 5.83924C169.532 5.63652 169.634 5.53516 169.837 5.53516L172.365 5.54112C172.535 5.5451 172.657 5.62459 172.728 5.77961L175.256 11.3007C175.277 11.3479 175.311 11.3882 175.354 11.4167C175.397 11.4453 175.447 11.4608 175.499 11.4614C175.55 11.462 175.601 11.4477 175.645 11.4203C175.688 11.3928 175.723 11.3534 175.745 11.3066L178.267 5.8273C178.308 5.73999 178.373 5.66612 178.454 5.61438C178.535 5.56263 178.63 5.53516 178.726 5.53516L181.171 5.54112C181.37 5.54112 181.469 5.6385 181.469 5.83327V16.464C181.469 16.6985 181.354 16.8138 181.123 16.8098L179.46 16.8038C179.205 16.7998 179.078 16.6726 179.078 16.4222L179.096 10.0366C179.096 9.4921 178.981 9.46825 178.75 9.96511L176.657 14.4368C176.555 14.6557 176.393 14.841 176.189 14.9708C175.985 15.1006 175.748 15.1695 175.507 15.1695C175.265 15.1695 175.028 15.1006 174.825 14.9708C174.621 14.841 174.458 14.6557 174.356 14.4368L172.263 9.96511C172.041 9.48812 171.931 9.51197 171.935 10.0366Z" fill="#1E1E1E"/>
<path d="M186.644 14.9804L186.125 16.4769C186.09 16.5776 186.024 16.6646 185.937 16.7257C185.851 16.7867 185.747 16.8186 185.642 16.8168L183.513 16.7989C183.472 16.7986 183.432 16.7884 183.395 16.7691C183.359 16.7498 183.328 16.722 183.304 16.688C183.281 16.6541 183.266 16.615 183.261 16.5741C183.256 16.5332 183.261 16.4917 183.275 16.453L186.745 6.61533C186.876 6.24395 187.119 5.92235 187.441 5.69467C187.762 5.46699 188.147 5.34441 188.54 5.34375C188.934 5.3431 189.319 5.4644 189.641 5.69101C189.963 5.91762 190.208 6.23842 190.34 6.60937L193.834 16.4829C193.902 16.6736 193.834 16.771 193.631 16.775L191.467 16.8227C191.201 16.8267 191.03 16.7015 190.954 16.4471L190.537 15.0758C190.473 14.8611 190.33 14.7538 190.108 14.7538H186.96C186.801 14.7538 186.695 14.8293 186.644 14.9804ZM187.264 12.4464C187.255 12.475 187.254 12.5052 187.259 12.5345C187.264 12.5638 187.277 12.5914 187.295 12.6152C187.313 12.6389 187.336 12.6581 187.363 12.6713C187.389 12.6844 187.419 12.6911 187.449 12.6909H189.655C189.684 12.6911 189.714 12.6844 189.74 12.6713C189.767 12.6581 189.79 12.6389 189.808 12.6152C189.826 12.5914 189.839 12.5638 189.844 12.5345C189.849 12.5052 189.848 12.475 189.839 12.4464L188.736 8.63655C188.726 8.59551 188.702 8.55912 188.668 8.53314C188.635 8.50717 188.594 8.49308 188.552 8.49308C188.509 8.49308 188.468 8.50717 188.435 8.53314C188.401 8.55912 188.377 8.59551 188.367 8.63655L187.264 12.4464Z" fill="#1E1E1E"/>
<path d="M202.224 11.8969L202.188 5.71402C202.188 5.66658 202.207 5.62108 202.24 5.58754C202.274 5.554 202.319 5.53516 202.367 5.53516L204.531 5.54112C204.579 5.54112 204.624 5.55996 204.658 5.59351C204.691 5.62705 204.71 5.67255 204.71 5.71998L204.716 16.6428C204.716 16.6903 204.697 16.7358 204.664 16.7693C204.63 16.8029 204.584 16.8217 204.537 16.8217L202.2 16.7859C202.169 16.7849 202.14 16.7762 202.114 16.7605C202.088 16.7449 202.066 16.7228 202.051 16.6965L198.396 10.293C198.376 10.2589 198.346 10.2322 198.309 10.2171C198.273 10.2019 198.233 10.1993 198.195 10.2095C198.157 10.2197 198.123 10.2422 198.099 10.2735C198.075 10.3047 198.062 10.3431 198.062 10.3825L198.098 16.613C198.098 16.6604 198.079 16.706 198.045 16.7395C198.012 16.773 197.966 16.7919 197.919 16.7919L195.779 16.8217C195.731 16.8217 195.686 16.8029 195.652 16.7693C195.618 16.7358 195.6 16.6903 195.6 16.6428L195.606 5.71402C195.606 5.66658 195.624 5.62108 195.658 5.58754C195.692 5.554 195.737 5.53516 195.784 5.53516L197.943 5.54112C197.974 5.5411 198.005 5.54935 198.032 5.56505C198.06 5.58075 198.082 5.60335 198.098 5.63055L201.896 11.9863C201.917 12.0178 201.947 12.0419 201.982 12.0551C202.017 12.0684 202.056 12.0703 202.092 12.0604C202.129 12.0504 202.161 12.0293 202.184 11.9999C202.208 11.9706 202.222 11.9345 202.224 11.8969Z" fill="#1E1E1E"/>
<path d="M276.173 17.1558C277.938 22.021 277.58 29.2472 272.673 32.3297C272.463 32.4649 272.341 32.4072 272.31 32.1568C271.743 27.232 272.399 20.9418 275.845 17.0902C275.992 16.9272 276.102 16.9491 276.173 17.1558Z" fill="#1E1E1E"/>
<path d="M3.28677 17.0848C6.78662 20.7576 7.46033 27.4472 6.81045 32.2349C6.77865 32.4774 6.66536 32.5271 6.4706 32.384C1.62925 28.8186 1.20595 22.4807 2.91712 17.1683C2.99264 16.9338 3.11586 16.906 3.28677 17.0848Z" fill="#1E1E1E"/>
<path d="M7.42456 29.52C7.3709 25.3941 10.2626 18.6269 14.4481 17.041C14.6508 16.9654 14.7641 17.035 14.7879 17.2496C15.3424 22.1208 11.7293 27.2185 7.83596 29.7406C7.79583 29.7659 7.74969 29.7801 7.70226 29.7818C7.65483 29.7835 7.6078 29.7725 7.56598 29.7501C7.52416 29.7277 7.48904 29.6945 7.46419 29.6541C7.43935 29.6137 7.42568 29.5674 7.42456 29.52Z" fill="#1E1E1E"/>
<path d="M265.107 17.1207C269.144 19.8335 271.773 24.7405 271.719 29.5341C271.715 29.8442 271.582 29.9137 271.32 29.7428C267.701 27.3579 263.664 22.0515 264.392 17.4367C264.467 16.9558 264.706 16.8504 265.107 17.1207Z" fill="#1E1E1E"/>
<path d="M165.847 24.501C168.714 24.8527 171.827 23.7974 172.381 27.9472C173.21 34.13 165.942 33.2416 162.353 32.3771C162.317 32.3683 162.283 32.3521 162.253 32.3296C162.224 32.307 162.199 32.2786 162.181 32.2461C162.163 32.2136 162.152 32.1777 162.149 32.1407C162.146 32.1038 162.15 32.0665 162.162 32.0313L162.836 30.1651C162.868 30.0758 162.933 30.0019 163.018 29.9578C163.103 29.9137 163.201 29.9026 163.295 29.9266C164.94 30.3559 169.096 31.441 169.299 28.6507C169.323 28.2865 169.204 27.9273 168.966 27.6514C168.728 27.3756 168.391 27.2054 168.029 27.178C164.887 26.9395 161.631 27.4463 162.132 22.8196C162.645 18.0558 168.369 19.1469 171.898 19.7312C172.192 19.7828 172.286 19.9478 172.178 20.226L171.546 21.818C171.51 21.9088 171.446 21.9855 171.363 22.0361C171.28 22.0867 171.183 22.1085 171.087 22.0982C169.633 21.9491 163.843 20.6255 165.393 24.1611C165.477 24.3599 165.628 24.4731 165.847 24.501Z" fill="#1E1E1E"/>
<path d="M188.026 29.8865L188.032 27.5851C188.032 27.4997 187.999 27.4178 187.939 27.3575C187.88 27.2971 187.8 27.2631 187.716 27.2631L185.999 27.2691C185.76 27.2691 185.641 27.1499 185.641 26.9114L185.647 25.1883C185.647 25.106 185.68 25.0272 185.74 24.9691C185.799 24.9109 185.879 24.8782 185.963 24.8782L190.745 24.8663C190.995 24.8623 191.12 24.9875 191.12 25.2419L191.108 31.4069C191.108 31.5098 191.078 31.6107 191.021 31.6975C190.964 31.7843 190.882 31.8532 190.786 31.8958C188.61 32.8617 183.131 33.9349 181.455 31.6752C180.138 29.9044 180.698 23.2923 180.758 22.5351C181.11 18.2423 187.781 19.077 190.417 19.8222C190.655 19.8898 190.747 20.0448 190.691 20.2873L190.339 21.7361C190.284 21.9707 190.135 22.08 189.892 22.0641L185.414 21.7063C184.333 21.6228 183.793 22.1237 183.793 23.2088V29.3857C183.793 29.5642 183.831 29.7405 183.905 29.903C183.979 30.0655 184.086 30.2103 184.221 30.3277C184.355 30.4452 184.513 30.5325 184.684 30.5839C184.855 30.6354 185.035 30.6496 185.212 30.6258L187.674 30.292C187.909 30.2602 188.026 30.125 188.026 29.8865Z" fill="#1E1E1E"/>
<path d="M137.8 19.692C137.802 19.6219 137.831 19.5552 137.881 19.5062C137.931 19.4571 137.998 19.4297 138.069 19.4297L144.21 19.4357C144.725 19.4365 145.234 19.5363 145.71 19.7295C146.185 19.9226 146.617 20.2053 146.98 20.5614C147.343 20.9175 147.631 21.3399 147.827 21.8046C148.023 22.2693 148.123 22.767 148.121 23.2694L148.109 29.017C148.106 30.0296 147.691 30.9995 146.955 31.7139C146.22 32.4282 145.224 32.8285 144.186 32.8269L138.045 32.8209C138.009 32.8209 137.974 32.8138 137.941 32.7999C137.908 32.7861 137.878 32.7658 137.853 32.7402C137.828 32.7147 137.808 32.6844 137.795 32.6512C137.782 32.6179 137.776 32.5824 137.776 32.5466L137.8 19.692ZM140.746 22.375L140.781 29.8279C140.782 29.8913 140.795 29.9539 140.82 30.0122C140.845 30.0705 140.882 30.1233 140.927 30.1676C140.972 30.2119 141.026 30.2468 141.085 30.2704C141.144 30.2939 141.207 30.3056 141.27 30.3048L143.745 30.2929C144.107 30.2898 144.454 30.1362 144.709 29.8658C144.964 29.5954 145.106 29.2301 145.104 28.8501L145.08 23.3052C145.079 23.116 145.043 22.9288 144.973 22.7544C144.903 22.58 144.801 22.4217 144.672 22.2888C144.544 22.1558 144.391 22.0508 144.224 21.9796C144.057 21.9085 143.878 21.8727 143.697 21.8742L141.223 21.8862C141.159 21.8869 141.097 21.9002 141.038 21.9252C140.98 21.9502 140.927 21.9864 140.883 22.0318C140.839 22.0772 140.804 22.1309 140.78 22.1898C140.757 22.2487 140.745 22.3116 140.746 22.375Z" fill="#1E1E1E"/>
<path d="M154.048 30.2854L159.557 30.2735C159.636 30.2735 159.712 30.3049 159.768 30.3608C159.824 30.4167 159.855 30.4925 159.855 30.5716V32.5153C159.855 32.5943 159.824 32.6702 159.768 32.7261C159.712 32.782 159.636 32.8134 159.557 32.8134L151.055 32.8015C150.976 32.8015 150.9 32.7701 150.844 32.7142C150.788 32.6583 150.757 32.5824 150.757 32.5034V19.7024C150.757 19.6233 150.788 19.5475 150.844 19.4916C150.9 19.4357 150.976 19.4043 151.055 19.4043L159.581 19.4162C159.623 19.416 159.664 19.4246 159.702 19.4414C159.741 19.4582 159.775 19.4829 159.803 19.5138C159.831 19.5447 159.852 19.5812 159.866 19.6209C159.879 19.6606 159.883 19.7026 159.879 19.7441L159.664 21.7117C159.657 21.7855 159.622 21.8539 159.567 21.9035C159.512 21.9531 159.44 21.9803 159.366 21.98L154.078 21.9561C153.999 21.9561 153.923 21.9875 153.867 22.0434C153.811 22.0993 153.78 22.1752 153.78 22.2543L153.756 24.2993C153.755 24.3395 153.762 24.3794 153.777 24.4166C153.792 24.4539 153.815 24.4877 153.843 24.5161C153.871 24.5445 153.905 24.5669 153.943 24.5819C153.98 24.5969 154.02 24.6042 154.06 24.6034L159.116 24.5974C159.158 24.5979 159.199 24.6073 159.237 24.6248C159.275 24.6424 159.309 24.6677 159.336 24.6992C159.364 24.7307 159.385 24.7676 159.397 24.8076C159.409 24.8476 159.413 24.8898 159.408 24.9313L159.17 26.8869C159.161 26.9596 159.126 27.0266 159.071 27.0749C159.016 27.1233 158.945 27.1498 158.871 27.1493L154.066 27.0896C153.988 27.0896 153.913 27.1202 153.857 27.1748C153.801 27.2295 153.769 27.3038 153.768 27.3818L153.75 29.9873C153.75 30.0664 153.781 30.1422 153.837 30.1981C153.893 30.254 153.969 30.2854 154.048 30.2854Z" fill="#1E1E1E"/>
<path d="M177.778 19.4102H175.131C175.009 19.4102 174.91 19.5089 174.91 19.6308V32.5808C174.91 32.7026 175.009 32.8014 175.131 32.8014H177.778C177.9 32.8014 177.999 32.7026 177.999 32.5808V19.6308C177.999 19.5089 177.9 19.4102 177.778 19.4102Z" fill="#1E1E1E"/>
<path d="M201.919 19.4102L204.507 19.4222C204.561 19.4222 204.612 19.4435 204.65 19.4816C204.688 19.5196 204.71 19.5711 204.71 19.6249V32.6107C204.71 32.6644 204.688 32.716 204.65 32.754C204.612 32.792 204.561 32.8134 204.507 32.8134L201.717 32.7955C201.681 32.7961 201.645 32.787 201.613 32.7692C201.582 32.7514 201.556 32.7255 201.538 32.6941L197.197 25.0923C197.176 25.0519 197.141 25.02 197.099 25.0017C197.057 24.9834 197.01 24.9798 196.966 24.9916C196.922 25.0033 196.883 25.0297 196.856 25.0664C196.828 25.103 196.814 25.1479 196.816 25.1936L196.828 32.6107C196.828 32.6644 196.806 32.716 196.768 32.754C196.73 32.792 196.679 32.8134 196.625 32.8134L194.002 32.7895C193.948 32.7895 193.896 32.7682 193.858 32.7302C193.82 32.6922 193.799 32.6406 193.799 32.5868L193.805 19.613C193.805 19.5592 193.826 19.5077 193.864 19.4696C193.902 19.4316 193.954 19.4102 194.007 19.4102L196.661 19.4043C196.696 19.4048 196.73 19.4143 196.761 19.4321C196.791 19.4499 196.816 19.4752 196.834 19.5056L201.353 27.0896C201.376 27.1274 201.411 27.1566 201.452 27.1727C201.494 27.1888 201.539 27.1909 201.582 27.1787C201.624 27.1666 201.662 27.1408 201.688 27.1053C201.715 27.0698 201.729 27.0266 201.729 26.9823L201.717 19.613C201.717 19.5592 201.738 19.5077 201.776 19.4696C201.814 19.4316 201.866 19.4102 201.919 19.4102Z" fill="#1E1E1E"/>
<path d="M13.8992 28.2419C15.1453 33.0117 12.0449 37.9067 7.85349 40.1366C7.82601 40.1512 7.79535 40.1586 7.76418 40.1583C7.73302 40.1579 7.70232 40.1497 7.6747 40.1344C7.64708 40.1191 7.62338 40.0972 7.6057 40.0706C7.58803 40.0439 7.57691 40.0134 7.57328 39.9816C7.09232 34.8819 8.85911 30.8474 12.8737 27.8782C13.3944 27.4926 13.7362 27.6139 13.8992 28.2419Z" fill="#1E1E1E"/>
<path d="M265.852 27.7148C270.037 29.9506 272.183 35.2093 271.563 39.8778C271.536 40.0964 271.424 40.154 271.23 40.0507C266.559 37.475 264.544 33.4803 265.184 28.0666C265.235 27.6214 265.458 27.5041 265.852 27.7148Z" fill="#1E1E1E"/>
<path d="M6.46417 41.6971C1.19354 39.6063 -0.642827 35.7528 0.955057 30.1363C1.01468 29.9177 1.15381 29.8461 1.37242 29.9217C4.78879 31.1499 6.82193 38.2867 7.04253 41.2738C7.07433 41.7229 6.88153 41.8641 6.46417 41.6971Z" fill="#1E1E1E"/>
<path d="M271.95 41.5409C272.529 37.6833 273.936 32.4962 277.597 29.8907C277.65 29.853 277.713 29.8288 277.778 29.82C277.843 29.8113 277.909 29.8184 277.971 29.8405C278.033 29.8627 278.089 29.8994 278.134 29.9476C278.178 29.9957 278.211 30.0539 278.229 30.1172C279.811 35.9563 277.835 39.8615 272.302 41.833C272.258 41.8481 272.211 41.8517 272.165 41.8434C272.119 41.8351 272.076 41.8152 272.04 41.7857C272.005 41.7562 271.978 41.7181 271.962 41.6751C271.946 41.6322 271.942 41.5859 271.95 41.5409Z" fill="#1E1E1E"/>
<path d="M140.538 46.5201L139.96 48.6128C139.948 48.6559 139.922 48.6938 139.887 48.7208C139.851 48.7477 139.808 48.7622 139.763 48.7619H136.77C136.738 48.7617 136.706 48.7539 136.678 48.7391C136.649 48.7243 136.625 48.7029 136.606 48.6767C136.587 48.6505 136.575 48.6202 136.57 48.5884C136.566 48.5565 136.569 48.524 136.579 48.4936L141.081 35.7582C141.094 35.7184 141.12 35.6838 141.154 35.6592C141.188 35.6346 141.229 35.6213 141.272 35.6211L144.39 35.6271C144.432 35.6273 144.473 35.6406 144.507 35.6652C144.541 35.6897 144.567 35.7244 144.581 35.7642L149.04 48.4936C149.051 48.524 149.054 48.5565 149.049 48.5884C149.045 48.6202 149.032 48.6505 149.014 48.6767C148.995 48.7029 148.971 48.7243 148.942 48.7391C148.913 48.7539 148.882 48.7617 148.85 48.7619H145.94C145.897 48.7613 145.856 48.7471 145.821 48.7214C145.787 48.6957 145.762 48.6598 145.749 48.6188L145.093 46.5201C145.081 46.4791 145.056 46.4432 145.021 46.4175C144.987 46.3918 144.945 46.3776 144.903 46.377L140.735 46.371C140.69 46.3708 140.647 46.3852 140.611 46.4122C140.576 46.4391 140.55 46.477 140.538 46.5201ZM141.283 43.7059C141.274 43.7368 141.272 43.7694 141.278 43.8012C141.283 43.8329 141.296 43.863 141.315 43.889C141.334 43.915 141.359 43.9362 141.388 43.951C141.416 43.9658 141.448 43.9737 141.48 43.9742L144.175 43.9623C144.207 43.9618 144.239 43.9538 144.268 43.939C144.296 43.9243 144.321 43.903 144.34 43.877C144.359 43.851 144.372 43.821 144.378 43.7892C144.383 43.7575 144.381 43.7249 144.372 43.694L143.013 39.1508C142.999 39.1081 142.972 39.0709 142.936 39.0447C142.899 39.0185 142.855 39.0048 142.811 39.0054C142.766 39.0061 142.722 39.0212 142.687 39.0484C142.651 39.0757 142.625 39.1136 142.613 39.1567L141.283 43.7059Z" fill="#1E1E1E"/>
<path d="M162.764 44.8388L164.165 36.2532C164.194 36.0777 164.285 35.9182 164.421 35.8034C164.558 35.6886 164.731 35.6261 164.911 35.6272L167.224 35.6331C167.474 35.6331 167.572 35.7543 167.516 35.9968L164.744 48.5056C164.708 48.6765 164.603 48.762 164.428 48.762L160.94 48.756C160.769 48.756 160.662 48.6726 160.618 48.5056L158.549 40.397C158.536 40.3527 158.509 40.3138 158.472 40.2862C158.434 40.2586 158.389 40.2436 158.343 40.2436C158.297 40.2436 158.252 40.2586 158.215 40.2862C158.178 40.3138 158.151 40.3527 158.138 40.397L156.092 48.44C156.07 48.5304 156.018 48.6106 155.944 48.6679C155.871 48.7251 155.78 48.7562 155.687 48.756L152.265 48.762C152.074 48.762 151.957 48.6686 151.913 48.4818L149.17 35.967C149.123 35.7404 149.216 35.6252 149.451 35.6212L152.086 35.6152C152.304 35.6152 152.432 35.7206 152.467 35.9312L153.976 45.0177C153.984 45.0505 154.002 45.0799 154.028 45.1013C154.054 45.1228 154.087 45.1351 154.12 45.1364C154.154 45.1378 154.187 45.1281 154.215 45.1088C154.243 45.0895 154.264 45.0617 154.274 45.0296L156.546 36.3009C156.601 36.0862 156.74 35.9789 156.963 35.9789H159.747C159.84 35.9785 159.93 36.0086 160.003 36.0648C160.076 36.1209 160.129 36.1997 160.153 36.289L162.395 44.8567C162.407 44.8974 162.432 44.9328 162.467 44.9573C162.502 44.9818 162.544 44.994 162.586 44.9919C162.629 44.9899 162.669 44.9737 162.702 44.946C162.734 44.9182 162.756 44.8805 162.764 44.8388Z" fill="#1E1E1E"/>
<path d="M175.917 46.3712L171.821 46.3832C171.777 46.3822 171.733 46.3955 171.696 46.4213C171.66 46.4471 171.633 46.4839 171.619 46.5263L170.957 48.619C170.943 48.6614 170.915 48.6982 170.879 48.724C170.843 48.7497 170.799 48.7631 170.754 48.7621H167.827C167.793 48.7622 167.76 48.7542 167.73 48.7388C167.7 48.7233 167.674 48.7009 167.655 48.6733C167.636 48.6458 167.623 48.614 167.619 48.5807C167.615 48.5474 167.618 48.5135 167.63 48.4819L172.131 35.7703C172.146 35.73 172.173 35.6952 172.208 35.6707C172.243 35.6462 172.285 35.6331 172.328 35.6332L175.434 35.6094C175.478 35.6097 175.521 35.6236 175.556 35.6493C175.591 35.6749 175.617 35.711 175.631 35.7525L180.115 48.4759C180.126 48.5075 180.13 48.5414 180.126 48.5747C180.121 48.6081 180.109 48.6399 180.09 48.6674C180.07 48.6949 180.045 48.7173 180.015 48.7328C179.985 48.7482 179.952 48.7563 179.918 48.7561L176.997 48.7621C176.952 48.7631 176.908 48.7497 176.872 48.724C176.835 48.6982 176.808 48.6614 176.794 48.619L176.12 46.5143C176.106 46.4719 176.079 46.4351 176.042 46.4094C176.006 46.3836 175.962 46.3702 175.917 46.3712ZM174.057 39.1152C174.044 39.0723 174.018 39.0347 173.982 39.008C173.946 38.9814 173.902 38.9669 173.857 38.9669C173.813 38.9669 173.769 38.9814 173.733 39.008C173.697 39.0347 173.671 39.0723 173.658 39.1152L172.346 43.7061C172.337 43.7375 172.335 43.7706 172.341 43.8028C172.346 43.835 172.36 43.8654 172.379 43.8916C172.399 43.9177 172.425 43.9388 172.454 43.9532C172.484 43.9676 172.516 43.9748 172.549 43.9744L175.232 43.9625C175.264 43.9629 175.297 43.9556 175.326 43.9412C175.356 43.9268 175.381 43.9058 175.401 43.8796C175.421 43.8535 175.434 43.8231 175.44 43.7909C175.446 43.7587 175.444 43.7256 175.434 43.6942L174.057 39.1152Z" fill="#1E1E1E"/>
<path d="M185.046 44.3621V48.4641C185.046 48.6589 184.946 48.7562 184.747 48.7562L182.363 48.7622C182.164 48.7622 182.064 48.6628 182.064 48.4641V35.9493C182.064 35.7506 182.164 35.6492 182.363 35.6453C184.147 35.5896 185.922 35.5896 187.687 35.6453C190.638 35.7406 191.848 36.4561 191.872 39.5207C191.888 41.3014 191.28 42.5157 190.048 43.1636C189.861 43.263 189.817 43.4041 189.917 43.587L192.439 48.3747C192.574 48.633 192.494 48.7622 192.2 48.7622H189.505C189.291 48.7622 189.138 48.6628 189.046 48.4641L186.989 43.9387C186.892 43.7289 186.725 43.5586 186.518 43.4558C186.31 43.353 186.074 43.3238 185.848 43.3731C185.622 43.4224 185.419 43.5471 185.273 43.7268C185.128 43.9066 185.047 44.1306 185.046 44.3621ZM185.016 38.3521V40.9159C185.017 40.9987 185.051 41.0775 185.11 41.1355C185.17 41.1935 185.249 41.2259 185.332 41.2259H187.764C187.918 41.2259 188.069 41.1993 188.211 41.1476C188.352 41.096 188.481 41.0203 188.589 40.925C188.697 40.8297 188.782 40.7166 188.84 40.5923C188.898 40.4679 188.928 40.3348 188.927 40.2004V39.0437C188.925 38.7743 188.802 38.5164 188.584 38.3265C188.366 38.1366 188.072 38.03 187.764 38.0302H185.332C185.29 38.0301 185.248 38.0385 185.209 38.0548C185.171 38.071 185.136 38.0948 185.106 38.1248C185.077 38.1548 185.054 38.1903 185.038 38.2294C185.023 38.2684 185.015 38.3101 185.016 38.3521Z" fill="#1E1E1E"/>
<path d="M194.806 35.818C194.806 35.7953 194.81 35.7728 194.819 35.7518C194.828 35.7309 194.84 35.7118 194.856 35.6957C194.872 35.6797 194.891 35.667 194.912 35.6583C194.933 35.6496 194.956 35.6451 194.979 35.6451L201.173 35.6153C201.677 35.6122 202.175 35.7099 202.641 35.9027C203.107 36.0956 203.531 36.3798 203.889 36.7392C204.247 37.0986 204.531 37.5261 204.726 37.9972C204.921 38.4683 205.023 38.9738 205.025 39.4848L205.049 44.8389C205.054 45.8689 204.656 46.8587 203.943 47.5909C203.229 48.3232 202.259 48.7379 201.245 48.7442L195.05 48.774C195.004 48.774 194.96 48.7558 194.928 48.7233C194.895 48.6909 194.877 48.6469 194.877 48.6011L194.806 35.818ZM202.014 45.0535L201.954 38.7574C201.953 38.6101 201.896 38.4688 201.794 38.3624C201.692 38.2561 201.553 38.1926 201.406 38.185L198.246 37.9942C197.96 37.9783 197.817 38.1135 197.817 38.3997L197.834 46.0731C197.838 46.2837 197.946 46.3871 198.156 46.3831L200.768 46.3354C201.102 46.3292 201.419 46.1912 201.653 45.9513C201.886 45.7114 202.016 45.3889 202.014 45.0535Z" fill="#1E1E1E"/>
<path d="M14.0895 38.5431C15.6635 43.1221 12.6168 48.1304 9.22428 50.9327C9.18843 50.9632 9.14528 50.9837 9.09898 50.9922C9.05269 51.0008 9.0048 50.9971 8.9599 50.9815C8.915 50.966 8.87462 50.939 8.84261 50.9033C8.8106 50.8676 8.78804 50.8243 8.77711 50.7776C7.61646 45.4752 9.21831 41.3414 13.5827 38.3761C13.6252 38.3466 13.6739 38.3273 13.7252 38.3199C13.7764 38.3124 13.8286 38.317 13.8777 38.3332C13.9269 38.3494 13.9716 38.3767 14.0083 38.4132C14.0451 38.4496 14.0729 38.4941 14.0895 38.5431Z" fill="#1E1E1E"/>
<path d="M269.984 50.975C266.555 48.0952 263.479 43.1346 265.083 38.5437C265.099 38.4956 265.127 38.452 265.163 38.4163C265.2 38.3805 265.244 38.3536 265.292 38.3374C265.34 38.3213 265.392 38.3165 265.442 38.3233C265.493 38.3301 265.541 38.3484 265.583 38.3768C269.987 41.3539 271.574 45.5136 270.341 50.8558C270.333 50.8927 270.315 50.9269 270.29 50.9549C270.264 50.983 270.232 51.004 270.196 51.016C270.16 51.028 270.122 51.0305 270.084 51.0233C270.047 51.0161 270.012 50.9995 269.984 50.975Z" fill="#1E1E1E"/>
<path d="M1.64036 40.8921C5.94511 43.4976 7.85303 47.9395 8.75929 52.7033C8.80302 52.918 8.71756 52.9995 8.50292 52.9478C3.18459 51.6659 -0.0767723 46.437 1.223 41.065C1.23348 41.0223 1.25385 40.9827 1.2825 40.9493C1.31115 40.9159 1.34725 40.8897 1.38788 40.8729C1.42852 40.8561 1.47256 40.849 1.51642 40.8524C1.56027 40.8557 1.60274 40.8693 1.64036 40.8921Z" fill="#1E1E1E"/>
<path d="M271.164 52.8523C270.608 53.063 270.385 52.8762 270.497 52.2919C271.367 47.6235 273.4 43.5095 277.472 40.8921C277.531 40.8541 277.599 40.8317 277.668 40.8271C277.738 40.8224 277.808 40.8356 277.871 40.8655C277.935 40.8953 277.989 40.9408 278.03 40.9976C278.071 41.0544 278.096 41.1207 278.104 41.1902C278.8 46.9497 276.487 50.8371 271.164 52.8523Z" fill="#1E1E1E"/>
<path d="M15.6161 58.9385C15.0835 60.1747 14.4653 61.2479 13.7618 62.1581C13.6028 62.3648 13.4577 62.3549 13.3266 62.1283C11.0609 58.1455 10.9834 52.7914 13.5353 48.7907C14.0441 47.9878 14.5628 47.9838 15.0914 48.7788C17.0749 51.756 17.2497 55.1425 15.6161 58.9385Z" fill="#1E1E1E"/>
<path d="M263.902 48.7034C264.149 48.1668 264.514 48.0655 264.999 48.3994C268.869 51.0705 267.557 58.8035 265.84 62.2735C265.828 62.2975 265.81 62.3181 265.788 62.3334C265.766 62.3487 265.74 62.3583 265.714 62.3612C265.687 62.3642 265.66 62.3605 265.635 62.3504C265.611 62.3402 265.589 62.3241 265.572 62.3033C262.185 58.1457 261.629 53.6124 263.902 48.7034Z" fill="#1E1E1E"/>
<path d="M149.153 59.9123L150.5 51.917C150.508 51.8701 150.531 51.8274 150.568 51.7967C150.604 51.766 150.65 51.7495 150.697 51.75L153.255 51.756C153.284 51.7562 153.313 51.7629 153.339 51.7757C153.366 51.7885 153.389 51.807 153.407 51.8298C153.425 51.8526 153.438 51.8793 153.445 51.9078C153.452 51.9363 153.452 51.9659 153.446 51.9945L150.9 63.5314C150.89 63.5761 150.865 63.616 150.829 63.6443C150.793 63.6726 150.749 63.6875 150.703 63.6864L147.412 63.6745C147.368 63.6745 147.325 63.6598 147.291 63.6328C147.256 63.6058 147.232 63.568 147.221 63.5255L145.325 56.1144C145.314 56.0719 145.29 56.0342 145.255 56.0073C145.221 55.9803 145.178 55.9657 145.134 55.9657C145.091 55.9657 145.048 55.9803 145.013 56.0073C144.979 56.0342 144.954 56.0719 144.944 56.1144L143.042 63.5314C143.031 63.574 143.006 63.6118 142.972 63.6388C142.937 63.6658 142.895 63.6804 142.851 63.6805L139.542 63.6626C139.497 63.6622 139.454 63.6467 139.419 63.6185C139.384 63.5904 139.36 63.5512 139.351 63.5076L136.817 51.9885C136.811 51.9599 136.811 51.9303 136.818 51.9018C136.824 51.8733 136.837 51.8467 136.856 51.8238C136.874 51.801 136.897 51.7825 136.923 51.7697C136.95 51.757 136.979 51.7502 137.008 51.75L139.613 51.756C139.661 51.7554 139.707 51.772 139.743 51.8027C139.779 51.8334 139.803 51.876 139.81 51.9229L141.146 59.9243C141.154 59.9674 141.177 60.0064 141.21 60.0351C141.243 60.0638 141.285 60.0805 141.329 60.0826C141.373 60.0846 141.417 60.0719 141.452 60.0465C141.488 60.021 141.515 59.9843 141.527 59.9421L143.554 52.2031C143.565 52.1615 143.588 52.1245 143.622 52.0976C143.655 52.0707 143.696 52.0554 143.739 52.0541L146.518 52.0422C146.561 52.0422 146.604 52.0569 146.639 52.0839C146.673 52.1109 146.698 52.1487 146.708 52.1912L148.771 59.9302C148.784 59.9724 148.81 60.0091 148.846 60.0345C148.882 60.06 148.925 60.0727 148.969 60.0706C149.013 60.0686 149.055 60.0519 149.088 60.0232C149.122 59.9945 149.144 59.9555 149.153 59.9123Z" fill="#1E1E1E"/>
<path d="M157.923 51.7617H155.693C155.539 51.7617 155.413 51.8872 155.413 52.0419V63.3941C155.413 63.5488 155.539 63.6743 155.693 63.6743H157.923C158.078 63.6743 158.203 63.5488 158.203 63.3941V52.0419C158.203 51.8872 158.078 51.7617 157.923 51.7617Z" fill="#1E1E1E"/>
<path d="M167.761 58.4557L167.755 51.9389C167.755 51.8883 167.775 51.8398 167.811 51.804C167.847 51.7683 167.895 51.7482 167.946 51.7482L170.247 51.7601C170.298 51.7601 170.347 51.7802 170.382 51.816C170.418 51.8517 170.438 51.9003 170.438 51.9509V63.4699C170.438 63.5205 170.418 63.5691 170.382 63.6048C170.347 63.6406 170.298 63.6607 170.247 63.6607L167.755 63.6786C167.721 63.6789 167.688 63.6702 167.659 63.6535C167.63 63.6367 167.605 63.6125 167.588 63.5832L163.659 56.6908C163.639 56.6536 163.606 56.6243 163.567 56.6076C163.528 56.591 163.484 56.5879 163.443 56.5988C163.402 56.6098 163.366 56.6342 163.34 56.6682C163.314 56.7021 163.301 56.7437 163.301 56.7862V63.4819C163.301 63.5325 163.281 63.581 163.246 63.6168C163.21 63.6525 163.161 63.6727 163.111 63.6727L160.809 63.6667C160.759 63.6667 160.71 63.6466 160.674 63.6108C160.638 63.575 160.618 63.5265 160.618 63.4759L160.624 51.933C160.624 51.8824 160.644 51.8338 160.68 51.7981C160.716 51.7623 160.765 51.7422 160.815 51.7422L163.254 51.7601C163.286 51.7608 163.318 51.77 163.347 51.7867C163.375 51.8034 163.398 51.8271 163.415 51.8555L167.403 58.5511C167.424 58.5883 167.457 58.6176 167.496 58.6343C167.535 58.651 167.578 58.6541 167.62 58.6431C167.661 58.6321 167.697 58.6077 167.723 58.5738C167.748 58.5398 167.762 58.4982 167.761 58.4557Z" fill="#1E1E1E"/>
<path d="M175.446 63.6745L173.151 63.6864C173.102 63.6864 173.055 63.667 173.02 63.6323C172.985 63.5976 172.966 63.5506 172.966 63.5016V51.9408C172.966 51.8918 172.985 51.8448 173.02 51.8101C173.055 51.7754 173.102 51.7559 173.151 51.7559H175.547C175.58 51.7555 175.612 51.7635 175.64 51.7792C175.668 51.7949 175.692 51.8177 175.708 51.8454L179.691 58.5052C179.712 58.5412 179.743 58.5693 179.781 58.5852C179.819 58.601 179.862 58.6037 179.901 58.5927C179.941 58.5817 179.976 58.5578 180.001 58.5246C180.025 58.4915 180.038 58.4511 180.037 58.4098L179.971 51.9527C179.971 51.9037 179.991 51.8567 180.026 51.822C180.06 51.7874 180.107 51.7679 180.156 51.7679L182.476 51.75C182.525 51.75 182.572 51.7695 182.606 51.8041C182.641 51.8388 182.66 51.8858 182.66 51.9348V63.4897C182.66 63.5387 182.641 63.5857 182.606 63.6204C182.572 63.655 182.525 63.6745 182.476 63.6745L180.049 63.6685C180.016 63.6684 179.984 63.6595 179.956 63.6427C179.927 63.6259 179.904 63.6019 179.888 63.5731L175.917 56.6689C175.897 56.6329 175.865 56.6048 175.827 56.5889C175.789 56.5731 175.747 56.5704 175.707 56.5814C175.667 56.5924 175.632 56.6163 175.608 56.6495C175.583 56.6826 175.57 56.723 175.571 56.7643L175.631 63.4897C175.631 63.5387 175.611 63.5857 175.577 63.6204C175.542 63.655 175.495 63.6745 175.446 63.6745Z" fill="#1E1E1E"/>
<path d="M188.009 54.2243L187.986 56.0845C187.985 56.121 187.991 56.1573 188.005 56.1913C188.018 56.2252 188.038 56.2562 188.064 56.2823C188.089 56.3084 188.12 56.3291 188.154 56.3433C188.187 56.3574 188.223 56.3647 188.26 56.3647L192.827 56.3528C192.867 56.353 192.906 56.362 192.942 56.379C192.978 56.3961 193.01 56.4208 193.036 56.4515C193.061 56.4821 193.08 56.518 193.09 56.5565C193.1 56.5951 193.102 56.6354 193.095 56.6747L192.797 58.368C192.786 58.4322 192.752 58.4903 192.702 58.5318C192.651 58.5733 192.588 58.5956 192.523 58.5946L188.272 58.5827C188.236 58.5827 188.2 58.5897 188.167 58.6035C188.134 58.6173 188.103 58.6375 188.078 58.663C188.052 58.6885 188.032 58.7187 188.018 58.752C188.005 58.7852 187.997 58.8209 187.997 58.8569L188.009 61.1524C188.009 61.2251 188.038 61.2949 188.09 61.3463C188.141 61.3977 188.211 61.4266 188.284 61.4266L193.203 61.4147C193.24 61.4147 193.276 61.4222 193.31 61.4367C193.344 61.4512 193.375 61.4725 193.401 61.4992C193.426 61.526 193.446 61.5576 193.459 61.5923C193.472 61.627 193.478 61.6639 193.477 61.7009L193.423 63.4121C193.42 63.4827 193.39 63.5495 193.339 63.5983C193.288 63.6472 193.22 63.6745 193.149 63.6744L185.595 63.6685C185.522 63.6685 185.452 63.6396 185.401 63.5881C185.349 63.5367 185.32 63.4669 185.32 63.3942L185.314 52.0301C185.314 51.9574 185.343 51.8876 185.395 51.8362C185.446 51.7848 185.516 51.7559 185.589 51.7559H193.203C193.242 51.7555 193.281 51.7636 193.316 51.7796C193.352 51.7956 193.384 51.819 193.41 51.8484C193.436 51.8778 193.456 51.9124 193.467 51.9499C193.479 51.9875 193.482 52.027 193.477 52.0659L193.238 53.7532C193.23 53.8196 193.197 53.8805 193.146 53.9244C193.096 53.9684 193.031 53.9923 192.964 53.9917L188.29 53.95C188.253 53.9492 188.217 53.9557 188.183 53.9691C188.149 53.9826 188.118 54.0026 188.092 54.0282C188.066 54.0537 188.045 54.0842 188.031 54.1179C188.017 54.1516 188.009 54.1877 188.009 54.2243Z" fill="#1E1E1E"/>
<path d="M198.46 59.5068V63.3823C198.46 63.585 198.356 63.6863 198.15 63.6863L196.069 63.6684C195.866 63.6684 195.765 63.5671 195.765 63.3644V52.0599C195.765 51.893 195.848 51.8055 196.015 51.7976C198.758 51.6903 203.462 51.1835 204.356 53.312C205.137 55.1663 204.958 57.4617 202.997 58.6065C202.85 58.69 202.816 58.8072 202.895 58.9583L205.215 63.3465C205.326 63.5611 205.261 63.6684 205.018 63.6684L202.609 63.6804C202.383 63.6804 202.222 63.579 202.126 63.3763L200.159 59.1312C200.075 58.9445 199.93 58.7923 199.747 58.7004C199.565 58.6084 199.356 58.5823 199.156 58.6264C198.956 58.6706 198.778 58.7823 198.651 58.9427C198.524 59.103 198.457 59.3023 198.46 59.5068ZM198.454 54.2898L198.43 56.472C198.43 56.5643 198.466 56.6529 198.531 56.7187C198.595 56.7845 198.683 56.8222 198.776 56.8238L200.892 56.8476C201.038 56.8493 201.183 56.8246 201.318 56.7748C201.453 56.7251 201.576 56.6513 201.68 56.5578C201.784 56.4642 201.867 56.3526 201.924 56.2295C201.982 56.1063 202.012 55.974 202.013 55.84L202.025 54.9934C202.028 54.7231 201.914 54.4626 201.708 54.2692C201.503 54.0758 201.222 53.9653 200.928 53.9619L198.811 53.938C198.765 53.9373 198.718 53.9458 198.675 53.9631C198.632 53.9804 198.592 54.0062 198.559 54.039C198.525 54.0717 198.499 54.1107 198.481 54.1538C198.463 54.1969 198.454 54.2431 198.454 54.2898Z" fill="#1E1E1E"/>
<path d="M13.7854 64.9199C6.96462 64.9139 1.62839 60.6449 1.55088 53.5618C1.54691 53.3233 1.66219 53.2279 1.8967 53.2756C7.11963 54.3011 11.651 60.1799 13.9464 64.6635C13.9595 64.6908 13.9655 64.7209 13.9638 64.7511C13.9621 64.7812 13.9528 64.8105 13.9367 64.8361C13.9206 64.8617 13.8983 64.8828 13.8719 64.8975C13.8454 64.9121 13.8157 64.9198 13.7854 64.9199Z" fill="#1E1E1E"/>
<path d="M265.363 64.6156C267.324 60.3407 272.339 53.979 277.269 53.2873C277.448 53.2635 277.542 53.343 277.55 53.5258C277.806 60.4838 272.118 64.9376 265.512 64.8481C265.341 64.8481 265.291 64.7706 265.363 64.6156Z" fill="#1E1E1E"/>
<path d="M20.4635 73.7197C16.4867 69.5998 15.7235 62.9758 18.6391 58.3848C19.0962 57.6654 19.5274 57.6793 19.9329 58.4265C22.592 63.3116 22.8862 68.3855 20.8153 73.6482C20.7358 73.8588 20.6185 73.8827 20.4635 73.7197Z" fill="#1E1E1E"/>
<path d="M258.352 73.668C256.587 69.2679 256.205 61.976 259.592 58.1483C260.021 57.6633 260.375 57.713 260.653 58.2973C263.36 63.9098 262.728 69.0552 258.757 73.7336C258.586 73.9323 258.451 73.9105 258.352 73.668Z" fill="#1E1E1E"/>
<path d="M142.786 84.1237L152.2 84.1297C152.339 84.1297 152.409 84.1993 152.409 84.3384L152.427 87.9396C152.428 87.98 152.42 88.0202 152.405 88.0578C152.39 88.0954 152.368 88.1296 152.34 88.1585C152.312 88.1873 152.278 88.2103 152.24 88.2259C152.203 88.2416 152.163 88.2496 152.123 88.2496L137.795 88.2437C137.581 88.2437 137.465 88.1363 137.45 87.9217C137.169 84.1416 136.841 79.2526 140.389 77.291C142.194 76.2973 144.022 75.3552 145.874 74.4649C147.198 73.8289 147.673 72.871 147.299 71.5911C146.667 69.4149 140.914 70.6729 138.916 71.0783C138.706 71.122 138.562 71.0445 138.487 70.8458L137.318 67.7335C137.251 67.5507 137.31 67.4334 137.497 67.3817C141.063 66.3801 150.507 64.6212 151.991 69.5937C152.623 71.7163 152.453 73.6063 151.479 75.2638C149.392 78.8114 141.701 79.0618 142.422 83.8137C142.454 84.0204 142.575 84.1237 142.786 84.1237Z" fill="#1E1E1E"/>
<path d="M172.212 82.2246C172.213 83.0342 172.055 83.8362 171.747 84.5847C171.438 85.3332 170.985 86.0136 170.414 86.5871C169.842 87.1606 169.164 87.6158 168.416 87.927C167.669 88.2381 166.867 88.399 166.058 88.4004L161.825 88.4078C161.015 88.4092 160.213 88.2511 159.465 87.9426C158.716 87.6341 158.036 87.1812 157.462 86.6097C156.889 86.0382 156.433 85.3594 156.122 84.612C155.811 83.8645 155.65 83.0631 155.649 82.2535L155.632 72.5113C155.63 71.7017 155.789 70.8997 156.097 70.1512C156.406 69.4027 156.858 68.7223 157.43 68.1488C158.001 67.5754 158.68 67.1201 159.428 66.8089C160.175 66.4978 160.976 66.3369 161.786 66.3355L166.019 66.3281C166.829 66.3267 167.631 66.4848 168.379 66.7933C169.128 67.1018 169.808 67.5547 170.382 68.1262C170.955 68.6977 171.41 69.3765 171.722 70.124C172.033 70.8714 172.194 71.6728 172.195 72.4824L172.212 82.2246ZM167.255 72.5326C167.255 71.9285 167.015 71.3492 166.588 70.9221C166.161 70.4949 165.581 70.255 164.977 70.255H162.867C162.263 70.255 161.683 70.4949 161.256 70.9221C160.829 71.3492 160.589 71.9285 160.589 72.5326V82.251C160.589 82.8551 160.829 83.4344 161.256 83.8615C161.683 84.2887 162.263 84.5286 162.867 84.5286H164.977C165.581 84.5286 166.161 84.2887 166.588 83.8615C167.015 83.4344 167.255 82.8551 167.255 82.251V72.5326Z" fill="#1E1E1E"/>
<path d="M181.289 84.1183H190.465C190.684 84.1183 190.793 84.2257 190.793 84.4403L190.787 87.9044C190.787 88.1349 190.672 88.2502 190.441 88.2502L176.257 88.2442C176.062 88.2442 175.959 88.1468 175.947 87.9521C175.87 86.1753 175.929 84.6013 175.911 82.6158C175.864 77.6612 180.3 76.5344 184.229 74.3522C185.731 73.5175 186.244 72.2892 185.338 70.8106C185.279 70.7131 185.197 70.6312 185.101 70.5721C185.004 70.5129 184.895 70.4781 184.783 70.4707C182.271 70.3078 179.793 70.5204 177.348 71.1087C177.114 71.1644 176.957 71.0789 176.877 70.8523L175.786 67.7221C175.73 67.5671 175.784 67.4638 175.947 67.4121C179.364 66.3806 187.216 65.224 189.47 67.9547C191.008 69.8209 191.044 73.0345 190.024 75.0557C188.086 78.8835 180.019 78.9729 180.944 83.8381C180.979 84.0249 181.095 84.1183 181.289 84.1183Z" fill="#1E1E1E"/>
<path d="M7.13815 66.5661C11.8424 66.9059 17.7688 71.9798 20.8156 75.3783C20.9785 75.5611 20.9388 75.6605 20.6963 75.6764C14.5075 76.1355 6.64329 74.949 6.81023 66.8702C6.81421 66.6515 6.92351 66.5502 7.13815 66.5661Z" fill="#1E1E1E"/>
<path d="M199.092 72.0755L195.956 74.1385C195.737 74.2855 195.549 74.2518 195.39 74.0371L193.595 71.5568C193.468 71.3819 193.494 71.2329 193.672 71.1097C195.497 69.8735 197.301 68.6194 199.086 67.3475C200.702 66.1968 202.204 66.4173 204.047 66.5306C204.297 66.5465 204.422 66.6777 204.422 66.9241V87.959C204.422 88.1537 204.325 88.2511 204.13 88.2511L199.951 88.2452C199.661 88.2452 199.515 88.1021 199.515 87.8159L199.527 72.3081C199.527 72.2575 199.513 72.2078 199.487 72.1645C199.461 72.1211 199.424 72.0857 199.379 72.0618C199.335 72.038 199.284 72.0266 199.234 72.0291C199.183 72.0315 199.134 72.0475 199.092 72.0755Z" fill="#1E1E1E"/>
<path d="M258.358 75.2918C261.631 71.8218 267.212 66.9983 272.071 66.5571C272.294 66.5372 272.403 66.6406 272.399 66.8671C272.244 75.0414 264.952 76.0609 258.513 75.6913C258.179 75.6714 258.127 75.5382 258.358 75.2918Z" fill="#1E1E1E"/>
<path d="M25.4072 67.0782C29.4794 70.9655 30.809 77.3869 29.4078 82.6694C29.3403 82.9238 29.2031 82.9695 28.9965 82.8066C24.4353 79.1636 22.1875 72.5694 24.954 67.1557C25.0693 66.9251 25.2203 66.8993 25.4072 67.0782Z" fill="#1E1E1E"/>
<path d="M249.771 82.6994C248.299 77.2082 249.742 71.1267 253.766 67.0425C253.796 67.0124 253.833 66.9898 253.874 66.9765C253.915 66.9632 253.958 66.9596 254 66.966C254.042 66.9723 254.083 66.9885 254.118 67.0132C254.153 67.0379 254.181 67.0704 254.201 67.1081C257.051 72.5874 254.66 79.0982 250.207 82.8365C250.173 82.8658 250.132 82.8859 250.087 82.8948C250.043 82.9037 249.997 82.9013 249.954 82.8876C249.911 82.874 249.871 82.8496 249.839 82.8167C249.808 82.7838 249.784 82.7435 249.771 82.6994Z" fill="#1E1E1E"/>
<path d="M33.1453 76.7773C37.9569 78.9476 39.6561 84.6236 39.2805 89.5127C39.2646 89.7353 39.1533 89.7989 38.9466 89.7035C34.3438 87.5273 30.7187 82.0897 32.7399 76.9442C32.7551 76.9057 32.7779 76.8705 32.8069 76.841C32.8358 76.8114 32.8704 76.7882 32.9083 76.7725C32.9463 76.7569 32.9869 76.7492 33.0277 76.7501C33.0685 76.7509 33.1085 76.7601 33.1453 76.7773Z" fill="#1E1E1E"/>
<path d="M245.77 76.8551C246.12 76.6762 246.361 76.7716 246.492 77.1413C248.328 82.2926 244.769 87.5037 240.232 89.7514C240.195 89.7702 240.154 89.7796 240.113 89.7789C240.072 89.7781 240.031 89.7673 239.996 89.7472C239.96 89.7272 239.929 89.6986 239.907 89.664C239.885 89.6293 239.871 89.5897 239.868 89.5487C239.498 84.6716 241.132 79.2936 245.77 76.8551Z" fill="#1E1E1E"/>
<path d="M29.2521 83.5097C29.4549 83.6727 29.5979 83.8018 29.6814 83.8972C29.7364 83.9634 29.7749 84.0417 29.7937 84.1256C29.8125 84.2096 29.8111 84.2968 29.7895 84.3801C29.768 84.4633 29.7269 84.5403 29.6698 84.6046C29.6126 84.6689 29.541 84.7187 29.4608 84.7498C22.636 87.405 17.3356 85.7277 13.5595 79.7177C13.5215 79.657 13.4993 79.5876 13.4949 79.5162C13.4906 79.4447 13.5042 79.3735 13.5346 79.3091C13.565 79.2448 13.6111 79.1894 13.6687 79.1483C13.7262 79.1071 13.7933 79.0815 13.8636 79.0738C19.6072 78.406 24.7367 79.8846 29.2521 83.5097Z" fill="#1E1E1E"/>
<path d="M251.351 85.3291C250.64 85.1423 250 84.8482 249.432 84.4467C249.237 84.3076 249.229 84.1605 249.408 84.0055C253.42 80.5593 260.08 77.769 265.434 79.2357C265.657 79.2953 265.711 79.4245 265.595 79.6233C262.431 85.1006 257.683 87.0025 251.351 85.3291Z" fill="#1E1E1E"/>
<path d="M49.8461 94.6537C44.7961 93.1929 40.4973 89.2101 40.9862 83.6533C41.0021 83.4347 41.1214 83.3373 41.344 83.3612C46.5669 83.9872 49.7925 89.6454 50.1741 94.3854C50.1939 94.6358 50.0846 94.7252 49.8461 94.6537Z" fill="#1E1E1E"/>
<path d="M228.958 94.3898C229.447 89.1251 232.428 84.6594 237.681 83.3239C237.744 83.3078 237.811 83.3063 237.875 83.3192C237.94 83.3322 238 83.3594 238.053 83.3988C238.106 83.4382 238.149 83.4889 238.179 83.5471C238.21 83.6053 238.227 83.6696 238.229 83.7353C238.378 89.3159 234.485 93.3166 229.22 94.6164C229.029 94.6641 228.942 94.5886 228.958 94.3898Z" fill="#1E1E1E"/>
<path d="M63.237 97.6305C57.9902 97.231 52.5765 94.7567 52.0279 88.8541C52.0041 88.6355 52.1015 88.544 52.3201 88.5798C56.9349 89.3489 62.6646 92.4135 63.5231 97.3145C63.5629 97.5411 63.4675 97.6464 63.237 97.6305Z" fill="#1E1E1E"/>
<path d="M215.632 96.7636C217.88 91.9819 221.606 89.5075 226.734 88.5297C226.92 88.4939 227.014 88.5714 227.014 88.7622C227.103 94.4621 220.837 97.4373 216.127 97.5267C215.55 97.5387 215.386 97.2843 215.632 96.7636Z" fill="#1E1E1E"/>
<path d="M40.6583 91.0713C40.7102 91.0924 40.7554 91.127 40.7891 91.1717C40.8229 91.2163 40.8439 91.2692 40.85 91.3248C40.8562 91.3805 40.8471 91.4367 40.8238 91.4876C40.8006 91.5385 40.764 91.5821 40.7179 91.6139C35.5188 95.2867 28.2866 94.1479 23.7493 90.0578C23.5864 89.9107 23.6003 89.7815 23.7911 89.6702C28.06 87.1482 36.0197 89.1276 40.6583 91.0713Z" fill="#1E1E1E"/>
<path d="M238.432 91.1318C242.981 89.1046 250.583 87.2265 255.376 89.6412C255.611 89.7604 255.629 89.9035 255.43 90.0705C250.215 94.4627 244.543 95.0132 238.414 91.722C238.359 91.6935 238.314 91.6502 238.282 91.597C238.251 91.5438 238.236 91.4829 238.237 91.4213C238.239 91.3597 238.259 91.2998 238.293 91.2486C238.327 91.1974 238.375 91.1569 238.432 91.1318Z" fill="#1E1E1E"/>
<path d="M51.8368 96.1076C46.6616 100.687 38.7497 101.819 32.847 97.3955C32.6682 97.2603 32.6682 97.1252 32.847 96.99C37.3664 93.6154 46.6854 94.4382 51.7593 95.7797C51.9859 95.8393 52.0117 95.9486 51.8368 96.1076Z" fill="#1E1E1E"/>
<path d="M227.437 95.7748C232.314 94.493 242.259 93.5629 246.349 97.0448C246.384 97.0747 246.412 97.1124 246.43 97.1549C246.447 97.1974 246.455 97.2435 246.451 97.2894C246.448 97.3353 246.434 97.3798 246.41 97.4191C246.386 97.4585 246.353 97.4916 246.314 97.5158C239.644 101.479 233.32 101.045 227.342 96.216C227.305 96.1871 227.276 96.1482 227.26 96.1039C227.244 96.0595 227.241 96.0115 227.251 95.9654C227.261 95.9193 227.284 95.877 227.316 95.8433C227.349 95.8096 227.391 95.7858 227.437 95.7748Z" fill="#1E1E1E"/>
<path d="M48.3013 101.339C48.0191 101.228 47.7806 101.107 47.5859 100.975C47.5416 100.945 47.5054 100.904 47.4804 100.856C47.4555 100.808 47.4424 100.755 47.4424 100.701C47.4424 100.647 47.4555 100.594 47.4804 100.546C47.5054 100.499 47.5416 100.458 47.5859 100.427C51.7952 97.559 58.4729 97.887 63.3083 98.4534C63.3499 98.4578 63.3902 98.4705 63.4269 98.4906C63.4636 98.5108 63.4959 98.538 63.5219 98.5707C63.548 98.6034 63.5673 98.641 63.5787 98.6812C63.5902 98.7215 63.5935 98.7636 63.5885 98.8051C63.3023 101.244 60.0947 102.579 58.0019 102.758C54.6829 103.044 51.4494 102.571 48.3013 101.339Z" fill="#1E1E1E"/>
<path d="M231.497 101.039C228.754 102.136 225.993 102.766 223.215 102.929C220.776 103.072 215.667 101.808 215.625 98.7552C215.621 98.5604 215.717 98.4511 215.911 98.4273C220.043 97.9384 228.319 97.4912 231.592 100.532C231.826 100.751 231.795 100.919 231.497 101.039Z" fill="#1E1E1E"/>
</svg>
