<svg width="279" height="103" viewBox="0 0 279 103" fill="none" xmlns="http://www.w3.org/2000/svg">
<path d="M13.8205 1.11439C13.6596 7.54766 12.0378 17.4569 7.64365 22.4891C7.4926 22.66 7.38131 22.6381 7.30976 22.4235C4.56713 14.2075 7.67346 6.55197 13.5761 1.00707C13.5965 0.98658 13.6225 0.972737 13.6509 0.967353C13.6793 0.961969 13.7087 0.965292 13.7351 0.976906C13.7616 0.988519 13.7839 1.00788 13.7991 1.03242C13.8144 1.05696 13.8218 1.08553 13.8205 1.11439Z" fill="#1E1E1E"/>
<path d="M266.007 1.13394C271.659 7.21543 274.777 14.0959 272.082 22.4251C272.003 22.6716 271.876 22.6994 271.701 22.5086C267.33 17.6434 265.649 7.48374 265.518 1.3307C265.51 0.837822 265.673 0.772227 266.007 1.13394Z" fill="#1E1E1E"/>
<path d="M6.5701 32.4533C1.68105 28.6911 1.2935 22.6335 2.99275 17.1721C3.00598 17.1255 3.03201 17.0837 3.06797 17.0513C3.10393 17.0189 3.14843 16.9972 3.19653 16.9886C3.24464 16.9799 3.29449 16.9847 3.3406 17.0024C3.3867 17.02 3.42726 17.0498 3.4578 17.0886C6.92187 21.5603 7.36904 26.8488 6.98745 32.2625C6.98383 32.3092 6.96779 32.3541 6.94097 32.3925C6.91416 32.4308 6.87755 32.4614 6.83497 32.4808C6.79238 32.5003 6.74536 32.508 6.69878 32.5032C6.65221 32.4983 6.60777 32.4811 6.5701 32.4533Z" fill="#1E1E1E"/>
<path d="M7.48861 29.5681C7.64363 24.5419 10.0524 19.7125 14.369 17.0474C14.4172 17.0178 14.472 17.001 14.5284 16.9984C14.5848 16.9958 14.641 17.0076 14.6916 17.0326C14.7422 17.0576 14.7857 17.0951 14.8179 17.1414C14.8501 17.1878 14.8701 17.2416 14.8758 17.2978C15.4005 22.1809 11.7814 27.2667 7.88808 29.7947C7.84746 29.8198 7.80073 29.8336 7.75296 29.8347C7.70519 29.8357 7.6582 29.8239 7.61706 29.8006C7.57592 29.7773 7.5422 29.7433 7.51956 29.7023C7.49692 29.6613 7.48622 29.6149 7.48861 29.5681Z" fill="#1E1E1E"/>
<path d="M271.33 29.7764C267.52 27.0576 263.842 22.1626 264.474 17.2855C264.505 17.047 264.631 16.9774 264.849 17.0768C269.214 19.0563 271.676 25.0841 271.825 29.514C271.828 29.5726 271.814 29.6308 271.784 29.6817C271.755 29.7326 271.712 29.7742 271.66 29.8016C271.609 29.8291 271.55 29.8413 271.492 29.8368C271.433 29.8324 271.377 29.8114 271.33 29.7764Z" fill="#1E1E1E"/>
<path d="M276.255 17.2094C278.008 22.0389 277.65 29.3068 272.761 32.3416C272.547 32.4728 272.423 32.4132 272.392 32.1627C271.837 27.2797 272.457 20.9418 275.909 17.1379C276.064 16.967 276.18 16.9908 276.255 17.2094Z" fill="#1E1E1E"/>
<path d="M194.107 49.4163C192.624 50.7399 190.77 51.2745 188.544 51.0201C185.213 50.6345 183.039 48.8876 182.021 45.7793C179.97 39.513 182.361 31.1599 190.494 31.8157C191.889 31.927 193.051 32.4735 193.981 33.4553C194.013 33.487 194.053 33.5087 194.096 33.5177C194.14 33.5268 194.185 33.5228 194.227 33.5063C194.268 33.4897 194.304 33.4614 194.329 33.4247C194.354 33.3881 194.368 33.3448 194.369 33.3003L194.357 24.7385C194.357 24.504 194.474 24.3867 194.709 24.3867L198.632 24.3987C198.855 24.3987 198.966 24.5099 198.966 24.7325L198.96 50.5849C198.96 50.7756 198.865 50.871 198.674 50.871H194.643C194.433 50.871 194.331 50.7657 194.339 50.5551L194.375 49.5415C194.383 49.291 194.294 49.2493 194.107 49.4163ZM190.523 47.1923C191.682 47.1923 192.794 46.5843 193.614 45.5019C194.433 44.4196 194.894 42.9516 194.894 41.4209C194.894 39.8902 194.433 38.4222 193.614 37.3398C192.794 36.2575 191.682 35.6494 190.523 35.6494C189.364 35.6494 188.253 36.2575 187.433 37.3398C186.614 38.4222 186.153 39.8902 186.153 41.4209C186.153 42.9516 186.614 44.4196 187.433 45.5019C188.253 46.5843 189.364 47.1923 190.523 47.1923Z" fill="#1E1E1E"/>
<path d="M13.9458 28.0129C15.1621 32.8841 12.3718 37.7791 8.02527 40.0746C7.78281 40.2017 7.65164 40.1302 7.63176 39.8599C7.20248 34.6926 9.05873 30.6502 13.2005 27.7327C13.5821 27.4624 13.8305 27.5558 13.9458 28.0129Z" fill="#1E1E1E"/>
<path d="M265.934 27.7056C270.221 30.174 272.195 35.1406 271.67 40.0117C271.654 40.1707 271.575 40.2125 271.431 40.1369C266.662 37.5692 264.605 33.5387 265.261 28.0455C265.269 27.9713 265.297 27.9005 265.339 27.8394C265.382 27.7783 265.44 27.7287 265.506 27.695C265.573 27.6614 265.647 27.6448 265.722 27.6466C265.796 27.6485 265.869 27.6687 265.934 27.7056Z" fill="#1E1E1E"/>
<path d="M6.34394 41.6529C1.20845 39.5025 -0.560347 35.6728 1.03754 30.1636C1.10113 29.945 1.23827 29.8735 1.44893 29.949C4.84145 31.1832 6.87458 38.1888 7.08922 41.1163C7.12897 41.6966 6.88054 41.8755 6.34394 41.6529Z" fill="#1E1E1E"/>
<path d="M272.881 41.6759C272.392 41.8747 272.168 41.7117 272.208 41.1871C272.44 38.2179 274.467 31.2241 277.866 29.9482C278.08 29.8647 278.22 29.9343 278.283 30.1569C279.885 35.7097 278.084 39.5494 272.881 41.6759Z" fill="#1E1E1E"/>
<path d="M207.748 46.0551C210.831 48.7858 214.754 44.654 210.836 43.1813C209.054 42.5076 206.872 41.8577 205.548 40.6414C202.781 38.0955 203.926 33.2899 207.515 31.9425C210.425 30.8573 213.543 32.02 215.481 34.3691C215.652 34.5758 215.638 34.7706 215.439 34.9534L213.18 37.0163C213.029 37.1594 212.882 37.1535 212.738 36.9985C211.932 36.1319 211.023 35.651 210.014 35.5556C207.933 35.3588 207.45 38.1134 209.018 38.6142C212.887 39.8484 217.568 41.2436 216.524 45.8286C214.849 53.1681 205.429 51.8445 202.656 46.0909C202.581 45.9319 202.62 45.8107 202.775 45.7272L205.834 44.0279C205.937 43.9714 206.058 43.956 206.172 43.9847C206.286 44.0135 206.384 44.0843 206.448 44.183C206.895 44.8984 207.164 45.5304 207.748 46.0551Z" fill="#1E1E1E"/>
<path d="M68.8112 38.9399C69.5327 34.9512 64.0057 34.8081 62.3959 37.5567C62.2925 37.7316 62.1415 37.7992 61.9427 37.7594L58.8662 37.1095C58.6754 37.0658 58.6019 36.9485 58.6456 36.7577C59.1385 34.6551 60.1878 33.2758 61.7937 32.62C66.9808 30.4974 73.2829 32.2026 73.5632 38.6537C73.6625 40.8717 73.6705 44.8068 73.587 50.459C73.583 50.6498 73.4856 50.7452 73.2949 50.7452L70.0335 50.7631C69.8189 50.7671 69.6936 50.6617 69.6579 50.4471L69.4015 48.7955C69.3578 48.5252 69.2405 48.4875 69.0497 48.6822C66.2952 51.4845 61.6685 52.1761 58.9854 48.9565C56.8748 46.4106 57.6141 42.565 60.3806 40.7107C62.7178 39.1486 65.3651 39.2023 68.4535 39.238C68.6562 39.238 68.7755 39.1387 68.8112 38.9399ZM64.4826 47.0128C66.9788 47.2275 68.4654 46.041 68.9424 43.4534C68.9822 43.2586 68.9027 43.1453 68.7039 43.1135C66.3389 42.7677 64.8026 42.7737 64.0951 43.1314C62.2587 44.0555 61.9487 46.7863 64.4826 47.0128Z" fill="#1E1E1E"/>
<path d="M158.859 48.6827C157.353 50.2448 155.566 51.0338 153.499 51.0497C150.28 51.0795 147.752 49.1358 147.662 45.8029C147.495 39.5783 153.911 39.1312 158.388 39.2445C158.579 39.2484 158.693 39.157 158.728 38.9702C158.963 37.5949 158.526 36.6449 157.417 36.1202C155.27 35.1106 153.561 35.5717 152.289 37.5035C152.146 37.7141 151.951 37.7937 151.705 37.742L148.658 37.1159C148.609 37.1052 148.562 37.0842 148.522 37.0542C148.481 37.0243 148.447 36.9861 148.423 36.9422C148.398 36.8983 148.383 36.8496 148.378 36.7994C148.373 36.7492 148.379 36.6986 148.396 36.6509C150.84 29.5141 162.86 30.152 163.307 38.1176C163.435 40.4071 163.444 44.523 163.337 50.4654C163.337 50.6602 163.24 50.7576 163.045 50.7576H159.813C159.607 50.7576 159.488 50.6562 159.456 50.4535L159.164 48.7781C159.124 48.5436 159.022 48.5118 158.859 48.6827ZM158.836 43.9129C158.874 43.82 158.891 43.7194 158.883 43.6191C158.876 43.5187 158.846 43.4215 158.794 43.3351C158.742 43.2487 158.671 43.1756 158.586 43.1217C158.501 43.0678 158.405 43.0345 158.305 43.0245C157.105 42.8973 155.807 42.9132 154.412 43.0722C152.021 43.3525 151.657 46.8583 154.203 47.049C156.369 47.208 157.913 46.1627 158.836 43.9129Z" fill="#1E1E1E"/>
<path d="M172.483 34.6163C174.224 32.2036 176.591 31.3351 179.584 32.0108C179.693 32.0365 179.788 32.1038 179.848 32.1986C179.908 32.2933 179.929 32.4078 179.906 32.5176L179.161 35.9698C179.109 36.2043 178.968 36.2818 178.737 36.2023C170.95 33.4358 172.089 46.8688 172.256 50.4938C172.258 50.5319 172.252 50.5699 172.238 50.6056C172.225 50.6413 172.205 50.674 172.179 50.7018C172.153 50.7296 172.121 50.7518 172.086 50.7673C172.052 50.7828 172.014 50.7912 171.976 50.7919L167.951 50.8873C167.713 50.8913 167.594 50.776 167.594 50.5415L167.6 32.4163C167.6 32.1778 167.717 32.0585 167.951 32.0585L172.006 32.0764C172.216 32.0804 172.312 32.1857 172.292 32.3924L172.113 34.4792C172.108 34.5244 172.118 34.5702 172.141 34.609C172.165 34.6479 172.201 34.6777 172.244 34.6935C172.287 34.7094 172.333 34.7104 172.377 34.6964C172.42 34.6824 172.457 34.6542 172.483 34.6163Z" fill="#1E1E1E"/>
<path d="M85.4341 50.8712H81.7018C81.6579 50.8718 81.615 50.8582 81.5795 50.8324C81.544 50.8066 81.5179 50.77 81.505 50.7281L75.6799 32.4239C75.6706 32.3939 75.6685 32.362 75.6737 32.331C75.6788 32.2999 75.6912 32.2705 75.7097 32.2451C75.7282 32.2196 75.7524 32.1988 75.7803 32.1843C75.8083 32.1698 75.8392 32.1621 75.8707 32.1616L80.08 32.1258C80.1265 32.1245 80.1719 32.1392 80.2088 32.1675C80.2457 32.1957 80.2718 32.2357 80.2827 32.2809L83.3533 44.265C83.3642 44.3089 83.3895 44.348 83.4251 44.3759C83.4608 44.4038 83.5048 44.4189 83.5501 44.4189C83.5953 44.4189 83.6393 44.4038 83.6749 44.3759C83.7106 44.348 83.7359 44.3089 83.7468 44.265L86.7339 32.2928C86.7446 32.2486 86.7698 32.2094 86.8055 32.1812C86.8411 32.1531 86.8852 32.1378 86.9306 32.1378L90.9254 32.1616C90.9698 32.163 91.0125 32.1789 91.0469 32.2069C91.0814 32.2349 91.1057 32.2735 91.1161 32.3166L94.0913 44.259C94.1041 44.3005 94.1297 44.3368 94.1646 44.3625C94.1995 44.3883 94.2417 44.4022 94.2851 44.4022C94.3284 44.4022 94.3707 44.3883 94.4055 44.3625C94.4404 44.3368 94.4661 44.3005 94.4789 44.259L97.5673 32.2689C97.5788 32.2269 97.6036 32.1896 97.638 32.1628C97.6724 32.1359 97.7145 32.1209 97.7581 32.1199L101.735 32.0781C101.767 32.0777 101.799 32.0848 101.827 32.0989C101.856 32.1129 101.881 32.1336 101.9 32.1592C101.919 32.1848 101.932 32.2145 101.938 32.2461C101.943 32.2776 101.941 32.3099 101.932 32.3405L96.0887 50.6148C96.0758 50.6567 96.0496 50.6933 96.0141 50.7191C95.9787 50.7449 95.9358 50.7585 95.8919 50.7579H92.1715C92.1268 50.7582 92.0833 50.7437 92.0478 50.7168C92.0122 50.6898 91.9865 50.6519 91.9747 50.6088L88.9936 39.3819C88.982 39.3381 88.9562 39.2994 88.9201 39.2721C88.884 39.2447 88.8398 39.2302 88.7945 39.2309C88.7492 39.2316 88.7055 39.2474 88.6702 39.2759C88.635 39.3043 88.6103 39.3437 88.6001 39.3879L85.6309 50.7221C85.6191 50.7651 85.5934 50.8031 85.5578 50.83C85.5222 50.857 85.4787 50.8714 85.4341 50.8712Z" fill="#1E1E1E"/>
<path d="M107.583 50.8715H103.839C103.794 50.8721 103.749 50.8579 103.713 50.831C103.676 50.8041 103.649 50.766 103.636 50.7225L101.335 43.2994C101.323 43.2605 101.323 43.2191 101.335 43.1802L102.843 37.838C102.856 37.7969 102.882 37.7608 102.916 37.7347C102.951 37.7087 102.993 37.694 103.036 37.6927C103.079 37.6914 103.122 37.7035 103.158 37.7274C103.194 37.7513 103.221 37.7858 103.237 37.8261L105.467 44.3369C105.481 44.3793 105.51 44.4158 105.547 44.441C105.584 44.4662 105.628 44.4787 105.673 44.4767C105.718 44.4747 105.761 44.4583 105.796 44.4299C105.831 44.4014 105.855 44.3626 105.866 44.319L108.77 32.2335C108.781 32.1878 108.806 32.147 108.843 32.1178C108.88 32.0886 108.926 32.0726 108.973 32.0725L112.973 32.0606C113.021 32.0594 113.068 32.0747 113.106 32.104C113.144 32.1333 113.171 32.1749 113.182 32.2216L116.115 44.2713C116.126 44.3167 116.152 44.3571 116.189 44.3859C116.226 44.4148 116.271 44.4305 116.318 44.4305C116.365 44.4305 116.41 44.4148 116.447 44.3859C116.484 44.3571 116.51 44.3167 116.521 44.2713L119.597 32.2156C119.609 32.171 119.635 32.1316 119.672 32.1035C119.709 32.0755 119.754 32.0604 119.8 32.0606L123.997 32.0725C124.03 32.0721 124.063 32.0794 124.092 32.0938C124.121 32.1082 124.147 32.1293 124.167 32.1554C124.186 32.1815 124.2 32.2119 124.205 32.2441C124.211 32.2763 124.209 32.3095 124.2 32.3408L118.375 50.7284C118.361 50.7708 118.334 50.8076 118.297 50.8334C118.261 50.8591 118.217 50.8725 118.172 50.8715H114.327C114.28 50.8717 114.235 50.8567 114.199 50.8286C114.162 50.8006 114.136 50.7611 114.124 50.7165L111.167 39.4538C111.156 39.4084 111.13 39.3681 111.093 39.3392C111.056 39.3103 111.011 39.2947 110.964 39.2947C110.917 39.2947 110.872 39.3103 110.835 39.3392C110.798 39.3681 110.772 39.4084 110.761 39.4538L107.786 50.7165C107.774 50.7611 107.748 50.8006 107.711 50.8286C107.674 50.8567 107.629 50.8717 107.583 50.8715Z" fill="#1E1E1E"/>
<path d="M142.045 32.0666H146.319C146.347 32.0671 146.374 32.0742 146.399 32.0871C146.424 32.1 146.445 32.1185 146.461 32.1411C146.477 32.1636 146.488 32.1897 146.492 32.2171C146.497 32.2445 146.495 32.2726 146.486 32.2991L140.524 50.7523C140.513 50.7889 140.49 50.8209 140.458 50.8435C140.427 50.866 140.39 50.878 140.351 50.8775L136.589 50.8715C136.55 50.8716 136.512 50.8588 136.48 50.8351C136.449 50.8114 136.427 50.7781 136.416 50.7403L133.399 39.257C133.389 39.2189 133.367 39.1852 133.335 39.1611C133.304 39.137 133.266 39.124 133.226 39.124C133.187 39.124 133.149 39.137 133.117 39.1611C133.086 39.1852 133.064 39.2189 133.053 39.257L130.066 50.7403C130.056 50.7781 130.033 50.8114 130.002 50.8351C129.971 50.8588 129.933 50.8716 129.893 50.8715L126.125 50.8775C126.087 50.878 126.049 50.866 126.018 50.8435C125.987 50.8209 125.964 50.7889 125.952 50.7523L123.472 43.3114C123.461 43.2765 123.461 43.239 123.472 43.2041L125.165 37.7486C125.175 37.7104 125.198 37.6767 125.229 37.6526C125.26 37.6286 125.299 37.6155 125.338 37.6155C125.378 37.6155 125.416 37.6286 125.447 37.6526C125.479 37.6767 125.501 37.7104 125.511 37.7486L127.783 44.5038C127.796 44.5391 127.821 44.5692 127.852 44.5898C127.884 44.6104 127.921 44.6204 127.959 44.6184C127.997 44.6165 128.033 44.6026 128.062 44.5788C128.092 44.555 128.113 44.5225 128.123 44.4859L131.038 32.2097C131.048 32.1708 131.07 32.1361 131.101 32.1113C131.132 32.0864 131.171 32.0728 131.211 32.0725L135.254 32.0606C135.295 32.0595 135.335 32.0725 135.367 32.0975C135.4 32.1224 135.423 32.1578 135.432 32.1977L138.419 44.3846C138.427 44.4257 138.449 44.4628 138.481 44.4896C138.513 44.5163 138.554 44.5309 138.595 44.5309C138.637 44.5309 138.678 44.5163 138.71 44.4896C138.742 44.4628 138.764 44.4257 138.771 44.3846L141.872 32.2037C141.881 32.1648 141.903 32.1301 141.934 32.1053C141.966 32.0804 142.005 32.0668 142.045 32.0666Z" fill="#1E1E1E"/>
<path d="M8.88993 50.7749C7.6319 46.035 9.35499 40.9194 13.6955 38.451C13.8823 38.3437 14.0195 38.3894 14.1069 38.5881C16.0029 42.8511 12.4852 48.3483 9.30729 50.9121C9.09662 51.079 8.95751 51.0333 8.88993 50.7749Z" fill="#1E1E1E"/>
<path d="M265.679 38.4992C270.037 40.8543 271.665 46.2084 270.395 50.8769C270.385 50.9132 270.367 50.9463 270.341 50.9732C270.315 51 270.282 51.0198 270.245 51.0305C270.209 51.0413 270.17 51.0426 270.133 51.0345C270.095 51.0264 270.06 51.0091 270.031 50.9842C266.567 47.9911 263.801 43.5374 265.053 38.7676C265.07 38.7044 265.101 38.646 265.144 38.5966C265.187 38.5473 265.241 38.5083 265.301 38.4825C265.361 38.4567 265.426 38.4448 265.492 38.4477C265.557 38.4506 265.621 38.4682 265.679 38.4992Z" fill="#1E1E1E"/>
<path d="M8.17993 52.902C2.7821 50.9225 0.436951 47.0113 1.14447 41.1683C1.15115 41.1098 1.17237 41.0539 1.20624 41.0057C1.24012 40.9575 1.28561 40.9184 1.33868 40.8919C1.39175 40.8653 1.45076 40.8522 1.51049 40.8536C1.57022 40.855 1.62881 40.871 1.68108 40.9C5.76522 43.1597 8.13224 48.1799 8.73442 52.4548C8.79802 52.912 8.61319 53.061 8.17993 52.902Z" fill="#1E1E1E"/>
<path d="M270.466 52.7053C271.438 47.9415 273.274 43.5473 277.603 40.9001C277.647 40.8732 277.697 40.8574 277.749 40.8542C277.801 40.8509 277.853 40.8602 277.9 40.8813C277.948 40.9023 277.989 40.9346 278.022 40.9752C278.054 41.0159 278.076 41.0637 278.086 41.1147C279.04 46.3198 276.243 51.8587 270.734 52.9736C270.512 53.0173 270.422 52.9279 270.466 52.7053Z" fill="#1E1E1E"/>
<path d="M222.702 50.9949C224.434 50.9949 225.838 49.5909 225.838 47.8588C225.838 46.1268 224.434 44.7227 222.702 44.7227C220.97 44.7227 219.565 46.1268 219.565 47.8588C219.565 49.5909 220.97 50.9949 222.702 50.9949Z" fill="#1E1E1E"/>
<path d="M15.019 48.2954C17.8451 53.0056 16.9686 57.835 13.8683 62.1696C13.8365 62.2149 13.7933 62.2508 13.743 62.2738C13.6927 62.2968 13.637 62.306 13.5815 62.3006C13.526 62.2952 13.4726 62.2753 13.4267 62.2428C13.3808 62.2104 13.3439 62.1666 13.3197 62.1159C11.5609 58.3597 10.3982 50.7876 14.6016 48.194C14.7725 48.0867 14.9117 48.1205 15.019 48.2954Z" fill="#1E1E1E"/>
<path d="M264.014 48.6713C264.245 48.1784 264.587 48.083 265.04 48.3851C268.897 50.9667 267.645 58.6879 266.012 62.1221C265.881 62.4004 265.72 62.4182 265.529 62.1758C262.23 58.0181 261.725 53.5166 264.014 48.6713Z" fill="#1E1E1E"/>
<path d="M1.99202 53.2917C6.98243 54.1145 11.8953 60.3332 13.8927 64.62C13.9722 64.787 13.9185 64.8724 13.7317 64.8764C7.13148 64.9658 1.41368 60.4941 1.68794 53.5422C1.69589 53.3434 1.79726 53.2599 1.99202 53.2917Z" fill="#1E1E1E"/>
<path d="M265.415 64.6141C267.455 60.2795 272.29 54.1742 277.322 53.2977C277.513 53.2659 277.612 53.3474 277.62 53.5422C277.894 60.5061 272.183 64.9718 265.576 64.8704C265.39 64.8665 265.336 64.781 265.415 64.6141Z" fill="#1E1E1E"/>
<path d="M18.525 58.4297C18.847 57.746 19.2524 57.6943 19.7413 58.2747C23.0265 62.1859 22.633 69.281 20.9159 73.6871C20.8165 73.9415 20.6774 73.9653 20.4985 73.7586C16.5475 69.1359 15.8897 64.0262 18.525 58.4297Z" fill="#1E1E1E"/>
<path d="M258.434 73.6928C256.568 69.0303 256.323 61.8875 259.889 57.8689C260.04 57.702 260.183 57.708 260.318 57.8868C263.973 62.5851 262.428 69.7517 258.774 73.7524C258.627 73.9154 258.513 73.8955 258.434 73.6928Z" fill="#1E1E1E"/>
<path d="M7.16034 66.6045C11.793 66.7655 17.9699 72.1315 20.9451 75.4585C21.1239 75.6572 21.0802 75.7606 20.8139 75.7685C14.3508 75.9533 7.10071 75.1842 6.78471 66.9801C6.77279 66.7178 6.898 66.5926 7.16034 66.6045Z" fill="#1E1E1E"/>
<path d="M258.327 75.4605C261.487 72.0262 267.396 66.8927 272.165 66.6006C272.376 66.5886 272.479 66.688 272.475 66.8987C272.309 75.1624 264.88 76.0865 258.434 75.7169C258.406 75.715 258.378 75.7052 258.354 75.6884C258.331 75.6717 258.312 75.6487 258.301 75.622C258.29 75.5953 258.286 75.5661 258.291 75.5375C258.296 75.509 258.308 75.4823 258.327 75.4605Z" fill="#1E1E1E"/>
<path d="M25.4889 67.0997C29.5551 70.9692 30.8728 77.4144 29.4896 82.6731C29.418 82.9355 29.2769 82.9832 29.0662 82.8162C24.4932 79.1852 22.2812 72.591 25.0119 67.1832C25.1351 66.9447 25.2941 66.9169 25.4889 67.0997Z" fill="#1E1E1E"/>
<path d="M249.848 82.6512C248.399 77.3985 249.801 70.9771 253.819 67.1076C254.006 66.9248 254.157 66.9486 254.272 67.1792C257.08 72.6287 254.785 79.1037 250.319 82.8003C250.085 82.995 249.928 82.9454 249.848 82.6512Z" fill="#1E1E1E"/>
<path d="M79.1663 79.2173C78.5462 79.2119 77.9333 79.0787 77.3626 78.8253C76.7919 78.5719 76.2745 78.2033 75.84 77.7405C75.4056 77.2777 75.0625 76.7298 74.8304 76.1281C74.5984 75.5264 74.4818 74.8826 74.4875 74.2335C74.4989 72.9227 75.0074 71.6699 75.901 70.7507C76.7946 69.8315 78.0002 69.3213 79.2525 69.3322C79.8726 69.3376 80.4855 69.4708 81.0563 69.7242C81.627 69.9776 82.1443 70.3462 82.5788 70.809C83.0133 71.2717 83.3563 71.8196 83.5884 72.4214C83.8205 73.0231 83.937 73.6669 83.9313 74.3159C83.9199 75.6268 83.4115 76.8796 82.5178 77.7988C81.6242 78.7179 80.4186 79.2282 79.1663 79.2173ZM79.2154 77.0293C79.8621 77.0293 80.4824 76.7391 80.9397 76.2225C81.397 75.7059 81.6539 75.0053 81.6539 74.2747C81.6539 73.5442 81.397 72.8435 80.9397 72.327C80.4824 71.8104 79.8621 71.5202 79.2154 71.5202C78.5686 71.5202 77.9484 71.8104 77.4911 72.327C77.0337 72.8435 76.7768 73.5442 76.7768 74.2747C76.7768 75.0053 77.0337 75.7059 77.4911 76.2225C77.9484 76.7391 78.5686 77.0293 79.2154 77.0293Z" fill="#1E1E1E"/>
<path d="M99.7476 79.2173C99.1259 79.2118 98.5115 79.0786 97.9393 78.8252C97.3671 78.5718 96.8484 78.2032 96.4128 77.7404C95.9773 77.2776 95.6333 76.7297 95.4007 76.128C95.168 75.5263 95.0512 74.8825 95.0568 74.2334C95.0683 72.9226 95.578 71.6698 96.4738 70.7506C97.3697 69.8315 98.5783 69.3213 99.8338 69.3322C100.455 69.3376 101.07 69.4708 101.642 69.7242C102.214 69.9776 102.733 70.3463 103.169 70.809C103.604 71.2718 103.948 71.8197 104.181 72.4215C104.413 73.0232 104.53 73.667 104.525 74.3161C104.513 75.6269 104.003 76.8797 103.108 77.7988C102.212 78.718 101.003 79.2282 99.7476 79.2173ZM99.7799 77.0472C100.099 77.0477 100.416 76.9766 100.711 76.8378C101.007 76.699 101.275 76.4952 101.501 76.2381C101.728 75.9811 101.907 75.6758 102.03 75.3396C102.153 75.0035 102.217 74.6431 102.217 74.279C102.218 73.9149 102.156 73.5543 102.034 73.2177C101.912 72.8811 101.734 72.5752 101.508 72.3173C101.283 72.0595 101.015 71.8548 100.72 71.7149C100.425 71.5751 100.109 71.5028 99.7896 71.5023C99.4701 71.5017 99.1536 71.5729 98.8583 71.7117C98.5629 71.8505 98.2944 72.0543 98.068 72.3113C97.8417 72.5684 97.662 72.8737 97.5391 73.2099C97.4163 73.546 97.3528 73.9064 97.3521 74.2705C97.3515 74.6346 97.4138 74.9952 97.5354 75.3318C97.6571 75.6684 97.8358 75.9743 98.0612 76.2322C98.2866 76.49 98.5545 76.6947 98.8493 76.8345C99.1442 76.9744 99.4604 77.0466 99.7799 77.0472Z" fill="#1E1E1E"/>
<path d="M200.224 79.2173C198.972 79.213 197.773 78.6881 196.89 77.7581C196.008 76.828 195.515 75.5691 195.52 74.2582C195.522 73.6092 195.646 72.9669 195.886 72.368C196.125 71.7692 196.475 71.2255 196.915 70.7681C197.355 70.3106 197.877 69.9484 198.451 69.702C199.024 69.4556 199.639 69.3299 200.259 69.3321C201.511 69.3364 202.711 69.8613 203.593 70.7913C204.475 71.7214 204.968 72.9803 204.964 74.2911C204.962 74.9402 204.837 75.5825 204.598 76.1814C204.358 76.7802 204.009 77.3239 203.568 77.7813C203.128 78.2388 202.607 78.601 202.033 78.8474C201.459 79.0938 200.845 79.2195 200.224 79.2173ZM200.224 77.0291C200.87 77.0348 201.493 76.75 201.955 76.2374C202.417 75.7248 202.68 75.0265 202.686 74.296C202.692 73.5655 202.442 72.8626 201.989 72.3421C201.536 71.8215 200.918 71.5259 200.272 71.5202C199.625 71.5146 199.002 71.7994 198.54 72.312C198.079 72.8245 197.816 73.5229 197.809 74.2534C197.803 74.9839 198.054 75.6868 198.506 76.2073C198.959 76.7279 199.577 77.0235 200.224 77.0291Z" fill="#1E1E1E"/>
<path d="M70.9209 73.0098L70.909 69.7067C70.909 69.6545 70.9297 69.6045 70.9666 69.5676C71.0035 69.5307 71.0536 69.51 71.1058 69.51L72.9839 69.498C73.0361 69.498 73.0861 69.5188 73.123 69.5557C73.1599 69.5926 73.1806 69.6426 73.1806 69.6948V78.8469C73.1806 78.8991 73.1599 78.9491 73.123 78.986C73.0861 79.0229 73.0361 79.0436 72.9839 79.0436H71.1058C71.0536 79.0436 71.0035 79.0229 70.9666 78.986C70.9297 78.9491 70.909 78.8991 70.909 78.8469L70.9209 75.5497C70.9209 75.4976 70.9002 75.4475 70.8633 75.4106C70.8264 75.3737 70.7764 75.353 70.7242 75.353L67.6536 75.3291C67.6014 75.3291 67.5514 75.3499 67.5145 75.3868C67.4776 75.4237 67.4569 75.4737 67.4569 75.5259L67.4449 78.8469C67.4449 78.8991 67.4242 78.9491 67.3873 78.986C67.3504 79.0229 67.3004 79.0436 67.2482 79.0436H65.2866C65.2344 79.0436 65.1844 79.0229 65.1475 78.986C65.1106 78.9491 65.0898 78.8991 65.0898 78.8469V69.7008C65.0898 69.6486 65.1106 69.5985 65.1475 69.5616C65.1844 69.5247 65.2344 69.504 65.2866 69.504H67.2422C67.2944 69.504 67.3444 69.5247 67.3813 69.5616C67.4182 69.5985 67.439 69.6486 67.439 69.7008L67.4569 73.0039C67.4569 73.056 67.4776 73.1061 67.5145 73.143C67.5514 73.1799 67.6014 73.2006 67.6536 73.2006L70.7242 73.2066C70.7764 73.2066 70.8264 73.1858 70.8633 73.1489C70.9002 73.112 70.9209 73.062 70.9209 73.0098Z" fill="#1E1E1E"/>
<path d="M87.9668 74.087L87.9609 78.6541C87.9609 78.9085 87.8337 79.0357 87.5793 79.0357L86.0768 79.0417C85.8264 79.0417 85.7012 78.9185 85.7012 78.672V69.8002C85.7012 69.5975 85.8005 69.4981 85.9993 69.5021H87.4481C87.6588 69.506 87.8237 69.5935 87.943 69.7644L91.1686 74.4925C91.3435 74.7469 91.4309 74.719 91.4309 74.409V69.8419C91.4269 69.6154 91.5402 69.5021 91.7707 69.5021H93.4581C93.5482 69.5021 93.6346 69.5379 93.6984 69.6016C93.7621 69.6653 93.7979 69.7518 93.7979 69.8419L93.786 78.6899C93.786 78.9204 93.6687 79.0377 93.4342 79.0417L92.045 79.0476C91.8344 79.0476 91.6674 78.9602 91.5442 78.7853L88.2411 74.0036C88.0583 73.7372 87.9668 73.7651 87.9668 74.087Z" fill="#1E1E1E"/>
<path d="M111.584 75.7987L113.254 78.6785C113.275 78.714 113.286 78.7545 113.286 78.7959C113.287 78.8373 113.276 78.878 113.255 78.9138C113.235 78.9497 113.205 78.9794 113.169 78.9998C113.133 79.0203 113.092 79.0308 113.051 79.0302L111.34 79.0422C111.121 79.0461 110.96 78.9527 110.857 78.7619L109.402 76.1505C109.333 76.0298 109.226 75.9353 109.098 75.8815C108.97 75.8278 108.827 75.8178 108.693 75.8531C108.558 75.8884 108.439 75.967 108.354 76.0768C108.269 76.1867 108.222 76.3215 108.221 76.4605L108.245 78.7202C108.249 78.9309 108.146 79.0362 107.935 79.0362L106.278 79.0481C106.075 79.0481 105.974 78.9468 105.974 78.744V69.8066C105.974 69.6079 106.071 69.5085 106.266 69.5085C108.794 69.4728 112.997 68.7811 113.158 72.4956C113.206 73.6046 112.715 74.5426 111.685 75.3098C111.507 75.441 111.473 75.6039 111.584 75.7987ZM108.215 71.8577V73.5748C108.215 73.638 108.241 73.6987 108.285 73.7434C108.33 73.7881 108.391 73.8133 108.454 73.8133H109.736C110.072 73.813 110.395 73.7143 110.633 73.5387C110.871 73.3632 111.005 73.1253 111.006 72.8772V72.5552C111.006 72.4322 110.973 72.3104 110.91 72.1968C110.846 72.0831 110.752 71.9799 110.634 71.893C110.516 71.806 110.376 71.7371 110.222 71.6901C110.068 71.6431 109.903 71.619 109.736 71.6192H108.454C108.391 71.6192 108.33 71.6443 108.285 71.689C108.241 71.7337 108.215 71.7944 108.215 71.8577Z" fill="#1E1E1E"/>
<path d="M119.771 77.2657L117.117 77.2478C116.883 77.2438 116.738 77.3551 116.682 77.5817L116.402 78.7205C116.378 78.8129 116.324 78.8947 116.248 78.953C116.173 79.0114 116.08 79.0428 115.985 79.0424H114.196C113.985 79.0424 113.916 78.9431 113.987 78.7443L116.962 70.4031C117.073 70.0937 117.276 69.826 117.544 69.6366C117.813 69.4473 118.133 69.3457 118.462 69.3457C118.79 69.3457 119.111 69.4473 119.379 69.6366C119.648 69.826 119.851 70.0937 119.961 70.4031L122.859 78.5833C122.923 78.7582 122.867 78.8755 122.692 78.9351C121.213 79.4677 120.401 79.0563 120.253 77.7009C120.24 77.5827 120.184 77.4733 120.095 77.3931C120.006 77.313 119.891 77.2677 119.771 77.2657ZM117.6 74.9344C117.589 74.9706 117.586 75.0089 117.593 75.0462C117.599 75.0835 117.614 75.1188 117.637 75.1491C117.66 75.1794 117.689 75.2039 117.723 75.2205C117.757 75.237 117.795 75.2453 117.833 75.2445L119.091 75.2027C119.129 75.201 119.167 75.1903 119.201 75.1716C119.235 75.1529 119.263 75.1267 119.285 75.0949C119.307 75.0632 119.322 75.0268 119.327 74.9886C119.333 74.9504 119.329 74.9115 119.317 74.8748L118.608 72.794C118.513 72.5157 118.417 72.5157 118.322 72.794L117.6 74.9344Z" fill="#1E1E1E"/>
<path d="M130.246 74.2437C131.375 75.46 131.542 76.6306 130.747 77.7555C129.519 79.4845 126.114 79.1685 124.23 79.0016C123.984 78.9817 123.86 78.8486 123.86 78.6021L123.854 69.8138C123.854 69.7494 123.88 69.6874 123.925 69.6408C123.971 69.5941 124.033 69.5664 124.099 69.5634C126.859 69.3905 131.409 68.8598 130.824 72.6876C130.753 73.1765 130.562 73.4031 130.234 73.7727C130.099 73.9317 130.103 74.0887 130.246 74.2437ZM126.126 71.5548L126.102 73.0572C126.101 73.0948 126.108 73.1322 126.122 73.1672C126.135 73.2022 126.156 73.2342 126.182 73.2614C126.208 73.2885 126.239 73.3102 126.273 73.3253C126.308 73.3404 126.345 73.3486 126.382 73.3494L127.229 73.3613C127.637 73.3688 128.029 73.2787 128.321 73.1111C128.613 72.9434 128.78 72.7117 128.785 72.467V72.2404C128.788 72.1189 128.751 71.9978 128.676 71.884C128.601 71.7703 128.49 71.6661 128.349 71.5775C128.207 71.4889 128.039 71.4176 127.853 71.3676C127.667 71.3177 127.467 71.2901 127.265 71.2864L126.418 71.2745C126.381 71.2737 126.343 71.2804 126.308 71.294C126.273 71.3077 126.241 71.3281 126.214 71.3541C126.187 71.3801 126.165 71.4112 126.15 71.4457C126.135 71.4801 126.127 71.5172 126.126 71.5548ZM126.096 75.4958L126.108 76.879C126.109 76.9307 126.12 76.9817 126.14 77.0292C126.161 77.0766 126.191 77.1196 126.228 77.1556C126.265 77.1915 126.309 77.2199 126.357 77.2389C126.405 77.258 126.456 77.2674 126.508 77.2666L127.879 77.2487C128.17 77.2452 128.447 77.1422 128.651 76.9622C128.854 76.7822 128.967 76.54 128.964 76.2888V76.0145C128.963 75.8899 128.933 75.7668 128.877 75.6523C128.82 75.5378 128.738 75.4341 128.635 75.3472C128.532 75.2602 128.41 75.1918 128.276 75.1457C128.142 75.0995 127.999 75.0767 127.855 75.0784L126.484 75.0963C126.432 75.0971 126.381 75.1081 126.334 75.1286C126.286 75.1491 126.243 75.1787 126.207 75.2158C126.171 75.2529 126.143 75.2967 126.124 75.3448C126.105 75.3928 126.096 75.4441 126.096 75.4958Z" fill="#1E1E1E"/>
<path d="M135.338 76.925L139.094 76.9071C139.165 76.9071 139.233 76.9353 139.284 76.9856C139.334 77.036 139.362 77.1042 139.362 77.1754L139.356 78.7732C139.356 78.8444 139.328 78.9127 139.278 78.963C139.227 79.0133 139.159 79.0416 139.088 79.0416H133.072C133.001 79.0416 132.933 79.0133 132.882 78.963C132.832 78.9127 132.804 78.8444 132.804 78.7732V69.7703C132.804 69.6991 132.832 69.6309 132.882 69.5805C132.933 69.5302 133.001 69.502 133.072 69.502H134.789C134.86 69.502 134.929 69.5302 134.979 69.5805C135.029 69.6309 135.057 69.6991 135.057 69.7703L135.069 76.6567C135.069 76.7278 135.098 76.7961 135.148 76.8464C135.198 76.8967 135.267 76.925 135.338 76.925Z" fill="#1E1E1E"/>
<path d="M143.076 76.8793L147.285 76.9449C147.363 76.9465 147.438 76.9786 147.492 77.0343C147.547 77.09 147.577 77.165 147.577 77.243L147.595 78.7395C147.595 78.8186 147.564 78.8944 147.508 78.9503C147.452 79.0063 147.376 79.0376 147.297 79.0376L140.852 79.0496C140.773 79.0496 140.697 79.0182 140.641 78.9623C140.585 78.9064 140.554 78.8305 140.554 78.7515L140.548 69.7962C140.548 69.7171 140.579 69.6413 140.635 69.5854C140.691 69.5295 140.767 69.498 140.846 69.498L147.184 69.51C147.223 69.51 147.263 69.5179 147.299 69.5332C147.336 69.5486 147.369 69.5711 147.397 69.5994C147.425 69.6277 147.446 69.6613 147.461 69.6981C147.476 69.735 147.483 69.7744 147.482 69.814L147.44 71.3165C147.437 71.3925 147.405 71.4644 147.351 71.5176C147.297 71.5708 147.224 71.6013 147.148 71.6027L143.082 71.6385C143.004 71.6401 142.929 71.6722 142.875 71.7279C142.82 71.7836 142.79 71.8586 142.79 71.9366L142.802 72.8965C142.803 72.9746 142.835 73.0489 142.891 73.1035C142.947 73.1581 143.022 73.1887 143.1 73.1887L146.725 73.2245C146.804 73.2245 146.88 73.2559 146.936 73.3118C146.991 73.3677 147.023 73.4435 147.023 73.5226L147.011 75.0549C147.011 75.1329 146.98 75.2078 146.926 75.2636C146.871 75.3193 146.797 75.3514 146.719 75.353L143.1 75.4245C143.023 75.4261 142.949 75.4573 142.895 75.5118C142.84 75.5663 142.809 75.6397 142.808 75.7167L142.784 76.5752C142.783 76.6144 142.79 76.6533 142.804 76.6898C142.818 76.7263 142.84 76.7596 142.867 76.7878C142.894 76.8161 142.926 76.8387 142.962 76.8544C142.998 76.8701 143.037 76.8785 143.076 76.8793Z" fill="#1E1E1E"/>
<path d="M155.346 75.0012L155.334 78.656C155.334 78.7578 155.294 78.8555 155.223 78.928C155.151 79.0005 155.054 79.042 154.952 79.0436H153.444C153.346 79.0436 153.252 79.004 153.182 78.9336C153.113 78.8631 153.074 78.7676 153.074 78.668V69.8021C153.074 69.6033 153.174 69.504 153.372 69.504H154.863C155.034 69.504 155.153 69.5815 155.221 69.7365L157.981 75.7763C157.995 75.8082 158.018 75.8353 158.047 75.8544C158.076 75.8735 158.11 75.8836 158.145 75.8836C158.18 75.8836 158.214 75.8735 158.243 75.8544C158.272 75.8353 158.295 75.8082 158.309 75.7763L161.052 69.7425C161.123 69.5874 161.243 69.5099 161.409 69.5099L162.906 69.4921C163.109 69.4881 163.21 69.5894 163.21 69.7961V78.7455C163.21 78.9442 163.111 79.0436 162.912 79.0436H161.26C161.05 79.0476 160.944 78.9442 160.944 78.7335L160.95 75.0131C160.95 74.7031 160.885 74.6892 160.754 74.9714L159.09 78.5666C159.005 78.7483 158.87 78.9021 158.7 79.0097C158.531 79.1173 158.334 79.1741 158.134 79.1735C157.934 79.1729 157.738 79.1148 157.57 79.0062C157.403 78.8975 157.27 78.7429 157.188 78.5606L155.555 74.9594C155.415 74.6534 155.346 74.6673 155.346 75.0012Z" fill="#1E1E1E"/>
<path d="M167.271 71.8153L167.259 73.0018C167.259 73.054 167.279 73.104 167.316 73.1409C167.353 73.1778 167.403 73.1986 167.455 73.1986L171.224 73.2045C171.275 73.2045 171.324 73.2244 171.361 73.26C171.397 73.2956 171.419 73.3442 171.42 73.3953L171.444 75.1363C171.445 75.1626 171.441 75.1888 171.431 75.2134C171.421 75.238 171.407 75.2604 171.389 75.2793C171.37 75.2982 171.348 75.3132 171.324 75.3235C171.3 75.3337 171.274 75.339 171.247 75.339H167.479C167.428 75.339 167.379 75.3589 167.342 75.3945C167.306 75.4301 167.284 75.4786 167.283 75.5298L167.247 76.7043C167.246 76.7307 167.25 76.7569 167.26 76.7815C167.27 76.806 167.284 76.8284 167.302 76.8473C167.321 76.8662 167.343 76.8813 167.367 76.8915C167.391 76.9018 167.417 76.9071 167.444 76.9071L171.82 76.913C171.872 76.913 171.922 76.9338 171.959 76.9707C171.996 77.0076 172.017 77.0576 172.017 77.1098L172.04 78.8448C172.04 78.897 172.02 78.947 171.983 78.9839C171.946 79.0208 171.896 79.0416 171.844 79.0416H165.196C165.144 79.0416 165.094 79.0208 165.057 78.9839C165.02 78.947 164.999 78.897 164.999 78.8448V69.6987C164.999 69.6465 165.02 69.5965 165.057 69.5596C165.094 69.5227 165.144 69.502 165.196 69.502H171.707C171.759 69.502 171.809 69.5227 171.846 69.5596C171.883 69.5965 171.903 69.6465 171.903 69.6987L171.897 71.4218C171.897 71.474 171.877 71.524 171.84 71.5609C171.803 71.5978 171.753 71.6185 171.701 71.6185H167.467C167.415 71.6185 167.365 71.6393 167.328 71.6762C167.291 71.7131 167.271 71.7631 167.271 71.8153Z" fill="#1E1E1E"/>
<path d="M179.434 74.3931L179.428 69.8975C179.428 69.6392 179.557 69.51 179.815 69.51L181.389 69.498C181.592 69.498 181.693 69.5994 181.693 69.8021V78.7455C181.693 78.9403 181.594 79.0396 181.395 79.0436H180.018C179.76 79.0476 179.557 78.9403 179.41 78.7217L176.226 74.0592C176.047 73.7968 175.958 73.8247 175.958 74.1426L175.964 78.7038C175.964 78.9303 175.85 79.0436 175.624 79.0436H173.996C173.738 79.0436 173.609 78.9124 173.609 78.6501L173.603 69.82C173.603 69.6093 173.71 69.504 173.925 69.504L175.272 69.498C175.526 69.498 175.727 69.6034 175.874 69.814L179.13 74.4884C179.332 74.7826 179.434 74.7508 179.434 74.3931Z" fill="#1E1E1E"/>
<path d="M187.996 71.8034V78.8508C187.996 78.9014 187.975 78.9499 187.94 78.9857C187.904 79.0215 187.855 79.0416 187.805 79.0416H185.825C185.775 79.0416 185.726 79.0215 185.69 78.9857C185.655 78.9499 185.635 78.9014 185.635 78.8508V71.7974C185.635 71.7719 185.629 71.7466 185.619 71.723C185.61 71.6995 185.595 71.6782 185.577 71.6604C185.558 71.6426 185.536 71.6286 185.513 71.6194C185.489 71.6102 185.463 71.6058 185.438 71.6066L183.22 71.6484C183.195 71.6492 183.17 71.645 183.146 71.6361C183.123 71.6273 183.101 71.6139 183.083 71.5967C183.065 71.5796 183.05 71.559 183.04 71.5361C183.03 71.5132 183.024 71.4886 183.023 71.4635L182.993 69.6987C182.992 69.6731 182.997 69.6477 183.006 69.6239C183.015 69.6 183.029 69.5783 183.047 69.5599C183.065 69.5416 183.086 69.527 183.11 69.517C183.133 69.5071 183.158 69.5019 183.184 69.502H190.44C190.491 69.502 190.539 69.5221 190.575 69.5578C190.611 69.5936 190.631 69.6421 190.631 69.6927L190.649 71.4397C190.649 71.4903 190.629 71.5388 190.593 71.5746C190.557 71.6104 190.509 71.6305 190.458 71.6305L188.186 71.6126C188.136 71.6126 188.087 71.6327 188.051 71.6685C188.016 71.7043 187.996 71.7528 187.996 71.8034Z" fill="#1E1E1E"/>
<path d="M193.929 69.502H191.997C191.905 69.502 191.83 69.5767 191.83 69.6689V78.8746C191.83 78.9668 191.905 79.0416 191.997 79.0416H193.929C194.021 79.0416 194.096 78.9668 194.096 78.8746V69.6689C194.096 69.5767 194.021 69.502 193.929 69.502Z" fill="#1E1E1E"/>
<path d="M208.769 74.1368L208.745 78.6323C208.745 78.9066 208.61 79.0437 208.339 79.0437H206.759C206.661 79.0437 206.567 79.0054 206.498 78.9372C206.429 78.869 206.39 78.7765 206.39 78.68L206.396 69.8261C206.396 69.6154 206.501 69.5081 206.712 69.5041L208.065 69.4982C208.319 69.4942 208.52 69.5975 208.667 69.8082L211.887 74.429C212.117 74.7668 212.233 74.731 212.233 74.3216L212.215 69.8261C212.211 69.6154 212.314 69.5101 212.525 69.5101L214.182 69.4982C214.385 69.4942 214.486 69.5936 214.486 69.7963V78.7456C214.486 78.9444 214.387 79.0437 214.188 79.0437H212.733C212.64 79.0438 212.547 79.0211 212.464 78.9774C212.381 78.9338 212.31 78.8706 212.257 78.7933L209.025 74.0533C208.858 73.8069 208.773 73.8347 208.769 74.1368Z" fill="#1E1E1E"/>
<path d="M33.2277 76.8362C38.0214 79.0482 39.7862 84.5811 39.3152 89.5537C39.2913 89.7802 39.1761 89.8438 38.9694 89.7444C34.3128 87.449 30.9621 82.2499 32.7806 77.021C32.7952 76.9782 32.8188 76.939 32.8499 76.906C32.881 76.873 32.9189 76.8469 32.961 76.8295C33.0032 76.8121 33.0488 76.8036 33.0947 76.8048C33.1407 76.8059 33.186 76.8166 33.2277 76.8362Z" fill="#1E1E1E"/>
<path d="M239.926 89.5006C239.634 84.7427 241.262 78.9713 246.02 76.8189C246.246 76.7156 246.405 76.7811 246.497 77.0157C248.548 82.1611 244.845 87.5987 240.272 89.7093C240.058 89.8087 239.942 89.7391 239.926 89.5006Z" fill="#1E1E1E"/>
<path d="M13.7732 79.221C19.4314 78.118 25.5427 80.2644 29.8057 84.0266C29.8571 84.0707 29.8959 84.1275 29.9185 84.1914C29.9411 84.2553 29.9467 84.3241 29.9347 84.3912C29.9227 84.4584 29.8936 84.5215 29.8501 84.5746C29.8066 84.6277 29.7502 84.669 29.6864 84.6944C22.7941 87.4728 17.4261 85.7954 13.5824 79.6622C13.5574 79.6221 13.5424 79.5765 13.5389 79.5294C13.5354 79.4823 13.5433 79.435 13.5621 79.3916C13.5808 79.3482 13.6099 79.31 13.6466 79.2803C13.6834 79.2506 13.7268 79.2302 13.7732 79.221Z" fill="#1E1E1E"/>
<path d="M249.49 84.0193C253.866 80.1975 259.679 78.2836 265.463 79.1422C265.511 79.1491 265.557 79.1679 265.597 79.1969C265.636 79.2259 265.668 79.2643 265.69 79.3088C265.712 79.3534 265.723 79.4027 265.721 79.4525C265.72 79.5024 265.707 79.5514 265.683 79.5953C262.738 84.854 258.195 86.8613 252.054 85.6172C251.298 85.4661 250.452 85.0766 249.514 84.4486C249.319 84.3174 249.311 84.1743 249.49 84.0193Z" fill="#1E1E1E"/>
<path d="M50.0236 94.7102C44.9378 93.0229 40.5973 89.5886 41.0683 83.6383C41.0882 83.4038 41.2134 83.3084 41.4439 83.3521C46.7443 84.3299 49.8566 89.4455 50.2978 94.4956C50.3006 94.53 50.2948 94.5645 50.281 94.5961C50.2671 94.6277 50.2456 94.6554 50.2184 94.6766C50.1913 94.6979 50.1592 94.7121 50.1252 94.718C50.0912 94.7238 50.0563 94.7211 50.0236 94.7102Z" fill="#1E1E1E"/>
<path d="M229.011 94.3832C229.577 89.0946 232.493 84.7124 237.775 83.3172C238.006 83.2536 238.141 83.3391 238.181 83.5736C239.129 89.0231 234.132 93.465 229.273 94.6097C229.078 94.6534 228.991 94.5779 229.011 94.3832Z" fill="#1E1E1E"/>
<path d="M52.4859 88.4868C56.9099 89.6435 62.7052 92.1715 63.6234 97.3229C63.6671 97.5653 63.5658 97.6786 63.3193 97.6627C58.15 97.2931 52.5336 94.7114 52.1043 88.8028C52.1008 88.7545 52.1089 88.706 52.1279 88.6614C52.1469 88.6168 52.1763 88.5774 52.2137 88.5464C52.251 88.5155 52.2952 88.494 52.3426 88.4836C52.3899 88.4732 52.4391 88.4743 52.4859 88.4868Z" fill="#1E1E1E"/>
<path d="M215.696 96.7486C218.004 91.9371 221.718 89.5522 226.81 88.5386C226.985 88.5068 227.076 88.5783 227.084 88.7532C227.263 94.4472 220.895 97.482 216.197 97.5356C215.609 97.5396 215.442 97.2773 215.696 96.7486Z" fill="#1E1E1E"/>
<path d="M40.5075 91.004C41.1673 91.2822 41.1792 91.5843 40.5433 91.9102C34.4975 95.0066 28.9169 94.3985 23.8013 90.0858C23.6184 89.9347 23.6323 89.8016 23.843 89.6863C28.3266 87.2716 35.8152 89.0424 40.5075 91.004Z" fill="#1E1E1E"/>
<path d="M240.678 92.8383C239.899 92.564 239.162 92.1347 238.466 91.5504C238.311 91.4193 238.325 91.31 238.508 91.2225C243.111 89.0344 250.754 87.2874 255.488 89.6783C255.675 89.7697 255.691 89.885 255.536 90.0241C251.219 93.8717 246.267 94.8098 240.678 92.8383Z" fill="#1E1E1E"/>
<path d="M33.3528 97.8103C32.7884 97.4962 32.7625 97.1445 33.2753 96.7549C37.3654 93.6188 47.2806 94.5727 51.9312 95.8427C51.9627 95.8504 51.9914 95.8668 52.0141 95.8901C52.0367 95.9133 52.0523 95.9425 52.0592 95.9742C52.066 96.0059 52.0638 96.0389 52.0527 96.0694C52.0417 96.1 52.0223 96.1268 51.9968 96.1468C46.2015 100.932 39.9868 101.487 33.3528 97.8103Z" fill="#1E1E1E"/>
<path d="M246.373 97.4307C240.679 101.336 232.63 101.187 227.461 96.1846C227.274 96.0018 227.306 95.8765 227.556 95.809C232.463 94.4794 242.187 93.6208 246.391 97.0372C246.562 97.1763 246.556 97.3075 246.373 97.4307Z" fill="#1E1E1E"/>
<path d="M47.907 101.127C47.434 100.948 47.3962 100.703 47.7937 100.393C51.3413 97.6389 58.7643 97.9131 63.3433 98.4438C63.542 98.4676 63.6374 98.5809 63.6295 98.7836C63.5818 99.6621 63.2737 100.332 62.7053 100.793C58.496 104.197 52.641 102.921 47.907 101.127Z" fill="#1E1E1E"/>
<path d="M231.58 101.074C227.281 102.815 220.681 104.222 216.775 100.925C216.12 100.369 215.756 99.661 215.684 98.8025C215.668 98.5918 215.764 98.4725 215.97 98.4447C220.126 97.9558 228.378 97.5146 231.669 100.561C231.708 100.597 231.737 100.642 231.754 100.691C231.771 100.741 231.775 100.794 231.766 100.845C231.757 100.896 231.735 100.944 231.703 100.984C231.67 101.024 231.628 101.055 231.58 101.074Z" fill="#1E1E1E"/>
</svg>
