<svg width="279" height="103" viewBox="0 0 279 103" fill="none" xmlns="http://www.w3.org/2000/svg">
<path d="M13.6455 1.09714C13.5382 7.24422 11.8508 17.7795 7.4507 22.4599C7.28773 22.6348 7.1685 22.607 7.09298 22.3764C4.40997 14.0114 7.49837 7.01168 13.3116 0.959997C13.3391 0.933263 13.3738 0.915142 13.4114 0.907867C13.4491 0.900593 13.488 0.904489 13.5235 0.919057C13.559 0.933626 13.5894 0.958236 13.6111 0.989874C13.6327 1.02151 13.6447 1.0588 13.6455 1.09714Z" fill="#1E1E1E"/>
<path d="M265.687 0.95997C271.471 6.79701 274.607 14.1067 271.924 22.3525C271.848 22.591 271.727 22.6169 271.56 22.43C267.112 17.4814 265.52 7.48863 265.354 1.10306C265.353 1.06421 265.364 1.02612 265.385 0.993577C265.407 0.961036 265.437 0.935517 265.473 0.920214C265.509 0.904911 265.548 0.90051 265.586 0.907586C265.624 0.914662 265.66 0.932892 265.687 0.95997Z" fill="#1E1E1E"/>
<path d="M276.104 17.146C277.881 22.0351 277.499 29.2256 272.575 32.314C272.372 32.4412 272.259 32.3855 272.235 32.1471C271.698 27.1149 272.294 21.0275 275.764 17.0805C275.911 16.9095 276.025 16.9314 276.104 17.146Z" fill="#1E1E1E"/>
<path d="M3.21717 17.0594C6.71105 20.756 7.38474 27.404 6.74081 32.2095C6.70901 32.448 6.59576 32.4957 6.401 32.3526C1.55965 28.817 1.13038 22.4314 2.84155 17.1429C2.92105 16.9084 3.04626 16.8806 3.21717 17.0594Z" fill="#1E1E1E"/>
<path d="M7.33708 29.5055C7.31324 24.7536 9.78759 20.3832 13.5438 17.2888C14.1599 16.7761 14.5375 16.9152 14.6767 17.7062C15.4577 22.0705 11.1768 27.52 7.73061 29.7142C7.69241 29.7384 7.64852 29.7521 7.60332 29.7538C7.55812 29.7556 7.51322 29.7453 7.47326 29.7241C7.4333 29.7029 7.39964 29.6715 7.37573 29.6331C7.35182 29.5947 7.33847 29.5507 7.33708 29.5055Z" fill="#1E1E1E"/>
<path d="M271.684 29.2036C271.696 29.3586 271.668 29.5077 271.601 29.6508C271.587 29.6812 271.566 29.7082 271.541 29.7299C271.515 29.7516 271.485 29.7675 271.453 29.7766C271.42 29.7857 271.387 29.7876 271.354 29.7824C271.32 29.7771 271.289 29.7648 271.261 29.7462C267.207 27.087 263.933 22.1562 264.237 17.2493C264.253 16.9711 264.388 16.8876 264.643 16.9989C268.93 18.871 271.446 24.8631 271.684 29.2036Z" fill="#1E1E1E"/>
<path d="M61.0927 30.5926C57.4915 29.0425 53.8187 28.9888 51.0224 31.3975C47.7671 34.2058 47.2603 39.3035 48.9357 43.1551C50.9807 47.8534 56.937 48.3423 61.0092 46.166C61.3153 46.0031 61.4743 46.0945 61.4862 46.4403L61.5339 47.9607C61.5354 48.0433 61.5131 48.1243 61.4696 48.1933C61.426 48.2623 61.3634 48.3162 61.2895 48.3482C55.1305 50.9776 48.089 49.3141 46.1692 42.2846C43.5279 32.584 51.4279 24.5588 61.206 28.0945C61.4366 28.1779 61.5478 28.3429 61.5399 28.5893L61.4683 30.3542C61.4604 30.6165 61.3352 30.696 61.0927 30.5926Z" fill="#1E1E1E"/>
<path d="M72.0214 37.3601C74.8774 38.6957 77.5604 40.4426 77.6021 43.8709C77.6796 50.0597 69.9585 50.1969 65.6478 48.4917C65.4093 48.3963 65.29 48.2214 65.29 47.967L65.302 46.1068C65.3013 46.0529 65.3152 46.0001 65.3422 45.9535C65.3691 45.907 65.4082 45.8684 65.4555 45.8417C65.5027 45.8151 65.5565 45.8013 65.6112 45.8017C65.6659 45.8022 65.7197 45.8169 65.767 45.8444C68.0982 47.2336 71.1032 48.2114 73.5239 46.8163C76.2605 45.2303 75.5988 42.0286 73.1065 40.6036C70.8707 39.3217 67.8717 38.004 66.4706 36.0246C65.1271 34.1286 65.0456 32.2664 66.2261 30.438C68.4083 27.0633 72.7965 26.5327 76.3798 27.9159C76.6064 28.0034 76.7256 28.1663 76.7375 28.4048L76.8449 30.277C76.8481 30.3226 76.839 30.3682 76.8186 30.4091C76.7982 30.45 76.7673 30.4847 76.7289 30.5097C76.6906 30.5346 76.6464 30.5488 76.6007 30.5509C76.555 30.553 76.5097 30.5428 76.4693 30.5214C74.2036 29.323 69.6544 28.6314 68.1937 31.4098C66.7806 34.1107 69.4279 36.1438 72.0214 37.3601Z" fill="#1E1E1E"/>
<path d="M92.5977 30.5499C90.0161 29.107 83.5471 28.4393 84.0062 33.3343C84.4116 37.651 93.2357 37.5913 93.665 43.0706C93.9115 46.2426 92.5779 48.2578 89.6644 49.1164C87.7982 49.6709 84.3222 49.5993 82.4441 48.8302C81.4385 48.4208 81.1403 47.4827 81.5497 46.016C81.5612 45.9705 81.5836 45.9285 81.615 45.8937C81.6465 45.8588 81.6861 45.832 81.7305 45.8157C81.775 45.7993 81.823 45.7938 81.8704 45.7996C81.9177 45.8054 81.9632 45.8224 82.0029 45.8491C84.6462 47.6974 87.4265 47.9299 90.3441 46.5466C90.5349 46.4552 90.6799 46.3161 90.7793 46.1293C94.148 39.8033 82.5931 39.6543 81.6213 33.859C81.3073 31.9749 81.83 30.4346 83.1894 29.2382C85.8446 26.897 88.9986 26.4976 92.6515 28.0398C92.8542 28.1273 92.9535 28.2823 92.9496 28.5049L92.9197 30.3651C92.9158 30.6075 92.8084 30.6692 92.5977 30.5499Z" fill="#1E1E1E"/>
<path d="M13.7344 27.736C15.064 32.8635 12.2736 37.687 7.79002 40.0838C7.60718 40.1832 7.50582 40.1275 7.48594 39.9169C7.01691 34.5985 8.94077 30.4766 13.2574 27.5511C13.2985 27.5231 13.3456 27.5056 13.3951 27.5C13.4445 27.4944 13.4948 27.5009 13.5415 27.5191C13.5882 27.5372 13.6301 27.5663 13.6637 27.6041C13.6973 27.6418 13.7216 27.6871 13.7344 27.736Z" fill="#1E1E1E"/>
<path d="M99.7109 27.7359L112.816 47.2504C112.839 47.2851 112.851 47.326 112.85 47.3676C112.849 47.4092 112.835 47.4494 112.81 47.4829L111.784 48.9019C111.766 48.929 111.741 48.9511 111.712 48.9664C111.683 48.9816 111.65 48.9896 111.618 48.9896C111.585 48.9896 111.552 48.9816 111.523 48.9664C111.494 48.9511 111.469 48.929 111.451 48.9019L97.4214 27.9983C97.4012 27.9683 97.3893 27.9334 97.3871 27.8973C97.3849 27.8611 97.3924 27.8251 97.4089 27.7928C97.4253 27.7606 97.45 27.7333 97.4805 27.7139C97.5111 27.6944 97.5463 27.6835 97.5824 27.6823L99.544 27.6465C99.577 27.6467 99.6094 27.6549 99.6385 27.6705C99.6676 27.6861 99.6925 27.7085 99.7109 27.7359Z" fill="#1E1E1E"/>
<path d="M125.819 27.9622L117.358 40.5724C117.341 40.5973 117.318 40.6178 117.291 40.6322C117.265 40.6466 117.235 40.6543 117.205 40.6549C117.174 40.6555 117.144 40.6489 117.117 40.6356C117.09 40.6222 117.066 40.6026 117.048 40.5783L116.005 39.1653C115.981 39.1337 115.968 39.0954 115.967 39.0559C115.966 39.0164 115.977 38.9775 115.999 38.9447L123.469 27.7476C123.487 27.7222 123.51 27.7014 123.537 27.6869C123.564 27.6723 123.594 27.6645 123.624 27.6641H125.658C125.693 27.6635 125.727 27.6725 125.757 27.6902C125.787 27.7078 125.812 27.7334 125.829 27.7642C125.845 27.795 125.853 27.8297 125.851 27.8646C125.85 27.8995 125.838 27.9333 125.819 27.9622Z" fill="#1E1E1E"/>
<path d="M117.37 45.2889L129.074 27.7718C129.092 27.7464 129.115 27.7256 129.142 27.7111C129.169 27.6966 129.199 27.6888 129.229 27.6883L131.298 27.6287C131.333 27.6281 131.368 27.6371 131.398 27.6548C131.428 27.6724 131.453 27.698 131.469 27.7288C131.486 27.7596 131.494 27.7943 131.492 27.8292C131.49 27.8641 131.479 27.8979 131.459 27.9268L117.382 48.9318C117.365 48.9589 117.341 48.9812 117.313 48.9967C117.285 49.0121 117.254 49.0202 117.221 49.0202C117.189 49.0202 117.158 49.0121 117.13 48.9967C117.101 48.9812 117.078 48.9589 117.06 48.9318L106.179 32.7085C106.16 32.6796 106.148 32.6459 106.146 32.6109C106.145 32.576 106.153 32.5413 106.169 32.5105C106.186 32.4798 106.211 32.4542 106.241 32.4365C106.271 32.4188 106.305 32.4098 106.34 32.4104L108.421 32.47C108.452 32.4705 108.482 32.4783 108.509 32.4928C108.536 32.5073 108.559 32.5282 108.576 32.5535L117.048 45.2889C117.066 45.316 117.09 45.3383 117.118 45.3537C117.146 45.3692 117.177 45.3773 117.209 45.3773C117.242 45.3773 117.273 45.3692 117.301 45.3537C117.329 45.3383 117.353 45.316 117.37 45.2889Z" fill="#1E1E1E"/>
<path d="M159.607 44.8657L159.589 28.0044C159.589 27.7699 159.707 27.6546 159.941 27.6586L161.503 27.6944C161.77 27.6984 161.901 27.8335 161.897 28.0998L161.891 48.1747C161.891 48.4581 161.802 48.7343 161.638 48.9649C161.473 49.1955 161.241 49.3689 160.973 49.4609C160.705 49.5528 160.415 49.5588 160.143 49.4778C159.871 49.3969 159.632 49.2331 159.458 49.0094L146.192 31.9097C146.163 31.8709 146.121 31.8424 146.075 31.8283C146.028 31.8141 145.978 31.815 145.932 31.8308C145.886 31.8467 145.846 31.8766 145.818 31.9165C145.789 31.9563 145.774 32.004 145.775 32.0528L145.876 48.8544C145.88 49.1009 145.757 49.232 145.507 49.2479L143.921 49.3254C143.67 49.3413 143.545 49.2241 143.545 48.9737L143.551 28.1654C143.551 27.9508 143.654 27.8116 143.861 27.748C144.998 27.3943 145.906 27.6566 146.586 28.5351C150.835 34.0124 155.072 39.4917 159.297 44.973C159.319 45.0018 159.35 45.0229 159.385 45.0333C159.419 45.0437 159.457 45.043 159.491 45.0311C159.525 45.0192 159.555 44.9968 159.576 44.9672C159.597 44.9375 159.608 44.902 159.607 44.8657Z" fill="#1E1E1E"/>
<path d="M183.677 44.7284L183.635 27.9924C183.635 27.9054 183.669 27.822 183.729 27.7605C183.79 27.699 183.872 27.6645 183.957 27.6645L185.734 27.6704C185.877 27.6704 185.949 27.742 185.949 27.8851V48.902C185.949 49.1007 185.853 49.224 185.662 49.2717C184.547 49.5519 183.802 49.385 183.081 48.4191C178.891 42.8543 174.616 37.3571 170.256 31.9275C170.23 31.8973 170.195 31.8756 170.157 31.8655C170.118 31.8554 170.077 31.8573 170.04 31.8709C170.002 31.8844 169.97 31.9091 169.947 31.9416C169.923 31.974 169.911 32.0128 169.91 32.0527L169.922 48.8722C169.922 49.1663 169.775 49.3114 169.481 49.3074L167.996 49.3015C167.73 49.3015 167.597 49.1683 167.597 48.902V27.9984C167.601 27.7599 167.722 27.6426 167.96 27.6466L169.648 27.6824C169.906 27.6863 170.115 27.7917 170.274 27.9984L183.319 44.8477C183.346 44.8801 183.381 44.9039 183.422 44.9158C183.462 44.9276 183.505 44.927 183.544 44.9139C183.583 44.9008 183.617 44.8759 183.641 44.8426C183.665 44.8094 183.677 44.7695 183.677 44.7284Z" fill="#1E1E1E"/>
<path d="M265.693 27.6056C269.974 29.9905 272.102 35.1061 271.5 39.8759C271.472 40.0826 271.367 40.1363 271.184 40.0369C266.43 37.4294 264.415 33.3791 265.138 27.8858C265.146 27.8251 265.169 27.7672 265.204 27.7172C265.24 27.6672 265.287 27.6266 265.341 27.599C265.396 27.5713 265.457 27.5575 265.518 27.5587C265.579 27.5598 265.639 27.5759 265.693 27.6056Z" fill="#1E1E1E"/>
<path d="M137.428 27.6758H135.734C135.583 27.6758 135.46 27.7986 135.46 27.9501V49.0087C135.46 49.1602 135.583 49.283 135.734 49.283H137.428C137.579 49.283 137.702 49.1602 137.702 49.0087V27.9501C137.702 27.7986 137.579 27.6758 137.428 27.6758Z" fill="#1E1E1E"/>
<path d="M194.297 46.9697L204.903 46.9578C205 46.9578 205.092 46.9961 205.161 47.0643C205.229 47.1325 205.267 47.225 205.267 47.3215L205.285 48.9313C205.285 49.0278 205.247 49.1203 205.179 49.1885C205.11 49.2567 205.018 49.295 204.921 49.295L192.198 49.3069C192.101 49.3069 192.009 49.2686 191.941 49.2004C191.873 49.1322 191.834 49.0397 191.834 48.9432L191.822 28.0455C191.822 27.9491 191.861 27.8566 191.929 27.7884C191.997 27.7201 192.089 27.6818 192.186 27.6818L204.581 27.6699C204.63 27.6699 204.678 27.6795 204.722 27.6982C204.767 27.7168 204.807 27.7441 204.841 27.7785C204.875 27.8129 204.901 27.8537 204.919 27.8986C204.937 27.9434 204.946 27.9913 204.945 28.0396L204.933 29.4109C204.932 29.5063 204.893 29.5973 204.825 29.6642C204.757 29.7311 204.665 29.7686 204.57 29.7686L194.303 29.8163C194.207 29.8179 194.116 29.8569 194.049 29.9249C193.982 29.993 193.945 30.0846 193.945 30.18L194.016 36.9054C194.018 37.0009 194.057 37.0919 194.125 37.1588C194.193 37.2257 194.285 37.2632 194.38 37.2632L202.644 37.2512C202.693 37.2512 202.741 37.261 202.786 37.28C202.831 37.2991 202.871 37.3269 202.905 37.362C202.939 37.397 202.966 37.4385 202.983 37.484C203.001 37.5295 203.009 37.5781 203.007 37.6269L202.972 38.9743C202.97 39.0698 202.931 39.1607 202.863 39.2277C202.795 39.2946 202.703 39.3321 202.608 39.3321L194.344 39.4155C194.249 39.4171 194.158 39.4561 194.091 39.5242C194.024 39.5922 193.987 39.6838 193.987 39.7793L193.927 46.6001C193.926 46.6488 193.935 46.6973 193.953 46.7425C193.972 46.7877 193.999 46.8288 194.033 46.8632C194.068 46.8977 194.109 46.9249 194.154 46.9432C194.199 46.9615 194.248 46.9705 194.297 46.9697Z" fill="#1E1E1E"/>
<path d="M219.754 39.3877C221.893 42.4046 223.723 45.6023 225.245 48.981C225.345 49.1996 225.275 49.3089 225.037 49.3089H223.159C223.065 49.3087 222.974 49.2831 222.894 49.2348C222.814 49.1865 222.749 49.1172 222.705 49.0346C221.541 46.8524 220.396 44.6663 219.271 42.4761C217.793 39.5964 215.432 39.7454 212.623 39.9839C212.381 40.0038 212.26 40.135 212.26 40.3774L212.248 48.9452C212.248 49.1877 212.128 49.3069 211.89 49.3029H210.37C210.273 49.3029 210.181 49.2646 210.112 49.1964C210.044 49.1282 210.006 49.0357 210.006 48.9392V28.0296C210.006 27.8587 210.093 27.7693 210.268 27.7613C214.794 27.5705 220.875 26.8133 223.01 30.4801C224.947 33.807 223.498 37.6646 219.856 39.0419C219.673 39.1134 219.639 39.2287 219.754 39.3877ZM212.248 30.2476L212.212 37.3426C212.212 37.4634 212.259 37.5793 212.344 37.6652C212.429 37.7511 212.544 37.8002 212.665 37.8017L217.292 37.8256C217.839 37.8289 218.382 37.7306 218.889 37.5364C219.396 37.3422 219.857 37.0559 220.246 36.6938C220.635 36.3317 220.945 35.9009 221.157 35.426C221.369 34.9512 221.48 34.4416 221.483 33.9263V33.7593C221.489 32.719 221.056 31.7188 220.279 30.9786C219.502 30.2384 218.445 29.8189 217.339 29.8123L212.713 29.7885C212.652 29.7877 212.592 29.799 212.535 29.8217C212.479 29.8444 212.427 29.8781 212.384 29.9208C212.341 29.9635 212.307 30.0144 212.283 30.0705C212.26 30.1266 212.248 30.1868 212.248 30.2476Z" fill="#1E1E1E"/>
<path d="M6.44375 41.6821C1.14927 39.6271 -0.706958 35.7695 0.875026 30.1094C0.938623 29.8788 1.0817 29.8053 1.30429 29.8888C4.73259 31.1706 6.7538 38.2717 6.98037 41.2886C7.00819 41.702 6.82931 41.8331 6.44375 41.6821Z" fill="#1E1E1E"/>
<path d="M272.819 41.6058C272.259 41.8403 272.005 41.6535 272.056 41.0454C272.331 37.8615 274.274 31.4521 277.685 29.8959C277.915 29.7926 278.064 29.8622 278.132 30.1046C279.726 35.6217 277.955 39.4554 272.819 41.6058Z" fill="#1E1E1E"/>
<path d="M14.0152 38.5625C15.6668 43.064 12.477 48.0723 9.11426 50.9521C9.08343 50.9797 9.04591 50.9985 9.00537 51.0068C8.96483 51.0151 8.92262 51.0125 8.88296 50.9992C8.84329 50.986 8.80746 50.9626 8.77902 50.9314C8.75058 50.9001 8.73051 50.862 8.72073 50.8209C7.52828 45.5384 9.10034 41.3906 13.4369 38.3777C13.7072 38.1869 13.8999 38.2485 14.0152 38.5625Z" fill="#1E1E1E"/>
<path d="M269.892 50.929C266.457 48.0194 263.411 43.1065 265.003 38.5215C265.02 38.4722 265.048 38.4273 265.085 38.3904C265.122 38.3536 265.166 38.3257 265.215 38.309C265.265 38.2922 265.317 38.2871 265.368 38.294C265.419 38.3009 265.467 38.3195 265.509 38.3486C269.91 41.3218 271.497 45.4735 270.273 50.8038C270.265 50.8435 270.246 50.8803 270.219 50.9105C270.192 50.9407 270.157 50.9632 270.118 50.9759C270.08 50.9885 270.039 50.9909 269.999 50.9827C269.959 50.9744 269.922 50.9559 269.892 50.929Z" fill="#1E1E1E"/>
<path d="M1.58918 40.8782C5.91778 43.4539 7.75413 48.0448 8.72598 52.6894C8.77765 52.9279 8.68426 53.0173 8.44577 52.9577C3.13937 51.5983 -0.17571 46.441 1.14791 41.063C1.21151 40.8047 1.35864 40.7431 1.58918 40.8782Z" fill="#1E1E1E"/>
<path d="M270.297 52.6761C271.364 47.8407 273.075 43.5777 277.398 40.8589C277.609 40.7277 277.752 40.7814 277.827 41.0199C279.431 46.3978 275.711 51.573 270.577 52.9384C270.339 53.002 270.245 52.9145 270.297 52.6761Z" fill="#1E1E1E"/>
<path d="M14.8549 48.2285C17.681 52.9387 16.8343 57.7979 13.7161 62.1265C13.6829 62.1709 13.6388 62.2061 13.5881 62.2285C13.5374 62.2509 13.4818 62.2598 13.4267 62.2544C13.3715 62.249 13.3187 62.2295 13.2733 62.1977C13.2279 62.1659 13.1914 62.1229 13.1675 62.0729C11.3669 58.251 10.2698 50.9056 14.4255 48.1331C14.6004 48.0139 14.7436 48.0457 14.8549 48.2285Z" fill="#1E1E1E"/>
<path d="M263.858 48.6092C264.089 48.1243 264.421 48.0408 264.854 48.3588C268.676 51.1551 267.686 58.4231 265.784 62.0839C265.665 62.3105 265.528 62.3244 265.373 62.1257C262.077 57.964 261.573 53.4585 263.858 48.6092Z" fill="#1E1E1E"/>
<path d="M1.82928 53.2649C6.78391 53.879 11.9592 60.6104 13.8492 64.8197C13.8691 64.8595 13.8572 64.8793 13.8135 64.8793C7.24903 64.939 1.25098 60.6998 1.57294 53.4855C1.58089 53.3185 1.66631 53.245 1.82928 53.2649Z" fill="#1E1E1E"/>
<path d="M265.282 64.6002C267.243 60.3134 272.264 53.9576 277.194 53.254C277.377 53.2302 277.473 53.3117 277.48 53.4985C277.707 60.4743 272.037 64.8983 265.437 64.8447C265.258 64.8407 265.206 64.7592 265.282 64.6002Z" fill="#1E1E1E"/>
<path d="M18.368 58.3932C18.682 57.7294 19.0775 57.6757 19.5545 58.2322C22.8636 62.0898 22.5058 69.167 20.7588 73.6446C20.6634 73.895 20.5283 73.9189 20.3534 73.7162C16.4025 69.0974 15.7406 63.9898 18.368 58.3932Z" fill="#1E1E1E"/>
<path d="M258.258 73.6328C256.488 69.1671 256.118 61.6845 259.773 57.7971C259.813 57.7548 259.862 57.7225 259.917 57.703C259.972 57.6834 260.03 57.6772 260.088 57.6848C260.145 57.6924 260.199 57.7136 260.246 57.7466C260.293 57.7796 260.331 57.8235 260.357 57.8746C263.326 63.5824 262.768 68.859 258.682 73.7044C258.503 73.915 258.362 73.8912 258.258 73.6328Z" fill="#1E1E1E"/>
<path d="M7.04489 66.5386C11.7968 66.8725 17.7293 71.9822 20.7939 75.4045C20.9529 75.5794 20.9131 75.6728 20.6746 75.6848C14.3785 75.9888 6.72296 75.0826 6.70508 66.8606C6.70508 66.6301 6.81833 66.5227 7.04489 66.5386Z" fill="#1E1E1E"/>
<path d="M258.27 75.2883C261.484 71.8481 267.083 67.0306 271.912 66.5357C272.214 66.5039 272.359 66.6411 272.347 66.9471C272.031 75.0737 264.817 76.0217 258.419 75.664C258.101 75.6441 258.052 75.5189 258.27 75.2883Z" fill="#1E1E1E"/>
<path d="M25.3308 67.0381C29.397 70.9494 30.7684 77.3588 29.3017 82.689C29.291 82.7287 29.2704 82.7649 29.2416 82.7943C29.2129 82.8237 29.177 82.8453 29.1372 82.8572C29.0974 82.8691 29.055 82.8708 29.014 82.8623C28.9729 82.8537 28.9344 82.8351 28.9022 82.8083C24.3589 78.9865 22.0992 72.6724 24.8836 67.1156C24.9989 66.889 25.1479 66.8632 25.3308 67.0381Z" fill="#1E1E1E"/>
<path d="M249.673 82.4389C248.231 77.2815 249.727 70.8721 253.674 67.0443C253.705 67.0132 253.744 66.9899 253.786 66.9764C253.828 66.9629 253.872 66.9594 253.916 66.9664C253.959 66.9734 254.001 66.9906 254.036 67.0165C254.072 67.0425 254.101 67.0765 254.121 67.1159C256.989 72.5833 254.634 78.5694 250.425 82.6475C250.059 82.9973 249.809 82.9278 249.673 82.4389Z" fill="#1E1E1E"/>
<path d="M83.433 75.4527C83.5304 75.3258 83.5908 75.1743 83.6077 75.0151C83.6246 74.8559 83.5972 74.6954 83.5286 74.5514C83.46 74.4073 83.3528 74.2854 83.2191 74.1993C83.0854 74.1132 82.9303 74.0662 82.7712 74.0635C81.0501 74.0238 79.8338 73.3361 79.1223 72.0006C77.1846 68.3815 84.2022 65.8833 85.7166 70.677C85.7722 70.8519 85.7186 70.9771 85.5556 71.0526C84.4427 71.5693 83.6159 71.3547 83.0753 70.4087C82.956 70.198 82.7752 70.0788 82.5327 70.0509C82.1352 70.0072 81.7795 70.1364 81.4655 70.4385C81.3597 70.5414 81.2853 70.6722 81.2507 70.8157C81.2162 70.9592 81.223 71.1095 81.2705 71.2493C81.3179 71.3891 81.4039 71.5125 81.5186 71.6054C81.6334 71.6983 81.7721 71.7567 81.9187 71.774C82.8647 71.8814 83.7272 72.1795 84.5062 72.6684C85.9014 73.5448 86.444 75.3454 85.4245 76.6631C83.7193 78.8631 78.9256 78.4816 78.7765 75.1129C78.7726 74.9738 78.8401 74.8943 78.9792 74.8744L80.6308 74.6657C80.8454 74.6379 80.9766 74.7313 81.0243 74.9459L81.1078 75.3514C81.1436 75.5104 81.231 75.6316 81.3701 75.7151C82.2088 76.2398 82.8964 76.1523 83.433 75.4527Z" fill="#1E1E1E"/>
<path d="M110.686 75.7926C111.311 76.1424 111.901 76.1146 112.457 75.7091C112.579 75.6209 112.673 75.4998 112.728 75.3599C112.783 75.22 112.797 75.0672 112.768 74.9191C112.74 74.771 112.669 74.6338 112.566 74.5235C112.462 74.4132 112.329 74.3343 112.183 74.2961C109.768 73.682 106.698 72.418 108.558 69.1984C108.848 68.6896 109.651 68.3517 110.967 68.1848C113.101 67.9185 114.417 68.7591 114.914 70.7068C114.953 70.8618 114.902 70.9731 114.759 71.0407C113.642 71.5813 112.831 71.3666 112.326 70.3968C112.239 70.2298 112.101 70.1245 111.915 70.0808C111.39 69.9615 110.943 70.1205 110.573 70.5578C110.492 70.6541 110.439 70.7703 110.418 70.8942C110.397 71.0182 110.409 71.1455 110.453 71.2632C110.497 71.3808 110.572 71.4846 110.67 71.5639C110.767 71.6432 110.884 71.6952 111.008 71.7144C112.612 71.9529 114.496 72.6147 115.015 74.302C116.321 78.5412 108.236 79.6442 107.992 75.107C107.984 74.9559 108.055 74.8744 108.206 74.8625L109.816 74.6956C110.046 74.6757 110.192 74.777 110.251 74.9996L110.341 75.3454C110.388 75.5442 110.504 75.6932 110.686 75.7926Z" fill="#1E1E1E"/>
<path d="M124.336 77.9732C123.084 77.9644 121.886 77.4353 121.007 76.5022C120.128 75.5691 119.639 74.3085 119.649 72.9976C119.653 72.3485 119.78 71.7067 120.021 71.1087C120.263 70.5107 120.614 69.9682 121.056 69.5123C121.498 69.0564 122.021 68.696 122.595 68.4516C123.17 68.2072 123.785 68.0837 124.405 68.088C125.657 68.0967 126.855 68.6259 127.734 69.559C128.613 70.4921 129.102 71.7527 129.093 73.0636C129.088 73.7126 128.961 74.3545 128.72 74.9525C128.478 75.5505 128.127 76.0929 127.685 76.5488C127.243 77.0047 126.72 77.3652 126.146 77.6096C125.571 77.8539 124.956 77.9775 124.336 77.9732ZM124.367 75.7851C124.687 75.7863 125.004 75.7161 125.301 75.5787C125.597 75.4413 125.867 75.2394 126.094 74.9844C126.321 74.7294 126.502 74.4263 126.626 74.0926C126.749 73.7588 126.814 73.4009 126.815 73.0391C126.816 72.6774 126.755 72.319 126.633 71.9843C126.512 71.6497 126.333 71.3454 126.108 71.0888C125.882 70.8323 125.614 70.6284 125.319 70.4889C125.023 70.3495 124.706 70.2771 124.386 70.276C124.066 70.2749 123.749 70.3451 123.452 70.4825C123.156 70.6199 122.886 70.8218 122.659 71.0768C122.432 71.3318 122.251 71.6348 122.127 71.9686C122.004 72.3024 121.939 72.6603 121.938 73.0221C121.937 73.3838 121.999 73.7422 122.12 74.0768C122.241 74.4115 122.42 74.7158 122.645 74.9723C122.871 75.2289 123.139 75.4328 123.434 75.5722C123.73 75.7117 124.047 75.784 124.367 75.7851Z" fill="#1E1E1E"/>
<path d="M89.3611 68.2615H87.5843C87.4493 68.2615 87.3398 68.3709 87.3398 68.5059V77.5566C87.3398 77.6916 87.4493 77.8011 87.5843 77.8011H89.3611C89.4961 77.8011 89.6055 77.6916 89.6055 77.5566V68.5059C89.6055 68.3709 89.4961 68.2615 89.3611 68.2615Z" fill="#1E1E1E"/>
<path d="M93.147 70.3485L90.9707 70.4081C90.935 70.4089 90.8995 70.4026 90.8662 70.3894C90.833 70.3763 90.8027 70.3567 90.7771 70.3317C90.7516 70.3067 90.7313 70.2768 90.7175 70.2439C90.7036 70.211 90.6965 70.1756 90.6965 70.1398L90.6846 68.53C90.6846 68.4589 90.7129 68.3906 90.7632 68.3403C90.8135 68.29 90.8818 68.2617 90.9529 68.2617H98.1493C98.2205 68.2617 98.2887 68.29 98.3391 68.3403C98.3894 68.3906 98.4176 68.4589 98.4176 68.53L98.4057 70.1339C98.4057 70.1696 98.3986 70.205 98.3847 70.2379C98.3708 70.2709 98.3506 70.3007 98.325 70.3257C98.2995 70.3507 98.2692 70.3704 98.2359 70.3835C98.2027 70.3966 98.1671 70.403 98.1314 70.4022L95.9671 70.3425C95.9314 70.3417 95.8958 70.3481 95.8626 70.3612C95.8294 70.3744 95.7991 70.394 95.7735 70.419C95.748 70.444 95.7277 70.4738 95.7138 70.5068C95.7 70.5397 95.6929 70.5751 95.6929 70.6108L95.6809 77.533C95.6809 77.6042 95.6527 77.6724 95.6023 77.7227C95.552 77.7731 95.4838 77.8013 95.4127 77.8013H93.6955C93.6244 77.8013 93.5561 77.7731 93.5058 77.7227C93.4555 77.6724 93.4272 77.6042 93.4272 77.533L93.4212 70.6168C93.4212 70.5811 93.4141 70.5457 93.4003 70.5127C93.3864 70.4798 93.3661 70.4499 93.3406 70.4249C93.315 70.4 93.2847 70.3803 93.2515 70.3672C93.2183 70.3541 93.1827 70.3477 93.147 70.3485Z" fill="#1E1E1E"/>
<path d="M102.096 70.6166L102.108 71.7375C102.108 71.7664 102.114 71.7951 102.125 71.8219C102.136 71.8487 102.152 71.873 102.173 71.8935C102.193 71.914 102.217 71.9302 102.244 71.9413C102.271 71.9524 102.3 71.9581 102.328 71.9581L106.067 71.964C106.125 71.964 106.181 71.9873 106.223 72.0286C106.264 72.07 106.287 72.1261 106.287 72.1846L106.311 73.872C106.311 73.9305 106.288 73.9866 106.247 74.0279C106.205 74.0693 106.149 74.0926 106.091 74.0926L102.352 74.1343C102.297 74.1357 102.244 74.158 102.204 74.1967C102.164 74.2353 102.141 74.2876 102.138 74.343L102.09 75.446C102.088 75.4764 102.093 75.5069 102.104 75.5355C102.114 75.5641 102.131 75.5901 102.152 75.612C102.174 75.6338 102.199 75.651 102.227 75.6625C102.256 75.6739 102.286 75.6794 102.317 75.6785L106.633 75.6547C106.691 75.6546 106.746 75.6771 106.787 75.7172C106.828 75.7573 106.852 75.8118 106.854 75.8693L106.919 77.5745C106.92 77.604 106.915 77.6333 106.904 77.6608C106.894 77.6882 106.878 77.7133 106.857 77.7344C106.836 77.7555 106.812 77.7723 106.785 77.7837C106.757 77.7952 106.728 77.8011 106.699 77.8011H100.081C100.022 77.8011 99.9661 77.7778 99.9247 77.7365C99.8834 77.6951 99.8601 77.639 99.8601 77.5805V68.4821C99.8601 68.4236 99.8834 68.3675 99.9247 68.3261C99.9661 68.2847 100.022 68.2615 100.081 68.2615H106.544C106.602 68.2615 106.658 68.2847 106.7 68.3261C106.741 68.3675 106.764 68.4236 106.764 68.4821L106.741 70.1694C106.739 70.2259 106.716 70.2796 106.676 70.3195C106.636 70.3594 106.582 70.3825 106.526 70.384L102.317 70.396C102.258 70.396 102.202 70.4192 102.161 70.4606C102.119 70.502 102.096 70.5581 102.096 70.6166Z" fill="#1E1E1E"/>
<path d="M132.868 74.7427L132.891 77.6105C132.891 77.6611 132.871 77.7097 132.836 77.7454C132.8 77.7812 132.751 77.8013 132.701 77.8013H130.721C130.671 77.8013 130.622 77.7812 130.586 77.7454C130.55 77.7097 130.53 77.6611 130.53 77.6105L130.524 68.4525C130.524 68.4019 130.544 68.3534 130.58 68.3176C130.616 68.2818 130.665 68.2617 130.715 68.2617H136.982C137.032 68.2617 137.081 68.2818 137.116 68.3176C137.152 68.3534 137.172 68.4019 137.172 68.4525L137.166 70.1935C137.166 70.2441 137.146 70.2926 137.11 70.3284C137.075 70.3642 137.026 70.3843 136.976 70.3843L133.076 70.3783C133.026 70.3783 132.977 70.3984 132.941 70.4342C132.906 70.47 132.885 70.5185 132.885 70.5691L132.891 72.2445C132.891 72.2951 132.912 72.3436 132.947 72.3794C132.983 72.4152 133.032 72.4353 133.082 72.4353H136.254C136.305 72.4353 136.353 72.4554 136.389 72.4912C136.425 72.527 136.445 72.5755 136.445 72.6261L136.469 74.3671C136.469 74.4177 136.449 74.4662 136.413 74.502C136.377 74.5378 136.329 74.5579 136.278 74.5579L133.058 74.5519C133.008 74.5519 132.959 74.572 132.923 74.6078C132.888 74.6436 132.868 74.6921 132.868 74.7427Z" fill="#1E1E1E"/>
<path d="M146.694 70.5691L146.705 77.6046C146.705 77.6552 146.685 77.7037 146.65 77.7395C146.614 77.7753 146.565 77.7954 146.515 77.7954L144.541 77.8013C144.491 77.8013 144.442 77.7812 144.406 77.7454C144.371 77.7097 144.35 77.6611 144.35 77.6105L144.344 70.5572C144.344 70.5316 144.339 70.5063 144.329 70.4828C144.319 70.4592 144.305 70.4379 144.287 70.4201C144.268 70.4023 144.246 70.3884 144.223 70.3792C144.199 70.3699 144.173 70.3656 144.148 70.3664L141.93 70.4141C141.905 70.4149 141.88 70.4107 141.856 70.4019C141.833 70.393 141.811 70.3796 141.793 70.3625C141.775 70.3453 141.76 70.3247 141.75 70.3018C141.739 70.279 141.734 70.2543 141.733 70.2293L141.703 68.4585C141.702 68.4329 141.707 68.4075 141.716 68.3836C141.725 68.3598 141.739 68.338 141.757 68.3197C141.775 68.3013 141.796 68.2867 141.82 68.2768C141.843 68.2668 141.868 68.2617 141.894 68.2617H149.15C149.201 68.2617 149.249 68.2818 149.285 68.3176C149.321 68.3534 149.341 68.4019 149.341 68.4525L149.347 70.1935C149.347 70.2441 149.327 70.2926 149.291 70.3284C149.255 70.3642 149.207 70.3843 149.156 70.3843L146.884 70.3783C146.834 70.3783 146.785 70.3984 146.749 70.4342C146.714 70.47 146.694 70.5185 146.694 70.5691Z" fill="#1E1E1E"/>
<path d="M156.275 71.7616L156.263 68.4585C156.263 68.4063 156.284 68.3562 156.32 68.3193C156.357 68.2824 156.407 68.2617 156.46 68.2617H158.433C158.485 68.2617 158.535 68.2824 158.572 68.3193C158.609 68.3562 158.63 68.4063 158.63 68.4585L158.636 77.5986C158.636 77.6508 158.615 77.7008 158.578 77.7377C158.541 77.7746 158.491 77.7954 158.439 77.7954L156.448 77.8013C156.395 77.8013 156.345 77.7806 156.309 77.7437C156.272 77.7068 156.251 77.6568 156.251 77.6046L156.269 74.3134C156.269 74.2612 156.248 74.2112 156.211 74.1743C156.174 74.1374 156.124 74.1167 156.072 74.1167L152.996 74.0928C152.97 74.0928 152.944 74.0979 152.92 74.1078C152.896 74.1177 152.875 74.1322 152.856 74.1504C152.838 74.1687 152.824 74.1904 152.814 74.2143C152.804 74.2381 152.799 74.2637 152.799 74.2895L152.805 77.5986C152.805 77.6508 152.784 77.7008 152.747 77.7377C152.71 77.7746 152.66 77.7954 152.608 77.7954L150.736 77.8013C150.684 77.8013 150.634 77.7806 150.597 77.7437C150.56 77.7068 150.539 77.6568 150.539 77.6046V68.4585C150.539 68.4063 150.56 68.3562 150.597 68.3193C150.634 68.2824 150.684 68.2617 150.736 68.2617H152.59C152.642 68.2617 152.692 68.2824 152.729 68.3193C152.766 68.3562 152.787 68.4063 152.787 68.4585L152.811 71.7735C152.811 71.8257 152.831 71.8757 152.868 71.9126C152.905 71.9495 152.955 71.9702 153.007 71.9702L156.078 71.9583C156.13 71.9583 156.18 71.9376 156.217 71.9007C156.254 71.8638 156.275 71.8137 156.275 71.7616Z" fill="#1E1E1E"/>
<path d="M162.893 71.9643L166.649 71.9702C166.7 71.9702 166.749 71.9901 166.786 72.0257C166.823 72.0614 166.844 72.1099 166.846 72.161L166.887 73.902C166.888 73.9283 166.884 73.9546 166.874 73.9791C166.865 74.0037 166.85 74.0261 166.832 74.045C166.814 74.0639 166.792 74.0789 166.767 74.0892C166.743 74.0995 166.717 74.1047 166.691 74.1047L162.881 74.0988C162.829 74.0988 162.779 74.1195 162.742 74.1564C162.705 74.1933 162.684 74.2433 162.684 74.2955L162.702 75.488C162.702 75.5401 162.723 75.5902 162.76 75.6271C162.796 75.664 162.847 75.6847 162.899 75.6847L167.281 75.6788C167.333 75.6788 167.383 75.6995 167.42 75.7364C167.457 75.7733 167.478 75.8233 167.478 75.8755L167.46 77.6046C167.46 77.6568 167.439 77.7068 167.402 77.7437C167.365 77.7806 167.315 77.8013 167.263 77.8013H160.532C160.48 77.8013 160.429 77.7806 160.393 77.7437C160.356 77.7068 160.335 77.6568 160.335 77.6046V68.4585C160.335 68.4063 160.356 68.3562 160.393 68.3193C160.429 68.2824 160.48 68.2617 160.532 68.2617H167.037C167.089 68.2617 167.139 68.2824 167.176 68.3193C167.213 68.3562 167.233 68.4063 167.233 68.4585L167.227 70.1756C167.227 70.2278 167.207 70.2778 167.17 70.3147C167.133 70.3516 167.083 70.3724 167.031 70.3724L162.887 70.3783C162.835 70.3783 162.785 70.3991 162.748 70.436C162.711 70.4729 162.69 70.5229 162.69 70.5751L162.696 71.7675C162.696 71.8197 162.717 71.8697 162.754 71.9066C162.791 71.9435 162.841 71.9643 162.893 71.9643Z" fill="#1E1E1E"/>
<path d="M172.819 68.5059C172.819 68.4427 172.845 68.382 172.889 68.3373C172.934 68.2926 172.995 68.2674 173.058 68.2674L176.152 68.2615C176.781 68.2607 177.404 68.3805 177.985 68.614C178.566 68.8476 179.094 69.1904 179.54 69.6228C179.985 70.0552 180.338 70.5687 180.579 71.1341C180.821 71.6995 180.945 72.3057 180.946 72.918V73.1446C180.948 74.3811 180.445 75.5676 179.548 76.4431C178.651 77.3186 177.434 77.8113 176.164 77.813L173.07 77.819C173.007 77.819 172.946 77.7938 172.901 77.7491C172.857 77.7044 172.831 77.6437 172.831 77.5805L172.819 68.5059ZM175.169 70.712L175.145 75.3625C175.144 75.4084 175.152 75.454 175.169 75.4967C175.186 75.5393 175.212 75.5782 175.244 75.6109C175.276 75.6437 175.314 75.6697 175.357 75.6874C175.399 75.7052 175.445 75.7143 175.491 75.7143H175.908C176.644 75.7178 177.351 75.4504 177.874 74.9708C178.397 74.4913 178.694 73.8388 178.698 73.1565V72.9657C178.7 72.6271 178.631 72.2913 178.493 71.9776C178.355 71.6638 178.152 71.3784 177.895 71.1375C177.638 70.8966 177.332 70.705 176.995 70.5736C176.658 70.4423 176.297 70.3738 175.932 70.3721H175.514C175.424 70.3721 175.337 70.4077 175.272 70.4713C175.207 70.5349 175.17 70.6213 175.169 70.712Z" fill="#1E1E1E"/>
<path d="M183.891 76.2917L183.629 77.4663C183.581 77.6889 183.442 77.8002 183.212 77.8002L181.429 77.7942C181.206 77.7942 181.133 77.6889 181.208 77.4782L184.195 69.1609C184.306 68.853 184.509 68.587 184.777 68.3991C185.045 68.2112 185.364 68.1107 185.691 68.1113C186.018 68.112 186.337 68.2138 186.604 68.4027C186.871 68.5917 187.073 68.8586 187.182 69.1668L190.11 77.4365C190.193 77.675 190.11 77.7942 189.859 77.7942L188.214 77.8002C187.967 77.8002 187.812 77.6829 187.749 77.4484L187.445 76.3632C187.377 76.1287 187.22 76.0115 186.974 76.0115H184.237C184.046 76.0115 183.931 76.1049 183.891 76.2917ZM184.959 74.0082L186.324 73.9605C186.558 73.9525 186.636 73.8392 186.556 73.6206L185.817 71.5517C185.726 71.3013 185.636 71.3013 185.549 71.5517L184.78 73.7637C184.77 73.7919 184.767 73.8219 184.772 73.8513C184.776 73.8807 184.788 73.9085 184.805 73.9325C184.823 73.9565 184.846 73.9759 184.873 73.9891C184.899 74.0023 184.929 74.0088 184.959 74.0082Z" fill="#1E1E1E"/>
<path d="M194.075 71.5349L195.601 68.4763C195.677 68.3292 195.796 68.2577 195.959 68.2616L197.766 68.2676C198.036 68.2716 198.108 68.3908 197.98 68.6253C197.146 70.1755 196.325 71.7197 195.518 73.258C194.773 74.6711 194.964 75.9052 195.011 77.4256C195.019 77.676 194.898 77.8012 194.648 77.8012H192.907C192.704 77.8012 192.608 77.6999 192.62 77.4972C192.734 75.7144 192.811 74.361 191.893 72.7154C191.13 71.3521 190.396 69.9788 189.693 68.5955C189.578 68.3729 189.645 68.2616 189.896 68.2616H191.571C191.829 68.2616 192.018 68.3769 192.137 68.6074L193.628 71.5349C193.779 71.833 193.928 71.833 194.075 71.5349Z" fill="#1E1E1E"/>
<path d="M33.1114 76.7518C37.9051 78.9996 39.5805 84.622 39.2168 89.4752C39.2136 89.524 39.1981 89.5712 39.172 89.6124C39.1459 89.6537 39.1098 89.6878 39.0671 89.7115C39.0244 89.7352 38.9764 89.7478 38.9275 89.7482C38.8787 89.7486 38.8305 89.7368 38.7874 89.7137C34.113 87.2871 30.8696 82.3027 32.6165 76.9664C32.6318 76.9183 32.6573 76.8739 32.6913 76.8364C32.7253 76.7989 32.7671 76.769 32.8139 76.7487C32.8606 76.7285 32.9114 76.7182 32.9627 76.7188C33.0139 76.7193 33.0646 76.7306 33.1114 76.7518Z" fill="#1E1E1E"/>
<path d="M245.69 76.8295C245.759 76.7925 245.836 76.771 245.914 76.7665C245.993 76.762 246.072 76.7747 246.145 76.8036C246.218 76.8326 246.284 76.877 246.338 76.934C246.392 76.991 246.434 77.0591 246.459 77.1336C248.182 82.3625 244.682 87.5079 240.133 89.7437C240.098 89.7614 240.059 89.7699 240.02 89.7685C239.981 89.7671 239.942 89.7559 239.908 89.7359C239.874 89.7159 239.845 89.6876 239.824 89.6536C239.803 89.6197 239.79 89.581 239.787 89.541C239.447 84.6162 241.039 79.3038 245.69 76.8295Z" fill="#1E1E1E"/>
<path d="M29.6247 83.8464C29.9188 84.0809 29.903 84.2895 29.577 84.4724C23.5373 87.8709 16.7761 85.3786 13.4432 79.5833C13.4217 79.5482 13.4089 79.5085 13.4059 79.4674C13.403 79.4263 13.4099 79.3849 13.4261 79.3466C13.4424 79.3083 13.4675 79.2741 13.4995 79.2469C13.5314 79.2197 13.5693 79.2001 13.6101 79.1898C19.149 77.8662 25.1888 80.3465 29.6247 83.8464Z" fill="#1E1E1E"/>
<path d="M249.376 83.9607C253.669 80.1032 259.631 78.2489 265.343 79.1134C265.397 79.1213 265.447 79.1423 265.491 79.1746C265.534 79.2069 265.569 79.2494 265.592 79.2984C265.615 79.3474 265.626 79.4014 265.623 79.4555C265.62 79.5095 265.604 79.562 265.575 79.6083C261.771 85.7375 256.413 87.4208 249.501 84.6583C249.435 84.6321 249.377 84.5895 249.332 84.5345C249.287 84.4796 249.257 84.4141 249.245 84.3443C249.232 84.2745 249.238 84.2027 249.261 84.1355C249.284 84.0684 249.323 84.0083 249.376 83.9607Z" fill="#1E1E1E"/>
<path d="M49.7707 94.6203C44.6671 93.255 40.4458 89.0814 40.9168 83.6021C40.9367 83.3795 41.0559 83.2861 41.2745 83.3219C46.5213 84.1983 49.6933 89.3378 50.0987 94.3461C50.1186 94.5925 50.0092 94.6839 49.7707 94.6203Z" fill="#1E1E1E"/>
<path d="M228.859 94.3344C229.42 89.0519 232.359 84.6458 237.636 83.2685C237.689 83.2543 237.745 83.252 237.799 83.2618C237.853 83.2716 237.904 83.2932 237.949 83.325C237.994 83.3569 238.032 83.3983 238.059 83.4462C238.086 83.4941 238.102 83.5474 238.107 83.6024C238.56 89.1413 234.345 93.3268 229.116 94.555C228.925 94.5987 228.839 94.5252 228.859 94.3344Z" fill="#1E1E1E"/>
<path d="M63.1982 97.6016C57.8918 97.1783 52.484 94.7696 51.9653 88.7537C51.9455 88.5311 52.0468 88.4417 52.2694 88.4854C57.1704 89.4751 62.0654 92.1343 63.5023 97.226C63.5161 97.2716 63.5184 97.32 63.5093 97.3667C63.5001 97.4135 63.4796 97.4573 63.4497 97.4943C63.4197 97.5314 63.3811 97.5605 63.3373 97.5792C63.2934 97.5979 63.2457 97.6056 63.1982 97.6016Z" fill="#1E1E1E"/>
<path d="M215.546 96.6055C217.99 91.7045 221.687 89.5462 226.689 88.4849C226.872 88.4451 226.963 88.5206 226.963 88.7114C226.993 94.3994 220.852 97.4044 216.118 97.5058C215.43 97.5177 215.24 97.2176 215.546 96.6055Z" fill="#1E1E1E"/>
<path d="M40.6112 91.05C40.9173 91.1772 40.9371 91.3422 40.6708 91.5449C35.579 95.4442 28.0368 93.9477 23.6545 90.0007C23.4995 89.8576 23.5135 89.7383 23.6963 89.6429C28.2813 87.1984 35.7341 89.0169 40.6112 91.05Z" fill="#1E1E1E"/>
<path d="M240.533 92.7552C239.639 92.4451 238.908 92.0338 238.339 91.521C238.156 91.3541 238.178 91.2189 238.405 91.1156C243.193 88.9274 250.353 87.3236 255.344 89.6071C255.55 89.7025 255.568 89.8257 255.397 89.9768C251.128 93.7847 246.174 94.7108 240.533 92.7552Z" fill="#1E1E1E"/>
<path d="M33.2074 97.7618C32.635 97.4439 32.6152 97.0961 33.1478 96.7185C37.536 93.5823 46.8192 94.5064 51.756 95.7347C51.7936 95.7438 51.828 95.7633 51.8552 95.7909C51.8824 95.8184 51.9014 95.853 51.91 95.8907C51.9187 95.9285 51.9167 95.9679 51.9042 96.0046C51.8918 96.0412 51.8693 96.0737 51.8394 96.0984C46.0441 100.888 39.8335 101.443 33.2074 97.7618Z" fill="#1E1E1E"/>
<path d="M246.233 97.3869C240.568 101.244 232.436 101.179 227.296 96.1169C227.114 95.938 227.147 95.8168 227.398 95.7532C232.34 94.4236 241.993 93.5651 246.25 96.9934C246.421 97.1325 246.415 97.2637 246.233 97.3869Z" fill="#1E1E1E"/>
<path d="M47.4926 100.577C50.0146 97.5064 59.6556 97.9118 63.2031 98.4723C63.3939 98.5001 63.4833 98.6114 63.4714 98.8062C63.4277 99.5336 63.1892 100.106 62.7559 100.523C58.8149 104.303 51.9165 102.765 47.6118 101.048C47.3534 100.949 47.3137 100.792 47.4926 100.577Z" fill="#1E1E1E"/>
<path d="M231.421 101.005C226.848 102.824 220.695 104.111 216.605 100.904C215.957 100.399 215.605 99.6735 215.55 98.7275C215.538 98.5288 215.631 98.4175 215.83 98.3936C219.849 97.9047 228.369 97.4814 231.517 100.504C231.739 100.723 231.708 100.89 231.421 101.005Z" fill="#1E1E1E"/>
</svg>
