<svg width="71" height="35" viewBox="0 0 71 35" fill="none" xmlns="http://www.w3.org/2000/svg">
<path d="M4.98363 0.452674C4.92945 2.61784 4.38364 5.95287 2.90475 7.64647C2.85391 7.704 2.81646 7.69664 2.79238 7.6244C1.86932 4.85926 2.91478 2.28273 4.90135 0.416556C4.90821 0.409659 4.91699 0.405 4.92654 0.403188C4.93609 0.401376 4.94597 0.402495 4.95487 0.406403C4.96378 0.410312 4.97129 0.416828 4.97642 0.425087C4.98155 0.433346 4.98406 0.442961 4.98363 0.452674Z" fill="white"/>
<path d="M65.8287 0.460099C67.731 2.50687 68.7805 4.82254 67.8735 7.62581C67.8467 7.70875 67.8039 7.71811 67.745 7.6539C66.2742 6.01648 65.7083 2.59717 65.6642 0.526322C65.6615 0.36044 65.7163 0.338363 65.8287 0.460099Z" fill="white"/>
<path d="M2.54306 11.0011C0.897612 9.73491 0.76718 7.69617 1.33907 5.85809C1.34353 5.84241 1.35229 5.82834 1.36439 5.81744C1.37649 5.80654 1.39147 5.79924 1.40766 5.79633C1.42385 5.79343 1.44063 5.79503 1.45614 5.80097C1.47166 5.80691 1.48531 5.81695 1.49559 5.82999C2.66145 7.33497 2.81194 9.11486 2.68352 10.9369C2.6823 10.9526 2.6769 10.9677 2.66788 10.9806C2.65885 10.9935 2.64653 11.0038 2.6322 11.0104C2.61787 11.0169 2.60204 11.0195 2.58637 11.0179C2.57069 11.0163 2.55573 11.0105 2.54306 11.0011Z" fill="white"/>
<path d="M2.85558 10.0313C2.90775 8.33972 3.71843 6.71435 5.17124 5.81738C5.18744 5.80744 5.20589 5.80177 5.22488 5.8009C5.24386 5.80003 5.26276 5.80399 5.2798 5.81241C5.29684 5.82083 5.31147 5.83343 5.32231 5.84904C5.33315 5.86465 5.33986 5.88275 5.3418 5.90166C5.51839 7.5451 4.30036 9.25676 2.99002 10.1076C2.97635 10.116 2.96063 10.1207 2.94455 10.121C2.92847 10.1214 2.91266 10.1174 2.89881 10.1096C2.88496 10.1017 2.87362 10.0903 2.866 10.0765C2.85838 10.0627 2.85477 10.0471 2.85558 10.0313Z" fill="white"/>
<path d="M67.6168 10.0994C66.3345 9.18441 65.0964 7.53697 65.3091 5.89553C65.3198 5.81527 65.362 5.79186 65.4355 5.8253C66.9044 6.49151 67.7331 8.52021 67.7833 10.0111C67.7842 10.0309 67.7794 10.0504 67.7696 10.0676C67.7598 10.0847 67.7454 10.0987 67.7279 10.1079C67.7105 10.1172 67.6908 10.1213 67.6711 10.1198C67.6514 10.1183 67.6326 10.1112 67.6168 10.0994Z" fill="white"/>
<path d="M69.2745 5.87053C69.8644 7.49591 69.744 9.942 68.0986 10.9634C68.0264 11.0075 67.9849 10.9875 67.9742 10.9032C67.7876 9.25974 67.9963 7.12669 69.1581 5.84645C69.2103 5.78893 69.2491 5.79696 69.2745 5.87053Z" fill="white"/>
<path d="M5.02819 9.50634C5.43755 11.1458 4.49844 12.7932 3.0356 13.5658C2.954 13.6086 2.90985 13.5845 2.90317 13.4935C2.75869 11.7544 3.38342 10.3939 4.77736 9.41203C4.90579 9.32106 4.9894 9.3525 5.02819 9.50634Z" fill="white"/>
<path d="M65.8019 9.40272C67.2447 10.2335 67.9089 11.905 67.7323 13.5444C67.727 13.5979 67.7002 13.612 67.6521 13.5866C66.0467 12.7224 65.3544 11.3659 65.5752 9.5171C65.5782 9.49214 65.5873 9.46832 65.6017 9.44774C65.6162 9.42716 65.6355 9.41047 65.6579 9.39915C65.6804 9.38783 65.7052 9.38224 65.7304 9.38286C65.7555 9.38348 65.7801 9.3903 65.8019 9.40272Z" fill="white"/>
<path d="M2.46952 14.0973C0.741139 13.3735 0.145838 12.0846 0.683617 10.2305C0.705021 10.1569 0.751174 10.1328 0.822075 10.1582C1.96385 10.5736 2.64811 12.9314 2.72035 13.9167C2.73373 14.112 2.65012 14.1722 2.46952 14.0973Z" fill="white"/>
<path d="M68.1345 14.105C67.97 14.1719 67.8944 14.1171 67.9078 13.9405C67.986 12.9412 68.6683 10.5874 69.8121 10.158C69.8843 10.1299 69.9311 10.1533 69.9525 10.2282C70.4916 12.0971 69.8856 13.3893 68.1345 14.105Z" fill="white"/>
<path d="M3.32268 17.1667C2.89928 15.5714 3.4792 13.8497 4.94003 13.019C5.0029 12.9829 5.04906 12.9983 5.07849 13.0651C5.7166 14.4999 4.53268 16.35 3.46314 17.2129C3.39224 17.2691 3.34542 17.2537 3.32268 17.1667Z" fill="white"/>
<path d="M65.7123 13.037C67.1792 13.8296 67.727 15.6316 67.2996 17.2028C67.2964 17.215 67.2901 17.2262 67.2813 17.2352C67.2725 17.2443 67.2615 17.2509 67.2493 17.2545C67.237 17.2581 67.224 17.2586 67.2114 17.2559C67.1987 17.2531 67.187 17.2473 67.1771 17.2389C66.0113 16.2316 65.0802 14.7326 65.5016 13.1273C65.5074 13.1061 65.518 13.0864 65.5324 13.0698C65.5469 13.0532 65.5649 13.0401 65.5852 13.0314C65.6054 13.0227 65.6274 13.0187 65.6494 13.0197C65.6714 13.0207 65.6929 13.0266 65.7123 13.037Z" fill="white"/>
<path d="M3.08891 17.8831C1.27224 17.2169 0.482959 15.9006 0.72108 13.9341C0.723326 13.9144 0.730469 13.8956 0.74187 13.8794C0.753271 13.8631 0.76858 13.85 0.786442 13.841C0.804303 13.8321 0.824164 13.8277 0.844265 13.8282C0.864367 13.8286 0.884087 13.834 0.901679 13.8438C2.27623 14.6043 3.07286 16.2939 3.27553 17.7326C3.29694 17.8865 3.23473 17.9366 3.08891 17.8831Z" fill="white"/>
<path d="M67.3239 17.8169C67.651 16.2136 68.2691 14.7347 69.7259 13.8438C69.7408 13.8347 69.7577 13.8294 69.7752 13.8283C69.7926 13.8272 69.81 13.8304 69.826 13.8375C69.842 13.8446 69.856 13.8554 69.8669 13.8691C69.8777 13.8828 69.8851 13.8989 69.8884 13.916C70.2095 15.6678 69.2684 17.532 67.4142 17.9072C67.3393 17.9219 67.3092 17.8918 67.3239 17.8169Z" fill="white"/>
<path d="M5.38609 16.3321C6.33723 17.9173 6.04226 19.5427 4.99881 21.0015C4.98812 21.0168 4.97359 21.0288 4.95666 21.0366C4.93972 21.0443 4.92098 21.0474 4.9023 21.0456C4.88362 21.0438 4.86566 21.0371 4.8502 21.0262C4.83474 21.0153 4.82233 21.0005 4.8142 20.9834C4.22224 19.7193 3.83094 17.1708 5.24562 16.2979C5.30315 16.2618 5.34997 16.2732 5.38609 16.3321Z" fill="white"/>
<path d="M65.1532 16.459C65.2308 16.2931 65.3458 16.261 65.4983 16.3626C66.7966 17.2315 66.3752 19.8301 65.8254 20.9859C65.7813 21.0796 65.7271 21.0856 65.6629 21.004C64.5525 19.6047 64.3826 18.0897 65.1532 16.459Z" fill="white"/>
<path d="M1.00397 18.0139C2.68352 18.2908 4.33699 20.3838 5.00922 21.8265C5.03597 21.8827 5.01791 21.9115 4.95504 21.9128C2.73369 21.9429 0.809322 20.438 0.901627 18.0982C0.904303 18.0313 0.938417 18.0032 1.00397 18.0139Z" fill="white"/>
<path d="M65.6214 21.8245C66.3076 20.3657 67.935 18.3109 69.6286 18.0159C69.6928 18.0052 69.7263 18.0326 69.7289 18.0982C69.8213 20.442 67.8989 21.9449 65.6755 21.9108C65.6127 21.9095 65.5946 21.8807 65.6214 21.8245Z" fill="white"/>
<path d="M6.57138 19.7433C6.67974 19.5132 6.81619 19.4958 6.98074 19.6912C8.08639 21.0075 7.95396 23.3954 7.37604 24.8783C7.3426 24.9639 7.29578 24.972 7.23558 24.9024C5.90585 23.3466 5.68445 21.6269 6.57138 19.7433Z" fill="white"/>
<path d="M63.2814 24.88C62.6533 23.3108 62.571 20.9068 63.771 19.5544C63.8218 19.4982 63.87 19.5002 63.9155 19.5604C65.1455 21.1416 64.6258 23.5536 63.3958 24.9C63.3463 24.9549 63.3081 24.9482 63.2814 24.88Z" fill="white"/>
<path d="M2.74387 22.4944C4.30303 22.5486 6.3819 24.3546 7.38322 25.4743C7.44341 25.5411 7.4287 25.5759 7.33907 25.5786C5.16387 25.6408 2.7238 25.3819 2.61745 22.6208C2.61344 22.5325 2.65558 22.4904 2.74387 22.4944Z" fill="white"/>
<path d="M63.2393 25.4763C64.3029 24.3205 66.2914 22.5928 67.8967 22.4945C67.9677 22.4904 68.0024 22.5239 68.0011 22.5948C67.9449 25.376 65.4446 25.687 63.2755 25.5626C63.2658 25.562 63.2564 25.5587 63.2485 25.553C63.2405 25.5474 63.2344 25.5397 63.2306 25.5307C63.2268 25.5217 63.2257 25.5119 63.2272 25.5023C63.2288 25.4927 63.233 25.4837 63.2393 25.4763Z" fill="white"/>
<path d="M8.91354 22.6612C10.2821 23.9635 10.7255 26.1326 10.26 27.9025C10.2359 27.9908 10.1884 28.0068 10.1175 27.9506C8.57843 26.7286 7.83397 24.5093 8.75301 22.6892C8.79448 22.609 8.84799 22.5996 8.91354 22.6612Z" fill="white"/>
<path d="M60.3864 27.8971C59.8988 26.1293 60.3704 23.9681 61.7229 22.6658C61.7857 22.6043 61.8366 22.6123 61.8754 22.6899C62.8205 24.524 62.0479 26.7032 60.545 27.9473C60.466 28.0128 60.4132 27.9961 60.3864 27.8971Z" fill="white"/>
<path d="M11.5152 25.9383C13.1285 26.6828 13.7225 28.545 13.5639 30.2185C13.5559 30.2947 13.5171 30.3161 13.4476 30.2827C11.8804 29.5101 10.7526 27.7604 11.3647 26.0005C11.3696 25.9861 11.3775 25.9729 11.388 25.9618C11.3985 25.9507 11.4112 25.942 11.4254 25.9361C11.4396 25.9302 11.4549 25.9274 11.4704 25.9278C11.4859 25.9282 11.5011 25.9318 11.5152 25.9383Z" fill="white"/>
<path d="M57.0462 30.2001C56.9479 28.5988 57.4957 26.6564 59.097 25.932C59.1732 25.8972 59.2268 25.9193 59.2575 25.9982C59.9478 27.7299 58.7017 29.56 57.1626 30.2703C57.0904 30.3038 57.0516 30.2804 57.0462 30.2001Z" fill="white"/>
<path d="M4.96975 26.7419C6.87405 26.3707 8.93085 27.0931 10.3656 28.3593C10.3829 28.3741 10.396 28.3932 10.4036 28.4147C10.4112 28.4362 10.4131 28.4594 10.409 28.482C10.405 28.5046 10.3952 28.5259 10.3805 28.5437C10.3659 28.5616 10.3469 28.5755 10.3255 28.584C8.00579 29.5191 6.19915 28.9546 4.90554 26.8904C4.89711 26.8769 4.89209 26.8616 4.8909 26.8457C4.88971 26.8298 4.89239 26.8139 4.8987 26.7993C4.90502 26.7847 4.91478 26.7719 4.92716 26.7619C4.93953 26.7519 4.95415 26.745 4.96975 26.7419Z" fill="white"/>
<path d="M60.2698 28.3542C61.7427 27.0679 63.6991 26.4238 65.6456 26.7128C65.6619 26.7151 65.6774 26.7214 65.6908 26.7312C65.7041 26.741 65.7149 26.7539 65.7221 26.7689C65.7294 26.7838 65.733 26.8004 65.7326 26.8172C65.7322 26.834 65.7278 26.8505 65.7198 26.8653C64.7285 28.6351 63.1995 29.3107 61.1326 28.892C60.8785 28.8411 60.5935 28.71 60.2778 28.4987C60.2123 28.4545 60.2096 28.4064 60.2698 28.3542Z" fill="white"/>
<path d="M17.1664 31.955C15.4547 31.3871 13.9939 30.2313 14.1524 28.2287C14.1591 28.1498 14.2013 28.1177 14.2788 28.1324C16.0628 28.4615 17.1102 30.1832 17.2587 31.8828C17.2596 31.8944 17.2577 31.906 17.253 31.9166C17.2484 31.9273 17.2411 31.9366 17.232 31.9437C17.2228 31.9509 17.2121 31.9557 17.2006 31.9576C17.1892 31.9596 17.1774 31.9587 17.1664 31.955Z" fill="white"/>
<path d="M53.3759 31.8445C53.5666 30.0646 54.5478 28.5897 56.3257 28.1201C56.4033 28.0987 56.4488 28.1275 56.4621 28.2064C56.7812 30.0405 55.0996 31.5354 53.4642 31.9207C53.3987 31.9354 53.3692 31.91 53.3759 31.8445Z" fill="white"/>
<path d="M17.9959 29.8589C19.4848 30.2482 21.4353 31.099 21.7443 32.8328C21.759 32.9144 21.7249 32.9525 21.6419 32.9471C19.9022 32.8227 18.0119 31.9539 17.8675 29.9653C17.8663 29.949 17.869 29.9327 17.8754 29.9177C17.8818 29.9027 17.8917 29.8894 17.9043 29.879C17.9168 29.8686 17.9317 29.8613 17.9476 29.8578C17.9636 29.8543 17.9801 29.8547 17.9959 29.8589Z" fill="white"/>
<path d="M48.8942 32.6406C49.6708 31.0213 50.9209 30.2186 52.6346 29.8775C52.6935 29.8668 52.7242 29.8909 52.7269 29.9497C52.7871 31.8661 50.644 32.8874 49.0628 32.9055C48.8648 32.9068 48.8086 32.8185 48.8942 32.6406Z" fill="white"/>
<path d="M13.9702 30.7079C14.1922 30.8015 14.1963 30.9032 13.9822 31.0129C11.9475 32.055 10.0693 31.8503 8.34758 30.3989C8.28604 30.348 8.29072 30.3032 8.36162 30.2644C9.87062 29.4517 12.391 30.0477 13.9702 30.7079Z" fill="white"/>
<path d="M57.3038 31.3252C57.0416 31.2329 56.7935 31.0884 56.5593 30.8918C56.5072 30.8476 56.5119 30.8108 56.5734 30.7814C58.1225 30.045 60.695 29.457 62.2883 30.2617C62.3512 30.2925 62.3565 30.3313 62.3044 30.3781C60.8515 31.673 59.1847 31.9888 57.3038 31.3252Z" fill="white"/>
<path d="M11.5595 32.9984C11.3695 32.8927 11.3608 32.7743 11.5334 32.6432C12.9099 31.5877 16.247 31.9088 17.8121 32.3362C17.8228 32.3388 17.8324 32.3443 17.84 32.3521C17.8477 32.36 17.8529 32.3698 17.8552 32.3805C17.8575 32.3911 17.8568 32.4022 17.8531 32.4125C17.8493 32.4228 17.8428 32.4318 17.8342 32.4385C15.8838 34.0492 13.7922 34.2358 11.5595 32.9984Z" fill="white"/>
<path d="M59.2218 32.8687C57.3054 34.1831 54.5965 34.1329 52.8567 32.4493C52.7938 32.3878 52.8045 32.3456 52.8888 32.3229C54.5403 31.8754 57.8131 31.5865 59.2278 32.7363C59.2853 32.7831 59.2833 32.8272 59.2218 32.8687Z" fill="white"/>
<path d="M16.4579 34.1126C16.2987 34.0524 16.286 33.9701 16.4198 33.8658C17.6137 32.9387 20.112 33.031 21.6531 33.2096C21.72 33.2176 21.7521 33.2557 21.7494 33.324C21.7333 33.6196 21.6297 33.845 21.4384 34.0002C20.0217 35.146 18.0511 34.7166 16.4579 34.1126Z" fill="white"/>
<path d="M54.2409 34.0961C52.7941 34.6821 50.5728 35.1556 49.2584 34.046C49.0377 33.8587 48.9153 33.6206 48.8912 33.3316C48.8858 33.2607 48.9179 33.2206 48.9875 33.2112C50.3861 33.0467 53.1633 32.8982 54.271 33.9236C54.284 33.9356 54.2938 33.9506 54.2995 33.9673C54.3052 33.984 54.3066 34.0019 54.3035 34.0191C54.3005 34.0364 54.2932 34.0525 54.2823 34.066C54.2713 34.0794 54.2571 34.0898 54.2409 34.0961Z" fill="white"/>
<g clip-path="url(#clip0_299_3095)">
<path d="M24.2305 3.96875C35.748 3.96875 35.748 3.96875 38.0424 5.91012C40.0332 8.29403 41.5337 10.9141 43.0328 13.624C43.5358 14.4625 44.1629 15.2142 44.6812 16.0781C44.8052 11.9631 44.6812 8.0217 44.6812 3.96875C46.1905 3.96875 48.084 3.96875 49.639 3.96875C49.639 11.3474 49.639 18.726 49.639 26.3282C49.5498 26.3282 49.4607 26.3282 49.3715 26.3282C46.3255 26.3282 43.2038 25.0679 42.0164 22.2629C41.7963 21.7598 41.5762 21.2567 41.3494 20.7384C41.2342 20.403 41.1189 20.0676 41.0001 19.722C40.7695 20.2461 40.5389 20.7701 40.3013 21.3101C39.0362 23.4301 37.732 24.4736 35.8551 25.4237C34.5796 26.0694 33.1483 26.3282 31.7187 26.3282C29.2506 26.3282 26.7694 26.3282 24.2305 26.3282C24.2305 18.9496 24.2305 11.571 24.2305 3.96875ZM28.804 9.05045C28.804 13.0752 28.804 17.0999 28.804 21.2465C32.2163 21.3626 32.8409 21.3838 34.439 20.177C35.2953 19.5303 36.0727 18.7573 36.56 17.8013C36.8032 17.3242 36.9926 16.8392 37.1328 16.337C37.6186 14.596 37.1788 12.6793 36.0264 11.2867C35.7414 10.9422 35.4316 10.6296 35.088 10.3443C33.7782 9.25659 31.9936 9.05045 30.291 9.05045C29.7994 9.05045 29.3044 9.05045 28.804 9.05045ZM39.9837 18.1975C40.4919 19.2139 40.4919 19.2139 40.4919 19.2139L39.9837 18.1975Z" fill="white"/>
</g>
<defs>
<clipPath id="clip0_299_3095">
<rect width="25.4085" height="25.4085" fill="white" transform="translate(24.2305 2.44336)"/>
</clipPath>
</defs>
</svg>
