<svg width="280" height="103" viewBox="0 0 280 103" fill="none" xmlns="http://www.w3.org/2000/svg">
<path d="M14.1835 1.23451C14.0881 7.25042 12.377 17.8573 8.00067 22.4661C7.82976 22.641 7.70853 22.6131 7.63699 22.3826C5.03744 14.1547 7.97683 6.93441 13.796 1.06755C14.0623 0.801237 14.1915 0.856902 14.1835 1.23451Z" fill="#1E1E1E"/>
<path d="M266.275 0.965395C272.016 6.85014 275.158 14.0585 272.493 22.3281C272.418 22.5507 272.298 22.5785 272.135 22.4116C267.723 17.9101 266.042 7.11247 265.929 1.10848C265.929 1.06846 265.941 1.02935 265.963 0.996109C265.985 0.962864 266.017 0.936956 266.054 0.921654C266.091 0.906352 266.132 0.902337 266.171 0.910118C266.21 0.917899 266.246 0.937145 266.275 0.965395Z" fill="#1E1E1E"/>
<path d="M105.985 19.956C109.268 16.6052 112.947 15.6433 117.021 17.0703C121.07 18.4893 123.168 21.685 122.9 25.948C122.888 26.1468 122.785 26.2481 122.59 26.2521L118.923 26.2998C118.665 26.2998 118.462 26.1965 118.315 25.9898C117.433 24.7615 117.498 23.3067 116.664 22.2991C115.262 20.6118 112.961 20.4329 111.244 21.8162C109.956 22.8496 109.225 24.2687 109.05 26.0732C109.034 26.264 109.072 26.4429 109.163 26.6099C111.494 30.8609 115.507 32.0892 120.491 34.4562C121.509 34.9371 122.483 35.9904 123.413 37.6162C125.341 40.9789 125.207 44.1687 123.013 47.1856C119.186 52.4443 111.977 52.6708 106.88 48.7119C106.868 48.7 106.856 48.688 106.844 48.6761L106.355 48.0322C106.188 47.8096 106.019 47.8096 105.848 48.0322C103.207 51.55 98.2104 51.8957 94.4184 50.6198C90.1852 49.1948 88.0269 45.5698 88.3429 41.1756C88.3548 40.9928 88.4522 40.9014 88.635 40.9014L92.7192 40.8835C92.9577 40.8835 93.1167 40.9967 93.1962 41.2233C94.3409 44.4072 94.6569 47.4002 99.0809 46.6072C101.591 46.1541 102.33 43.8765 103.72 42.1057C103.843 41.9507 103.877 41.7758 103.821 41.5811C103.07 39.0014 101.557 36.9881 99.2836 35.5413C97.3757 34.325 94.162 33.4545 92.3316 32.0772C88.7066 29.3584 88.0328 24.4992 90.4177 20.7132C94.0845 14.8821 101.197 14.5601 105.508 19.9321C105.659 20.1189 105.818 20.1269 105.985 19.956ZM94.3349 28.005C97.9719 30.7596 103.57 31.4512 106.707 36.2627C108.597 39.1664 108.632 44.2641 111.685 46.005C114.624 47.6685 118.244 46.3687 119.168 43.012C120.539 38.0335 116.598 35.583 112.359 34.2415C109.7 33.3949 107.462 31.7414 105.645 29.2809C103.928 26.9557 103.088 22.9312 101.06 21.3571C99.5221 20.1706 97.3697 20.1587 95.742 21.2081C94.3945 22.0786 93.6274 23.4121 93.4406 25.2087C93.3054 26.5204 93.6036 27.4525 94.3349 28.005Z" fill="#1E1E1E"/>
<path d="M180.734 34.116C180.65 36.9898 180.185 41.9385 181.479 44.3532C182.963 47.1376 186.63 47.7577 188.896 45.4801C189.965 44.4069 190.516 43.0157 190.547 41.3065C190.549 41.2158 190.585 41.1294 190.649 41.0658C190.713 41.0023 190.798 40.9667 190.887 40.9666L194.798 40.9726C195.013 40.9766 195.182 41.066 195.305 41.2409C195.826 42.0081 195.949 42.7653 195.675 43.5125C193.393 49.7014 189.347 52.1896 183.536 50.9773C178.17 49.8623 175.737 46.1598 175.749 40.907C175.757 36.2724 175.761 31.6457 175.761 27.0269C175.757 24.8328 176.015 23.1415 176.536 21.9531C177.911 18.8209 180.459 17.06 184.18 16.6705C189.188 16.1458 192.686 17.857 194.673 21.804C196.271 24.9759 195.89 29.7755 195.77 33.4125C195.762 33.6669 195.631 33.7941 195.377 33.7941H181.067C180.853 33.7941 180.741 33.9014 180.734 34.116ZM180.805 29.2449L190.738 29.1972C190.818 29.1964 190.897 29.1799 190.97 29.1486C191.044 29.1173 191.111 29.0719 191.166 29.0148C191.222 28.9578 191.267 28.8903 191.296 28.8163C191.326 28.7422 191.341 28.6629 191.34 28.5831L191.334 27.6351C191.324 25.7302 190.737 23.9065 189.702 22.5648C188.666 21.2231 187.268 20.4734 185.813 20.4804H185.634C184.914 20.4838 184.201 20.6731 183.537 21.0376C182.874 21.4021 182.271 21.9345 181.765 22.6045C181.259 23.2744 180.859 24.0688 180.588 24.9422C180.317 25.8156 180.18 26.7509 180.185 27.6947L180.191 28.6427C180.192 28.7225 180.208 28.8015 180.24 28.875C180.271 28.9484 180.316 29.015 180.373 29.071C180.43 29.1269 180.498 29.171 180.572 29.2009C180.646 29.2307 180.725 29.2457 180.805 29.2449Z" fill="#1E1E1E"/>
<path d="M157.826 34.0759C157.488 37.6692 157.51 40.6185 157.891 42.9239C158.577 47.0737 164.122 48.7729 166.507 44.9034C167.103 43.9316 167.3 42.5423 167.646 41.3082C167.673 41.2137 167.73 41.1306 167.808 41.0715C167.887 41.0123 167.983 40.9803 168.081 40.9802L171.956 40.9743C172.062 40.9743 172.167 40.9952 172.265 41.0358C172.363 41.0764 172.451 41.1359 172.526 41.2108C172.6 41.2857 172.659 41.3745 172.698 41.4721C172.737 41.5696 172.757 41.6741 172.755 41.7792C172.672 49.3155 164.861 52.8511 158.41 50.2217C153.259 48.123 152.728 44.5636 152.716 39.0842C152.704 35.336 152.71 31.5897 152.734 27.8454C152.75 25.2339 152.957 23.3856 153.354 22.3005C155.024 17.7096 160.706 15.9149 165.13 16.9285C173.554 18.8543 173.125 26.6887 172.809 33.438C172.797 33.6765 172.67 33.7957 172.427 33.7957L158.13 33.8017C157.943 33.8017 157.842 33.8931 157.826 34.0759ZM158.005 29.2465L168.188 29.2346C168.253 29.2346 168.317 29.2218 168.377 29.1968C168.436 29.1719 168.491 29.1353 168.536 29.0893C168.582 29.0433 168.617 28.9887 168.642 28.9287C168.666 28.8687 168.678 28.8044 168.677 28.7397V27.6665C168.673 25.76 168.092 23.9329 167.061 22.5867C166.03 21.2406 164.634 20.4857 163.18 20.488H162.989C162.269 20.4891 161.555 20.6764 160.89 21.039C160.225 21.4016 159.621 21.9325 159.113 22.6013C158.605 23.2702 158.202 24.0639 157.928 24.9371C157.654 25.8103 157.514 26.7459 157.516 27.6904V28.7636C157.517 28.8922 157.57 29.015 157.661 29.1054C157.753 29.1958 157.876 29.2465 158.005 29.2465Z" fill="#1E1E1E"/>
<path d="M145.084 37.7963C147.046 42.0176 149.055 46.2329 151.029 50.3886C151.061 50.4587 151.076 50.5359 151.071 50.6131C151.067 50.6904 151.043 50.7653 151.002 50.831C150.961 50.8967 150.905 50.9512 150.837 50.9895C150.77 51.0278 150.694 51.0488 150.617 51.0504L147.302 51.1398C146.891 51.1523 146.485 51.0422 146.136 50.8236C145.787 50.605 145.51 50.2876 145.341 49.9116C143.584 46.0361 141.769 42.1249 139.897 38.1779C139.658 37.6691 139.235 37.216 138.627 36.8185C138.544 36.7649 138.449 36.7316 138.351 36.7213C138.253 36.7109 138.153 36.7238 138.061 36.7589C137.146 37.1246 136.691 37.8858 136.695 39.0424C136.699 42.8384 136.701 46.6363 136.701 50.4363C136.701 50.4838 136.692 50.5308 136.673 50.5746C136.655 50.6184 136.628 50.6581 136.594 50.6914C136.56 50.7247 136.52 50.7509 136.476 50.7685C136.432 50.7862 136.385 50.7948 136.338 50.794L132.009 50.7821C131.735 50.7821 131.596 50.643 131.592 50.3647L131.323 17.3279C131.322 17.2773 131.332 17.2271 131.351 17.1801C131.369 17.1331 131.397 17.0903 131.433 17.0542C131.468 17.0182 131.511 16.9895 131.557 16.97C131.604 16.9504 131.654 16.9404 131.705 16.9404C134.861 16.9086 138.003 16.8907 141.131 16.8867C142.53 16.8867 143.679 17.1292 144.577 17.6141C146.974 18.9099 148.439 20.9391 148.972 23.7016C149.759 27.8076 148.536 31.3392 145.305 34.2965C144.387 35.1371 144.553 36.6516 145.084 37.7963ZM136.743 21.0543L136.481 31.6373C136.478 31.72 136.492 31.8024 136.522 31.8796C136.552 31.9569 136.596 32.0275 136.653 32.0874C136.71 32.1472 136.779 32.1952 136.855 32.2285C136.93 32.2618 137.012 32.2797 137.095 32.2812L138.192 32.3051C139.641 32.3404 141.043 31.8515 142.091 30.9459C143.139 30.0402 143.746 28.792 143.778 27.4756L143.826 25.5678C143.842 24.9155 143.716 24.2662 143.456 23.657C143.196 23.0478 142.806 22.4906 142.309 22.0172C141.813 21.5438 141.219 21.1635 140.561 20.898C139.904 20.6326 139.196 20.4871 138.478 20.47L137.381 20.4402C137.299 20.4386 137.217 20.4532 137.14 20.4832C137.064 20.5133 136.994 20.5581 136.935 20.6151C136.875 20.6721 136.828 20.7403 136.795 20.8156C136.762 20.891 136.745 20.9721 136.743 21.0543Z" fill="#1E1E1E"/>
<path d="M210.808 45.4936C212.591 43.7526 213.115 39.1915 216.871 41.3379C217.034 41.4333 217.13 41.5724 217.158 41.7553C217.897 46.7218 215.285 49.703 210.534 50.7821C206.569 51.6765 200.63 51.271 198.651 47.1511C198.142 46.0938 197.89 44.4244 197.894 42.1428C197.917 33.8593 197.943 25.5757 197.971 17.2922C197.971 17.0219 198.106 16.8887 198.377 16.8927L202.33 16.9821C202.655 16.9901 202.818 17.157 202.818 17.483C202.842 25.063 202.838 32.631 202.806 40.1872C202.799 42.2541 203.029 43.7447 203.498 44.6589C204.887 47.3717 208.65 47.6102 210.808 45.4936Z" fill="#1E1E1E"/>
<path d="M276.636 17.1131C278.491 22.1572 278.008 29.139 273.113 32.3526C272.866 32.5156 272.733 32.45 272.713 32.1559C272.355 26.9151 272.844 21.2986 276.267 17.0535C276.426 16.8547 276.549 16.8746 276.636 17.1131Z" fill="#1E1E1E"/>
<path d="M6.99303 32.4175C2.10994 28.6255 1.66277 22.6334 3.39182 17.1541C3.40883 17.1019 3.4398 17.0551 3.48131 17.019C3.52281 16.9829 3.57322 16.9588 3.62694 16.9496C3.68066 16.9403 3.7356 16.9462 3.78566 16.9665C3.83572 16.9868 3.87896 17.0208 3.91055 17.0647C7.27922 21.5841 7.86352 26.8965 7.36865 32.2506C7.3448 32.5368 7.21959 32.5924 6.99303 32.4175Z" fill="#1E1E1E"/>
<path d="M15.0125 16.9644C15.1556 16.8968 15.237 16.9405 15.2569 17.0955C15.8233 21.9786 12.3056 27.1837 8.35858 29.67C8.2989 29.7072 8.22996 29.7269 8.15962 29.7268C8.08928 29.7268 8.02035 29.7071 7.96071 29.6698C7.90106 29.6325 7.85309 29.5792 7.82224 29.516C7.79139 29.4528 7.7789 29.3822 7.78621 29.3122C8.32878 24.441 10.5229 19.0869 15.0125 16.9644Z" fill="#1E1E1E"/>
<path d="M81.9677 40.9443C83.2853 40.6879 84.1439 41.1053 85.3662 41.3736C85.5371 41.4133 85.6206 41.5187 85.6166 41.6896C85.5033 49.2259 78.3844 52.5528 71.814 50.4958C69.2542 49.6929 67.4695 48.0891 66.4599 45.6843C65.963 44.5038 65.7325 42.727 65.7683 40.354C65.8279 36.5462 65.8338 32.7402 65.7861 28.9363C65.7464 25.828 65.9531 23.6697 66.4062 22.4613C68.809 16.0221 79.2966 14.9369 83.3867 20.2135C84.8296 22.0817 85.4179 24.3613 85.1515 27.0523C85.1317 27.2828 85.0045 27.398 84.7699 27.398L80.7514 27.404C80.7023 27.4041 80.6538 27.3942 80.6087 27.3747C80.5637 27.3553 80.5232 27.3267 80.4896 27.291C80.456 27.2552 80.4302 27.2129 80.4137 27.1667C80.3972 27.1205 80.3904 27.0714 80.3936 27.0225C80.5308 24.6435 79.6365 21.3345 76.8759 21.1138C74.0617 20.8873 71.2058 22.1572 71.0329 25.2576C70.6195 32.9171 70.6513 39.261 71.1283 44.2891C71.2356 45.4279 72.6368 45.9705 73.7398 46.3282C75.7232 46.9721 77.4622 46.6681 78.9568 45.416C80.1015 44.462 80.65 42.6197 81.5026 41.2603C81.61 41.0854 81.765 40.9801 81.9677 40.9443Z" fill="#1E1E1E"/>
<path d="M265.314 16.9464C269.321 19.4148 272.373 24.6198 272.159 29.497C272.143 29.8309 271.996 29.9044 271.717 29.7176C267.937 27.1419 264.306 22.0263 264.843 17.179C264.848 17.1267 264.867 17.0767 264.897 17.0336C264.927 16.9905 264.967 16.9557 265.014 16.9324C265.061 16.9092 265.113 16.8983 265.166 16.9007C265.218 16.9032 265.269 16.9189 265.314 16.9464Z" fill="#1E1E1E"/>
<path d="M14.3207 27.7609C15.5609 32.7692 12.9077 37.6821 8.41214 40.0193C8.17365 40.1425 8.04447 40.071 8.0246 39.8047C7.60724 34.542 9.52906 30.4598 13.7901 27.5582C13.8362 27.5267 13.8892 27.5069 13.9447 27.5004C14.0001 27.4939 14.0563 27.5009 14.1084 27.5208C14.1606 27.5407 14.2071 27.573 14.2441 27.6148C14.2811 27.6566 14.3074 27.7067 14.3207 27.7609Z" fill="#1E1E1E"/>
<path d="M266.202 27.5957C270.584 29.9687 272.617 35.0843 272.063 39.9733C272.047 40.1244 271.971 40.1641 271.836 40.0926C267.031 37.4891 264.978 33.4129 265.677 27.864C265.685 27.8065 265.706 27.7517 265.74 27.7043C265.773 27.6569 265.818 27.6184 265.869 27.592C265.921 27.5656 265.978 27.5521 266.036 27.5528C266.094 27.5534 266.151 27.5681 266.202 27.5957Z" fill="#1E1E1E"/>
<path d="M7.0047 41.685C1.70625 39.626 -0.153967 35.7645 1.42404 30.1003C1.49161 29.8698 1.6367 29.7982 1.85929 29.8857C5.3174 31.263 7.29685 38.1851 7.54727 41.2795C7.57907 41.7048 7.39821 41.84 7.0047 41.685Z" fill="#1E1E1E"/>
<path d="M273.381 41.6012C272.825 41.8357 272.57 41.6509 272.618 41.0467C272.862 38.0358 274.86 31.2388 278.27 29.9033C278.485 29.8198 278.624 29.8894 278.688 30.112C280.277 35.6211 278.509 39.4508 273.381 41.6012Z" fill="#1E1E1E"/>
<path d="M9.32504 50.7688C7.92987 46.0944 9.81393 40.8476 14.1068 38.3792C14.1498 38.3545 14.1977 38.3395 14.2471 38.3352C14.2965 38.331 14.3463 38.3376 14.3929 38.3547C14.4395 38.3717 14.4818 38.3988 14.5168 38.4339C14.5519 38.4691 14.5788 38.5114 14.5957 38.5581C16.1816 43.0775 13.0514 48.0798 9.74835 50.894C9.54563 51.0689 9.40453 51.0271 9.32504 50.7688Z" fill="#1E1E1E"/>
<path d="M270.513 50.9627C266.972 48.0293 264.032 43.1939 265.535 38.5314C265.552 38.4795 265.58 38.4322 265.618 38.3932C265.656 38.3542 265.703 38.3246 265.754 38.3067C265.806 38.2888 265.861 38.283 265.915 38.29C265.969 38.2969 266.02 38.3163 266.066 38.3466C270.47 41.3277 272.06 45.4953 270.835 50.8494C270.828 50.8833 270.811 50.9147 270.788 50.9406C270.765 50.9665 270.736 50.9862 270.704 50.9976C270.671 51.0089 270.637 51.0117 270.603 51.0056C270.57 50.9995 270.539 50.9847 270.513 50.9627Z" fill="#1E1E1E"/>
<path d="M8.94269 52.9238C3.74956 51.4512 0.21395 46.419 1.73432 41.0112C1.78997 40.8125 1.90723 40.7628 2.0861 40.8622C6.31929 43.2769 8.45378 48.0586 9.22291 52.6674C9.26266 52.902 9.16925 52.9874 8.94269 52.9238Z" fill="#1E1E1E"/>
<path d="M270.865 52.6604C271.855 47.8429 273.691 43.5322 277.954 40.8491C278.173 40.714 278.32 40.7696 278.395 41.0161C280.017 46.4 276.273 51.4858 271.157 52.9346C270.907 53.0062 270.809 52.9148 270.865 52.6604Z" fill="#1E1E1E"/>
<path d="M15.3702 48.1654C18.1426 52.649 17.5166 58.021 14.2314 62.129C14.2017 62.1674 14.1628 62.1977 14.1183 62.2169C14.0737 62.2362 14.025 62.2438 13.9767 62.239C13.9284 62.2342 13.8821 62.2172 13.8422 62.1896C13.8023 62.1621 13.77 62.1248 13.7485 62.0813C11.7153 58.1105 11.0177 51.3672 14.8813 48.0879C15.0721 47.925 15.235 47.9508 15.3702 48.1654Z" fill="#1E1E1E"/>
<path d="M264.414 48.6049C264.645 48.112 264.987 48.0166 265.44 48.3187C269.357 50.96 268.033 58.7824 266.316 62.2346C266.305 62.2573 266.288 62.2769 266.267 62.2914C266.246 62.306 266.221 62.3152 266.196 62.3181C266.171 62.3211 266.145 62.3177 266.121 62.3084C266.097 62.299 266.076 62.2839 266.06 62.2644C262.649 58.0948 262.101 53.5416 264.414 48.6049Z" fill="#1E1E1E"/>
<path d="M2.39015 53.2496C7.33882 53.9769 12.3531 60.3625 14.3087 64.5778C14.3842 64.7368 14.3325 64.8183 14.1537 64.8223C7.55347 64.9057 1.79989 60.4519 2.09801 53.488C2.10596 53.3012 2.20333 53.2217 2.39015 53.2496Z" fill="#1E1E1E"/>
<path d="M278.044 53.4934C278.384 60.5646 272.374 64.9528 265.809 64.8097C265.706 64.8058 265.676 64.7561 265.72 64.6607C267.914 60.2128 272.552 54.2089 277.763 53.2668C277.938 53.235 278.032 53.3106 278.044 53.4934Z" fill="#1E1E1E"/>
<path d="M258.838 73.6221C256.936 68.894 256.745 61.8824 260.317 57.7864C260.46 57.6194 260.595 57.6234 260.722 57.7983C264.305 62.5979 262.91 69.6214 259.184 73.6877C259.037 73.8546 258.922 73.8328 258.838 73.6221Z" fill="#1E1E1E"/>
<path d="M20.9326 73.7005C16.7352 69.3361 16.2999 62.8134 19.3467 57.7872C19.3707 57.7469 19.404 57.713 19.4439 57.6883C19.4838 57.6636 19.5291 57.6489 19.5758 57.6453C19.6226 57.6418 19.6696 57.6497 19.7127 57.6681C19.7558 57.6866 19.7939 57.7152 19.8236 57.7515C23.3294 62.086 23.2221 68.7339 21.3321 73.617C21.2446 73.8515 21.1115 73.8794 20.9326 73.7005Z" fill="#1E1E1E"/>
<path d="M7.58965 66.5413C12.1806 66.7023 18.4648 72.1876 21.3505 75.3655C21.5572 75.592 21.5075 75.7093 21.2015 75.7173C14.7145 75.9021 7.53004 75.1091 7.19019 66.9468C7.17826 66.6685 7.31141 66.5334 7.58965 66.5413Z" fill="#1E1E1E"/>
<path d="M272.809 66.8032C273.357 74.8403 265.046 76.0149 258.875 75.6869C258.839 75.6845 258.804 75.6718 258.775 75.6503C258.746 75.6288 258.723 75.5995 258.71 75.5657C258.697 75.5319 258.694 75.4951 258.701 75.4596C258.708 75.424 258.725 75.3912 258.75 75.365C261.993 71.8949 267.658 66.9642 272.511 66.5468C272.698 66.5309 272.797 66.6163 272.809 66.8032Z" fill="#1E1E1E"/>
<path d="M25.8881 67.0537C29.9663 70.9292 31.2899 77.3684 29.8888 82.6391C29.8172 82.8935 29.6781 82.9392 29.4714 82.7762C24.8924 79.1333 22.6804 72.5569 25.429 67.1313C25.5443 66.8967 25.6973 66.8709 25.8881 67.0537Z" fill="#1E1E1E"/>
<path d="M250.259 82.6748C248.822 77.3684 250.181 70.9471 254.224 67.0418C254.257 67.0105 254.297 66.9871 254.341 66.9738C254.385 66.9605 254.431 66.9574 254.475 66.965C254.52 66.9725 254.562 66.9904 254.598 67.0172C254.634 67.044 254.663 67.079 254.683 67.1193C257.509 72.6344 255.16 79.0558 250.676 82.806C250.644 82.8343 250.604 82.8538 250.562 82.8625C250.52 82.8712 250.476 82.8688 250.434 82.8558C250.393 82.8427 250.355 82.8193 250.324 82.7876C250.293 82.756 250.271 82.7172 250.259 82.6748Z" fill="#1E1E1E"/>
<path d="M133.523 79.1624C132.268 79.1471 131.07 78.6116 130.194 77.6739C129.317 76.7362 128.834 75.473 128.85 74.1622C128.858 73.5132 128.988 72.872 129.233 72.2753C129.479 71.6785 129.834 71.1379 130.279 70.6844C130.724 70.2308 131.251 69.8731 131.828 69.6318C132.405 69.3904 133.022 69.2701 133.644 69.2777C134.9 69.293 136.097 69.8285 136.974 70.7662C137.85 71.7039 138.333 72.9671 138.317 74.2779C138.309 74.9269 138.179 75.5681 137.934 76.1648C137.689 76.7616 137.333 77.3022 136.888 77.7557C136.443 78.2093 135.917 78.567 135.339 78.8083C134.762 79.0497 134.145 79.17 133.523 79.1624ZM133.577 76.9925C134.222 76.9914 134.84 76.6988 135.295 76.1792C135.751 75.6596 136.006 74.9555 136.004 74.2218C136.004 73.8585 135.94 73.4988 135.817 73.1634C135.694 72.828 135.515 72.5233 135.288 72.2668C135.062 72.0103 134.794 71.807 134.498 71.6685C134.203 71.53 133.886 71.459 133.567 71.4595C132.922 71.4606 132.304 71.7532 131.848 72.2728C131.393 72.7924 131.138 73.4965 131.139 74.2302C131.14 74.5935 131.203 74.9532 131.326 75.2886C131.449 75.6241 131.629 75.9287 131.855 76.1852C132.081 76.4417 132.35 76.645 132.645 76.7835C132.941 76.922 133.257 76.9931 133.577 76.9925Z" fill="#1E1E1E"/>
<path d="M79.078 74.8084L80.6222 69.7464C80.6858 69.5397 80.8269 69.4384 81.0456 69.4423L82.6434 69.4662C82.8382 69.4702 82.9058 69.5636 82.8462 69.7464L80.0916 78.3738C80.0195 78.6002 79.8769 78.7977 79.6847 78.9375C79.4925 79.0772 79.2606 79.1518 79.023 79.1505C78.7853 79.1492 78.5543 79.0719 78.3636 78.93C78.173 78.7882 78.0326 78.5891 77.9631 78.3619L76.6514 74.081C76.548 73.7312 76.4407 73.7292 76.3294 74.075L75.0177 78.3022C74.9463 78.5364 74.8018 78.7415 74.6052 78.8874C74.4087 79.0334 74.1706 79.1125 73.9258 79.1132C73.681 79.1138 73.4425 79.036 73.2452 78.8911C73.0479 78.7463 72.9022 78.5419 72.8296 78.3082L70.1346 69.812C70.0591 69.5735 70.1466 69.4543 70.397 69.4543L71.8577 69.4423C72.1359 69.4423 72.3148 69.5755 72.3943 69.8418L73.7954 74.6533C73.8053 74.6946 73.8286 74.7314 73.8616 74.7579C73.8946 74.7844 73.9356 74.7992 73.978 74.7999C74.0204 74.8006 74.0617 74.7871 74.0956 74.7617C74.1295 74.7362 74.1539 74.7002 74.1651 74.6593L75.5722 70.0505C75.6333 69.8544 75.7556 69.6828 75.9211 69.5608C76.0867 69.4389 76.2866 69.373 76.4916 69.373C76.6966 69.373 76.8958 69.4389 77.0598 69.5608C77.2238 69.6828 77.344 69.8544 77.4026 70.0505L78.8515 74.8084C78.927 75.0588 79.0025 75.0588 79.078 74.8084Z" fill="#1E1E1E"/>
<path d="M86.1814 69.4589L84.1662 69.4554C84.0674 69.4552 83.9872 69.5352 83.987 69.6339L83.971 78.8039C83.9708 78.9027 84.0508 78.9829 84.1495 78.9831L86.1648 78.9866C86.2636 78.9867 86.3438 78.9068 86.344 78.808L86.36 69.6381C86.3601 69.5393 86.2802 69.4591 86.1814 69.4589Z" fill="#1E1E1E"/>
<path d="M93.9815 74.2429L93.9755 69.646C93.9755 69.6201 93.9806 69.5946 93.9905 69.5707C94.0004 69.5468 94.0149 69.5251 94.0331 69.5069C94.0514 69.4886 94.0731 69.4741 94.097 69.4642C94.1208 69.4543 94.1464 69.4492 94.1723 69.4492H96.0444C96.0702 69.4492 96.0958 69.4543 96.1197 69.4642C96.1436 69.4741 96.1653 69.4886 96.1835 69.5069C96.2018 69.5251 96.2163 69.5468 96.2262 69.5707C96.2361 69.5946 96.2412 69.6201 96.2412 69.646V78.7921C96.2412 78.8442 96.2204 78.8943 96.1835 78.9312C96.1466 78.9681 96.0966 78.9888 96.0444 78.9888L94.2736 78.9829C94.2421 78.9829 94.211 78.9753 94.1829 78.9608C94.1549 78.9462 94.1308 78.9252 94.1126 78.8994L90.8632 74.1177C90.8402 74.0806 90.8056 74.0523 90.7647 74.037C90.7239 74.0218 90.6792 74.0206 90.6375 74.0336C90.5959 74.0465 90.5598 74.073 90.5348 74.1087C90.5098 74.1444 90.4974 74.1874 90.4995 74.231L90.5115 78.7921C90.5115 78.8179 90.5064 78.8435 90.4965 78.8673C90.4866 78.8912 90.4721 78.9129 90.4538 78.9312C90.4355 78.9494 90.4139 78.9639 90.39 78.9738C90.3661 78.9837 90.3405 78.9888 90.3147 78.9888H88.3531C88.3009 78.9888 88.2509 78.9681 88.214 78.9312C88.1771 78.8943 88.1564 78.8442 88.1564 78.7921L88.1504 69.646C88.1504 69.6201 88.1555 69.5946 88.1654 69.5707C88.1753 69.5468 88.1898 69.5251 88.208 69.5069C88.2263 69.4886 88.248 69.4741 88.2719 69.4642C88.2957 69.4543 88.3213 69.4492 88.3472 69.4492H90.112C90.1435 69.4492 90.1746 69.4568 90.2026 69.4713C90.2307 69.4858 90.2548 69.5069 90.273 69.5327L93.6237 74.3561C93.6478 74.3904 93.6821 74.416 93.7217 74.4294C93.7614 74.4428 93.8042 74.4432 93.8441 74.4306C93.884 74.418 93.9188 74.393 93.9435 74.3592C93.9682 74.3254 93.9815 74.2847 93.9815 74.2429Z" fill="#1E1E1E"/>
<path d="M100.636 74.237L100.666 78.7922C100.666 78.8443 100.645 78.8944 100.609 78.9313C100.572 78.9682 100.522 78.9889 100.469 78.9889H98.478C98.4258 78.9889 98.3758 78.9682 98.3389 78.9313C98.302 78.8944 98.2812 78.8443 98.2812 78.7922L98.2932 69.6461C98.2932 69.6203 98.2983 69.5947 98.3082 69.5708C98.3181 69.5469 98.3326 69.5252 98.3508 69.507C98.3691 69.4887 98.3908 69.4742 98.4147 69.4643C98.4385 69.4544 98.4641 69.4493 98.49 69.4493L100.243 69.4434C100.274 69.4433 100.305 69.4509 100.334 69.4654C100.362 69.48 100.386 69.501 100.404 69.5268L103.767 74.3801C103.791 74.4143 103.825 74.44 103.865 74.4534C103.904 74.4668 103.947 74.4672 103.987 74.4545C104.027 74.4419 104.062 74.4169 104.086 74.3832C104.111 74.3494 104.124 74.3087 104.124 74.2668L104.118 69.6521C104.118 69.6262 104.123 69.6006 104.133 69.5767C104.143 69.5529 104.158 69.5312 104.176 69.5129C104.194 69.4946 104.216 69.4801 104.24 69.4703C104.264 69.4604 104.289 69.4553 104.315 69.4553L106.181 69.4493C106.207 69.4493 106.233 69.4544 106.257 69.4643C106.28 69.4742 106.302 69.4887 106.32 69.507C106.339 69.5252 106.353 69.5469 106.363 69.5708C106.373 69.5947 106.378 69.6203 106.378 69.6461V78.7981C106.378 78.8503 106.357 78.9004 106.32 78.9373C106.283 78.9742 106.233 78.9949 106.181 78.9949L104.387 78.971C104.355 78.971 104.324 78.9635 104.296 78.949C104.268 78.9344 104.244 78.9134 104.226 78.8876L100.994 74.1237C100.97 74.0895 100.936 74.0638 100.896 74.0505C100.856 74.0371 100.814 74.0367 100.774 74.0493C100.734 74.0619 100.699 74.0869 100.674 74.1207C100.65 74.1544 100.636 74.1952 100.636 74.237Z" fill="#1E1E1E"/>
<path d="M110.426 71.7864L110.438 72.9252C110.438 72.955 110.443 72.9844 110.455 73.0119C110.466 73.0394 110.483 73.0644 110.504 73.0854C110.525 73.1065 110.55 73.1232 110.577 73.1345C110.605 73.1459 110.634 73.1518 110.664 73.1518H114.385C114.445 73.1518 114.502 73.1756 114.545 73.2181C114.587 73.2606 114.611 73.3183 114.611 73.3784V75.0538C114.611 75.1138 114.587 75.1715 114.545 75.2139C114.502 75.2564 114.445 75.2803 114.385 75.2803H110.658C110.598 75.2803 110.541 75.3042 110.498 75.3467C110.456 75.3891 110.432 75.4468 110.432 75.5069L110.42 76.6576C110.42 76.7177 110.444 76.7753 110.486 76.8178C110.529 76.8603 110.586 76.8841 110.646 76.8841L114.975 76.8603C115.035 76.8603 115.093 76.8842 115.135 76.9267C115.178 76.9692 115.201 77.0268 115.201 77.0869L115.195 78.7623C115.195 78.8223 115.172 78.88 115.129 78.9224C115.087 78.9649 115.029 78.9888 114.969 78.9888H108.393C108.332 78.9888 108.275 78.9649 108.232 78.9224C108.19 78.88 108.166 78.8223 108.166 78.7623V69.6758C108.166 69.6157 108.19 69.5581 108.232 69.5156C108.275 69.4731 108.332 69.4492 108.393 69.4492H114.85C114.91 69.4492 114.967 69.4731 115.01 69.5156C115.052 69.5581 115.076 69.6157 115.076 69.6758L115.058 71.3452C115.058 71.4053 115.035 71.4629 114.992 71.5054C114.95 71.5479 114.892 71.5718 114.832 71.5718L110.652 71.5598C110.592 71.5598 110.535 71.5837 110.492 71.6262C110.45 71.6687 110.426 71.7263 110.426 71.7864Z" fill="#1E1E1E"/>
<path d="M119.119 76.3067L119.137 78.6439C119.137 78.8745 119.023 78.9897 118.797 78.9897H117.127C116.893 78.9897 116.775 78.8725 116.775 78.6379L116.77 69.7482C116.77 69.5217 116.883 69.4124 117.109 69.4203L122.01 69.5276C122.13 69.5274 122.246 69.5696 122.338 69.6469C124.552 71.5111 124.62 73.4071 122.541 75.3349C122.394 75.474 122.372 75.631 122.475 75.8059L124.055 78.5485C124.214 78.8188 124.139 78.9719 123.829 79.0076C121.989 79.2223 120.927 78.4114 120.645 76.575C120.612 76.3797 120.509 76.1858 120.358 76.0311C120.206 75.8764 120.017 75.7722 119.826 75.7387C119.635 75.7051 119.457 75.7448 119.326 75.8498C119.195 75.9548 119.121 76.1178 119.119 76.3067ZM119.077 71.8648L119.089 73.4627C119.089 73.5032 119.097 73.5432 119.113 73.5805C119.128 73.6178 119.151 73.6515 119.18 73.6799C119.209 73.7082 119.243 73.7305 119.281 73.7454C119.318 73.7603 119.358 73.7676 119.399 73.7668L120.621 73.7549C120.959 73.7511 121.282 73.6379 121.519 73.4401C121.756 73.2422 121.888 72.9759 121.885 72.6996V72.5803C121.884 72.4431 121.85 72.3075 121.784 72.1814C121.719 72.0553 121.624 71.941 121.504 71.8452C121.384 71.7494 121.243 71.6739 121.087 71.6231C120.932 71.5722 120.765 71.547 120.597 71.5489L119.375 71.5608C119.295 71.5623 119.22 71.5951 119.164 71.6519C119.108 71.7088 119.077 71.7852 119.077 71.8648Z" fill="#1E1E1E"/>
<path d="M142.265 73.6228H145.383C145.442 73.6228 145.498 73.6461 145.539 73.6874C145.58 73.7288 145.604 73.7849 145.604 73.8434L145.598 75.5307C145.598 75.5892 145.574 75.6453 145.533 75.6867C145.492 75.7281 145.436 75.7513 145.377 75.7513L142.241 75.7394C142.182 75.7394 142.126 75.7626 142.085 75.804C142.044 75.8454 142.02 75.9015 142.02 75.96L142.038 78.7682C142.038 78.8267 142.015 78.8828 141.974 78.9242C141.932 78.9656 141.876 78.9888 141.818 78.9888H139.987C139.929 78.9888 139.873 78.9656 139.831 78.9242C139.79 78.8828 139.767 78.8267 139.767 78.7682V69.6698C139.767 69.6113 139.79 69.5552 139.831 69.5138C139.873 69.4725 139.929 69.4492 139.987 69.4492H146.099C146.157 69.4492 146.213 69.4725 146.255 69.5138C146.296 69.5552 146.319 69.6113 146.319 69.6698L146.331 71.3571C146.331 71.4157 146.308 71.4717 146.266 71.5131C146.225 71.5545 146.169 71.5777 146.11 71.5777L142.247 71.5658C142.217 71.565 142.187 71.5703 142.159 71.5814C142.131 71.5925 142.106 71.6091 142.085 71.6303C142.064 71.6515 142.047 71.6769 142.036 71.7047C142.025 71.7326 142.02 71.7624 142.02 71.7924L142.044 73.4022C142.044 73.4607 142.067 73.5168 142.109 73.5582C142.15 73.5995 142.206 73.6228 142.265 73.6228Z" fill="#1E1E1E"/>
<path d="M153.384 71.5658L151.053 71.5777C151.023 71.5778 150.994 71.5718 150.967 71.5604C150.94 71.5489 150.915 71.5322 150.895 71.511C150.874 71.4899 150.858 71.4649 150.847 71.4374C150.836 71.41 150.831 71.3806 150.832 71.3512L150.88 69.6639C150.881 69.6064 150.905 69.5518 150.946 69.5117C150.988 69.4716 151.043 69.4492 151.1 69.4492H158.374C158.433 69.4492 158.489 69.4725 158.53 69.5138C158.572 69.5552 158.595 69.6113 158.595 69.6698L158.577 71.387C158.576 71.4444 158.552 71.499 158.51 71.5391C158.469 71.5792 158.414 71.6016 158.356 71.6016L156.091 71.5658C156.061 71.565 156.032 71.5701 156.005 71.5809C155.977 71.5916 155.952 71.6077 155.931 71.6283C155.91 71.6489 155.893 71.6734 155.882 71.7006C155.87 71.7278 155.864 71.7569 155.864 71.7864V78.7682C155.864 78.8267 155.841 78.8828 155.8 78.9242C155.758 78.9656 155.702 78.9888 155.644 78.9888H153.813C153.755 78.9888 153.699 78.9656 153.657 78.9242C153.616 78.8828 153.593 78.8267 153.593 78.7682L153.605 71.7864C153.605 71.7279 153.581 71.6718 153.54 71.6304C153.499 71.5891 153.442 71.5658 153.384 71.5658Z" fill="#1E1E1E"/>
<path d="M165.523 72.955V69.646C165.523 69.6201 165.528 69.5946 165.538 69.5707C165.548 69.5468 165.563 69.5251 165.581 69.5069C165.599 69.4886 165.621 69.4741 165.645 69.4642C165.669 69.4543 165.694 69.4492 165.72 69.4492H167.592C167.618 69.4492 167.644 69.4543 167.668 69.4642C167.691 69.4741 167.713 69.4886 167.731 69.5069C167.75 69.5251 167.764 69.5468 167.774 69.5707C167.784 69.5946 167.789 69.6201 167.789 69.646V78.798C167.789 78.8239 167.784 78.8494 167.774 78.8733C167.764 78.8972 167.75 78.9189 167.731 78.9371C167.713 78.9554 167.691 78.9699 167.668 78.9798C167.644 78.9897 167.618 78.9948 167.592 78.9948L165.696 78.9829C165.644 78.9829 165.594 78.9621 165.557 78.9252C165.52 78.8883 165.5 78.8383 165.5 78.7861L165.541 75.5009C165.541 75.4487 165.521 75.3987 165.484 75.3618C165.447 75.3249 165.397 75.3042 165.345 75.3042L162.256 75.2684C162.204 75.2684 162.154 75.2891 162.117 75.326C162.08 75.3629 162.059 75.413 162.059 75.4651L162.053 78.7921C162.053 78.8442 162.033 78.8943 161.996 78.9312C161.959 78.9681 161.909 78.9888 161.857 78.9888H159.895C159.843 78.9888 159.793 78.9681 159.756 78.9312C159.719 78.8943 159.698 78.8442 159.698 78.7921L159.704 69.646C159.704 69.5938 159.725 69.5438 159.762 69.5069C159.799 69.47 159.849 69.4492 159.901 69.4492H161.869C161.894 69.4492 161.92 69.4543 161.944 69.4642C161.968 69.4741 161.989 69.4886 162.008 69.5069C162.026 69.5251 162.04 69.5468 162.05 69.5707C162.06 69.5946 162.065 69.6201 162.065 69.646L162.047 72.9491C162.047 73.0012 162.068 73.0513 162.105 73.0882C162.142 73.1251 162.192 73.1458 162.244 73.1458L165.327 73.1518C165.379 73.1518 165.429 73.131 165.466 73.0941C165.503 73.0572 165.523 73.0072 165.523 72.955Z" fill="#1E1E1E"/>
<path d="M172.231 71.7745L172.153 72.9073C172.151 72.9385 172.155 72.9699 172.165 72.9995C172.175 73.0291 172.192 73.0563 172.213 73.0792C172.234 73.1022 172.26 73.1205 172.289 73.133C172.318 73.1455 172.349 73.1519 172.38 73.1518H176.148C176.207 73.1518 176.264 73.1748 176.306 73.216C176.348 73.2572 176.373 73.3133 176.375 73.3724L176.392 75.0656C176.393 75.0959 176.388 75.126 176.377 75.1542C176.366 75.1824 176.349 75.2081 176.328 75.2297C176.307 75.2514 176.282 75.2686 176.254 75.2804C176.226 75.2921 176.196 75.2982 176.166 75.2982L172.404 75.2803C172.344 75.2803 172.286 75.3042 172.244 75.3467C172.201 75.3891 172.177 75.4468 172.177 75.5069L172.189 76.6397C172.189 76.6694 172.195 76.6989 172.206 76.7264C172.218 76.7539 172.234 76.7788 172.255 76.7999C172.276 76.8209 172.301 76.8376 172.329 76.849C172.356 76.8604 172.386 76.8663 172.416 76.8663L176.732 76.8603C176.791 76.8603 176.848 76.8833 176.89 76.9245C176.933 76.9657 176.957 77.0218 176.959 77.0809L177.007 78.7563C177.007 78.7865 177.002 78.8166 176.991 78.8448C176.98 78.873 176.963 78.8987 176.942 78.9204C176.921 78.942 176.896 78.9593 176.868 78.971C176.84 78.9828 176.81 78.9888 176.78 78.9888H170.067C170.006 78.9888 169.949 78.9649 169.906 78.9224C169.864 78.88 169.84 78.8223 169.84 78.7623L169.834 69.6758C169.834 69.6157 169.858 69.5581 169.9 69.5156C169.943 69.4731 170 69.4492 170.061 69.4492H176.506C176.566 69.4492 176.623 69.4731 176.666 69.5156C176.708 69.5581 176.732 69.6157 176.732 69.6758V71.3452C176.732 71.4053 176.708 71.4629 176.666 71.5054C176.623 71.5479 176.566 71.5718 176.506 71.5718L172.457 71.5598C172.399 71.5598 172.343 71.582 172.301 71.622C172.259 71.6619 172.234 71.7165 172.231 71.7745Z" fill="#1E1E1E"/>
<path d="M182.057 69.7775C182.057 69.6858 182.093 69.5979 182.158 69.533C182.223 69.4682 182.311 69.4317 182.402 69.4317L185.33 69.4258C185.97 69.425 186.603 69.546 187.195 69.7819C187.786 70.0179 188.323 70.3642 188.776 70.801C189.229 71.2379 189.589 71.7567 189.834 72.3279C190.08 72.8991 190.206 73.5114 190.207 74.13V74.2731C190.209 75.5223 189.697 76.7209 188.784 77.6053C187.872 78.4898 186.634 78.9875 185.342 78.9892L182.414 78.9952C182.323 78.9952 182.235 78.9588 182.17 78.8939C182.105 78.8291 182.069 78.7411 182.069 78.6494L182.057 69.7775ZM184.322 71.7987L184.334 76.6401C184.336 76.7039 184.362 76.7645 184.408 76.8091C184.454 76.8537 184.515 76.8786 184.579 76.8786H185.318C185.654 76.8778 185.986 76.8106 186.296 76.6807C186.606 76.5508 186.888 76.3609 187.125 76.1217C187.362 75.8825 187.55 75.5988 187.677 75.2868C187.805 74.9747 187.871 74.6404 187.87 74.3029V74.1121C187.868 73.4306 187.597 72.7776 187.116 72.2968C186.636 71.816 185.984 71.5468 185.306 71.5483H184.567C184.534 71.5483 184.502 71.5548 184.472 71.5675C184.442 71.5801 184.415 71.5987 184.392 71.622C184.369 71.6454 184.351 71.673 184.339 71.7034C184.327 71.7337 184.321 71.7661 184.322 71.7987Z" fill="#1E1E1E"/>
<path d="M196.193 77.2081L193.558 77.2022C193.296 77.1982 193.149 77.3274 193.117 77.5897C192.934 78.969 192.091 79.4023 190.589 78.8895C190.442 78.8378 190.394 78.7385 190.446 78.5914L193.445 70.1906C193.55 69.8942 193.745 69.6377 194.002 69.4561C194.258 69.2745 194.565 69.1767 194.88 69.176C195.194 69.1754 195.501 69.2719 195.759 69.4525C196.016 69.633 196.212 69.8887 196.319 70.1846L199.33 78.6152C199.421 78.8656 199.334 78.9909 199.067 78.9909L197.457 78.9849C197.191 78.9849 197.014 78.8577 196.927 78.6033L196.527 77.4466C196.472 77.2876 196.36 77.2081 196.193 77.2081ZM194.059 74.9186C194.05 74.9495 194.048 74.9821 194.053 75.0139C194.059 75.0457 194.072 75.0757 194.091 75.1017C194.11 75.1277 194.135 75.1489 194.163 75.1637C194.192 75.1785 194.223 75.1864 194.256 75.1869L195.532 75.1989C195.564 75.199 195.595 75.1918 195.624 75.1777C195.653 75.1637 195.678 75.1432 195.698 75.1178C195.717 75.0924 195.731 75.0629 195.737 75.0314C195.744 75 195.743 74.9675 195.734 74.9365L195.12 72.7484C195.108 72.7053 195.082 72.6673 195.046 72.6401C195.011 72.6129 194.968 72.5978 194.923 72.5971C194.878 72.5964 194.834 72.6102 194.798 72.6364C194.761 72.6626 194.734 72.6997 194.721 72.7424L194.059 74.9186Z" fill="#1E1E1E"/>
<path d="M203.336 72.6867L204.761 69.7354C204.802 69.6512 204.866 69.5802 204.945 69.5307C205.024 69.4812 205.115 69.455 205.208 69.4552H206.979C207.022 69.455 207.064 69.4659 207.101 69.487C207.138 69.5081 207.169 69.5386 207.191 69.5754C207.212 69.6122 207.224 69.654 207.225 69.6967C207.225 69.7395 207.214 69.7816 207.194 69.8189C206.299 71.4327 205.439 73.0544 204.612 74.6841C203.95 75.9898 204.165 77.2717 204.153 78.6728C204.153 78.8795 204.049 78.9829 203.843 78.9829L202.233 78.9888C202.186 78.9889 202.139 78.9794 202.096 78.9609C202.053 78.9424 202.014 78.9153 201.982 78.8813C201.949 78.8473 201.924 78.807 201.908 78.7629C201.892 78.7189 201.885 78.672 201.887 78.6251C201.953 77.0213 202.084 75.7513 201.279 74.2727C200.476 72.7821 199.681 71.2916 198.894 69.801C198.771 69.5705 198.84 69.4552 199.103 69.4552L200.832 69.4492C200.918 69.4492 201.003 69.4725 201.078 69.5165C201.152 69.5606 201.213 69.6238 201.255 69.6996L202.859 72.6987C203.026 73.0087 203.185 73.0047 203.336 72.6867Z" fill="#1E1E1E"/>
<path d="M33.4951 76.7477C38.402 78.5126 40.1132 84.8266 39.7614 89.4712C39.7415 89.7057 39.6243 89.7733 39.4096 89.6739C34.5981 87.444 31.4619 82.1853 33.2029 76.8908C33.2123 76.862 33.2274 76.8353 33.2473 76.8124C33.2672 76.7895 33.2915 76.7708 33.3187 76.7575C33.346 76.7441 33.3756 76.7364 33.4059 76.7347C33.4362 76.733 33.4665 76.7375 33.4951 76.7477Z" fill="#1E1E1E"/>
<path d="M246.968 77.0469C248.739 82.3056 245.34 87.463 240.702 89.7167C240.669 89.7334 240.632 89.7418 240.595 89.7409C240.557 89.7401 240.521 89.73 240.489 89.7118C240.456 89.6935 240.429 89.6675 240.409 89.6362C240.389 89.6048 240.377 89.569 240.374 89.5319C240.01 85.1734 241.692 78.2871 246.563 76.8382C246.644 76.8136 246.732 76.8216 246.808 76.8606C246.883 76.8995 246.941 76.9663 246.968 77.0469Z" fill="#1E1E1E"/>
<path d="M14.2554 79.1269C19.9017 78.1014 26.0011 80.2478 30.2462 83.9802C30.437 84.1471 30.4231 84.2922 30.2044 84.4154C24.2959 87.7424 17.1292 85.5363 14.0587 79.5383C13.9394 79.3117 14.005 79.1746 14.2554 79.1269Z" fill="#1E1E1E"/>
<path d="M249.836 84.0398C254.164 80.1763 260.079 78.1968 265.862 79.115C265.91 79.1223 265.955 79.141 265.994 79.1697C266.033 79.1984 266.065 79.2361 266.086 79.2798C266.108 79.3235 266.119 79.3719 266.118 79.421C266.118 79.4701 266.105 79.5185 266.083 79.5622C262.887 85.584 255.911 87.6827 249.883 84.4512C249.848 84.431 249.817 84.4027 249.794 84.3686C249.772 84.3345 249.757 84.2957 249.753 84.2554C249.748 84.215 249.753 84.1744 249.768 84.1369C249.782 84.0994 249.805 84.0661 249.836 84.0398Z" fill="#1E1E1E"/>
<path d="M50.3507 94.6341C45.2232 93.1435 41.0257 89.2204 41.4789 83.5861C41.4948 83.3675 41.612 83.278 41.8306 83.3178C47.1251 84.2658 50.2493 89.3217 50.6727 94.3718C50.6925 94.6103 50.5852 94.6977 50.3507 94.6341Z" fill="#1E1E1E"/>
<path d="M229.445 94.3192C229.916 89.0367 232.98 84.6186 238.221 83.2652C238.273 83.252 238.328 83.2504 238.38 83.2603C238.433 83.2702 238.483 83.2916 238.527 83.3228C238.57 83.354 238.607 83.3944 238.633 83.441C238.66 83.4877 238.676 83.5396 238.68 83.5931C239.157 89.1321 234.817 93.2878 229.749 94.5756C229.522 94.6313 229.421 94.5458 229.445 94.3192Z" fill="#1E1E1E"/>
<path d="M63.6524 97.586C58.3639 97.1627 53.0276 94.7063 52.5208 88.7202C52.5165 88.6757 52.5231 88.6309 52.54 88.5895C52.5569 88.5481 52.5837 88.5113 52.6181 88.4821C52.6525 88.453 52.6935 88.4323 52.7378 88.4218C52.7821 88.4114 52.8283 88.4115 52.8726 88.4221C57.8451 89.692 62.2333 91.8384 64.0697 97.0435C64.0928 97.107 64.0994 97.1752 64.0889 97.2419C64.0785 97.3087 64.0513 97.3719 64.0098 97.4258C63.9684 97.4797 63.914 97.5225 63.8515 97.5505C63.7891 97.5785 63.7207 97.5907 63.6524 97.586Z" fill="#1E1E1E"/>
<path d="M216.03 97.0153C218.033 91.7745 222.07 89.8547 227.179 88.4535C227.374 88.3979 227.474 88.4714 227.478 88.6741C227.68 94.5052 221.223 97.373 216.406 97.54C216.342 97.5422 216.278 97.5285 216.221 97.5003C216.164 97.4721 216.114 97.4302 216.077 97.3783C216.04 97.3264 216.016 97.266 216.008 97.2027C216 97.1394 216.007 97.075 216.03 97.0153Z" fill="#1E1E1E"/>
<path d="M40.9836 90.9861C41.5758 91.2405 41.5858 91.5167 41.0134 91.8149C34.9557 94.9589 29.3532 94.3687 24.2058 90.044C24.0309 89.897 24.0428 89.7658 24.2416 89.6506C28.5404 87.1583 36.3867 89.0364 40.9836 90.9861Z" fill="#1E1E1E"/>
<path d="M238.919 91.0977C243.486 89.0646 251.171 87.1925 255.869 89.6012C256.104 89.7244 256.12 89.8715 255.917 90.0424C250.698 94.4306 245.024 94.9812 238.895 91.694C238.841 91.664 238.796 91.6196 238.766 91.5656C238.735 91.5117 238.72 91.4504 238.723 91.3885C238.725 91.3267 238.745 91.2667 238.78 91.2154C238.814 91.164 238.862 91.1233 238.919 91.0977Z" fill="#1E1E1E"/>
<path d="M33.7822 97.764C33.1939 97.4381 33.176 97.0803 33.7285 96.6908C38.1048 93.6024 47.2807 94.4967 52.1936 95.7011C52.2415 95.712 52.2854 95.7362 52.3202 95.7708C52.3551 95.8055 52.3795 95.8492 52.3906 95.8971C52.4018 95.9449 52.3994 95.995 52.3835 96.0415C52.3677 96.088 52.339 96.1291 52.3009 96.1602C46.5374 100.886 40.3645 101.421 33.7822 97.764Z" fill="#1E1E1E"/>
<path d="M246.45 96.5898C247.161 96.9158 247.177 97.2715 246.497 97.6571C239.907 101.433 233.68 100.938 227.818 96.1725C227.778 96.141 227.748 96.099 227.732 96.0514C227.715 96.0038 227.712 95.9525 227.723 95.9033C227.735 95.8541 227.76 95.8091 227.795 95.7734C227.831 95.7377 227.876 95.7128 227.925 95.7015C233.959 94.2228 240.63 93.9366 246.45 96.5898Z" fill="#1E1E1E"/>
<path d="M48.3404 101.139C48.2013 101.083 48.084 101.007 47.9886 100.912C47.9598 100.883 47.9376 100.847 47.9233 100.809C47.9091 100.77 47.9031 100.729 47.906 100.688C47.9088 100.647 47.9203 100.607 47.9397 100.57C47.959 100.534 47.9859 100.502 48.0184 100.477C51.7925 97.4896 59.2394 97.8831 63.7409 98.3899C63.9476 98.4098 64.043 98.5231 64.0271 98.7298C63.7647 102.182 58.1543 103.148 55.5368 102.862C53.0724 102.591 50.6736 102.017 48.3404 101.139Z" fill="#1E1E1E"/>
<path d="M216.334 98.473C219.822 97.9185 229.66 97.4952 232.081 100.572C232.232 100.763 232.194 100.904 231.967 100.995C229.002 102.231 225.947 102.837 222.803 102.814C220.263 102.796 216.644 101.711 216.084 98.8367C216.044 98.63 216.128 98.5088 216.334 98.473Z" fill="#1E1E1E"/>
</svg>
