<svg width="360" height="175" viewBox="0 0 360 175" fill="none" xmlns="http://www.w3.org/2000/svg">
<path fill-rule="evenodd" clip-rule="evenodd" d="M1.4668 1.4668H173.38V172.947H1.4668V1.4668Z" fill="white"/>
<path fill-rule="evenodd" clip-rule="evenodd" d="M33.5835 87.0603C33.5835 85.6904 33.6423 84.3206 33.76 82.9537L34.1717 79.3164C35.4656 70.2437 38.9356 61.9895 44.5817 54.5594L44.7582 54.3834L45.9933 52.8581C51.9129 45.739 59.1294 40.4973 67.6368 37.1357L67.8721 37.0184L69.5777 36.4317L69.9306 36.2557C72.0861 35.5899 73.8329 35.1029 75.165 34.7891C77.1265 34.3197 79.1438 33.9678 81.2229 33.7331L83.3402 33.4984H83.8695C84.143 33.4603 84.537 33.4398 85.0458 33.4398L91.3389 33.4984L91.7506 33.5571C97.0438 33.9472 102.181 35.1411 107.16 37.1357C115.394 40.3418 122.472 45.387 128.392 52.2715L137.096 44.9383C130.9 37.6637 123.469 32.0318 114.806 28.0425C106.139 24.0532 97.0232 22.0586 87.4571 22.0586C69.4601 22.0586 54.089 28.4121 41.347 41.125C28.6049 53.8349 22.2324 69.1672 22.2324 87.119C22.2324 93.8861 23.2499 100.436 25.2907 106.772H37.3476L35.5832 101.609L33.9952 93.8655V93.6309L33.76 91.6949V91.5189C33.6423 90.0699 33.5835 88.5856 33.5835 87.0603Z" fill="#F9B400"/>
<path fill-rule="evenodd" clip-rule="evenodd" d="M22.2317 87.1187C22.2317 69.1669 28.6042 53.8346 41.3463 41.1247C54.0883 28.4118 69.4594 22.0583 87.4564 22.0583C97.0255 22.0583 106.142 24.0529 114.805 28.0422C123.471 32.0315 130.902 37.6634 137.095 44.938L139.33 43.0606C132.823 35.4341 125.059 29.547 116.04 25.4022C106.983 21.2164 97.4548 19.125 87.4564 19.125C68.6742 19.125 52.618 25.7718 39.2878 39.0714C25.9576 52.368 19.291 68.3837 19.291 87.1187C19.291 105.851 25.9576 121.869 39.2878 135.166C52.618 148.463 68.6742 155.112 87.4564 155.112C106.239 155.112 122.295 148.463 135.625 135.166C148.917 121.869 155.563 105.851 155.563 87.1187V85.652H47.5217V88.5853H152.622C152.231 106.185 145.703 121.183 133.037 133.582C120.375 145.978 105.18 152.179 87.4564 152.179C69.4594 152.179 54.0883 145.823 41.3463 133.113C28.6042 120.362 22.2317 105.029 22.2317 87.1187Z" fill="#161615"/>
<path fill-rule="evenodd" clip-rule="evenodd" d="M129.275 138.568L149.56 173.65L152.095 172.187L131.804 137.104L129.275 138.568Z" fill="#161615"/>
<path fill-rule="evenodd" clip-rule="evenodd" d="M22.1728 106.772C20.2525 100.436 19.2909 93.886 19.2909 87.1189C19.2909 68.3869 25.9575 52.3711 39.2877 39.0716C52.6208 25.775 68.6741 19.1252 87.4563 19.1252C94.1229 19.1252 100.689 20.0844 107.159 21.9998V1.4668H1.58789V106.772H22.1728Z" fill="#CA000E"/>
<path fill-rule="evenodd" clip-rule="evenodd" d="M152.623 88.5859H141.272C141.113 95.1565 139.743 101.531 137.155 107.711L134.685 112.815L130.215 119.679L127.745 122.671L126.745 123.727L126.51 124.02L122.157 128.127L119.099 130.532L117.629 131.529L114.57 133.465L114.335 133.641L105.572 137.631L105.219 137.807L99.7492 139.391H99.6316L95.7499 140.153H95.6323L91.6329 140.622H91.5741L84.6929 140.74L82.3403 140.564L82.0462 140.505L76.8706 139.743C67.4604 137.865 59.1676 133.776 51.9923 127.481L46.2285 137.513C51.9541 142.168 58.2648 145.765 65.1666 148.308C72.3419 150.889 79.7731 152.18 87.4571 152.18C105.181 152.18 120.372 145.979 133.038 133.583C145.701 121.184 152.232 106.186 152.623 88.5859Z" fill="#F9B400"/>
<path fill-rule="evenodd" clip-rule="evenodd" d="M22.7617 172.184L25.2907 173.651L87.4571 66.2924L122.863 127.481L125.039 125.486L87.4571 60.4258L22.7617 172.184Z" fill="#161615"/>
<path fill-rule="evenodd" clip-rule="evenodd" d="M87.4559 60.4258L60.6367 106.772H114.275L87.4559 60.4258Z" fill="#003D83"/>
<path fill-rule="evenodd" clip-rule="evenodd" d="M0 174.413H174.854V0H0V174.413ZM2.9407 171.48H171.913V2.93329H2.9407V171.48Z" fill="#161615"/>
<path fill-rule="evenodd" clip-rule="evenodd" d="M215.317 101.375L216.317 104.132H208.554L209.553 101.375C210.377 99.1456 211.318 96.3883 212.376 93.103H212.494C213.553 96.3883 214.494 99.1456 215.317 101.375ZM214.964 85.5938H209.906L197.908 116.921H203.79L206.789 108.943H218.14L221.081 116.921H226.904L214.964 85.5938Z" fill="#181818"/>
<path fill-rule="evenodd" clip-rule="evenodd" d="M253.547 88.703V85.5938H230.492V90.4043H246.254L230.08 113.812V116.921H253.782V112.111H237.432L253.547 88.703Z" fill="#181818"/>
<path fill-rule="evenodd" clip-rule="evenodd" d="M274.249 91.1083C275.111 91.5366 275.699 92.047 276.014 92.6336C276.328 93.3376 276.484 94.0798 276.484 94.8629C276.484 95.9189 276.27 96.7989 275.837 97.5029C275.446 98.2861 274.679 98.8698 273.544 99.2629C272.955 99.4975 272.211 99.6735 271.309 99.7909C270.447 99.9082 269.388 99.9669 268.133 99.9669H265.368V90.4043H269.309C270.485 90.4043 271.485 90.463 272.308 90.5803C273.091 90.6977 273.741 90.8737 274.249 91.1083ZM273.308 85.8284C272.094 85.67 270.662 85.5938 269.015 85.5938H259.84V116.921H265.368V104.777H269.191L277.366 116.921H284.012L275.014 104.015V103.956C277.443 103.211 279.248 102.079 280.425 100.554C281.601 99.0282 282.189 97.1685 282.189 94.9803C282.189 92.8683 281.698 91.1465 280.719 89.8177C279.778 88.4097 278.425 87.3537 276.661 86.6497C275.914 86.3769 274.799 86.1012 273.308 85.8284Z" fill="#181818"/>
<path fill-rule="evenodd" clip-rule="evenodd" d="M289.305 85.5938H294.833V116.921H289.305V85.5938Z" fill="#181818"/>
<path fill-rule="evenodd" clip-rule="evenodd" d="M322.065 85.5938H302.539V116.921H322.889V112.111H308.009V103.311H320.066V98.5002H308.009V90.4043H322.065V85.5938Z" fill="#181818"/>
<path fill-rule="evenodd" clip-rule="evenodd" d="M334.71 85.5938H329.182V116.921H348.826V112.111H334.71V85.5938Z" fill="#181818"/>
<path fill-rule="evenodd" clip-rule="evenodd" d="M354.471 85.5967H359.999V116.921H354.471V85.5967Z" fill="#181818"/>
<path fill-rule="evenodd" clip-rule="evenodd" d="M199.967 159.454C199.967 161.8 200.302 163.933 200.967 165.848C201.672 167.805 202.693 169.447 204.025 170.776C205.319 172.067 206.986 173.102 209.024 173.885C211.062 174.627 213.338 175 215.847 175L221.022 174.472L223.081 173.944C223.592 173.788 224.06 173.613 224.492 173.416V158.28H213.906V161.741H220.787V171.011C219.964 171.245 219.22 171.383 218.552 171.421L215.964 171.597C214.241 171.597 212.553 171.342 210.906 170.835C209.339 170.365 208.024 169.603 206.966 168.547C205.948 167.57 205.122 166.279 204.495 164.675C203.907 163.111 203.613 161.234 203.613 159.043C203.613 156.814 203.966 154.878 204.672 153.235C205.419 151.513 206.357 150.146 207.495 149.128C208.633 148.034 210.006 147.213 211.612 146.664C213.259 146.119 214.888 145.843 216.494 145.843C217.67 145.843 218.846 145.96 220.022 146.195C221.002 146.353 222.043 146.606 223.14 146.958V143.614C222.707 143.379 222.278 143.224 221.846 143.144L218.317 142.558C217.455 142.479 216.788 142.44 216.317 142.44C213.847 142.44 211.612 142.851 209.612 143.672C207.495 144.535 205.751 145.667 204.378 147.075C202.928 148.68 201.831 150.478 201.084 152.472C200.34 154.546 199.967 156.872 199.967 159.454Z" fill="#181818"/>
<path fill-rule="evenodd" clip-rule="evenodd" d="M247.723 148.777C248.312 149.56 248.644 150.633 248.723 152.003C248.723 153.449 248.37 154.602 247.665 155.464C246.997 156.362 246.018 157.028 244.724 157.459L242.548 157.87C241.53 157.946 240.569 157.987 239.666 157.987H236.078V146.489H240.195C241.098 146.489 242.057 146.527 243.077 146.606C243.704 146.644 244.353 146.782 245.018 147.017C246.156 147.369 247.056 147.955 247.723 148.777ZM250.899 146.723C249.723 145.277 248.115 144.259 246.077 143.673C245.527 143.517 244.686 143.359 243.548 143.203C242.607 143.086 241.489 143.027 240.195 143.027H232.373V174.414H236.078V161.39H240.489L249.782 174.414H253.428L244.548 160.979V160.92C245.803 160.686 246.88 160.334 247.782 159.864C248.841 159.354 249.703 158.75 250.37 158.046C251.035 157.38 251.585 156.52 252.017 155.464C252.37 154.485 252.546 153.353 252.546 152.062C252.546 149.871 251.996 148.093 250.899 146.723Z" fill="#181818"/>
<path fill-rule="evenodd" clip-rule="evenodd" d="M283.482 158.75C283.482 160.744 283.209 162.601 282.659 164.323C282.109 165.965 281.386 167.294 280.483 168.312C279.621 169.327 278.521 170.151 277.189 170.776C275.895 171.325 274.543 171.597 273.131 171.597C271.678 171.597 270.308 171.325 269.014 170.776C267.72 170.189 266.623 169.368 265.72 168.312C264.738 167.218 263.994 165.886 263.485 164.323C262.936 162.601 262.662 160.744 262.662 158.75C262.662 156.676 262.936 154.819 263.485 153.176C263.994 151.572 264.721 150.222 265.662 149.128C266.603 148.072 267.72 147.251 269.014 146.664C270.308 146.116 271.661 145.843 273.072 145.843C274.484 145.843 275.857 146.116 277.189 146.664C278.445 147.251 279.542 148.072 280.483 149.128C281.424 150.222 282.147 151.572 282.659 153.176C283.209 154.819 283.482 156.676 283.482 158.75ZM286.129 152.179C285.579 150.261 284.659 148.542 283.365 147.016C282.188 145.608 280.718 144.494 278.954 143.672C277.269 142.851 275.307 142.44 273.072 142.44C270.955 142.44 269.014 142.851 267.25 143.672C265.565 144.494 264.094 145.608 262.839 147.016C261.583 148.501 260.642 150.222 260.015 152.179C259.348 154.25 259.016 156.441 259.016 158.75C259.016 161.017 259.348 163.188 260.015 165.261C260.683 167.294 261.603 169.016 262.78 170.424C263.956 171.832 265.426 172.947 267.191 173.768C268.955 174.589 270.934 175 273.131 175C275.287 175 277.21 174.589 278.895 173.768C280.618 172.947 282.088 171.832 283.306 170.424C284.561 168.937 285.503 167.218 286.129 165.261C286.793 163.188 287.129 161.017 287.129 158.75C287.129 156.441 286.793 154.25 286.129 152.179Z" fill="#181818"/>
<path fill-rule="evenodd" clip-rule="evenodd" d="M298.54 166.67C298.304 166.045 298.148 165.379 298.069 164.675C297.951 163.933 297.893 163.208 297.893 162.504V143.027H294.246L294.364 164.968L294.834 167.491C295.228 168.702 295.678 169.703 296.187 170.483C296.775 171.422 297.501 172.205 298.363 172.83C299.304 173.534 300.383 174.062 301.598 174.414C302.971 174.804 304.421 175 305.95 175C307.597 175 309.108 174.786 310.479 174.355C311.773 173.927 312.872 173.358 313.772 172.654C314.675 171.988 315.419 171.149 316.007 170.131C316.557 169.192 316.987 168.119 317.301 166.904C317.46 166.28 317.578 165.534 317.654 164.675L317.772 143.027H314.066L314.008 164.323C313.928 164.989 313.811 165.555 313.655 166.024C313.537 166.728 313.225 167.491 312.714 168.312C312.361 168.899 311.831 169.486 311.126 170.072C310.499 170.542 309.752 170.914 308.891 171.187C307.95 171.46 306.991 171.598 306.009 171.598C304.009 171.598 302.383 171.149 301.127 170.248C299.875 169.351 299.01 168.157 298.54 166.67Z" fill="#181818"/>
<path fill-rule="evenodd" clip-rule="evenodd" d="M341.296 148.953C341.846 149.736 342.12 150.733 342.12 151.945C342.12 152.962 341.943 153.842 341.591 154.585C341.238 155.327 340.688 155.992 339.944 156.579C339.2 157.128 338.2 157.538 336.944 157.811C335.494 158.087 334.024 158.222 332.533 158.222L329.475 158.046V146.489H333.709C334.806 146.489 335.788 146.547 336.65 146.665C337.512 146.744 338.259 146.92 338.885 147.193C339.905 147.624 340.708 148.21 341.296 148.953ZM325.77 143.027V174.414H329.475V161.507C330.181 161.586 331.222 161.624 332.592 161.624C334.747 161.624 336.632 161.428 338.238 161.038C339.885 160.648 341.279 160.02 342.414 159.16C343.552 158.418 344.434 157.421 345.061 156.168C345.69 154.957 346.002 153.549 346.002 151.945C346.002 150.029 345.531 148.386 344.59 147.017C343.649 145.65 342.276 144.652 340.473 144.025C339.65 143.711 338.688 143.459 337.591 143.262C336.18 143.107 335.024 143.027 334.121 143.027H325.77Z" fill="#181818"/>
</svg>
