<svg width="25" height="18" viewBox="0 0 25 18" fill="none" xmlns="http://www.w3.org/2000/svg">
<path d="M10.964 1.39961L0.654984 13.7705C0.307119 14.191 0.140082 14.7323 0.19045 15.2757C0.240819 15.8192 0.504489 16.3205 0.92372 16.6699C1.34295 17.0194 1.88358 17.1885 2.42721 17.1402C2.97084 17.0918 3.47317 16.8301 3.8242 16.4122L12.5487 5.94203L21.2732 16.4122C21.6238 16.8317 22.1265 17.0949 22.671 17.144C23.2155 17.1931 23.7572 17.0241 24.1771 16.674C24.5971 16.324 24.8609 15.8216 24.9107 15.2772C24.9604 14.7327 24.792 14.1908 24.4425 13.7705L14.1333 1.39961C13.9395 1.16765 13.6971 0.981059 13.4233 0.853025C13.1495 0.72499 12.8509 0.65863 12.5487 0.65863C12.2464 0.65863 11.9478 0.72499 11.674 0.853025C11.4002 0.98106 11.1578 1.16765 10.964 1.39961Z" fill="white"/>
</svg>
