<svg width="113" height="50" viewBox="0 0 113 50" fill="none" xmlns="http://www.w3.org/2000/svg">
<path d="M29.0008 38.8999C27.558 39.6236 24.0591 40.4921 19.6585 40.4921C6.99766 40.4921 0.468859 32.5312 0.468859 22.0374C0.432788 9.48092 9.34225 2.49707 20.452 2.49707C24.7444 2.49707 27.9908 3.32934 29.4697 4.12543L27.7383 10.675C26.1151 9.95133 23.7705 9.29999 20.7767 9.29999C14.2479 9.29999 9.12583 13.2804 9.12583 21.4584C9.12583 28.8403 13.4904 33.4721 20.8127 33.4721C23.3377 33.4721 26.0791 33.0017 27.7744 32.2779L29.0008 38.8999Z" fill="white"/>
<path d="M66.4062 21.0958C66.4062 33.218 59.192 40.4552 48.4069 40.4552C37.5857 40.4552 31.2012 32.241 31.2012 21.6748C31.2012 10.6381 38.271 2.42394 49.0562 2.42394C60.2381 2.38776 66.4062 10.8914 66.4062 21.0958ZM39.9303 21.53C39.9303 28.7672 43.2849 33.8694 48.8398 33.8694C54.4307 33.8694 57.641 28.5139 57.641 21.3853C57.641 14.7271 54.575 9.04594 48.8398 9.04594C43.1766 9.04594 39.9303 14.4014 39.9303 21.53Z" fill="white"/>
<path d="M69.832 24.1362C70.9863 23.9553 72.6816 23.8105 74.6294 23.8105C76.974 23.8105 78.6694 24.1724 79.7875 25.0409C80.7615 25.8008 81.2664 26.9225 81.2664 28.4061C81.2664 30.3964 79.8236 31.8438 78.489 32.3142V32.4228C79.6072 32.857 80.1843 33.9064 80.6172 35.39C81.1222 37.1993 81.5911 39.298 81.8797 39.9132H78.2004C77.9479 39.4428 77.5512 38.1763 77.1183 36.1861C76.6855 34.1959 76.0001 33.6531 74.5212 33.6531H73.4752V39.9132H69.9042V24.1362H69.832ZM73.367 30.9753H74.7737C76.5412 30.9753 77.6233 30.0707 77.6233 28.6956C77.6233 27.2482 76.6494 26.5245 74.9901 26.5245C74.1244 26.5245 73.6195 26.5607 73.367 26.633V30.9753Z" fill="white"/>
<path d="M107.633 24.3172H94.143V33.0742H109.184V39.8771H85.8828V3.07617H108.427V9.87909H94.143V17.5143H107.633V24.3172Z" fill="white"/>
<path d="M69.6152 4.73973C70.7695 4.55881 72.3205 4.41406 73.9437 4.41406C76.649 4.41406 78.4526 4.92066 79.7872 5.93386C81.2661 7.01944 82.1678 8.75635 82.1678 11.2894C82.1678 14.0033 81.1939 15.8849 79.8593 17.0429C78.3804 18.2732 76.0719 18.8522 73.2944 18.8522C71.6352 18.8522 70.4449 18.7436 69.6513 18.6351V4.73973H69.6152ZM72.8255 16.3192C73.1141 16.3915 73.5469 16.3915 73.9437 16.3915C76.8654 16.4277 78.7772 14.8356 78.7772 11.3979C78.7772 8.43068 77.0458 6.87469 74.2684 6.87469C73.583 6.87469 73.1141 6.94707 72.8255 6.98325V16.3192Z" fill="#C82728"/>
<path d="M5.3744 48.887C5.15798 48.9955 4.68906 49.1041 4.11193 49.1041C2.56089 49.1041 1.62305 48.1271 1.62305 46.6435C1.62305 45.0151 2.74124 44.0381 4.25621 44.0381C4.83334 44.0381 5.26619 44.1466 5.44654 44.2552L5.26619 44.9789C5.04976 44.8704 4.72513 44.798 4.29228 44.798C3.2823 44.798 2.59696 45.4131 2.59696 46.6073C2.59696 47.6928 3.21016 48.3804 4.29228 48.3804C4.65299 48.3804 5.01369 48.308 5.26619 48.1995L5.3744 48.887Z" fill="white"/>
<path d="M11.7587 46.4988C11.7587 48.1271 10.7487 49.068 9.41412 49.068C8.04343 49.068 7.17773 48.0186 7.17773 46.5711C7.17773 45.0513 8.11557 44.002 9.52233 44.002C10.9291 44.002 11.7587 45.0875 11.7587 46.4988ZM8.11557 46.5711C8.11557 47.5843 8.62056 48.3804 9.48626 48.3804C10.352 48.3804 10.8209 47.5843 10.8209 46.535C10.8209 45.5941 10.352 44.7257 9.48626 44.7257C8.58449 44.7257 8.11557 45.5579 8.11557 46.5711Z" fill="white"/>
<path d="M13.9941 44.1828C14.3909 44.1104 14.8959 44.0742 15.4009 44.0742C16.3027 44.0742 16.9519 44.2551 17.3848 44.6532C17.8537 45.0512 18.1423 45.6302 18.1423 46.4625C18.1423 47.3309 17.8537 47.9823 17.3848 48.4165C16.9159 48.8507 16.1223 49.104 15.1845 49.104C14.6795 49.104 14.2827 49.0679 13.9941 49.0317V44.1828ZM14.8959 48.3441C15.0041 48.3803 15.2205 48.3803 15.4009 48.3803C16.5552 48.3803 17.2405 47.729 17.2405 46.4987C17.2405 45.4131 16.6273 44.7979 15.5091 44.7979C15.2205 44.7979 15.0402 44.8341 14.8959 44.8341V48.3441Z" fill="white"/>
<path d="M23.1574 46.8243H21.3178V48.2718H23.3738V48.9955H20.416V44.0742H23.2656V44.7979H21.3178V46.0644H23.1574V46.8243Z" fill="white"/>
<path d="M26.5836 47.6204L26.1507 48.9955H25.2129L26.7639 44.0742H27.9182L29.5053 48.9955H28.5314L28.0985 47.6204H26.5836ZM27.9903 46.9329L27.5936 45.7388C27.4853 45.4493 27.4132 45.0874 27.3411 44.8341C27.2689 45.1236 27.1968 45.4493 27.1246 45.7388L26.7639 46.9329H27.9903Z" fill="white"/>
<path d="M31.6699 48.9955V44.0742H32.6799L33.9424 46.173C34.267 46.7158 34.5556 47.2948 34.772 47.8014C34.6999 47.15 34.6999 46.4987 34.6999 45.775V44.0742H35.5295V48.9955H34.5916L33.3292 46.8243C33.0045 46.2816 32.716 45.7026 32.4635 45.1236H32.4274C32.4635 45.7749 32.4635 46.3901 32.4635 47.2224V48.9955H31.6699Z" fill="white"/>
<path d="M38.0547 44.1828C38.4515 44.1104 38.9565 44.0742 39.4614 44.0742C40.3632 44.0742 41.0125 44.2551 41.4453 44.6532C41.9143 45.0512 42.2028 45.6302 42.2028 46.4625C42.2028 47.3309 41.9143 47.9823 41.4453 48.4165C40.9764 48.8507 40.1829 49.104 39.245 49.104C38.74 49.104 38.3433 49.0679 38.0547 49.0317V44.1828ZM38.9565 48.3441C39.0647 48.3803 39.2811 48.3803 39.4614 48.3803C40.6157 48.3803 41.3011 47.729 41.3011 46.4987C41.3011 45.4131 40.6879 44.7979 39.5697 44.7979C39.2811 44.7979 39.1007 44.8341 38.9565 44.8341V48.3441Z" fill="white"/>
<path d="M47.974 48.888C47.7576 48.9965 47.2887 49.1051 46.7115 49.1051C45.1605 49.1051 44.2227 48.1281 44.2227 46.6444C44.2227 45.0161 45.3408 44.0391 46.8558 44.0391C47.433 44.0391 47.8658 44.1476 48.0462 44.2562L47.8658 44.9799C47.6494 44.8713 47.3247 44.799 46.8919 44.799C45.8819 44.799 45.1966 45.4141 45.1966 46.6083C45.1966 47.6938 45.8098 48.3814 46.8919 48.3814C47.2526 48.3814 47.6133 48.309 47.8658 48.2004L47.974 48.888Z" fill="white"/>
<path d="M54.3583 46.4988C54.3583 48.1271 53.3483 49.068 52.0137 49.068C50.643 49.068 49.7773 48.0186 49.7773 46.5711C49.7773 45.0513 50.7152 44.002 52.1219 44.002C53.4926 44.002 54.3583 45.0875 54.3583 46.4988ZM50.7152 46.5711C50.7152 47.5843 51.2202 48.3804 52.0859 48.3804C52.9516 48.3804 53.4205 47.5843 53.4205 46.535C53.4205 45.5941 52.9516 44.7257 52.0859 44.7257C51.1841 44.7257 50.7152 45.5579 50.7152 46.5711Z" fill="white"/>
<path d="M56.5938 44.1828C56.9184 44.1104 57.4234 44.0742 57.9284 44.0742C58.6137 44.0742 59.1187 44.1828 59.4433 44.4723C59.6958 44.6894 59.8762 45.0512 59.8762 45.4493C59.8762 46.1006 59.4433 46.4987 58.9744 46.6796V46.7158C59.3351 46.8605 59.5515 47.1862 59.6598 47.6566C59.804 48.2718 59.9483 48.8507 60.0565 49.0317H59.1548C59.0826 48.8869 58.9744 48.4889 58.8301 47.8737C58.6858 47.2224 58.4694 47.0415 57.9644 47.0053H57.5316V49.0317H56.6298V44.1828H56.5938ZM57.4594 46.3177H58.0005C58.6137 46.3177 58.9744 45.9921 58.9744 45.5216C58.9744 44.9789 58.6137 44.7256 58.0366 44.7256C57.748 44.7256 57.5677 44.7617 57.4955 44.7617L57.4594 46.3177Z" fill="white"/>
<path d="M64.8898 46.8243H63.0502V48.2718H65.1062V48.9955H62.1484V44.0742H64.998V44.7979H63.0502V46.0644H64.8898V46.8243Z" fill="white"/>
<path d="M70.9888 44.8341H69.582V44.0742H73.2612V44.8341H71.8545V48.9955H70.9888V44.8341Z" fill="white"/>
<path d="M78.0578 46.8243H76.2182V48.2718H78.2742V48.9955H75.3164V44.0742H78.166V44.7979H76.2182V46.0644H78.0578V46.8243Z" fill="white"/>
<path d="M84.0092 48.887C83.7927 48.9955 83.3238 49.1041 82.7467 49.1041C81.1956 49.1041 80.2578 48.1271 80.2578 46.6435C80.2578 45.0151 81.376 44.0381 82.891 44.0381C83.4681 44.0381 83.901 44.1466 84.0813 44.2552L83.901 44.9789C83.6845 44.8704 83.3599 44.798 82.927 44.798C81.9171 44.798 81.2317 45.4131 81.2317 46.6073C81.2317 47.6928 81.8449 48.3804 82.927 48.3804C83.2877 48.3804 83.6485 48.308 83.901 48.1995L84.0092 48.887Z" fill="white"/>
<path d="M87.1479 44.1113V46.0654H89.2039V44.1113H90.1057V49.0326H89.2039V46.8614H87.1479V49.0326H86.2461V44.1113H87.1479Z" fill="white"/>
<path d="M95.5505 44.1113H96.4523V48.2727H98.4723V49.0326H95.5866V44.1113H95.5505Z" fill="white"/>
<path d="M100.601 44.1113H101.503V48.2727H103.523V49.0326H100.637V44.1113H100.601Z" fill="white"/>
<path d="M105.615 44.1828C105.94 44.1104 106.373 44.0742 106.986 44.0742C107.635 44.0742 108.104 44.219 108.429 44.4723C108.717 44.7256 108.898 45.0874 108.898 45.5578C108.898 46.0283 108.753 46.3901 108.501 46.6796C108.14 47.0414 107.599 47.2224 106.95 47.2224C106.77 47.2224 106.625 47.2224 106.517 47.1862V49.0317H105.615V44.1828ZM106.517 46.4625C106.625 46.4987 106.77 46.4987 106.95 46.4987C107.599 46.4987 108.032 46.173 108.032 45.594C108.032 45.0512 107.671 44.7617 107.022 44.7617C106.769 44.7617 106.589 44.7979 106.517 44.7979V46.4625Z" fill="white"/>
<path d="M112.468 1.84547C112.468 2.89486 111.639 3.69095 110.592 3.69095C109.546 3.69095 108.717 2.85867 108.717 1.84547C108.717 0.832272 109.546 0 110.629 0C111.639 0 112.468 0.796086 112.468 1.84547ZM109.15 1.84547C109.15 2.67775 109.763 3.32909 110.592 3.32909C111.386 3.32909 111.999 2.67775 111.999 1.88166C111.999 1.04939 111.386 0.398043 110.592 0.398043C109.763 0.361858 109.15 1.0132 109.15 1.84547ZM110.304 2.7863H109.871V0.940829C110.051 0.904644 110.268 0.868458 110.592 0.868458C110.953 0.868458 111.097 0.940829 111.206 1.0132C111.314 1.08557 111.386 1.23032 111.386 1.41124C111.386 1.62836 111.206 1.7731 110.989 1.84547V1.88166C111.17 1.95403 111.242 2.09877 111.314 2.31589C111.386 2.60537 111.422 2.71393 111.458 2.75012H111.025C110.953 2.67775 110.953 2.533 110.881 2.31589C110.845 2.13496 110.737 2.0264 110.484 2.0264H110.268V2.7863H110.304ZM110.304 1.73692H110.52C110.773 1.73692 110.953 1.66454 110.953 1.48362C110.953 1.30269 110.845 1.19413 110.556 1.19413C110.448 1.19413 110.376 1.19413 110.304 1.23032V1.73692Z" fill="white"/>
</svg>
