<svg width="581" height="123" viewBox="0 0 581 123" fill="none" xmlns="http://www.w3.org/2000/svg">
<path d="M74.4316 90.3167H134.385V1.44043L74.4316 90.3167Z" fill="#F78B00"/>
<path d="M0 0V90.3172L134.386 0H0Z" fill="#ED5505"/>
<path fill-rule="evenodd" clip-rule="evenodd" d="M570.792 3.444C576.063 3.444 580.35 7.69629 580.35 12.9677C580.35 18.2743 576.063 22.4211 570.792 22.4211C565.485 22.4211 561.198 18.2743 561.198 12.9677C561.198 7.69629 565.485 3.444 570.792 3.444ZM570.792 21.0506C575.22 21.0506 578.839 17.3957 578.839 12.9677C578.839 8.50458 575.22 4.92 570.792 4.92C566.328 4.92 562.709 8.50458 562.709 12.9677C562.709 17.3957 566.328 21.0506 570.792 21.0506ZM567.031 7.55571H570.827C572.83 7.55571 574.798 8.39914 574.798 10.7186C574.798 12.2649 573.849 13.284 572.338 13.6003L575.22 18.3094H572.865L570.37 13.8111H568.964V18.3094H567.031V7.55571ZM570.546 12.2649C571.635 12.2649 572.865 11.9486 572.865 10.6483C572.865 9.48857 571.74 9.17228 570.721 9.17228H568.964V12.2649H570.546ZM551.112 77.0683V90.3874C551.112 90.3874 548.124 90.8092 545.102 90.8092C530.588 90.8092 521.556 81.3909 521.556 65.6469V3.47915H536.387V22.2454H550.866V35.3537H536.387V65.6469C536.387 73.5891 539.901 77.244 547.422 77.244C548.195 77.244 549.249 77.244 551.112 77.0683ZM513.474 61.8514H463.746C465.714 71.586 473.797 77.2792 481.74 77.2792C486.8 77.2792 493.266 74.538 497.062 69.3017L508.659 77.4197C502.298 85.5026 491.966 90.8092 481.74 90.8092C462.27 90.8092 448.143 75.6626 448.143 55.9123C448.143 36.3026 462.587 20.6992 481.388 20.6992C490.174 20.6992 498.573 23.7214 504.758 30.2229C518.042 44.1394 513.474 61.8514 513.474 61.8514ZM498.749 49.5163C498.292 45.1234 493.161 34.2643 481.388 34.2643C469.264 34.2643 464.414 45.4749 463.852 49.5163H498.749ZM440.341 22.2454V88.1734C440.341 100.052 436.405 108.837 429.236 115.163C423.156 120.54 414.546 123 405.831 123C392.863 123 380.493 116.323 374.694 105.464L386.538 97.1349C389.56 102.266 396.307 109.119 405.831 109.119C428.428 109.119 425.441 83.4643 425.441 83.4643C420.099 88.314 413.106 90.8092 406.182 90.8092C387.205 90.8092 372.305 75.5923 372.305 55.7014C372.305 35.8809 387.205 20.6992 406.182 20.6992C413.387 20.6992 420.486 23.3349 425.792 28.3603V22.2454H440.341ZM425.441 55.596C425.441 44.0691 416.62 34.3697 406.182 34.3697C395.675 34.3697 387.17 43.8583 387.17 55.596C387.17 67.65 395.534 77.1386 406.182 77.1386C416.796 77.1386 425.441 67.4391 425.441 55.596ZM329.993 90.8092C311.016 90.8092 296.115 75.6626 296.115 55.842C296.115 35.9512 311.016 20.6992 329.993 20.6992C336.916 20.6992 343.909 23.2294 349.251 28.044V0H364.081V89.4386H349.638V83.1831C344.296 88.2086 337.197 90.8092 329.993 90.8092ZM329.993 34.4751C319.309 34.4751 310.98 43.8934 310.98 55.9474C310.98 67.6851 319.485 77.1737 329.993 77.1737C340.43 77.1737 349.251 67.4743 349.251 55.9474C349.251 44.1043 340.606 34.4751 329.993 34.4751ZM257.739 90.8092C240.484 90.8092 226.708 77.5954 226.708 56.8963V22.2454H241.573V56.8963C241.573 69.2314 247.864 77.1737 257.739 77.1737C267.614 77.1737 273.905 69.2314 273.905 56.8963V22.2454H288.77V56.8963C288.77 77.5954 274.994 90.8092 257.739 90.8092ZM157.055 90.3171V0H188.402C200.597 0 215.322 6.43113 215.322 23.4051C215.322 33.5614 210.577 40.0629 206.29 42.4877C217.782 46.8806 220.031 57.81 220.031 64.2411C220.031 78.6849 208.152 90.3171 189.21 90.3171H157.055ZM187.488 76.7871C191.389 76.7871 194.412 76.3303 196.801 75.3814C201.651 73.2026 204.568 69.1963 204.638 63.3977C204.638 57.8452 201.546 53.628 196.766 51.5897C193.322 50.1489 190.511 50.0434 186.294 50.0434H172.131V76.7871H187.488ZM185.028 37.1108C187.77 37.1108 192.162 36.9351 194.763 35.7051C198.664 33.5614 199.929 30.1877 199.929 25.092C199.929 19.6097 196.626 16.3414 193.849 15.0411C191.706 13.9517 188.964 13.4949 184.677 13.4949H172.166V37.1108H185.028Z" fill="#00285F"/>
</svg>
