<svg width="23" height="21" viewBox="0 0 23 21" fill="none" xmlns="http://www.w3.org/2000/svg">
<path d="M21.7589 15.8047C22.2992 14.7014 22.5643 13.487 22.5322 12.2624C22.5001 11.0379 22.1717 9.8386 21.5743 8.76413C20.9769 7.68966 20.1278 6.77104 19.0974 6.08459C18.0671 5.39814 16.8852 4.96366 15.6501 4.81726C15.2391 3.8764 14.6416 3.02575 13.8925 2.3151C13.1435 1.60445 12.258 1.04809 11.2878 0.678608C10.3177 0.309126 9.28241 0.133946 8.24265 0.163325C7.20289 0.192704 6.17953 0.426051 5.2325 0.849704C4.28548 1.27336 3.43382 1.8788 2.7274 2.63057C2.02097 3.38235 1.47399 4.26534 1.11848 5.22786C0.762974 6.19037 0.606081 7.21305 0.656992 8.23601C0.707903 9.25897 0.965595 10.2616 1.41498 11.1853L0.704396 13.5634C0.624947 13.8288 0.619634 14.1105 0.689018 14.3787C0.758401 14.6469 0.899915 14.8917 1.09867 15.0874C1.29743 15.2831 1.54608 15.4224 1.81846 15.4907C2.09085 15.5591 2.3769 15.5538 2.64652 15.4756L5.06172 14.776C5.83724 15.1428 6.66868 15.3818 7.52285 15.4833C7.93784 16.4407 8.54569 17.3053 9.30967 18.0248C10.0736 18.7443 10.9779 19.3038 11.9677 19.6695C12.9575 20.0351 14.0123 20.1994 15.0684 20.1523C16.1246 20.1052 17.16 19.8477 18.1122 19.3954L20.5274 20.095C20.7969 20.1732 21.0828 20.1784 21.3551 20.1101C21.6273 20.0418 21.8759 19.9026 22.0746 19.707C22.2733 19.5114 22.4149 19.2668 22.4844 18.9987C22.5539 18.7307 22.5487 18.4491 22.4695 18.1837L21.7589 15.8047ZM5.136 13.1813C5.06128 13.1815 4.98694 13.1919 4.9151 13.2121L2.20375 13.9993L3.0023 11.3278C3.05909 11.1347 3.037 10.9275 2.94072 10.7503C2.23338 9.44782 2.02496 7.93841 2.35346 6.49725C2.68196 5.05608 3.5255 3.77914 4.73032 2.89919C5.93513 2.01924 7.42099 1.59488 8.91702 1.70348C10.4131 1.81208 11.8196 2.4464 12.8804 3.49081C13.9411 4.53521 14.5853 5.92016 14.6956 7.39317C14.8059 8.86619 14.3749 10.3292 13.4812 11.5155C12.5875 12.7017 11.2906 13.5323 9.82695 13.8558C8.36327 14.1792 6.83027 13.974 5.50742 13.2775C5.39366 13.2155 5.26601 13.1825 5.136 13.1813ZM20.1677 15.9462L20.9701 18.6187L18.2568 17.8325C18.0608 17.7765 17.8503 17.7983 17.6704 17.8931C16.2305 18.6501 14.5472 18.8235 12.9794 18.3762C11.4116 17.9289 10.0831 16.8964 9.27731 15.4987C10.348 15.3887 11.3839 15.062 12.3203 14.5391C13.2567 14.0163 14.0732 13.3085 14.7186 12.4603C15.3641 11.6121 15.8245 10.6417 16.0711 9.60994C16.3177 8.57823 16.345 7.50747 16.1515 6.46485C17.0843 6.68135 17.9541 7.10601 18.6939 7.70603C19.4336 8.30606 20.0233 9.06542 20.4177 9.92549C20.812 10.7856 21.0004 11.7234 20.9682 12.6665C20.9361 13.6096 20.6842 14.5328 20.2322 15.3649C20.1349 15.5432 20.1127 15.752 20.1706 15.9462H20.1677Z" fill="#6167F8"/>
</svg>
