<svg width="49" height="49" viewBox="0 0 49 49" fill="none" xmlns="http://www.w3.org/2000/svg">
<circle cx="24.3989" cy="24.772" r="24.063" fill="#6167F8"/>
<path d="M24.3984 10.3828C23.5034 10.3828 22.6171 10.5591 21.7902 10.9016C20.9633 11.2441 20.212 11.7462 19.5791 12.3791C18.9462 13.012 18.4441 13.7633 18.1016 14.5902C17.7591 15.4171 17.5828 16.3034 17.5828 17.1984C17.5828 18.0935 17.7591 18.9798 18.1016 19.8067C18.4441 20.6336 18.9462 21.3849 19.5791 22.0178C20.212 22.6507 20.9633 23.1527 21.7902 23.4953C22.6171 23.8378 23.5034 24.0141 24.3984 24.0141C26.2061 24.0141 27.9396 23.296 29.2178 22.0178C30.496 20.7396 31.2141 19.0061 31.2141 17.1984C31.2141 15.3908 30.496 13.6572 29.2178 12.3791C27.9396 11.1009 26.2061 10.3828 24.3984 10.3828ZM19.8547 17.1984C19.8547 16.6017 19.9722 16.0109 20.2006 15.4596C20.4289 14.9083 20.7636 14.4074 21.1855 13.9855C21.6074 13.5636 22.1083 13.2289 22.6596 13.0006C23.2109 12.7722 23.8017 12.6547 24.3984 12.6547C24.9951 12.6547 25.586 12.7722 26.1373 13.0006C26.6885 13.2289 27.1894 13.5636 27.6114 13.9855C28.0333 14.4074 28.368 14.9083 28.5963 15.4596C28.8247 16.0109 28.9422 16.6017 28.9422 17.1984C28.9422 18.4035 28.4635 19.5592 27.6114 20.4114C26.7592 21.2635 25.6035 21.7422 24.3984 21.7422C23.1934 21.7422 22.0376 21.2635 21.1855 20.4114C20.3334 19.5592 19.8547 18.4035 19.8547 17.1984ZM13.0391 30.451C13.0391 29.5472 13.3981 28.6804 14.0372 28.0414C14.6763 27.4023 15.5431 27.0432 16.4469 27.0432H32.35C33.2538 27.0432 34.1206 27.4023 34.7597 28.0414C35.3988 28.6804 35.7578 29.5472 35.7578 30.451V31.2553C35.7567 31.3779 35.7481 31.5003 35.7321 31.6218C35.698 31.9343 35.6423 32.244 35.5655 32.5487C35.3146 33.5431 34.8682 34.4776 34.2523 35.2977C32.7165 37.3469 29.7873 39.1599 24.3984 39.1599C19.0096 39.1599 16.0803 37.3469 14.5446 35.2977C13.9292 34.4775 13.4834 33.543 13.2329 32.5487C13.1338 32.1528 13.0704 31.7488 13.0436 31.3416L13.0391 31.2553V30.451ZM15.3109 31.2008V31.228L15.3246 31.3795C15.3397 31.5219 15.37 31.7354 15.4366 31.9974C15.6132 32.698 15.9273 33.3564 16.3605 33.9346C17.3814 35.2932 19.5639 36.888 24.3984 36.888C29.233 36.888 31.4155 35.2932 32.4348 33.9346C32.9649 33.2288 33.2285 32.523 33.3587 31.9974C33.4226 31.745 33.4646 31.4876 33.4844 31.228L33.4859 31.2008V30.451C33.4859 30.1498 33.3663 29.8608 33.1532 29.6478C32.9402 29.4348 32.6513 29.3151 32.35 29.3151H16.4469C16.1456 29.3151 15.8567 29.4348 15.6436 29.6478C15.4306 29.8608 15.3109 30.1498 15.3109 30.451V31.2008Z" fill="white"/>
</svg>
