<svg width="39" height="35" viewBox="0 0 39 35" fill="none" xmlns="http://www.w3.org/2000/svg">
<path d="M36.8552 27.1087C37.7739 25.2326 38.2247 23.1677 38.1701 21.0856C38.1155 19.0035 37.5571 16.9643 36.5414 15.1374C35.5256 13.3104 34.0818 11.7485 32.3299 10.5813C30.5779 9.41409 28.5684 8.67534 26.4682 8.4264C25.7694 6.82665 24.7534 5.38025 23.4798 4.17191C22.2062 2.96357 20.7005 2.01759 19.051 1.38935C17.4014 0.76111 15.6411 0.463246 13.8732 0.5132C12.1053 0.563154 10.3652 0.959921 8.75495 1.68027C7.1447 2.40061 5.6966 3.43006 4.49545 4.70832C3.29431 5.98659 2.36426 7.48797 1.75978 9.12455C1.1553 10.7611 0.888529 12.5 0.975095 14.2394C1.06166 15.9788 1.49982 17.6836 2.26392 19.2542L1.0557 23.2976C0.920608 23.749 0.911575 24.2279 1.02955 24.6839C1.14752 25.1399 1.38814 25.5562 1.72609 25.889C2.06404 26.2217 2.48683 26.4586 2.94997 26.5748C3.41312 26.691 3.8995 26.6821 4.35794 26.5491L8.46456 25.3594C9.7832 25.9832 11.1969 26.3895 12.6493 26.5622C13.3549 28.19 14.3885 29.6601 15.6875 30.8835C16.9865 32.1069 18.5239 33.0582 20.2069 33.68C21.8899 34.3018 23.6835 34.581 25.4793 34.5009C27.275 34.4208 29.0356 33.983 30.6546 33.2139L34.7612 34.4036C35.2195 34.5364 35.7056 34.5453 36.1686 34.4292C36.6315 34.3131 37.0542 34.0763 37.392 33.7438C37.7299 33.4113 37.9706 32.9953 38.0887 32.5395C38.2069 32.0837 38.1982 31.6051 38.0635 31.1538L36.8552 27.1087ZM8.59087 22.648C8.46382 22.6483 8.33742 22.6659 8.21527 22.7004L3.60509 24.0389L4.96288 19.4964C5.05945 19.1682 5.02188 18.8158 4.85818 18.5145C3.65546 16.2999 3.30108 13.7334 3.85964 11.2829C4.4182 8.83248 5.8525 6.66126 7.90108 5.16506C9.94966 3.66886 12.4761 2.94732 15.0198 3.13197C17.5636 3.31662 19.9552 4.39517 21.7588 6.171C23.5624 7.94684 24.6578 10.3017 24.8453 12.8063C25.0329 15.3109 24.3001 17.7985 22.7805 19.8155C21.2609 21.8326 19.0557 23.2448 16.567 23.7948C14.0783 24.3448 11.4717 23.9958 9.2224 22.8116C9.02898 22.7062 8.81192 22.65 8.59087 22.648ZM34.1496 27.3492L35.5141 31.8934L30.9006 30.5565C30.5672 30.4614 30.2094 30.4984 29.9034 30.6596C27.4551 31.9468 24.593 32.2416 21.9272 31.481C19.2613 30.7205 17.0026 28.9649 15.6324 26.5883C17.4529 26.4013 19.2144 25.8458 20.8065 24.9568C22.3986 24.0677 23.787 22.8643 24.8844 21.4221C25.9819 19.9798 26.7648 18.3298 27.1841 16.5755C27.6033 14.8213 27.6499 13.0006 27.3208 11.2278C28.9069 11.596 30.3859 12.318 31.6436 13.3383C32.9014 14.3585 33.9042 15.6497 34.5747 17.1121C35.2452 18.5745 35.5655 20.169 35.5108 21.7726C35.4561 23.3763 35.0279 24.9461 34.2593 26.3609C34.0938 26.664 34.0562 27.019 34.1546 27.3492H34.1496Z" fill="white"/>
</svg>
