<svg width="139" height="147" viewBox="0 0 139 147" fill="none" xmlns="http://www.w3.org/2000/svg">
<ellipse cx="69.2216" cy="72.911" rx="69.2216" ry="72.911" transform="matrix(-1 0 0 1 139 0.731201)" fill="white"/>
<path d="M69.8306 20.9412C98.8733 20.8908 122.431 44.4574 122.494 73.55C122.556 102.571 99.1718 125.828 70.8545 126.334C41.1237 126.866 17.1421 103.138 17.0637 73.7934C16.9851 44.4615 40.49 20.9922 69.8306 20.9412ZM57.5208 99.0082C59.0734 98.9956 59.903 98.5954 61.424 97.1183C66.9548 91.7471 72.1101 86.0359 76.9594 80.0433C84.1575 71.1484 90.7485 61.8134 97.113 52.3138C98.2375 50.6355 97.8194 48.863 96.2036 48.3471C94.9293 47.9401 94.0388 48.5824 93.1934 49.4884C82.1327 61.3433 70.633 72.7393 58.1395 83.1045C56.9406 84.0992 56.0996 84.364 54.7837 83.3132C52.0495 81.1299 49.1828 79.1126 46.3799 77.0146C45.1748 76.1127 43.9509 75.9422 42.7716 76.9773C41.5593 78.0413 41.4371 79.2893 42.2954 80.6765C45.8034 86.3466 49.5775 91.8325 53.6542 97.1081C54.6186 98.356 55.8951 99.0604 57.5208 99.0082Z" fill="#48AA56"/>
</svg>
