<svg width="389" height="242" viewBox="0 0 389 242" fill="none" xmlns="http://www.w3.org/2000/svg">
<path d="M22.4657 165.137C11.6531 165.137 6.65889 173.056 6.65889 180.709C6.65889 188.358 11.3774 196.01 22.4657 196.01C26.4897 196.01 30.7865 194.375 33.8431 191.502L38.5512 196.01C34.1189 200.243 28.4257 202.297 22.4642 202.297C6.93317 202.297 0 191.774 0 180.709C0 169.642 7.20891 158.718 22.4642 158.718C28.1486 158.718 33.6986 160.77 38.1398 165.137L33.5644 169.511C30.5093 166.498 26.4897 165.137 22.4657 165.137ZM42.4396 201.338V159.263H49.3668V195.048H71.831V201.337H42.4396V201.338ZM98.0539 202.297C83.207 202.297 76.1308 191.633 76.1308 180.566C76.1308 167.732 85.2831 158.575 98.0539 158.575C112.745 158.575 119.948 169.096 119.948 180.566C119.948 191.907 112.865 202.297 98.0539 202.297ZM98.1748 164.729C88.3398 164.729 82.9312 171.55 82.9312 180.707C83.0654 188.085 87.5053 196.138 98.0539 196.138C108.721 196.138 113.153 188.763 113.153 180.707C113.153 172.917 108.58 164.863 98.1748 164.729ZM142.123 202.152C132.562 201.88 124.52 195.866 124.52 183.981V159.395H131.334V183.981C131.334 191.633 135.888 195.737 142.122 196.01C148.932 196.412 153.921 192.047 153.921 183.981V159.395H160.711V183.981C160.712 196.412 152.384 202.568 142.123 202.152ZM183.322 201.338C178.196 201.338 172.22 201.338 167.096 201.338V159.263H183.322C197.892 159.263 204.537 169.51 204.663 179.89C204.95 190.544 198.155 201.338 183.322 201.338ZM183.322 165.68H173.885V194.917H183.322C193.704 194.917 198.155 187.401 198.013 179.89C197.892 172.786 193.436 165.68 183.322 165.68ZM254.598 201.472H248.486L242.801 186.578L238.225 172.51L233.508 186.723L227.97 201.474H222.019L206.468 159.396H214.1L224.932 191.774L236.014 159.396H240.443L251.686 191.774L262.36 159.396H269.988L254.598 201.472ZM307.004 201.472L302.856 192.591H279.695L275.671 201.472H268.468L287.591 159.395H295.082L314.221 201.472H307.004ZM291.325 166.366L282.339 186.45H300.353L291.325 166.366ZM333.08 184.126V201.338H326.287V184.126L309.793 159.538V159.263H317.958L329.61 177.837L341.798 159.263H350.005V159.538L333.08 184.126ZM370.523 164.042C364.818 164.042 360.676 166.366 360.676 170.461C360.676 174.564 365.395 175.66 371.054 176.472C379.796 177.709 388.271 180.021 388.271 189.449C388.271 198.88 379.527 202.424 370.523 202.424C362.337 202.424 356.098 199.97 352.218 192.866L357.35 189.448C360.389 194.499 365.664 196.41 370.644 196.41C375.774 196.41 381.478 194.776 381.478 189.448C381.478 184.94 376.472 183.305 370.523 182.482C362.068 181.392 354.029 179.2 354.029 170.188C354.029 161.445 362.746 158.17 370.523 158.17C376.614 158.17 382.854 159.665 386.466 165.273L381.07 168.691C378.975 165.823 374.954 164.042 370.523 164.042Z" fill="#2F39BF"/>
<path d="M236.24 215.28C234.084 213.785 231.416 213.012 228.285 213.012H221.512V234.663H228.285C231.416 234.663 234.084 233.838 236.24 232.292C237.42 231.467 238.343 230.282 238.96 228.837C239.575 227.394 239.935 225.642 239.935 223.734C239.935 221.827 239.627 220.125 238.96 218.682C238.343 217.238 237.42 216.105 236.24 215.28ZM225.463 216.723H227.618C229.979 216.723 231.928 217.188 233.417 218.115C235.059 219.094 235.88 221.002 235.88 223.734C235.88 226.569 235.059 228.529 233.417 229.611C231.98 230.539 230.081 231.055 227.67 231.055H225.514V216.723H225.463Z" fill="#2F39BF"/>
<path d="M244.04 212.806C243.373 212.806 242.808 213.063 242.397 213.475C241.936 213.939 241.73 214.455 241.73 215.125C241.73 215.795 241.987 216.362 242.397 216.826C242.859 217.29 243.423 217.497 244.09 217.497C244.758 217.497 245.322 217.239 245.784 216.826C246.246 216.362 246.451 215.795 246.451 215.125C246.451 214.455 246.194 213.888 245.784 213.475C245.271 213.012 244.707 212.806 244.04 212.806Z" fill="#2F39BF"/>
<path d="M245.888 219.456H242.09V234.716H245.888V219.456Z" fill="#2F39BF"/>
<path d="M259.126 220.745C257.997 219.714 256.713 219.095 255.277 219.095C253.173 219.095 251.428 219.816 250.094 221.26C248.708 222.703 248.041 224.508 248.041 226.725C248.041 228.89 248.708 230.694 250.043 232.189C251.377 233.633 253.173 234.354 255.277 234.354C256.765 234.354 257.997 233.942 259.023 233.117V233.477C259.023 234.766 258.664 235.747 257.997 236.416C257.33 237.086 256.406 237.447 255.277 237.447C253.532 237.447 252.403 236.778 251.069 234.922L248.451 237.447L248.503 237.551C249.068 238.324 249.94 239.097 251.069 239.871C252.198 240.592 253.635 240.952 255.328 240.952C257.587 240.952 259.434 240.231 260.768 238.89C262.102 237.499 262.821 235.643 262.821 233.375V219.456H259.074V220.745H259.126ZM258.099 229.715C257.432 230.488 256.56 230.849 255.482 230.849C254.404 230.849 253.532 230.488 252.865 229.715C252.198 228.941 251.89 227.962 251.89 226.725C251.89 225.487 252.198 224.456 252.865 223.683C253.532 222.909 254.404 222.549 255.482 222.549C256.56 222.549 257.432 222.909 258.099 223.683C258.766 224.456 259.126 225.436 259.126 226.725C259.126 227.962 258.766 228.941 258.099 229.715Z" fill="#2F39BF"/>
<path d="M269.288 219.456H265.49V234.716H269.288V219.456Z" fill="#2F39BF"/>
<path d="M267.44 212.806C266.773 212.806 266.208 213.063 265.798 213.475C265.336 213.939 265.131 214.455 265.131 215.125C265.131 215.795 265.388 216.362 265.798 216.826C266.26 217.29 266.824 217.497 267.491 217.497C268.159 217.497 268.723 217.239 269.185 216.826C269.646 216.362 269.852 215.795 269.852 215.125C269.852 214.455 269.595 213.888 269.185 213.475C268.62 213.012 268.056 212.806 267.44 212.806Z" fill="#2F39BF"/>
<path d="M277.446 215.332H273.7V219.456H271.545V222.961H273.751V229.303C273.751 231.261 274.161 232.705 274.932 233.529C275.702 234.354 277.087 234.767 279.037 234.767C279.652 234.767 280.269 234.767 280.884 234.716H281.038V231.209L279.704 231.261C278.78 231.261 278.165 231.107 277.908 230.798C277.6 230.488 277.446 229.818 277.446 228.787V222.961H280.987V219.456H277.446V215.332Z" fill="#2F39BF"/>
<path d="M301.772 213.063H297.975V234.715H301.772V213.063Z" fill="#2F39BF"/>
<path d="M339.232 229.251C338.565 230.024 337.846 230.694 337.333 231.055C336.819 231.416 336.152 231.571 335.332 231.571C334.203 231.571 333.279 231.159 332.561 230.334C331.842 229.509 331.432 228.426 331.432 227.137C331.432 225.848 331.79 224.765 332.509 223.941C333.228 223.116 334.151 222.703 335.28 222.703C336.512 222.703 337.795 223.477 338.924 224.765L341.438 222.343C339.796 220.177 337.692 219.198 335.177 219.198C333.074 219.198 331.277 219.972 329.789 221.466C328.301 222.961 327.582 224.869 327.582 227.137C327.582 229.405 328.352 231.313 329.789 232.808C331.277 234.302 333.074 235.076 335.177 235.076C337.948 235.076 340.156 233.89 341.695 231.674L339.232 229.251Z" fill="#2F39BF"/>
<path d="M355.038 221.57C354.473 220.797 353.754 220.178 352.831 219.766C351.907 219.301 350.881 219.095 349.701 219.095C347.545 219.095 345.852 219.868 344.518 221.466C343.235 223.013 342.619 224.921 342.619 227.189C342.619 229.509 343.338 231.415 344.723 232.859C346.109 234.302 347.956 235.024 350.214 235.024C352.78 235.024 354.883 233.993 356.475 231.931L356.577 231.828L354.063 229.405C353.858 229.663 353.499 230.024 353.191 230.282C352.831 230.642 352.472 230.9 352.062 231.107C351.497 231.415 350.83 231.519 350.111 231.519C349.034 231.519 348.162 231.209 347.495 230.591C346.878 230.024 346.519 229.251 346.416 228.272H356.526L356.577 226.879C356.577 225.9 356.424 224.921 356.167 224.044C355.962 223.167 355.551 222.343 355.038 221.57ZM346.673 225.178C346.878 224.456 347.186 223.838 347.648 223.374C348.162 222.859 348.829 222.601 349.649 222.601C350.573 222.601 351.291 222.859 351.753 223.374C352.215 223.838 352.472 224.456 352.523 225.178H346.673Z" fill="#2F39BF"/>
<path d="M369.611 220.59C368.431 219.61 366.84 219.095 364.839 219.095C363.557 219.095 362.376 219.352 361.299 219.92C360.324 220.435 359.348 221.26 358.733 222.343L358.784 222.394L361.247 224.765C362.273 223.167 363.352 222.601 364.839 222.601C365.661 222.601 366.276 222.807 366.79 223.219C367.302 223.632 367.559 224.198 367.559 224.869V225.59C366.635 225.281 365.661 225.178 364.737 225.178C362.838 225.178 361.299 225.642 360.119 226.518C358.938 227.395 358.373 228.684 358.373 230.334C358.373 231.777 358.886 232.911 359.862 233.787C360.837 234.612 362.068 235.024 363.557 235.024C364.993 235.024 366.378 234.458 367.61 233.427V234.664H371.357V224.869C371.357 223.013 370.792 221.57 369.611 220.59ZM362.838 228.838C363.248 228.529 363.864 228.374 364.634 228.374C365.558 228.374 366.533 228.58 367.507 228.941V230.436C366.687 231.209 365.558 231.622 364.224 231.622C363.557 231.622 363.043 231.467 362.685 231.158C362.325 230.849 362.171 230.488 362.171 230.024C362.223 229.56 362.428 229.147 362.838 228.838Z" fill="#2F39BF"/>
<path d="M385.572 220.899C384.493 219.714 383.006 219.095 381.107 219.095C379.619 219.095 378.387 219.508 377.463 220.384V219.456H373.717V234.716H377.515V226.26C377.515 225.127 377.772 224.198 378.335 223.528C378.849 222.859 379.619 222.549 380.593 222.549C381.467 222.549 382.134 222.807 382.595 223.425C383.057 223.992 383.314 224.817 383.314 225.848V234.664H387.111V225.848C387.163 223.734 386.597 222.085 385.572 220.899Z" fill="#2F39BF"/>
<path d="M293.817 220.59C292.636 219.61 291.045 219.095 289.043 219.095C287.761 219.095 286.58 219.352 285.503 219.92C284.528 220.435 283.552 221.26 282.937 222.343L282.988 222.394L285.451 224.765C286.478 223.167 287.556 222.601 289.043 222.601C289.865 222.601 290.48 222.807 290.994 223.219C291.507 223.632 291.764 224.198 291.764 224.869V225.59C290.84 225.281 289.865 225.178 288.941 225.178C287.042 225.178 285.503 225.642 284.322 226.518C283.142 227.395 282.578 228.684 282.578 230.334C282.578 231.777 283.09 232.911 284.066 233.787C285.041 234.612 286.273 235.024 287.761 235.024C289.198 235.024 290.583 234.458 291.814 233.427V234.664H295.561V224.869C295.561 223.013 294.997 221.57 293.817 220.59ZM287.042 228.838C287.452 228.529 288.069 228.374 288.838 228.374C289.762 228.374 290.737 228.58 291.712 228.941V230.436C290.891 231.209 289.762 231.622 288.428 231.622C287.761 231.622 287.247 231.467 286.889 231.158C286.529 230.849 286.375 230.488 286.375 230.024C286.427 229.56 286.632 229.147 287.042 228.838Z" fill="#2F39BF"/>
<path d="M314.96 235.024C308.852 235.024 303.875 230.024 303.875 223.889C303.875 217.754 308.852 212.754 314.96 212.754C321.066 212.754 326.044 217.754 326.044 223.889C326.044 230.024 321.118 235.024 314.96 235.024ZM314.96 216.62C311.008 216.62 307.775 219.868 307.775 223.838C307.775 227.806 311.008 231.055 314.96 231.055C318.91 231.055 322.143 227.806 322.143 223.838C322.143 219.868 318.962 216.62 314.96 216.62Z" fill="#2F39BF"/>
<path d="M199.225 234.901C198.184 234.901 197.354 234.571 196.732 233.91V234.703H194.723V222.078H196.767V226.526C197.437 225.95 198.256 225.662 199.225 225.662C200.48 225.662 201.508 226.1 202.31 226.977C203.111 227.853 203.512 228.958 203.512 230.29C203.512 231.623 203.111 232.727 202.31 233.604C201.497 234.469 200.468 234.901 199.225 234.901ZM197.359 232.307C197.777 232.835 198.351 233.1 199.081 233.1C199.811 233.1 200.385 232.835 200.803 232.307C201.221 231.78 201.431 231.106 201.431 230.29C201.431 229.474 201.221 228.801 200.803 228.273C200.385 227.745 199.811 227.481 199.081 227.481C198.351 227.481 197.777 227.745 197.359 228.273C196.941 228.801 196.732 229.474 196.732 230.29C196.732 231.106 196.941 231.78 197.359 232.307ZM213.605 225.878L208.691 238.196H206.538L207.902 234.811L204.422 225.878H206.754L209.05 232.253L211.381 225.878H213.605Z" fill="#2F39BF"/>
<path fill-rule="evenodd" clip-rule="evenodd" d="M170.074 118.922C169.171 117.957 168.43 117.197 167.726 116.404C165.062 113.399 162.901 110.063 161.304 106.371C161.048 105.779 160.734 105.564 160.085 105.576C157.782 105.618 155.476 105.599 153.171 105.59C151.137 105.584 150.06 104.563 150 102.531C149.959 101.171 149.958 99.8077 150.002 98.4479C150.067 96.4492 151.13 95.4495 153.12 95.4468C154.783 95.4434 156.446 95.4462 158.215 95.4462C157.799 90.8942 157.872 86.4644 158.845 81.9459C158.336 81.9459 157.945 81.9459 157.553 81.9459C137.128 81.9459 116.703 81.947 96.2777 81.9449C93.4966 81.9449 91.4352 80.3125 90.9314 77.729C90.3365 74.6787 92.6544 71.7641 95.7734 71.6446C96.0901 71.6329 96.4072 71.6406 96.7238 71.6406C118.359 71.6406 139.994 71.6357 161.629 71.6597C162.427 71.6602 162.848 71.4044 163.242 70.7192C165.9 66.0946 169.39 62.2066 173.676 59.044C173.9 58.8781 174.115 58.6978 174.309 58.3113C173.959 58.3113 173.608 58.3113 173.257 58.3113C156.779 58.3113 140.301 58.3219 123.822 58.2862C122.816 58.2839 121.727 58.1057 120.82 57.692C118.67 56.7113 117.602 54.2362 118.144 51.9426C118.679 49.6753 120.767 48.0116 123.126 48.0094C130.385 48.0015 137.644 48.006 144.904 48.006C158.185 48.006 171.465 47.9993 184.746 48.0245C185.524 48.0256 185.902 47.8346 186.163 47.0555C187.511 43.0257 189.474 39.3052 191.934 35.8477C192.163 35.5266 192.385 35.2005 192.715 34.7242C192.173 34.6995 191.789 34.6661 191.406 34.6661C172.134 34.6633 152.861 34.675 133.588 34.6342C132.504 34.632 131.319 34.4114 130.359 33.9322C128.293 32.9013 127.34 30.4306 127.927 28.2494C128.566 25.8713 130.52 24.3708 133.017 24.3708C156.294 24.368 179.571 24.3663 202.848 24.3814C203.598 24.382 204.227 24.2077 204.87 23.8179C210.836 20.1963 217.294 18.1808 224.262 17.7224C244.531 16.3881 262.676 29.7784 268.38 49.2023C268.705 50.3091 269.006 51.4288 269.221 52.5614C269.334 53.1584 269.576 53.4214 270.147 53.6224C282.781 58.0695 291.172 66.7497 294.889 79.6351C300.872 100.373 289.125 121.651 269.138 127.578C266.003 128.508 262.798 129.038 259.534 129.056C244.792 129.137 230.05 129.215 215.309 129.228C186.155 129.254 157.001 129.239 127.848 129.217C126.975 129.216 126.044 129.094 125.241 128.773C122.976 127.866 121.792 125.495 122.242 123.049C122.665 120.754 124.739 119.008 127.149 118.922C127.408 118.914 127.667 118.92 127.927 118.92C141.524 118.92 155.121 118.92 168.72 118.92C169.086 118.922 169.454 118.922 170.074 118.922Z" fill="#2F39BF"/>
<path fill-rule="evenodd" clip-rule="evenodd" d="M115.559 105.592C109.687 105.592 103.815 105.593 97.9423 105.592C95.5677 105.591 94.5634 104.603 94.5534 102.245C94.5474 100.885 94.5307 99.5236 94.5718 98.1643C94.6201 96.5654 95.7444 95.454 97.3397 95.4529C109.515 95.4429 121.691 95.4423 133.866 95.454C135.464 95.4552 136.612 96.6145 136.662 98.2671C136.708 99.8285 136.709 101.394 136.663 102.955C136.617 104.512 135.343 105.587 133.606 105.59C129.576 105.598 125.546 105.593 121.517 105.593C119.53 105.592 117.545 105.592 115.559 105.592Z" fill="#2F39BF"/>
</svg>
