<svg width="382" height="48" viewBox="0 0 382 48" fill="none" xmlns="http://www.w3.org/2000/svg">
<mask id="mask0_6_6464" style="mask-type:luminance" maskUnits="userSpaceOnUse" x="49" y="0" width="37" height="48">
<path d="M63.3109 0.81543C62.5037 0.81543 61.7582 1.2632 61.3506 1.99541L49.9423 22.4635C49.532 23.1957 49.5266 24.1053 49.9262 24.8431L53.4662 31.402L62.4796 47.184H79.5518C80.359 47.184 81.1045 46.7334 81.5121 46.0012L85.2345 39.3183C85.6555 38.5608 85.1352 37.6089 84.3012 37.6089H71.8738C71.0693 37.6089 70.3265 37.164 69.9162 36.4346L63.496 25.0093C63.032 24.1842 63.083 23.1478 63.6274 22.3762L69.8947 13.4995C70.3238 12.8912 70.9996 12.5336 71.721 12.5336H79.423C80.2973 12.5336 81.0965 12.007 81.4719 11.1762L85.4463 2.43755C85.7869 1.68563 85.2639 0.81543 84.4675 0.81543H63.3083H63.3109Z" fill="white"/>
</mask>
<g mask="url(#mask0_6_6464)">
<path d="M85.789 0.81543H49.526V47.184H85.789V0.81543Z" fill="#9966FF"/>
</g>
<mask id="mask1_6_6464" style="mask-type:luminance" maskUnits="userSpaceOnUse" x="0" y="0" width="36" height="48">
<path d="M13.6795 0.81543C12.8722 0.81543 12.1267 1.2632 11.7191 1.99541L0.310818 22.4635C-0.0968114 23.1957 -0.104857 24.1053 0.294728 24.8431L11.7003 45.973C12.1053 46.7193 12.8588 47.1811 13.6768 47.1811H29.9203C30.7275 47.1811 31.473 46.7306 31.8807 45.9983L35.603 39.3155C36.024 38.558 35.5037 37.6061 34.6697 37.6061H22.2424C21.4378 37.6061 20.695 37.1611 20.2847 36.4318L13.8645 25.0065C13.4006 24.1813 13.4515 23.145 13.9959 22.3733L20.9444 12.5336H30.8079L24.133 0.81543H13.6821H13.6795Z" fill="white"/>
</mask>
<g mask="url(#mask1_6_6464)">
<path d="M36.024 0.81543H-0.104858V47.184H36.024V0.81543Z" fill="#6167F8"/>
</g>
<mask id="mask2_6_6464" style="mask-type:luminance" maskUnits="userSpaceOnUse" x="53" y="31" width="10" height="17">
<path d="M53.5579 31.4023L62.0752 47.1843H62.5713L53.5579 31.4023Z" fill="white"/>
</mask>
<g mask="url(#mask2_6_6464)">
<mask id="mask3_6_6464" style="mask-type:luminance" maskUnits="userSpaceOnUse" x="53" y="31" width="10" height="17">
<path d="M62.5713 31.4023H53.5579V47.1843H62.5713V31.4023Z" fill="white"/>
</mask>
<g mask="url(#mask3_6_6464)">
<path d="M62.5687 31.4023H62.4346V47.1843H62.5687V31.4023Z" fill="#6976FC"/>
<path d="M62.4345 31.4023H62.2709V47.1843H62.4345V31.4023Z" fill="#6876FC"/>
<path d="M62.2746 31.4023H62.111V47.1843H62.2746V31.4023Z" fill="#6776FC"/>
<path d="M62.1107 31.4023H61.9471V47.1843H62.1107V31.4023Z" fill="#6676FC"/>
<path d="M61.947 31.4023H61.7834V47.1843H61.947V31.4023Z" fill="#6576FC"/>
<path d="M61.7833 31.4023H61.6198V47.1843H61.7833V31.4023Z" fill="#6476FC"/>
<path d="M61.6193 31.4023H61.4557V47.1843H61.6193V31.4023Z" fill="#6376FC"/>
<path d="M61.4557 31.4023H61.2921V47.1843H61.4557V31.4023Z" fill="#6276FC"/>
<path d="M61.2921 31.4023H61.1285V47.1843H61.2921V31.4023Z" fill="#6176FC"/>
<path d="M61.1286 31.4023H60.965V47.1843H61.1286V31.4023Z" fill="#6077FC"/>
<path d="M60.9649 31.4023H60.8013V47.1843H60.9649V31.4023Z" fill="#5F77FC"/>
<path d="M60.8013 31.4023H60.6377V47.1843H60.8013V31.4023Z" fill="#5E77FC"/>
<path d="M60.6404 31.4023H60.4768V47.1843H60.6404V31.4023Z" fill="#5D77FC"/>
<path d="M60.4768 31.4023H60.3132V47.1843H60.4768V31.4023Z" fill="#5C77FC"/>
<path d="M60.3132 31.4023H60.1497V47.1843H60.3132V31.4023Z" fill="#5B77FC"/>
<path d="M60.1497 31.4023H59.9861V47.1843H60.1497V31.4023Z" fill="#5A77FC"/>
<path d="M59.9861 31.4023H59.8225V47.1843H59.9861V31.4023Z" fill="#5977FC"/>
<path d="M59.8225 31.4023H59.6589V47.1843H59.8225V31.4023Z" fill="#5877FC"/>
<path d="M59.6589 31.4023H59.4954V47.1843H59.6589V31.4023Z" fill="#5777FC"/>
<path d="M59.4954 31.4023H59.3318V47.1843H59.4954V31.4023Z" fill="#5677FC"/>
<path d="M59.3312 31.4023H59.1676V47.1843H59.3312V31.4023Z" fill="#5577FC"/>
<path d="M59.1675 31.4023H59.0039V47.1843H59.1675V31.4023Z" fill="#5477FC"/>
<path d="M59.0072 31.4023H58.8436V47.1843H59.0072V31.4023Z" fill="#5377FC"/>
<path d="M58.844 31.4023H58.6241V47.1843H58.844V31.4023Z" fill="#5377FC"/>
<path d="M58.623 31.4023H58.4031V47.1843H58.623V31.4023Z" fill="#5378FC"/>
<path d="M58.4039 31.4023H58.184V47.1843H58.4039V31.4023Z" fill="#5379FC"/>
<path d="M58.1839 31.4023H57.964V47.1843H58.1839V31.4023Z" fill="#527AFC"/>
<path d="M57.9647 31.4023H57.7448V47.1843H57.9647V31.4023Z" fill="#527BFC"/>
<path d="M57.7435 31.4023H57.5236V47.1843H57.7435V31.4023Z" fill="#527CFC"/>
<path d="M57.5242 31.4023H57.3043V47.1843H57.5242V31.4023Z" fill="#527DFC"/>
<path d="M57.3043 31.4023H57.0844V47.1843H57.3043V31.4023Z" fill="#517EFC"/>
<path d="M57.0851 31.4023H56.8652V47.1843H57.0851V31.4023Z" fill="#517FFC"/>
<path d="M56.8639 31.4023H56.644V47.1843H56.8639V31.4023Z" fill="#5180FC"/>
<path d="M56.648 31.4023H56.4281V47.1843H56.648V31.4023Z" fill="#5181FC"/>
<path d="M56.4268 31.4023H56.2069V47.1843H56.4268V31.4023Z" fill="#5082FC"/>
<path d="M56.2075 31.4023H55.9875V47.1843H56.2075V31.4023Z" fill="#5083FC"/>
<path d="M55.9876 31.4023H55.7677V47.1843H55.9876V31.4023Z" fill="#5084FC"/>
<path d="M55.7685 31.4023H55.5486V47.1843H55.7685V31.4023Z" fill="#5085FC"/>
<path d="M55.5473 31.4023H55.3274V47.1843H55.5473V31.4023Z" fill="#4F87FC"/>
<path d="M55.3278 31.4023H55.1079V47.1843H55.3278V31.4023Z" fill="#4F88FC"/>
<path d="M55.108 31.4023H54.8881V47.1843H55.108V31.4023Z" fill="#4F89FC"/>
<path d="M54.8871 31.4023H54.6672V47.1843H54.8871V31.4023Z" fill="#4F8AFC"/>
<path d="M54.6681 31.4023H54.4482V47.1843H54.6681V31.4023Z" fill="#4E8BFC"/>
<path d="M54.4482 31.4023H54.2283V47.1843H54.4482V31.4023Z" fill="#4E8CFC"/>
<path d="M54.2288 31.4023H54.0089V47.1843H54.2288V31.4023Z" fill="#4E8DFC"/>
<path d="M54.011 31.4023H53.7911V47.1843H54.011V31.4023Z" fill="#4E8EFC"/>
<path d="M53.7914 31.4023H53.5715V47.1843H53.7914V31.4023Z" fill="#4D8FFC"/>
<path d="M53.5721 31.4023H53.5579V47.1843H53.5721V31.4023Z" fill="#4D90FC"/>
</g>
</g>
<mask id="mask4_6_6464" style="mask-type:luminance" maskUnits="userSpaceOnUse" x="53" y="31" width="10" height="17">
<path d="M53.5579 31.4023L62.0752 47.1843H62.5713L53.5579 31.4023Z" fill="white"/>
</mask>
<g mask="url(#mask4_6_6464)">
<mask id="mask5_6_6464" style="mask-type:luminance" maskUnits="userSpaceOnUse" x="53" y="31" width="10" height="17">
<path d="M62.5713 31.4023H53.5579V47.1843H62.5713V31.4023Z" fill="white"/>
</mask>
<g mask="url(#mask5_6_6464)">
<path d="M53.6715 31.4023H53.5579V47.1843H53.6715V31.4023Z" fill="#9079FD"/>
<path d="M53.9955 31.4023H53.671V47.1843H53.9955V31.4023Z" fill="#8F78FD"/>
<path d="M54.3195 31.4023H53.995V47.1843H54.3195V31.4023Z" fill="#8E78FD"/>
<path d="M54.6435 31.4023H54.319V47.1843H54.6435V31.4023Z" fill="#8D77FD"/>
<path d="M54.9657 31.4023H54.6412V47.1843H54.9657V31.4023Z" fill="#8C76FD"/>
<path d="M55.2896 31.4023H54.9651V47.1843H55.2896V31.4023Z" fill="#8B76FD"/>
<path d="M55.6153 31.4023H55.2908V47.1843H55.6153V31.4023Z" fill="#8A75FD"/>
<path d="M55.8375 31.4023H55.6149V47.1843H55.8375V31.4023Z" fill="#8A75FD"/>
<path d="M56.06 31.4023H55.8374V47.1843H56.06V31.4023Z" fill="#8975FD"/>
<path d="M56.2831 31.4023H56.0605V47.1843H56.2831V31.4023Z" fill="#8875FD"/>
<path d="M56.5043 31.4023H56.2817V47.1843H56.5043V31.4023Z" fill="#8775FD"/>
<path d="M56.7272 31.4023H56.5046V47.1843H56.7272V31.4023Z" fill="#8675FD"/>
<path d="M56.9502 31.4023H56.7277V47.1843H56.9502V31.4023Z" fill="#8575FD"/>
<path d="M57.1729 31.4023H56.9503V47.1843H57.1729V31.4023Z" fill="#8475FD"/>
<path d="M57.396 31.4023H57.1735V47.1843H57.396V31.4023Z" fill="#8375FD"/>
<path d="M57.6172 31.4023H57.3947V47.1843H57.6172V31.4023Z" fill="#8275FD"/>
<path d="M57.8401 31.4023H57.6176V47.1843H57.8401V31.4023Z" fill="#8175FD"/>
<path d="M58.0633 31.4023H57.8407V47.1843H58.0633V31.4023Z" fill="#8075FD"/>
<path d="M58.2859 31.4023H58.0634V47.1843H58.2859V31.4023Z" fill="#7F75FD"/>
<path d="M58.509 31.4023H58.2864V47.1843H58.509V31.4023Z" fill="#7E75FD"/>
<path d="M58.7319 31.4023H58.5093V47.1843H58.7319V31.4023Z" fill="#7D75FD"/>
<path d="M58.9531 31.4023H58.7305V47.1843H58.9531V31.4023Z" fill="#7C76FD"/>
<path d="M59.1762 31.4023H58.9536V47.1843H59.1762V31.4023Z" fill="#7B76FD"/>
<path d="M59.3987 31.4023H59.1761V47.1843H59.3987V31.4023Z" fill="#7A76FD"/>
<path d="M59.6218 31.4023H59.3992V47.1843H59.6218V31.4023Z" fill="#7976FD"/>
<path d="M59.8448 31.4023H59.6222V47.1843H59.8448V31.4023Z" fill="#7876FD"/>
<path d="M60.066 31.4023H59.8434V47.1843H60.066V31.4023Z" fill="#7776FD"/>
<path d="M60.2891 31.4023H60.0665V47.1843H60.2891V31.4023Z" fill="#7676FD"/>
<path d="M60.5082 31.4023H60.2856V47.1843H60.5082V31.4023Z" fill="#7576FD"/>
<path d="M60.7316 31.4023H60.509V47.1843H60.7316V31.4023Z" fill="#7476FD"/>
<path d="M60.9543 31.4023H60.7317V47.1843H60.9543V31.4023Z" fill="#7376FD"/>
<path d="M61.1767 31.4023H60.9541V47.1843H61.1767V31.4023Z" fill="#7276FD"/>
<path d="M61.4 31.4023H61.1774V47.1843H61.4V31.4023Z" fill="#7176FD"/>
<path d="M61.6211 31.4023H61.3986V47.1843H61.6211V31.4023Z" fill="#7076FD"/>
<path d="M61.844 31.4023H61.6215V47.1843H61.844V31.4023Z" fill="#6F76FD"/>
<path d="M62.0672 31.4023H61.8446V47.1843H62.0672V31.4023Z" fill="#6D76FC"/>
<path d="M62.2897 31.4023H62.0671V47.1843H62.2897V31.4023Z" fill="#6C76FC"/>
<path d="M62.5129 31.4023H62.2903V47.1843H62.5129V31.4023Z" fill="#6B76FC"/>
<path d="M62.5721 31.4023H62.5115V47.1843H62.5721V31.4023Z" fill="#6A76FC"/>
</g>
</g>
<path d="M53.5574 31.402L36.7534 1.97288C36.3431 1.25475 35.6029 0.81543 34.8064 0.81543H24.2537L30.9286 12.5364L50.0014 46.0237C50.4117 46.7446 51.1519 47.184 51.951 47.184H62.0747L53.5574 31.402Z" fill="#AECFFF"/>
<path d="M123.619 16.521L123.66 16.9519H120.125L120.042 16.521C119.219 12.246 116.711 9.35379 111.983 9.35379C106.185 9.35379 102.61 14.6651 102.61 21.8746C102.61 29.084 106.145 34.4826 111.736 34.4826C116.464 34.4826 118.972 31.5904 119.795 27.3154L119.878 26.8846H123.413L123.373 27.3154C122.839 32.7112 119.015 37.4171 111.533 37.4171C103.27 37.4171 98.6655 30.7681 98.6655 22.0463C98.6655 13.3246 104.01 6.4165 112.069 6.4165C119.264 6.4165 123.046 10.6915 123.622 16.5182L123.619 16.521Z" fill="white"/>
<path d="M148.329 25.372C148.329 31.8042 144.918 37.4168 137.517 37.4168C130.115 37.4168 126.704 31.8042 126.704 25.372C126.704 18.9398 130.115 13.3271 137.517 13.3271C144.918 13.3271 148.329 18.8976 148.329 25.372ZM144.465 25.372C144.465 19.9762 141.917 16.1771 137.517 16.1771C133.116 16.1771 130.568 19.9762 130.568 25.372C130.568 30.7678 133.116 34.5668 137.517 34.5668C141.917 34.5668 144.465 30.7256 144.465 25.372Z" fill="white"/>
<path d="M171.641 36.8143H168.107V33.1449L166.463 35.6062C165.229 36.6848 162.928 37.4198 160.708 37.4198C154.336 37.4198 150.799 32.4126 150.799 25.7186C150.799 17.2559 155.814 13.3273 161.448 13.3273C163.258 13.3273 165.559 13.8878 166.669 14.8396L168.11 17.0841V5.08154H171.644V36.8143H171.641ZM168.104 25.589V24.3358C168.104 18.4218 164.57 16.1745 161.443 16.1745C157.618 16.1745 154.658 19.2836 154.658 25.2849C154.658 30.4667 156.878 34.567 161.236 34.567C164.854 34.567 168.102 32.1507 168.102 25.5862L168.104 25.589Z" fill="white"/>
<path d="M195.692 26.4956H179.904C180.234 32.5392 182.945 34.5697 186.153 34.5697C188.99 34.5697 191.291 32.7138 191.784 29.4329H195.485C194.622 34.9583 190.47 37.4196 185.989 37.4196C180.314 37.4196 176.08 33.5333 176.08 25.4593C176.08 18.033 180.478 13.3271 186.44 13.3271C192.401 13.3271 195.772 18.033 195.772 24.7243C195.772 25.0707 195.772 25.6733 195.689 26.4956H195.692ZM179.944 23.6457H192.197C191.867 18.8976 189.937 16.1771 186.359 16.1771C182.782 16.1771 180.357 18.768 179.944 23.6457Z" fill="white"/>
<path d="M222.498 31.8494L221.471 34.1362C219.991 36.3384 217.607 37.417 214.893 37.417C210.822 37.417 208.108 35.3021 208.108 31.1989C208.108 25.9326 213.863 23.5586 221.058 23.5586H222.456V22.5222C222.456 21.4859 222.456 20.5791 222.372 19.63C222.126 16.566 220.235 14.8368 216.821 14.8368C213.82 14.8368 211.023 16.5209 210.573 20.4918H208.969C209.256 16.4336 212.423 13.4541 216.821 13.4541C221.219 13.4541 223.603 15.6564 223.933 19.4554C224.016 20.5791 224.016 21.3113 224.016 22.4349V29.8612C224.016 32.2353 224.14 33.9193 224.386 36.8116H222.783L222.496 31.8466L222.498 31.8494ZM222.456 27.8758V24.9413C216.207 24.5105 209.835 26.2368 209.835 31.1144C209.835 34.1784 211.645 36.0371 215.263 36.0371C219.581 36.0371 222.458 32.2803 222.458 27.8786L222.456 27.8758Z" fill="white"/>
<path d="M246.672 24.1218V36.8144H245.108V24.5105C245.108 22.9982 245.068 22.0069 244.944 20.841C244.574 17.301 242.724 14.8819 238.819 14.8819C234.915 14.8819 231.501 17.6868 231.501 24.2063V36.8116H229.937V14.0596H231.501V18.9372L232.488 16.5632C234.132 14.4032 236.435 13.4541 238.983 13.4541C243.464 13.4541 246.095 16.045 246.508 20.3622C246.631 21.5281 246.672 22.2631 246.672 24.119V24.1218Z" fill="white"/>
<path d="M269.531 36.8143H267.967V31.9789L266.693 34.5698C264.926 36.6426 262.912 37.4198 260.155 37.4198C254.317 37.4198 250.659 32.4971 250.659 25.6341C250.659 17.5178 255.387 13.4597 260.691 13.4597C263.199 13.4597 265.132 14.237 266.736 16.0506L267.97 18.6837V5.08154H269.533V36.8143H269.531ZM267.967 26.279V24.0767C267.967 17.0391 264.02 14.8368 260.691 14.8368C255.84 14.8368 252.386 19.0245 252.386 25.4144C252.386 31.1566 255.14 36.0343 260.321 36.0343C264.433 36.0343 267.967 33.5307 267.967 26.2762V26.279Z" fill="white"/>
<path d="M308.299 16.521L308.34 16.9519H304.805L304.722 16.521C303.899 12.246 301.391 9.35379 296.663 9.35379C290.865 9.35379 287.29 14.6651 287.29 21.8746C287.29 29.084 290.825 34.4826 296.416 34.4826C301.144 34.4826 303.652 31.5904 304.475 27.3154L304.558 26.8846H308.093L308.053 27.3154C307.519 32.7112 303.695 37.4171 296.213 37.4171C287.95 37.4171 283.345 30.7681 283.345 22.0463C283.345 13.3246 288.69 6.4165 296.749 6.4165C303.944 6.4165 307.725 10.6915 308.302 16.5182L308.299 16.521Z" fill="white"/>
<path d="M333.009 25.372C333.009 31.8042 329.598 37.4168 322.196 37.4168C314.795 37.4168 311.384 31.8042 311.384 25.372C311.384 18.9398 314.795 13.3271 322.196 13.3271C329.598 13.3271 333.009 18.8976 333.009 25.372ZM329.145 25.372C329.145 19.9762 326.597 16.1771 322.196 16.1771C317.796 16.1771 315.248 19.9762 315.248 25.372C315.248 30.7678 317.796 34.5668 322.196 34.5668C326.597 34.5668 329.145 30.7256 329.145 25.372Z" fill="white"/>
<path d="M347.316 13.7167V16.5217C343.615 16.2626 340.821 18.5521 340.821 23.7734V36.8123H337.286V13.9308H340.821V17.513L342.795 14.449C343.699 13.8012 344.809 13.4126 345.836 13.4126C346.412 13.4126 346.906 13.4999 347.316 13.7139V13.7167Z" fill="white"/>
<path d="M368.163 26.4956H352.375C352.705 32.5392 355.417 34.5697 358.624 34.5697C361.461 34.5697 363.762 32.7138 364.256 29.4329H367.956C367.093 34.9583 362.942 37.4196 358.46 37.4196C352.786 37.4196 348.551 33.5333 348.551 25.4593C348.551 18.033 352.949 13.3271 358.911 13.3271C364.872 13.3271 368.243 18.033 368.243 24.7243C368.243 25.0707 368.243 25.6733 368.16 26.4956H368.163ZM352.416 23.6457H364.666C364.336 18.8976 362.405 16.1771 358.828 16.1771C355.25 16.1771 352.826 18.768 352.413 23.6457H352.416Z" fill="white"/>
<path d="M371.758 7.59801H370.334V6.43896H374.405V7.59801H372.985V12.8385H371.758V7.59801Z" fill="white"/>
<path d="M378.637 10.7978L380.387 6.43896H381.976V12.8385H380.797V8.26669L379.212 12.3036H378.071L376.486 8.26669V12.8385H375.312V6.43896H376.896L378.637 10.7978Z" fill="white"/>
</svg>
