<svg width="382" height="48" viewBox="0 0 382 48" fill="none" xmlns="http://www.w3.org/2000/svg">
<mask id="mask0_9_16" style="mask-type:luminance" maskUnits="userSpaceOnUse" x="49" y="0" width="37" height="48">
<path d="M63.3109 0.956055C62.5037 0.956055 61.7582 1.40383 61.3506 2.13604L49.9423 22.6041C49.532 23.3363 49.5266 24.2459 49.9262 24.9838L53.4662 31.5427L62.4796 47.3246H79.5518C80.359 47.3246 81.1045 46.874 81.5121 46.1418L85.2345 39.459C85.6555 38.7014 85.1352 37.7495 84.3012 37.7495H71.8738C71.0693 37.7495 70.3265 37.3046 69.9162 36.5752L63.496 25.1499C63.032 24.3248 63.083 23.2884 63.6274 22.5168L69.8947 13.6402C70.3238 13.0319 70.9996 12.6742 71.721 12.6742H79.423C80.2973 12.6742 81.0965 12.1476 81.4719 11.3168L85.4463 2.57818C85.7869 1.82626 85.2639 0.956055 84.4675 0.956055H63.3083H63.3109Z" fill="white"/>
</mask>
<g mask="url(#mask0_9_16)">
<path d="M85.789 0.956055H49.526V47.3246H85.789V0.956055Z" fill="#9966FF"/>
</g>
<mask id="mask1_9_16" style="mask-type:luminance" maskUnits="userSpaceOnUse" x="0" y="0" width="36" height="48">
<path d="M13.6795 0.956055C12.8722 0.956055 12.1267 1.40383 11.7191 2.13604L0.310818 22.6041C-0.0968114 23.3363 -0.104857 24.2459 0.294728 24.9838L11.7003 46.1136C12.1053 46.8599 12.8588 47.3218 13.6768 47.3218H29.9203C30.7275 47.3218 31.473 46.8712 31.8807 46.139L35.603 39.4562C36.024 38.6986 35.5037 37.7467 34.6697 37.7467H22.2424C21.4378 37.7467 20.695 37.3018 20.2847 36.5724L13.8645 25.1471C13.4006 24.322 13.4515 23.2856 13.9959 22.514L20.9444 12.6742H30.8079L24.133 0.956055H13.6821H13.6795Z" fill="white"/>
</mask>
<g mask="url(#mask1_9_16)">
<path d="M36.024 0.956055H-0.104858V47.3246H36.024V0.956055Z" fill="#6167F8"/>
</g>
<mask id="mask2_9_16" style="mask-type:luminance" maskUnits="userSpaceOnUse" x="53" y="31" width="10" height="17">
<path d="M53.5579 31.543L62.0752 47.3249H62.5713L53.5579 31.543Z" fill="white"/>
</mask>
<g mask="url(#mask2_9_16)">
<mask id="mask3_9_16" style="mask-type:luminance" maskUnits="userSpaceOnUse" x="53" y="31" width="10" height="17">
<path d="M62.5713 31.543H53.5579V47.3249H62.5713V31.543Z" fill="white"/>
</mask>
<g mask="url(#mask3_9_16)">
<path d="M62.5687 31.543H62.4346V47.3249H62.5687V31.543Z" fill="#6976FC"/>
<path d="M62.4345 31.543H62.2709V47.3249H62.4345V31.543Z" fill="#6876FC"/>
<path d="M62.2746 31.543H62.111V47.3249H62.2746V31.543Z" fill="#6776FC"/>
<path d="M62.1107 31.543H61.9471V47.3249H62.1107V31.543Z" fill="#6676FC"/>
<path d="M61.947 31.543H61.7834V47.3249H61.947V31.543Z" fill="#6576FC"/>
<path d="M61.7833 31.543H61.6198V47.3249H61.7833V31.543Z" fill="#6476FC"/>
<path d="M61.6193 31.543H61.4557V47.3249H61.6193V31.543Z" fill="#6376FC"/>
<path d="M61.4557 31.543H61.2921V47.3249H61.4557V31.543Z" fill="#6276FC"/>
<path d="M61.2921 31.543H61.1285V47.3249H61.2921V31.543Z" fill="#6176FC"/>
<path d="M61.1286 31.543H60.965V47.3249H61.1286V31.543Z" fill="#6077FC"/>
<path d="M60.9649 31.543H60.8013V47.3249H60.9649V31.543Z" fill="#5F77FC"/>
<path d="M60.8013 31.543H60.6377V47.3249H60.8013V31.543Z" fill="#5E77FC"/>
<path d="M60.6404 31.543H60.4768V47.3249H60.6404V31.543Z" fill="#5D77FC"/>
<path d="M60.4768 31.543H60.3132V47.3249H60.4768V31.543Z" fill="#5C77FC"/>
<path d="M60.3132 31.543H60.1497V47.3249H60.3132V31.543Z" fill="#5B77FC"/>
<path d="M60.1497 31.543H59.9861V47.3249H60.1497V31.543Z" fill="#5A77FC"/>
<path d="M59.9861 31.543H59.8225V47.3249H59.9861V31.543Z" fill="#5977FC"/>
<path d="M59.8225 31.543H59.6589V47.3249H59.8225V31.543Z" fill="#5877FC"/>
<path d="M59.6589 31.543H59.4954V47.3249H59.6589V31.543Z" fill="#5777FC"/>
<path d="M59.4954 31.543H59.3318V47.3249H59.4954V31.543Z" fill="#5677FC"/>
<path d="M59.3312 31.543H59.1676V47.3249H59.3312V31.543Z" fill="#5577FC"/>
<path d="M59.1675 31.543H59.0039V47.3249H59.1675V31.543Z" fill="#5477FC"/>
<path d="M59.0072 31.543H58.8436V47.3249H59.0072V31.543Z" fill="#5377FC"/>
<path d="M58.844 31.543H58.6241V47.3249H58.844V31.543Z" fill="#5377FC"/>
<path d="M58.623 31.543H58.4031V47.3249H58.623V31.543Z" fill="#5378FC"/>
<path d="M58.4039 31.543H58.184V47.3249H58.4039V31.543Z" fill="#5379FC"/>
<path d="M58.1839 31.543H57.964V47.3249H58.1839V31.543Z" fill="#527AFC"/>
<path d="M57.9647 31.543H57.7448V47.3249H57.9647V31.543Z" fill="#527BFC"/>
<path d="M57.7435 31.543H57.5236V47.3249H57.7435V31.543Z" fill="#527CFC"/>
<path d="M57.5242 31.543H57.3043V47.3249H57.5242V31.543Z" fill="#527DFC"/>
<path d="M57.3043 31.543H57.0844V47.3249H57.3043V31.543Z" fill="#517EFC"/>
<path d="M57.0851 31.543H56.8652V47.3249H57.0851V31.543Z" fill="#517FFC"/>
<path d="M56.8639 31.543H56.644V47.3249H56.8639V31.543Z" fill="#5180FC"/>
<path d="M56.648 31.543H56.4281V47.3249H56.648V31.543Z" fill="#5181FC"/>
<path d="M56.4268 31.543H56.2069V47.3249H56.4268V31.543Z" fill="#5082FC"/>
<path d="M56.2075 31.543H55.9875V47.3249H56.2075V31.543Z" fill="#5083FC"/>
<path d="M55.9876 31.543H55.7677V47.3249H55.9876V31.543Z" fill="#5084FC"/>
<path d="M55.7685 31.543H55.5486V47.3249H55.7685V31.543Z" fill="#5085FC"/>
<path d="M55.5473 31.543H55.3274V47.3249H55.5473V31.543Z" fill="#4F87FC"/>
<path d="M55.3278 31.543H55.1079V47.3249H55.3278V31.543Z" fill="#4F88FC"/>
<path d="M55.108 31.543H54.8881V47.3249H55.108V31.543Z" fill="#4F89FC"/>
<path d="M54.8871 31.543H54.6672V47.3249H54.8871V31.543Z" fill="#4F8AFC"/>
<path d="M54.6681 31.543H54.4482V47.3249H54.6681V31.543Z" fill="#4E8BFC"/>
<path d="M54.4482 31.543H54.2283V47.3249H54.4482V31.543Z" fill="#4E8CFC"/>
<path d="M54.2288 31.543H54.0089V47.3249H54.2288V31.543Z" fill="#4E8DFC"/>
<path d="M54.011 31.543H53.7911V47.3249H54.011V31.543Z" fill="#4E8EFC"/>
<path d="M53.7914 31.543H53.5715V47.3249H53.7914V31.543Z" fill="#4D8FFC"/>
<path d="M53.5721 31.543H53.5579V47.3249H53.5721V31.543Z" fill="#4D90FC"/>
</g>
</g>
<mask id="mask4_9_16" style="mask-type:luminance" maskUnits="userSpaceOnUse" x="53" y="31" width="10" height="17">
<path d="M53.5579 31.543L62.0752 47.3249H62.5713L53.5579 31.543Z" fill="white"/>
</mask>
<g mask="url(#mask4_9_16)">
<mask id="mask5_9_16" style="mask-type:luminance" maskUnits="userSpaceOnUse" x="53" y="31" width="10" height="17">
<path d="M62.5713 31.543H53.5579V47.3249H62.5713V31.543Z" fill="white"/>
</mask>
<g mask="url(#mask5_9_16)">
<path d="M53.6715 31.543H53.5579V47.3249H53.6715V31.543Z" fill="#9079FD"/>
<path d="M53.9955 31.543H53.671V47.3249H53.9955V31.543Z" fill="#8F78FD"/>
<path d="M54.3195 31.543H53.995V47.3249H54.3195V31.543Z" fill="#8E78FD"/>
<path d="M54.6435 31.543H54.319V47.3249H54.6435V31.543Z" fill="#8D77FD"/>
<path d="M54.9657 31.543H54.6412V47.3249H54.9657V31.543Z" fill="#8C76FD"/>
<path d="M55.2896 31.543H54.9651V47.3249H55.2896V31.543Z" fill="#8B76FD"/>
<path d="M55.6153 31.543H55.2908V47.3249H55.6153V31.543Z" fill="#8A75FD"/>
<path d="M55.8375 31.543H55.6149V47.3249H55.8375V31.543Z" fill="#8A75FD"/>
<path d="M56.06 31.543H55.8374V47.3249H56.06V31.543Z" fill="#8975FD"/>
<path d="M56.2831 31.543H56.0605V47.3249H56.2831V31.543Z" fill="#8875FD"/>
<path d="M56.5043 31.543H56.2817V47.3249H56.5043V31.543Z" fill="#8775FD"/>
<path d="M56.7272 31.543H56.5046V47.3249H56.7272V31.543Z" fill="#8675FD"/>
<path d="M56.9502 31.543H56.7277V47.3249H56.9502V31.543Z" fill="#8575FD"/>
<path d="M57.1729 31.543H56.9503V47.3249H57.1729V31.543Z" fill="#8475FD"/>
<path d="M57.396 31.543H57.1735V47.3249H57.396V31.543Z" fill="#8375FD"/>
<path d="M57.6172 31.543H57.3947V47.3249H57.6172V31.543Z" fill="#8275FD"/>
<path d="M57.8401 31.543H57.6176V47.3249H57.8401V31.543Z" fill="#8175FD"/>
<path d="M58.0633 31.543H57.8407V47.3249H58.0633V31.543Z" fill="#8075FD"/>
<path d="M58.2859 31.543H58.0634V47.3249H58.2859V31.543Z" fill="#7F75FD"/>
<path d="M58.509 31.543H58.2864V47.3249H58.509V31.543Z" fill="#7E75FD"/>
<path d="M58.7319 31.543H58.5093V47.3249H58.7319V31.543Z" fill="#7D75FD"/>
<path d="M58.9531 31.543H58.7305V47.3249H58.9531V31.543Z" fill="#7C76FD"/>
<path d="M59.1762 31.543H58.9536V47.3249H59.1762V31.543Z" fill="#7B76FD"/>
<path d="M59.3987 31.543H59.1761V47.3249H59.3987V31.543Z" fill="#7A76FD"/>
<path d="M59.6218 31.543H59.3992V47.3249H59.6218V31.543Z" fill="#7976FD"/>
<path d="M59.8448 31.543H59.6222V47.3249H59.8448V31.543Z" fill="#7876FD"/>
<path d="M60.066 31.543H59.8434V47.3249H60.066V31.543Z" fill="#7776FD"/>
<path d="M60.2891 31.543H60.0665V47.3249H60.2891V31.543Z" fill="#7676FD"/>
<path d="M60.5082 31.543H60.2856V47.3249H60.5082V31.543Z" fill="#7576FD"/>
<path d="M60.7316 31.543H60.509V47.3249H60.7316V31.543Z" fill="#7476FD"/>
<path d="M60.9543 31.543H60.7317V47.3249H60.9543V31.543Z" fill="#7376FD"/>
<path d="M61.1767 31.543H60.9541V47.3249H61.1767V31.543Z" fill="#7276FD"/>
<path d="M61.4 31.543H61.1774V47.3249H61.4V31.543Z" fill="#7176FD"/>
<path d="M61.6211 31.543H61.3986V47.3249H61.6211V31.543Z" fill="#7076FD"/>
<path d="M61.844 31.543H61.6215V47.3249H61.844V31.543Z" fill="#6F76FD"/>
<path d="M62.0672 31.543H61.8446V47.3249H62.0672V31.543Z" fill="#6D76FC"/>
<path d="M62.2897 31.543H62.0671V47.3249H62.2897V31.543Z" fill="#6C76FC"/>
<path d="M62.5129 31.543H62.2903V47.3249H62.5129V31.543Z" fill="#6B76FC"/>
<path d="M62.5721 31.543H62.5115V47.3249H62.5721V31.543Z" fill="#6A76FC"/>
</g>
</g>
<path d="M53.5574 31.5427L36.7534 2.11351C36.3431 1.39538 35.6029 0.956055 34.8064 0.956055H24.2537L30.9286 12.677L50.0014 46.1643C50.4117 46.8853 51.1519 47.3246 51.951 47.3246H62.0747L53.5574 31.5427Z" fill="#AECFFF"/>
<path d="M123.619 16.6616L123.66 17.0925H120.125L120.042 16.6616C119.219 12.3866 116.711 9.49441 111.983 9.49441C106.185 9.49441 102.61 14.8057 102.61 22.0152C102.61 29.2246 106.145 34.6233 111.736 34.6233C116.464 34.6233 118.972 31.731 119.795 27.4561L119.878 27.0252H123.413L123.373 27.4561C122.839 32.8519 119.015 37.5577 111.533 37.5577C103.27 37.5577 98.6655 30.9087 98.6655 22.187C98.6655 13.4652 104.01 6.55713 112.069 6.55713C119.264 6.55713 123.046 10.8321 123.622 16.6588L123.619 16.6616Z" fill="#1A0726"/>
<path d="M148.329 25.5126C148.329 31.9448 144.918 37.5574 137.517 37.5574C130.115 37.5574 126.704 31.9448 126.704 25.5126C126.704 19.0804 130.115 13.4678 137.517 13.4678C144.918 13.4678 148.329 19.0382 148.329 25.5126ZM144.465 25.5126C144.465 20.1168 141.917 16.3178 137.517 16.3178C133.116 16.3178 130.568 20.1168 130.568 25.5126C130.568 30.9084 133.116 34.7075 137.517 34.7075C141.917 34.7075 144.465 30.8662 144.465 25.5126Z" fill="#1A0726"/>
<path d="M171.641 36.955H168.107V33.2855L166.463 35.7468C165.229 36.8254 162.928 37.5604 160.708 37.5604C154.336 37.5604 150.799 32.5533 150.799 25.8592C150.799 17.3965 155.814 13.468 161.448 13.468C163.258 13.468 165.559 14.0284 166.669 14.9803L168.11 17.2248V5.22217H171.644V36.955H171.641ZM168.104 25.7296V24.4764C168.104 18.5624 164.57 16.3151 161.443 16.3151C157.618 16.3151 154.658 19.4242 154.658 25.4255C154.658 30.6073 156.878 34.7076 161.236 34.7076C164.854 34.7076 168.102 32.2914 168.102 25.7268L168.104 25.7296Z" fill="#1A0726"/>
<path d="M195.692 26.6363H179.904C180.234 32.6798 182.945 34.7103 186.153 34.7103C188.99 34.7103 191.291 32.8544 191.784 29.5736H195.485C194.622 35.0989 190.47 37.5603 185.989 37.5603C180.314 37.5603 176.08 33.6739 176.08 25.5999C176.08 18.1736 180.478 13.4678 186.44 13.4678C192.401 13.4678 195.772 18.1736 195.772 24.8649C195.772 25.2113 195.772 25.8139 195.689 26.6363H195.692ZM179.944 23.7863H192.197C191.867 19.0382 189.937 16.3178 186.359 16.3178C182.782 16.3178 180.357 18.9086 179.944 23.7863Z" fill="#1A0726"/>
<path d="M222.498 31.9901L221.471 34.2768C219.991 36.4791 217.607 37.5577 214.893 37.5577C210.822 37.5577 208.108 35.4427 208.108 31.3395C208.108 26.0733 213.863 23.6992 221.058 23.6992H222.456V22.6629C222.456 21.6265 222.456 20.7197 222.372 19.7706C222.126 16.7066 220.235 14.9775 216.821 14.9775C213.82 14.9775 211.023 16.6616 210.573 20.6324H208.969C209.256 16.5743 212.423 13.5947 216.821 13.5947C221.219 13.5947 223.603 15.797 223.933 19.596C224.016 20.7197 224.016 21.4519 224.016 22.5755V30.0018C224.016 32.3759 224.14 34.06 224.386 36.9522H222.783L222.496 31.9872L222.498 31.9901ZM222.456 28.0164V25.082C216.207 24.6511 209.835 26.3774 209.835 31.255C209.835 34.319 211.645 36.1777 215.263 36.1777C219.581 36.1777 222.458 32.4209 222.458 28.0192L222.456 28.0164Z" fill="#1A0726"/>
<path d="M246.672 24.2624V36.955H245.108V24.6511C245.108 23.1388 245.068 22.1475 244.944 20.9816C244.574 17.4416 242.724 15.0225 238.819 15.0225C234.915 15.0225 231.501 17.8275 231.501 24.3469V36.9522H229.937V14.2002H231.501V19.0778L232.488 16.7038C234.132 14.5438 236.435 13.5947 238.983 13.5947C243.464 13.5947 246.095 16.1856 246.508 20.5028C246.631 21.6687 246.672 22.4038 246.672 24.2596V24.2624Z" fill="#1A0726"/>
<path d="M269.531 36.955H267.967V32.1196L266.693 34.7105C264.926 36.7832 262.912 37.5604 260.155 37.5604C254.317 37.5604 250.659 32.6378 250.659 25.7747C250.659 17.6585 255.387 13.6003 260.691 13.6003C263.199 13.6003 265.132 14.3776 266.736 16.1912L267.97 18.8244V5.22217H269.533V36.955H269.531ZM267.967 26.4196V24.2174C267.967 17.1797 264.02 14.9774 260.691 14.9774C255.84 14.9774 252.386 19.1651 252.386 25.555C252.386 31.2972 255.14 36.1749 260.321 36.1749C264.433 36.1749 267.967 33.6713 267.967 26.4168V26.4196Z" fill="#1A0726"/>
<path d="M308.299 16.6616L308.34 17.0925H304.805L304.722 16.6616C303.899 12.3866 301.391 9.49441 296.663 9.49441C290.865 9.49441 287.29 14.8057 287.29 22.0152C287.29 29.2246 290.825 34.6233 296.416 34.6233C301.144 34.6233 303.652 31.731 304.475 27.4561L304.558 27.0252H308.093L308.053 27.4561C307.519 32.8519 303.695 37.5577 296.213 37.5577C287.95 37.5577 283.345 30.9087 283.345 22.187C283.345 13.4652 288.69 6.55713 296.749 6.55713C303.944 6.55713 307.725 10.8321 308.302 16.6588L308.299 16.6616Z" fill="#1A0726"/>
<path d="M333.009 25.5126C333.009 31.9448 329.598 37.5574 322.196 37.5574C314.795 37.5574 311.384 31.9448 311.384 25.5126C311.384 19.0804 314.795 13.4678 322.196 13.4678C329.598 13.4678 333.009 19.0382 333.009 25.5126ZM329.145 25.5126C329.145 20.1168 326.597 16.3178 322.196 16.3178C317.796 16.3178 315.248 20.1168 315.248 25.5126C315.248 30.9084 317.796 34.7075 322.196 34.7075C326.597 34.7075 329.145 30.8662 329.145 25.5126Z" fill="#1A0726"/>
<path d="M347.316 13.8574V16.6623C343.615 16.4032 340.821 18.6928 340.821 23.914V36.9529H337.286V14.0714H340.821V17.6536L342.795 14.5896C343.699 13.9419 344.809 13.5532 345.836 13.5532C346.412 13.5532 346.906 13.6405 347.316 13.8546V13.8574Z" fill="#1A0726"/>
<path d="M368.163 26.6363H352.375C352.705 32.6798 355.417 34.7103 358.624 34.7103C361.461 34.7103 363.762 32.8544 364.256 29.5736H367.956C367.093 35.0989 362.942 37.5603 358.46 37.5603C352.786 37.5603 348.551 33.6739 348.551 25.5999C348.551 18.1736 352.949 13.4678 358.911 13.4678C364.872 13.4678 368.243 18.1736 368.243 24.8649C368.243 25.2113 368.243 25.8139 368.16 26.6363H368.163ZM352.416 23.7863H364.666C364.336 19.0382 362.405 16.3178 358.828 16.3178C355.25 16.3178 352.826 18.9086 352.413 23.7863H352.416Z" fill="#1A0726"/>
<path d="M371.758 7.73864H370.334V6.57959H374.405V7.73864H372.985V12.9791H371.758V7.73864Z" fill="#1A0726"/>
<path d="M378.637 10.9384L380.387 6.57959H381.976V12.9791H380.797V8.40732L379.212 12.4442H378.071L376.486 8.40732V12.9791H375.312V6.57959H376.896L378.637 10.9384Z" fill="#1A0726"/>
</svg>
