<svg width="86" height="47" viewBox="0 0 86 47" fill="none" xmlns="http://www.w3.org/2000/svg">
<mask id="mask0_87_14" style="mask-type:luminance" maskUnits="userSpaceOnUse" x="49" y="0" width="37" height="48">
<path d="M63.3094 0.632812C62.5021 0.632812 61.7566 1.08059 61.349 1.8128L49.9407 22.2808C49.5304 23.0131 49.525 23.9227 49.9246 24.6605L53.4646 31.2194L62.478 47.0013H79.5502C80.3574 47.0013 81.1029 46.5507 81.5106 45.8185L85.2329 39.1357C85.6539 38.3782 85.1336 37.4263 84.2996 37.4263H71.8723C71.0677 37.4263 70.3249 36.9813 69.9146 36.252L63.4944 24.8267C63.0305 24.0015 63.0814 22.9652 63.6258 22.1935L69.8931 13.3169C70.3222 12.7086 70.998 12.351 71.7194 12.351H79.4215C80.2957 12.351 81.0949 11.8243 81.4703 10.9936L85.4447 2.25494C85.7853 1.50301 85.2624 0.632812 84.4659 0.632812H63.3067H63.3094Z" fill="white"/>
</mask>
<g mask="url(#mask0_87_14)">
<path d="M85.7864 0.632812H49.5234V47.0013H85.7864V0.632812Z" fill="#9966FF"/>
</g>
<mask id="mask1_87_14" style="mask-type:luminance" maskUnits="userSpaceOnUse" x="0" y="0" width="36" height="47">
<path d="M13.6795 0.632812C12.8722 0.632812 12.1267 1.08059 11.7191 1.8128L0.310818 22.2808C-0.0968114 23.0131 -0.104857 23.9227 0.294728 24.6605L11.7003 45.7904C12.1053 46.5367 12.8588 46.9985 13.6768 46.9985H29.9203C30.7275 46.9985 31.473 46.5479 31.8807 45.8157L35.603 39.1329C36.024 38.3754 35.5037 37.4235 34.6697 37.4235H22.2424C21.4378 37.4235 20.695 36.9785 20.2847 36.2491L13.8645 24.8239C13.4006 23.9987 13.4515 22.9624 13.9959 22.1907L20.9444 12.351H30.8079L24.133 0.632812H13.6821H13.6795Z" fill="white"/>
</mask>
<g mask="url(#mask1_87_14)">
<path d="M36.0234 0.632812H-0.105469V47.0013H36.0234V0.632812Z" fill="#6167F8"/>
</g>
<mask id="mask2_87_14" style="mask-type:luminance" maskUnits="userSpaceOnUse" x="53" y="31" width="10" height="17">
<path d="M53.5586 31.2207L62.0759 47.0026H62.572L53.5586 31.2207Z" fill="white"/>
</mask>
<g mask="url(#mask2_87_14)">
<mask id="mask3_87_14" style="mask-type:luminance" maskUnits="userSpaceOnUse" x="53" y="31" width="10" height="17">
<path d="M62.572 31.2207H53.5586V47.0026H62.572V31.2207Z" fill="white"/>
</mask>
<g mask="url(#mask3_87_14)">
<path d="M62.5677 31.2207H62.4336V47.0026H62.5677V31.2207Z" fill="#6976FC"/>
<path d="M62.437 31.2207H62.2734V47.0026H62.437V31.2207Z" fill="#6876FC"/>
<path d="M62.2769 31.2207H62.1133V47.0026H62.2769V31.2207Z" fill="#6776FC"/>
<path d="M62.1128 31.2207H61.9492V47.0026H62.1128V31.2207Z" fill="#6676FC"/>
<path d="M61.9487 31.2207H61.7852V47.0026H61.9487V31.2207Z" fill="#6576FC"/>
<path d="M61.7847 31.2207H61.6211V47.0026H61.7847V31.2207Z" fill="#6476FC"/>
<path d="M61.6206 31.2207H61.457V47.0026H61.6206V31.2207Z" fill="#6376FC"/>
<path d="M61.4566 31.2207H61.293V47.0026H61.4566V31.2207Z" fill="#6276FC"/>
<path d="M61.2925 31.2207H61.1289V47.0026H61.2925V31.2207Z" fill="#6176FC"/>
<path d="M61.1284 31.2207H60.9648V47.0026H61.1284V31.2207Z" fill="#6077FC"/>
<path d="M60.9644 31.2207H60.8008V47.0026H60.9644V31.2207Z" fill="#5F77FC"/>
<path d="M60.8003 31.2207H60.6367V47.0026H60.8003V31.2207Z" fill="#5E77FC"/>
<path d="M60.6402 31.2207H60.4766V47.0026H60.6402V31.2207Z" fill="#5D77FC"/>
<path d="M60.4761 31.2207H60.3125V47.0026H60.4761V31.2207Z" fill="#5C77FC"/>
<path d="M60.312 31.2207H60.1484V47.0026H60.312V31.2207Z" fill="#5B77FC"/>
<path d="M60.1519 31.2207H59.9883V47.0026H60.1519V31.2207Z" fill="#5A77FC"/>
<path d="M59.9878 31.2207H59.8242V47.0026H59.9878V31.2207Z" fill="#5977FC"/>
<path d="M59.8237 31.2207H59.6602V47.0026H59.8237V31.2207Z" fill="#5877FC"/>
<path d="M59.6597 31.2207H59.4961V47.0026H59.6597V31.2207Z" fill="#5777FC"/>
<path d="M59.4956 31.2207H59.332V47.0026H59.4956V31.2207Z" fill="#5677FC"/>
<path d="M59.3316 31.2207H59.168V47.0026H59.3316V31.2207Z" fill="#5577FC"/>
<path d="M59.1675 31.2207H59.0039V47.0026H59.1675V31.2207Z" fill="#5477FC"/>
<path d="M59.0073 31.2207H58.8438V47.0026H59.0073V31.2207Z" fill="#5377FC"/>
<path d="M58.8449 31.2207H58.625V47.0026H58.8449V31.2207Z" fill="#5377FC"/>
<path d="M58.6223 31.2207H58.4023V47.0026H58.6223V31.2207Z" fill="#5378FC"/>
<path d="M58.4035 31.2207H58.1836V47.0026H58.4035V31.2207Z" fill="#5379FC"/>
<path d="M58.1848 31.2207H57.9648V47.0026H58.1848V31.2207Z" fill="#527AFC"/>
<path d="M57.966 31.2207H57.7461V47.0026H57.966V31.2207Z" fill="#527BFC"/>
<path d="M57.7433 31.2207H57.5234V47.0026H57.7433V31.2207Z" fill="#527CFC"/>
<path d="M57.5246 31.2207H57.3047V47.0026H57.5246V31.2207Z" fill="#527DFC"/>
<path d="M57.3058 31.2207H57.0859V47.0026H57.3058V31.2207Z" fill="#517EFC"/>
<path d="M57.0871 31.2207H56.8672V47.0026H57.0871V31.2207Z" fill="#517FFC"/>
<path d="M56.8644 31.2207H56.6445V47.0026H56.8644V31.2207Z" fill="#5180FC"/>
<path d="M56.6496 31.2207H56.4297V47.0026H56.6496V31.2207Z" fill="#5181FC"/>
<path d="M56.4269 31.2207H56.207V47.0026H56.4269V31.2207Z" fill="#5082FC"/>
<path d="M56.2082 31.2207H55.9883V47.0026H56.2082V31.2207Z" fill="#5083FC"/>
<path d="M55.9894 31.2207H55.7695V47.0026H55.9894V31.2207Z" fill="#5084FC"/>
<path d="M55.7707 31.2207H55.5508V47.0026H55.7707V31.2207Z" fill="#5085FC"/>
<path d="M55.548 31.2207H55.3281V47.0026H55.548V31.2207Z" fill="#4F87FC"/>
<path d="M55.3293 31.2207H55.1094V47.0026H55.3293V31.2207Z" fill="#4F88FC"/>
<path d="M55.1105 31.2207H54.8906V47.0026H55.1105V31.2207Z" fill="#4F89FC"/>
<path d="M54.8879 31.2207H54.668V47.0026H54.8879V31.2207Z" fill="#4F8AFC"/>
<path d="M54.6691 31.2207H54.4492V47.0026H54.6691V31.2207Z" fill="#4E8BFC"/>
<path d="M54.4504 31.2207H54.2305V47.0026H54.4504V31.2207Z" fill="#4E8CFC"/>
<path d="M54.2277 31.2207H54.0078V47.0026H54.2277V31.2207Z" fill="#4E8DFC"/>
<path d="M54.0129 31.2207H53.793V47.0026H54.0129V31.2207Z" fill="#4E8EFC"/>
<path d="M53.7902 31.2207H53.5703V47.0026H53.7902V31.2207Z" fill="#4D8FFC"/>
<path d="M53.5729 31.2207H53.5586V47.0026H53.5729V31.2207Z" fill="#4D90FC"/>
</g>
</g>
<mask id="mask4_87_14" style="mask-type:luminance" maskUnits="userSpaceOnUse" x="53" y="31" width="10" height="17">
<path d="M53.5586 31.2207L62.0759 47.0026H62.572L53.5586 31.2207Z" fill="white"/>
</mask>
<g mask="url(#mask4_87_14)">
<mask id="mask5_87_14" style="mask-type:luminance" maskUnits="userSpaceOnUse" x="53" y="31" width="10" height="17">
<path d="M62.572 31.2207H53.5586V47.0026H62.572V31.2207Z" fill="white"/>
</mask>
<g mask="url(#mask5_87_14)">
<path d="M53.6722 31.2207H53.5586V47.0026H53.6722V31.2207Z" fill="#9079FD"/>
<path d="M53.9964 31.2207H53.6719V47.0026H53.9964V31.2207Z" fill="#8F78FD"/>
<path d="M54.3206 31.2207H53.9961V47.0026H54.3206V31.2207Z" fill="#8E78FD"/>
<path d="M54.6448 31.2207H54.3203V47.0026H54.6448V31.2207Z" fill="#8D77FD"/>
<path d="M54.9651 31.2207H54.6406V47.0026H54.9651V31.2207Z" fill="#8C76FD"/>
<path d="M55.2893 31.2207H54.9648V47.0026H55.2893V31.2207Z" fill="#8B76FD"/>
<path d="M55.6175 31.2207H55.293V47.0026H55.6175V31.2207Z" fill="#8A75FD"/>
<path d="M55.8398 31.2207H55.6172V47.0026H55.8398V31.2207Z" fill="#8A75FD"/>
<path d="M56.0624 31.2207H55.8398V47.0026H56.0624V31.2207Z" fill="#8975FD"/>
<path d="M56.2851 31.2207H56.0625V47.0026H56.2851V31.2207Z" fill="#8875FD"/>
<path d="M56.5038 31.2207H56.2812V47.0026H56.5038V31.2207Z" fill="#8775FD"/>
<path d="M56.7265 31.2207H56.5039V47.0026H56.7265V31.2207Z" fill="#8675FD"/>
<path d="M56.9492 31.2207H56.7266V47.0026H56.9492V31.2207Z" fill="#8575FD"/>
<path d="M57.1718 31.2207H56.9492V47.0026H57.1718V31.2207Z" fill="#8475FD"/>
<path d="M57.3984 31.2207H57.1758V47.0026H57.3984V31.2207Z" fill="#8375FD"/>
<path d="M57.6171 31.2207H57.3945V47.0026H57.6171V31.2207Z" fill="#8275FD"/>
<path d="M57.8398 31.2207H57.6172V47.0026H57.8398V31.2207Z" fill="#8175FD"/>
<path d="M58.0624 31.2207H57.8398V47.0026H58.0624V31.2207Z" fill="#8075FD"/>
<path d="M58.2851 31.2207H58.0625V47.0026H58.2851V31.2207Z" fill="#7F75FD"/>
<path d="M58.5077 31.2207H58.2852V47.0026H58.5077V31.2207Z" fill="#7E75FD"/>
<path d="M58.7343 31.2207H58.5117V47.0026H58.7343V31.2207Z" fill="#7D75FD"/>
<path d="M58.9531 31.2207H58.7305V47.0026H58.9531V31.2207Z" fill="#7C76FD"/>
<path d="M59.1757 31.2207H58.9531V47.0026H59.1757V31.2207Z" fill="#7B76FD"/>
<path d="M59.3984 31.2207H59.1758V47.0026H59.3984V31.2207Z" fill="#7A76FD"/>
<path d="M59.621 31.2207H59.3984V47.0026H59.621V31.2207Z" fill="#7976FD"/>
<path d="M59.8437 31.2207H59.6211V47.0026H59.8437V31.2207Z" fill="#7876FD"/>
<path d="M60.0663 31.2207H59.8438V47.0026H60.0663V31.2207Z" fill="#7776FD"/>
<path d="M60.289 31.2207H60.0664V47.0026H60.289V31.2207Z" fill="#7676FD"/>
<path d="M60.5077 31.2207H60.2852V47.0026H60.5077V31.2207Z" fill="#7576FD"/>
<path d="M60.7343 31.2207H60.5117V47.0026H60.7343V31.2207Z" fill="#7476FD"/>
<path d="M60.9531 31.2207H60.7305V47.0026H60.9531V31.2207Z" fill="#7376FD"/>
<path d="M61.1757 31.2207H60.9531V47.0026H61.1757V31.2207Z" fill="#7276FD"/>
<path d="M61.4023 31.2207H61.1797V47.0026H61.4023V31.2207Z" fill="#7176FD"/>
<path d="M61.621 31.2207H61.3984V47.0026H61.621V31.2207Z" fill="#7076FD"/>
<path d="M61.8437 31.2207H61.6211V47.0026H61.8437V31.2207Z" fill="#6F76FD"/>
<path d="M62.0663 31.2207H61.8438V47.0026H62.0663V31.2207Z" fill="#6D76FC"/>
<path d="M62.289 31.2207H62.0664V47.0026H62.289V31.2207Z" fill="#6C76FC"/>
<path d="M62.5156 31.2207H62.293V47.0026H62.5156V31.2207Z" fill="#6B76FC"/>
<path d="M62.5723 31.2207H62.5117V47.0026H62.5723V31.2207Z" fill="#6A76FC"/>
</g>
</g>
<path d="M53.5577 31.2194L36.7537 1.79027C36.3433 1.07214 35.6032 0.632812 34.8067 0.632812H24.2539L30.9288 12.3538L50.0016 45.8411C50.4119 46.562 51.1521 47.0013 51.9513 47.0013H62.075L53.5577 31.2194Z" fill="#AECFFF"/>
</svg>
