<svg width="30" height="30" viewBox="0 0 30 30" fill="none" xmlns="http://www.w3.org/2000/svg">
<path fill-rule="evenodd" clip-rule="evenodd" d="M5 0C2.23858 0 0 2.23858 0 5V25C0 27.7614 2.23858 30 5 30H25C27.7614 30 30 27.7614 30 25V5C30 2.23858 27.7614 0 25 0H5ZM15.0632 4.65992C15.063 4.65957 15.0628 4.65921 15.0625 4.65886L15.0606 4.6582L15.0632 4.65992ZM19.4133 12.7892C19.1526 13.1927 18.7055 13.4559 18.1961 13.4559C17.7525 13.4559 17.3555 13.2557 17.091 12.9407L17.089 12.9388C16.4014 12.0557 16.6805 11.1247 16.9615 10.1873C17.0843 9.77737 17.2076 9.36621 17.2505 8.9573C17.2518 8.91267 17.2525 8.86083 17.2525 8.80833C17.2525 7.09158 16.3915 5.57564 15.0776 4.66936L15.0632 4.65992C15.7838 5.82661 14.8326 7.37009 14.0729 8.2328C13.5742 8.79901 13.0025 9.30242 12.4325 9.80424C12.1603 10.044 11.8884 10.2833 11.6251 10.529C10.7431 11.3316 9.94577 12.1933 9.22652 13.1179L9.19239 13.1639C8.04395 14.5249 7.3457 16.2981 7.3457 18.2347C7.3457 18.8201 7.40936 19.391 7.53077 19.9403L7.52092 19.8878C8.25789 22.1834 10.1741 23.8981 12.5386 24.3339L12.5786 24.3398C11.3173 23.7971 10.4229 22.6204 10.2916 21.222L10.2903 21.2069C10.3756 19.7395 11.167 18.4736 12.3266 17.7353L12.3444 17.7248C12.2676 17.904 12.223 18.112 12.223 18.3305C12.223 18.6436 12.3144 18.9359 12.472 19.1811C12.4717 19.1806 12.4714 19.1802 12.471 19.1797L12.475 19.1856C12.474 19.1841 12.473 19.1826 12.472 19.1811C12.7221 19.5202 13.12 19.7375 13.5689 19.7375C14.319 19.7375 14.9274 19.1292 14.9274 18.3791C14.9274 17.9499 14.7285 17.5673 14.4175 17.3186L14.4148 17.3166C13.7067 16.7522 13.2565 15.8899 13.2565 14.9226C13.2565 14.79 13.2651 14.6595 13.2815 14.5315L13.2802 14.5466C13.4383 13.9573 13.7612 13.4572 14.1956 13.0845L14.1996 13.0812C13.8636 13.9651 14.8184 14.836 15.4484 15.2711C16.7196 16.0205 17.7945 16.7483 18.8229 17.5345L18.7421 17.4754C19.7705 18.2669 20.4267 19.4986 20.4267 20.884C20.4267 20.961 20.4249 21.0368 20.4208 21.1126C20.1451 22.6461 19.0538 23.8699 17.6206 24.3319L17.5911 24.3398C20.5613 23.6835 23.6312 21.3795 23.6922 18.0851C23.7684 15.5985 22.1317 13.3968 19.462 12.0299C19.5152 12.1283 19.5467 12.2458 19.5467 12.3698C19.5467 12.5257 19.4977 12.6705 19.4133 12.7892ZM19.4133 12.7892C19.4136 12.7887 19.4139 12.7883 19.4141 12.7878L19.4128 12.7898C19.413 12.7896 19.4131 12.7894 19.4133 12.7892Z" fill="white"/>
</svg>
