<svg width="30" height="30" viewBox="0 0 30 30" fill="none" xmlns="http://www.w3.org/2000/svg">
<path fill-rule="evenodd" clip-rule="evenodd" d="M5 0C2.23858 0 0 2.23858 0 5V25C0 27.7614 2.23858 30 5 30H25C27.7614 30 30 27.7614 30 25V5C30 2.23858 27.7614 0 25 0H5ZM15.5891 22.4013H14.4104C14.1969 22.4013 14.0225 22.5634 14.0225 22.7622V23.6395C14.0225 23.8379 14.1969 24 14.4104 24H15.5891C15.8031 24 15.9775 23.8379 15.9775 23.6395V22.7622C15.9775 22.5634 15.8031 22.4013 15.5891 22.4013ZM14.2824 21.6877C11.9949 18.7727 9.52025 14.549 9.5055 11.8413C9.49186 9.33333 11.0166 7.88291 12.9187 7.18008C13.2586 7.11937 13.6016 7.07522 13.944 7.04561C12.4017 7.9872 11.2589 9.63711 11.2711 12.2371C11.2842 15.1028 12.7679 18.7388 14.5075 21.6877H14.2824ZM12.9677 11.9969C12.9615 9.70351 13.6491 8.12304 14.5404 7.00838C14.8465 6.99721 15.1535 6.99721 15.4596 7.00838C16.3509 8.12304 17.0384 9.70351 17.0323 11.9969C17.0241 14.9903 16.2705 18.5484 15.2986 21.6877H14.7013C13.7295 18.5484 12.9759 14.9903 12.9677 11.9969ZM15.7176 21.6877C18.0051 18.7727 20.4797 14.549 20.4945 11.8413C20.508 9.33333 18.9834 7.88291 17.0808 7.18008C16.7414 7.11937 16.3984 7.07522 16.056 7.04561C17.5983 7.9872 18.7411 9.63714 18.7287 12.2371C18.7158 15.1028 17.2321 18.7388 15.4925 21.6877H15.7176ZM21.3579 11.7726C21.3387 14.9979 18.4335 19.1836 15.8729 21.6877H15.9174C18.6 19.4298 21.9791 15.1018 21.9999 11.8258C22.013 9.69922 20.6603 8.39088 18.8823 7.682C20.3335 8.48303 21.3696 9.7947 21.3579 11.7726ZM8.64203 11.7726C8.66126 14.9979 11.5664 19.1836 14.1271 21.6877H14.0826C11.4 19.4298 8.02097 15.1018 8.00009 11.8258C7.98699 9.69925 9.33971 8.39091 11.1173 7.682C9.66603 8.48303 8.63043 9.7947 8.64203 11.7726Z" fill="white"/>
</svg>
