<svg width="30" height="30" viewBox="0 0 30 30" fill="none" xmlns="http://www.w3.org/2000/svg">
<path fill-rule="evenodd" clip-rule="evenodd" d="M30 25V5.00002C30 2.25 27.75 0 25 0H5.00002C2.25 0 0 2.25 0 5.00002V25C0 27.75 2.25 30 5.00002 30.0001H25C27.75 30.0001 30 27.7501 30 25ZM6.00008 6.03345C6.11075 5.91317 6.26673 5.84473 6.43018 5.84473H22.7955C22.9589 5.84473 23.115 5.91317 23.2255 6.03345C23.3362 6.15373 23.3915 6.31485 23.378 6.47774L22.209 20.5051C22.1896 20.7381 22.0332 20.9372 21.8113 21.011L14.7977 23.3489C14.6777 23.389 14.548 23.389 14.428 23.3489L7.41431 21.011C7.1925 20.9372 7.03609 20.7381 7.01668 20.5051L5.84772 6.47774C5.83415 6.31485 5.8894 6.15373 6.00008 6.03345ZM18.7042 9.35158V9.93605V13.4429V16.9498V17.371L18.3045 17.5042L14.7977 18.6731L14.6128 18.7347L14.428 18.6731L10.9212 17.5042L10.5215 17.371V16.9498V15.1963H11.6905V16.5285L14.6128 17.5027L17.5352 16.5285V14.0274H12.8594V12.8584H17.5352V10.5205H10.5215V9.35158H18.1197H18.7042ZM7.06539 7.01368L8.14958 20.024L14.6128 22.1785L21.076 20.0241L22.1602 7.01368H7.06539Z" fill="white"/>
</svg>
