<svg width="16" height="18" viewBox="0 0 16 18" fill="none" xmlns="http://www.w3.org/2000/svg">
<path d="M8.8735 8.59155H6.73657V10.7285H8.8735V8.59155Z" fill="#424242"/>
<path d="M12.2236 8.59155H10.0867V10.7285H12.2236V8.59155Z" fill="#424242"/>
<path d="M5.52682 11.8397H3.38989V13.9766H5.52682V11.8397Z" fill="#424242"/>
<path d="M8.8735 11.8397H6.73657V13.9766H8.8735V11.8397Z" fill="#424242"/>
<path d="M12.2236 11.8397H10.0867V13.9766H12.2236V11.8397Z" fill="#424242"/>
<path d="M4.51089 4.6202C3.98487 4.6202 3.5542 4.18953 3.5542 3.66352V1.51015C3.5542 0.98414 3.98487 0.553467 4.51089 0.553467C5.0369 0.553467 5.46757 0.98414 5.46757 1.51015V3.66681C5.46757 4.18953 5.0369 4.6202 4.51089 4.6202Z" fill="#424242"/>
<path d="M13.5486 2.58521H12.4637V3.89037C12.4637 4.69583 11.816 5.35335 11.0237 5.35335H10.6423C9.85004 5.35335 9.20239 4.69583 9.20239 3.89037V2.58521H6.23042V3.89037C6.23042 4.69583 5.58276 5.35335 4.79046 5.35335H4.4091C3.61679 5.35335 2.96914 4.69583 2.96914 3.89037V2.58521H2.13738C1.24644 2.58521 0.516602 3.32491 0.516602 4.229V15.7355C0.516602 16.6396 1.24644 17.3793 2.13738 17.3793H13.5519C14.4428 17.3793 15.1726 16.6396 15.1726 15.7355V4.229C15.1693 3.32491 14.4395 2.58521 13.5486 2.58521ZM13.2724 14.1838C13.2724 14.746 12.8187 15.2062 12.2664 15.2062H3.42282C2.87051 15.2062 2.41682 14.746 2.41682 14.1838V8.3845C2.41682 7.82232 2.87051 7.32261 3.42282 7.32261H12.2664C12.8187 7.32261 13.2724 7.82232 13.2724 8.3845V14.1838Z" fill="#424242"/>
<path d="M10.8395 4.6202C10.3135 4.6202 9.88281 4.18953 9.88281 3.66352V1.51015C9.88281 0.98414 10.3135 0.553467 10.8395 0.553467C11.3655 0.553467 11.7962 0.98414 11.7962 1.51015V3.66681C11.7962 4.18953 11.3655 4.6202 10.8395 4.6202Z" fill="#424242"/>
</svg>
