<svg width="20" height="23" viewBox="0 0 20 23" fill="none" xmlns="http://www.w3.org/2000/svg">
<path d="M11.6177 10.6782H8.81836V13.4776H11.6177V10.6782Z" fill="#424242"/>
<path d="M16.0064 10.6782H13.207V13.4776H16.0064V10.6782Z" fill="#424242"/>
<path d="M7.23297 14.9336H4.43359V17.733H7.23297V14.9336Z" fill="#424242"/>
<path d="M11.6177 14.9336H8.81836V17.733H11.6177V14.9336Z" fill="#424242"/>
<path d="M16.0064 14.9336H13.207V17.733H16.0064V14.9336Z" fill="#424242"/>
<path d="M5.9017 5.47587C5.21262 5.47587 4.64844 4.91169 4.64844 4.22261V1.4017C4.64844 0.71262 5.21262 0.148438 5.9017 0.148438C6.59078 0.148438 7.15496 0.71262 7.15496 1.4017V4.22692C7.15496 4.91169 6.59078 5.47587 5.9017 5.47587Z" fill="#424242"/>
<path d="M17.7418 2.81006H16.3206V4.51983C16.3206 5.57498 15.4722 6.43633 14.4343 6.43633H13.9347C12.8967 6.43633 12.0483 5.57498 12.0483 4.51983V2.81006H8.15503V4.51983C8.15503 5.57498 7.3066 6.43633 6.26868 6.43633H5.7691C4.73117 6.43633 3.88275 5.57498 3.88275 4.51983V2.81006H2.79314C1.62602 2.81006 0.669922 3.77907 0.669922 4.96343V20.037C0.669922 21.2214 1.62602 22.1904 2.79314 22.1904H17.7461C18.9133 22.1904 19.8694 21.2214 19.8694 20.037V4.96343C19.8651 3.77907 18.909 2.81006 17.7418 2.81006ZM17.3801 18.0042C17.3801 18.7407 16.7857 19.3436 16.0622 19.3436H4.47708C3.75355 19.3436 3.15922 18.7407 3.15922 18.0042V10.4071C3.15922 9.67069 3.75355 9.01607 4.47708 9.01607H16.0622C16.7857 9.01607 17.3801 9.67069 17.3801 10.4071V18.0042Z" fill="#424242"/>
<path d="M14.1947 5.47587C13.5056 5.47587 12.9414 4.91169 12.9414 4.22261V1.4017C12.9414 0.71262 13.5056 0.148438 14.1947 0.148438C14.8837 0.148438 15.4479 0.71262 15.4479 1.4017V4.22692C15.4479 4.91169 14.8837 5.47587 14.1947 5.47587Z" fill="#424242"/>
</svg>
