<svg width="18" height="20" viewBox="0 0 18 20" fill="none" xmlns="http://www.w3.org/2000/svg">
<path d="M8.39272 0.734608L8.39272 18.4485C8.39272 18.7186 8.55873 18.9629 8.8125 19.0663C9.06696 19.1697 9.35951 19.1126 9.5541 18.9214L17.7185 10.9006C17.9845 10.6393 17.9845 10.2168 17.7185 9.95557C17.4524 9.69431 17.0224 9.69431 16.7564 9.95557L9.75344 16.8347L9.75344 0.735289C9.75344 0.365171 9.44864 0.066492 9.07308 0.066492C8.69752 0.066492 8.39272 0.365171 8.39272 0.734608Z" fill="white"/>
<path d="M0.231356 10.4269C0.231356 10.5977 0.298031 10.7691 0.430702 10.8998L5.87361 16.2474C6.13963 16.5087 6.56962 16.5087 6.83564 16.2474C7.10166 15.9862 7.10166 15.5637 6.83564 15.3024L1.39274 9.95474C1.12671 9.69348 0.696724 9.69348 0.430702 9.95474C0.298031 10.0847 0.231356 10.2561 0.231356 10.4269Z" fill="white"/>
</svg>
