<svg width="132" height="29" viewBox="0 0 132 29" fill="none" xmlns="http://www.w3.org/2000/svg">
<g clip-path="url(#clip0_299_1997)">
<mask id="mask0_299_1997" style="mask-type:luminance" maskUnits="userSpaceOnUse" x="-1" y="0" width="133" height="29">
<path d="M131.441 0H-0.00390625V28.4571H131.441V0Z" fill="white"/>
</mask>
<g mask="url(#mask0_299_1997)">
<path d="M124.477 23.0038C124.477 21.0866 126.038 19.5312 127.961 19.5312C129.884 19.5312 131.443 21.0866 131.443 23.0038C131.443 24.9209 129.884 26.4754 127.961 26.4754C126.038 26.4754 124.477 24.9209 124.477 23.0038Z" fill="#86BC24"/>
<path d="M13.367 13.8081C13.367 11.6086 12.9407 9.97678 12.0879 8.91365C11.234 7.8517 9.94081 7.32117 8.20171 7.32117H6.35207V20.7713H7.76738C9.69879 20.7713 11.1141 20.2004 12.0154 19.055C12.9155 17.9117 13.367 16.1623 13.367 13.8081ZM19.9639 13.5789C19.9639 17.586 18.8833 20.6738 16.7219 22.8411C14.5607 25.0094 11.5225 26.0935 7.60594 26.0935H-0.00390625V2.08223H8.1373C11.9134 2.08223 14.8288 3.06803 16.8832 5.0384C18.9367 7.00982 19.9639 9.85537 19.9639 13.5792M41.0434 26.0934H47.0987V1.98136H41.0434V26.0934ZM55.6056 17.0994C55.6056 18.6368 55.807 19.8094 56.2094 20.6151C56.6126 21.4221 57.2881 21.825 58.2374 21.825C59.1771 21.825 59.8413 21.4221 60.2284 20.6151C60.6155 19.8094 60.8081 18.6368 60.8081 17.0994C60.8081 15.5701 60.6125 14.4166 60.2206 13.638C59.8274 12.8571 59.157 12.4663 58.2063 12.4663C57.2768 12.4663 56.6126 12.8553 56.2094 13.6288C55.8073 14.4036 55.6056 15.56 55.6056 17.0994ZM66.9713 17.0994C66.9713 20.0284 66.2011 22.3134 64.6568 23.9511C63.1135 25.5899 60.9532 26.4099 58.176 26.4099C55.5128 26.4099 53.3927 25.5718 51.8192 23.8958C50.2437 22.2199 49.4564 19.955 49.4564 17.0996C49.4564 14.1795 50.2276 11.9106 51.7719 10.293C53.316 8.67522 55.4814 7.86648 58.2696 7.86648C59.9926 7.86648 61.5168 8.24127 62.8372 8.98982C64.1589 9.73822 65.179 10.8105 65.8958 12.2072C66.6137 13.6018 66.9713 15.2336 66.9713 17.0994ZM69.3762 26.0934H75.4325V8.183H69.3762V26.0934ZM69.3759 6.0165H75.4325V1.98047H69.3759V6.0165ZM87.7028 21.5252C88.5204 21.5252 89.4939 21.3181 90.63 20.9072V25.4137C89.8134 25.7714 89.0374 26.0276 88.2994 26.1793C87.5617 26.3331 86.6955 26.4094 85.7046 26.4094C83.6715 26.4094 82.2057 25.9001 81.3055 24.8831C80.4092 23.8664 79.9596 22.3049 79.9596 20.1979V12.8145H77.8388V8.18462H79.9596V3.61068L86.0627 2.55271V8.18448H89.9266V12.8146H86.0627V19.7858C86.0627 20.9454 86.6099 21.5252 87.7028 21.5252ZM101.719 21.5252C102.537 21.5252 103.511 21.3181 104.647 20.9072V25.4137C103.831 25.7714 103.054 26.0276 102.316 26.1793C101.577 26.3331 100.714 26.4094 99.7217 26.4094C97.6883 26.4094 96.2226 25.9001 95.3242 24.8831C94.4263 23.8664 93.9767 22.3049 93.9767 20.1979V12.8145H91.8546V8.18462H93.9767V3.54145L100.078 2.55271V8.18448H103.944V12.8146H100.078V19.7858C100.078 20.9454 100.626 21.5252 101.719 21.5252ZM112.289 14.9175C112.371 13.9369 112.653 13.2184 113.133 12.7593C113.614 12.3011 114.209 12.072 114.921 12.072C115.697 12.072 116.314 12.3292 116.772 12.8476C117.232 13.3631 117.472 14.0535 117.491 14.9175H112.289ZM120.829 9.97798C119.389 8.5714 117.347 7.86694 114.705 7.86694C111.928 7.86694 109.791 8.67581 108.293 10.2935C106.796 11.9112 106.047 14.2322 106.047 17.2568C106.047 20.1856 106.856 22.4444 108.471 24.0299C110.087 25.6155 112.356 26.4093 115.279 26.4093C116.682 26.4093 117.89 26.3139 118.902 26.124C119.908 25.9361 120.881 25.5964 121.826 25.1061L120.896 21.0698C120.209 21.3493 119.556 21.5642 118.939 21.7058C118.048 21.912 117.07 22.0153 116.005 22.0153C114.838 22.0153 113.917 21.7311 113.241 21.1624C112.566 20.5926 112.206 19.8068 112.165 18.8061H122.989V16.056C122.989 13.4104 122.27 11.3837 120.829 9.97798ZM28.0011 14.9175C28.0837 13.9369 28.3651 13.2184 28.8447 12.7593C29.3255 12.3011 29.9213 12.072 30.6343 12.072C31.4082 12.072 32.0252 12.3292 32.4839 12.8476C32.9445 13.3631 33.1835 14.0535 33.2047 14.9175H28.0011ZM36.5423 9.97798C35.1018 8.5714 33.0604 7.86694 30.4173 7.86694C27.6392 7.86694 25.5031 8.67581 24.006 10.2935C22.5091 11.9112 21.7592 14.2322 21.7592 17.2568C21.7592 20.1856 22.5676 22.4444 24.1846 24.0299C25.7994 25.6155 28.0687 26.4093 30.9911 26.4093C32.3943 26.4093 33.602 26.3139 34.6138 26.124C35.6201 25.9361 36.5938 25.5964 37.5394 25.1061L36.608 21.0698C35.9213 21.3493 35.2681 21.5642 34.6522 21.7058C33.7592 21.912 32.7825 22.0153 31.7178 22.0153C30.5514 22.0153 29.6291 21.7311 28.9537 21.1624C28.2771 20.5926 27.9185 19.8068 27.8772 18.8061H38.7018V16.056C38.7018 13.4104 37.982 11.3837 36.5423 9.97798Z" fill="#0F0B0B"/>
</g>
</g>
<defs>
<clipPath id="clip0_299_1997">
<rect width="131.445" height="28.4571" fill="white"/>
</clipPath>
</defs>
</svg>
