<svg width="30" height="30" viewBox="0 0 30 30" fill="none" xmlns="http://www.w3.org/2000/svg">
<path fill-rule="evenodd" clip-rule="evenodd" d="M5 0C2.23858 0 0 2.23858 0 5V25C0 27.7614 2.23858 30 5 30H25C27.7614 30 30 27.7614 30 25V5C30 2.23858 27.7614 0 25 0H5ZM10.2981 19.2959L12.8836 21.3322C13.7854 19.9167 14.5844 18.5824 15.2807 17.3293L17.5923 21.2104L20.212 19.4526C19.9723 19.1509 19.647 18.7622 19.2361 18.2865L17.1813 15.9369C18.848 15.6585 20.3148 15.3742 21.5819 15.0841L20.6744 11.934C19.8068 12.2705 18.8594 12.6766 17.832 13.1523C17.0786 13.512 16.5878 13.7382 16.3595 13.831C16.6677 11.5685 16.8218 10.0138 16.8218 9.16675H13.7739C13.7739 10.3618 13.9109 11.905 14.1849 13.7962C13.0091 13.0537 11.6736 12.3749 10.1782 11.76L9.16797 14.8231C9.47618 14.9391 10.1154 15.1189 11.0857 15.3626C12.4327 15.6991 13.2489 15.8905 13.5342 15.9369C13.4429 16.0298 13.2203 16.2502 12.8665 16.5983C11.9761 17.4569 11.1199 18.3561 10.2981 19.2959Z" fill="white"/>
</svg>
