<svg width="21" height="16" viewBox="0 0 21 16" fill="none" xmlns="http://www.w3.org/2000/svg">
<path fill-rule="evenodd" clip-rule="evenodd" d="M10.8854 13.1426C10.8854 12.8074 10.8227 12.4875 10.706 12.1901H13.1438C13.0315 12.4875 12.9688 12.8074 12.9688 13.1426C12.9688 14.72 14.3685 15.9998 16.0939 15.9998C17.8185 15.9998 19.2189 14.72 19.2189 13.1426C19.2189 11.5655 17.8186 10.2854 16.0939 10.2854H9.21877C8.76062 10.2854 8.38548 9.94236 8.38548 9.52344C8.38548 9.10464 8.76062 8.76166 9.21877 8.76166H16.3856C17.1395 8.76166 17.7893 8.35758 18.0851 7.77124C18.198 7.55031 20.3564 3.0511 20.3564 3.0511C20.4146 2.929 20.4688 2.8074 20.4688 2.66635C20.4688 2.24748 20.0936 1.90445 19.6354 1.90445H6.62685L6.27684 0.91793C6.11449 0.388108 5.66038 -0.000244141 5.05208 -0.000244141H1.51039C0.935476 -0.000244141 0.46875 0.426473 0.46875 0.952103C0.46875 1.47773 0.935476 1.90445 1.51039 1.90445H3.6979C4.0686 1.90445 4.38109 2.12546 4.48978 2.42643L6.24804 10.6433C5.2857 11.1273 4.63539 12.0682 4.63539 13.1425C4.63539 14.72 6.0352 15.9997 7.76044 15.9997C9.48527 15.9998 10.8854 14.72 10.8854 13.1426ZM8.80208 13.1426C8.80208 13.6682 8.33535 14.0949 7.76039 14.0949C7.18548 14.0949 6.71876 13.6682 6.71876 13.1426C6.71876 12.617 7.18548 12.1901 7.76039 12.1901C8.33535 12.1901 8.80208 12.617 8.80208 13.1426ZM17.1354 13.1426C17.1354 13.6682 16.6687 14.0949 16.0938 14.0949C15.5189 14.0949 15.052 13.6682 15.052 13.1426C15.052 12.617 15.5189 12.1901 16.0938 12.1901C16.6687 12.1901 17.1354 12.617 17.1354 13.1426Z" fill="#6167F8"/>
</svg>
