<svg width="26" height="26" viewBox="0 0 26 26" fill="none" xmlns="http://www.w3.org/2000/svg">
<g clip-path="url(#clip0_717_110)">
<path d="M1.08333 1.0835C0.485025 1.0835 0 1.56852 0 2.16683C0 2.76514 0.485025 3.25016 1.08333 3.25016H3.01091C3.16863 3.25016 3.32237 3.29979 3.45032 3.39202C3.57827 3.48425 3.67396 3.61441 3.72383 3.76404L7.29557 14.4813C7.45419 14.9571 7.47435 15.4695 7.3527 15.9561L7.05859 17.1346C6.62705 18.8608 7.97072 20.5835 9.75 20.5835H22.75C23.3483 20.5835 23.8333 20.0985 23.8333 19.5002C23.8333 18.9019 23.3483 18.4168 22.75 18.4168H9.75C9.32817 18.4168 9.05736 18.0707 9.15967 17.6615L9.38146 16.7756C9.41904 16.6255 9.50571 16.4923 9.62768 16.3971C9.74966 16.3019 9.89996 16.2502 10.0547 16.2502H21.6667C22.1331 16.2504 22.5474 15.9521 22.695 15.5096L25.5832 6.84294C25.8171 6.14117 25.2946 5.41649 24.5549 5.41683H7.10091C6.94318 5.41683 6.78945 5.3672 6.66149 5.27497C6.53353 5.18275 6.43783 5.0526 6.38795 4.90296L5.36165 1.82406C5.21403 1.38158 4.79978 1.08325 4.33333 1.0835H1.08333ZM8.66667 21.6668C7.47005 21.6668 6.5 22.6369 6.5 23.8335C6.5 25.0301 7.47005 26.0002 8.66667 26.0002C9.86328 26.0002 10.8333 25.0301 10.8333 23.8335C10.8333 22.6369 9.86328 21.6668 8.66667 21.6668ZM21.6667 21.6668C20.4701 21.6668 19.5 22.6369 19.5 23.8335C19.5 25.0301 20.4701 26.0002 21.6667 26.0002C22.8633 26.0002 23.8333 25.0301 23.8333 23.8335C23.8333 22.6369 22.8633 21.6668 21.6667 21.6668Z" fill="#424242"/>
</g>
<defs>
<clipPath id="clip0_717_110">
<rect width="26" height="26" fill="white"/>
</clipPath>
</defs>
</svg>
