<svg width="26" height="26" viewBox="0 0 26 26" fill="none" xmlns="http://www.w3.org/2000/svg">
<g clip-path="url(#clip0_717_138)">
<path fill-rule="evenodd" clip-rule="evenodd" d="M12.6039 0.0292969L20.8813 4.46758L17.5611 6.24771C17.5601 6.24822 17.5586 6.24898 17.5571 6.25L12.6039 8.90586L7.65075 6.25C7.64974 6.24898 7.64796 6.24848 7.64694 6.24771L4.32626 4.46758L12.6039 0.0292969ZM26 19.8196V3.19602H20.3438L21.907 4.03421H24.7299C24.9675 4.03421 25.1618 4.22814 25.1618 4.46763V18.548C25.1618 18.7875 24.9675 18.9815 24.7299 18.9815H1.27136C1.03243 18.9815 0.837941 18.7875 0.837941 18.548V4.46758C0.837941 4.22814 1.03243 4.03416 1.27136 4.03416H3.30098L4.86373 3.19596H0V19.8196H26V19.8196ZM18.2818 24.0067H7.719C8.46854 22.941 8.90195 21.8632 9.05684 20.6861H16.9437C17.0986 21.8632 17.532 22.941 18.2818 24.0067ZM20.9288 25.4219V25.9702H5.07173V25.4219C5.07173 25.1193 5.31756 24.8732 5.62042 24.8732H20.3806C20.6829 24.8732 20.9288 25.1193 20.9288 25.4219ZM7.87617 11.2045L12.0238 13.4285C12.2137 13.5302 12.4089 13.581 12.6039 13.581C12.7994 13.581 12.9944 13.5302 13.1845 13.4285L17.3322 11.2045V11.7779L13.4235 13.8739C12.8948 14.1573 12.3129 14.1573 11.7849 13.8739L7.87617 11.7779V11.2045ZM12.3989 9.7793L7.87617 7.35398V10.2209L12.4332 12.6647C12.5594 12.7322 12.6486 12.7322 12.7748 12.6647L17.3321 10.2212V7.35398L12.8086 9.77935C12.7447 9.81357 12.6742 9.83094 12.6039 9.83094C12.5334 9.83094 12.4628 9.81357 12.3989 9.7793ZM21.365 8.90357V5.19157L18.1987 6.88913V12.037C18.1987 12.1967 18.1111 12.3437 17.9703 12.4191L13.8329 14.6377C13.4362 14.8501 13.0205 14.9563 12.6039 14.9563C12.1879 14.9563 11.7718 14.8501 11.3752 14.6377L7.23805 12.4191C7.09698 12.3436 7.00934 12.1967 7.00934 12.037V6.88913L3.30098 4.90074H1.70452V18.1146H24.2955V4.90074H22.2316V8.90383L22.8079 9.23629C22.9418 9.31374 23.0246 9.45684 23.0246 9.61167V11.9179C23.0246 12.0726 22.9418 12.2157 22.8079 12.2931C22.7407 12.3319 22.6661 12.3511 22.5914 12.3511C22.516 12.3511 22.4411 12.3319 22.3747 12.2931L21.7982 11.9604L21.2219 12.2931C21.0882 12.3705 20.9229 12.3705 20.7884 12.2931C20.6548 12.2156 20.5717 12.0725 20.5717 11.9179V9.61167C20.5717 9.45684 20.6548 9.31368 20.7884 9.23629L21.365 8.90357ZM22.158 9.86187V11.1675L22.0149 11.0849C21.9477 11.0461 21.8731 11.0269 21.7982 11.0269C21.7236 11.0269 21.6487 11.0461 21.5815 11.0849L21.4386 11.1672V9.86187L21.7982 9.65412L22.158 9.86187Z" fill="#424242"/>
</g>
<defs>
<clipPath id="clip0_717_138">
<rect width="26" height="26" fill="white"/>
</clipPath>
</defs>
</svg>
