<svg width="30" height="30" viewBox="0 0 30 30" fill="none" xmlns="http://www.w3.org/2000/svg">
<path fill-rule="evenodd" clip-rule="evenodd" d="M5 0C2.23858 0 0 2.23858 0 5V25C0 27.7614 2.23858 30 5 30H25C27.7614 30 30 27.7614 30 25V5C30 2.23858 27.7614 0 25 0H5ZM8 22V7H23V22H8ZM21.6364 8.36364H9.36364V20.6364H21.6364V8.36364ZM12.0909 17.9091V11.0909H13.4545V17.9091H12.0909ZM14.8182 12.4545V11.0909H18.9091V12.4545H14.8182ZM14.8182 15.1818V13.8182H18.9091V15.1818H14.8182ZM14.8182 17.9091V16.5455H18.9091V17.9091H14.8182Z" fill="white"/>
</svg>
