<svg width="507" height="165" viewBox="0 0 507 165" fill="none" xmlns="http://www.w3.org/2000/svg">
<g clip-path="url(#clip0_1092_3803)">
<path fill-rule="evenodd" clip-rule="evenodd" d="M68.0748 55.8496C63.8791 50.287 57.2436 47.5084 48.1629 47.5084C39.2064 47.5084 31.2967 50.9182 24.4232 57.7446C19.0258 63.3018 15.0566 70.5028 12.4859 79.3444H72.0682C73.4903 69.1144 72.1576 61.2802 68.0748 55.8496ZM11.0281 86.5462C9.64763 97.2836 10.8676 105.755 14.6933 111.937C18.9133 118.763 26.0663 122.174 36.1598 122.174C39.9388 122.174 43.86 121.601 47.9004 120.462C51.9473 119.329 55.399 117.815 58.2617 115.92C58.3808 115.92 58.5775 116.229 58.8454 116.862C59.1129 117.499 59.434 118.191 59.8029 118.948C60.1727 119.705 60.4933 120.403 60.7613 121.035C61.0226 121.673 61.2258 121.982 61.3499 121.982C52.9176 126.907 43.9676 129.375 34.5105 129.375C21.2693 129.375 11.772 125.327 6.00469 117.243C0.244852 109.164 -1.3747 97.9151 1.1609 83.5172C3.4287 70.6282 8.92073 60.2068 17.6338 52.2476C26.3458 44.2889 36.9505 40.3125 49.4308 40.3125C62.9269 40.3125 72.1939 44.2291 77.2524 52.0571C82.5128 60.1417 83.8281 71.6418 81.2099 86.5462H11.0281Z" fill="url(#paint0_linear_1092_3803)"/>
<path fill-rule="evenodd" clip-rule="evenodd" d="M74.0742 127.5L75.3294 120.309H89.3757L108.461 10.9414L109.715 3.75H119.083L98.7387 120.309H111.849L110.593 127.5H74.0742Z" fill="url(#paint1_linear_1092_3803)"/>
<path fill-rule="evenodd" clip-rule="evenodd" d="M181.439 125.188C173.414 130.479 164.03 133.125 153.279 133.125C150.246 133.125 147.153 133.06 144.013 132.935C140.874 132.81 138.032 132.055 135.501 130.669C134.342 130.04 133.191 129.409 132.044 128.78C130.886 128.149 129.692 127.394 128.456 126.514C125.417 124.367 123.245 121.817 121.937 118.863C120.624 115.902 119.722 112.59 119.233 108.934C119.102 107.555 119.059 105.664 119.102 103.262C119.137 100.878 119.222 98.8273 119.334 97.1265C119.447 95.4266 119.525 94.4511 119.567 94.2015H135.506C135.178 99.6118 135.441 103.678 136.295 106.389C137.136 109.094 138.426 111.271 140.169 112.906C144.217 116.43 149.153 118.197 154.974 118.197C161.302 118.197 166.532 116.871 170.668 114.231C174.681 111.58 177.044 108.244 177.755 104.213C178.137 102.073 178.084 100.367 177.611 99.1127C177.14 97.8517 176.399 96.8411 175.397 96.0862C173.935 95.0818 171.713 94.2312 168.734 93.5361C165.756 92.846 161.798 92.1864 156.848 91.5495C146.426 90.4147 138.617 88.0301 133.453 84.3687C130.289 82.2283 128.223 79.4278 127.256 75.9616C126.289 72.4953 126.193 68.5659 126.976 64.1484C128.492 55.5808 133.37 48.7205 141.625 43.5543C149.41 38.8928 158.174 36.5625 167.91 36.5625C171.958 36.5625 175.845 37.0976 179.581 38.1677C183.312 39.2378 186.608 40.9736 189.48 43.3633L190.352 38.4533H206.291L200.064 73.6012H184.309C184.996 68.3101 185.056 64.4041 184.488 61.8829C183.921 59.3626 182.936 57.4123 181.546 56.0267C180.017 54.6361 177.94 53.5063 175.313 52.6211C172.686 51.7408 169.35 51.3003 165.302 51.3003C159.732 51.3003 155.07 52.6211 151.314 55.2669C147.834 57.7934 145.792 60.7482 145.195 64.1484C144.724 66.7942 145.369 68.8748 147.124 70.3846C148.102 71.271 149.792 72.0853 152.192 72.8464C154.586 73.6012 157.881 74.2914 162.066 74.9208C169.105 75.9319 175.044 77.1921 179.898 78.7026C184.757 80.2124 188.382 82.0435 190.786 84.1839C195.801 88.714 197.557 95.2653 196.04 103.833C194.483 112.655 189.611 119.772 181.439 125.188Z" fill="black"/>
<path fill-rule="evenodd" clip-rule="evenodd" d="M227.332 25.998L230.953 5.625H250.365L246.738 25.998H227.332ZM191.289 131.25L193.911 116.539H211.606L223.476 49.7653L225.433 38.8216H242.552L228.725 116.539H245.281L242.665 131.25H191.289Z" fill="black"/>
<path fill-rule="evenodd" clip-rule="evenodd" d="M313.774 59.6026C310.598 54.0636 304.66 51.2949 295.961 51.2949C288.019 51.2949 281.215 54.1292 275.551 59.7928C269.591 65.7171 265.749 73.586 264.011 83.4031C262.388 92.596 263.565 100.214 267.539 106.264C271.531 112.182 277.253 115.136 284.688 115.136C292.752 115.136 299.604 112.432 305.223 107.018C310.842 101.604 314.528 93.9148 316.281 83.9727C318.171 73.2708 317.343 65.1462 313.774 59.6026ZM351.591 53.1784H338.738L326.969 119.861C325.694 127.039 323.782 133.428 321.222 139.031C318.652 144.635 315.274 149.323 311.089 153.103C306.755 156.883 301.603 159.812 295.633 161.887C289.653 163.966 283.263 165 276.463 165C274.816 165 272.876 164.941 270.629 164.817C268.385 164.691 266.012 164.371 263.52 163.866C261.027 163.366 258.583 162.547 256.197 161.411C253.818 160.276 251.67 158.707 249.75 156.693L252.8 154.429C252.057 155.053 251.457 155.242 250.999 154.993C250.54 154.744 250.226 154.363 250.064 153.858L251.022 152.723C251.581 151.713 252.432 150.459 253.58 148.95C254.282 147.814 254.8 147.024 255.133 146.589C255.46 146.144 255.669 145.83 255.77 145.645C255.864 145.455 255.953 145.295 256.042 145.17C256.126 145.045 256.412 144.665 256.9 144.034L257.156 143.661C257.5 143.156 257.952 143.471 258.506 144.6H259.076C259.577 144.6 259.938 144.665 260.177 144.79L259.903 143.09C262.223 144.98 265.262 146.495 269.034 147.631C272.8 148.759 276.767 149.324 280.931 149.324C289.494 149.324 295.909 146.935 300.158 142.15C302.346 139.756 304.227 136.731 305.82 133.083C307.413 129.428 308.815 124.899 310.016 119.479C307.498 121.625 304.577 123.515 301.263 125.15C294.656 128.299 288.206 129.874 281.906 129.874C269.046 129.874 259.201 125.655 252.379 117.216C245.538 108.778 243.296 97.9495 245.627 84.7272C246.942 77.2989 249.023 70.656 251.891 64.8026C254.746 58.9426 258.511 53.8734 263.175 49.5896C272.519 40.9069 284.251 36.5625 298.374 36.5625C305.183 36.5625 311.163 38.0067 316.325 40.9069C317.579 41.656 318.758 42.4818 319.863 43.3613C320.967 44.2465 321.987 45.2452 322.921 46.3804L324.324 38.4471H361.947L351.591 53.1784Z" fill="black"/>
<path fill-rule="evenodd" clip-rule="evenodd" d="M402.337 131.25L404.263 120.278L412.306 74.5113C413.077 70.1029 413.366 66.4787 413.176 63.6407C412.982 60.808 412.381 58.696 411.375 57.3042C410.613 55.9174 409.237 54.7818 407.258 53.9011C405.279 53.02 402.464 52.5741 398.823 52.5741C394.558 52.5741 390.928 53.1751 387.964 54.3771C384.99 55.5722 382.429 57.3042 380.27 59.5767C378.058 62.1 376.131 65.2473 374.47 69.0254C372.798 72.8155 371.475 77.4743 370.491 83.0257L364.616 116.5H379.687L377.095 131.25H345.068L346.995 120.278L365.537 14.7505H350.466L353.059 0H385.075L377.105 45.3863C378.259 44.5118 379.381 43.7202 380.45 43.0243C381.508 42.3338 382.588 41.6738 383.709 41.0375C389.742 38.139 395.902 36.6876 402.188 36.6876C407.84 36.6876 412.665 37.4133 416.676 38.8657C420.699 40.3171 423.864 42.6791 426.181 45.958C428.489 49.2419 429.866 53.2102 430.299 57.8694C430.732 62.5335 430.427 67.8948 429.367 73.9457L421.894 116.5H436.024L433.419 131.25H402.337Z" fill="black"/>
<path fill-rule="evenodd" clip-rule="evenodd" d="M492.953 112.81C491.415 116.775 489.507 120.272 487.194 123.298C484.441 126.699 481.222 129.184 477.533 130.765C473.835 132.335 469.771 133.125 465.344 133.125C457.628 133.125 451.931 130.605 448.275 125.563C446.56 123.042 445.513 120.052 445.109 116.592C444.714 113.125 444.887 109.314 445.62 105.152L454.792 53.3748H438.84L441.461 38.6368H457.401L460.781 19.546L479.004 13.125L474.474 38.6368H505.413L495.03 53.3748H471.873L463.073 103.078C462.487 106.359 462.224 108.904 462.273 110.729C462.339 112.561 462.541 113.916 462.896 114.79C463.287 115.421 463.918 115.991 464.771 116.496C465.633 116.996 467.009 117.251 468.918 117.251C471.177 117.251 472.982 116.372 474.313 114.6C475.154 113.464 476.028 111.705 476.956 109.314C477.883 106.919 478.823 103.078 479.763 97.7866H496.832C495.764 103.833 494.466 108.845 492.953 112.81Z" fill="black"/>
<path fill-rule="evenodd" clip-rule="evenodd" d="M300.014 93.7497H278.494L282.288 72.1875H303.812L300.014 93.7497Z" fill="url(#paint2_linear_1092_3803)"/>
</g>
<defs>
<linearGradient id="paint0_linear_1092_3803" x1="0" y1="40.3125" x2="0" y2="129.375" gradientUnits="userSpaceOnUse">
<stop stop-color="#00C4FF"/>
<stop offset="1" stop-color="#0091FF"/>
</linearGradient>
<linearGradient id="paint1_linear_1092_3803" x1="74.0742" y1="3.75" x2="74.0742" y2="127.5" gradientUnits="userSpaceOnUse">
<stop stop-color="#00C4FF"/>
<stop offset="1" stop-color="#0091FF"/>
</linearGradient>
<linearGradient id="paint2_linear_1092_3803" x1="278.494" y1="72.1875" x2="278.494" y2="93.7497" gradientUnits="userSpaceOnUse">
<stop stop-color="#00C4FF"/>
<stop offset="1" stop-color="#0091FF"/>
</linearGradient>
<clipPath id="clip0_1092_3803">
<rect width="507" height="165" fill="white"/>
</clipPath>
</defs>
</svg>
