<svg width="109" height="110" viewBox="0 0 109 110" fill="none" xmlns="http://www.w3.org/2000/svg">
<path d="M19.7978 23.633L22.9699 30.19L30.1656 31.1693C31.592 31.3609 32.1029 33.1279 31.1236 34.0646L25.8652 39.1101L27.1639 46.2633C27.4193 47.6684 25.9291 48.7328 24.6943 48.0516L18.2863 44.6027L11.8783 48.0516C10.6435 48.7115 9.08944 47.6896 9.43006 46.1568L10.7074 39.0889L5.44901 34.0434C4.42713 33.0641 4.98065 31.3183 6.4283 31.1267L13.6027 30.1475L16.7748 23.5904C17.3709 22.3344 19.2017 22.3557 19.7978 23.633ZM20.3088 32.4893L18.2863 28.274L16.2426 32.4893C16.0084 32.9789 15.5187 33.3621 14.9439 33.4473L10.3242 34.0646L13.7092 37.3006C14.0924 37.6838 14.3053 38.2373 14.1988 38.8121L13.3685 43.4105L17.456 41.2178C17.9457 40.9623 18.5631 40.9197 19.074 41.2178L23.1828 43.4318L22.3738 38.9185C22.2461 38.365 22.3951 37.7476 22.8422 37.3006L26.2271 34.0646L21.65 33.4473C21.0965 33.3834 20.5642 33.0215 20.3088 32.4893ZM56.0318 8.19843L59.2039 14.7555L66.4209 15.7348C67.8473 15.9264 68.3582 17.6934 67.3789 18.6514L62.1205 23.6969L63.4191 30.85C63.6746 32.2551 62.1844 33.3195 60.9496 32.6383L54.499 29.1894L48.091 32.6383C46.8562 33.2982 45.3021 32.2764 45.6428 30.7435L46.9201 23.6756L41.6404 18.6301C40.6185 17.6508 41.1721 15.9051 42.6197 15.7135L49.7941 14.7342L52.9662 8.19843C53.6049 6.8998 55.4144 6.92109 56.0318 8.19843ZM56.5428 17.0547L54.499 12.8394L52.4765 17.0547C52.2424 17.5443 51.7527 17.9275 51.1779 18.0127L46.5369 18.6301L49.9219 21.866C50.3263 22.2492 50.518 22.8027 50.4115 23.3775L49.5812 27.976L53.69 25.7832C54.1797 25.5277 54.7758 25.4851 55.308 25.7832L59.4168 27.9973L58.6078 23.484C58.4801 22.9305 58.6291 22.3131 59.0762 21.866L62.4611 18.6301L57.884 17.9914C57.3092 17.9488 56.7982 17.5869 56.5428 17.0547ZM92.2445 23.633L95.4166 30.19L102.612 31.1693C104.039 31.3609 104.571 33.1279 103.57 34.0646L98.3119 39.1101L99.6105 46.2633C99.866 47.6684 98.3758 48.7328 97.141 48.0516L90.733 44.6027L84.325 48.0516C83.0902 48.7115 81.5361 47.6896 81.8555 46.1568L83.1328 39.0889L77.8744 34.0434C76.8525 33.0641 77.406 31.3183 78.8537 31.1267L86.0281 30.1475L89.2002 23.5904C89.8176 22.3344 91.6484 22.3557 92.2445 23.633ZM92.7555 32.4893L90.733 28.274L88.6892 32.4893C88.4551 32.9789 87.9867 33.3621 87.3906 33.4473L82.7709 34.0646L86.1346 37.3006C86.5178 37.6838 86.7306 38.2373 86.6242 38.8121L85.7939 43.4105L89.9027 41.2178C90.3924 40.9623 91.0098 40.9197 91.5207 41.2178L95.6508 43.4318L94.8418 38.9185C94.7141 38.365 94.8631 37.7476 95.3101 37.3006L98.6738 34.0646L94.0967 33.4473C93.5432 33.3834 93.0109 33.0215 92.7555 32.4893ZM46.6008 67.1053C46.1324 66.2963 46.4092 65.2531 47.2181 64.7848C48.0271 64.3164 49.0703 64.5932 49.5387 65.4021L51.774 69.2767L59.7148 61.3359C60.3748 60.676 61.4605 60.676 62.1205 61.3359C62.7805 61.9959 62.7805 63.0816 62.1205 63.7416L52.6043 73.2578C51.8166 74.0455 50.4967 73.8752 49.9431 72.9172L46.6008 67.1053ZM54.499 49.116C63.7597 49.116 71.2748 56.631 71.2748 65.8918C71.2748 75.1525 63.7597 82.6676 54.499 82.6676C45.2383 82.6676 37.7232 75.1525 37.7232 65.8918C37.7232 56.631 45.2383 49.116 54.499 49.116ZM63.9514 56.4394C58.7355 51.2236 50.2625 51.2236 45.0467 56.4394C39.8308 61.6553 39.8308 70.1283 45.0467 75.3441C50.2625 80.56 58.7355 80.56 63.9514 75.3441C69.1672 70.107 69.1672 61.6553 63.9514 56.4394ZM54.499 38.5779C69.5717 38.5779 81.7916 50.7978 81.7916 65.8705C81.7916 71.576 80.0459 76.8769 77.0441 81.2625L85.1978 95.3771C85.9855 96.6971 84.8998 98.1873 83.4947 97.9744L75.1494 96.6545L70.6787 102.147C69.891 103.169 68.4221 102.999 67.8473 101.977L62.1418 92.0986C57.1601 93.5463 51.8166 93.5463 46.8562 92.0986L41.1508 101.977C40.576 102.999 39.107 103.169 38.3193 102.147L33.8486 96.6545L25.5033 97.9744C24.0769 98.2086 23.0763 96.6545 23.7576 95.441L31.9539 81.2625C24.5453 70.4264 25.9291 55.8434 35.2111 46.5613C40.1289 41.6435 46.9627 38.5779 54.499 38.5779ZM74.7875 84.1365C72.1902 87.0318 68.9969 89.3523 65.3777 90.9277L69.5504 98.1447L73.1269 93.7592C73.5314 93.2482 74.1488 93.0566 74.7449 93.1631L80.493 94.0785L74.7875 84.1365ZM43.599 90.9277C40.0012 89.3523 36.8078 87.0318 34.2105 84.1578L28.4838 94.0785L34.2318 93.1631C34.8066 93.0566 35.4453 93.2695 35.8498 93.7592L39.4263 98.1447L43.599 90.9277ZM71.4025 48.9883C62.0779 39.6637 46.9414 39.6637 37.6168 48.9883C28.2922 58.3129 28.2922 73.4494 37.6168 82.774C46.9627 92.0986 62.0779 92.0986 71.4025 82.774C80.7271 73.4494 80.7271 58.3129 71.4025 48.9883Z" fill="white"/>
</svg>
