<svg width="26" height="26" viewBox="0 0 26 26" fill="none" xmlns="http://www.w3.org/2000/svg">
<g clip-path="url(#clip0_717_125)">
<path d="M7.33203 10.2778H11.4987V26.0001H7.33203V10.2778Z" fill="#424242"/>
<path d="M14.5 13.6108H18.6667V25.9997H14.5V13.6108Z" fill="#424242"/>
<path d="M21.666 7.72217H25.8327V25.9999H21.666V7.72217Z" fill="#424242"/>
<path d="M0.166016 16.2222H4.33268V25.9999H0.166016V16.2222Z" fill="#424242"/>
<path d="M23.6058 0C22.4407 0 21.4963 0.943833 21.4963 2.10811C21.4963 2.38061 21.5485 2.64078 21.6428 2.87983L17.577 6.34333C17.2787 6.18183 16.937 6.09011 16.5739 6.09011C15.9709 6.09011 15.4275 6.34328 15.043 6.74856L11.5333 5.31111C11.5335 5.2975 11.5343 5.284 11.5343 5.27028C11.5343 4.106 10.5898 3.16217 9.4247 3.16217C8.25959 3.16217 7.31515 4.106 7.31515 5.27028C7.31515 5.38811 7.32526 5.5035 7.34387 5.61606L3.69748 7.772C3.33843 7.48911 2.88554 7.31983 2.39281 7.31983C1.2277 7.31983 0.283203 8.26367 0.283203 9.42795C0.283203 10.5922 1.2277 11.5361 2.39281 11.5361C3.55793 11.5361 4.50237 10.5922 4.50237 9.42795C4.50237 9.31011 4.49226 9.19472 4.47365 9.08217L8.12004 6.92622C8.47909 7.20911 8.93198 7.37839 9.42476 7.37839C10.0277 7.37839 10.5711 7.12522 10.9556 6.71994L14.4654 8.15739C14.4651 8.171 14.4643 8.1845 14.4643 8.19817C14.4643 9.36244 15.4088 10.3063 16.5739 10.3063C17.739 10.3063 18.6835 9.36244 18.6835 8.19817C18.6835 7.95422 18.6415 7.72017 18.5653 7.50222L22.6759 4.00044C22.9565 4.13839 23.272 4.21622 23.6059 4.21622C24.771 4.21622 25.7155 3.27239 25.7155 2.10811C25.7155 0.943833 24.7709 0 23.6058 0Z" fill="#424242"/>
</g>
<defs>
<clipPath id="clip0_717_125">
<rect width="26" height="26" fill="white"/>
</clipPath>
</defs>
</svg>
