<svg width="51" height="51" viewBox="0 0 51 51" fill="none" xmlns="http://www.w3.org/2000/svg">
<mask id="mask0_99_212" style="mask-type:luminance" maskUnits="userSpaceOnUse" x="0" y="0" width="51" height="51">
<path d="M50.4688 0.0273438H0.46875V50.0273H50.4688V0.0273438Z" fill="white"/>
</mask>
<g mask="url(#mask0_99_212)">
<path d="M34.0487 1.06734L49.4288 16.4473V48.9873H16.7288L1.52875 33.7873V1.06734H34.0487ZM34.4688 0.0273438H0.46875V34.1873L16.3088 50.0273H50.4688V16.0273L34.4688 0.0273438Z" fill="#121212"/>
<path d="M8.58883 28.1875V30.0275H7.54883V25.0275H9.46883C9.92883 24.9875 10.3488 25.1475 10.7288 25.4475C11.3488 26.1075 11.3488 27.1075 10.7288 27.7875C10.3888 28.0875 9.92883 28.2475 9.46883 28.2075H8.58883V28.1875ZM8.58883 27.4075H9.34883C9.54883 27.4075 9.76883 27.3675 9.88883 27.2075C10.1288 26.8675 10.1288 26.3675 9.88883 26.0475C9.72883 25.9275 9.54883 25.8475 9.34883 25.8475H8.58883V27.4075ZM15.5489 30.0275L15.2089 28.9075H13.5088L13.1688 30.0275H12.0488L13.7888 25.0275H14.9889L16.6889 30.0275H15.5489ZM13.7288 28.1075H14.9889L14.3489 26.0275L13.7288 28.1075ZM18.2089 30.0275V25.0275H20.1289C20.5889 24.9875 21.0089 25.1475 21.3889 25.4475C21.6889 25.7475 21.8489 26.1475 21.8489 26.5675C21.8489 26.8675 21.7689 27.1075 21.5889 27.3675C21.4289 27.6075 21.1689 27.7875 20.9289 27.9075L22.1889 30.0675H21.0689L19.9889 28.1075H19.2689V30.0275H18.2089ZM19.2689 27.3275H20.0289C20.4089 27.3675 20.7289 27.1275 20.7689 26.7475C20.7689 26.6675 20.7689 26.6275 20.7689 26.5475C20.8089 26.1675 20.5689 25.8475 20.2289 25.8075C20.1889 25.8075 20.1089 25.8075 20.0689 25.8075H19.3089V27.3475H19.2689V27.3275ZM24.7089 30.0275V25.9075H23.1689V25.0275H27.2889V25.9075H25.7489V30.0275H24.7089ZM29.9289 26.5675V30.0275H28.9689V25.0275H30.1289L32.1689 28.5275V25.0275H33.1289V30.0275H31.9689L29.9289 26.5675ZM35.0489 30.0275V25.0275H38.3489V25.8675H36.1489V27.0275H37.9489V27.8675H36.1489V29.2075H38.3489V30.0475H35.0489V30.0275ZM40.2689 30.0275V25.0275H42.1889C42.6489 24.9875 43.0689 25.1475 43.4489 25.4475C43.7489 25.7475 43.9089 26.1475 43.9089 26.5675C43.9089 26.8675 43.8289 27.1075 43.6689 27.3675C43.5089 27.6075 43.2489 27.7875 43.0089 27.9075L44.2689 30.0675H43.1489L42.0689 28.1075H41.3689V30.0275H40.2689ZM41.3089 27.3275H42.0689C42.4489 27.3675 42.7689 27.1275 42.8089 26.7475C42.8089 26.6675 42.8089 26.6275 42.8089 26.5475C42.8489 26.1675 42.6089 25.8475 42.2689 25.8075C42.2289 25.8075 42.1489 25.8075 42.1089 25.8075H41.3089V27.3275Z" fill="#121212"/>
<path d="M11.5893 11.4887C11.5893 11.6487 11.5893 11.8287 11.6693 11.9887C11.7093 12.1087 11.7893 12.2887 11.8293 12.4087C11.8693 12.4487 11.8693 12.4887 11.8693 12.5287C11.8693 12.6087 11.8293 12.6487 11.7493 12.6887L11.3693 12.9287C11.3693 12.9287 11.3293 12.9287 11.2493 12.9287C11.1693 12.9287 11.1293 12.8887 11.0893 12.8487C11.0093 12.7687 10.9293 12.6887 10.8893 12.5887C10.8493 12.5087 10.7693 12.3887 10.7293 12.2487C10.3093 12.7487 9.7293 13.0487 9.0693 13.0487C8.6493 13.0887 8.2293 12.9287 7.9493 12.6287C7.6493 12.3287 7.5293 11.9687 7.5293 11.5487C7.5293 11.0887 7.6893 10.6687 8.0293 10.3887C8.4093 10.0887 8.9093 9.92868 9.4093 9.92868C9.6093 9.92868 9.8293 9.92868 9.9893 9.96868C10.1893 10.0087 10.4093 10.0487 10.6093 10.0887V9.66868C10.6493 9.32868 10.5693 9.00868 10.3493 8.74868C10.1093 8.54868 9.7693 8.44868 9.4293 8.50868C9.2293 8.50868 9.0093 8.54868 8.8093 8.58868C8.6093 8.62868 8.3893 8.70868 8.1893 8.78868C8.1093 8.82868 8.0693 8.82868 7.9893 8.86868C7.9493 8.86868 7.9493 8.86868 7.9093 8.86868C7.8293 8.86868 7.7893 8.82868 7.7893 8.70868V8.40868C7.7893 8.32868 7.7893 8.28868 7.8293 8.20868C7.8693 8.16868 7.9093 8.12868 7.9893 8.08868C8.1893 7.96868 8.4493 7.88868 8.6893 7.84868C8.9893 7.76868 9.2693 7.72868 9.5693 7.72868C10.1093 7.68868 10.6093 7.84868 11.0293 8.18868C11.3693 8.56868 11.5293 9.06868 11.4893 9.56868L11.5893 11.4887ZM9.3093 12.3287C9.5093 12.3287 9.6893 12.2887 9.8893 12.2487C10.0893 12.1687 10.2693 12.0487 10.4293 11.8687C10.5093 11.7887 10.5893 11.6687 10.6293 11.4887C10.6693 11.3287 10.6693 11.1487 10.6693 10.9887V10.7287C10.5093 10.6887 10.3293 10.6487 10.1693 10.6487C10.0093 10.6087 9.8293 10.6087 9.6293 10.6087C9.3293 10.5687 9.0493 10.6487 8.7893 10.8087C8.4493 11.1487 8.4093 11.6887 8.7093 12.0687C8.8893 12.2887 9.0893 12.3687 9.3093 12.3287ZM13.8493 12.9487C13.7693 12.9487 13.6893 12.9487 13.6493 12.9087C13.6093 12.8687 13.5693 12.7887 13.5293 12.7087L12.1893 8.32868C12.1493 8.24868 12.1493 8.16868 12.1493 8.12868C12.1493 8.04868 12.1893 8.00868 12.2293 8.00868H12.2693H12.8093C12.8893 8.00868 12.9693 8.00868 13.0093 8.04868C13.0493 8.08868 13.0893 8.16868 13.1293 8.24868L14.0893 11.9487L14.9693 8.22868C14.9693 8.14868 15.0093 8.06868 15.0893 8.02868C15.1693 7.98868 15.2493 7.98868 15.2893 7.98868H15.7493C15.8293 7.98868 15.9093 7.98868 15.9493 8.02868C15.9893 8.06868 16.0293 8.14868 16.0693 8.22868L16.9493 12.0287L17.9093 8.22868C17.9093 8.14868 17.9493 8.06868 18.0293 8.02868C18.1093 7.98868 18.1493 7.98868 18.2293 7.98868H18.7693C18.8493 7.98868 18.8893 8.02868 18.8893 8.06868V8.10868C18.8893 8.14868 18.8893 8.14868 18.8893 8.18868C18.8893 8.22868 18.8493 8.26868 18.8493 8.30868L17.5093 12.6487C17.5093 12.7287 17.4693 12.8087 17.3893 12.8487C17.3493 12.9287 17.2693 12.9287 17.1893 12.9287H16.6893C16.6093 12.9287 16.5293 12.9287 16.4893 12.8887C16.4493 12.8087 16.4093 12.7687 16.3693 12.6887L15.4893 9.06868L14.6093 12.6887C14.6093 12.7687 14.5693 12.8487 14.4893 12.8887C14.4493 12.9287 14.3693 12.9287 14.3293 12.9287H13.8493V12.9487ZM21.0893 13.1087C20.7893 13.1087 20.5093 13.0687 20.2093 13.0287C20.0093 12.9887 19.7493 12.9087 19.5493 12.8287C19.4293 12.7887 19.3493 12.6687 19.3493 12.4887V12.1887C19.3493 12.0687 19.3893 12.0287 19.4693 12.0287C19.5093 12.0287 19.5493 12.0287 19.5493 12.0287C19.5893 12.0287 19.6293 12.0687 19.6693 12.0687C19.8693 12.1487 20.0893 12.2287 20.2893 12.2687C20.4893 12.3087 20.7493 12.3487 20.9493 12.3487C21.2493 12.3487 21.5293 12.3087 21.7893 12.1487C21.9493 12.0287 22.0893 11.8087 22.0893 11.6087C22.0893 11.4487 22.0493 11.3087 21.9293 11.2287C21.7693 11.1087 21.5493 10.9887 21.3493 10.9287L20.5093 10.6887C20.1693 10.6087 19.8493 10.3887 19.5893 10.1087C19.4293 9.86868 19.2893 9.56868 19.2893 9.26868C19.2893 9.06868 19.3293 8.84868 19.4493 8.64868C19.5293 8.48868 19.6893 8.30868 19.8693 8.18868C20.0293 8.06868 20.2493 7.94868 20.4493 7.88868C20.6893 7.80868 20.9093 7.80868 21.1493 7.80868C21.2693 7.80868 21.4093 7.80868 21.5293 7.84868C21.6493 7.84868 21.7693 7.88868 21.9093 7.92868C22.0293 7.96868 22.1093 7.96868 22.2493 8.00868C22.3293 8.04868 22.4093 8.04868 22.4893 8.08868C22.5693 8.12868 22.6093 8.16868 22.6493 8.20868C22.6893 8.24868 22.6893 8.32868 22.6893 8.40868V8.66868C22.6893 8.78868 22.6493 8.82868 22.5693 8.82868C22.4893 8.82868 22.4093 8.78868 22.3693 8.74868C22.0293 8.58868 21.6693 8.54868 21.2893 8.54868C21.0493 8.54868 20.7893 8.58868 20.5293 8.70868C20.3893 8.82868 20.2693 9.02868 20.3093 9.22868C20.3093 9.38868 20.3493 9.52868 20.4693 9.64868C20.6293 9.80868 20.8493 9.88868 21.0893 9.94868L21.8893 10.1887C22.2293 10.2687 22.5093 10.4887 22.7693 10.7287C22.9293 10.9287 23.0093 11.2287 23.0093 11.5287C23.0093 11.7287 22.9693 11.9887 22.8493 12.1887C22.7693 12.3887 22.6093 12.5687 22.4293 12.6887C22.2693 12.8087 22.0093 12.9287 21.8093 13.0287C21.6293 13.0687 21.3493 13.1087 21.0893 13.1087Z" fill="#121212"/>
<path d="M22.1286 15.8267C20.2686 17.1867 17.5886 17.9067 15.2686 17.9067C12.1886 17.9067 9.18855 16.7867 6.88855 14.7067C6.72855 14.5467 6.88855 14.3267 7.08855 14.4667C9.62855 15.9467 12.5486 16.6867 15.4686 16.6867C17.6686 16.6867 19.8486 16.2267 21.8886 15.3867C22.1686 15.2667 22.4686 15.6067 22.1286 15.8267ZM22.4286 17.0667C22.3486 17.2267 22.5086 17.3067 22.6886 17.1867C23.6886 16.3467 23.9486 14.6067 23.7286 14.3467C23.5286 14.1067 21.7686 13.8867 20.7286 14.6467C20.5686 14.7667 20.6086 14.9467 20.7686 14.8867C21.3486 14.8067 22.6886 14.6467 22.9286 14.9667C23.1686 15.3267 22.6286 16.5267 22.4286 17.0667Z" fill="#121212"/>
<path d="M25.2484 33.288C25.0084 33.188 24.8484 33.088 24.7284 32.968C24.6284 32.848 24.5684 32.688 24.5684 32.508C24.5684 32.248 24.6684 32.048 24.8484 31.888C25.0284 31.728 25.2684 31.668 25.5884 31.668C25.8484 31.668 26.1084 31.708 26.3684 31.808V32.208C26.0884 32.128 25.8484 32.088 25.6284 32.088C25.2684 32.088 25.0684 32.208 25.0684 32.468C25.0684 32.568 25.1084 32.648 25.1684 32.708C25.2284 32.768 25.3484 32.828 25.5284 32.888L25.8884 33.008C26.1284 33.088 26.2884 33.208 26.3884 33.328C26.4884 33.448 26.5484 33.608 26.5484 33.788C26.5484 34.068 26.4484 34.288 26.2484 34.448C26.0484 34.608 25.7884 34.688 25.4484 34.688C25.3084 34.688 25.1484 34.668 25.0084 34.648C24.8684 34.608 24.7284 34.568 24.6284 34.528V34.128C24.7684 34.168 24.9084 34.208 25.0484 34.228C25.2084 34.248 25.3284 34.268 25.4484 34.268C25.6484 34.268 25.7884 34.228 25.8884 34.168C25.9884 34.088 26.0484 33.988 26.0484 33.868C26.0484 33.768 26.0084 33.688 25.9484 33.628C25.8884 33.568 25.7684 33.508 25.6084 33.448L25.2484 33.288Z" fill="#121212"/>
<path d="M27.3887 33.6667C27.3887 33.8867 27.4487 34.0267 27.5687 34.1267C27.6887 34.2267 27.8487 34.2667 28.0687 34.2667C28.2687 34.2667 28.5087 34.2267 28.7487 34.1467V34.4867C28.6487 34.5267 28.5487 34.5667 28.4087 34.6067C28.2687 34.6467 28.1487 34.6467 28.0087 34.6467C27.6687 34.6467 27.3887 34.5467 27.2087 34.3667C27.0287 34.1667 26.9287 33.9067 26.9287 33.5267C26.9287 33.1667 27.0087 32.8867 27.1887 32.6867C27.3687 32.4867 27.6087 32.3867 27.9287 32.3867C28.1887 32.3867 28.4087 32.4667 28.5487 32.6067C28.6887 32.7467 28.7687 32.9667 28.7687 33.2467C28.7687 33.3867 28.7487 33.5267 28.7287 33.6267H27.3887V33.6667ZM27.9287 32.7867C27.7887 32.7867 27.6487 32.8467 27.5687 32.9267C27.4687 33.0267 27.4287 33.1667 27.4087 33.3267H28.3687V33.2867C28.3687 33.1267 28.3287 32.9867 28.2487 32.9067C28.1687 32.8267 28.0687 32.7867 27.9287 32.7867Z" fill="#121212"/>
<path d="M30.0886 34.5873C29.9886 34.6273 29.8886 34.6473 29.7686 34.6473C29.6086 34.6473 29.4686 34.6073 29.3886 34.5073C29.3086 34.4073 29.2686 34.2673 29.2686 34.0873V31.5273H29.7686V34.0473C29.7686 34.1073 29.7886 34.1673 29.8086 34.1873C29.8286 34.2073 29.8686 34.2273 29.9486 34.2273C29.9886 34.2273 30.0486 34.2273 30.1086 34.2073V34.5873H30.0886Z" fill="#121212"/>
<path d="M30.8682 33.6667C30.8682 33.8867 30.9282 34.0267 31.0482 34.1267C31.1682 34.2267 31.3282 34.2667 31.5482 34.2667C31.7482 34.2667 31.9882 34.2267 32.2282 34.1467V34.4867C32.1282 34.5267 32.0282 34.5667 31.8882 34.6067C31.7482 34.6467 31.6282 34.6467 31.4882 34.6467C31.1482 34.6467 30.8682 34.5467 30.6882 34.3667C30.5082 34.1667 30.4082 33.9067 30.4082 33.5267C30.4082 33.1667 30.4882 32.8867 30.6682 32.6867C30.8482 32.4867 31.0882 32.3867 31.4082 32.3867C31.6682 32.3867 31.8882 32.4667 32.0282 32.6067C32.1682 32.7467 32.2482 32.9667 32.2482 33.2467C32.2482 33.3867 32.2282 33.5267 32.2082 33.6267H30.8682V33.6667ZM31.3882 32.7867C31.2482 32.7867 31.1082 32.8467 31.0282 32.9267C30.9282 33.0267 30.8682 33.1667 30.8682 33.3267H31.8282V33.2867C31.8282 33.1267 31.7882 32.9867 31.7082 32.9067C31.6482 32.8267 31.5482 32.7867 31.3882 32.7867Z" fill="#121212"/>
<path d="M34.2289 34.5268C34.0689 34.6068 33.8689 34.6668 33.6489 34.6668C33.3289 34.6668 33.0689 34.5668 32.8889 34.3868C32.7089 34.1868 32.6289 33.9268 32.6289 33.5868C32.6289 33.2268 32.7289 32.9468 32.9089 32.7668C33.0889 32.5668 33.3489 32.4668 33.6689 32.4668C33.8689 32.4668 34.0489 32.5068 34.2289 32.5868V32.9468C34.0489 32.8868 33.8889 32.8668 33.7489 32.8668C33.5489 32.8668 33.3889 32.9268 33.2889 33.0268C33.1889 33.1468 33.1489 33.3268 33.1489 33.5468V33.6068C33.1489 33.8468 33.2089 34.0068 33.2889 34.1268C33.3889 34.2268 33.5489 34.2868 33.7489 34.2868C33.8889 34.2868 34.0689 34.2668 34.2289 34.2068V34.5268Z" fill="#121212"/>
<path d="M35.9097 34.5682C35.7697 34.6282 35.6097 34.6482 35.4497 34.6482C35.2297 34.6482 35.0697 34.6082 34.9497 34.5082C34.8497 34.4082 34.7897 34.2482 34.7897 34.0282V32.8882H34.4297V32.5682L34.8097 32.5082L34.8897 31.9082H35.2897V32.4882H35.8897V32.8682H35.2897V33.9882C35.2897 34.0882 35.3097 34.1482 35.3497 34.1882C35.3897 34.2282 35.4697 34.2482 35.5897 34.2482C35.7097 34.2482 35.8097 34.2482 35.9097 34.2082V34.5682Z" fill="#121212"/>
<path d="M38.0494 34.607V32.127H37.1494V31.707H39.4694V32.127H38.5694V34.607H38.0494Z" fill="#121212"/>
<path d="M39.8491 34.6064V32.4864H40.3291V34.6064H39.8491ZM40.0891 32.1264C39.9891 32.1264 39.9291 32.1064 39.8691 32.0464C39.8091 31.9864 39.7891 31.9264 39.7891 31.8464C39.7891 31.7464 39.8091 31.6864 39.8691 31.6464C39.9291 31.5864 39.9891 31.5664 40.0891 31.5664C40.1891 31.5664 40.2491 31.5864 40.3091 31.6464C40.3691 31.6864 40.3891 31.7664 40.3891 31.8464C40.3891 31.9264 40.3691 32.0064 40.3091 32.0464C40.2491 32.1064 40.1891 32.1264 40.0891 32.1264Z" fill="#121212"/>
<path d="M41.2881 33.6667C41.2881 33.8867 41.3481 34.0267 41.4681 34.1267C41.5881 34.2267 41.7481 34.2667 41.9681 34.2667C42.1681 34.2667 42.4081 34.2267 42.6481 34.1467V34.4867C42.5481 34.5267 42.4481 34.5667 42.3081 34.6067C42.1681 34.6467 42.0481 34.6467 41.9081 34.6467C41.5681 34.6467 41.2881 34.5467 41.1081 34.3667C40.9281 34.1667 40.8281 33.9067 40.8281 33.5267C40.8281 33.1667 40.9081 32.8867 41.0881 32.6867C41.2681 32.4867 41.5081 32.3867 41.8281 32.3867C42.0881 32.3867 42.3081 32.4667 42.4481 32.6067C42.5881 32.7467 42.6681 32.9667 42.6681 33.2467C42.6681 33.3867 42.6481 33.5267 42.6281 33.6267H41.2881V33.6667ZM41.8281 32.7867C41.6881 32.7867 41.5481 32.8467 41.4681 32.9267C41.3681 33.0267 41.3281 33.1667 41.3081 33.3267H42.2681V33.2867C42.2681 33.1267 42.2281 32.9867 42.1481 32.9067C42.0681 32.8267 41.9681 32.7867 41.8281 32.7867Z" fill="#121212"/>
<path d="M43.168 34.6068V32.4868H43.568L43.628 32.8068C43.748 32.6868 43.848 32.6068 43.948 32.5468C44.048 32.4868 44.148 32.4668 44.268 32.4668C44.328 32.4668 44.368 32.4668 44.428 32.4868V32.9268C44.348 32.9068 44.268 32.9068 44.188 32.9068C43.988 32.9068 43.808 32.9668 43.648 33.0668V34.6068H43.168Z" fill="#121212"/>
<path d="M29.9486 37.4481C29.7086 37.3481 29.5486 37.2481 29.4286 37.1281C29.3286 37.0081 29.2686 36.8481 29.2686 36.6681C29.2686 36.4081 29.3686 36.2081 29.5486 36.0481C29.7286 35.8881 29.9686 35.8281 30.2886 35.8281C30.5486 35.8281 30.8086 35.8681 31.0686 35.9681V36.3681C30.7886 36.2881 30.5486 36.2481 30.3286 36.2481C29.9686 36.2481 29.7686 36.3681 29.7686 36.6281C29.7686 36.7281 29.8086 36.8081 29.8686 36.8681C29.9286 36.9281 30.0486 36.9881 30.2286 37.0481L30.5886 37.1681C30.8086 37.2481 30.9886 37.3681 31.0886 37.4881C31.1886 37.6081 31.2486 37.7681 31.2486 37.9481C31.2486 38.2281 31.1486 38.4481 30.9486 38.6081C30.7486 38.7681 30.4886 38.8481 30.1486 38.8481C30.0086 38.8481 29.8486 38.8281 29.7086 38.8081C29.5686 38.7681 29.4286 38.7281 29.3286 38.6881V38.2881C29.4686 38.3281 29.6086 38.3681 29.7486 38.3881C29.9086 38.4081 30.0286 38.4281 30.1486 38.4281C30.3486 38.4281 30.4886 38.3881 30.5886 38.3281C30.6886 38.2481 30.7486 38.1481 30.7486 38.0281C30.7486 37.9281 30.7086 37.8481 30.6486 37.7881C30.5886 37.7281 30.4686 37.6681 30.3086 37.6081L29.9486 37.4481Z" fill="#121212"/>
<path d="M32.1084 37.8269C32.1084 38.0469 32.1684 38.1869 32.2884 38.2869C32.4084 38.3869 32.5684 38.4269 32.7884 38.4269C32.9884 38.4269 33.2284 38.3869 33.4684 38.3069V38.6469C33.3684 38.6869 33.2684 38.7269 33.1284 38.7669C32.9884 38.8069 32.8684 38.8069 32.7284 38.8069C32.3884 38.8069 32.1084 38.7069 31.9284 38.5269C31.7484 38.3269 31.6484 38.0669 31.6484 37.6869C31.6484 37.3269 31.7284 37.0469 31.9084 36.8469C32.0884 36.6469 32.3284 36.5469 32.6484 36.5469C32.9084 36.5469 33.1284 36.6269 33.2684 36.7669C33.4084 36.9069 33.4884 37.1269 33.4884 37.4069C33.4884 37.5469 33.4684 37.6869 33.4484 37.7869H32.1084V37.8269ZM32.6284 36.9469C32.4884 36.9469 32.3484 36.9869 32.2684 37.0869C32.1684 37.1869 32.1284 37.3269 32.1084 37.4869H33.0684V37.4469C33.0684 37.2869 33.0284 37.1469 32.9484 37.0669C32.8684 37.0069 32.7684 36.9469 32.6284 36.9469Z" fill="#121212"/>
<path d="M33.9688 38.767V36.647H34.3887L34.4487 36.967C34.5687 36.847 34.6687 36.767 34.7687 36.707C34.8687 36.647 34.9687 36.627 35.0887 36.627C35.1487 36.627 35.1887 36.627 35.2487 36.647V37.087C35.1687 37.067 35.0887 37.067 35.0087 37.067C34.8087 37.067 34.6287 37.127 34.4687 37.227V38.767H33.9688Z" fill="#121212"/>
<path d="M36.1491 38.7665L35.3291 36.6465H35.8491L36.3891 38.3265L36.9291 36.6465H37.4291L36.6091 38.7665H36.1491Z" fill="#121212"/>
<path d="M37.769 38.768V36.648H38.249V38.768H37.769ZM38.009 36.308C37.909 36.308 37.849 36.288 37.789 36.228C37.729 36.168 37.709 36.108 37.709 36.028C37.709 35.928 37.729 35.868 37.789 35.828C37.849 35.768 37.909 35.748 38.009 35.748C38.109 35.748 38.169 35.768 38.229 35.828C38.289 35.868 38.309 35.948 38.309 36.028C38.309 36.108 38.289 36.188 38.229 36.228C38.189 36.288 38.109 36.308 38.009 36.308Z" fill="#121212"/>
<path d="M40.3686 38.687C40.2086 38.767 40.0086 38.827 39.7886 38.827C39.4686 38.827 39.2086 38.727 39.0286 38.547C38.8486 38.347 38.7686 38.087 38.7686 37.747C38.7686 37.387 38.8686 37.107 39.0486 36.927C39.2286 36.727 39.4886 36.627 39.8086 36.627C40.0086 36.627 40.1886 36.667 40.3686 36.747V37.107C40.1886 37.047 40.0286 37.027 39.8886 37.027C39.6886 37.027 39.5286 37.087 39.4286 37.187C39.3286 37.307 39.2886 37.487 39.2886 37.707V37.767C39.2886 38.007 39.3286 38.167 39.4286 38.287C39.5286 38.387 39.6886 38.447 39.8886 38.447C40.0286 38.447 40.2086 38.427 40.3686 38.367V38.687Z" fill="#121212"/>
<path d="M41.1485 37.8269C41.1485 38.0469 41.2085 38.1869 41.3285 38.2869C41.4485 38.3869 41.6085 38.4269 41.8285 38.4269C42.0285 38.4269 42.2685 38.3869 42.5085 38.3069V38.6469C42.4085 38.6869 42.3085 38.7269 42.1685 38.7669C42.0485 38.8069 41.9085 38.8069 41.7685 38.8069C41.4285 38.8069 41.1485 38.7069 40.9685 38.5269C40.7885 38.3269 40.6885 38.0669 40.6885 37.6869C40.6885 37.3269 40.7685 37.0469 40.9485 36.8469C41.1285 36.6469 41.3685 36.5469 41.6885 36.5469C41.9485 36.5469 42.1685 36.6269 42.3085 36.7669C42.4485 36.9069 42.5285 37.1269 42.5285 37.4069C42.5285 37.5469 42.5085 37.6869 42.4885 37.7869H41.1485V37.8269ZM41.6885 36.9469C41.5485 36.9469 41.4085 36.9869 41.3285 37.0869C41.2285 37.1869 41.1885 37.3269 41.1685 37.4869H42.1285V37.4469C42.1285 37.2869 42.0885 37.1469 42.0085 37.0669C41.9285 37.0069 41.8285 36.9469 41.6885 36.9469Z" fill="#121212"/>
<path d="M43.9885 38.2074C43.9885 38.1474 43.9685 38.0874 43.9285 38.0674C43.8885 38.0274 43.8085 37.9874 43.7085 37.9474L43.3685 37.8074C43.0485 37.6874 42.9085 37.4874 42.9085 37.2274C42.9085 37.0274 42.9885 36.8874 43.1285 36.7674C43.2685 36.6474 43.4685 36.6074 43.7085 36.6074C43.9485 36.6074 44.1485 36.6474 44.3285 36.7474V37.0874C44.1085 37.0274 43.9085 36.9874 43.7285 36.9874C43.6085 36.9874 43.5085 37.0074 43.4485 37.0474C43.3885 37.0874 43.3485 37.1474 43.3485 37.2274C43.3485 37.2874 43.3685 37.3474 43.4085 37.3674C43.4485 37.4074 43.5285 37.4474 43.6285 37.4874L43.9485 37.6074C44.1085 37.6674 44.2285 37.7474 44.3085 37.8474C44.3885 37.9274 44.4285 38.0474 44.4285 38.1874C44.4285 38.3874 44.3485 38.5674 44.2085 38.6874C44.0685 38.8074 43.8485 38.8674 43.5885 38.8674C43.4485 38.8674 43.3285 38.8474 43.2085 38.8274C43.0885 38.8074 42.9685 38.7674 42.8885 38.7074V38.3674C43.1485 38.4474 43.3885 38.5074 43.5885 38.5074C43.7285 38.5074 43.8285 38.4874 43.8885 38.4474C43.9685 38.3674 43.9885 38.2874 43.9885 38.2074Z" fill="#121212"/>
</g>
</svg>
