<svg width="128" height="47" viewBox="0 0 128 47" fill="none" xmlns="http://www.w3.org/2000/svg">
<g clip-path="url(#clip0_99_110)">
<path d="M57.2061 15.3137V8.58398H58.2806V15.3137H57.2061Z" fill="#0054A6"/>
<path d="M59.583 15.3141V10.4271H60.5637V11.3847L60.4446 11.2582C60.5537 10.9662 60.7591 10.7194 61.0274 10.5578C61.3091 10.3948 61.6308 10.312 61.9569 10.3187C62.2938 10.3121 62.6265 10.3931 62.9221 10.5536C63.1969 10.7063 63.4238 10.9314 63.5777 11.204C63.7394 11.4972 63.8208 11.8274 63.8138 12.1615V15.3141H62.7967V12.4325C62.8028 12.2162 62.7562 12.0017 62.6608 11.8071C62.574 11.6399 62.4392 11.5018 62.2735 11.4104C62.0982 11.3182 61.9028 11.27 61.7044 11.27C61.5059 11.27 61.3105 11.3182 61.1352 11.4104C60.969 11.5031 60.8344 11.643 60.7486 11.812C60.6528 12.0065 60.606 12.221 60.612 12.4374V15.3141H59.583Z" fill="#0054A6"/>
<path d="M67.0507 15.3699C66.8311 15.3833 66.6111 15.3517 66.4043 15.2771C66.1975 15.2025 66.0084 15.0865 65.8487 14.9363C65.6992 14.7715 65.5844 14.5787 65.5109 14.3693C65.4374 14.1599 65.4068 13.9381 65.4207 13.7168V11.3501H64.5557V10.4287H64.6923C64.7907 10.4347 64.8894 10.42 64.9818 10.3858C65.0742 10.3516 65.1584 10.2985 65.2288 10.23C65.2951 10.1566 65.3462 10.0709 65.3791 9.97793C65.4121 9.88493 65.4262 9.78641 65.4207 9.68799V9.30859H66.449V10.4287H67.5698V11.3501H66.449V13.6716C66.4447 13.8191 66.4729 13.9656 66.5317 14.1011C66.586 14.2184 66.6789 14.3139 66.795 14.3721C66.9431 14.4404 67.1054 14.4728 67.2686 14.4666C67.3183 14.4666 67.3729 14.4666 67.4332 14.4575C67.4934 14.4485 67.5522 14.4457 67.6062 14.4395V15.3157C67.5207 15.3282 67.4276 15.3393 67.326 15.3518C67.2347 15.3631 67.1427 15.3691 67.0507 15.3699Z" fill="#0054A6"/>
<path d="M70.8292 15.4225C70.3707 15.431 69.9186 15.3139 69.5228 15.0841C69.1478 14.8628 68.8407 14.5443 68.6346 14.1627C68.4191 13.7611 68.3095 13.312 68.3159 12.8571C68.3069 12.4 68.4182 11.9486 68.6389 11.5472C68.8452 11.1777 69.145 10.8678 69.5088 10.6481C69.8826 10.426 70.3116 10.3119 70.7472 10.3187C71.0878 10.3129 71.4258 10.3775 71.7398 10.5084C72.0202 10.6276 72.2719 10.8045 72.4781 11.0275C72.6779 11.248 72.8339 11.504 72.9376 11.7821C73.0442 12.0715 73.0981 12.3773 73.0966 12.6854C73.0966 12.764 73.0966 12.8446 73.0875 12.9293C73.0817 13.0085 73.0696 13.087 73.0511 13.1642H69.1285V12.3512H72.4704L71.9801 12.7216C72.0421 12.458 72.0196 12.1817 71.9156 11.9315C71.8223 11.7073 71.6641 11.5156 71.461 11.3805C71.2489 11.2423 70.9995 11.1713 70.7458 11.1769C70.487 11.1713 70.2324 11.2427 70.0149 11.3821C69.7974 11.5214 69.627 11.7222 69.5256 11.9586C69.4045 12.2451 69.3576 12.557 69.389 12.8661C69.3525 13.1625 69.401 13.4631 69.5291 13.7333C69.6457 13.9722 69.829 14.1729 70.0573 14.3114C70.2917 14.4523 70.5615 14.5246 70.8355 14.5199C71.1029 14.528 71.3669 14.459 71.5955 14.3211C71.8014 14.1929 71.972 14.016 72.0921 13.8062L72.9327 14.2127C72.8298 14.4492 72.6761 14.6605 72.4823 14.8319C72.2694 15.0209 72.0221 15.168 71.7538 15.2655C71.4576 15.3726 71.1444 15.4258 70.8292 15.4225Z" fill="#0054A6"/>
<path d="M74.0977 15.3142V10.4272H75.0783V11.4118L74.9872 11.2673C75.0714 10.9802 75.2598 10.7341 75.5161 10.5766C75.7825 10.4287 76.0844 10.3552 76.3896 10.364H76.6894V11.2944H76.2621C76.1105 11.288 75.9593 11.3122 75.8175 11.3658C75.6758 11.4193 75.5465 11.5009 75.4376 11.6057C75.3278 11.7256 75.2433 11.8662 75.1894 12.0191C75.1355 12.172 75.1132 12.3342 75.1238 12.4958V15.3142H74.0977Z" fill="#0054A6"/>
<path d="M77.3945 15.3141V10.4271H78.3752V11.3847L78.2561 11.2582C78.365 10.9661 78.5704 10.7192 78.8389 10.5578C79.1204 10.3947 79.4418 10.312 79.7677 10.3187C80.1046 10.3122 80.4373 10.3932 80.7329 10.5536C81.0077 10.7063 81.2346 10.9314 81.3886 11.204C81.5504 11.4972 81.6321 11.8273 81.6253 12.1615V15.3141H80.6083V12.4325C80.6147 12.2162 80.568 12.0016 80.4724 11.8071C80.3856 11.64 80.2511 11.502 80.0857 11.4104C79.9104 11.3182 79.715 11.27 79.5166 11.27C79.3182 11.27 79.1228 11.3182 78.9475 11.4104C78.7807 11.5027 78.6457 11.6426 78.5601 11.812C78.4641 12.0064 78.4172 12.221 78.4235 12.4374V15.3141H77.3945Z" fill="#0054A6"/>
<path d="M84.2054 15.4226C83.9031 15.429 83.603 15.3687 83.327 15.2461C83.0897 15.1411 82.8864 14.9727 82.7401 14.7597C82.5967 14.5411 82.5234 14.2845 82.5299 14.0238C82.5223 13.7693 82.5864 13.5178 82.7151 13.2975C82.8438 13.0773 83.032 12.8971 83.2584 12.7772C83.5497 12.6187 83.8678 12.5146 84.197 12.4701L85.9089 12.1921V12.9961L84.3966 13.2581C84.1754 13.2833 83.9666 13.3727 83.7963 13.5152C83.7329 13.5767 83.683 13.6507 83.65 13.7324C83.6169 13.8141 83.6014 13.9018 83.6044 13.9898C83.6022 14.077 83.6204 14.1636 83.6576 14.2426C83.6948 14.3217 83.75 14.3912 83.8188 14.4456C83.9752 14.5677 84.1705 14.6303 84.3693 14.6221C84.6256 14.6278 84.8788 14.5654 85.1027 14.4414C85.3073 14.3275 85.4767 14.1606 85.593 13.9585C85.7096 13.7531 85.7696 13.5209 85.7667 13.2852V12.0261C85.7696 11.9137 85.7469 11.8021 85.7004 11.6996C85.6538 11.5971 85.5845 11.5064 85.4978 11.434C85.2961 11.273 85.0418 11.1912 84.7833 11.204C84.5283 11.1986 84.2781 11.273 84.0681 11.4167C83.8689 11.5527 83.7127 11.7421 83.6177 11.9628L82.7618 11.5383C82.8555 11.2929 83.0084 11.0741 83.2073 10.9011C83.4193 10.7146 83.6648 10.5692 83.9308 10.4724C84.2122 10.3693 84.51 10.3172 84.8099 10.3188C85.1667 10.312 85.5203 10.3861 85.8438 10.5356C86.1291 10.667 86.3718 10.875 86.5443 11.136C86.7137 11.4019 86.8007 11.7115 86.7943 12.0261V15.3142H85.8137V14.4289L86.0238 14.456C85.9097 14.6532 85.7599 14.8277 85.5818 14.9709C85.3998 15.1169 85.1932 15.23 84.9717 15.3051C84.7248 15.3869 84.4657 15.4266 84.2054 15.4226Z" fill="#0054A6"/>
<path d="M90.0333 15.3699C89.8138 15.3832 89.5939 15.3515 89.3872 15.2769C89.1805 15.2023 88.9916 15.0864 88.832 14.9363C88.6825 14.7715 88.5677 14.5787 88.4942 14.3693C88.4207 14.1599 88.39 13.9381 88.404 13.7168V11.3501H87.5361V10.4287H87.6727C87.7713 10.4347 87.87 10.4201 87.9626 10.3858C88.0551 10.3516 88.1394 10.2985 88.21 10.23C88.3431 10.0813 88.4118 9.88657 88.4012 9.68799V9.30859H89.4302V10.4287H90.5509V11.3501H89.4302V13.6716C89.426 13.819 89.4539 13.9655 89.5121 14.1011C89.5666 14.2185 89.6597 14.3141 89.7762 14.3721C89.9242 14.4405 90.0865 14.4729 90.2497 14.4666C90.298 14.4666 90.3527 14.4666 90.4136 14.4575C90.4746 14.4485 90.532 14.4457 90.5859 14.4395V15.3157C90.5012 15.3282 90.4073 15.3393 90.3058 15.3518C90.2153 15.3629 90.1244 15.3689 90.0333 15.3699Z" fill="#0054A6"/>
<path d="M91.5898 9.76026V8.58594H92.6195V9.76026H91.5898ZM91.5898 15.3157V10.4287H92.6195V15.3157H91.5898Z" fill="#0054A6"/>
<path d="M96.1977 15.4241C95.8578 15.4296 95.5202 15.3672 95.2051 15.2406C94.8899 15.1141 94.6036 14.926 94.3632 14.6875C94.1228 14.449 93.9332 14.165 93.8057 13.8524C93.6781 13.5398 93.6152 13.2049 93.6207 12.8677C93.611 12.4181 93.7245 11.9743 93.9492 11.5837C94.1738 11.193 94.5011 10.8702 94.8962 10.6497C95.2964 10.4336 95.7448 10.3203 96.2005 10.3203C96.6562 10.3203 97.1046 10.4336 97.5047 10.6497C97.886 10.8657 98.2033 11.1772 98.4252 11.553C98.6494 11.9563 98.7666 12.4096 98.7656 12.8702C98.7646 13.3308 98.6455 13.7835 98.4195 14.1859C98.1961 14.5643 97.876 14.8776 97.4914 15.094C97.0971 15.3153 96.6507 15.4292 96.1977 15.4241ZM96.1977 14.4756C96.4692 14.4798 96.7364 14.4075 96.9682 14.2672C97.1949 14.1272 97.3791 13.9288 97.5012 13.6932C97.6348 13.4383 97.7022 13.1543 97.6974 12.867C97.7026 12.581 97.6351 12.2983 97.5012 12.045C97.3778 11.8116 97.1938 11.6152 96.9682 11.4759C96.7345 11.3402 96.4685 11.2687 96.1977 11.2687C95.9269 11.2687 95.6609 11.3402 95.4272 11.4759C95.1997 11.6142 95.0141 11.8108 94.8899 12.045C94.7564 12.2984 94.6889 12.5811 94.6938 12.867C94.6893 13.1543 94.7567 13.4381 94.8899 13.6932C95.0129 13.9295 95.1987 14.128 95.4272 14.2672C95.6592 14.4071 95.9262 14.4793 96.1977 14.4756Z" fill="#0054A6"/>
<path d="M99.7686 15.3141V10.4272H100.749V11.3847L100.635 11.2582C100.744 10.966 100.949 10.719 101.218 10.5578C101.499 10.3946 101.821 10.3119 102.147 10.3188C102.483 10.3121 102.816 10.393 103.111 10.5536C103.386 10.7061 103.613 10.9312 103.767 11.204C103.929 11.4972 104.011 11.8273 104.004 12.1615V15.3141H102.984V12.4325C102.99 12.2159 102.942 12.0011 102.844 11.8072C102.758 11.6398 102.623 11.5016 102.458 11.4104C102.282 11.3182 102.087 11.27 101.889 11.27C101.69 11.27 101.495 11.3182 101.319 11.4104C101.153 11.503 101.018 11.6428 100.933 11.812C100.836 12.0062 100.788 12.2208 100.793 12.4374V15.3141H99.7686Z" fill="#0054A6"/>
<path d="M106.578 15.4226C106.276 15.4288 105.976 15.3686 105.7 15.2461C105.463 15.1411 105.259 14.9727 105.113 14.7597C104.969 14.5412 104.896 14.2846 104.903 14.0238C104.895 13.7692 104.96 13.5176 105.088 13.2974C105.217 13.0771 105.406 12.8969 105.632 12.7772C105.923 12.6186 106.241 12.5145 106.57 12.4701L108.282 12.1921V12.9961L106.77 13.2581C106.549 13.2832 106.339 13.3726 106.169 13.5152C106.106 13.5769 106.056 13.6509 106.023 13.7326C105.99 13.8143 105.975 13.9019 105.978 13.9897C105.976 14.0769 105.994 14.1635 106.031 14.2426C106.068 14.3217 106.123 14.3912 106.192 14.4456C106.348 14.5678 106.544 14.6304 106.743 14.6221C106.999 14.6276 107.253 14.5652 107.476 14.4414C107.679 14.3266 107.848 14.1598 107.963 13.9585C108.079 13.7529 108.139 13.5207 108.136 13.2852V12.0261C108.139 11.9137 108.116 11.8022 108.07 11.6997C108.023 11.5972 107.954 11.5064 107.867 11.434C107.666 11.273 107.411 11.1911 107.153 11.204C106.898 11.1985 106.648 11.2729 106.438 11.4167C106.238 11.5523 106.082 11.7419 105.987 11.9628L105.131 11.5383C105.225 11.2929 105.378 11.0741 105.578 10.9011C105.789 10.7144 106.035 10.569 106.301 10.4723C106.582 10.3692 106.88 10.3172 107.179 10.3188C107.536 10.312 107.89 10.3862 108.213 10.5356C108.499 10.6671 108.741 10.875 108.914 11.1359C109.084 11.4017 109.171 11.7113 109.165 12.0261V15.3142H108.184V14.4289L108.394 14.456C108.28 14.6531 108.131 14.8277 107.953 14.9709C107.771 15.1168 107.564 15.2299 107.343 15.3051C107.096 15.3867 106.838 15.4264 106.578 15.4226Z" fill="#0054A6"/>
<path d="M110.371 15.3147V8.47656H111.399V15.3147H110.371Z" fill="#0054A6"/>
<path d="M60.5031 26.5411C60.0332 26.5452 59.5671 26.4561 59.1323 26.2792C58.7179 26.1091 58.3408 25.8606 58.0221 25.5475C57.7021 25.2329 57.4485 24.8583 57.2761 24.4454C57.0936 24.0074 57.0021 23.5373 57.0071 23.0633C57.0021 22.5869 57.0935 22.1143 57.2761 21.6736C57.4455 21.2616 57.6969 20.8877 58.0152 20.5742C58.3336 20.2607 58.7123 20.014 59.1288 19.8489C60.0144 19.5061 60.9975 19.5061 61.883 19.8489C62.2994 20.0158 62.6778 20.2637 62.9961 20.5779C63.3144 20.8921 63.5661 21.2663 63.7365 21.6785C63.9157 22.1173 64.0055 22.5871 64.0005 23.0606C64.0056 23.5345 63.9141 24.0046 63.7316 24.4427C63.5594 24.8547 63.3074 25.2291 62.9898 25.5447C62.6718 25.859 62.2942 26.1077 61.8788 26.2764C61.4425 26.4541 60.9748 26.5441 60.5031 26.5411ZM60.5031 25.5683C60.836 25.5721 61.1661 25.5075 61.4726 25.3786C61.7626 25.2558 62.0247 25.0762 62.2431 24.8505C62.4641 24.6212 62.6374 24.3508 62.753 24.0549C62.8764 23.7398 62.9382 23.4042 62.9351 23.0661C62.9385 22.7294 62.8767 22.3951 62.753 22.0815C62.6356 21.7868 62.4625 21.517 62.2431 21.2866C62.0256 21.0586 61.7634 20.8772 61.4726 20.7536C60.8512 20.5007 60.1544 20.5007 59.533 20.7536C59.2422 20.8773 58.98 21.0587 58.7625 21.2866C58.5434 21.5164 58.3716 21.7864 58.2567 22.0815C58.1361 22.3958 58.076 22.7298 58.0795 23.0661C58.0762 23.4038 58.1363 23.7391 58.2567 24.0549C58.3698 24.3511 58.5418 24.6217 58.7625 24.8505C58.9817 25.0768 59.2451 25.2565 59.5365 25.3786C59.8424 25.5059 60.1714 25.5695 60.5031 25.5656V25.5683Z" fill="#0054A6"/>
<path d="M65.1007 26.4333V21.5464H66.0813V22.531L65.9903 22.3864C66.0744 22.0993 66.2628 21.8532 66.5191 21.6957C66.7855 21.5479 67.0874 21.4744 67.3926 21.4831H67.6931V22.4135H67.2651C67.1136 22.4071 66.9623 22.4314 66.8205 22.4849C66.6788 22.5384 66.5495 22.6201 66.4407 22.7248C66.3309 22.8448 66.2466 22.9854 66.1927 23.1383C66.1388 23.2912 66.1164 23.4533 66.1269 23.615V26.4333H65.1007Z" fill="#0054A6"/>
<path d="M70.7743 28.4201C70.4357 28.4234 70.0993 28.3652 69.7818 28.2485C69.4922 28.1423 69.2263 27.9814 68.9987 27.7746C68.7835 27.5777 68.6159 27.3352 68.5083 27.0651L69.4547 26.6767C69.5445 26.912 69.7092 27.1118 69.924 27.2458C70.175 27.403 70.4678 27.4817 70.7645 27.4716C71.0065 27.4757 71.2461 27.4246 71.465 27.3222C71.6668 27.2271 71.837 27.0766 71.9553 26.8886C72.081 26.6836 72.1443 26.4469 72.1374 26.207V25.1049L72.3196 25.3134C72.1606 25.6151 71.9152 25.8634 71.6142 26.027C71.302 26.1925 70.9525 26.2764 70.5985 26.2709C70.1676 26.277 69.7429 26.1678 69.3692 25.9547C69.0088 25.748 68.7116 25.4483 68.509 25.0875C68.2966 24.7095 68.1879 24.2828 68.1938 23.85C68.1862 23.417 68.295 22.9898 68.509 22.6124C68.716 22.2481 69.0189 21.9463 69.3853 21.7395C69.7517 21.5326 70.1679 21.4285 70.5894 21.4381C70.9399 21.4321 71.2862 21.5143 71.596 21.6771C71.8944 21.8418 72.144 22.0814 72.3196 22.372L72.1837 22.6249V21.5458H73.1573V26.207C73.1648 26.6017 73.0615 26.9907 72.8589 27.3305C72.6563 27.6703 72.3623 27.9475 72.0099 28.131C71.6292 28.3291 71.2042 28.4286 70.7743 28.4201ZM70.7197 25.3217C70.9762 25.3264 71.2287 25.2589 71.4482 25.1271C71.66 24.9993 71.8343 24.8187 71.9539 24.6032C72.0769 24.3729 72.1409 24.116 72.1402 23.8554C72.1395 23.5947 72.074 23.3382 71.9497 23.1086C71.8274 22.8922 71.6517 22.7102 71.4391 22.5798C71.2223 22.4497 70.973 22.3825 70.7197 22.3859C70.4576 22.3818 70.1994 22.4489 69.973 22.5798C69.7577 22.7065 69.5801 22.8875 69.4582 23.1044C69.3362 23.3349 69.2725 23.5914 69.2725 23.8517C69.2725 24.1121 69.3362 24.3685 69.4582 24.5991C69.5786 24.818 69.7565 25.0004 69.973 25.1271C70.1992 25.2587 70.4576 25.3265 70.7197 25.3217Z" fill="#0054A6"/>
<path d="M75.838 26.5417C75.5354 26.5481 75.2352 26.4879 74.9589 26.3652C74.7216 26.2602 74.5184 26.0918 74.372 25.8788C74.2289 25.6601 74.1556 25.4036 74.1618 25.143C74.1543 24.8886 74.2184 24.6372 74.3469 24.417C74.4755 24.1967 74.6634 24.0165 74.8896 23.8964C75.1809 23.7379 75.4991 23.6338 75.8282 23.5892L77.5394 23.3113V24.1153L76.0279 24.3772C75.8066 24.4023 75.5977 24.4918 75.4276 24.6343C75.3642 24.6959 75.3144 24.7699 75.2814 24.8516C75.2483 24.9333 75.2328 25.0209 75.2356 25.1089C75.2336 25.1962 75.2519 25.2828 75.2892 25.3619C75.3265 25.4409 75.3818 25.5104 75.4507 25.5647C75.607 25.687 75.8023 25.7496 76.0012 25.7412C76.2573 25.7469 76.5103 25.6845 76.7339 25.5606C76.9372 25.4462 77.1054 25.2793 77.2207 25.0776C77.3373 24.8723 77.3973 24.64 77.3945 24.4043V23.1452C77.3972 23.0329 77.3744 22.9213 77.3279 22.8189C77.2813 22.7164 77.2121 22.6256 77.1255 22.5532C76.924 22.3918 76.6696 22.3099 76.411 22.3232C76.156 22.3175 75.9057 22.392 75.6958 22.5358C75.4968 22.6721 75.3406 22.8614 75.2454 23.082L74.3888 22.6574C74.4835 22.4123 74.6369 22.1936 74.8357 22.0202C75.0476 21.8336 75.2931 21.6881 75.5592 21.5915C75.8406 21.4884 76.1384 21.4364 76.4383 21.4379C76.7949 21.431 77.1483 21.5052 77.4715 21.6547C77.7565 21.7866 77.999 21.9945 78.172 22.2551C78.3414 22.5211 78.4284 22.8306 78.422 23.1452V26.4333H77.4414V25.5481L77.6515 25.5752C77.5374 25.7723 77.3876 25.9469 77.2095 26.0901C77.0276 26.2362 76.821 26.3493 76.5994 26.4243C76.3541 26.5056 76.0967 26.5453 75.838 26.5417Z" fill="#0054A6"/>
<path d="M79.6261 26.4333V21.5463H80.6067V22.5038L80.4883 22.3773C80.597 22.0851 80.8025 21.8381 81.0711 21.6769C81.3526 21.5138 81.674 21.431 81.9999 21.4379C82.3366 21.4312 82.6692 21.5122 82.9645 21.6728C83.2396 21.8253 83.4668 22.0504 83.6208 22.3232C83.7827 22.6163 83.8643 22.9465 83.8576 23.2807V26.4333H82.8433V23.5517C82.8487 23.335 82.8006 23.1203 82.7032 22.9263C82.6169 22.7591 82.4826 22.621 82.3172 22.5295C82.1419 22.4374 81.9465 22.3892 81.7481 22.3892C81.5497 22.3892 81.3543 22.4374 81.179 22.5295C81.0122 22.6219 80.8772 22.7618 80.7916 22.9312C80.6961 23.1257 80.6495 23.3403 80.6557 23.5565V26.4333H79.6261Z" fill="#0054A6"/>
<path d="M84.962 20.8735V19.6992H85.991V20.8735H84.962ZM84.962 26.4325V21.5455H85.991V26.4325H84.962Z" fill="#0054A6"/>
<path d="M86.7462 26.4319V25.5918L89.6419 22.114L89.8058 22.4663H86.8821V21.5449H90.7164V22.3788L87.8571 25.8656L87.6932 25.5043H90.7255V26.4319H86.7462Z" fill="#0054A6"/>
<path d="M92.9569 26.5417C92.6543 26.548 92.3541 26.4878 92.0778 26.3652C91.8404 26.2601 91.6369 26.0917 91.4901 25.8788C91.3471 25.6601 91.2738 25.4036 91.28 25.1429C91.2723 24.8884 91.3365 24.6368 91.4654 24.4165C91.5942 24.1962 91.7826 24.0161 92.0092 23.8964C92.3 23.7378 92.6176 23.6337 92.9464 23.5892L94.659 23.3113V24.1152L93.1474 24.3772C92.9258 24.4025 92.7165 24.4919 92.5457 24.6343C92.4826 24.696 92.4331 24.7701 92.4003 24.8518C92.3675 24.9335 92.3521 25.021 92.3552 25.1089C92.3526 25.1958 92.3702 25.2821 92.4067 25.3611C92.4431 25.4402 92.4974 25.5098 92.5653 25.5647C92.7219 25.687 92.9175 25.7497 93.1166 25.7412C93.3727 25.7469 93.6257 25.6845 93.8493 25.5606C94.0536 25.4464 94.2231 25.2795 94.3396 25.0776C94.456 24.8722 94.5157 24.6399 94.5126 24.4043V23.1452C94.5155 23.0329 94.4929 22.9214 94.4464 22.8189C94.4 22.7164 94.3309 22.6256 94.2444 22.5532C94.0422 22.3921 93.7875 22.3102 93.5285 22.3232C93.2739 22.3176 93.0241 22.3921 92.8147 22.5358C92.6151 22.6718 92.4584 22.8612 92.3629 23.082L91.5077 22.6574C91.6019 22.4122 91.755 22.1934 91.9538 22.0202C92.1659 21.8334 92.4117 21.688 92.6781 21.5915C92.959 21.4884 93.2563 21.4364 93.5558 21.4379C93.9126 21.4311 94.2662 21.5053 94.5897 21.6547C94.8749 21.7863 95.1175 21.9943 95.2901 22.2551C95.4596 22.5211 95.5466 22.8306 95.5402 23.1452V26.4333H94.5596V25.5481L94.7697 25.5752C94.6561 25.7724 94.5064 25.947 94.3284 26.09C94.1463 26.236 93.9398 26.3492 93.7183 26.4243C93.473 26.5055 93.2156 26.5452 92.9569 26.5417Z" fill="#0054A6"/>
<path d="M98.7843 26.4871C98.5648 26.5004 98.3449 26.4688 98.1382 26.3942C97.9316 26.3196 97.7426 26.2036 97.583 26.0535C97.4334 25.8887 97.3185 25.696 97.2449 25.4866C97.1713 25.2772 97.1405 25.0553 97.1544 24.834V22.4673H96.2921V21.5459H96.4322C96.5306 21.5518 96.6293 21.5372 96.7217 21.5029C96.8141 21.4687 96.8983 21.4156 96.9687 21.3472C97.1021 21.1986 97.1709 21.0038 97.16 20.8052V20.4258H98.1833V21.5459H99.3041V22.4673H98.1833V24.7888C98.1791 24.9362 98.2071 25.0826 98.2653 25.2183C98.3197 25.3357 98.4129 25.4313 98.5294 25.4893C98.6774 25.5576 98.8397 25.59 99.0029 25.5838C99.0519 25.5838 99.1065 25.5803 99.1668 25.5747C99.227 25.5692 99.2859 25.5629 99.3398 25.5567V26.4329C99.2543 26.4454 99.1612 26.4565 99.0596 26.469C98.9683 26.4803 98.8764 26.4863 98.7843 26.4871Z" fill="#0054A6"/>
<path d="M100.342 20.8735V19.6992H101.371V20.8735H100.342ZM100.342 26.4325V21.5455H101.371V26.4325H100.342Z" fill="#0054A6"/>
<path d="M104.949 26.5413C104.609 26.5465 104.271 26.484 103.956 26.3574C103.641 26.2308 103.355 26.0427 103.115 25.8042C102.874 25.5658 102.685 25.2819 102.557 24.9694C102.43 24.6568 102.367 24.3221 102.372 23.9849C102.363 23.5354 102.476 23.0917 102.701 22.7012C102.925 22.3107 103.253 21.9878 103.647 21.7669C104.048 21.5507 104.496 21.4375 104.952 21.4375C105.407 21.4375 105.856 21.5507 106.256 21.7669C106.637 21.9827 106.954 22.2942 107.176 22.6702C107.4 23.0733 107.518 23.5266 107.517 23.9873C107.516 24.4479 107.397 24.9008 107.171 25.3031C106.947 25.6815 106.627 25.9948 106.243 26.2112C105.848 26.4325 105.402 26.5464 104.949 26.5413ZM104.949 25.5928C105.222 25.5975 105.49 25.5252 105.723 25.3843C105.949 25.2441 106.134 25.0458 106.256 24.8104C106.389 24.5553 106.456 24.2714 106.452 23.9842C106.457 23.6982 106.389 23.4156 106.256 23.1622C106.132 22.929 105.948 22.7325 105.723 22.5931C105.489 22.4574 105.223 22.3859 104.952 22.3859C104.681 22.3859 104.416 22.4574 104.182 22.5931C103.954 22.7314 103.769 22.928 103.645 23.1622C103.511 23.4155 103.443 23.6982 103.448 23.9842C103.444 24.2715 103.511 24.5554 103.645 24.8104C103.767 25.0468 103.953 25.2453 104.182 25.3843C104.413 25.5237 104.678 25.5959 104.949 25.5928Z" fill="#0054A6"/>
<path d="M108.519 26.4333V21.5463H109.499V22.5038L109.38 22.3773C109.489 22.0853 109.695 21.8385 109.963 21.6769C110.244 21.5139 110.566 21.4312 110.892 21.4379C111.229 21.4312 111.562 21.5122 111.857 21.6727C112.132 21.8254 112.359 22.0505 112.513 22.3231C112.675 22.6164 112.757 22.9465 112.75 23.2807V26.4333H111.73V23.5517C111.736 23.3353 111.689 23.1207 111.593 22.9263C111.507 22.7591 111.372 22.621 111.207 22.5295C111.032 22.4373 110.836 22.3891 110.638 22.3891C110.439 22.3891 110.244 22.4373 110.069 22.5295C109.902 22.6216 109.767 22.7616 109.681 22.9311C109.585 23.1255 109.538 23.3402 109.545 23.5565V26.4333H108.519Z" fill="#0054A6"/>
<path d="M116.003 26.4324V22.4668H115.093V21.5454H116.003V21.2904C115.992 20.967 116.071 20.6468 116.231 20.3649C116.38 20.1165 116.599 19.917 116.862 19.7909C117.153 19.654 117.472 19.586 117.795 19.5922C117.871 19.5925 117.947 19.5971 118.022 19.6061C118.093 19.6125 118.163 19.623 118.232 19.6374V20.5261C118.179 20.5131 118.124 20.5057 118.069 20.5038C118.007 20.5038 117.959 20.499 117.923 20.499C117.69 20.4872 117.459 20.5525 117.267 20.6845C117.18 20.7592 117.112 20.8535 117.069 20.9595C117.026 21.0655 117.01 21.1802 117.021 21.2939V21.5468H118.151V22.4682H117.025V26.4324H116.003Z" fill="#0054A6"/>
<path d="M121.304 26.5409C120.855 26.5461 120.412 26.4336 120.02 26.2147C119.628 25.9959 119.301 25.6784 119.073 25.2943C118.897 25.003 118.781 24.6799 118.733 24.3438C118.685 24.0078 118.704 23.6655 118.791 23.337C118.877 23.0086 119.029 22.7005 119.237 22.4308C119.445 22.1612 119.705 21.9353 120.001 21.7665C120.402 21.5506 120.85 21.4375 121.306 21.4375C121.762 21.4375 122.21 21.5506 122.611 21.7665C122.992 21.9821 123.309 22.2937 123.53 22.6698C123.755 23.0728 123.873 23.5261 123.872 23.9868C123.871 24.4475 123.752 24.9003 123.526 25.3027C123.302 25.681 122.982 25.9942 122.597 26.2108C122.203 26.4321 121.757 26.546 121.304 26.5409ZM121.304 25.5924C121.576 25.5966 121.843 25.5243 122.075 25.384C122.302 25.2442 122.486 25.0458 122.608 24.81C122.741 24.5549 122.808 24.271 122.803 23.9838C122.808 23.6979 122.741 23.4153 122.608 23.1618C122.485 22.9283 122.301 22.7318 122.075 22.5927C121.841 22.4571 121.575 22.3857 121.304 22.3857C121.033 22.3857 120.768 22.4571 120.534 22.5927C120.307 22.731 120.122 22.9277 119.998 23.1618C119.864 23.4149 119.796 23.6977 119.801 23.9838C119.796 24.2712 119.864 24.5552 119.998 24.81C120.12 25.0463 120.306 25.2449 120.534 25.384C120.766 25.5237 121.033 25.5959 121.304 25.5924Z" fill="#0054A6"/>
<path d="M124.87 26.4333V21.5463H125.851V22.5309L125.759 22.3864C125.843 22.0995 126.031 21.8535 126.287 21.6957C126.554 21.548 126.856 21.4745 127.161 21.4831H127.463V22.4135H127.042C126.89 22.407 126.739 22.4312 126.597 22.4848C126.456 22.5383 126.327 22.62 126.218 22.7248C126.108 22.8446 126.023 22.9852 125.969 23.1381C125.915 23.2911 125.893 23.4532 125.903 23.6149V26.4333H124.87Z" fill="#0054A6"/>
<path d="M59.5834 37.6579C59.1763 37.6615 58.773 37.58 58.3996 37.4189C58.0471 37.2675 57.7307 37.0443 57.4708 36.7636C57.2163 36.4878 57.0239 36.1614 56.9062 35.8061L57.8169 35.4267C57.9559 35.8097 58.2065 36.143 58.5369 36.3842C58.856 36.6082 59.2388 36.7253 59.6296 36.7185C59.8475 36.723 60.0642 36.6848 60.2671 36.6059C60.4347 36.5401 60.5804 36.4289 60.6873 36.2849C60.7877 36.1453 60.8402 35.9775 60.8372 35.8061C60.8484 35.5905 60.7728 35.3793 60.6271 35.219C60.453 35.0548 60.2401 34.9367 60.0079 34.8757L58.7331 34.4782C58.2817 34.3581 57.8762 34.1084 57.5675 33.7604C57.3019 33.4419 57.1598 33.0397 57.1668 32.6264C57.1586 32.2736 57.2561 31.9264 57.447 31.6286C57.64 31.3382 57.909 31.1055 58.2252 30.9553C58.579 30.7876 58.9673 30.7041 59.3593 30.7114C59.7403 30.7064 60.1184 30.7788 60.4702 30.924C60.7967 31.0563 61.0924 31.2538 61.3388 31.5042C61.5766 31.7472 61.7558 32.0407 61.8627 32.3624L60.9675 32.755C60.8553 32.424 60.6391 32.1375 60.3507 31.9374C60.0622 31.7373 59.7167 31.6342 59.3649 31.6432C59.1618 31.6389 58.9601 31.6773 58.773 31.7558C58.6118 31.8241 58.4741 31.9373 58.3765 32.0816C58.2814 32.2281 58.2326 32.3994 58.2364 32.5736C58.2343 32.7851 58.3089 32.9903 58.4466 33.1517C58.6158 33.3389 58.8379 33.4711 59.084 33.5311L60.2678 33.9015C60.7317 34.0193 61.1539 34.2616 61.488 34.6019C61.7645 34.9145 61.9109 35.3196 61.8977 35.7352C61.9038 36.0887 61.8003 36.4355 61.6014 36.7289C61.3967 37.0248 61.1152 37.2606 60.7868 37.4113C60.4097 37.5828 59.9982 37.6672 59.5834 37.6579Z" fill="#0054A6"/>
<path d="M65.1288 37.6043C64.9092 37.6176 64.6892 37.586 64.4824 37.5114C64.2756 37.4368 64.0865 37.3208 63.9268 37.1707C63.7774 37.0058 63.6625 36.8131 63.589 36.6037C63.5156 36.3943 63.4849 36.1725 63.4989 35.9512V33.5845H62.6338V32.6631H62.7704C62.8689 32.6693 62.9676 32.6549 63.0601 32.6206C63.1525 32.5864 63.2367 32.5331 63.3069 32.4644C63.3732 32.3909 63.4243 32.3053 63.4572 32.2123C63.4902 32.1193 63.5043 32.0208 63.4989 31.9224V31.543H64.5278V32.6631H65.6486V33.5845H64.5278V35.906C64.5236 36.0533 64.5516 36.1998 64.6098 36.3354C64.664 36.4531 64.7572 36.5487 64.8739 36.6064C65.0219 36.6748 65.1842 36.7072 65.3474 36.7009C65.395 36.7009 65.4503 36.6975 65.5106 36.6919C65.5708 36.6864 65.629 36.6801 65.6843 36.6738V37.5501C65.5988 37.5626 65.505 37.5737 65.4041 37.5862C65.3128 37.5974 65.2209 37.6034 65.1288 37.6043Z" fill="#0054A6"/>
<path d="M68.1154 37.6589C67.8129 37.6647 67.5129 37.604 67.237 37.481C66.9998 37.3757 66.7967 37.2073 66.65 36.9946C66.5066 36.776 66.4333 36.5195 66.4399 36.2587C66.436 36.0096 66.4973 35.7637 66.6178 35.5451C66.749 35.3211 66.9394 35.1368 67.1683 35.0122C67.4595 34.8534 67.7777 34.7493 68.107 34.705L69.8182 34.4271V35.231L68.3066 35.493C68.0851 35.5181 67.876 35.6075 67.7056 35.7501C67.6423 35.8118 67.5927 35.8858 67.5598 35.9675C67.5269 36.0492 67.5114 36.1368 67.5144 36.2247C67.512 36.3119 67.5301 36.3984 67.5672 36.4775C67.6042 36.5566 67.6593 36.6261 67.728 36.6805C67.8847 36.8026 68.0802 36.8652 68.2793 36.857C68.5354 36.8627 68.7883 36.8003 69.0119 36.6764C69.2164 36.5624 69.3859 36.3955 69.5023 36.1934C69.6184 35.9879 69.678 35.7557 69.6753 35.5201V34.2624C69.6782 34.15 69.6555 34.0384 69.6089 33.9359C69.5623 33.8334 69.4931 33.7427 69.4063 33.6704C69.2049 33.5094 68.9509 33.4276 68.6925 33.4404C68.4373 33.4349 68.1868 33.5093 67.9767 33.653C67.7774 33.7891 67.6212 33.9785 67.5263 34.1992L66.6703 33.7746C66.7645 33.5293 66.9177 33.3106 67.1165 33.1374C67.3283 32.9506 67.5738 32.8051 67.8401 32.7087C68.1214 32.6055 68.4192 32.5534 68.7192 32.5551C69.0757 32.5483 69.4291 32.6225 69.7523 32.7719C70.0377 32.9033 70.2803 33.1113 70.4528 33.3723C70.6225 33.6382 70.7097 33.9477 70.7036 34.2624V37.5505H69.7229V36.6652L69.9331 36.6923C69.8189 36.8895 69.6691 37.0641 69.4911 37.2072C69.309 37.3532 69.1025 37.4663 68.881 37.5415C68.6343 37.6232 68.3754 37.6629 68.1154 37.6589Z" fill="#0054A6"/>
<path d="M71.9033 37.5504V32.6635H72.884V33.621L72.7656 33.4945C72.8742 33.2023 73.0797 32.9553 73.3484 32.7941C73.6299 32.6311 73.9513 32.5484 74.2772 32.5551C74.6141 32.5484 74.9469 32.6294 75.2424 32.7899C75.5173 32.9423 75.7441 33.1675 75.8973 33.4403C76.0596 33.7334 76.1412 34.0636 76.1341 34.3978V37.5504H75.1149V34.6688C75.1211 34.4525 75.0743 34.2379 74.9783 34.0435C74.8913 33.8763 74.7566 33.7383 74.591 33.6467C74.4157 33.5545 74.2203 33.5063 74.0219 33.5063C73.8235 33.5063 73.6281 33.5545 73.4527 33.6467C73.2864 33.7396 73.1516 33.8794 73.0654 34.0483C72.9705 34.2431 72.924 34.4575 72.9295 34.6737V37.5504H71.9033Z" fill="#0054A6"/>
<path d="M79.5169 37.6575C79.0698 37.6644 78.6297 37.5472 78.2462 37.3191C77.8757 37.0957 77.571 36.7793 77.363 36.4019C77.1441 36.0031 77.0327 35.5551 77.0393 35.1011C77.0327 34.6465 77.146 34.1981 77.3679 33.8003C77.5769 33.4251 77.8811 33.1106 78.2504 32.8879C78.6301 32.6629 79.0655 32.5471 79.5078 32.5537C79.8706 32.5468 80.2297 32.6274 80.5543 32.7886C80.8489 32.9369 81.0975 33.1617 81.2736 33.439L81.1195 33.6738V30.7109H82.1429V37.5491H81.1623V36.5554L81.2813 36.7451C81.1129 37.0389 80.8586 37.2751 80.5522 37.4226C80.2304 37.5805 79.8758 37.6609 79.5169 37.6575ZM79.617 36.709C79.8885 36.7128 80.1556 36.6405 80.3876 36.5005C80.616 36.3614 80.8018 36.1629 80.9248 35.9266C81.058 35.6715 81.1254 35.3876 81.1209 35.1004C81.1258 34.8144 81.0584 34.5318 80.9248 34.2784C80.8006 34.0442 80.615 33.8476 80.3876 33.7093C80.1557 33.569 79.8886 33.4967 79.617 33.5008C79.3445 33.4973 79.0764 33.5695 78.843 33.7093C78.6141 33.8459 78.4279 34.0429 78.3051 34.2784C78.1746 34.5328 78.1092 34.815 78.1146 35.1004C78.1096 35.387 78.1749 35.6706 78.3051 35.9266C78.4258 36.1634 78.6106 36.3621 78.8388 36.5005C79.0733 36.6412 79.343 36.7135 79.617 36.709Z" fill="#0054A6"/>
<path d="M84.8158 37.6589C84.5134 37.6653 84.2134 37.605 83.9374 37.4824C83.7 37.3774 83.4968 37.209 83.3504 36.996C83.207 36.7774 83.1338 36.5208 83.1403 36.2601C83.1326 36.0057 83.1967 35.7541 83.3255 35.5339C83.4542 35.3136 83.6423 35.1334 83.8687 35.0135C84.16 34.855 84.4782 34.7509 84.8074 34.7064L86.5193 34.4285V35.2324L85.007 35.4944C84.7857 35.5196 84.5769 35.609 84.4067 35.7515C84.3433 35.8131 84.2936 35.8871 84.2607 35.9688C84.2277 36.0505 84.2123 36.1381 84.2155 36.2261C84.2131 36.3133 84.2312 36.3998 84.2683 36.4789C84.3054 36.558 84.3604 36.6275 84.4291 36.6819C84.5855 36.804 84.7808 36.8666 84.9797 36.8584C85.236 36.8641 85.4892 36.8017 85.7131 36.6777C85.9175 36.5638 86.087 36.3968 86.2034 36.1948C86.3195 35.9893 86.3791 35.7571 86.3764 35.5215V34.2624C86.3793 34.15 86.3566 34.0384 86.31 33.9359C86.2634 33.8334 86.1942 33.7427 86.1074 33.6704C85.9058 33.5093 85.6515 33.4275 85.3929 33.4404C85.138 33.435 84.8877 33.5094 84.6778 33.653C84.4785 33.7891 84.3223 33.9785 84.2274 34.1992L83.3714 33.7746C83.4651 33.5292 83.6181 33.3104 83.8169 33.1374C84.0291 32.9507 84.2748 32.8053 84.5412 32.7087C84.8223 32.6055 85.1198 32.5535 85.4196 32.5551C85.7763 32.5483 86.13 32.6224 86.4534 32.7719C86.7388 32.9034 86.9814 33.1113 87.1539 33.3723C87.3234 33.6383 87.4103 33.9478 87.404 34.2624V37.5505H86.4233V36.6652L86.6335 36.6923C86.5193 36.8895 86.3695 37.0641 86.1915 37.2072C86.0094 37.3532 85.8029 37.4664 85.5814 37.5415C85.3347 37.6232 85.0758 37.6629 84.8158 37.6589Z" fill="#0054A6"/>
<path d="M88.6035 37.5486V32.6616H89.5842V33.6462L89.4931 33.5017C89.5773 33.2145 89.7657 32.9685 90.022 32.811C90.2884 32.663 90.5902 32.5895 90.8954 32.5984H91.1952V33.5288H90.7679C90.6164 33.5223 90.4651 33.5466 90.3234 33.6001C90.1816 33.6537 90.0524 33.7353 89.9435 33.8401C89.8336 33.9599 89.7492 34.1005 89.6953 34.2535C89.6414 34.4064 89.6191 34.5685 89.6297 34.7302V37.5486H88.6035Z" fill="#0054A6"/>
<path d="M94.1764 37.6575C93.7295 37.6644 93.2896 37.5472 92.9064 37.3191C92.5359 37.0957 92.2312 36.7793 92.0231 36.4019C91.8039 36.0032 91.6925 35.5551 91.6995 35.1011C91.6926 34.6465 91.8058 34.198 92.028 33.8003C92.2366 33.4248 92.541 33.1102 92.9106 32.8879C93.2903 32.6629 93.7257 32.5471 94.168 32.5537C94.5308 32.5468 94.8899 32.6274 95.2144 32.7886C95.509 32.9371 95.7575 33.1618 95.9338 33.439L95.779 33.6738V30.7109H96.7989V37.5491H95.8245V36.5554L95.9436 36.7451C95.7751 37.0389 95.5209 37.2751 95.2144 37.4226C94.8918 37.5808 94.5362 37.6613 94.1764 37.6575ZM94.2772 36.709C94.5487 36.7129 94.8158 36.6407 95.0477 36.5005C95.2767 36.3617 95.4628 36.1632 95.5857 35.9266C95.7187 35.6715 95.7858 35.3876 95.7811 35.1004C95.7862 34.8145 95.719 34.5319 95.5857 34.2784C95.4615 34.044 95.2756 33.8473 95.0477 33.7093C94.816 33.5688 94.5488 33.4965 94.2772 33.5008C94.0044 33.4972 93.7361 33.5694 93.5025 33.7093C93.2736 33.8458 93.0876 34.0428 92.9653 34.2784C92.8346 34.5327 92.769 34.815 92.774 35.1004C92.7693 35.3871 92.8349 35.6707 92.9653 35.9266C93.0855 36.1635 93.2701 36.3623 93.4983 36.5005C93.7331 36.6411 94.003 36.7134 94.2772 36.709Z" fill="#0054A6"/>
<path d="M98.001 31.9946V30.8203H99.0307V31.9946H98.001ZM98.001 37.5501V32.6631H99.0307V37.5501H98.001Z" fill="#0054A6"/>
<path d="M99.7861 37.5491V36.709L102.681 33.2312L102.845 33.5835H99.922V32.6621H103.756V33.4959L100.897 36.9828L100.733 36.6214H103.765V37.5491H99.7861Z" fill="#0054A6"/>
<path d="M105.996 37.6589C105.694 37.6647 105.394 37.604 105.118 37.481C104.881 37.376 104.677 37.2076 104.531 36.9946C104.387 36.7761 104.314 36.5195 104.321 36.2587C104.313 36.0042 104.377 35.7526 104.506 35.5323C104.635 35.312 104.824 35.1319 105.05 35.0121C105.341 34.8535 105.659 34.7494 105.988 34.705L107.7 34.4271V35.231L106.188 35.493C105.967 35.5181 105.757 35.6075 105.587 35.7501C105.524 35.8118 105.474 35.8859 105.441 35.9676C105.408 36.0492 105.393 36.1368 105.396 36.2247C105.394 36.3119 105.412 36.3984 105.449 36.4775C105.486 36.5566 105.541 36.6261 105.61 36.6805C105.766 36.8027 105.962 36.8653 106.161 36.857C106.417 36.8625 106.671 36.8002 106.894 36.6763C107.097 36.5615 107.266 36.3947 107.381 36.1934C107.497 35.9878 107.557 35.7556 107.554 35.5201V34.2624C107.557 34.1501 107.534 34.0385 107.488 33.936C107.441 33.8335 107.372 33.7427 107.285 33.6704C107.084 33.5093 106.829 33.4275 106.571 33.4404C106.316 33.4349 106.066 33.5093 105.856 33.653C105.656 33.7887 105.5 33.9782 105.405 34.1992L104.549 33.7746C104.643 33.5292 104.796 33.3104 104.995 33.1374C105.207 32.9507 105.453 32.8053 105.719 32.7087C106 32.6055 106.298 32.5535 106.597 32.5551C106.954 32.5484 107.308 32.6225 107.631 32.7719C107.917 32.9034 108.159 33.1114 108.332 33.3723C108.502 33.638 108.589 33.9477 108.583 34.2624V37.5505H107.602V36.6652L107.812 36.6923C107.698 36.8895 107.549 37.064 107.371 37.2072C107.189 37.3531 106.982 37.4662 106.761 37.5415C106.514 37.623 106.256 37.6627 105.996 37.6589Z" fill="#0054A6"/>
<path d="M111.825 37.6043C111.605 37.6176 111.385 37.586 111.178 37.5114C110.971 37.4368 110.782 37.3208 110.622 37.1707C110.473 37.0058 110.358 36.8131 110.284 36.6037C110.211 36.3943 110.18 36.1725 110.194 35.9512V33.5845H109.329V32.6631H109.466C109.564 32.6691 109.663 32.6545 109.756 32.6203C109.848 32.586 109.932 32.5329 110.003 32.4644C110.137 32.316 110.205 32.121 110.194 31.9224V31.543H111.223V32.6631H112.344V33.5845H111.223V35.906C111.219 36.0533 111.247 36.1998 111.305 36.3354C111.36 36.4528 111.453 36.5483 111.569 36.6064C111.717 36.6748 111.88 36.7072 112.043 36.7009C112.091 36.7009 112.146 36.6975 112.207 36.6919C112.267 36.6864 112.325 36.6801 112.38 36.6738V37.5501C112.295 37.5626 112.201 37.5737 112.1 37.5862C112.009 37.5974 111.917 37.6035 111.825 37.6043Z" fill="#0054A6"/>
<path d="M113.383 31.9946V30.8203H114.412V31.9946H113.383ZM113.383 37.5501V32.6631H114.412V37.5501H113.383Z" fill="#0054A6"/>
<path d="M117.989 37.6581C117.649 37.6635 117.311 37.6011 116.996 37.4746C116.681 37.3481 116.395 37.16 116.154 36.9215C115.914 36.683 115.724 36.399 115.597 36.0864C115.469 35.7738 115.406 35.4389 115.412 35.1017C115.402 34.6522 115.515 34.2085 115.74 33.8179C115.964 33.4273 116.292 33.1044 116.686 32.8837C117.087 32.6678 117.535 32.5547 117.991 32.5547C118.447 32.5547 118.895 32.6678 119.296 32.8837C119.677 33.0995 119.994 33.4111 120.215 33.787C120.44 34.1901 120.558 34.6434 120.557 35.1041C120.556 35.5647 120.437 36.0176 120.21 36.4199C119.987 36.7985 119.667 37.1118 119.282 37.328C118.888 37.5493 118.441 37.6632 117.989 37.6581ZM117.989 36.7096C118.262 36.7143 118.53 36.642 118.763 36.5011C118.99 36.3609 119.174 36.1626 119.296 35.9272C119.429 35.6721 119.496 35.3882 119.491 35.101C119.496 34.8151 119.429 34.5325 119.296 34.279C119.172 34.0458 118.989 33.8494 118.763 33.7099C118.53 33.5743 118.264 33.5029 117.993 33.5029C117.722 33.5029 117.456 33.5743 117.222 33.7099C116.995 33.8482 116.809 34.0448 116.685 34.279C116.552 34.5325 116.485 34.8151 116.49 35.101C116.485 35.3882 116.552 35.6721 116.685 35.9272C116.808 36.1635 116.994 36.362 117.222 36.5011C117.453 36.6404 117.719 36.7126 117.989 36.7096Z" fill="#0054A6"/>
<path d="M121.559 37.5504V32.6635H122.539V33.621L122.42 33.4945C122.53 33.2027 122.735 32.9559 123.003 32.7941C123.285 32.6312 123.606 32.5485 123.932 32.5551C124.27 32.5484 124.603 32.6294 124.898 32.7899C125.173 32.9425 125.4 33.1676 125.553 33.4403C125.715 33.7335 125.797 34.0636 125.79 34.3978V37.5504H124.773V34.6688C124.779 34.4526 124.732 34.238 124.637 34.0435C124.55 33.8765 124.415 33.7385 124.25 33.6467C124.074 33.5545 123.879 33.5063 123.681 33.5063C123.482 33.5063 123.287 33.5545 123.112 33.6467C122.945 33.7394 122.81 33.8793 122.724 34.0483C122.627 34.2425 122.579 34.4571 122.584 34.6737V37.5504H121.559Z" fill="#0054A6"/>
<path d="M0.46875 23.0273V46.0273H50.9314V0.0273438H0.46875V23.0273ZM27.267 5.52719C30.8086 5.84156 34.1739 7.20235 36.9278 9.43372C37.8283 10.2024 38.6711 11.0352 39.4494 11.9255C39.8539 12.4121 40.2282 12.9226 40.5702 13.4542C40.5702 13.5237 40.3839 13.5536 40.1163 13.5237L39.848 13.4924L39.5615 13.1047C39.0868 12.4551 38.5597 11.8449 37.9855 11.28C37.4505 10.7354 36.8783 10.2281 36.2728 9.76169C35.652 10.0664 35.0539 10.4147 34.4832 10.804C34.5807 10.9588 34.6933 11.1038 34.8194 11.2369C35.4452 11.9226 35.9809 12.6842 36.4136 13.5035C36.304 13.5394 36.1883 13.5531 36.0732 13.5438H35.765L35.4519 13.1026C34.9707 12.3847 34.4168 11.7174 33.7988 11.1111C33.7715 11.1111 33.3715 11.2598 32.9043 11.4447C32.4371 11.6295 31.778 11.8685 31.4376 11.9721C31.217 12.026 31.005 12.1094 30.8071 12.2201C30.8071 12.2472 30.9297 12.5446 31.0754 12.8823C31.175 13.0863 31.2556 13.2989 31.3164 13.5174C31.2107 13.541 31.1023 13.5501 30.9942 13.5445H30.6944L30.3855 12.9588C30.1753 12.562 30.0492 12.373 29.9995 12.373C29.9498 12.373 29.6864 12.4223 29.3999 12.4814C28.5833 12.648 27.7563 12.7595 26.9245 12.8149L26.0139 12.8914L25.9915 13.2068L25.9691 13.5223L25.6419 13.5355L25.3106 13.5487V13.2645C25.3172 13.1488 25.3034 13.0329 25.27 12.9219C25.0337 12.8415 24.7841 12.8064 24.5345 12.8184C23.6784 12.7711 22.8259 12.6718 21.982 12.521C21.0329 12.3501 21.1555 12.3 20.8284 12.9671L20.5482 13.539L20.3436 13.5661C20.2309 13.5841 20.116 13.5841 20.0032 13.5661L19.8666 13.539L20.1391 12.9136C20.2477 12.6936 20.3316 12.4625 20.3892 12.2243C20.2533 12.1367 20.1026 12.0741 19.9444 12.0395C19.7083 11.97 19.0499 11.7421 18.4734 11.5301L17.429 11.1514L17.2063 11.3905C16.7439 11.9122 16.3102 12.4582 15.9069 13.0262C15.7845 13.2298 15.6279 13.4112 15.4439 13.5626C15.2588 13.6057 15.0655 13.5994 14.8835 13.5445C15.2589 12.7983 15.7298 12.1033 16.2845 11.4766C16.4573 11.2781 16.611 11.0638 16.7433 10.8366C16.5497 10.7064 16.3496 10.586 16.1437 10.476C15.8257 10.296 15.4432 10.0702 15.2807 9.97571L14.9942 9.79991L14.6993 10.0084C13.5682 10.9017 12.5644 11.943 11.7154 13.104L11.3882 13.5411L11.038 13.5459C10.9192 13.5536 10.7998 13.5445 10.6836 13.5188C10.9789 13.0586 11.2986 12.6142 11.6411 12.1875C13.2494 10.1531 15.2905 8.49607 17.6189 7.33453C20.6065 5.86441 23.9447 5.23863 27.267 5.52719ZM40.5527 15.1247C42.1002 15.2866 43.5869 15.8105 44.8906 16.6534C45.4188 17.0445 45.8937 17.5018 46.3035 18.0139C47.2779 19.5285 47.7526 21.3065 47.6617 23.101C47.7184 24.8598 47.2611 26.5973 46.3448 28.104C45.357 29.4383 43.9194 30.3767 42.2933 30.7487C40.8203 31.1449 39.2822 31.2446 37.7697 31.0419C35.6583 30.8027 33.7154 29.7827 32.3285 28.1853C31.9055 27.5876 31.5719 26.9323 31.3381 26.2397C30.812 24.4072 30.7638 22.4722 31.198 20.6162C31.4215 19.3627 32.016 18.2036 32.9057 17.2864C34.4046 15.94 36.3316 15.1572 38.3518 15.0739C39.0857 15.0357 39.8215 15.0531 40.5527 15.126V15.1247ZM22.9382 15.1427C24.0826 15.2684 25.1899 15.6207 26.1946 16.1788C26.3266 16.2547 26.4632 16.3224 26.6037 16.3817C26.6302 16.2512 26.6394 16.1178 26.631 15.9849C26.6234 15.8321 26.6371 15.6789 26.6716 15.5298C27.2158 15.4236 27.7724 15.3948 28.3247 15.4443L29.9358 15.4221L29.9631 15.7556C30.0037 16.2288 30.0177 20.7392 29.9813 20.7753C29.9631 20.7934 29.2409 20.8156 28.3702 20.8295L26.7893 20.8566L26.5483 20.537C25.7069 19.5272 24.5105 18.8719 23.2008 18.7032C22.7686 18.6087 22.3264 18.5663 21.884 18.5767C21.0665 18.5677 20.8893 18.6129 20.6028 18.9054C20.3436 19.1667 20.4529 19.5308 20.848 19.7525C20.9481 19.8067 22.3834 20.2479 24.0365 20.7301C25.7078 21.2165 27.1886 21.6765 27.3798 21.762C28.1548 22.1236 28.8414 22.6478 29.3922 23.2983C29.8626 23.8209 30.2009 24.4469 30.3793 25.1246C30.5577 25.8024 30.5711 26.5126 30.4184 27.1965C30.1738 28.3627 29.4879 29.3914 28.5019 30.0712C27.1068 30.894 25.4855 31.2588 23.8691 31.1135C22.4743 31.0445 21.1116 30.6738 19.8764 30.0274C19.6837 29.9174 19.4833 29.8211 19.2768 29.739C19.2508 29.9138 19.2356 30.0899 19.2313 30.2664L19.204 30.7758H15.7984L15.785 28.0304C15.7808 26.5163 15.785 25.237 15.7984 25.1814L15.8208 25.0821H18.8867L19.1318 25.4649C19.4862 25.9771 19.9551 26.4012 20.502 26.7039C21.8069 27.4496 23.3437 27.6904 24.8168 27.38C25.298 27.2806 25.5523 27.1715 25.6342 27.0193C25.7526 26.8032 25.6251 26.542 25.3253 26.394C25.1075 26.2856 24.3944 26.0563 22.2958 25.4253C18.5133 24.2941 17.9446 24.0356 16.9135 23.01C16.325 22.4883 15.9272 21.7881 15.7822 21.0185C15.583 20.2476 15.5873 19.4387 15.7949 18.67C16.0025 17.9013 16.4063 17.1986 16.9674 16.6297C17.977 15.777 19.2267 15.2532 20.5468 15.1295C21.3438 15.067 22.1448 15.0719 22.941 15.1441L22.9382 15.1427ZM14.8716 16.1114C14.885 16.5936 14.885 17.4629 14.8716 18.0354L14.8534 19.0854H12.612L12.5804 23.0322C12.5622 25.2037 12.558 26.9929 12.5762 27.0061C12.5944 27.0193 13.117 27.0423 13.739 27.0513L14.8702 27.0694V30.8001H4.88796L4.86064 30.2908C4.82002 29.6418 4.82002 28.218 4.86064 27.5648L4.88796 27.0603H7.09091L7.11823 26.9214C7.13154 26.8449 7.14555 25.0605 7.14555 22.9565V19.1312L7.04538 19.1132C6.98655 19.1 6.47731 19.077 5.90994 19.059L4.87465 19.0319V17.1557C4.87465 16.1197 4.88796 15.2588 4.90617 15.2456C4.92439 15.2324 7.16376 15.2185 9.88856 15.2233L14.8443 15.2365L14.8716 16.1114ZM11.356 32.4587C11.4981 32.5672 11.6196 32.6999 11.7147 32.8506C12.5635 33.9806 13.5337 35.0155 14.6083 35.9372L15.0082 36.2659L15.2079 36.1714C15.3171 36.1172 15.7346 35.883 16.1346 35.644L16.8659 35.216L16.3846 34.617C15.9241 34.054 15.498 33.4641 15.1084 32.8506L14.8723 32.4719L15.1175 32.4448C15.4993 32.3955 15.5623 32.4268 15.8033 32.7923C16.2677 33.4767 16.7791 34.1287 17.3338 34.7434L17.4928 34.9234L17.6882 34.847C18.6373 34.4822 19.4394 34.1938 19.9297 34.0402C20.2568 33.9367 20.5335 33.8464 20.5517 33.8373C20.4853 33.6027 20.4002 33.3736 20.2974 33.1522C19.9752 32.4045 19.9752 32.4087 20.3976 32.4316L20.6568 32.4448L20.9516 33.0174C21.1149 33.328 21.2606 33.5983 21.2739 33.6122C21.4348 33.6096 21.5949 33.5884 21.7509 33.549C22.8115 33.3594 23.8821 33.2299 24.9576 33.1612C25.4024 33.13 25.4024 33.13 25.4024 32.7019V32.4629L25.7113 32.4761L26.0153 32.4893L26.0377 32.8048L26.0601 33.1202L26.2191 33.1334C27.3812 33.2101 28.5382 33.3493 29.685 33.5504C29.8564 33.5908 30.0315 33.6141 30.2076 33.6199C30.3267 33.4303 30.4358 33.2348 30.5347 33.0341L30.8296 32.4664H31.4516L31.4243 32.5838C31.406 32.647 31.2926 32.9264 31.1651 33.2009C31.077 33.3816 31.0066 33.5703 30.9549 33.7644C31.2323 33.9138 31.5264 34.0304 31.8312 34.1118C32.3082 34.2696 32.9758 34.5086 33.3162 34.6434L33.9466 34.8915L34.1785 34.6392C34.6231 34.1364 35.0358 33.6066 35.4141 33.0528L35.8344 32.4448L36.1846 32.4316C36.3018 32.4131 36.4219 32.4224 36.5348 32.4587C36.1066 33.2142 35.6095 33.9292 35.0498 34.5947C34.5868 35.1673 34.5868 35.1715 34.6863 35.2347C35.0589 35.4738 36.2763 36.1582 36.3758 36.1811C36.4753 36.2041 36.5481 36.1631 36.8437 35.9289C37.5552 35.308 38.2244 34.6411 38.847 33.9325C39.2015 33.5156 39.8648 32.6575 39.937 32.522C39.9594 32.4817 40.0736 32.4678 40.3411 32.4768L40.7138 32.49L40.3635 32.9854C38.9972 34.9352 37.2561 36.598 35.2404 37.8787C32.825 39.3946 30.0751 40.3071 27.2264 40.5379C25.9528 40.6047 24.676 40.5761 23.4068 40.4524C18.7556 39.8347 14.5316 37.4391 11.6355 33.7762C11.31 33.3669 11.0084 32.9396 10.7319 32.4963C10.9338 32.4337 11.1481 32.4213 11.356 32.4601V32.4587Z" fill="#0054A6"/>
<path d="M24.3374 6.15654C23.4935 6.19965 22.6579 6.34336 21.8486 6.58457C22.1024 6.79184 22.3818 6.96604 22.6801 7.10294C23.2034 7.339 23.7518 7.51591 24.315 7.63034C24.7431 7.69573 25.1765 7.72132 25.6094 7.70678C26.3664 7.7347 27.1219 7.61841 27.8348 7.36421C28.475 7.14811 29.4788 6.61167 29.3653 6.54844C28.7941 6.40529 28.2147 6.29692 27.6302 6.22394C26.5355 6.12646 25.4353 6.10394 24.3374 6.15654Z" fill="#0054A6"/>
<path d="M20.7585 6.81364C20.6977 6.83769 20.6333 6.85132 20.5679 6.85394C20.4921 6.85854 20.418 6.8784 20.3501 6.91231C20.2753 6.95394 20.1962 6.98726 20.114 7.01167C19.1251 7.34711 18.1677 7.76771 17.2527 8.26868C16.662 8.55298 16.1187 8.92534 15.6416 9.37282C16.1173 9.7027 16.622 9.98923 17.1497 10.2289L17.3269 10.2984L17.7675 9.88146C18.7153 8.99693 19.738 8.19488 20.8243 7.48418L21.3602 7.13258L21.1241 6.96164C20.8993 6.7907 20.8173 6.75874 20.7585 6.81364Z" fill="#0054A6"/>
<path d="M30.1262 6.89968C29.846 7.10258 29.8537 7.10814 30.494 7.50768C31.6076 8.21501 32.6482 9.02963 33.6005 9.93971C33.6981 10.0593 33.8226 10.1545 33.9641 10.2177C34.519 9.96651 35.0549 9.67575 35.5674 9.34768C35.622 9.28931 35.5583 9.23025 35.0498 8.90158C34.0878 8.26715 33.0599 7.73694 31.9838 7.32007C31.4471 7.10678 30.8967 6.92874 30.3364 6.78711C30.2593 6.81001 30.1878 6.84832 30.1262 6.89968Z" fill="#0054A6"/>
<path d="M28.6209 7.78955L28.1348 8.02372L28.3848 8.36142C28.7799 8.893 29.57 10.0784 30.0337 10.8303L30.454 11.5154L30.6221 11.4883C31.5192 11.2708 32.3887 10.9533 33.2138 10.5419C32.7717 10.0535 32.2834 9.60836 31.7555 9.21263C30.9487 8.5646 30.0711 8.00847 29.1392 7.55469C29.1252 7.55747 28.8885 7.66378 28.6209 7.78955Z" fill="#0054A6"/>
<path d="M21.435 7.92993C20.7244 8.34463 20.0471 8.81321 19.4093 9.33147C18.9119 9.70344 18.4553 10.1262 18.0469 10.5927C18.6908 10.9525 19.3837 11.2181 20.1041 11.3813C20.3107 11.4523 20.5237 11.5035 20.7402 11.5342C20.9286 11.2896 21.0973 11.0305 21.2445 10.7594C21.7621 9.89431 22.312 9.05631 22.7435 8.47957C23.0475 8.07377 23.0888 7.98413 22.9886 7.94314C22.6979 7.81667 22.1075 7.5957 22.0668 7.5957C21.85 7.69508 21.639 7.80668 21.435 7.92993Z" fill="#0054A6"/>
<path d="M23.7475 8.29072C23.7202 8.32199 23.4932 8.62426 23.2432 8.95293C22.9931 9.2816 22.6394 9.7819 22.4622 10.0522C22.1217 10.5886 21.499 11.6504 21.499 11.6969C21.9016 11.8409 22.3215 11.9317 22.7479 11.9672C23.4165 12.0762 24.0921 12.1363 24.7695 12.1472H25.2556L25.2871 10.9847C25.3095 10.1057 25.2871 8.40746 25.2507 8.40746L24.6329 8.31713C23.8974 8.21429 23.8063 8.20942 23.7475 8.29072Z" fill="#0054A6"/>
<path d="M26.6454 8.33149L25.9961 8.42599V12.1616L26.7141 12.1345C27.1049 12.1164 27.6541 12.0712 27.9266 12.0351C28.5191 11.9712 29.105 11.8566 29.6777 11.6925C29.3809 11.0359 29.0189 10.4102 28.5969 9.82475C28.2192 9.2634 27.8019 8.72933 27.348 8.22656L26.6454 8.33149Z" fill="#0054A6"/>
<path d="M38.6861 19.0143C37.6003 19.2227 37.1555 19.6042 36.951 20.5054C36.7787 21.2893 36.7115 22.0924 36.7514 22.8937C36.7605 25.2097 36.9286 26.0901 37.4518 26.6112C37.9746 26.9994 38.6064 27.2162 39.2593 27.2316C39.9121 27.2469 40.5535 27.0599 41.0942 26.6967C41.6938 26.1561 41.8031 25.5745 41.8031 22.984C41.8031 20.6215 41.7078 20.06 41.2217 19.591C40.9349 19.3275 40.5819 19.1454 40.1997 19.0636C39.7017 18.9621 39.1898 18.9454 38.6861 19.0143Z" fill="#0054A6"/>
<path d="M24.5163 33.8672C23.5587 33.9224 22.6076 34.0581 21.6731 34.273C21.6234 34.3043 21.6367 34.3634 21.7642 34.5927C22.3202 35.5942 22.9525 36.5522 23.6554 37.4583C23.9055 37.7689 23.9735 37.8321 24.0554 37.8099C24.11 37.8009 24.4056 37.7557 24.7138 37.7154C25.022 37.6751 25.3001 37.6341 25.3358 37.6209C25.4129 37.5896 25.422 36.9768 25.3723 34.9985C25.345 33.836 25.3408 33.8172 25.2497 33.8228C25.1951 33.8304 24.8665 33.852 24.5163 33.8672Z" fill="#0054A6"/>
<path d="M26.0625 34.6376C26.0443 35.0789 26.0443 35.9398 26.0625 36.5478C26.0989 37.6339 26.0989 37.652 26.1942 37.652C26.2439 37.652 26.571 37.6971 26.9213 37.7513L27.5517 37.8507L27.6834 37.6978C28.5092 36.644 29.2361 35.5173 29.8548 34.3319C29.4145 34.1776 28.9571 34.0764 28.4924 34.0303C28.0882 33.972 27.3016 33.8997 26.4667 33.8504L26.0989 33.8281L26.0625 34.6376Z" fill="#0054A6"/>
<path d="M20.2957 34.6176C19.5302 34.8189 18.7909 35.1078 18.0928 35.4786C18.5136 35.9437 18.9741 36.3719 19.4692 36.7585C20.1402 37.2874 20.8509 37.7648 21.5951 38.1864L22.1632 38.5061L22.6402 38.2976C22.8151 38.2281 22.985 38.1469 23.1487 38.0544C23.0213 37.7806 22.8629 37.5221 22.6766 37.2838C22.0728 36.4145 21.4641 35.4591 21.1552 34.9004C21.0787 34.7515 20.9889 34.6096 20.8869 34.4766C20.6861 34.5065 20.4883 34.5536 20.2957 34.6176Z" fill="#0054A6"/>
<path d="M30.2602 35.0274C29.8399 35.7619 29.3657 36.5144 28.8978 37.1856C28.6932 37.4782 28.4775 37.7846 28.4166 37.8708C28.3556 37.9569 28.3255 38.0417 28.3465 38.0598C28.6562 38.2343 28.9899 38.3632 29.337 38.4426C30.0711 38.0611 30.7737 37.6227 31.4383 37.1314C32.056 36.683 32.6335 36.1825 33.1643 35.6354L33.3548 35.4054L32.8463 35.1893C32.2716 34.9448 31.6795 34.743 31.0748 34.5854L30.5887 34.459L30.2602 35.0274Z" fill="#0054A6"/>
<path d="M33.5488 36.222C32.6123 37.0985 31.595 37.886 30.5102 38.5741C30.3443 38.6658 30.1927 38.7813 30.0605 38.9167C30.0605 38.9479 30.1558 39.0431 30.2707 39.1251L30.4808 39.2738L31.058 39.0939C32.43 38.6547 33.7408 38.0461 34.9596 37.2823C35.2427 37.114 35.5102 36.921 35.7588 36.7056C35.2298 36.3344 34.6644 36.0169 34.0714 35.7578C33.8894 35.9036 33.715 36.0586 33.5488 36.222Z" fill="#0054A6"/>
<path d="M16.8204 36.0418C16.4268 36.223 16.0601 36.4568 15.7305 36.7366C16.2742 37.1725 16.8609 37.5529 17.4816 37.872C18.4513 38.4009 19.4745 38.8269 20.5342 39.1429C21.0021 39.2784 21.0021 39.2784 21.1247 39.1881C21.1989 39.1367 21.2674 39.0778 21.3293 39.0123C21.4154 38.922 21.4063 38.9178 20.8067 38.5169C19.7522 37.8273 18.7572 37.0522 17.8319 36.1995C17.6871 36.0424 17.5186 35.9085 17.3324 35.8027C17.1533 35.8633 16.9816 35.9435 16.8204 36.0418Z" fill="#0054A6"/>
<path d="M24.8598 38.3756C24.1455 38.4679 23.449 38.6654 22.7934 38.9614C22.3122 39.1865 21.8898 39.4526 21.9395 39.502C22.5323 39.6613 23.1368 39.7742 23.7474 39.8397C24.9862 39.946 26.2315 39.955 27.4718 39.8668C28.1754 39.8302 28.8706 39.6983 29.5381 39.4749C29.2026 39.2059 28.8272 38.99 28.4251 38.8349C27.2918 38.3971 26.0682 38.2395 24.8598 38.3756Z" fill="#0054A6"/>
</g>
<defs>
<clipPath id="clip0_99_110">
<rect width="127" height="46" fill="white" transform="translate(0.46875 0.0273438)"/>
</clipPath>
</defs>
</svg>
