<svg width="142" height="63" viewBox="0 0 142 63" fill="none" xmlns="http://www.w3.org/2000/svg">
<g clip-path="url(#clip0_99_50)">
<path d="M36.6976 48.7759C34.8974 49.6712 30.532 50.7456 25.0414 50.7456C9.2447 50.7456 1.09883 40.8972 1.09883 27.9152C1.05383 12.3817 12.17 3.74194 26.0315 3.74194C31.3871 3.74194 35.4375 4.77155 37.2827 5.75638L35.1225 13.8589C33.0972 12.9636 30.1719 12.1578 26.4365 12.1578C18.2907 12.1578 11.9 17.082 11.9 27.199C11.9 36.3311 17.3456 42.0611 26.4815 42.0611C29.6319 42.0611 33.0522 41.4791 35.1675 40.5838L36.6976 48.7759Z" fill="black"/>
<path d="M83.3671 26.7512C83.3671 41.7475 74.3662 50.7006 60.9097 50.7006C47.4083 50.7006 39.4424 40.5389 39.4424 27.4674C39.4424 13.814 48.2634 3.65224 61.7198 3.65224C75.6713 3.60748 83.3671 14.1273 83.3671 26.7512ZM50.3336 27.2883C50.3336 36.2414 54.5191 42.5533 61.4498 42.5533C68.4255 42.5533 72.431 35.9281 72.431 27.1093C72.431 18.8725 68.6056 11.8443 61.4498 11.8443C54.384 11.8443 50.3336 18.4696 50.3336 27.2883Z" fill="black"/>
<path d="M87.6426 30.512C89.0828 30.2882 91.198 30.1091 93.6283 30.1091C96.5536 30.1091 98.6688 30.5568 100.064 31.6312C101.279 32.5712 101.909 33.959 101.909 35.7943C101.909 38.2564 100.109 40.047 98.4438 40.629V40.7633C99.8389 41.3005 100.559 42.5987 101.099 44.434C101.729 46.6723 102.314 49.2687 102.674 50.0297H98.0837C97.7687 49.4478 97.2737 47.881 96.7336 45.4189C96.1935 42.9568 95.3385 42.2853 93.4933 42.2853H92.1881V50.0297H87.7326V30.512H87.6426ZM92.0531 38.9727H93.8083C96.0135 38.9727 97.3637 37.8535 97.3637 36.1525C97.3637 34.3618 96.1485 33.4665 94.0783 33.4665C92.9982 33.4665 92.3681 33.5113 92.0531 33.6008V38.9727Z" fill="black"/>
<path d="M134.808 30.736H117.976V41.5692H136.743V49.9851H107.67V4.45874H135.798V12.8746H117.976V22.3201H134.808V30.736Z" fill="black"/>
<path d="M87.3731 6.51788C88.8133 6.29405 90.7485 6.11499 92.7737 6.11499C96.149 6.11499 98.3993 6.7417 100.064 7.99513C101.91 9.33809 103.035 11.4868 103.035 14.6204C103.035 17.9778 101.82 20.3056 100.154 21.7381C98.3093 23.2601 95.429 23.9764 91.9636 23.9764C89.8934 23.9764 88.4082 23.8421 87.4181 23.7078V6.51788H87.3731ZM91.3785 20.8428C91.7386 20.9323 92.2786 20.9323 92.7737 20.9323C96.4191 20.9771 98.8043 19.0074 98.8043 14.7547C98.8043 11.0839 96.6441 9.15903 93.1787 9.15903C92.3236 9.15903 91.7386 9.24856 91.3785 9.29333V20.8428Z" fill="#C82728"/>
<path d="M7.21962 61.1328C6.94959 61.2671 6.36453 61.4014 5.64445 61.4014C3.70925 61.4014 2.53912 60.1928 2.53912 58.3574C2.53912 56.3429 3.93427 55.1343 5.82447 55.1343C6.54455 55.1343 7.08461 55.2686 7.30963 55.4029L7.08461 56.2982C6.81458 56.1639 6.40954 56.0743 5.86948 56.0743C4.60934 56.0743 3.75425 56.8354 3.75425 58.3126C3.75425 59.6556 4.51933 60.5061 5.86948 60.5061C6.31953 60.5061 6.76957 60.4166 7.08461 60.2823L7.21962 61.1328Z" fill="#565656"/>
<path d="M15.1855 58.1784C15.1855 60.1928 13.9253 61.3567 12.2601 61.3567C10.55 61.3567 9.46985 60.0586 9.46985 58.2679C9.46985 56.3878 10.64 55.0896 12.3952 55.0896C14.1503 55.0896 15.1855 56.4326 15.1855 58.1784ZM10.64 58.2679C10.64 59.5214 11.27 60.5062 12.3502 60.5062C13.4303 60.5062 14.0153 59.5214 14.0153 58.2232C14.0153 57.0593 13.4303 55.9849 12.3502 55.9849C11.225 55.9849 10.64 57.0145 10.64 58.2679Z" fill="#565656"/>
<path d="M17.9756 55.3137C18.4707 55.2242 19.1008 55.1794 19.7308 55.1794C20.856 55.1794 21.666 55.4033 22.2061 55.8957C22.7912 56.3881 23.1512 57.1044 23.1512 58.134C23.1512 59.2083 22.7912 60.0141 22.2061 60.5513C21.621 61.0885 20.6309 61.4018 19.4608 61.4018C18.8307 61.4018 18.3357 61.3571 17.9756 61.3123V55.3137ZM19.1008 60.4618C19.2358 60.5065 19.5058 60.5065 19.7308 60.5065C21.171 60.5065 22.0261 59.7007 22.0261 58.1787C22.0261 56.8358 21.261 56.0748 19.8658 56.0748C19.5058 56.0748 19.2808 56.1195 19.1008 56.1195V60.4618Z" fill="#565656"/>
<path d="M29.4068 58.5816H27.1115V60.3722H29.6768V61.2675H25.9864V55.1794H29.5418V56.0748H27.1115V57.6415H29.4068V58.5816Z" fill="#565656"/>
<path d="M33.6829 59.5664L33.1428 61.2675H31.9727L33.9079 55.1794H35.3481L37.3283 61.2675H36.1132L35.5731 59.5664H33.6829ZM35.4381 58.7159L34.943 57.2387C34.808 56.8805 34.718 56.4329 34.628 56.1195C34.538 56.4776 34.448 56.8805 34.358 57.2387L33.9079 58.7159H35.4381Z" fill="#565656"/>
<path d="M40.0284 61.2675V55.1794H41.2885L42.8637 57.7758C43.2687 58.4473 43.6288 59.1636 43.8988 59.7903C43.8088 58.9845 43.8088 58.1787 43.8088 57.2834V55.1794H44.8439V61.2675H43.6738L42.0986 58.5816C41.6936 57.9101 41.3335 57.1939 41.0185 56.4776H40.9735C41.0185 57.2834 41.0185 58.0444 41.0185 59.074V61.2675H40.0284Z" fill="#565656"/>
<path d="M47.9942 55.3137C48.4893 55.2242 49.1193 55.1794 49.7494 55.1794C50.8745 55.1794 51.6846 55.4033 52.2247 55.8957C52.8097 56.3881 53.1698 57.1044 53.1698 58.134C53.1698 59.2083 52.8097 60.0141 52.2247 60.5513C51.6396 61.0885 50.6495 61.4018 49.4794 61.4018C48.8493 61.4018 48.3542 61.3571 47.9942 61.3123V55.3137ZM49.1193 60.4618C49.2543 60.5065 49.5244 60.5065 49.7494 60.5065C51.1895 60.5065 52.0446 59.7007 52.0446 58.1787C52.0446 56.8358 51.2796 56.0748 49.8844 56.0748C49.5244 56.0748 49.2993 56.1195 49.1193 56.1195V60.4618Z" fill="#565656"/>
<path d="M60.37 61.1331C60.1 61.2674 59.5149 61.4017 58.7948 61.4017C56.8596 61.4017 55.6895 60.193 55.6895 58.3576C55.6895 56.3432 57.0847 55.1345 58.9749 55.1345C59.6949 55.1345 60.235 55.2688 60.46 55.4031L60.235 56.2984C59.965 56.1641 59.5599 56.0746 59.0199 56.0746C57.7597 56.0746 56.9046 56.8356 56.9046 58.3129C56.9046 59.6558 57.6697 60.5064 59.0199 60.5064C59.4699 60.5064 59.92 60.4168 60.235 60.2825L60.37 61.1331Z" fill="#565656"/>
<path d="M68.3358 58.1784C68.3358 60.1928 67.0757 61.3567 65.4105 61.3567C63.7003 61.3567 62.6202 60.0586 62.6202 58.2679C62.6202 56.3878 63.7903 55.0896 65.5455 55.0896C67.2557 55.0896 68.3358 56.4326 68.3358 58.1784ZM63.7903 58.2679C63.7903 59.5214 64.4204 60.5062 65.5005 60.5062C66.5806 60.5062 67.1657 59.5214 67.1657 58.2232C67.1657 57.0593 66.5806 55.9849 65.5005 55.9849C64.3754 55.9849 63.7903 57.0145 63.7903 58.2679Z" fill="#565656"/>
<path d="M71.126 55.3137C71.5311 55.2242 72.1611 55.1794 72.7912 55.1794C73.6463 55.1794 74.2764 55.3137 74.6814 55.6719C74.9964 55.9405 75.2215 56.3881 75.2215 56.8805C75.2215 57.6863 74.6814 58.1787 74.0964 58.4025V58.4473C74.5464 58.6264 74.8164 59.0293 74.9514 59.6112C75.1315 60.3722 75.3115 61.0885 75.4465 61.3123H74.3214C74.2314 61.1332 74.0964 60.6408 73.9163 59.8798C73.7363 59.074 73.4663 58.8502 72.8362 58.8054H72.2962V61.3123H71.171V55.3137H71.126ZM72.2061 57.9549H72.8812C73.6463 57.9549 74.0964 57.552 74.0964 56.9701C74.0964 56.2986 73.6463 55.9852 72.9262 55.9852C72.5662 55.9852 72.3412 56.03 72.2512 56.03L72.2061 57.9549Z" fill="#565656"/>
<path d="M81.4771 58.5816H79.1818V60.3722H81.7471V61.2675H78.0567V55.1794H81.6121V56.0748H79.1818V57.6415H81.4771V58.5816Z" fill="#565656"/>
<path d="M89.0834 56.1195H87.3282V55.1794H91.9187V56.1195H90.1635V61.2675H89.0834V56.1195Z" fill="#565656"/>
<path d="M97.9038 58.5816H95.6086V60.3722H98.1739V61.2675H94.4835V55.1794H98.0388V56.0748H95.6086V57.6415H97.9038V58.5816Z" fill="#565656"/>
<path d="M105.33 61.1328C105.06 61.2671 104.475 61.4014 103.755 61.4014C101.82 61.4014 100.65 60.1928 100.65 58.3574C100.65 56.3429 102.045 55.1343 103.935 55.1343C104.655 55.1343 105.195 55.2686 105.42 55.4029L105.195 56.2982C104.925 56.1639 104.52 56.0743 103.98 56.0743C102.72 56.0743 101.865 56.8354 101.865 58.3126C101.865 59.6556 102.63 60.5061 103.98 60.5061C104.43 60.5061 104.88 60.4166 105.195 60.2823L105.33 61.1328Z" fill="#565656"/>
<path d="M109.245 55.2244V57.6417H111.811V55.2244H112.936V61.3124H111.811V58.6265H109.245V61.3124H108.12V55.2244H109.245Z" fill="#565656"/>
<path d="M119.732 55.2244H120.857V60.3724H123.377V61.3124H119.777V55.2244H119.732Z" fill="#565656"/>
<path d="M126.032 55.2244H127.157V60.3724H129.678V61.3124H126.077V55.2244H126.032Z" fill="#565656"/>
<path d="M132.288 55.3137C132.693 55.2242 133.233 55.1794 133.998 55.1794C134.808 55.1794 135.393 55.3585 135.799 55.6719C136.159 55.9852 136.384 56.4329 136.384 57.0148C136.384 57.5968 136.204 58.0444 135.889 58.4025C135.438 58.8502 134.763 59.074 133.953 59.074C133.728 59.074 133.548 59.074 133.413 59.0293V61.3123H132.288V55.3137ZM133.413 58.134C133.548 58.1787 133.728 58.1787 133.953 58.1787C134.763 58.1787 135.303 57.7758 135.303 57.0596C135.303 56.3881 134.853 56.03 134.043 56.03C133.728 56.03 133.503 56.0748 133.413 56.0748V58.134Z" fill="#565656"/>
<path d="M140.839 2.93709C140.839 4.23528 139.804 5.22012 138.498 5.22012C137.193 5.22012 136.158 4.19051 136.158 2.93709C136.158 1.68366 137.193 0.654053 138.543 0.654053C139.804 0.654053 140.839 1.63889 140.839 2.93709ZM136.698 2.93709C136.698 3.96669 137.463 4.77246 138.498 4.77246C139.489 4.77246 140.254 3.96669 140.254 2.98185C140.254 1.95225 139.489 1.14647 138.498 1.14647C137.463 1.10171 136.698 1.90748 136.698 2.93709ZM138.138 4.10098H137.598V1.81795C137.823 1.77319 138.093 1.72842 138.498 1.72842C138.949 1.72842 139.129 1.81795 139.264 1.90748C139.399 1.99701 139.489 2.17607 139.489 2.3999C139.489 2.66849 139.264 2.84755 138.993 2.93709V2.98185C139.219 3.07138 139.309 3.25044 139.399 3.51903C139.489 3.87716 139.534 4.01145 139.579 4.05622H139.039C138.948 3.96669 138.949 3.78763 138.858 3.51903C138.813 3.29521 138.678 3.16091 138.363 3.16091H138.093V4.10098H138.138ZM138.138 2.80279H138.408C138.723 2.80279 138.949 2.71326 138.949 2.48943C138.949 2.26561 138.813 2.13131 138.453 2.13131C138.318 2.13131 138.228 2.13131 138.138 2.17607V2.80279Z" fill="black"/>
</g>
<defs>
<clipPath id="clip0_99_50">
<rect width="141" height="62" fill="white" transform="translate(0.46875 0.0273438)"/>
</clipPath>
</defs>
</svg>
