<svg width="169" height="49" viewBox="0 0 169 49" fill="none" xmlns="http://www.w3.org/2000/svg">
<rect x="0.46875" y="0.0273438" width="168" height="48" fill="#E2FFE2"/>
<path d="M30.8559 21.5112C29.0494 21.5112 28.4688 23.2532 28.3397 24.2854V24.3499L28.0817 25.3177C28.8559 25.9628 29.8236 26.4145 30.7913 26.4145C32.0817 26.4145 33.243 25.3177 33.3075 23.8983C33.3075 22.608 32.2107 21.5112 30.8559 21.5112Z" fill="#15A800"/>
<path d="M24.4687 8.02734C15.63 8.02734 8.46875 15.1886 8.46875 24.0273C8.46875 32.8661 15.63 40.0273 24.4687 40.0273C33.3075 40.0273 40.4688 32.8661 40.4688 24.0273C40.4688 15.1886 33.3075 8.02734 24.4687 8.02734ZM30.8558 28.9306C29.5655 28.9306 28.4687 28.5435 27.501 27.9628L26.4042 33.1241H23.8881L25.4365 26.0273C24.7913 25.1241 24.1462 24.0919 23.6946 23.1241V24.2209C23.6946 26.8661 21.5655 28.9951 18.9849 28.9951C16.4042 28.9951 14.2752 26.8661 14.2752 24.2209V17.7693H16.7268V24.2209C16.7268 25.5112 17.7591 26.5435 19.0494 26.5435C20.3397 26.5435 21.372 25.5112 21.372 24.2209V17.7693H23.8236C24.3397 19.3822 25.1784 21.3177 26.2752 23.0596C26.9204 20.608 28.7268 19.1241 30.9849 19.1241C33.63 19.1241 35.8236 21.3177 35.8236 23.9628C35.6946 26.737 33.501 28.9306 30.8558 28.9306Z" fill="#15A800"/>
<g clip-path="url(#clip0_99_195)">
<path d="M43.4688 11.5273L45.4187 16.1523H54.5187L56.4688 11.5273L52.5687 12.7773L49.9688 9.02734L47.3687 12.7773L43.4688 11.5273Z" fill="#FFC700"/>
<path d="M54.5188 17.7773H45.4188V19.0273H54.5188V17.7773Z" fill="#FFC700"/>
</g>
<path d="M63.2793 18.0273V11.0368H60.5788V10.1073H66.9588V11.0368H64.2583V18.0273H63.2793ZM69.4616 18.1923C68.8713 18.1923 68.3616 18.0585 67.9326 17.7908C67.5073 17.5232 67.1791 17.1528 66.9481 16.6798C66.7171 16.2068 66.6016 15.6642 66.6016 15.0518C66.6016 14.4285 66.7189 13.8822 66.9536 13.4128C67.1883 12.9435 67.5201 12.5787 67.9491 12.3183C68.3781 12.0543 68.8823 11.9223 69.4616 11.9223C70.0556 11.9223 70.5671 12.0562 70.9961 12.3238C71.4251 12.5878 71.7533 12.9563 71.9806 13.4293C72.2116 13.8987 72.3271 14.4395 72.3271 15.0518C72.3271 15.6715 72.2116 16.2178 71.9806 16.6908C71.7496 17.1602 71.4196 17.5287 70.9906 17.7963C70.5616 18.0603 70.0519 18.1923 69.4616 18.1923ZM69.4616 17.2628C70.0776 17.2628 70.5359 17.0575 70.8366 16.6468C71.1373 16.2362 71.2876 15.7045 71.2876 15.0518C71.2876 14.3808 71.1354 13.8473 70.8311 13.4513C70.5268 13.0517 70.0703 12.8518 69.4616 12.8518C69.0473 12.8518 68.7063 12.9453 68.4386 13.1323C68.1709 13.3193 67.9711 13.5778 67.8391 13.9078C67.7071 14.2378 67.6411 14.6192 67.6411 15.0518C67.6411 15.7192 67.7951 16.2545 68.1031 16.6578C68.4111 17.0612 68.8639 17.2628 69.4616 17.2628ZM76.244 18.1923C75.6867 18.1923 75.2174 18.0548 74.836 17.7798C74.4547 17.5012 74.165 17.1253 73.967 16.6523C73.7727 16.1757 73.6755 15.6422 73.6755 15.0518C73.6755 14.4542 73.7727 13.9188 73.967 13.4458C74.165 12.9728 74.4547 12.6007 74.836 12.3293C75.221 12.058 75.6922 11.9223 76.2495 11.9223C76.7995 11.9223 77.2725 12.0598 77.6685 12.3348C78.0682 12.6062 78.3744 12.9783 78.587 13.4513C78.7997 13.9243 78.906 14.4578 78.906 15.0518C78.906 15.6458 78.7997 16.1793 78.587 16.6523C78.3744 17.1253 78.0682 17.5012 77.6685 17.7798C77.2725 18.0548 76.7977 18.1923 76.244 18.1923ZM73.5105 20.6673V12.0873H74.385V16.4598H74.495V20.6673H73.5105ZM76.123 17.2958C76.5154 17.2958 76.8399 17.1968 77.0965 16.9988C77.3532 16.8008 77.5457 16.5332 77.674 16.1958C77.8024 15.8548 77.8665 15.4735 77.8665 15.0518C77.8665 14.6338 77.8024 14.2562 77.674 13.9188C77.5494 13.5815 77.355 13.3138 77.091 13.1158C76.8307 12.9178 76.4989 12.8188 76.0955 12.8188C75.7105 12.8188 75.3915 12.9142 75.1385 13.1048C74.8855 13.2918 74.6967 13.554 74.572 13.8913C74.4474 14.225 74.385 14.6118 74.385 15.0518C74.385 15.4845 74.4455 15.8713 74.5665 16.2123C74.6912 16.5497 74.8819 16.8155 75.1385 17.0098C75.3952 17.2005 75.7234 17.2958 76.123 17.2958ZM82.2699 18.0273V10.1073H85.3994C85.4764 10.1073 85.5681 10.111 85.6744 10.1183C85.7807 10.122 85.8834 10.133 85.9824 10.1513C86.4114 10.2173 86.7707 10.364 87.0604 10.5913C87.3537 10.8187 87.5737 11.1065 87.7204 11.4548C87.8671 11.7995 87.9404 12.1827 87.9404 12.6043C87.9404 13.2167 87.7809 13.7483 87.4619 14.1993C87.1429 14.6467 86.6754 14.9272 86.0594 15.0408L85.6854 15.1013H83.2489V18.0273H82.2699ZM86.9834 18.0273L85.4214 14.8043L86.3894 14.5073L88.1054 18.0273H86.9834ZM83.2489 14.1718H85.3664C85.4361 14.1718 85.5149 14.1682 85.6029 14.1608C85.6946 14.1535 85.7807 14.1407 85.8614 14.1223C86.1144 14.0637 86.3197 13.9573 86.4774 13.8033C86.6387 13.6457 86.7561 13.4623 86.8294 13.2533C86.9027 13.0407 86.9394 12.8243 86.9394 12.6043C86.9394 12.3843 86.9027 12.1698 86.8294 11.9608C86.7561 11.7482 86.6387 11.563 86.4774 11.4053C86.3197 11.2477 86.1144 11.1413 85.8614 11.0863C85.7807 11.0643 85.6946 11.0515 85.6029 11.0478C85.5149 11.0405 85.4361 11.0368 85.3664 11.0368H83.2489V14.1718ZM90.9833 18.1923C90.5396 18.1923 90.1674 18.1117 89.8668 17.9503C89.5698 17.7853 89.3443 17.569 89.1903 17.3013C89.0399 17.0337 88.9648 16.7403 88.9648 16.4213C88.9648 16.1097 89.0234 15.8402 89.1408 15.6128C89.2618 15.3818 89.4304 15.1912 89.6468 15.0408C89.8631 14.8868 90.1216 14.7658 90.4223 14.6778C90.7046 14.6008 91.0199 14.5348 91.3683 14.4798C91.7203 14.4212 92.0759 14.368 92.4353 14.3203C92.7946 14.2727 93.1301 14.2268 93.4418 14.1828L93.0898 14.3863C93.1008 13.8583 92.9944 13.4678 92.7708 13.2148C92.5508 12.9618 92.1694 12.8353 91.6268 12.8353C91.2674 12.8353 90.9521 12.9178 90.6808 13.0828C90.4131 13.2442 90.2243 13.5082 90.1143 13.8748L89.1848 13.5943C89.3278 13.0737 89.6046 12.6648 90.0153 12.3678C90.4259 12.0708 90.9668 11.9223 91.6378 11.9223C92.1768 11.9223 92.6388 12.0195 93.0238 12.2138C93.4124 12.4045 93.6911 12.6942 93.8598 13.0828C93.9441 13.2662 93.9973 13.466 94.0193 13.6823C94.0413 13.895 94.0523 14.1187 94.0523 14.3533V18.0273H93.1833V16.6028L93.3868 16.7348C93.1631 17.2152 92.8496 17.5782 92.4463 17.8238C92.0466 18.0695 91.5589 18.1923 90.9833 18.1923ZM91.1318 17.3728C91.4838 17.3728 91.7881 17.3105 92.0448 17.1858C92.3051 17.0575 92.5141 16.8907 92.6718 16.6853C92.8294 16.4763 92.9321 16.249 92.9798 16.0033C93.0348 15.82 93.0641 15.6165 93.0678 15.3928C93.0751 15.1655 93.0788 14.9913 93.0788 14.8703L93.4198 15.0188C93.1008 15.0628 92.7873 15.105 92.4793 15.1453C92.1713 15.1857 91.8798 15.2297 91.6048 15.2773C91.3298 15.3213 91.0823 15.3745 90.8623 15.4368C90.7009 15.4882 90.5488 15.5542 90.4058 15.6348C90.2664 15.7155 90.1528 15.82 90.0648 15.9483C89.9804 16.073 89.9383 16.2288 89.9383 16.4158C89.9383 16.5772 89.9786 16.7312 90.0593 16.8778C90.1436 17.0245 90.2719 17.1437 90.4443 17.2353C90.6203 17.327 90.8494 17.3728 91.1318 17.3728ZM98.7768 18.0273C98.4248 18.097 98.0764 18.1245 97.7318 18.1098C97.3908 18.0988 97.0864 18.031 96.8188 17.9063C96.5511 17.778 96.3476 17.58 96.2083 17.3123C96.0909 17.0777 96.0268 16.8412 96.0158 16.6028C96.0084 16.3608 96.0048 16.0877 96.0048 15.7833V10.4373H96.9838V15.7393C96.9838 15.9813 96.9856 16.1885 96.9893 16.3608C96.9966 16.5332 97.0351 16.6817 97.1048 16.8063C97.2368 17.041 97.4458 17.1785 97.7318 17.2188C98.0214 17.2592 98.3698 17.2482 98.7768 17.1858V18.0273ZM94.8003 12.8958V12.0873H98.7768V12.8958H94.8003ZM102.288 18.1923C101.705 18.1923 101.195 18.064 100.759 17.8073C100.326 17.547 99.9887 17.1858 99.7467 16.7238C99.5047 16.2582 99.3837 15.7155 99.3837 15.0958C99.3837 14.4468 99.5028 13.8858 99.7412 13.4128C99.9795 12.9362 100.311 12.5695 100.737 12.3128C101.166 12.0525 101.668 11.9223 102.244 11.9223C102.841 11.9223 103.349 12.0598 103.767 12.3348C104.189 12.6098 104.504 13.0022 104.713 13.5118C104.926 14.0215 105.017 14.6283 104.988 15.3323H103.998V14.9803C103.987 14.2507 103.839 13.7062 103.553 13.3468C103.267 12.9838 102.841 12.8023 102.277 12.8023C101.672 12.8023 101.211 12.9967 100.896 13.3853C100.581 13.774 100.423 14.3313 100.423 15.0573C100.423 15.7577 100.581 16.3003 100.896 16.6853C101.211 17.0703 101.661 17.2628 102.244 17.2628C102.636 17.2628 102.977 17.173 103.267 16.9933C103.556 16.8137 103.784 16.5552 103.949 16.2178L104.889 16.5423C104.658 17.0667 104.31 17.4737 103.844 17.7633C103.382 18.0493 102.863 18.1923 102.288 18.1923ZM100.093 15.3323V14.5458H104.482V15.3323H100.093ZM108.523 18.1923C107.969 18.1923 107.494 18.0548 107.098 17.7798C106.702 17.5012 106.396 17.1253 106.18 16.6523C105.967 16.1793 105.861 15.6458 105.861 15.0518C105.861 14.4578 105.967 13.9243 106.18 13.4513C106.396 12.9783 106.702 12.6062 107.098 12.3348C107.494 12.0598 107.967 11.9223 108.517 11.9223C109.078 11.9223 109.549 12.058 109.931 12.3293C110.312 12.6007 110.6 12.9728 110.794 13.4458C110.992 13.9188 111.091 14.4542 111.091 15.0518C111.091 15.6422 110.992 16.1757 110.794 16.6523C110.6 17.1253 110.312 17.5012 109.931 17.7798C109.549 18.0548 109.08 18.1923 108.523 18.1923ZM108.644 17.2958C109.043 17.2958 109.372 17.2005 109.628 17.0098C109.885 16.8155 110.074 16.5497 110.195 16.2123C110.319 15.8713 110.382 15.4845 110.382 15.0518C110.382 14.6118 110.319 14.225 110.195 13.8913C110.074 13.554 109.887 13.2918 109.634 13.1048C109.381 12.9142 109.06 12.8188 108.671 12.8188C108.268 12.8188 107.934 12.9178 107.67 13.1158C107.41 13.3138 107.216 13.5815 107.087 13.9188C106.963 14.2562 106.9 14.6338 106.9 15.0518C106.9 15.4735 106.964 15.8548 107.093 16.1958C107.221 16.5332 107.414 16.8008 107.67 16.9988C107.931 17.1968 108.255 17.2958 108.644 17.2958ZM110.382 18.0273V13.6548H110.272V10.1073H111.256V18.0273H110.382ZM114.955 18.0273V10.1073H118.085C118.162 10.1073 118.253 10.111 118.36 10.1183C118.466 10.122 118.569 10.133 118.668 10.1513C119.097 10.2173 119.456 10.364 119.746 10.5913C120.039 10.8187 120.259 11.1065 120.406 11.4548C120.552 11.7995 120.626 12.1827 120.626 12.6043C120.626 13.0223 120.551 13.4055 120.4 13.7538C120.254 14.0985 120.034 14.3863 119.74 14.6173C119.451 14.8447 119.093 14.9913 118.668 15.0573C118.569 15.072 118.466 15.083 118.36 15.0903C118.253 15.0977 118.162 15.1013 118.085 15.1013H115.934V18.0273H114.955ZM115.934 14.1718H118.052C118.121 14.1718 118.2 14.1682 118.288 14.1608C118.38 14.1535 118.466 14.1407 118.547 14.1223C118.8 14.0637 119.005 13.9573 119.163 13.8033C119.324 13.6457 119.441 13.4623 119.515 13.2533C119.588 13.0407 119.625 12.8243 119.625 12.6043C119.625 12.3843 119.588 12.1698 119.515 11.9608C119.441 11.7482 119.324 11.563 119.163 11.4053C119.005 11.2477 118.8 11.1413 118.547 11.0863C118.466 11.0643 118.38 11.0515 118.288 11.0478C118.2 11.0405 118.121 11.0368 118.052 11.0368H115.934V14.1718ZM121.811 18.0273V9.94234H122.79V18.0273H121.811ZM126.673 18.1813C126.292 18.1813 125.964 18.1208 125.689 17.9998C125.417 17.8788 125.192 17.7175 125.012 17.5158C124.832 17.3142 124.691 17.0905 124.589 16.8448C124.486 16.5992 124.413 16.348 124.369 16.0913C124.328 15.8347 124.308 15.5945 124.308 15.3708V12.0873H125.298V15.0628C125.298 15.3415 125.324 15.611 125.375 15.8713C125.426 16.1317 125.513 16.3663 125.634 16.5753C125.758 16.7843 125.923 16.9493 126.129 17.0703C126.338 17.1913 126.598 17.2518 126.91 17.2518C127.155 17.2518 127.379 17.2097 127.581 17.1253C127.782 17.041 127.955 16.9163 128.098 16.7513C128.241 16.5827 128.351 16.37 128.428 16.1133C128.505 15.8567 128.543 15.5578 128.543 15.2168L129.187 15.4148C129.187 15.9868 129.082 16.48 128.873 16.8943C128.668 17.3087 128.376 17.6277 127.999 17.8513C127.625 18.0713 127.183 18.1813 126.673 18.1813ZM128.653 18.0273V16.4378H128.543V12.0873H129.528V18.0273H128.653ZM133.29 18.1868C132.582 18.1868 132.001 18.0328 131.546 17.7248C131.095 17.4132 130.818 16.9787 130.716 16.4213L131.717 16.2618C131.797 16.5845 131.982 16.8412 132.272 17.0318C132.562 17.2188 132.921 17.3123 133.35 17.3123C133.757 17.3123 134.076 17.228 134.307 17.0593C134.538 16.8907 134.654 16.6615 134.654 16.3718C134.654 16.2032 134.615 16.0675 134.538 15.9648C134.461 15.8585 134.302 15.7595 134.06 15.6678C133.821 15.5762 133.46 15.4662 132.976 15.3378C132.452 15.1985 132.039 15.0537 131.739 14.9033C131.438 14.753 131.223 14.5788 131.095 14.3808C130.967 14.1828 130.903 13.9427 130.903 13.6603C130.903 13.312 130.998 13.0077 131.189 12.7473C131.379 12.4833 131.645 12.2798 131.986 12.1368C132.331 11.9938 132.73 11.9223 133.185 11.9223C133.636 11.9223 134.039 11.9938 134.395 12.1368C134.751 12.2798 135.037 12.4833 135.253 12.7473C135.473 13.0077 135.603 13.312 135.644 13.6603L134.643 13.8418C134.595 13.5228 134.441 13.2717 134.181 13.0883C133.924 12.905 133.592 12.8078 133.185 12.7968C132.8 12.7822 132.487 12.85 132.245 13.0003C132.006 13.1507 131.887 13.3542 131.887 13.6108C131.887 13.7538 131.931 13.8767 132.019 13.9793C132.111 14.082 132.278 14.1792 132.52 14.2708C132.765 14.3625 133.121 14.467 133.587 14.5843C134.111 14.7163 134.523 14.8612 134.824 15.0188C135.128 15.1728 135.345 15.3562 135.473 15.5688C135.601 15.7778 135.666 16.0363 135.666 16.3443C135.666 16.9163 135.455 17.3673 135.033 17.6973C134.611 18.0237 134.03 18.1868 133.29 18.1868Z" fill="black"/>
<path d="M49.0955 26.2502C49.6433 25.9531 50.3026 25.9531 50.8412 26.2502L55.1312 28.6552C55.679 28.9523 56.004 29.5188 56.004 30.1223V34.9323C56.004 35.5359 55.6698 36.0931 55.1312 36.3995L50.8412 38.8045C50.2933 39.1016 49.634 39.1016 49.0955 38.8045L44.8055 36.3995C44.2669 36.1023 43.9326 35.5359 43.9326 34.9323V30.1223C43.9326 29.5188 44.2669 28.9616 44.8055 28.6552L49.0955 26.2502Z" fill="#F66DBC"/>
<path d="M51.7978 34.2267C51.575 34.2824 51.4728 34.496 51.5285 34.7189L50.21 33.846C50.0707 33.7531 49.8942 33.7531 49.7457 33.846L48.4921 34.7374L48.845 33.2332C48.8629 33.1574 48.8594 33.0782 48.8348 33.0044C48.8102 32.9306 48.7655 32.8651 48.7057 32.8153L47.4707 31.8496L49.04 31.7474C49.1978 31.7474 49.3371 31.6267 49.4114 31.4781L49.95 30.0017L50.5257 31.4781C50.6092 31.6917 50.8507 31.7939 51.0735 31.7103C51.2964 31.6267 51.3892 31.3853 51.3057 31.1624L50.73 29.6767C50.6 29.3703 50.3121 29.1753 49.9685 29.1753C49.625 29.1753 49.3278 29.3796 49.2071 29.686L48.7335 30.921L47.415 31.0046C47.0714 31.0417 46.7835 31.2739 46.6907 31.5989C46.5978 31.9146 46.7092 32.2489 46.96 32.4532L47.9814 33.2796L47.6935 34.5146C47.6007 34.8303 47.7121 35.1646 47.9907 35.3689C48.2692 35.5824 48.6314 35.5824 48.9007 35.406L49.9871 34.6817L51.0735 35.3967C51.2035 35.4896 51.3707 35.5267 51.5192 35.5267C51.6864 35.5267 51.8442 35.4803 51.9835 35.3781C52.2528 35.1831 52.3642 34.8396 52.2807 34.5146C52.225 34.2917 52.0207 34.1339 51.7978 34.1989V34.2174V34.2267Z" fill="white"/>
<path d="M52.8654 32.1649H52.2897V31.6171C52.2897 31.3849 52.104 31.1992 51.8718 31.1992C51.6397 31.1992 51.454 31.3849 51.454 31.6171V32.1649H50.9247C50.6926 32.1649 50.5068 32.3506 50.5068 32.5828C50.5068 32.8149 50.6926 33.0006 50.9247 33.0006H51.454V33.5485C51.454 33.7806 51.6397 33.9664 51.8718 33.9664C52.104 33.9664 52.2897 33.7806 52.2897 33.5485V33.0006H52.8654C53.0976 33.0006 53.2833 32.8149 53.2833 32.5828C53.2833 32.3506 53.0976 32.1649 52.8654 32.1649Z" fill="white"/>
<path d="M62.6193 37.0273V30.1908L61.1288 31.0928V29.9983L62.6193 29.1073H63.6148V37.0273H62.6193ZM68.3585 37.1923C67.8452 37.1923 67.3868 37.0768 66.9835 36.8458C66.5838 36.6112 66.2667 36.294 66.032 35.8943C65.801 35.491 65.6855 35.0327 65.6855 34.5193V31.6153C65.6855 31.102 65.801 30.6437 66.032 30.2403C66.2667 29.837 66.5838 29.5198 66.9835 29.2888C67.3868 29.0578 67.8452 28.9423 68.3585 28.9423C68.8718 28.9423 69.3302 29.0578 69.7335 29.2888C70.1368 29.5198 70.454 29.837 70.685 30.2403C70.916 30.6437 71.0315 31.102 71.0315 31.6153V34.5193C71.0315 35.0327 70.916 35.491 70.685 35.8943C70.454 36.294 70.1368 36.6112 69.7335 36.8458C69.3302 37.0768 68.8718 37.1923 68.3585 37.1923ZM68.3585 36.2518C68.6702 36.2518 68.9525 36.1767 69.2055 36.0263C69.4585 35.876 69.6602 35.6743 69.8105 35.4213C69.9608 35.1647 70.036 34.8823 70.036 34.5743V31.5548C70.036 31.2432 69.9608 30.9608 69.8105 30.7078C69.6602 30.4548 69.4585 30.2532 69.2055 30.1028C68.9525 29.9525 68.6702 29.8773 68.3585 29.8773C68.0505 29.8773 67.7682 29.9525 67.5115 30.1028C67.2585 30.2532 67.0568 30.4548 66.9065 30.7078C66.7562 30.9608 66.681 31.2432 66.681 31.5548V34.5743C66.681 34.8823 66.7562 35.1647 66.9065 35.4213C67.0568 35.6743 67.2585 35.876 67.5115 36.0263C67.7682 36.1767 68.0505 36.2518 68.3585 36.2518ZM75.2222 37.1923C74.7089 37.1923 74.2506 37.0768 73.8472 36.8458C73.4476 36.6112 73.1304 36.294 72.8957 35.8943C72.6647 35.491 72.5492 35.0327 72.5492 34.5193V31.6153C72.5492 31.102 72.6647 30.6437 72.8957 30.2403C73.1304 29.837 73.4476 29.5198 73.8472 29.2888C74.2506 29.0578 74.7089 28.9423 75.2222 28.9423C75.7356 28.9423 76.1939 29.0578 76.5972 29.2888C77.0006 29.5198 77.3177 29.837 77.5487 30.2403C77.7797 30.6437 77.8952 31.102 77.8952 31.6153V34.5193C77.8952 35.0327 77.7797 35.491 77.5487 35.8943C77.3177 36.294 77.0006 36.6112 76.5972 36.8458C76.1939 37.0768 75.7356 37.1923 75.2222 37.1923ZM75.2222 36.2518C75.5339 36.2518 75.8162 36.1767 76.0692 36.0263C76.3222 35.876 76.5239 35.6743 76.6742 35.4213C76.8246 35.1647 76.8997 34.8823 76.8997 34.5743V31.5548C76.8997 31.2432 76.8246 30.9608 76.6742 30.7078C76.5239 30.4548 76.3222 30.2532 76.0692 30.1028C75.8162 29.9525 75.5339 29.8773 75.2222 29.8773C74.9142 29.8773 74.6319 29.9525 74.3752 30.1028C74.1222 30.2532 73.9206 30.4548 73.7702 30.7078C73.6199 30.9608 73.5447 31.2432 73.5447 31.5548V34.5743C73.5447 34.8823 73.6199 35.1647 73.7702 35.4213C73.9206 35.6743 74.1222 35.876 74.3752 36.0263C74.6319 36.1767 74.9142 36.2518 75.2222 36.2518ZM80.293 37.0273L79.633 36.3673L86.904 29.1073L87.564 29.7673L80.293 37.0273ZM85.914 37.1923C85.551 37.1923 85.2192 37.1043 84.9185 36.9283C84.6215 36.7487 84.3832 36.5103 84.2035 36.2133C84.0238 35.9127 83.934 35.579 83.934 35.2123C83.934 34.853 84.0257 34.523 84.209 34.2223C84.3923 33.9217 84.6343 33.6815 84.935 33.5018C85.2357 33.3222 85.562 33.2323 85.914 33.2323C86.277 33.2323 86.6088 33.3222 86.9095 33.5018C87.2102 33.6778 87.4485 33.9162 87.6245 34.2168C87.8042 34.5138 87.894 34.8457 87.894 35.2123C87.894 35.579 87.8042 35.9127 87.6245 36.2133C87.4485 36.5103 87.2102 36.7487 86.9095 36.9283C86.6088 37.1043 86.277 37.1923 85.914 37.1923ZM85.914 36.3288C86.1157 36.3288 86.3008 36.2775 86.4695 36.1748C86.6418 36.0722 86.7775 35.9365 86.8765 35.7678C86.9792 35.5992 87.0305 35.414 87.0305 35.2123C87.0305 35.0107 86.9792 34.8255 86.8765 34.6568C86.7775 34.4845 86.6418 34.3488 86.4695 34.2498C86.3008 34.1472 86.1157 34.0958 85.914 34.0958C85.7123 34.0958 85.5272 34.1472 85.3585 34.2498C85.1898 34.3488 85.0542 34.4845 84.9515 34.6568C84.8488 34.8255 84.7975 35.0107 84.7975 35.2123C84.7975 35.414 84.8488 35.5992 84.9515 35.7678C85.0542 35.9365 85.1898 36.0722 85.3585 36.1748C85.5272 36.2775 85.7123 36.3288 85.914 36.3288ZM81.283 32.9023C80.92 32.9023 80.5882 32.8143 80.2875 32.6383C79.9868 32.4587 79.7467 32.2203 79.567 31.9233C79.391 31.6227 79.303 31.289 79.303 30.9223C79.303 30.563 79.3947 30.233 79.578 29.9323C79.7613 29.6317 80.0033 29.3915 80.304 29.2118C80.6047 29.0322 80.931 28.9423 81.283 28.9423C81.646 28.9423 81.976 29.0322 82.273 29.2118C82.5737 29.3878 82.8138 29.6262 82.9935 29.9268C83.1732 30.2238 83.263 30.5557 83.263 30.9223C83.263 31.289 83.1732 31.6227 82.9935 31.9233C82.8138 32.2203 82.5737 32.4587 82.273 32.6383C81.976 32.8143 81.646 32.9023 81.283 32.9023ZM81.283 32.0388C81.4847 32.0388 81.6698 31.9875 81.8385 31.8848C82.0108 31.7822 82.1465 31.6465 82.2455 31.4778C82.3482 31.3092 82.3995 31.124 82.3995 30.9223C82.3995 30.7207 82.3482 30.5355 82.2455 30.3668C82.1465 30.1945 82.0108 30.0588 81.8385 29.9598C81.6698 29.8572 81.4847 29.8058 81.283 29.8058C81.0813 29.8058 80.8962 29.8572 80.7275 29.9598C80.5588 30.0588 80.4232 30.1945 80.3205 30.3668C80.2178 30.5355 80.1665 30.7207 80.1665 30.9223C80.1665 31.124 80.2178 31.3092 80.3205 31.4778C80.4232 31.6465 80.5588 31.7822 80.7275 31.8848C80.8962 31.9875 81.0813 32.0388 81.283 32.0388ZM92.9162 37.1868C92.3625 37.1868 91.8932 37.0365 91.5082 36.7358C91.1232 36.4352 90.8592 36.0318 90.7162 35.5258L91.6897 35.2948C91.7483 35.5625 91.8895 35.7898 92.1132 35.9768C92.3405 36.1638 92.6008 36.2573 92.8942 36.2573C93.0848 36.2573 93.2792 36.2115 93.4772 36.1198C93.6752 36.0245 93.8273 35.8705 93.9337 35.6578C94.007 35.5112 94.0492 35.3498 94.0602 35.1738C94.0712 34.9942 94.0767 34.7833 94.0767 34.5413V29.1073H95.0667V34.5413C95.0667 34.7687 95.0648 34.9722 95.0612 35.1518C95.0612 35.3315 95.0428 35.5038 95.0062 35.6688C94.9732 35.8302 94.9072 35.9952 94.8082 36.1638C94.6102 36.5122 94.3443 36.7707 94.0107 36.9393C93.6807 37.1043 93.3158 37.1868 92.9162 37.1868ZM99.2256 37.1923C98.6353 37.1923 98.1256 37.0585 97.6966 36.7908C97.2713 36.5232 96.9431 36.1528 96.7121 35.6798C96.4811 35.2068 96.3656 34.6642 96.3656 34.0518C96.3656 33.4285 96.483 32.8822 96.7176 32.4128C96.9523 31.9435 97.2841 31.5787 97.7131 31.3183C98.1421 31.0543 98.6463 30.9223 99.2256 30.9223C99.8196 30.9223 100.331 31.0562 100.76 31.3238C101.189 31.5878 101.517 31.9563 101.745 32.4293C101.976 32.8987 102.091 33.4395 102.091 34.0518C102.091 34.6715 101.976 35.2178 101.745 35.6908C101.514 36.1602 101.184 36.5287 100.755 36.7963C100.326 37.0603 99.816 37.1923 99.2256 37.1923ZM99.2256 36.2628C99.8416 36.2628 100.3 36.0575 100.601 35.6468C100.901 35.2362 101.052 34.7045 101.052 34.0518C101.052 33.3808 100.899 32.8473 100.595 32.4513C100.291 32.0517 99.8343 31.8518 99.2256 31.8518C98.8113 31.8518 98.4703 31.9453 98.2026 32.1323C97.935 32.3193 97.7351 32.5778 97.6031 32.9078C97.4711 33.2378 97.4051 33.6192 97.4051 34.0518C97.4051 34.7192 97.5591 35.2545 97.8671 35.6578C98.1751 36.0612 98.628 36.2628 99.2256 36.2628ZM106.008 37.1923C105.451 37.1923 104.981 37.0548 104.6 36.7798C104.219 36.5012 103.929 36.1253 103.731 35.6523C103.537 35.1757 103.44 34.6422 103.44 34.0518C103.44 33.4542 103.537 32.9188 103.731 32.4458C103.929 31.9728 104.219 31.6007 104.6 31.3293C104.985 31.058 105.456 30.9223 106.014 30.9223C106.564 30.9223 107.037 31.0598 107.433 31.3348C107.832 31.6062 108.138 31.9783 108.351 32.4513C108.564 32.9243 108.67 33.4578 108.67 34.0518C108.67 34.6458 108.564 35.1793 108.351 35.6523C108.138 36.1253 107.832 36.5012 107.433 36.7798C107.037 37.0548 106.562 37.1923 106.008 37.1923ZM103.275 37.0273V29.1073H104.259V32.6548H104.149V37.0273H103.275ZM105.887 36.2958C106.279 36.2958 106.604 36.1968 106.861 35.9988C107.117 35.8008 107.31 35.5332 107.438 35.1958C107.566 34.8548 107.631 34.4735 107.631 34.0518C107.631 33.6338 107.566 33.2562 107.438 32.9188C107.313 32.5815 107.119 32.3138 106.855 32.1158C106.595 31.9178 106.263 31.8188 105.86 31.8188C105.475 31.8188 105.156 31.9142 104.903 32.1048C104.65 32.2918 104.461 32.554 104.336 32.8913C104.211 33.225 104.149 33.6118 104.149 34.0518C104.149 34.4845 104.21 34.8713 104.331 35.2123C104.455 35.5497 104.646 35.8155 104.903 36.0098C105.159 36.2005 105.487 36.2958 105.887 36.2958ZM114.844 37.1923C114.283 37.1923 113.777 37.097 113.326 36.9063C112.879 36.7157 112.509 36.4443 112.215 36.0923C111.926 35.7367 111.737 35.3168 111.649 34.8328L112.661 34.6733C112.789 35.172 113.055 35.5625 113.458 35.8448C113.865 36.1235 114.344 36.2628 114.894 36.2628C115.25 36.2628 115.57 36.2078 115.856 36.0978C116.146 35.9842 116.375 35.8228 116.544 35.6138C116.713 35.4048 116.797 35.1573 116.797 34.8713C116.797 34.6953 116.766 34.545 116.703 34.4203C116.645 34.292 116.562 34.1838 116.456 34.0958C116.353 34.0042 116.236 33.9272 116.104 33.8648C115.972 33.8025 115.834 33.7512 115.691 33.7108L113.673 33.1113C113.453 33.0453 113.24 32.9628 113.035 32.8638C112.83 32.7612 112.646 32.6347 112.485 32.4843C112.324 32.3303 112.195 32.147 112.1 31.9343C112.005 31.718 111.957 31.4632 111.957 31.1698C111.957 30.7005 112.078 30.3008 112.32 29.9708C112.566 29.6372 112.897 29.3823 113.315 29.2063C113.733 29.0303 114.205 28.9442 114.729 28.9478C115.261 28.9515 115.735 29.0468 116.153 29.2338C116.575 29.4172 116.923 29.6812 117.198 30.0258C117.477 30.3705 117.664 30.783 117.759 31.2633L116.72 31.4448C116.665 31.1222 116.542 30.8453 116.351 30.6143C116.164 30.3797 115.93 30.2 115.647 30.0753C115.365 29.947 115.055 29.881 114.718 29.8773C114.395 29.8737 114.104 29.925 113.843 30.0313C113.583 30.1377 113.376 30.2862 113.222 30.4768C113.068 30.6638 112.991 30.8802 112.991 31.1258C112.991 31.3678 113.061 31.564 113.2 31.7143C113.339 31.861 113.51 31.9783 113.711 32.0663C113.917 32.1507 114.117 32.2203 114.311 32.2753L115.818 32.7098C115.99 32.7575 116.188 32.8235 116.412 32.9078C116.639 32.9922 116.859 33.1113 117.072 33.2653C117.285 33.4157 117.461 33.6173 117.6 33.8703C117.739 34.1197 117.809 34.435 117.809 34.8163C117.809 35.1977 117.732 35.5368 117.578 35.8338C117.428 36.1308 117.217 36.3802 116.945 36.5818C116.674 36.7798 116.359 36.9302 115.999 37.0328C115.64 37.1392 115.255 37.1923 114.844 37.1923ZM121.196 37.1813C120.814 37.1813 120.486 37.1208 120.211 36.9998C119.94 36.8788 119.714 36.7175 119.535 36.5158C119.355 36.3142 119.214 36.0905 119.111 35.8448C119.008 35.5992 118.935 35.348 118.891 35.0913C118.851 34.8347 118.831 34.5945 118.831 34.3708V31.0873H119.821V34.0628C119.821 34.3415 119.846 34.611 119.898 34.8713C119.949 35.1317 120.035 35.3663 120.156 35.5753C120.281 35.7843 120.446 35.9493 120.651 36.0703C120.86 36.1913 121.12 36.2518 121.432 36.2518C121.678 36.2518 121.901 36.2097 122.103 36.1253C122.305 36.041 122.477 35.9163 122.62 35.7513C122.763 35.5827 122.873 35.37 122.95 35.1133C123.027 34.8567 123.066 34.5578 123.066 34.2168L123.709 34.4148C123.709 34.9868 123.605 35.48 123.396 35.8943C123.19 36.3087 122.899 36.6277 122.521 36.8513C122.147 37.0713 121.705 37.1813 121.196 37.1813ZM123.176 37.0273V35.4378H123.066V31.0873H124.05V37.0273H123.176ZM128.071 37.1923C127.469 37.1923 126.958 37.0585 126.536 36.7908C126.118 36.5195 125.799 36.1473 125.579 35.6743C125.359 35.2013 125.245 34.6623 125.238 34.0573C125.245 33.4377 125.361 32.8932 125.585 32.4238C125.812 31.9508 126.136 31.5823 126.558 31.3183C126.98 31.0543 127.488 30.9223 128.082 30.9223C128.709 30.9223 129.248 31.0763 129.699 31.3843C130.153 31.6923 130.458 32.114 130.612 32.6493L129.644 32.9408C129.519 32.5962 129.315 32.3285 129.033 32.1378C128.754 31.9472 128.434 31.8518 128.071 31.8518C127.664 31.8518 127.328 31.9472 127.064 32.1378C126.8 32.3248 126.604 32.5852 126.476 32.9188C126.347 33.2488 126.281 33.6283 126.278 34.0573C126.285 34.7173 126.437 35.2508 126.734 35.6578C127.035 36.0612 127.48 36.2628 128.071 36.2628C128.459 36.2628 128.782 36.1748 129.039 35.9988C129.295 35.8192 129.49 35.5607 129.622 35.2233L130.612 35.4818C130.406 36.0355 130.085 36.459 129.649 36.7523C129.213 37.0457 128.687 37.1923 128.071 37.1923ZM134.053 37.1923C133.452 37.1923 132.941 37.0585 132.519 36.7908C132.101 36.5195 131.782 36.1473 131.562 35.6743C131.342 35.2013 131.228 34.6623 131.221 34.0573C131.228 33.4377 131.344 32.8932 131.567 32.4238C131.795 31.9508 132.119 31.5823 132.541 31.3183C132.963 31.0543 133.47 30.9223 134.064 30.9223C134.691 30.9223 135.23 31.0763 135.681 31.3843C136.136 31.6923 136.44 32.114 136.594 32.6493L135.626 32.9408C135.502 32.5962 135.298 32.3285 135.016 32.1378C134.737 31.9472 134.416 31.8518 134.053 31.8518C133.646 31.8518 133.311 31.9472 133.047 32.1378C132.783 32.3248 132.587 32.5852 132.458 32.9188C132.33 33.2488 132.264 33.6283 132.26 34.0573C132.268 34.7173 132.42 35.2508 132.717 35.6578C133.018 36.0612 133.463 36.2628 134.053 36.2628C134.442 36.2628 134.765 36.1748 135.021 35.9988C135.278 35.8192 135.472 35.5607 135.604 35.2233L136.594 35.4818C136.389 36.0355 136.068 36.459 135.632 36.7523C135.196 37.0457 134.669 37.1923 134.053 37.1923ZM140.108 37.1923C139.525 37.1923 139.015 37.064 138.579 36.8073C138.146 36.547 137.809 36.1858 137.567 35.7238C137.325 35.2582 137.204 34.7155 137.204 34.0958C137.204 33.4468 137.323 32.8858 137.561 32.4128C137.8 31.9362 138.131 31.5695 138.557 31.3128C138.986 31.0525 139.488 30.9223 140.064 30.9223C140.661 30.9223 141.169 31.0598 141.587 31.3348C142.009 31.6098 142.324 32.0022 142.533 32.5118C142.746 33.0215 142.838 33.6283 142.808 34.3323H141.818V33.9803C141.807 33.2507 141.659 32.7062 141.373 32.3468C141.087 31.9838 140.661 31.8023 140.097 31.8023C139.492 31.8023 139.032 31.9967 138.716 32.3853C138.401 32.774 138.243 33.3313 138.243 34.0573C138.243 34.7577 138.401 35.3003 138.716 35.6853C139.032 36.0703 139.481 36.2628 140.064 36.2628C140.456 36.2628 140.797 36.173 141.087 35.9933C141.376 35.8137 141.604 35.5552 141.769 35.2178L142.709 35.5423C142.478 36.0667 142.13 36.4737 141.664 36.7633C141.202 37.0493 140.683 37.1923 140.108 37.1923ZM137.913 34.3323V33.5458H142.302V34.3323H137.913ZM146.255 37.1868C145.547 37.1868 144.966 37.0328 144.511 36.7248C144.06 36.4132 143.783 35.9787 143.681 35.4213L144.682 35.2618C144.762 35.5845 144.948 35.8412 145.237 36.0318C145.527 36.2188 145.886 36.3123 146.315 36.3123C146.722 36.3123 147.041 36.228 147.272 36.0593C147.503 35.8907 147.619 35.6615 147.619 35.3718C147.619 35.2032 147.58 35.0675 147.503 34.9648C147.426 34.8585 147.267 34.7595 147.025 34.6678C146.786 34.5762 146.425 34.4662 145.941 34.3378C145.417 34.1985 145.004 34.0537 144.704 33.9033C144.403 33.753 144.189 33.5788 144.06 33.3808C143.932 33.1828 143.868 32.9427 143.868 32.6603C143.868 32.312 143.963 32.0077 144.154 31.7473C144.344 31.4833 144.61 31.2798 144.951 31.1368C145.296 30.9938 145.696 30.9223 146.15 30.9223C146.601 30.9223 147.005 30.9938 147.36 31.1368C147.716 31.2798 148.002 31.4833 148.218 31.7473C148.438 32.0077 148.568 32.312 148.609 32.6603L147.608 32.8418C147.56 32.5228 147.406 32.2717 147.146 32.0883C146.889 31.905 146.557 31.8078 146.15 31.7968C145.765 31.7822 145.452 31.85 145.21 32.0003C144.971 32.1507 144.852 32.3542 144.852 32.6108C144.852 32.7538 144.896 32.8767 144.984 32.9793C145.076 33.082 145.243 33.1792 145.485 33.2708C145.73 33.3625 146.086 33.467 146.552 33.5843C147.076 33.7163 147.489 33.8612 147.789 34.0188C148.094 34.1728 148.31 34.3562 148.438 34.5688C148.567 34.7778 148.631 35.0363 148.631 35.3443C148.631 35.9163 148.42 36.3673 147.998 36.6973C147.577 37.0237 146.995 37.1868 146.255 37.1868ZM152.066 37.1868C151.358 37.1868 150.777 37.0328 150.322 36.7248C149.871 36.4132 149.595 35.9787 149.492 35.4213L150.493 35.2618C150.574 35.5845 150.759 35.8412 151.048 36.0318C151.338 36.2188 151.697 36.3123 152.126 36.3123C152.533 36.3123 152.852 36.228 153.083 36.0593C153.314 35.8907 153.43 35.6615 153.43 35.3718C153.43 35.2032 153.391 35.0675 153.314 34.9648C153.237 34.8585 153.078 34.7595 152.836 34.6678C152.598 34.5762 152.236 34.4662 151.752 34.3378C151.228 34.1985 150.816 34.0537 150.515 33.9033C150.214 33.753 150 33.5788 149.871 33.3808C149.743 33.1828 149.679 32.9427 149.679 32.6603C149.679 32.312 149.774 32.0077 149.965 31.7473C150.156 31.4833 150.421 31.2798 150.762 31.1368C151.107 30.9938 151.507 30.9223 151.961 30.9223C152.412 30.9223 152.816 30.9938 153.171 31.1368C153.527 31.2798 153.813 31.4833 154.029 31.7473C154.249 32.0077 154.38 32.312 154.42 32.6603L153.419 32.8418C153.371 32.5228 153.217 32.2717 152.957 32.0883C152.7 31.905 152.368 31.8078 151.961 31.7968C151.576 31.7822 151.263 31.85 151.021 32.0003C150.783 32.1507 150.663 32.3542 150.663 32.6108C150.663 32.7538 150.707 32.8767 150.795 32.9793C150.887 33.082 151.054 33.1792 151.296 33.2708C151.542 33.3625 151.897 33.467 152.363 33.5843C152.887 33.7163 153.3 33.8612 153.6 34.0188C153.905 34.1728 154.121 34.3562 154.249 34.5688C154.378 34.7778 154.442 35.0363 154.442 35.3443C154.442 35.9163 154.231 36.3673 153.809 36.6973C153.388 37.0237 152.807 37.1868 152.066 37.1868Z" fill="black"/>
<defs>
<clipPath id="clip0_99_195">
<rect width="13" height="10" fill="white" transform="translate(43.4688 9.02734)"/>
</clipPath>
</defs>
</svg>
