<svg width="110" height="28" viewBox="0 0 110 28" fill="none" xmlns="http://www.w3.org/2000/svg">
<g clip-path="url(#clip0_99_238)">
<mask id="mask0_99_238" style="mask-type:luminance" maskUnits="userSpaceOnUse" x="0" y="0" width="110" height="28">
<path d="M109.469 0.527344H0.46875V27.5273H109.469V0.527344Z" fill="white"/>
</mask>
<g mask="url(#mask0_99_238)">
<mask id="mask1_99_238" style="mask-type:luminance" maskUnits="userSpaceOnUse" x="0" y="0" width="110" height="28">
<path d="M109.469 0.527344H0.46875V27.5273H109.469V0.527344Z" fill="white"/>
</mask>
<g mask="url(#mask1_99_238)">
<path d="M45.6505 6.83494V21.2179H43.2368V9.93128H43.2046L38.8922 21.2179H37.283L32.874 9.93128H32.8419V21.2179H30.6212V6.83494H34.0969L38.0876 17.489H38.1519L42.3679 6.83494H45.6505ZM47.6458 7.93365C47.6458 7.53411 47.7744 7.20117 48.0641 6.93482C48.3537 6.66847 48.6756 6.5353 49.0617 6.5353C49.4801 6.5353 49.8341 6.66847 50.0915 6.93482C50.349 7.20117 50.51 7.53411 50.51 7.93365C50.51 8.33317 50.3812 8.66611 50.0915 8.93245C49.802 9.1988 49.4801 9.33197 49.0617 9.33197C48.6434 9.33197 48.3216 9.1988 48.0641 8.93245C47.8067 8.63282 47.6458 8.29988 47.6458 7.93365ZM50.2526 10.8968V21.2179H47.9032V10.8968H50.2526ZM57.3647 19.4533C57.7188 19.4533 58.105 19.3868 58.5234 19.187C58.9417 19.0205 59.328 18.7874 59.682 18.521V20.7851C59.2957 21.0182 58.8774 21.1847 58.3947 21.2846C57.9119 21.3843 57.397 21.451 56.8177 21.451C55.3373 21.451 54.1466 20.9849 53.2455 20.0194C52.3122 19.0539 51.8616 17.8219 51.8616 16.357C51.8616 14.6923 52.3443 13.3272 53.2777 12.2618C54.211 11.1964 55.5305 10.6637 57.2683 10.6637C57.7188 10.6637 58.1693 10.7303 58.5877 10.8302C59.0383 10.9301 59.3923 11.0966 59.6498 11.2297V13.5603C59.2957 13.294 58.9096 13.0609 58.5556 12.9277C58.1693 12.7945 57.7832 12.6947 57.397 12.6947C56.4637 12.6947 55.7235 12.9943 55.1442 13.6269C54.565 14.2595 54.3075 15.0918 54.3075 16.1572C54.3075 17.1893 54.5971 18.0217 55.1442 18.5877C55.6914 19.1536 56.4315 19.4533 57.3647 19.4533ZM66.3437 10.7303C66.5369 10.7303 66.6978 10.7303 66.8586 10.7636C67.0195 10.7969 67.1482 10.8302 67.2448 10.8635V13.3272C67.1161 13.2274 66.9552 13.1275 66.6978 13.0609C66.4403 12.9943 66.1828 12.9277 65.8288 12.9277C65.2494 12.9277 64.7668 13.1941 64.3805 13.6935C63.9944 14.1929 63.769 14.9586 63.769 16.0241V21.2179H61.4199V10.8968H63.769V12.5282H63.8013C64.0265 11.9622 64.3484 11.5294 64.7668 11.1964C65.2174 10.8968 65.7323 10.7303 66.3437 10.7303ZM67.3736 16.2238C67.3736 14.5258 67.8562 13.1608 68.7574 12.162C69.6907 11.1631 70.9779 10.6637 72.6192 10.6637C74.1639 10.6637 75.3869 11.1299 76.2558 12.0954C77.1248 13.0609 77.5753 14.3594 77.5753 15.9908C77.5753 17.6554 77.0927 18.9872 76.1915 19.986C75.2582 20.9849 74.0031 21.4842 72.394 21.4842C70.8493 21.4842 69.6263 21.0182 68.7252 20.0859C67.8241 19.1204 67.3736 17.8219 67.3736 16.2238ZM69.8195 16.1239C69.8195 17.1893 70.0447 18.0217 70.5273 18.5877C71.0102 19.1536 71.686 19.4533 72.5549 19.4533C73.3916 19.4533 74.0675 19.187 74.518 18.5877C74.9685 18.0217 75.1939 17.1893 75.1939 16.0574C75.1939 14.9586 74.9685 14.1263 74.518 13.527C74.0675 12.961 73.3916 12.6614 72.5871 12.6614C71.7182 12.6614 71.0745 12.961 70.5918 13.5603C70.0447 14.1929 69.8195 15.0252 69.8195 16.1239ZM81.0833 13.6269C81.0833 13.9598 81.1797 14.2595 81.4051 14.4592C81.6303 14.659 82.0809 14.8921 82.821 15.1917C83.7544 15.5912 84.4302 16.0241 84.7842 16.4902C85.1703 16.9897 85.3635 17.5555 85.3635 18.2547C85.3635 19.2203 85.0094 19.986 84.2693 20.5853C83.5613 21.1847 82.5635 21.451 81.3407 21.451C80.9223 21.451 80.4718 21.3843 79.9569 21.2846C79.4419 21.1847 79.0235 21.0514 78.6695 20.885V18.4878C79.088 18.7874 79.5707 19.0539 80.0533 19.2203C80.5361 19.3868 80.9867 19.4867 81.4051 19.4867C81.92 19.4867 82.3383 19.42 82.5635 19.2535C82.821 19.0871 82.9498 18.8541 82.9498 18.4878C82.9498 18.1549 82.821 17.8886 82.5635 17.6221C82.3061 17.3891 81.7912 17.1227 81.0833 16.823C80.2144 16.457 79.6029 16.0241 79.2489 15.5579C78.8949 15.0918 78.7017 14.4925 78.7017 13.7601C78.7017 12.8278 79.0557 12.0621 79.7638 11.4628C80.4718 10.8635 81.4051 10.5639 82.5315 10.5639C82.8855 10.5639 83.2716 10.5971 83.6899 10.697C84.1084 10.7969 84.4945 10.8968 84.7842 10.9967V13.3605C84.4623 13.1608 84.1084 12.961 83.6899 12.7945C83.2716 12.6281 82.8532 12.5615 82.4671 12.5615C82.0166 12.5615 81.6625 12.6614 81.4372 12.8278C81.2119 13.0609 81.0833 13.294 81.0833 13.6269ZM86.3612 16.2238C86.3612 14.5258 86.8439 13.1608 87.745 12.162C88.6783 11.1631 89.9656 10.6637 91.6069 10.6637C93.1516 10.6637 94.3745 11.1299 95.2435 12.0954C96.1124 13.0609 96.563 14.3594 96.563 15.9908C96.563 17.6554 96.0802 18.9872 95.1791 19.986C94.2457 20.9849 92.9907 21.4842 91.3816 21.4842C89.8368 21.4842 88.614 21.0182 87.7128 20.0859C86.8439 19.1204 86.3612 17.8219 86.3612 16.2238ZM88.8069 16.1239C88.8069 17.1893 89.0323 18.0217 89.515 18.5877C89.9978 19.1536 90.6736 19.4533 91.5425 19.4533C92.3792 19.4533 93.055 19.187 93.5056 18.5877C93.9562 18.0217 94.1814 17.1893 94.1814 16.0574C94.1814 14.9586 93.9562 14.1263 93.5056 13.527C93.055 12.961 92.3792 12.6614 91.5746 12.6614C90.7057 12.6614 90.0621 12.961 89.5793 13.5603C89.0644 14.1929 88.8069 15.0252 88.8069 16.1239ZM104.383 12.8944H100.875V21.2179H98.4938V12.8944H96.8204V10.8968H98.4938V9.46516C98.4938 8.39974 98.8478 7.50082 99.5238 6.80165C100.2 6.10247 101.069 5.76953 102.13 5.76953C102.42 5.76953 102.678 5.80282 102.903 5.80282C103.128 5.80282 103.321 5.86942 103.482 5.93601V8.03351C103.418 8.00022 103.257 7.93364 103.064 7.86705C102.871 7.80046 102.645 7.76717 102.388 7.76717C101.905 7.76717 101.519 7.93364 101.262 8.23328C101.004 8.53293 100.875 9.03234 100.875 9.63163V10.8635H104.383V8.53293L106.733 7.80046V10.8635H109.114V12.8611H106.733V17.6888C106.733 18.3214 106.861 18.7542 107.054 19.0205C107.28 19.2869 107.634 19.42 108.116 19.42C108.245 19.42 108.406 19.3868 108.599 19.3202C108.792 19.2535 108.953 19.187 109.082 19.0871V21.0848C108.921 21.1847 108.696 21.2512 108.342 21.3178C107.988 21.3843 107.666 21.4177 107.312 21.4177C106.314 21.4177 105.574 21.1513 105.091 20.6186C104.609 20.0859 104.351 19.2535 104.351 18.1549L104.383 12.8944Z" fill="#121212"/>
<path d="M11.4751 2.04102H0.46875V13.4275H11.4751V2.04102Z" fill="#121212"/>
<path d="M23.6373 2.04102H12.6309V13.4275H23.6373V2.04102Z" fill="#121212"/>
<path d="M11.4751 14.625H0.46875V26.0115H11.4751V14.625Z" fill="#121212"/>
<path d="M23.6373 14.625H12.6309V26.0115H23.6373V14.625Z" fill="#121212"/>
</g>
</g>
</g>
<defs>
<clipPath id="clip0_99_238">
<rect width="109" height="27" fill="white" transform="translate(0.46875 0.527344)"/>
</clipPath>
</defs>
</svg>
