<svg width="102" height="26" viewBox="0 0 102 26" fill="none" xmlns="http://www.w3.org/2000/svg">
<g clip-path="url(#clip0_99_252)">
<path d="M39.3008 15.3034V18.8843H41.4993C42.0226 18.8843 42.4558 18.7077 42.7985 18.3543C43.1504 18.0011 43.3267 17.5809 43.3267 17.0939C43.3267 16.6165 43.1504 16.2011 42.7985 15.8478C42.4558 15.485 42.0226 15.3034 41.4993 15.3034H39.3008ZM39.3008 20.1447V24.2987H37.9873V14.043H41.4708C42.3559 14.043 43.1077 14.3391 43.7263 14.9311C44.3546 15.5232 44.6686 16.2442 44.6686 17.0939C44.6686 17.963 44.3546 18.6887 43.7263 19.271C43.1172 19.8537 42.3653 20.1447 41.4708 20.1447H39.3008Z" fill="#121212"/>
<path d="M46.4813 22.15C46.4813 22.4938 46.6263 22.7803 46.9167 23.0093C47.2069 23.2386 47.547 23.3532 47.9375 23.3532C48.4893 23.3532 48.9819 23.148 49.4151 22.7373C49.848 22.3269 50.0646 21.8445 50.0646 21.2906C49.6553 20.966 49.0842 20.8036 48.3515 20.8036C47.8183 20.8036 47.3735 20.9325 47.0167 21.1903C46.6597 21.4482 46.4813 21.7682 46.4813 22.15ZM48.1802 17.0508C49.151 17.0508 49.9171 17.3112 50.4787 17.8314C51.0401 18.352 51.321 19.0657 51.321 19.9728V24.2985H50.0646V23.3246H50.0076C49.465 24.1267 48.7417 24.5277 47.8375 24.5277C47.0666 24.5277 46.4217 24.2985 45.9031 23.8402C45.3842 23.3817 45.125 22.8088 45.125 22.1214C45.125 21.3958 45.3985 20.8179 45.9459 20.3883C46.4931 19.9585 47.2236 19.7436 48.1373 19.7436C48.9176 19.7436 49.5601 19.8869 50.0646 20.1734V19.8725C50.0646 19.4143 49.8838 19.0252 49.5222 18.7053C49.1603 18.3854 48.7369 18.2254 48.2516 18.2254C47.5185 18.2254 46.9381 18.5358 46.5099 19.1564L45.3535 18.4259C45.991 17.5093 46.9332 17.0508 48.1802 17.0508Z" fill="#121212"/>
<path d="M61.0004 24.4145C60.4293 24.4145 59.9558 24.2379 59.58 23.8846C59.2038 23.5313 59.0111 23.0395 59.0017 22.4092V18.4846H57.7739V17.2814H59.0017V15.1328H60.3151V17.2814H62.0284V18.4846H60.3151V21.9796C60.3151 22.4474 60.4054 22.7651 60.5865 22.932C60.767 23.0993 60.9719 23.1827 61.2003 23.1827C61.3049 23.1827 61.4073 23.1708 61.5072 23.1468C61.6071 23.1232 61.6998 23.0921 61.7856 23.0538L62.1997 24.2283C61.857 24.3523 61.4572 24.4145 61.0004 24.4145ZM52.8057 17.2814H54.0621V18.4273H54.1191C54.5093 17.5299 55.3135 17.0809 56.5319 17.0809L56.8032 17.1095V18.4846L56.2178 18.4273C55.6085 18.4273 55.1065 18.6159 54.7116 18.9932C54.3166 19.3704 54.1191 19.8502 54.1191 20.4325V24.2999H52.8057V17.2814Z" fill="#121212"/>
<path d="M63.3555 17.2799H64.6119V18.2539H64.669C64.8687 17.9102 65.1757 17.6238 65.5898 17.3945C66.0038 17.1653 66.4343 17.0508 66.8818 17.0508C67.7383 17.0508 68.3974 17.2966 68.8591 17.7883C69.3205 18.2803 69.5516 18.9798 69.5516 19.8868V24.2985H68.2381V19.9727C68.2095 18.8268 67.6335 18.2539 66.5106 18.2539C65.9871 18.2539 65.5492 18.4665 65.1972 18.8913C64.8451 19.3163 64.669 19.8249 64.669 20.4168V24.2985H63.3555V17.2799Z" fill="#121212"/>
<path d="M72.1353 19.9442H76.147C76.1089 19.4572 75.9115 19.0539 75.5546 18.7338C75.1976 18.414 74.7194 18.254 74.1198 18.254C73.6248 18.254 73.1989 18.4069 72.8419 18.7124C72.4852 19.0181 72.2497 19.4286 72.1353 19.9442ZM74.234 24.5277C73.2062 24.5277 72.3589 24.1746 71.6928 23.4678C71.0265 22.7612 70.6934 21.8685 70.6934 20.7892C70.6934 19.7199 71.0169 18.8294 71.6641 18.1179C72.3114 17.4066 73.1394 17.0508 74.1483 17.0508C75.1856 17.0508 76.0114 17.3875 76.6252 18.0607C77.2392 18.7338 77.5461 19.677 77.5461 20.8895L77.5318 21.0328H72.0354C72.0544 21.7203 72.2828 22.2742 72.7207 22.6943C73.1583 23.1147 73.6818 23.3246 74.2911 23.3246C75.1285 23.3246 75.7852 22.9045 76.2613 22.064L77.4318 22.637C77.1178 23.2292 76.6824 23.6922 76.1256 24.0264C75.5688 24.3606 74.9382 24.5277 74.234 24.5277Z" fill="#121212"/>
<path d="M80.0596 24.2992H78.7461V17.2806H80.0025V18.4265H80.0596C80.1928 18.0541 80.4664 17.7367 80.8804 17.474C81.2944 17.2115 81.7014 17.0801 82.1011 17.0801C82.4817 17.0801 82.8053 17.1375 83.0719 17.252L82.6721 18.5268C82.5102 18.4601 82.2533 18.4265 81.9013 18.4265C81.4063 18.4265 80.9754 18.627 80.6093 19.0281C80.2427 19.4292 80.0596 19.8971 80.0596 20.4318V24.2992Z" fill="#121212"/>
<path d="M41.1363 9.03832C40.5506 9.0455 39.9694 8.93884 39.4276 8.72474C38.8858 8.51064 38.3944 8.19349 37.9829 7.7923C37.5585 7.40814 37.2217 6.94328 36.9939 6.42722C36.7661 5.91116 36.6522 5.35516 36.6595 4.7945C36.6525 4.23389 36.7665 3.67798 36.9943 3.16196C37.2221 2.64594 37.5588 2.18105 37.9829 1.79671C38.3924 1.39136 38.8828 1.06997 39.4248 0.851875C39.9667 0.633783 40.5489 0.523513 41.1363 0.527705C41.696 0.520526 42.2516 0.620481 42.7708 0.821758C43.29 1.02304 43.7625 1.32162 44.1607 1.70015L43.3102 2.53236C42.7278 1.99071 41.9462 1.69314 41.1363 1.70475C40.7162 1.69978 40.2996 1.77897 39.913 1.93728C39.5264 2.09559 39.1783 2.32956 38.8907 2.62432C38.5919 2.90965 38.3561 3.25024 38.1976 3.62557C38.0391 4.00091 37.9612 4.40323 37.9686 4.8083C37.9651 5.20875 38.0449 5.60583 38.2032 5.97616C38.3616 6.3465 38.5953 6.6826 38.8907 6.96469C39.4824 7.53211 40.2808 7.85489 41.1161 7.86434C41.9513 7.87379 42.7574 7.56915 43.3628 7.01527C43.7376 6.62031 43.9675 6.11803 44.0174 5.58533H41.1506V4.40828H45.207C45.2469 4.64534 45.2629 4.88554 45.2548 5.12555C45.28 5.6223 45.2003 6.11882 45.0205 6.58509C44.8406 7.05135 44.5644 7.47767 44.2085 7.83828C43.8127 8.23478 43.3346 8.54657 42.8053 8.75334C42.2759 8.96011 41.7073 9.05721 41.1363 9.03832ZM50.5678 8.25668C50.0234 8.75885 49.2985 9.03922 48.5444 9.03922C47.7903 9.03922 47.0653 8.75885 46.5209 8.25668C46.25 8.00386 46.0366 7.69961 45.8943 7.36322C45.752 7.02683 45.6839 6.66565 45.6944 6.3026C45.6842 5.93958 45.7524 5.57849 45.8947 5.24214C46.037 4.90579 46.2502 4.6015 46.5209 4.34851C47.0659 3.8474 47.7906 3.56775 48.5444 3.56775C49.2981 3.56775 50.0228 3.8474 50.5678 4.34851C50.8385 4.6015 51.0517 4.90579 51.194 5.24214C51.3363 5.57849 51.4045 5.93958 51.3943 6.3026C51.4042 6.66599 51.3353 7.02737 51.1922 7.36378C51.0491 7.70019 50.8348 8.00426 50.563 8.25668H50.5678ZM47.4144 7.48884C47.5592 7.63765 47.7342 7.75628 47.9286 7.83737C48.1229 7.91847 48.3325 7.96032 48.5444 7.96032C48.7562 7.96032 48.9658 7.91847 49.1602 7.83737C49.3545 7.75628 49.5295 7.63765 49.6743 7.48884C49.8322 7.33181 49.9558 7.14595 50.0379 6.94222C50.1199 6.73849 50.1588 6.52101 50.1521 6.3026C50.1592 6.08346 50.1205 5.86518 50.0384 5.66065C49.9564 5.45612 49.8326 5.26948 49.6743 5.11176C49.5276 4.96447 49.3514 4.84727 49.1564 4.76721C48.9614 4.68714 48.7516 4.64587 48.5396 4.64587C48.3276 4.64587 48.1177 4.68714 47.9227 4.76721C47.7277 4.84727 47.5516 4.96447 47.4048 5.11176C47.2466 5.26948 47.1228 5.45612 47.0407 5.66065C46.9587 5.86518 46.92 6.08346 46.9271 6.3026C46.921 6.52133 46.9606 6.739 47.0435 6.94275C47.1264 7.1465 47.2509 7.33219 47.4096 7.48884H47.4144ZM56.7885 8.25668C56.2442 8.75885 55.5192 9.03922 54.7651 9.03922C54.011 9.03922 53.2861 8.75885 52.7417 8.25668C52.4707 8.00386 52.2574 7.69961 52.1151 7.36322C51.9728 7.02683 51.9047 6.66565 51.9151 6.3026C51.905 5.93958 51.9732 5.57849 52.1155 5.24214C52.2577 4.90579 52.471 4.6015 52.7417 4.34851C53.2861 3.84634 54.011 3.56598 54.7651 3.56598C55.5192 3.56598 56.2442 3.84634 56.7885 4.34851C57.0593 4.6015 57.2725 4.90579 57.4148 5.24214C57.557 5.57849 57.6253 5.93958 57.6151 6.3026C57.6255 6.66565 57.5575 7.02683 57.4152 7.36322C57.2729 7.69961 57.0595 8.00386 56.7885 8.25668ZM53.6352 7.48884C53.78 7.63765 53.955 7.75628 54.1493 7.83737C54.3437 7.91847 54.5533 7.96032 54.7651 7.96032C54.977 7.96032 55.1866 7.91847 55.3809 7.83737C55.5753 7.75628 55.7503 7.63765 55.8951 7.48884C56.053 7.33181 56.1766 7.14595 56.2586 6.94222C56.3407 6.73849 56.3795 6.52101 56.3729 6.3026C56.3799 6.08346 56.3413 5.86518 56.2592 5.66065C56.1771 5.45612 56.0533 5.26948 55.8951 5.11176C55.7484 4.96447 55.5722 4.84727 55.3772 4.76721C55.1822 4.68714 54.9724 4.64587 54.7603 4.64587C54.5483 4.64587 54.3385 4.68714 54.1435 4.76721C53.9485 4.84727 53.7723 4.96447 53.6256 5.11176C53.4674 5.26948 53.3435 5.45612 53.2615 5.66065C53.1794 5.86518 53.1408 6.08346 53.1478 6.3026C53.1418 6.52133 53.1814 6.739 53.2643 6.94275C53.3471 7.1465 53.4716 7.33219 53.6304 7.48884H53.6352ZM60.8784 11.4935C60.3057 11.5111 59.7441 11.339 59.2873 11.0062C58.8818 10.7128 58.5624 10.3231 58.3604 9.87513L59.4498 9.43833C59.5683 9.70602 59.7538 9.94135 59.9897 10.1234C60.2422 10.3193 60.559 10.422 60.8832 10.4131C61.0887 10.4251 61.2945 10.3944 61.4866 10.323C61.6788 10.2516 61.8526 10.1412 61.9964 9.99927C62.2842 9.66513 62.4264 9.23667 62.3929 8.80383V8.40841H62.3499C62.1679 8.61651 61.9379 8.78095 61.6784 8.88869C61.4188 8.99643 61.1367 9.04451 60.8545 9.02912C60.4958 9.03017 60.1407 8.95961 59.8118 8.82191C59.4828 8.68421 59.1871 8.48235 58.9433 8.2291C58.6788 7.97786 58.47 7.67759 58.3296 7.34645C58.1892 7.01531 58.12 6.6602 58.1263 6.3026C58.1197 5.94291 58.1887 5.58564 58.3291 5.25222C58.4695 4.91881 58.6784 4.61612 58.9433 4.36231C59.1865 4.108 59.482 3.90514 59.811 3.76662C60.14 3.6281 60.4954 3.55695 60.8545 3.55768C61.1584 3.55717 61.4587 3.62156 61.7336 3.74619C61.9715 3.84615 62.1835 3.99528 62.3547 4.18299H62.3977V3.74619H63.5826V8.6429C63.6138 9.03026 63.5625 9.41967 63.4319 9.7873C63.3013 10.1549 63.0941 10.493 62.823 10.7809C62.5647 11.0186 62.2596 11.2042 61.9256 11.3266C61.5916 11.449 61.2355 11.5057 60.8784 11.4935ZM60.9644 7.96242C61.1684 7.96674 61.3709 7.92778 61.5575 7.84832C61.7441 7.76886 61.9103 7.65084 62.0442 7.50264C62.339 7.17754 62.4944 6.7568 62.4789 6.32559C62.4966 5.8871 62.3413 5.4584 62.0442 5.12555C61.9105 4.9771 61.7444 4.85891 61.5577 4.77943C61.371 4.69994 61.1684 4.66113 60.9644 4.66576C60.7548 4.66162 60.5467 4.70048 60.3539 4.77976C60.1611 4.85904 59.9881 4.97692 59.8464 5.12555C59.5303 5.44644 59.3586 5.87438 59.3686 6.31639C59.3637 6.5332 59.4034 6.7488 59.4854 6.9508C59.5674 7.15279 59.6901 7.33721 59.8464 7.49344C59.9874 7.64351 60.1601 7.76295 60.3529 7.84381C60.5456 7.92467 60.7541 7.96511 60.9644 7.96242ZM65.6897 0.835761V8.8728H64.4426V0.835761H65.6897ZM69.1106 9.03832C68.7371 9.04756 68.3657 8.98249 68.0196 8.84721C67.6735 8.71192 67.3601 8.50931 67.0991 8.25209C66.8343 7.99674 66.6262 7.69227 66.4874 7.35714C66.3486 7.02202 66.282 6.66324 66.2917 6.3026C66.2775 5.94107 66.3392 5.58051 66.473 5.24241C66.6068 4.90432 66.81 4.59562 67.0705 4.33472C67.3159 4.08573 67.6127 3.88882 67.9418 3.75659C68.2709 3.62437 68.625 3.55975 68.9816 3.56688C69.3095 3.56355 69.6346 3.62456 69.9372 3.74619C70.2097 3.85205 70.458 4.00825 70.6682 4.20598C70.8486 4.3736 71.0089 4.56022 71.146 4.76232C71.2568 4.93295 71.3512 5.11303 71.4279 5.30027L71.5569 5.61292L67.7346 7.12561C67.8502 7.38121 68.0435 7.5971 68.2892 7.74484C68.5348 7.89258 68.8212 7.96524 69.1106 7.95323C69.3922 7.95396 69.6691 7.88447 69.9145 7.75151C70.1598 7.61855 70.3652 7.42667 70.5105 7.19458L71.4661 7.81529C71.2222 8.15103 70.9101 8.4357 70.5487 8.6521C70.1189 8.91342 69.6189 9.0477 69.1106 9.03832ZM67.5148 6.21984L70.0566 5.20371C69.9783 5.02455 69.8383 4.8768 69.6601 4.78531C69.4605 4.67687 69.2346 4.62134 69.0055 4.62438C68.6167 4.63408 68.2475 4.79104 67.9783 5.06118C67.8171 5.20956 67.692 5.39036 67.6119 5.59065C67.5318 5.79094 67.4986 6.00578 67.5148 6.21984Z" fill="#121212"/>
<path d="M78.4404 9.09726C77.9055 9.10613 77.3743 9.01106 76.8786 8.81775C76.383 8.62444 75.9331 8.33687 75.5559 7.97232C75.1788 7.60777 74.8822 7.17375 74.684 6.69632C74.4858 6.21889 74.39 5.70789 74.4024 5.19401C74.39 4.68012 74.4858 4.16912 74.684 3.69169C74.8822 3.21426 75.1788 2.78024 75.5559 2.41569C75.9331 2.05114 76.383 1.76358 76.8786 1.57027C77.3743 1.37695 77.9055 1.28188 78.4404 1.29075C78.9817 1.27448 79.5199 1.37598 80.0147 1.58765C80.5095 1.79932 80.9481 2.11569 81.2978 2.51312L80.6039 3.16135C80.3472 2.85108 80.0179 2.60341 79.6428 2.43847C79.2677 2.27354 78.8574 2.196 78.4452 2.21216C78.0484 2.20357 77.6539 2.27215 77.2855 2.41379C76.917 2.55542 76.5821 2.76718 76.3009 3.03634C76.0086 3.31879 75.7802 3.65626 75.6302 4.02758C75.4801 4.39889 75.4115 4.79601 75.4288 5.19401C75.4115 5.592 75.4801 5.98912 75.6302 6.36044C75.7802 6.73175 76.0086 7.06923 76.3009 7.35168C76.5821 7.62084 76.917 7.8326 77.2855 7.97423C77.6539 8.11586 78.0484 8.18444 78.4452 8.17585C78.9057 8.18081 79.3614 8.08598 79.7785 7.8984C80.1957 7.71082 80.5634 7.43533 80.8545 7.09239L81.5483 7.75914C81.185 8.17659 80.7289 8.51043 80.2136 8.73611C79.6581 8.98254 79.0521 9.10596 78.4404 9.09726Z" fill="#121212"/>
<path d="M83.4134 8.9309H82.416V1.45312H83.4134V8.9309Z" fill="#121212"/>
<path d="M85.0418 4.43102C85.5645 3.93226 86.2712 3.65234 87.0078 3.65234C87.7444 3.65234 88.4511 3.93226 88.9738 4.43102C89.2293 4.69032 89.429 4.99563 89.5614 5.32938C89.6937 5.66313 89.756 6.01872 89.7447 6.37571C89.756 6.73269 89.6937 7.08828 89.5614 7.42203C89.429 7.75578 89.2293 8.06109 88.9738 8.32039C88.4511 8.81916 87.7444 9.09907 87.0078 9.09907C86.2712 9.09907 85.5645 8.81916 85.0418 8.32039C84.7862 8.06109 84.5865 7.75578 84.4542 7.42203C84.3219 7.08828 84.2596 6.73269 84.2708 6.37571C84.2596 6.01872 84.3219 5.66313 84.4542 5.32938C84.5865 4.99563 84.7862 4.69032 85.0418 4.43102ZM85.7839 7.71846C85.941 7.87806 86.1304 8.00518 86.3404 8.09206C86.5505 8.17894 86.7767 8.22374 87.0054 8.22374C87.234 8.22374 87.4603 8.17894 87.6703 8.09206C87.8803 8.00518 88.0697 7.87806 88.2269 7.71846C88.4012 7.5387 88.5366 7.3274 88.6251 7.09687C88.7136 6.86635 88.7535 6.6212 88.7425 6.37571C88.7535 6.13022 88.7136 5.88507 88.6251 5.65454C88.5366 5.42401 88.4012 5.21271 88.2269 5.03295C88.0697 4.87335 87.8803 4.74623 87.6703 4.65935C87.4603 4.57248 87.234 4.52767 87.0054 4.52767C86.7767 4.52767 86.5505 4.57248 86.3404 4.65935C86.1304 4.74623 85.941 4.87335 85.7839 5.03295C85.6095 5.21271 85.4742 5.42401 85.3856 5.65454C85.2971 5.88507 85.2572 6.13022 85.2683 6.37571C85.2585 6.62075 85.2995 6.86521 85.3888 7.09492C85.4782 7.32463 85.6141 7.535 85.7887 7.71383L85.7839 7.71846Z" fill="#121212"/>
<path d="M95.2719 8.93205H94.3082V8.22363H94.2793C94.1078 8.49269 93.865 8.71319 93.5758 8.86259C93.2757 9.02973 92.9349 9.11759 92.588 9.11725C92.3063 9.13577 92.024 9.09291 91.762 8.99189C91.5 8.89087 91.2652 8.7343 91.075 8.53385C90.7099 8.09021 90.5265 7.53351 90.5594 6.96884V3.82031H91.5568V6.7929C91.5568 7.74672 91.9953 8.22363 92.8723 8.22363C93.0671 8.22946 93.2606 8.19049 93.4366 8.10996C93.6126 8.02942 93.7661 7.90964 93.8842 7.76061C94.1427 7.44577 94.2805 7.05499 94.2745 6.65399V3.82031H95.2719V8.93205Z" fill="#121212"/>
<path d="M98.6598 9.09757C98.3214 9.09865 97.9868 9.02926 97.6791 8.89418C97.3713 8.75909 97.0976 8.56152 96.8769 8.31507C96.3774 7.78488 96.1098 7.08997 96.13 6.37502C96.1098 5.66006 96.3774 4.96516 96.8769 4.43497C97.0976 4.18851 97.3713 3.99095 97.6791 3.85587C97.9868 3.72078 98.3214 3.65139 98.6598 3.65247C99.0389 3.64672 99.4134 3.73269 99.7488 3.90249C100.043 4.04502 100.293 4.26087 100.472 4.52758H100.515L100.472 3.81915V1.45312H101.469V8.9309H100.505V8.22248H100.462C100.283 8.48917 100.034 8.70503 99.7391 8.84755C99.4066 9.01584 99.0356 9.10177 98.6598 9.09757ZM98.8236 8.22248C99.0491 8.22563 99.2726 8.18266 99.4795 8.09646C99.6864 8.01025 99.8718 7.88273 100.023 7.7224C100.362 7.35169 100.535 6.86757 100.505 6.37502C100.535 5.88246 100.362 5.39837 100.023 5.02764C99.8708 4.86644 99.6848 4.73765 99.4774 4.64953C99.2699 4.5614 99.0456 4.51588 98.8188 4.51588C98.592 4.51588 98.3677 4.5614 98.1602 4.64953C97.9528 4.73765 97.7668 4.86644 97.6142 5.02764C97.4458 5.20998 97.3166 5.42244 97.234 5.65286C97.1513 5.88329 97.1167 6.12712 97.1323 6.3704C97.1167 6.61367 97.1513 6.8575 97.234 7.08791C97.3166 7.31834 97.4458 7.5308 97.6142 7.71314C97.766 7.87634 97.9526 8.00627 98.1613 8.09415C98.3699 8.18202 98.5958 8.22579 98.8236 8.22248Z" fill="#121212"/>
<path d="M18.1838 9.02129H19.0353L21.4621 6.68936L21.5813 5.69932C20.1911 4.52023 18.511 3.70116 16.6998 3.31947C14.8885 2.93779 13.0059 3.0061 11.2298 3.51794C9.45366 4.02979 7.84264 4.96828 6.54891 6.24475C5.25518 7.52123 4.32146 9.09355 3.83594 10.8132C4.1063 10.7067 4.40578 10.6894 4.68745 10.7641L9.54104 9.99497C9.54104 9.99497 9.78798 9.60222 9.9157 9.62677C10.9557 8.52927 12.3929 7.85524 13.9331 7.74268C15.4734 7.63012 17.0001 8.08754 18.2009 9.02129H18.1838Z" fill="#121212"/>
<path d="M24.9197 10.8128C24.3619 8.83887 23.2166 7.06441 21.6243 5.70703L18.2183 8.9799C18.9282 9.53724 19.497 10.2422 19.882 11.0417C20.267 11.8411 20.458 12.714 20.4407 13.5947V14.1756C20.8388 14.1756 21.233 14.2509 21.6008 14.3974C21.9686 14.5438 22.3027 14.7583 22.5842 15.0288C22.8657 15.2993 23.089 15.6204 23.2414 15.9738C23.3937 16.3272 23.4721 16.706 23.4721 17.0885C23.4721 17.471 23.3937 17.8498 23.2414 18.2032C23.089 18.5566 22.8657 18.8777 22.5842 19.1482C22.3027 19.4187 21.9686 19.6333 21.6008 19.7796C21.233 19.926 20.8388 20.0014 20.4407 20.0014H14.378L13.7734 20.5905V24.0843L14.378 24.6652H20.4407C22.1337 24.6779 23.786 24.1666 25.1532 23.207C26.5203 22.2473 27.5297 20.8904 28.032 19.3368C28.5343 17.7831 28.5029 16.1154 27.9424 14.5803C27.3819 13.0452 26.3221 11.7242 24.9197 10.8128Z" fill="#3F4751"/>
<path d="M8.30656 24.6327H14.3693V19.9688H8.30656C7.87461 19.9687 7.44774 19.8794 7.05484 19.707L6.20333 19.9606L3.75951 22.2926L3.54663 23.1108C4.91707 24.1052 6.5893 24.6398 8.30656 24.6327Z" fill="#757E8A"/>
<path d="M8.30661 9.50395C6.6639 9.51338 5.06527 10.0156 3.73401 10.9404C2.40274 11.8652 1.40533 13.1665 0.881068 14.6625C0.356808 16.1584 0.331885 17.7744 0.80978 19.2847C1.28768 20.7949 2.24452 22.124 3.54668 23.0864L7.0634 19.7071C6.6165 19.5131 6.22526 19.2178 5.92324 18.8465C5.62122 18.4753 5.41744 18.0392 5.32939 17.5756C5.24134 17.112 5.27165 16.6348 5.41771 16.185C5.56378 15.7352 5.82123 15.3261 6.168 14.9929C6.51476 14.6597 6.94048 14.4123 7.40861 14.2719C7.87675 14.1316 8.37334 14.1025 8.85577 14.1871C9.3382 14.2717 9.79206 14.4675 10.1784 14.7577C10.5647 15.0479 10.8721 15.4239 11.074 15.8533L14.5907 12.474C13.8525 11.5468 12.9013 10.7962 11.8111 10.281C10.721 9.76573 9.5215 9.49979 8.30661 9.50395Z" fill="#ABB3BF"/>
</g>
<defs>
<clipPath id="clip0_99_252">
<rect width="101" height="25" fill="white" transform="translate(0.46875 0.527344)"/>
</clipPath>
</defs>
</svg>
