<svg width="28" height="24" viewBox="0 0 28 24" fill="none" xmlns="http://www.w3.org/2000/svg">
<path d="M27.4688 2.74995C26.4762 3.21244 25.408 3.5244 24.2872 3.664C25.4315 2.94586 26.309 1.80833 26.7228 0.451333C25.6524 1.11719 24.4675 1.60036 23.2052 1.86118C22.1951 0.732844 20.7553 0.0273438 19.1621 0.0273438C16.1032 0.0273438 13.6232 2.62701 13.6232 5.83393C13.6232 6.28837 13.672 6.73132 13.7668 7.15703C9.16292 6.91459 5.08083 4.60333 2.34866 1.09019C1.87183 1.94736 1.59889 2.94471 1.59889 4.00986C1.59889 6.0241 2.57666 7.80164 4.06305 8.84265C3.15543 8.8122 2.30098 8.5508 1.55395 8.11589C1.5534 8.14002 1.5534 8.16473 1.5534 8.18943C1.5534 11.0022 3.4629 13.3485 5.99722 13.8828C5.53245 14.015 5.04301 14.0862 4.53769 14.0862C4.18034 14.0862 3.8334 14.05 3.49524 13.9817C4.20062 16.2883 6.24605 17.9676 8.66965 18.0142C6.77385 19.5717 4.38587 20.5001 1.79017 20.5001C1.34348 20.5001 0.90228 20.4725 0.46875 20.4185C2.92085 22.0668 5.83225 23.0273 8.96013 23.0273C19.1495 23.0273 24.7207 14.1799 24.7207 6.50669C24.7207 6.25505 24.7157 6.00399 24.7053 5.75465C25.7872 4.93769 26.7267 3.91449 27.4688 2.74995Z" fill="black"/>
</svg>
