<svg width="25" height="24" viewBox="0 0 25 24" fill="none" xmlns="http://www.w3.org/2000/svg">
<path d="M0.773093 7.50823H5.91658V23.0273H0.773093V7.50823ZM3.37926 0.0273438C1.61886 0.0273438 0.46875 1.1861 0.46875 2.707C0.46875 4.19663 1.58521 5.38907 3.31195 5.38907H3.34475C5.13881 5.38907 6.25606 4.19657 6.25606 2.707C6.22241 1.1861 5.13886 0.0273438 3.37926 0.0273438ZM18.5453 7.14367C15.815 7.14367 14.5919 8.64934 13.9095 9.70525V7.50823H8.76452C8.83264 8.96411 8.76452 23.0273 8.76452 23.0273H13.9095V14.3604C13.9095 13.8962 13.9432 13.4337 14.0786 13.1012C14.4511 12.1745 15.2976 11.2149 16.7176 11.2149C18.5805 11.2149 19.3245 12.6387 19.3245 14.724V23.0273H24.4688V14.1283C24.4688 9.36161 21.9315 7.14367 18.5453 7.14367Z" fill="#424242"/>
</svg>
