<svg width="24" height="24" viewBox="0 0 24 24" fill="none" xmlns="http://www.w3.org/2000/svg">
<path d="M11.9687 5.54492C8.72272 5.54492 6.0332 8.18807 6.0332 11.4804C6.0332 14.7727 8.67635 17.4159 11.9687 17.4159C15.261 17.4159 17.9042 14.7264 17.9042 11.4804C17.9042 8.23444 15.2147 5.54492 11.9687 5.54492ZM11.9687 15.2828C9.88199 15.2828 8.16627 13.5671 8.16627 11.4804C8.16627 9.39371 9.88199 7.67799 11.9687 7.67799C14.0554 7.67799 15.7711 9.39371 15.7711 11.4804C15.7711 13.5671 14.0554 15.2828 11.9687 15.2828Z" fill="#424242"/>
<path d="M18.1368 6.75202C18.8794 6.75202 19.4815 6.14995 19.4815 5.40726C19.4815 4.66457 18.8794 4.0625 18.1368 4.0625C17.3941 4.0625 16.792 4.66457 16.792 5.40726C16.792 6.14995 17.3941 6.75202 18.1368 6.75202Z" fill="#424242"/>
<path d="M21.6139 1.92855C20.4083 0.676537 18.6925 0.0273438 16.745 0.0273438H7.19254C3.15827 0.0273438 0.46875 2.71686 0.46875 6.75113V16.2572C0.46875 18.2511 1.11794 19.9669 2.41633 21.2189C3.66835 22.4245 5.3377 23.0273 7.23891 23.0273H16.6986C18.6925 23.0273 20.3619 22.3781 21.5675 21.2189C22.8196 20.0132 23.4687 18.2975 23.4687 16.3036V6.75113C23.4687 4.80355 22.8196 3.1342 21.6139 1.92855ZM21.4284 16.3036C21.4284 17.7411 20.9183 18.9003 20.0837 19.6886C19.249 20.4769 18.0897 20.8943 16.6986 20.8943H7.23891C5.84778 20.8943 4.68851 20.4769 3.85383 19.6886C3.01915 18.854 2.60181 17.6947 2.60181 16.2572V6.75113C2.60181 5.36 3.01915 4.20073 3.85383 3.36605C4.64214 2.57775 5.84778 2.16041 7.23891 2.16041H16.7913C18.1825 2.16041 19.3417 2.57775 20.1764 3.41242C20.9647 4.2471 21.4284 5.40638 21.4284 6.75113V16.3036Z" fill="#424242"/>
</svg>
