<svg width="406" height="88" viewBox="0 0 406 88" fill="none" xmlns="http://www.w3.org/2000/svg">
<g clip-path="url(#clip0_1087_276)">
<path d="M283.852 69.3158L295.151 84.7837C296.771 86.7668 299.443 87.9122 302.246 87.9122H319.984L295.327 53.4961L283.852 69.3158Z" fill="#011D6A"/>
<path d="M295.677 34.019L320.028 0.0439453H301.984C298.874 0.0439453 296.509 1.98372 294.976 4.23037L284.246 18.5958L295.677 34.019Z" fill="#011D6A"/>
<path d="M258.755 84.739C257.135 86.722 254.463 87.8678 251.66 87.8678H233.922L265.412 43.9338L233.922 0.0439453H251.966C255.076 0.0439453 257.441 1.93888 258.974 4.18616L288.624 43.9338L258.755 84.739Z" fill="#0099FF"/>
<path d="M7.09588 0.0878906H60.7911V16.3483H19.0086V36.6628H55.2285V51.6894H19.0086V87.9998H0.000755232V7.35856C-0.0129593 6.41104 0.160234 5.4702 0.510313 4.59047C0.860392 3.71075 1.3804 2.90962 2.04025 2.23344C2.7001 1.55727 3.48669 1.01948 4.35448 0.651196C5.22228 0.282914 6.15405 0.0914484 7.09588 0.0878906Z" fill="#011D6A"/>
<path d="M97.7124 53.7168L65.8281 0.0442039H83.2156C84.4527 0.0513644 85.667 0.379563 86.7411 0.997076C87.8152 1.61459 88.7128 2.50052 89.347 3.56919L107.523 34.7242L125.567 3.56919C126.188 2.48506 127.081 1.58445 128.158 0.957918C129.234 0.331383 130.455 0.00100566 131.699 0H148.824L116.721 54.1573V87.868H97.7124V53.7152V53.7168Z" fill="#011D6A"/>
<path d="M153.51 0.0881492H168.445C169.656 0.0905834 170.846 0.403415 171.903 0.997128C172.961 1.59084 173.851 2.44586 174.489 3.48149L208.519 59.0036H208.781V0.0439453H226.607V87.9126H211.541C210.324 87.911 209.129 87.5938 208.071 86.9917C207.012 86.3896 206.125 85.5229 205.497 84.4754L171.598 29.0833H171.335V87.9126H153.51V0.0881492Z" fill="#011D6A"/>
<path d="M318.188 16.3041L327.648 3.08437C328.306 2.15889 329.173 1.40438 330.178 0.883298C331.184 0.36222 332.298 0.0895606 333.429 0.0878906H406.001L396.366 13.3957C395.699 14.3085 394.828 15.0512 393.824 15.564C392.82 16.0768 391.71 16.3454 390.584 16.3483H369.474V87.9556H350.466V16.3483H318.188V16.3041Z" fill="#011D6A"/>
</g>
<defs>
<clipPath id="clip0_1087_276">
<rect width="406" height="88" fill="white"/>
</clipPath>
</defs>
</svg>
