<svg width="175" height="50" viewBox="0 0 175 50" fill="none" xmlns="http://www.w3.org/2000/svg">
<path fill-rule="evenodd" clip-rule="evenodd" d="M136.936 7.23031H140.945C140.975 7.23031 141 7.20364 141 7.17075V3.19209C140.999 2.21964 140.679 1.42853 140.032 0.875642C139.437 0.367197 138.543 0.0605312 137.347 8.67521e-05C137.317 -0.00169103 137.293 0.0240865 137.293 0.0560865V1.55653C137.293 1.58586 137.315 1.60986 137.342 1.61253C138.391 1.68631 139.188 2.02675 139.188 3.21253L136.936 3.21342C136.906 3.21342 136.881 3.24009 136.881 3.27298V7.17164C136.881 7.20364 136.906 7.23031 136.936 7.23031ZM50.2101 10.4508H45.3483C45.2723 10.4508 45.2237 10.5192 45.2237 10.5868V13.2143C45.2237 13.297 45.2855 13.3503 45.3483 13.3503H47.0752V15.4659C47.0752 17.0392 46.6936 17.8836 45.3483 17.8836C44.2247 17.8836 43.427 17.1983 43.427 15.0668V8.92364C43.427 6.88275 44.0312 5.92631 45.3695 5.92631C46.5761 5.92631 47.0681 6.67209 47.0681 8.06497V8.85609C47.0681 8.93875 47.1308 8.9912 47.1935 8.9912H50.1827C50.2587 8.9912 50.3073 8.92364 50.3073 8.85609V7.92809C50.3347 4.6232 48.5874 2.87564 45.4251 2.87564C42.2628 2.87564 40.2028 4.76631 40.2028 8.74231V15.3156C40.2028 19.2312 42.602 20.9334 45.2652 20.9334C48.2473 20.9334 50.3276 19.7512 50.3276 15.3761V10.5788C50.3289 10.5454 50.3174 10.5128 50.2956 10.4877C50.2737 10.4626 50.2431 10.4468 50.2101 10.4436V10.4508ZM59.5169 17.4516H54.8423V3.34053C54.8423 3.25698 54.7805 3.20453 54.7178 3.20453H51.7763C51.7003 3.20453 51.6526 3.27209 51.6526 3.34053V20.4863C51.6526 20.569 51.7144 20.6214 51.7763 20.6214H59.5098C59.5858 20.6214 59.6344 20.5539 59.6344 20.4863V17.5948C59.6344 17.5121 59.5726 17.4588 59.5098 17.4588H59.5169V17.4516ZM103.445 8.78675C103.445 4.83387 105.463 2.90586 108.549 2.90586C111.594 2.90586 113.64 4.84098 113.626 8.78675V15.0516C113.626 19.0579 111.733 20.9023 108.549 20.9023C105.365 20.9023 103.445 19.0952 103.445 15.0516V8.78675ZM108.549 17.8979C109.839 17.8979 110.373 16.9494 110.373 14.9316V8.92986C110.373 6.91209 109.853 5.93342 108.549 5.93342C107.245 5.93342 106.725 6.94942 106.725 8.92986V14.9316C106.725 16.9574 107.259 17.8979 108.549 17.8979ZM119.972 2.90586C116.886 2.90586 114.867 4.83387 114.867 8.78675V15.0516C114.867 19.0961 116.789 20.9023 119.972 20.9023C123.156 20.9023 125.049 19.0579 125.049 15.0516V8.78675C125.063 4.84098 123.017 2.90586 119.972 2.90586ZM121.796 14.9325C121.796 16.9503 121.262 17.8988 119.972 17.8988C118.683 17.8988 118.148 16.9574 118.148 14.9325V8.93075C118.148 6.95031 118.668 5.93431 119.972 5.93431C121.276 5.93431 121.796 6.91209 121.796 8.93075V14.9325ZM92.6684 3.1992H97.0789V3.21431C100.061 3.21431 102.308 4.8632 102.308 8.92986V14.9014C102.308 18.9299 100.117 20.617 97.0436 20.617H92.6684C92.6057 20.617 92.543 20.5636 92.543 20.481V3.35031C92.543 3.27475 92.5916 3.1992 92.6684 3.1992ZM96.9058 17.4463C98.2369 17.4463 99.0699 16.5272 99.0699 14.3814L99.0761 14.3885V9.15564C99.0761 6.98675 98.2025 6.11297 96.8775 6.11297H95.6638V17.4463H96.9058ZM76.5856 2.87564H76.537C73.4992 2.87564 71.8977 4.75831 71.8977 7.58231C71.8977 10.5219 73.7845 11.8899 75.341 13.0179L75.6422 13.2374L76.0034 13.5014L76.0043 13.5023L76.0052 13.5032C77.1041 14.3032 77.9521 14.9201 77.9521 16.2792C77.9521 17.417 77.2587 17.8685 76.4539 17.8908C75.5662 17.913 74.9214 17.1752 74.9214 16.249V14.7503C74.9217 14.7279 74.9177 14.7057 74.9095 14.6849C74.9012 14.6641 74.889 14.6452 74.8735 14.6292C74.858 14.6131 74.8395 14.6004 74.8191 14.5915C74.7986 14.5827 74.7766 14.5781 74.7544 14.5779H71.911C71.8138 14.5779 71.7449 14.6525 71.7449 14.7512V16.2712C71.7449 19.2756 73.4232 20.9405 76.378 20.9405C79.3318 20.9405 81.1215 19.2383 81.1215 16.249C81.1215 13.1361 79.2895 11.7912 77.6933 10.6179L77.6403 10.5788C77.4659 10.4504 77.2904 10.3236 77.1138 10.1983C76.0202 9.41609 75.0044 8.68986 75.0044 7.5592C75.0044 6.43742 75.7111 5.91031 76.5299 5.91031C77.4115 5.91031 78.0351 6.59564 78.0351 7.49964V8.82409C78.0351 8.92186 78.112 8.99742 78.2021 8.99742H81.0455C81.1427 8.99742 81.2116 8.92275 81.2116 8.82498V7.53697C81.2186 4.58586 79.4502 2.89075 76.5856 2.87564ZM86.7995 2.87564H86.8481C89.7128 2.89075 91.4741 4.58498 91.4741 7.53697V8.82498C91.4741 8.92275 91.4052 8.99742 91.3081 8.99742H88.4638C88.4416 8.99707 88.4197 8.99234 88.3994 8.98348C88.379 8.97463 88.3606 8.96183 88.3452 8.94581C88.3298 8.9298 88.3177 8.91089 88.3095 8.89015C88.3013 8.86942 88.2973 8.84727 88.2977 8.82498V7.49964C88.2977 6.59564 87.674 5.91031 86.7925 5.91031C85.9745 5.91031 85.267 6.43742 85.267 7.5592C85.267 8.68898 86.2828 9.41609 87.3764 10.1983C87.5513 10.3228 87.7279 10.4499 87.9028 10.5788L87.9558 10.6179C89.5529 11.7912 91.3841 13.1361 91.3841 16.249C91.3841 19.2383 89.5944 20.9405 86.6405 20.9405C83.6858 20.9405 82.0075 19.2765 82.0075 16.2721V14.7503C82.0075 14.6525 82.0772 14.5779 82.1735 14.5779H85.0179C85.108 14.5779 85.1839 14.6525 85.1839 14.7512V16.2481C85.1839 17.1743 85.8288 17.9121 86.7165 17.8899C87.5204 17.8676 88.2146 17.4152 88.2146 16.2783C88.2146 14.9183 87.3666 14.3023 86.2687 13.5023C86.1503 13.4161 86.0284 13.3281 85.9056 13.2356L85.607 13.0188L85.6044 13.017C84.0471 11.889 82.1594 10.521 82.1594 7.58142C82.1594 4.75742 83.7626 2.87475 86.7995 2.87475V2.87564ZM135.798 8.56275V7.12453C135.798 4.93342 134.12 3.20898 132.191 3.20898H126.463C126.394 3.20898 126.338 3.26942 126.338 3.34409V20.4756C126.338 20.5503 126.394 20.6108 126.463 20.6108H129.265C129.341 20.6108 129.389 20.5432 129.389 20.4756V13.3441H130.763C132.039 13.3441 132.441 13.8561 132.441 15.1592V20.4605C132.441 20.5432 132.504 20.5956 132.566 20.5956H135.458C135.493 20.5947 135.526 20.5801 135.551 20.5549C135.576 20.5297 135.589 20.4958 135.59 20.4605V15.257C135.59 13.4792 135.139 12.3423 133.988 11.8756C135.146 11.3636 135.798 10.3396 135.798 8.56275ZM132.663 9.16542C132.663 9.88009 132.136 10.4525 131.484 10.4525H129.355V6.10053H131.484C132.136 6.10053 132.663 6.67298 132.663 7.38053V9.16542ZM64.5581 3.20898H67.5411C67.5968 3.20898 67.6515 3.25342 67.6657 3.32186L71.5355 20.4303C71.5709 20.5281 71.5002 20.6188 71.411 20.6188H68.5534C68.5048 20.6188 68.4421 20.5734 68.4289 20.505L67.8185 17.441H64.2533L63.6438 20.505C63.6395 20.5356 63.6245 20.5638 63.6016 20.5844C63.5786 20.6051 63.5492 20.6169 63.5184 20.6179H60.6608C60.5778 20.6179 60.5151 20.5281 60.5363 20.4303L64.4327 3.32186C64.4356 3.29059 64.4501 3.26158 64.4734 3.24064C64.4966 3.2197 64.5269 3.20839 64.5581 3.20898ZM66.0085 8.64542L64.8293 14.5645H67.2143L66.0359 8.64542L66.0218 8.72809L66.0085 8.64542ZM39.0633 3.20542H35.0548C35.0247 3.20542 35 3.23209 35 3.26409V7.16186C35 7.19475 35.0247 7.22142 35.0548 7.22142H37.3073C37.3073 8.40809 36.5096 8.74853 35.4611 8.82231C35.4473 8.82344 35.4344 8.8299 35.4252 8.84033C35.416 8.85076 35.4111 8.86436 35.4116 8.87831V10.3796C35.4116 10.4108 35.4372 10.4365 35.4664 10.4348C36.6616 10.3743 37.5555 10.0676 38.1508 9.5592C38.7983 9.00631 39.1181 8.2152 39.119 7.24275V3.26409C39.119 3.2312 39.0942 3.20453 39.0642 3.20453L39.0633 3.20542Z" fill="#00A264"/>
<path d="M6 45V42.992H0.8V41.408L4.544 33.48H6.456L2.712 41.408H6V38.288H7.696V41.408H8.84V42.992H7.696V45H6ZM10.7041 45V43.232H12.4721V45H10.7041ZM18.7063 33.248C19.4476 33.248 20.1169 33.4267 20.7143 33.784C21.3116 34.136 21.7863 34.6213 22.1383 35.24C22.4903 35.8587 22.6663 36.5653 22.6663 37.36V41.024C22.6663 41.8667 22.4903 42.6053 22.1383 43.24C21.7916 43.8693 21.3063 44.36 20.6823 44.712C20.0636 45.064 19.3489 45.24 18.5382 45.24C17.9303 45.24 17.3596 45.1253 16.8263 44.896C16.2929 44.6667 15.8289 44.3253 15.4342 43.872L16.6662 42.728C16.8849 43.0107 17.1596 43.2373 17.4903 43.408C17.8209 43.5787 18.1702 43.664 18.5382 43.664C19.0129 43.664 19.4316 43.5493 19.7943 43.32C20.1623 43.0907 20.4476 42.792 20.6502 42.424C20.8529 42.056 20.9543 41.6613 20.9543 41.24V39.128L21.2903 39.496C20.9596 39.928 20.5489 40.2693 20.0582 40.52C19.5676 40.7707 19.0423 40.896 18.4823 40.896C17.7623 40.896 17.1223 40.7307 16.5622 40.4C16.0022 40.0693 15.5596 39.6187 15.2342 39.048C14.9089 38.4773 14.7462 37.832 14.7462 37.112C14.7462 36.392 14.9276 35.7413 15.2902 35.16C15.6529 34.5787 16.1329 34.1147 16.7303 33.768C17.3276 33.4213 17.9863 33.248 18.7063 33.248ZM18.7063 34.864C18.2903 34.864 17.9089 34.9653 17.5623 35.168C17.2209 35.3653 16.9489 35.6347 16.7462 35.976C16.5436 36.3173 16.4423 36.696 16.4423 37.112C16.4423 37.528 16.5436 37.9093 16.7462 38.256C16.9489 38.5973 17.2209 38.8693 17.5623 39.072C17.9036 39.2747 18.2823 39.376 18.6983 39.376C19.1143 39.376 19.4929 39.2747 19.8342 39.072C20.1756 38.8693 20.4476 38.5973 20.6502 38.256C20.8529 37.9093 20.9543 37.528 20.9543 37.112C20.9543 36.7013 20.8529 36.3253 20.6502 35.984C20.4529 35.6427 20.1836 35.3707 19.8423 35.168C19.5009 34.9653 19.1223 34.864 18.7063 34.864Z" fill="#00A264"/>
<path d="M28.0389 45V33.48H32.6949C32.8069 33.48 32.9455 33.4853 33.1109 33.496C33.2762 33.5013 33.4335 33.5173 33.5829 33.544C34.2229 33.6453 34.7562 33.864 35.1829 34.2C35.6149 34.536 35.9375 34.96 36.1509 35.472C36.3642 35.984 36.4709 36.5493 36.4709 37.168C36.4709 38.0853 36.2362 38.8773 35.7669 39.544C35.2975 40.2053 34.5935 40.6187 33.6549 40.784L32.9749 40.864H29.7109V45H28.0389ZM34.7749 45L32.5029 40.312L34.1909 39.88L36.6869 45H34.7749ZM29.7109 39.28H32.6309C32.7375 39.28 32.8549 39.2747 32.9829 39.264C33.1162 39.2533 33.2415 39.2347 33.3589 39.208C33.7002 39.128 33.9749 38.9813 34.1829 38.768C34.3909 38.5493 34.5402 38.2987 34.6309 38.016C34.7215 37.7333 34.7669 37.4507 34.7669 37.168C34.7669 36.8853 34.7215 36.6053 34.6309 36.328C34.5402 36.0453 34.3909 35.7973 34.1829 35.584C33.9749 35.3653 33.7002 35.216 33.3589 35.136C33.2415 35.104 33.1162 35.0827 32.9829 35.072C32.8549 35.0613 32.7375 35.056 32.6309 35.056H29.7109V39.28ZM40.8531 45.24C40.2131 45.24 39.6771 45.1227 39.2451 44.888C38.8131 44.648 38.4851 44.3333 38.2611 43.944C38.0425 43.5493 37.9331 43.1173 37.9331 42.648C37.9331 42.2107 38.0105 41.8267 38.1651 41.496C38.3198 41.1653 38.5491 40.8853 38.8531 40.656C39.1571 40.4213 39.5305 40.232 39.9731 40.088C40.3571 39.976 40.7918 39.8773 41.2771 39.792C41.7625 39.7067 42.2718 39.6267 42.8051 39.552C43.3438 39.4773 43.8771 39.4027 44.4051 39.328L43.7971 39.664C43.8078 38.9867 43.6638 38.4853 43.3651 38.16C43.0718 37.8293 42.5651 37.664 41.8451 37.664C41.3918 37.664 40.9758 37.7707 40.5971 37.984C40.2185 38.192 39.9545 38.5387 39.8051 39.024L38.2451 38.544C38.4585 37.8027 38.8638 37.2133 39.4611 36.776C40.0638 36.3387 40.8638 36.12 41.8611 36.12C42.6345 36.12 43.3065 36.2533 43.8771 36.52C44.4531 36.7813 44.8745 37.1973 45.1411 37.768C45.2798 38.0507 45.3651 38.3493 45.3971 38.664C45.4291 38.9787 45.4451 39.3173 45.4451 39.68V45H43.9651V43.024L44.2531 43.28C43.8958 43.9413 43.4398 44.4347 42.8851 44.76C42.3358 45.08 41.6585 45.24 40.8531 45.24ZM41.1491 43.872C41.6238 43.872 42.0318 43.7893 42.3731 43.624C42.7145 43.4533 42.9891 43.2373 43.1971 42.976C43.4051 42.7147 43.5411 42.4427 43.6051 42.16C43.6958 41.904 43.7465 41.616 43.7571 41.296C43.7731 40.976 43.7811 40.72 43.7811 40.528L44.3251 40.728C43.7971 40.808 43.3171 40.88 42.8851 40.944C42.4531 41.008 42.0611 41.072 41.7091 41.136C41.3625 41.1947 41.0531 41.2667 40.7811 41.352C40.5518 41.432 40.3465 41.528 40.1651 41.64C39.9891 41.752 39.8478 41.888 39.7411 42.048C39.6398 42.208 39.5891 42.4027 39.5891 42.632C39.5891 42.856 39.6451 43.064 39.7571 43.256C39.8691 43.4427 40.0398 43.592 40.2691 43.704C40.4985 43.816 40.7918 43.872 41.1491 43.872ZM52.4345 45C51.8905 45.1067 51.3572 45.152 50.8345 45.136C50.3118 45.12 49.8452 45.0187 49.4345 44.832C49.0238 44.6453 48.7145 44.352 48.5065 43.952C48.3198 43.5947 48.2185 43.232 48.2025 42.864C48.1918 42.4907 48.1865 42.0693 48.1865 41.6V33.96H49.8665V41.52C49.8665 41.8667 49.8692 42.168 49.8745 42.424C49.8852 42.68 49.9412 42.896 50.0425 43.072C50.2345 43.4027 50.5385 43.592 50.9545 43.64C51.3758 43.6827 51.8692 43.664 52.4345 43.584V45ZM46.5305 37.704V36.36H52.4345V37.704H46.5305ZM54.3841 34.944V33.32H56.0561V34.944H54.3841ZM54.3841 45V36.36H56.0561V45H54.3841ZM64.4905 45V40.752C64.4905 40.416 64.4612 40.072 64.4025 39.72C64.3492 39.3627 64.2425 39.032 64.0825 38.728C63.9278 38.424 63.7065 38.1787 63.4185 37.992C63.1358 37.8053 62.7652 37.712 62.3065 37.712C62.0078 37.712 61.7252 37.7627 61.4585 37.864C61.1918 37.96 60.9572 38.1173 60.7545 38.336C60.5572 38.5547 60.3998 38.8427 60.2825 39.2C60.1705 39.5573 60.1145 39.992 60.1145 40.504L59.0745 40.112C59.0745 39.328 59.2212 38.6373 59.5145 38.04C59.8078 37.4373 60.2292 36.968 60.7785 36.632C61.3278 36.296 61.9918 36.128 62.7705 36.128C63.3678 36.128 63.8692 36.224 64.2745 36.416C64.6798 36.608 65.0078 36.8613 65.2585 37.176C65.5145 37.4853 65.7092 37.824 65.8425 38.192C65.9758 38.56 66.0665 38.92 66.1145 39.272C66.1625 39.624 66.1865 39.9333 66.1865 40.2V45H64.4905ZM58.4185 45V36.36H59.9145V38.856H60.1145V45H58.4185ZM71.7982 49.08C71.3342 49.08 70.8836 49.008 70.4462 48.864C70.0142 48.72 69.6196 48.5067 69.2622 48.224C68.9049 47.9467 68.6089 47.6027 68.3742 47.192L69.9182 46.408C70.1049 46.776 70.3716 47.0453 70.7182 47.216C71.0649 47.3867 71.4302 47.472 71.8142 47.472C72.2889 47.472 72.6942 47.3867 73.0302 47.216C73.3662 47.0507 73.6196 46.8 73.7902 46.464C73.9662 46.128 74.0516 45.712 74.0462 45.216V42.8H74.2462V36.36H75.7262V45.232C75.7262 45.4613 75.7182 45.68 75.7022 45.888C75.6862 46.096 75.6569 46.304 75.6142 46.512C75.4916 47.0933 75.2569 47.5733 74.9102 47.952C74.5689 48.3307 74.1316 48.6133 73.5982 48.8C73.0702 48.9867 72.4702 49.08 71.7982 49.08ZM71.6702 45.24C70.8649 45.24 70.1689 45.04 69.5822 44.64C69.0009 44.24 68.5502 43.696 68.2302 43.008C67.9156 42.3147 67.7582 41.536 67.7582 40.672C67.7582 39.8027 67.9182 39.0267 68.2382 38.344C68.5582 37.656 69.0116 37.1147 69.5982 36.72C70.1902 36.32 70.8916 36.12 71.7022 36.12C72.5182 36.12 73.2036 36.32 73.7582 36.72C74.3182 37.1147 74.7396 37.656 75.0222 38.344C75.3102 39.032 75.4542 39.808 75.4542 40.672C75.4542 41.536 75.3102 42.312 75.0222 43C74.7342 43.688 74.3102 44.2347 73.7502 44.64C73.1902 45.04 72.4969 45.24 71.6702 45.24ZM71.9022 43.728C72.4516 43.728 72.8996 43.5973 73.2462 43.336C73.5929 43.0747 73.8462 42.7147 74.0062 42.256C74.1662 41.7973 74.2462 41.2693 74.2462 40.672C74.2462 40.0747 74.1636 39.5467 73.9982 39.088C73.8382 38.6293 73.5876 38.272 73.2462 38.016C72.9102 37.76 72.4809 37.632 71.9582 37.632C71.4036 37.632 70.9476 37.768 70.5902 38.04C70.2329 38.312 69.9662 38.6773 69.7902 39.136C69.6196 39.5947 69.5342 40.1067 69.5342 40.672C69.5342 41.2427 69.6196 41.76 69.7902 42.224C69.9662 42.6827 70.2276 43.048 70.5742 43.32C70.9262 43.592 71.3689 43.728 71.9022 43.728ZM81.2718 34.944V33.32H82.9438V34.944H81.2718ZM81.2718 45V36.36H82.9438V45H81.2718ZM91.3781 45V40.752C91.3781 40.416 91.3488 40.072 91.2901 39.72C91.2368 39.3627 91.1301 39.032 90.9701 38.728C90.8155 38.424 90.5941 38.1787 90.3061 37.992C90.0235 37.8053 89.6528 37.712 89.1941 37.712C88.8955 37.712 88.6128 37.7627 88.3461 37.864C88.0795 37.96 87.8448 38.1173 87.6421 38.336C87.4448 38.5547 87.2875 38.8427 87.1701 39.2C87.0581 39.5573 87.0021 39.992 87.0021 40.504L85.9621 40.112C85.9621 39.328 86.1088 38.6373 86.4021 38.04C86.6955 37.4373 87.1168 36.968 87.6661 36.632C88.2155 36.296 88.8795 36.128 89.6581 36.128C90.2555 36.128 90.7568 36.224 91.1621 36.416C91.5675 36.608 91.8955 36.8613 92.1461 37.176C92.4021 37.4853 92.5968 37.824 92.7301 38.192C92.8635 38.56 92.9541 38.92 93.0021 39.272C93.0501 39.624 93.0741 39.9333 93.0741 40.2V45H91.3781ZM85.3061 45V36.36H86.8021V38.856H87.0021V45H85.3061ZM103.009 45.24C102.236 45.24 101.524 45.1067 100.873 44.84C100.222 44.568 99.657 44.1733 99.177 43.656C98.697 43.1387 98.3237 42.5093 98.057 41.768C97.7903 41.0267 97.657 40.184 97.657 39.24C97.657 37.9973 97.8837 36.9307 98.337 36.04C98.7903 35.144 99.4197 34.456 100.225 33.976C101.03 33.4907 101.958 33.248 103.009 33.248C104.364 33.248 105.444 33.5627 106.249 34.192C107.06 34.8213 107.612 35.6907 107.905 36.8L106.209 37.104C105.974 36.416 105.596 35.8667 105.073 35.456C104.55 35.0453 103.894 34.8373 103.105 34.832C102.289 34.8267 101.609 35.008 101.065 35.376C100.526 35.744 100.121 36.2613 99.849 36.928C99.577 37.5893 99.4383 38.36 99.433 39.24C99.4277 40.12 99.561 40.8907 99.833 41.552C100.105 42.208 100.513 42.72 101.057 43.088C101.606 43.456 102.289 43.6427 103.105 43.648C103.761 43.6587 104.324 43.5387 104.793 43.288C105.268 43.032 105.644 42.6587 105.921 42.168C106.198 41.6773 106.377 41.0747 106.457 40.36H104.217V39.016H108.233C108.244 39.112 108.252 39.24 108.257 39.4C108.262 39.5547 108.265 39.6533 108.265 39.696C108.265 40.7627 108.06 41.7147 107.649 42.552C107.238 43.3893 106.641 44.048 105.857 44.528C105.073 45.0027 104.124 45.24 103.009 45.24ZM109.987 45V33.24H111.659V45H109.987ZM116.47 45.24C115.83 45.24 115.294 45.1227 114.862 44.888C114.43 44.648 114.102 44.3333 113.878 43.944C113.659 43.5493 113.55 43.1173 113.55 42.648C113.55 42.2107 113.627 41.8267 113.782 41.496C113.937 41.1653 114.166 40.8853 114.47 40.656C114.774 40.4213 115.147 40.232 115.59 40.088C115.974 39.976 116.409 39.8773 116.894 39.792C117.379 39.7067 117.889 39.6267 118.422 39.552C118.961 39.4773 119.494 39.4027 120.022 39.328L119.414 39.664C119.425 38.9867 119.281 38.4853 118.982 38.16C118.689 37.8293 118.182 37.664 117.462 37.664C117.009 37.664 116.593 37.7707 116.214 37.984C115.835 38.192 115.571 38.5387 115.422 39.024L113.862 38.544C114.075 37.8027 114.481 37.2133 115.078 36.776C115.681 36.3387 116.481 36.12 117.478 36.12C118.251 36.12 118.923 36.2533 119.494 36.52C120.07 36.7813 120.491 37.1973 120.758 37.768C120.897 38.0507 120.982 38.3493 121.014 38.664C121.046 38.9787 121.062 39.3173 121.062 39.68V45H119.582V43.024L119.87 43.28C119.513 43.9413 119.057 44.4347 118.502 44.76C117.953 45.08 117.275 45.24 116.47 45.24ZM116.766 43.872C117.241 43.872 117.649 43.7893 117.99 43.624C118.331 43.4533 118.606 43.2373 118.814 42.976C119.022 42.7147 119.158 42.4427 119.222 42.16C119.313 41.904 119.363 41.616 119.374 41.296C119.39 40.976 119.398 40.72 119.398 40.528L119.942 40.728C119.414 40.808 118.934 40.88 118.502 40.944C118.07 41.008 117.678 41.072 117.326 41.136C116.979 41.1947 116.67 41.2667 116.398 41.352C116.169 41.432 115.963 41.528 115.782 41.64C115.606 41.752 115.465 41.888 115.358 42.048C115.257 42.208 115.206 42.4027 115.206 42.632C115.206 42.856 115.262 43.064 115.374 43.256C115.486 43.4427 115.657 43.592 115.886 43.704C116.115 43.816 116.409 43.872 116.766 43.872ZM126.411 45.232C125.361 45.232 124.505 45 123.843 44.536C123.182 44.072 122.777 43.4187 122.627 42.576L124.339 42.312C124.446 42.76 124.691 43.1147 125.075 43.376C125.465 43.632 125.947 43.76 126.523 43.76C127.046 43.76 127.454 43.6533 127.747 43.44C128.046 43.2267 128.195 42.9333 128.195 42.56C128.195 42.3413 128.142 42.1653 128.035 42.032C127.934 41.8933 127.718 41.7627 127.387 41.64C127.057 41.5173 126.553 41.3653 125.875 41.184C125.134 40.992 124.545 40.7867 124.107 40.568C123.675 40.344 123.366 40.0853 123.179 39.792C122.998 39.4933 122.907 39.1333 122.907 38.712C122.907 38.1893 123.046 37.7333 123.323 37.344C123.601 36.9547 123.99 36.6533 124.491 36.44C124.998 36.2267 125.59 36.12 126.267 36.12C126.929 36.12 127.518 36.224 128.035 36.432C128.553 36.64 128.971 36.936 129.291 37.32C129.611 37.6987 129.803 38.144 129.867 38.656L128.155 38.968C128.097 38.552 127.902 38.224 127.571 37.984C127.241 37.744 126.811 37.6133 126.283 37.592C125.777 37.5707 125.366 37.656 125.051 37.848C124.737 38.0347 124.579 38.2933 124.579 38.624C124.579 38.816 124.638 38.9787 124.755 39.112C124.878 39.2453 125.113 39.3733 125.459 39.496C125.806 39.6187 126.318 39.7653 126.995 39.936C127.721 40.1227 128.297 40.3307 128.723 40.56C129.15 40.784 129.454 41.0533 129.635 41.368C129.822 41.6773 129.915 42.0533 129.915 42.496C129.915 43.3493 129.603 44.0187 128.979 44.504C128.361 44.9893 127.505 45.232 126.411 45.232ZM134.957 45.232C133.907 45.232 133.051 45 132.389 44.536C131.728 44.072 131.323 43.4187 131.173 42.576L132.885 42.312C132.992 42.76 133.237 43.1147 133.621 43.376C134.011 43.632 134.493 43.76 135.069 43.76C135.592 43.76 136 43.6533 136.293 43.44C136.592 43.2267 136.741 42.9333 136.741 42.56C136.741 42.3413 136.688 42.1653 136.581 42.032C136.48 41.8933 136.264 41.7627 135.933 41.64C135.603 41.5173 135.099 41.3653 134.421 41.184C133.68 40.992 133.091 40.7867 132.653 40.568C132.221 40.344 131.912 40.0853 131.725 39.792C131.544 39.4933 131.453 39.1333 131.453 38.712C131.453 38.1893 131.592 37.7333 131.869 37.344C132.147 36.9547 132.536 36.6533 133.037 36.44C133.544 36.2267 134.136 36.12 134.813 36.12C135.475 36.12 136.064 36.224 136.581 36.432C137.099 36.64 137.517 36.936 137.837 37.32C138.157 37.6987 138.349 38.144 138.413 38.656L136.701 38.968C136.643 38.552 136.448 38.224 136.117 37.984C135.787 37.744 135.357 37.6133 134.829 37.592C134.323 37.5707 133.912 37.656 133.597 37.848C133.283 38.0347 133.125 38.2933 133.125 38.624C133.125 38.816 133.184 38.9787 133.301 39.112C133.424 39.2453 133.659 39.3733 134.005 39.496C134.352 39.6187 134.864 39.7653 135.541 39.936C136.267 40.1227 136.843 40.3307 137.269 40.56C137.696 40.784 138 41.0533 138.181 41.368C138.368 41.6773 138.461 42.0533 138.461 42.496C138.461 43.3493 138.149 44.0187 137.525 44.504C136.907 44.9893 136.051 45.232 134.957 45.232ZM143.631 45.24C142.826 45.24 142.13 45.04 141.543 44.64C140.962 44.24 140.511 43.696 140.191 43.008C139.877 42.3147 139.719 41.536 139.719 40.672C139.719 39.8027 139.879 39.0267 140.199 38.344C140.519 37.656 140.973 37.1147 141.559 36.72C142.151 36.32 142.853 36.12 143.663 36.12C144.479 36.12 145.165 36.32 145.719 36.72C146.279 37.1147 146.701 37.656 146.983 38.344C147.271 39.032 147.415 39.808 147.415 40.672C147.415 41.536 147.271 42.312 146.983 43C146.695 43.688 146.271 44.2347 145.711 44.64C145.151 45.04 144.458 45.24 143.631 45.24ZM143.863 43.728C144.413 43.728 144.861 43.5973 145.207 43.336C145.554 43.0747 145.807 42.7147 145.967 42.256C146.127 41.7973 146.207 41.2693 146.207 40.672C146.207 40.0747 146.125 39.5467 145.959 39.088C145.799 38.6293 145.549 38.272 145.207 38.016C144.871 37.76 144.442 37.632 143.919 37.632C143.365 37.632 142.909 37.768 142.551 38.04C142.194 38.312 141.927 38.6773 141.751 39.136C141.581 39.5947 141.495 40.1067 141.495 40.672C141.495 41.2427 141.581 41.76 141.751 42.224C141.927 42.6827 142.189 43.048 142.535 43.32C142.887 43.592 143.33 43.728 143.863 43.728ZM146.207 45V38.784H146.015V33.48H147.695V45H146.207ZM153.654 45.24C152.79 45.24 152.041 45.0453 151.406 44.656C150.771 44.2667 150.281 43.7307 149.934 43.048C149.593 42.36 149.422 41.568 149.422 40.672C149.422 39.7707 149.598 38.9787 149.95 38.296C150.302 37.608 150.795 37.0747 151.43 36.696C152.065 36.312 152.806 36.12 153.654 36.12C154.518 36.12 155.267 36.3147 155.902 36.704C156.537 37.0933 157.027 37.6293 157.374 38.312C157.721 38.9947 157.894 39.7813 157.894 40.672C157.894 41.5733 157.718 42.368 157.366 43.056C157.019 43.7387 156.529 44.2747 155.894 44.664C155.259 45.048 154.513 45.24 153.654 45.24ZM153.654 43.664C154.481 43.664 155.097 43.3867 155.502 42.832C155.913 42.272 156.118 41.552 156.118 40.672C156.118 39.7707 155.91 39.0507 155.494 38.512C155.083 37.968 154.47 37.696 153.654 37.696C153.094 37.696 152.633 37.824 152.27 38.08C151.907 38.3307 151.638 38.68 151.462 39.128C151.286 39.5707 151.198 40.0853 151.198 40.672C151.198 41.5787 151.406 42.304 151.822 42.848C152.238 43.392 152.849 43.664 153.654 43.664ZM163.372 45.24C162.508 45.24 161.759 45.0453 161.124 44.656C160.489 44.2667 159.999 43.7307 159.652 43.048C159.311 42.36 159.14 41.568 159.14 40.672C159.14 39.7707 159.316 38.9787 159.668 38.296C160.02 37.608 160.513 37.0747 161.148 36.696C161.783 36.312 162.524 36.12 163.372 36.12C164.236 36.12 164.985 36.3147 165.62 36.704C166.255 37.0933 166.745 37.6293 167.092 38.312C167.439 38.9947 167.612 39.7813 167.612 40.672C167.612 41.5733 167.436 42.368 167.084 43.056C166.737 43.7387 166.247 44.2747 165.612 44.664C164.977 45.048 164.231 45.24 163.372 45.24ZM163.372 43.664C164.199 43.664 164.815 43.3867 165.22 42.832C165.631 42.272 165.836 41.552 165.836 40.672C165.836 39.7707 165.628 39.0507 165.212 38.512C164.801 37.968 164.188 37.696 163.372 37.696C162.812 37.696 162.351 37.824 161.988 38.08C161.625 38.3307 161.356 38.68 161.18 39.128C161.004 39.5707 160.916 40.0853 160.916 40.672C160.916 41.5787 161.124 42.304 161.54 42.848C161.956 43.392 162.567 43.664 163.372 43.664ZM169.338 45V36.36H170.826V38.456L170.618 38.184C170.725 37.9067 170.863 37.6533 171.034 37.424C171.205 37.1893 171.402 36.9973 171.626 36.848C171.845 36.688 172.087 36.5653 172.354 36.48C172.626 36.3893 172.903 36.336 173.186 36.32C173.469 36.2987 173.741 36.312 174.002 36.36V37.928C173.719 37.8533 173.405 37.832 173.058 37.864C172.717 37.896 172.402 38.0053 172.114 38.192C171.842 38.368 171.626 38.5813 171.466 38.832C171.311 39.0827 171.199 39.3627 171.13 39.672C171.061 39.976 171.026 40.2987 171.026 40.64V45H169.338Z" fill="white"/>
</svg>
