<svg width="179" height="178" viewBox="0 0 179 178" fill="none" xmlns="http://www.w3.org/2000/svg">
<path fill-rule="evenodd" clip-rule="evenodd" d="M57.6594 53.2455C57.7282 31.4832 75.3257 8.52205 96.9621 8.5866C98.3713 8.59251 99.7791 8.67408 101.18 8.83097L101.224 0.196722C99.8319 0.0829924 98.4275 0.00461067 97.0064 0C82.9725 0.0174799 69.5169 5.62539 59.584 15.5966C49.6512 25.5677 44.05 39.0902 44.0061 53.2048C43.9623 67.3194 49.4793 80.8768 59.35 90.9102C69.2207 100.944 82.6413 106.636 96.6748 106.742C98.0959 106.742 99.5003 106.677 100.894 106.573L100.938 97.9383C99.5367 98.0866 98.1283 98.1589 96.7191 98.155C75.0751 98.0843 57.5891 75.0079 57.6594 53.2455ZM86.0347 50.4622L84.3217 56.888L118.922 60.4689L116.312 95.4347L122.701 93.9163L135.004 45.8885L86.0347 50.4622Z" fill="#7ABEDC"/>
<path d="M23.3884 176.58C22.8262 176.258 22.3724 175.775 22.0852 175.192C21.7858 174.533 21.6309 173.817 21.6309 173.093C21.6309 172.368 21.7858 171.652 22.0852 170.993C22.372 170.411 22.826 169.93 23.3884 169.611C23.9968 169.278 24.6814 169.111 25.3739 169.127C25.8728 169.124 26.3685 169.207 26.8394 169.372C27.2637 169.515 27.653 169.747 27.9811 170.053L27.5267 171.075C27.2183 170.815 26.8691 170.607 26.4932 170.461C26.1414 170.333 25.7698 170.268 25.3956 170.27C25.0717 170.252 24.7479 170.308 24.4488 170.434C24.1498 170.561 23.8833 170.754 23.6696 170.999C23.225 171.601 23.0084 172.343 23.0588 173.092C23.0096 173.843 23.224 174.588 23.6647 175.197C23.8776 175.445 24.1445 175.64 24.4447 175.767C24.7449 175.895 25.0703 175.951 25.3956 175.931C25.7698 175.934 26.1415 175.87 26.4932 175.741C26.8688 175.594 27.218 175.387 27.5267 175.126L27.9811 176.149C27.6529 176.455 27.2637 176.687 26.8394 176.83C26.3685 176.995 25.8728 177.078 25.3739 177.075C24.6804 177.088 23.9955 176.918 23.3884 176.58Z" fill="#303938"/>
<path d="M36.9173 176.972L36.1492 175.155H32.3845L31.6056 176.972H30.1992L33.6827 169.226H34.8186L38.3137 176.972H36.9173ZM32.8472 174.068H35.6815L34.2669 170.75L32.8472 174.068Z" fill="#303938"/>
<path d="M41.0215 169.225H44.3643C45.0615 169.182 45.7504 169.397 46.3007 169.829C46.5203 170.044 46.6948 170.301 46.8137 170.585C46.9327 170.869 46.9938 171.174 46.9933 171.482C46.9928 171.79 46.9308 172.095 46.811 172.378C46.6912 172.662 46.516 172.918 46.2958 173.132C45.7482 173.566 45.0612 173.783 44.3651 173.741H42.4212V176.973H41.0256V169.225H41.0215ZM44.2029 172.652C44.5917 172.679 44.9784 172.574 45.3005 172.353C45.4259 172.248 45.525 172.116 45.5898 171.966C45.6546 171.815 45.6832 171.652 45.6733 171.488C45.6841 171.324 45.6565 171.159 45.5927 171.006C45.5288 170.854 45.4304 170.719 45.3055 170.612C44.9819 170.39 44.5929 170.284 44.202 170.313H42.417V172.653L44.2029 172.652Z" fill="#303938"/>
<path d="M50.1738 176.972V169.226H51.5735V176.972H50.1738Z" fill="#303938"/>
<path d="M56.9688 176.972V170.379H54.459V169.226H60.895V170.379H58.3752V176.972H56.9688Z" fill="#303938"/>
<path d="M69.3743 176.972L68.6063 175.155H64.8415L64.0626 176.972H62.6562L66.1397 169.226H67.2756L70.7707 176.972H69.3743ZM65.305 174.068H68.1394L66.7247 170.75L65.305 174.068Z" fill="#303938"/>
<path d="M73.4707 176.972V169.226H74.8704V175.819H78.4729V176.972H73.4707Z" fill="#303938"/>
<path d="M86.7871 169.225H90.1299C90.8271 169.182 91.516 169.397 92.0664 169.829C92.2859 170.044 92.4604 170.301 92.5794 170.585C92.6983 170.869 92.7594 171.174 92.7589 171.482C92.7584 171.79 92.6965 172.095 92.5766 172.378C92.4568 172.662 92.2816 172.918 92.0614 173.132C91.5133 173.566 90.8262 173.783 90.1299 173.741H88.1868V176.973H86.7913L86.7871 169.225ZM89.9676 172.652C90.3565 172.679 90.7432 172.574 91.0653 172.353C91.1905 172.248 91.2896 172.116 91.3543 171.965C91.4191 171.815 91.4478 171.652 91.4381 171.488C91.4489 171.324 91.4213 171.159 91.3576 171.007C91.2939 170.854 91.1958 170.719 91.0711 170.612C90.7475 170.39 90.3585 170.284 89.9676 170.313H88.1818V172.653L89.9676 172.652Z" fill="#303938"/>
<path d="M100.995 176.972L100.227 175.155H96.4626L95.6837 176.972H94.2773L97.7608 169.226H98.8967L102.392 176.972H100.995ZM96.9261 174.068H99.7605L98.3458 170.75L96.9261 174.068Z" fill="#303938"/>
<path d="M111.434 176.972H109.962L108.977 174.393C108.913 174.181 108.77 174.001 108.577 173.891C108.357 173.788 108.116 173.74 107.874 173.75H106.478V176.972H105.094V169.225H108.393C109.104 169.175 109.809 169.379 110.385 169.801C110.616 170.007 110.797 170.263 110.915 170.549C111.033 170.836 111.084 171.146 111.065 171.456C111.08 171.926 110.937 172.387 110.66 172.766C110.368 173.14 109.964 173.409 109.508 173.533C109.742 173.59 109.957 173.708 110.13 173.877C110.304 174.045 110.429 174.258 110.493 174.491L111.434 176.972ZM108.199 172.663C108.609 172.695 109.018 172.592 109.364 172.37C109.494 172.262 109.596 172.125 109.662 171.97C109.728 171.815 109.756 171.646 109.743 171.477C109.755 171.312 109.728 171.146 109.663 170.994C109.598 170.842 109.498 170.707 109.37 170.602C109.02 170.382 108.609 170.281 108.197 170.313H106.454V172.663H108.199Z" fill="#303938"/>
<path d="M116.057 176.972V170.379H113.547V169.226H119.983V170.379H117.463V176.972H116.057Z" fill="#303938"/>
<path d="M128.586 169.226H129.895V176.972H128.857L124.702 171.54V176.969H123.404V169.226H124.443L128.586 174.644V169.226Z" fill="#303938"/>
<path d="M133.393 176.972V169.226H138.542V170.335H134.755V172.479H138.314V173.589H134.755V175.863H138.542V176.972H133.393Z" fill="#303938"/>
<path d="M148.051 176.972H146.579L145.595 174.393C145.53 174.181 145.387 174.001 145.194 173.891C144.975 173.788 144.733 173.74 144.491 173.75H143.096V176.972H141.711V169.225H145.01C145.721 169.175 146.426 169.379 147.002 169.801C147.233 170.007 147.414 170.263 147.532 170.549C147.65 170.836 147.702 171.146 147.683 171.456C147.697 171.926 147.554 172.387 147.277 172.766C146.985 173.14 146.581 173.409 146.125 173.533C146.359 173.59 146.574 173.708 146.747 173.877C146.921 174.045 147.046 174.258 147.11 174.491L148.051 176.972ZM144.817 172.663C145.226 172.695 145.635 172.592 145.982 172.37C146.111 172.262 146.213 172.125 146.279 171.97C146.345 171.815 146.373 171.646 146.36 171.477C146.372 171.312 146.345 171.146 146.28 170.994C146.215 170.842 146.115 170.707 145.987 170.602C145.637 170.382 145.226 170.281 144.814 170.313H143.072V172.663H144.817Z" fill="#303938"/>
<path d="M152.643 176.831C152.164 176.691 151.718 176.458 151.328 176.146L151.804 175.123C152.158 175.395 152.555 175.606 152.977 175.748C153.409 175.887 153.861 175.955 154.314 175.95C154.745 175.975 155.174 175.877 155.552 175.667C155.689 175.586 155.802 175.47 155.879 175.33C155.956 175.19 155.994 175.032 155.99 174.873C155.992 174.734 155.955 174.598 155.883 174.479C155.812 174.361 155.708 174.265 155.585 174.203C155.162 173.995 154.712 173.847 154.249 173.763C153.498 173.64 152.779 173.362 152.139 172.947C151.92 172.776 151.745 172.554 151.63 172.3C151.515 172.046 151.463 171.768 151.48 171.489C151.473 171.054 151.601 170.628 151.847 170.27C152.111 169.899 152.472 169.61 152.891 169.433C153.385 169.222 153.918 169.118 154.455 169.129C154.978 169.126 155.499 169.209 155.997 169.374C156.439 169.512 156.847 169.744 157.192 170.054L156.726 171.077C156.089 170.543 155.285 170.251 154.455 170.25C154.04 170.228 153.628 170.336 153.276 170.561C153.139 170.653 153.027 170.779 152.951 170.926C152.876 171.073 152.838 171.238 152.843 171.404C152.838 171.544 152.871 171.683 152.938 171.806C153.006 171.928 153.106 172.03 153.227 172.1C153.64 172.316 154.083 172.466 154.541 172.546C155.077 172.664 155.602 172.83 156.11 173.041C156.472 173.188 156.792 173.423 157.04 173.726C157.264 174.029 157.379 174.399 157.366 174.776C157.375 175.21 157.246 175.635 156.998 175.989C156.728 176.353 156.36 176.63 155.938 176.789C155.416 176.989 154.862 177.085 154.304 177.072C153.741 177.076 153.181 176.995 152.643 176.831Z" fill="#303938"/>
<path fill-rule="evenodd" clip-rule="evenodd" d="M51.2241 127.652H43.4117V156.601H67.7942V152.172H51.2241V127.652ZM72.8746 156.601H80.6869V127.652H72.8746V156.601ZM96.2044 127.652H88.392V156.601H112.774V152.172H96.2044V127.652ZM131.803 126.647C121.318 126.647 112.771 133.608 112.771 142.098C112.771 150.693 121.318 157.601 131.803 157.601C142.394 157.601 150.993 150.692 150.993 142.098C150.992 133.61 142.393 126.65 131.803 126.65V126.647ZM131.803 153.435C124.724 153.435 121.58 148.637 121.58 142.098C121.58 135.664 124.724 130.76 131.803 130.76C138.933 130.76 141.816 135.664 141.816 142.098C141.816 148.638 138.933 153.438 131.803 153.438V153.435ZM149.329 127.649L151.305 132.078H160.443V156.601H168.15V132.078H179V127.652L149.329 127.649ZM33.6828 141.18H19.2905L21.2319 145.69H27.7886V150.906C25.7148 152.624 23.0807 153.508 20.3964 153.385C13.8431 153.385 9.1763 149.166 9.1763 142.575C9.1763 135.72 13.1091 130.815 19.8197 130.815C24.9051 130.815 28.0515 132.766 31.7197 135.245L35.4944 131.87C30.9333 128.601 26.9481 126.65 19.8181 126.65C8.80765 126.65 0 133.399 0 142.575C0.000832167 151.433 9.33359 157.606 19.5568 157.606C27.578 157.606 31.6681 155.127 35.8098 152.175V141.201H33.6811V141.177L33.6828 141.18Z" fill="#303938"/>
</svg>
