<svg width="152" height="53" viewBox="0 0 152 53" fill="none" xmlns="http://www.w3.org/2000/svg">
<path d="M69.894 13.9497C69.894 17.7553 66.8731 20.5596 63.1658 20.5596C59.4584 20.5596 56.4375 17.7553 56.4375 13.9497C56.4375 10.1173 59.4584 7.33984 63.1658 7.33984C66.8731 7.33984 69.894 10.1173 69.894 13.9497ZM66.9487 13.9497C66.9487 11.5716 65.1978 9.94446 63.1658 9.94446C61.1337 9.94446 59.3828 11.5716 59.3828 13.9497C59.3828 16.304 61.1337 17.955 63.1658 17.955C65.1978 17.955 66.9487 16.301 66.9487 13.9497Z" fill="#EA4335"/>
<path d="M84.4096 13.9497C84.4096 17.7553 81.3887 20.5596 77.6814 20.5596C73.974 20.5596 70.9531 17.7553 70.9531 13.9497C70.9531 10.1203 73.974 7.33984 77.6814 7.33984C81.3887 7.33984 84.4096 10.1173 84.4096 13.9497ZM81.4643 13.9497C81.4643 11.5716 79.7135 9.94446 77.6814 9.94446C75.6493 9.94446 73.8984 11.5716 73.8984 13.9497C73.8984 16.304 75.6493 17.955 77.6814 17.955C79.7135 17.955 81.4643 16.301 81.4643 13.9497Z" fill="#FBBC05"/>
<path d="M98.3226 7.73918V19.606C98.3226 24.4874 95.4015 26.4811 91.9482 26.4811C88.6974 26.4811 86.7409 24.3384 86.0031 22.5861L88.5674 21.5341C89.024 22.6099 90.1429 23.8794 91.9451 23.8794C94.1556 23.8794 95.5255 22.5354 95.5255 20.0053V19.0546H95.4227C94.7634 19.8563 93.4934 20.5566 91.8907 20.5566C88.5372 20.5566 85.4648 17.6778 85.4648 13.9736C85.4648 10.2425 88.5372 7.33984 91.8907 7.33984C93.4904 7.33984 94.7604 8.04017 95.4227 8.81798H95.5255V7.74216H98.3226V7.73918ZM95.7341 13.9736C95.7341 11.6461 94.1587 9.94446 92.1538 9.94446C90.1217 9.94446 88.4192 11.6461 88.4192 13.9736C88.4192 16.2772 90.1217 17.955 92.1538 17.955C94.1587 17.955 95.7341 16.2772 95.7341 13.9736Z" fill="#4285F4"/>
<path d="M102.935 0.783203V20.1539H100.062V0.783203H102.935Z" fill="#34A853"/>
<path d="M114.126 16.1243L116.412 17.6262C115.674 18.7021 113.896 20.5557 110.824 20.5557C107.013 20.5557 104.168 17.6531 104.168 13.9458C104.168 10.0151 107.038 7.33594 110.494 7.33594C113.975 7.33594 115.677 10.0657 116.233 11.5409L116.539 12.2919L107.573 15.9514C108.259 17.2776 109.327 17.9541 110.824 17.9541C112.324 17.9541 113.364 17.2269 114.126 16.1243ZM107.089 13.7461L113.083 11.2935C112.753 10.468 111.761 9.89287 110.594 9.89287C109.097 9.89287 107.013 11.1952 107.089 13.7461Z" fill="#EA4335"/>
<path d="M45.5626 12.2299V9.42558H55.1515C55.2452 9.91431 55.2936 10.4925 55.2936 11.1183C55.2936 13.2222 54.71 15.8239 52.8291 17.6775C50.9996 19.555 48.6621 20.5563 45.5656 20.5563C39.8262 20.5563 35 15.949 35 10.2928C35 4.63654 39.8262 0.0292969 45.5656 0.0292969C48.7408 0.0292969 51.0027 1.2571 52.7021 2.85742L50.6942 4.83621C49.4756 3.70973 47.8245 2.83358 45.5626 2.83358C41.3714 2.83358 38.0935 6.16236 38.0935 10.2928C38.0935 14.4232 41.3714 17.752 45.5626 17.752C48.2811 17.752 49.8294 16.6762 50.8212 15.6987C51.6256 14.906 52.1548 13.7736 52.3634 12.2269L45.5626 12.2299Z" fill="#4285F4"/>
<path d="M4.536 48.24C3.944 48.24 3.392 48.12 2.88 47.88C2.37333 47.6347 1.93867 47.2987 1.576 46.872C1.21333 46.44 0.954667 45.944 0.8 45.384L2.408 44.952C2.49867 45.2933 2.65333 45.5893 2.872 45.84C3.096 46.0907 3.35733 46.2853 3.656 46.424C3.95467 46.5573 4.264 46.624 4.584 46.624C5.00533 46.624 5.38667 46.5227 5.728 46.32C6.07467 46.1173 6.34667 45.8453 6.544 45.504C6.74667 45.1627 6.848 44.7867 6.848 44.376C6.848 43.9547 6.744 43.5733 6.536 43.232C6.33333 42.8907 6.05867 42.6213 5.712 42.424C5.37067 42.2213 4.99467 42.12 4.584 42.12C4.11467 42.12 3.71733 42.2133 3.392 42.4C3.06667 42.5867 2.81333 42.8027 2.632 43.048L1.176 42.536L1.528 36.48H7.744V38.056H2.384L3.064 37.424L2.784 41.96L2.456 41.536C2.76 41.232 3.12267 41 3.544 40.84C3.96533 40.68 4.384 40.6 4.8 40.6C5.51467 40.6 6.152 40.7653 6.712 41.096C7.27733 41.4267 7.72267 41.8773 8.048 42.448C8.37333 43.0133 8.536 43.656 8.536 44.376C8.536 45.0907 8.352 45.7413 7.984 46.328C7.616 46.9093 7.128 47.3733 6.52 47.72C5.912 48.0667 5.25067 48.24 4.536 48.24ZM10.7198 48V46.232H12.4878V48H10.7198ZM18.9939 48.24C18.2099 48.24 17.5165 48.0693 16.9139 47.728C16.3112 47.3813 15.8365 46.9067 15.4899 46.304C15.1485 45.7013 14.9779 45.008 14.9779 44.224V40.256C14.9779 39.472 15.1485 38.7787 15.4899 38.176C15.8365 37.5733 16.3112 37.1013 16.9139 36.76C17.5165 36.4133 18.2099 36.24 18.9939 36.24C19.7779 36.24 20.4712 36.4133 21.0739 36.76C21.6765 37.1013 22.1485 37.5733 22.4899 38.176C22.8365 38.7787 23.0099 39.472 23.0099 40.256V44.224C23.0099 45.008 22.8365 45.7013 22.4899 46.304C22.1485 46.9067 21.6765 47.3813 21.0739 47.728C20.4712 48.0693 19.7779 48.24 18.9939 48.24ZM18.9939 46.64C19.4205 46.64 19.8072 46.5387 20.1539 46.336C20.5059 46.128 20.7859 45.8507 20.9939 45.504C21.2019 45.152 21.3059 44.76 21.3059 44.328V40.136C21.3059 39.7093 21.2019 39.3227 20.9939 38.976C20.7859 38.624 20.5059 38.3467 20.1539 38.144C19.8072 37.936 19.4205 37.832 18.9939 37.832C18.5672 37.832 18.1779 37.936 17.8259 38.144C17.4792 38.3467 17.2019 38.624 16.9939 38.976C16.7859 39.3227 16.6819 39.7093 16.6819 40.136V44.328C16.6819 44.76 16.7859 45.152 16.9939 45.504C17.2019 45.8507 17.4792 46.128 17.8259 46.336C18.1779 46.5387 18.5672 46.64 18.9939 46.64Z" fill="#FBBC05"/>
<path d="M28.3826 48V36.48H33.0386C33.1506 36.48 33.2893 36.4853 33.4546 36.496C33.62 36.5013 33.7773 36.5173 33.9266 36.544C34.5666 36.6453 35.1 36.864 35.5266 37.2C35.9586 37.536 36.2813 37.96 36.4946 38.472C36.708 38.984 36.8146 39.5493 36.8146 40.168C36.8146 41.0853 36.58 41.8773 36.1106 42.544C35.6413 43.2053 34.9373 43.6187 33.9986 43.784L33.3186 43.864H30.0546V48H28.3826ZM35.1186 48L32.8466 43.312L34.5346 42.88L37.0306 48H35.1186ZM30.0546 42.28H32.9746C33.0813 42.28 33.1986 42.2747 33.3266 42.264C33.46 42.2533 33.5853 42.2347 33.7026 42.208C34.044 42.128 34.3186 41.9813 34.5266 41.768C34.7346 41.5493 34.884 41.2987 34.9746 41.016C35.0653 40.7333 35.1106 40.4507 35.1106 40.168C35.1106 39.8853 35.0653 39.6053 34.9746 39.328C34.884 39.0453 34.7346 38.7973 34.5266 38.584C34.3186 38.3653 34.044 38.216 33.7026 38.136C33.5853 38.104 33.46 38.0827 33.3266 38.072C33.1986 38.0613 33.0813 38.056 32.9746 38.056H30.0546V42.28ZM41.1969 48.24C40.5569 48.24 40.0209 48.1227 39.5889 47.888C39.1569 47.648 38.8289 47.3333 38.6049 46.944C38.3862 46.5493 38.2769 46.1173 38.2769 45.648C38.2769 45.2107 38.3542 44.8267 38.5089 44.496C38.6635 44.1653 38.8929 43.8853 39.1969 43.656C39.5009 43.4213 39.8742 43.232 40.3169 43.088C40.7009 42.976 41.1355 42.8773 41.6209 42.792C42.1062 42.7067 42.6155 42.6267 43.1489 42.552C43.6875 42.4773 44.2209 42.4027 44.7489 42.328L44.1409 42.664C44.1515 41.9867 44.0075 41.4853 43.7089 41.16C43.4155 40.8293 42.9089 40.664 42.1889 40.664C41.7355 40.664 41.3195 40.7707 40.9409 40.984C40.5622 41.192 40.2982 41.5387 40.1489 42.024L38.5889 41.544C38.8022 40.8027 39.2075 40.2133 39.8049 39.776C40.4075 39.3387 41.2075 39.12 42.2049 39.12C42.9782 39.12 43.6502 39.2533 44.2209 39.52C44.7969 39.7813 45.2182 40.1973 45.4849 40.768C45.6235 41.0507 45.7089 41.3493 45.7409 41.664C45.7729 41.9787 45.7889 42.3173 45.7889 42.68V48H44.3089V46.024L44.5969 46.28C44.2395 46.9413 43.7835 47.4347 43.2289 47.76C42.6795 48.08 42.0022 48.24 41.1969 48.24ZM41.4929 46.872C41.9675 46.872 42.3755 46.7893 42.7169 46.624C43.0582 46.4533 43.3329 46.2373 43.5409 45.976C43.7489 45.7147 43.8849 45.4427 43.9489 45.16C44.0395 44.904 44.0902 44.616 44.1009 44.296C44.1169 43.976 44.1249 43.72 44.1249 43.528L44.6689 43.728C44.1409 43.808 43.6609 43.88 43.2289 43.944C42.7969 44.008 42.4049 44.072 42.0529 44.136C41.7062 44.1947 41.3969 44.2667 41.1249 44.352C40.8955 44.432 40.6902 44.528 40.5089 44.64C40.3329 44.752 40.1915 44.888 40.0849 45.048C39.9835 45.208 39.9329 45.4027 39.9329 45.632C39.9329 45.856 39.9889 46.064 40.1009 46.256C40.2129 46.4427 40.3835 46.592 40.6129 46.704C40.8422 46.816 41.1355 46.872 41.4929 46.872ZM52.7782 48C52.2342 48.1067 51.7009 48.152 51.1782 48.136C50.6556 48.12 50.1889 48.0187 49.7782 47.832C49.3676 47.6453 49.0582 47.352 48.8502 46.952C48.6636 46.5947 48.5622 46.232 48.5462 45.864C48.5356 45.4907 48.5302 45.0693 48.5302 44.6V36.96H50.2102V44.52C50.2102 44.8667 50.2129 45.168 50.2182 45.424C50.2289 45.68 50.2849 45.896 50.3862 46.072C50.5782 46.4027 50.8822 46.592 51.2982 46.64C51.7196 46.6827 52.2129 46.664 52.7782 46.584V48ZM46.8742 40.704V39.36H52.7782V40.704H46.8742ZM54.7279 37.944V36.32H56.3999V37.944H54.7279ZM54.7279 48V39.36H56.3999V48H54.7279ZM64.8342 48V43.752C64.8342 43.416 64.8049 43.072 64.7462 42.72C64.6929 42.3627 64.5862 42.032 64.4262 41.728C64.2716 41.424 64.0502 41.1787 63.7622 40.992C63.4796 40.8053 63.1089 40.712 62.6502 40.712C62.3516 40.712 62.0689 40.7627 61.8022 40.864C61.5356 40.96 61.3009 41.1173 61.0982 41.336C60.9009 41.5547 60.7436 41.8427 60.6262 42.2C60.5142 42.5573 60.4582 42.992 60.4582 43.504L59.4182 43.112C59.4182 42.328 59.5649 41.6373 59.8582 41.04C60.1516 40.4373 60.5729 39.968 61.1222 39.632C61.6716 39.296 62.3356 39.128 63.1142 39.128C63.7116 39.128 64.2129 39.224 64.6182 39.416C65.0236 39.608 65.3516 39.8613 65.6022 40.176C65.8582 40.4853 66.0529 40.824 66.1862 41.192C66.3196 41.56 66.4102 41.92 66.4583 42.272C66.5062 42.624 66.5302 42.9333 66.5302 43.2V48H64.8342ZM58.7622 48V39.36H60.2582V41.856H60.4582V48H58.7622ZM72.142 52.08C71.678 52.08 71.2273 52.008 70.79 51.864C70.358 51.72 69.9633 51.5067 69.606 51.224C69.2487 50.9467 68.9527 50.6027 68.718 50.192L70.262 49.408C70.4487 49.776 70.7153 50.0453 71.062 50.216C71.4087 50.3867 71.774 50.472 72.158 50.472C72.6327 50.472 73.038 50.3867 73.374 50.216C73.71 50.0507 73.9633 49.8 74.134 49.464C74.31 49.128 74.3953 48.712 74.39 48.216V45.8H74.59V39.36H76.07V48.232C76.07 48.4613 76.062 48.68 76.046 48.888C76.03 49.096 76.0007 49.304 75.958 49.512C75.8353 50.0933 75.6007 50.5733 75.254 50.952C74.9127 51.3307 74.4753 51.6133 73.942 51.8C73.414 51.9867 72.814 52.08 72.142 52.08ZM72.014 48.24C71.2087 48.24 70.5127 48.04 69.926 47.64C69.3447 47.24 68.894 46.696 68.574 46.008C68.2593 45.3147 68.102 44.536 68.102 43.672C68.102 42.8027 68.262 42.0267 68.582 41.344C68.902 40.656 69.3553 40.1147 69.942 39.72C70.534 39.32 71.2353 39.12 72.046 39.12C72.862 39.12 73.5473 39.32 74.102 39.72C74.662 40.1147 75.0833 40.656 75.366 41.344C75.654 42.032 75.798 42.808 75.798 43.672C75.798 44.536 75.654 45.312 75.366 46C75.078 46.688 74.654 47.2347 74.094 47.64C73.534 48.04 72.8407 48.24 72.014 48.24ZM72.246 46.728C72.7953 46.728 73.2433 46.5973 73.59 46.336C73.9367 46.0747 74.19 45.7147 74.35 45.256C74.51 44.7973 74.59 44.2693 74.59 43.672C74.59 43.0747 74.5073 42.5467 74.342 42.088C74.182 41.6293 73.9313 41.272 73.59 41.016C73.254 40.76 72.8247 40.632 72.302 40.632C71.7473 40.632 71.2913 40.768 70.934 41.04C70.5767 41.312 70.31 41.6773 70.134 42.136C69.9633 42.5947 69.878 43.1067 69.878 43.672C69.878 44.2427 69.9633 44.76 70.134 45.224C70.31 45.6827 70.5713 46.048 70.918 46.32C71.27 46.592 71.7127 46.728 72.246 46.728ZM81.6155 37.944V36.32H83.2875V37.944H81.6155ZM81.6155 48V39.36H83.2875V48H81.6155ZM91.7219 48V43.752C91.7219 43.416 91.6925 43.072 91.6339 42.72C91.5805 42.3627 91.4739 42.032 91.3139 41.728C91.1592 41.424 90.9379 41.1787 90.6499 40.992C90.3672 40.8053 89.9965 40.712 89.5379 40.712C89.2392 40.712 88.9565 40.7627 88.6899 40.864C88.4232 40.96 88.1885 41.1173 87.9859 41.336C87.7885 41.5547 87.6312 41.8427 87.5139 42.2C87.4019 42.5573 87.3459 42.992 87.3459 43.504L86.3059 43.112C86.3059 42.328 86.4525 41.6373 86.7459 41.04C87.0392 40.4373 87.4605 39.968 88.0099 39.632C88.5592 39.296 89.2232 39.128 90.0019 39.128C90.5992 39.128 91.1005 39.224 91.5059 39.416C91.9112 39.608 92.2392 39.8613 92.4899 40.176C92.7459 40.4853 92.9405 40.824 93.0739 41.192C93.2072 41.56 93.2979 41.92 93.3459 42.272C93.3939 42.624 93.4179 42.9333 93.4179 43.2V48H91.7219ZM85.6499 48V39.36H87.1459V41.856H87.3459V48H85.6499ZM103.353 48.24C102.579 48.24 101.867 48.1067 101.217 47.84C100.566 47.568 100.001 47.1733 99.5208 46.656C99.0408 46.1387 98.6674 45.5093 98.4008 44.768C98.1341 44.0267 98.0008 43.184 98.0008 42.24C98.0008 40.9973 98.2274 39.9307 98.6808 39.04C99.1341 38.144 99.7634 37.456 100.569 36.976C101.374 36.4907 102.302 36.248 103.353 36.248C104.707 36.248 105.787 36.5627 106.593 37.192C107.403 37.8213 107.955 38.6907 108.249 39.8L106.553 40.104C106.318 39.416 105.939 38.8667 105.417 38.456C104.894 38.0453 104.238 37.8373 103.449 37.832C102.633 37.8267 101.953 38.008 101.409 38.376C100.87 38.744 100.465 39.2613 100.193 39.928C99.9208 40.5893 99.7821 41.36 99.7768 42.24C99.7714 43.12 99.9048 43.8907 100.177 44.552C100.449 45.208 100.857 45.72 101.401 46.088C101.95 46.456 102.633 46.6427 103.449 46.648C104.105 46.6587 104.667 46.5387 105.137 46.288C105.611 46.032 105.987 45.6587 106.265 45.168C106.542 44.6773 106.721 44.0747 106.801 43.36H104.561V42.016H108.577C108.587 42.112 108.595 42.24 108.601 42.4C108.606 42.5547 108.609 42.6533 108.609 42.696C108.609 43.7627 108.403 44.7147 107.993 45.552C107.582 46.3893 106.985 47.048 106.201 47.528C105.417 48.0027 104.467 48.24 103.353 48.24ZM113.923 48.24C113.059 48.24 112.31 48.0453 111.675 47.656C111.041 47.2667 110.55 46.7307 110.203 46.048C109.862 45.36 109.691 44.568 109.691 43.672C109.691 42.7707 109.867 41.9787 110.219 41.296C110.571 40.608 111.065 40.0747 111.699 39.696C112.334 39.312 113.075 39.12 113.923 39.12C114.787 39.12 115.537 39.3147 116.171 39.704C116.806 40.0933 117.297 40.6293 117.643 41.312C117.99 41.9947 118.163 42.7813 118.163 43.672C118.163 44.5733 117.987 45.368 117.635 46.056C117.289 46.7387 116.798 47.2747 116.163 47.664C115.529 48.048 114.782 48.24 113.923 48.24ZM113.923 46.664C114.75 46.664 115.366 46.3867 115.771 45.832C116.182 45.272 116.387 44.552 116.387 43.672C116.387 42.7707 116.179 42.0507 115.763 41.512C115.353 40.968 114.739 40.696 113.923 40.696C113.363 40.696 112.902 40.824 112.539 41.08C112.177 41.3307 111.907 41.68 111.731 42.128C111.555 42.5707 111.467 43.0853 111.467 43.672C111.467 44.5787 111.675 45.304 112.091 45.848C112.507 46.392 113.118 46.664 113.923 46.664ZM123.641 48.24C122.777 48.24 122.028 48.0453 121.393 47.656C120.759 47.2667 120.268 46.7307 119.921 46.048C119.58 45.36 119.409 44.568 119.409 43.672C119.409 42.7707 119.585 41.9787 119.937 41.296C120.289 40.608 120.783 40.0747 121.417 39.696C122.052 39.312 122.793 39.12 123.641 39.12C124.505 39.12 125.255 39.3147 125.889 39.704C126.524 40.0933 127.015 40.6293 127.361 41.312C127.708 41.9947 127.881 42.7813 127.881 43.672C127.881 44.5733 127.705 45.368 127.353 46.056C127.007 46.7387 126.516 47.2747 125.881 47.664C125.247 48.048 124.5 48.24 123.641 48.24ZM123.641 46.664C124.468 46.664 125.084 46.3867 125.489 45.832C125.9 45.272 126.105 44.552 126.105 43.672C126.105 42.7707 125.897 42.0507 125.481 41.512C125.071 40.968 124.457 40.696 123.641 40.696C123.081 40.696 122.62 40.824 122.257 41.08C121.895 41.3307 121.625 41.68 121.449 42.128C121.273 42.5707 121.185 43.0853 121.185 43.672C121.185 44.5787 121.393 45.304 121.809 45.848C122.225 46.392 122.836 46.664 123.641 46.664ZM133.167 52.08C132.703 52.08 132.253 52.008 131.815 51.864C131.383 51.72 130.989 51.5067 130.631 51.224C130.274 50.9467 129.978 50.6027 129.743 50.192L131.287 49.408C131.474 49.776 131.741 50.0453 132.087 50.216C132.434 50.3867 132.799 50.472 133.183 50.472C133.658 50.472 134.063 50.3867 134.399 50.216C134.735 50.0507 134.989 49.8 135.159 49.464C135.335 49.128 135.421 48.712 135.415 48.216V45.8H135.615V39.36H137.095V48.232C137.095 48.4613 137.087 48.68 137.071 48.888C137.055 49.096 137.026 49.304 136.983 49.512C136.861 50.0933 136.626 50.5733 136.279 50.952C135.938 51.3307 135.501 51.6133 134.967 51.8C134.439 51.9867 133.839 52.08 133.167 52.08ZM133.039 48.24C132.234 48.24 131.538 48.04 130.951 47.64C130.37 47.24 129.919 46.696 129.599 46.008C129.285 45.3147 129.127 44.536 129.127 43.672C129.127 42.8027 129.287 42.0267 129.607 41.344C129.927 40.656 130.381 40.1147 130.967 39.72C131.559 39.32 132.261 39.12 133.071 39.12C133.887 39.12 134.573 39.32 135.127 39.72C135.687 40.1147 136.109 40.656 136.391 41.344C136.679 42.032 136.823 42.808 136.823 43.672C136.823 44.536 136.679 45.312 136.391 46C136.103 46.688 135.679 47.2347 135.119 47.64C134.559 48.04 133.866 48.24 133.039 48.24ZM133.271 46.728C133.821 46.728 134.269 46.5973 134.615 46.336C134.962 46.0747 135.215 45.7147 135.375 45.256C135.535 44.7973 135.615 44.2693 135.615 43.672C135.615 43.0747 135.533 42.5467 135.367 42.088C135.207 41.6293 134.957 41.272 134.615 41.016C134.279 40.76 133.85 40.632 133.327 40.632C132.773 40.632 132.317 40.768 131.959 41.04C131.602 41.312 131.335 41.6773 131.159 42.136C130.989 42.5947 130.903 43.1067 130.903 43.672C130.903 44.2427 130.989 44.76 131.159 45.224C131.335 45.6827 131.597 46.048 131.943 46.32C132.295 46.592 132.738 46.728 133.271 46.728ZM139.47 48V36.24H141.142V48H139.47ZM147.344 48.24C146.485 48.24 145.731 48.0533 145.08 47.68C144.435 47.3013 143.931 46.776 143.568 46.104C143.211 45.4267 143.032 44.6427 143.032 43.752C143.032 42.808 143.208 41.9893 143.56 41.296C143.917 40.6027 144.413 40.0667 145.048 39.688C145.683 39.3093 146.421 39.12 147.264 39.12C148.144 39.12 148.893 39.3253 149.512 39.736C150.131 40.1413 150.592 40.72 150.896 41.472C151.205 42.224 151.328 43.1173 151.264 44.152H149.592V43.544C149.581 42.5413 149.389 41.8 149.016 41.32C148.648 40.84 148.085 40.6 147.328 40.6C146.491 40.6 145.861 40.864 145.44 41.392C145.019 41.92 144.808 42.6827 144.808 43.68C144.808 44.6293 145.019 45.3653 145.44 45.888C145.861 46.4053 146.469 46.664 147.264 46.664C147.787 46.664 148.237 46.5467 148.616 46.312C149 46.072 149.299 45.7307 149.512 45.288L151.152 45.808C150.816 46.5813 150.307 47.1813 149.624 47.608C148.941 48.0293 148.181 48.24 147.344 48.24ZM144.264 44.152V42.848H150.432V44.152H144.264Z" fill="white"/>
</svg>
