<svg width="30" height="30" viewBox="0 0 30 30" fill="none" xmlns="http://www.w3.org/2000/svg">
<path fill-rule="evenodd" clip-rule="evenodd" d="M5 0C2.23858 0 0 2.23858 0 5V25C0 27.7614 2.23858 30 5 30H25C27.7614 30 30 27.7614 30 25V5C30 2.23858 27.7614 0 25 0H5ZM15.3026 24.6453C15.4494 24.7765 15.7081 24.8951 15.9579 24.9388L15.9573 24.9376C16.2442 24.9873 16.7743 24.934 16.9618 24.8376C17.0462 24.7969 17.0708 24.7687 17.0959 24.6938C17.1331 24.5753 17.1175 24.3752 17.0366 24.0572C16.9899 23.8703 16.9773 23.7673 16.9803 23.6079C16.9839 23.4923 16.9743 23.3456 16.9588 23.2803C16.9402 23.1899 16.9402 23.1431 16.9618 23.0838C16.9773 23.0401 16.9989 22.8341 17.0085 22.6221C17.0181 22.4442 17.0336 22.2633 17.0648 22.0854C17.1055 21.9009 17.2678 21.502 17.4829 21.0558C17.5703 20.8845 17.6392 20.7066 17.6889 20.5257C17.7446 20.2789 17.7913 19.8081 17.7698 19.6614C17.7572 19.562 17.7632 19.5434 17.8476 19.4308C17.9351 19.3158 18.0069 19.1505 18.0099 19.066C18.0099 19.0469 18.0722 18.9876 18.1471 18.9379C18.319 18.8223 18.6215 18.5042 18.7586 18.2982C18.8149 18.2113 18.8646 18.1424 18.8742 18.1424C18.8994 18.1394 19.0833 18.8199 19.0929 18.96L19.1054 19.1068L18.8778 19.3344C18.6999 19.5123 18.6346 19.5961 18.5754 19.7243L18.4975 19.8866L18.404 19.877C18.3292 19.874 18.301 19.8806 18.2855 19.9148C18.198 20.0891 18.2789 20.8599 18.4256 21.281L18.5754 21.6961C18.7502 22.1824 18.8 22.6131 18.7251 22.9748C18.6874 23.1276 18.6436 23.2773 18.5939 23.4241C18.4819 23.7577 18.4663 23.9607 18.5472 24.1165C18.6904 24.3878 18.8497 24.4255 19.9416 24.4411C20.3537 24.4411 20.7681 24.4627 21.1802 24.5004C21.9726 24.5848 22.3662 24.5411 22.5656 24.3477C22.6309 24.2854 22.6465 24.2572 22.6465 24.1793C22.6465 24.0044 22.5746 23.9517 22.0535 23.7457C21.6947 23.6085 21.3515 23.4336 21.0335 23.2216L20.6621 22.9814C20.6192 22.9531 20.5874 22.9326 20.564 22.9051C20.497 22.8264 20.4976 22.6903 20.4998 22.1519C20.4998 21.4469 20.5094 21.366 20.6465 20.6389C20.6963 20.3802 20.737 20.1274 20.737 20.0807C20.737 19.9747 20.6873 19.9214 20.5968 19.9214C20.5662 19.9214 20.5492 19.9214 20.5411 19.9129C20.531 19.9023 20.5349 19.8784 20.5435 19.8249C20.5621 19.7129 20.5932 19.6099 20.6777 19.3883C20.7466 19.1984 20.7867 18.9109 20.7681 18.7396C20.7562 18.618 20.7592 18.5965 20.8214 18.4964C20.9305 18.3 21.0119 18.0879 21.0586 17.8693C21.1239 17.5728 21.1395 16.8834 21.0898 16.4091C21.0586 16.1 20.9652 15.5418 20.9275 15.4046C20.9149 15.3675 20.9179 15.3675 20.9772 15.3986C21.1209 15.4735 21.3581 15.5298 21.5264 15.5298H21.6947L21.86 15.3615C22.0218 15.1932 22.1469 14.9901 22.256 14.7002C22.2841 14.6314 22.356 14.5193 22.4153 14.4475C22.9825 13.7706 23.0514 13.0124 22.5866 12.5476L22.4931 12.4541L22.5243 12.3104C22.5806 12.0672 22.5303 11.7803 22.3931 11.5461C22.3278 11.4371 22.3278 11.4341 22.359 11.3215C22.4464 11.022 22.4183 10.6884 22.2781 10.4015C22.1877 10.208 21.9505 9.96487 21.7756 9.87742C21.6977 9.84268 21.6288 9.78997 21.5791 9.7181C21.4731 9.56177 21.4264 9.53062 21.2982 9.53062C21.2042 9.53062 21.1796 9.52164 21.1389 9.46833C21.07 9.38388 20.9856 9.35273 20.8891 9.38088C20.8394 9.39645 20.8113 9.39645 20.8083 9.38088C20.7831 9.30601 20.6615 9.20299 20.4992 9.11854C20.3309 9.03109 20.2998 9.02151 20.1219 9.01851C19.941 9.01552 19.9284 9.01252 19.9158 8.95922C19.9092 8.93106 19.8937 8.72802 19.8877 8.51299C19.8721 8.17638 19.8781 8.03263 19.9314 7.51812C20.0188 6.62567 19.9907 6.24534 19.8224 6.08302C19.6349 5.90213 19.3821 5.83325 18.8832 5.83325C18.4747 5.83325 18.2968 5.86739 18.0596 5.98299C17.9003 6.06086 17.8692 6.10458 17.8225 6.31661C17.7787 6.51367 17.7847 7.51812 17.8284 7.77687C17.8626 7.97333 17.8566 8.13565 17.8003 8.46028C17.7751 8.61002 17.7721 8.61601 17.6817 8.65674C17.6098 8.68789 17.535 8.69388 17.3696 8.69088L17.1546 8.68789L17.0049 8.78791L16.8551 8.89093L16.7336 8.84721C16.5461 8.78132 16.4904 8.78791 16.3029 8.9095C16.1436 9.01612 16.128 9.01911 15.9627 9.02211C15.7662 9.0251 15.5949 9.0844 15.42 9.20599C15.3422 9.25869 15.2272 9.30541 15.0397 9.35872C14.1473 9.6019 12.8433 10.0577 11.8359 10.4788C11.2687 10.716 10.0426 11.3898 9.28431 11.8797C8.36072 12.4757 7.5623 13.3586 7.08793 14.3163C6.71658 15.059 6.54228 16.0449 6.76988 16.079C6.80462 16.085 6.88249 16.0197 7.03223 15.87C7.36585 15.5364 7.97439 15.0279 8.53262 14.6224C8.76022 14.4571 8.99741 14.3043 9.24718 14.1672C9.32204 14.1264 9.47538 14.036 9.58439 13.9641L9.78384 13.8359L9.87428 13.9264C9.94616 14.0042 10.0085 14.0887 10.0648 14.1791C10.2894 14.5439 10.411 14.9931 10.52 15.87C10.6008 16.5187 10.8003 16.9589 11.1842 17.3362C11.6987 17.8418 12.2695 18.0508 13.268 18.0975C13.4926 18.1065 13.7172 18.1227 13.9388 18.1442C14.6192 18.2251 15.0996 18.4623 15.4644 18.8929C15.7608 19.2457 15.8357 19.3236 15.9262 19.3799L16.0262 19.4392L15.9573 19.6045C15.8669 19.8537 15.7986 20.1094 15.7579 20.3718C15.7423 20.4628 15.7237 21.0492 15.7141 21.6823L15.6956 22.8269L15.6237 22.9982C15.583 23.0916 15.5302 23.2384 15.5051 23.3288C15.465 23.46 15.4087 23.5846 15.3368 23.7002C15.2182 23.9056 15.1433 24.1117 15.1433 24.2584C15.1469 24.4022 15.2026 24.5423 15.3026 24.6453ZM16.9186 24.474C16.9186 24.5585 16.8246 24.6519 16.7156 24.6831L16.715 24.6837C16.6024 24.7178 16.1532 24.7082 15.9226 24.6741C15.5854 24.6208 15.3703 24.4429 15.3703 24.2153C15.3703 23.9967 15.5015 23.8254 15.8758 23.5444C15.9627 23.4852 16.0316 23.4289 16.0316 23.4259C15.9879 23.4289 15.9477 23.4348 15.907 23.4474C15.8387 23.463 15.7758 23.4726 15.7698 23.463C15.7447 23.4354 15.7602 23.3133 15.801 23.2324C15.8387 23.1665 15.8854 23.1108 15.9351 23.0575L16.0286 22.9671L16.2843 22.9796C16.6623 23.0018 16.6683 23.0048 16.7276 23.1827C16.7527 23.2605 16.7713 23.339 16.7809 23.4199V23.5073L16.712 23.4696C16.6497 23.4354 16.6467 23.4384 16.6467 23.4792C16.6467 23.56 16.7749 24.047 16.8498 24.2309C16.8875 24.3273 16.9186 24.4363 16.9186 24.474ZM21.7534 23.9529C21.872 24.0841 21.8846 24.1991 21.7912 24.3117L21.7906 24.3129C21.7349 24.3788 21.7223 24.3848 21.5911 24.3818C21.5132 24.3818 21.2509 24.3506 21.0077 24.3129C20.7274 24.2722 20.3716 24.238 20.044 24.2225C19.6104 24.2039 19.5169 24.1913 19.4918 24.1602C19.451 24.1069 19.4325 23.9356 19.448 23.7733L19.4636 23.6295L19.3199 23.6139C19.2414 23.6049 19.1042 23.5768 19.0108 23.5486C18.8832 23.5109 18.8485 23.4893 18.8581 23.4612C18.8619 23.4498 18.8658 23.4384 18.8696 23.427C18.8879 23.3729 18.9062 23.3186 18.9269 23.2647C18.9737 23.1306 18.9862 23.0623 18.9862 22.8718C18.9862 22.3633 18.9174 21.9201 18.7832 21.5894L18.7113 21.4146L19.2073 21.4205C19.6655 21.4301 20.0272 21.402 20.2458 21.3427C20.2896 21.3301 20.2926 21.3427 20.2926 22.1878V23.0455L20.3489 23.0892C20.486 23.1761 20.6262 23.2575 20.7699 23.3354C20.97 23.4444 21.188 23.5726 21.2569 23.6223C21.3443 23.678 21.4318 23.7313 21.5192 23.778C21.6067 23.8248 21.6845 23.8841 21.7534 23.9529ZM16.8348 22.4747C16.8282 22.6742 16.8096 22.8425 16.797 22.8521L16.8012 22.8515C16.7611 22.873 16.5018 22.879 16.3616 22.8574C16.2867 22.8449 16.1556 22.8137 16.0681 22.7856L15.9124 22.7388L15.928 22.6173C15.9621 22.2088 15.9902 21.7967 16.0088 21.3882C16.0364 20.8983 16.0993 20.446 16.1801 20.137C16.2113 20.0148 16.243 19.8842 16.249 19.8435C16.2831 19.6434 16.5048 19.2847 16.8791 18.8139L16.9791 18.6893L16.9294 18.5084C16.7234 17.7879 16.7827 16.7804 17.0947 15.6729L17.1822 15.3705L17.3852 15.2333C17.5104 15.1524 17.6721 15.0087 17.8003 14.8745C17.9752 14.6936 18.0093 14.6433 18.0093 14.581C18.0093 14.4816 17.9656 14.4067 17.8219 14.26C17.7063 14.1474 17.7003 14.1318 17.7188 14.0665C17.7294 14.0143 17.7374 13.9642 17.7454 13.9144C17.7469 13.9048 17.7484 13.8952 17.75 13.8856L17.7626 13.7766L17.859 13.8204C17.9806 13.8737 18.5388 14.039 18.7604 14.0827C19.1659 14.1672 19.8302 14.1827 20.3794 14.1234L20.5321 14.1079V14.2732C20.5321 14.46 20.5729 14.7158 20.6693 15.1435C20.8724 16.0419 20.9814 17.0871 20.9221 17.586C20.8724 17.9951 20.7538 18.3443 20.601 18.5378L20.5357 18.6222L20.5483 18.875C20.5639 19.1619 20.5393 19.3056 20.4112 19.7141C20.3555 19.892 20.3207 19.9603 20.2866 19.9729C20.1338 19.995 19.9805 20.0106 19.8248 20.0166C19.466 20.0381 19.363 20.0381 19.0917 20.007C18.9168 19.9854 18.764 19.9573 18.7514 19.9447C18.7233 19.9172 18.7826 19.792 18.8886 19.6392C18.9856 19.5081 19.1258 19.4176 19.2881 19.3895L19.4097 19.3643L19.4001 19.2086C19.3875 18.9313 19.3157 18.6438 19.1599 18.2479L19.0102 17.8609L19.0665 17.7172C19.1509 17.5052 19.2132 17.2308 19.2725 16.8032C19.3037 16.5941 19.3504 16.2947 19.3756 16.1419C19.4163 15.8987 19.4319 15.8209 19.4816 15.6334C19.4876 15.6023 19.475 15.6118 19.4438 15.6586C19.3594 15.7802 19.2659 16.0641 19.0911 16.7223C18.997 17.0781 18.885 17.4614 18.8413 17.574C18.6508 18.0484 18.3609 18.4353 17.9584 18.7408C17.8524 18.8217 17.8273 18.8558 17.8147 18.9247C17.7901 19.096 17.7338 19.202 17.5715 19.3955C17.3559 19.6482 17.2313 19.9321 17.4122 19.7512L17.4996 19.6668L17.5056 19.8698C17.5152 20.21 17.393 20.6904 17.1624 21.2049C16.8815 21.835 16.8599 21.9165 16.8348 22.4747ZM20.3345 21.0456C20.2908 21.0827 20.0692 21.1205 19.826 21.136L19.8254 21.1354C19.4199 21.1606 19.1234 21.1636 18.9114 21.145C18.5933 21.1229 18.5867 21.1169 18.5556 20.9983C18.5355 20.9123 18.5263 20.8729 18.5413 20.8578C18.5541 20.845 18.5843 20.8496 18.64 20.8581C19.0054 20.8953 19.3762 20.9048 19.7445 20.8893C19.8979 20.8767 20.0506 20.8581 20.2033 20.827L20.3968 20.7833L20.3812 20.9018C20.3752 20.9677 20.3531 21.033 20.3345 21.0456ZM20.4154 20.4562C20.3375 20.4969 19.941 20.5652 19.6229 20.5934L19.6235 20.5898C19.1683 20.6269 18.7688 20.6113 18.5316 20.5461C18.4568 20.5245 18.4442 20.5119 18.4316 20.4371C18.4124 20.3125 18.416 20.1346 18.4376 20.122C18.4939 20.1256 18.5502 20.1382 18.5999 20.1597C18.7341 20.2065 18.7934 20.2094 19.3049 20.2094C19.829 20.2094 20.0913 20.1879 20.4375 20.116L20.5154 20.1004L20.4998 20.1783L20.4717 20.3436C20.4621 20.3969 20.4405 20.4436 20.4154 20.4562ZM16.5317 16.0233C15.677 16.8715 14.6318 17.5489 13.8334 17.7795L13.8328 17.7765C13.6867 17.8202 13.5896 17.8298 13.259 17.8328C12.6445 17.8424 12.2767 17.7705 11.8616 17.5644C11.4747 17.374 11.2405 17.1404 11.044 16.7535C10.9877 16.6444 10.9159 16.4606 10.8817 16.348L10.8254 16.1389L10.8721 16.0143C10.8973 15.9461 10.9848 15.7616 11.0656 15.6059C11.3873 14.9787 11.8958 14.3019 12.6349 13.5221C12.9344 13.204 13.6363 12.5272 13.6615 12.5272C13.6711 12.5272 13.6992 12.5769 13.7208 12.6362C13.8394 12.9321 14.0484 13.1819 14.3605 13.3909C14.6318 13.5532 14.9091 13.703 15.19 13.8401C15.5614 14.027 15.9106 14.2205 16.0106 14.2923L16.1855 14.4169L16.1981 14.5451C16.2137 14.7038 16.2508 14.7757 16.3975 14.941C16.488 15.038 16.5191 15.0908 16.5191 15.1441C16.5191 15.2345 16.6503 15.3339 16.8216 15.3747C16.8869 15.3902 16.9366 15.4118 16.9306 15.4244L16.8809 15.5837C16.8438 15.7083 16.8096 15.7454 16.5317 16.0233ZM9.66585 13.543C8.77939 14.0701 8.05585 14.5786 7.53176 15.0434L7.53296 15.0476C7.41436 15.1506 7.23348 15.319 7.13345 15.422L6.94598 15.6059L6.96454 15.5028C7.2203 14.1055 8.10316 12.9387 9.6347 11.9654C11.0698 11.0544 12.7325 10.3248 14.6354 9.7756C14.7726 9.73487 14.9037 9.69713 14.9253 9.69114C14.96 9.68156 14.96 9.68455 14.9193 9.75643C14.866 9.84987 14.8037 10.0589 14.8037 10.1493C14.8037 10.1991 14.7911 10.2146 14.7414 10.2272C14.3455 10.3177 14.2365 10.4548 14.0179 11.1472C13.9682 11.2969 13.9149 11.4311 13.8963 11.4437C13.8777 11.4527 13.7094 11.5305 13.5219 11.615C12.4893 12.0738 10.2462 13.1968 9.66585 13.543ZM22.1254 14.5882C22.0379 14.8721 21.8007 15.2309 21.648 15.3088V15.31C21.5576 15.3567 21.4515 15.3693 21.3515 15.3441C21.2359 15.3225 20.94 15.1758 20.8867 15.1195C20.846 15.0728 20.7807 14.726 20.7807 14.5547C20.7807 14.4301 20.7837 14.4241 20.9023 14.3115C21.0335 14.1869 21.055 14.1773 21.3485 14.1588C21.433 14.1558 21.5174 14.1396 21.5983 14.118C21.6702 14.0929 21.6732 14.0869 21.6606 13.9994C21.654 13.9437 21.6103 13.8467 21.545 13.7533C21.4018 13.5383 21.3737 13.4568 21.3737 13.2603C21.3737 13.0453 21.4018 12.986 21.533 12.9453L21.633 12.9111L21.4737 12.8734C21.3114 12.8327 21.1054 12.7333 21.0868 12.6799C21.0802 12.6644 21.1365 12.5212 21.2114 12.3619C21.3611 12.0468 21.4012 11.8755 21.3797 11.6414L21.3671 11.4976L21.4731 11.4539C21.654 11.382 21.6821 11.3449 21.7133 11.1574C21.7756 10.792 21.6229 10.365 21.3078 10.0248L21.2018 9.90617L21.3827 9.91875C21.6917 9.9439 21.9133 10.0936 22.0942 10.3991C22.2158 10.6016 22.244 10.9196 22.1661 11.1975L22.1098 11.4066C22.1008 11.4413 22.1224 11.497 22.1787 11.5815C22.3033 11.7749 22.3566 11.9492 22.3566 12.1678C22.3566 12.4266 22.3218 12.4985 22.138 12.62C21.9972 12.7075 21.8822 12.8201 21.9038 12.8417C21.9104 12.8477 21.9535 12.8291 22.0068 12.8039C22.4153 12.5919 22.6962 12.7824 22.6962 13.2783C22.6932 13.5964 22.5027 14.0611 22.2721 14.3169C22.2002 14.3948 22.1505 14.4882 22.1254 14.5882ZM17.7512 14.6475C17.6673 14.7757 17.5176 14.9254 17.3271 15.0752H17.3259C17.1918 15.1782 17.1414 15.2064 17.0762 15.2064C16.9612 15.2064 16.8018 15.1285 16.8018 15.0722C16.8018 15.041 16.7647 14.9973 16.7054 14.9566C16.4712 14.7913 16.3526 14.5888 16.3808 14.4014C16.3933 14.3205 16.3904 14.3139 16.2466 14.2079C16.0591 14.0677 15.8034 13.9084 15.3044 13.6245C14.3533 13.0848 14.1257 12.8536 13.9945 12.2798C13.9418 12.0522 13.9634 11.9618 14.1101 11.7587C14.2754 11.5341 14.3533 11.3652 14.4407 11.0472C14.4689 10.9316 14.506 10.819 14.5468 10.71C14.6246 10.5387 14.7959 10.4261 14.9864 10.4201C15.1301 10.4201 15.2517 10.483 15.3859 10.6231C15.4392 10.6794 15.4859 10.7196 15.4859 10.7136C15.4859 10.6171 15.2961 10.3704 15.1523 10.2799C15.0619 10.2242 15.0523 10.1398 15.1212 9.96187C15.2523 9.60968 15.6141 9.35093 16.0915 9.26648C16.3317 9.22276 16.597 9.23234 16.7497 9.29164C16.8275 9.32051 16.9083 9.34373 16.9894 9.367L17.0085 9.3725C17.1834 9.41922 17.7075 9.43778 17.9165 9.40664C18.31 9.34435 18.3346 9.34734 18.7341 9.44737C19.2049 9.56895 19.3139 9.56895 19.726 9.46294C20.0817 9.3695 20.2123 9.35992 20.3279 9.4288C20.4117 9.47549 20.4991 9.52219 20.5865 9.56889L20.5867 9.56896C20.8304 9.69713 21.0766 9.86544 21.164 9.96846C21.3354 10.1679 21.448 10.5015 21.451 10.8106C21.451 11.0196 21.4509 11.0286 21.3857 11.0849C21.3078 11.1538 21.2611 11.1478 21.0209 11.0352C20.7777 10.9202 20.4501 10.8202 20.2225 10.789C19.82 10.7357 19.1587 10.795 18.5472 10.9448C18.2603 11.0136 18.1699 11.0256 18.0105 11.0196C17.7674 11.01 17.6739 10.9633 17.2463 10.6609C17.078 10.5393 16.9342 10.4458 16.9312 10.4488C16.8593 10.5518 16.7905 10.7237 16.7563 10.8921C16.6377 11.491 16.3101 11.9181 15.9387 11.9618C15.8357 11.9774 15.8076 11.9678 15.58 11.8462C15.4428 11.7743 15.3242 11.715 15.3116 11.715C15.3056 11.715 15.3769 11.7929 15.4769 11.8863C15.7201 12.1175 15.8729 12.3511 16.0477 12.7506C16.2478 13.222 16.388 13.4652 16.6407 13.7772L16.7623 13.93L16.9588 13.9551C17.0738 13.9707 17.1864 14.0048 17.2924 14.0516C17.4517 14.1294 17.7386 14.3882 17.7823 14.4882C17.8075 14.5541 17.8045 14.5697 17.7512 14.6475ZM21.3611 13.7832C21.554 14.0078 21.5354 14.036 21.1736 14.0234L21.1742 14.0246C20.9778 14.0186 20.94 14.0246 20.8652 14.0683C20.8119 14.1025 20.7807 14.1085 20.7807 14.0899C20.7837 13.8809 20.84 13.3879 20.8867 13.1974C20.9006 13.1344 20.9165 13.0733 20.9326 13.0112C20.9381 12.9902 20.9436 12.969 20.949 12.9477C20.9891 12.962 21.0292 12.9818 21.0692 13.0016C21.0729 13.0034 21.0765 13.0052 21.0802 13.007L21.2084 13.0693L21.1772 13.1501C21.1024 13.3592 21.1581 13.549 21.3611 13.7832ZM20.4627 13.9671C20.4034 13.9767 20.1788 13.9923 19.9601 14.0048V14.0036C19.5295 14.0288 19.5235 14.0288 19.224 14.0036C18.9808 13.9821 18.806 13.9354 18.4879 13.8072C18.2447 13.7078 17.8578 13.5077 17.7829 13.4454C17.7548 13.4203 17.7332 13.3334 17.7051 13.1459L17.6554 12.8183C17.6494 12.7716 17.6583 12.7494 17.6991 12.7279C17.7829 12.6841 17.986 12.5254 17.986 12.5003C17.986 12.4883 17.9141 12.4847 17.8111 12.4943C17.496 12.5164 17.2996 12.4104 16.9001 11.9953C16.7845 11.8767 16.691 11.7677 16.691 11.7581C16.7102 11.7144 16.7318 11.6707 16.7599 11.63C16.8815 11.4335 16.9252 11.2874 16.9348 11.0094C16.9438 10.8286 16.9564 10.7441 16.9815 10.716C17.0127 10.6782 17.0252 10.6842 17.1468 10.7968C17.2996 10.9406 17.4619 11.043 17.7176 11.1556C17.9764 11.2682 18.1573 11.2772 18.4975 11.1993C18.6346 11.1652 18.8401 11.1215 18.9527 11.1029C19.224 11.0496 19.9482 11.031 20.1943 11.0652C20.4501 11.1059 20.6999 11.1718 20.94 11.2682C21.0712 11.3245 21.0772 11.3311 21.0898 11.4275C21.1239 11.6521 21.055 11.9516 20.8993 12.2948C20.6777 12.7788 20.6028 13.0812 20.5843 13.5928L20.5717 13.9515L20.4627 13.9671ZM17.3241 13.2621C17.3649 13.4712 17.3864 13.6521 17.3804 13.6616L17.3798 13.661C17.3673 13.7048 17.3577 13.7515 17.3517 13.7952C17.3391 13.8952 17.3331 13.9042 17.2894 13.8856C17.2612 13.8767 17.1582 13.8545 17.0552 13.8389L16.8713 13.8108L16.7749 13.6826C16.5161 13.343 16.4131 13.1555 16.2819 12.7656C16.2322 12.6159 16.1633 12.432 16.1292 12.3571C16.1076 12.3134 16.0891 12.2667 16.0795 12.2169L16.2011 12.1517L16.3167 12.0924L16.5317 12.3044C16.6659 12.4326 16.8096 12.5542 16.9624 12.6632C17.0016 12.6916 17.0408 12.7198 17.0764 12.7454C17.1456 12.7951 17.2009 12.8348 17.2151 12.8471C17.2463 12.8752 17.2744 12.9782 17.3241 13.2621ZM21.4515 9.67198C21.5204 9.74325 21.4923 9.76541 21.333 9.78099L21.3324 9.78338C21.1077 9.80195 21.0952 9.80195 21.0017 9.72109C20.9083 9.63724 20.7394 9.54679 20.4213 9.40304C20.2213 9.3126 20.1967 9.30601 20.0686 9.31859C19.9937 9.32817 19.8128 9.3683 19.669 9.40903C19.357 9.49289 19.1731 9.49948 18.9108 9.4276C18.4586 9.30601 18.3807 9.28745 18.1902 9.27487C18.0465 9.26229 17.9782 9.26588 17.953 9.28745C17.9063 9.32518 17.5104 9.34974 17.2918 9.32817C17.0923 9.30901 16.9803 9.27786 16.7617 9.18442C16.6773 9.15028 16.5527 9.11914 16.4622 9.10955C16.3748 9.10356 16.3089 9.08799 16.3185 9.07541C16.3436 9.03468 16.5557 8.94125 16.6275 8.94125C16.7276 8.94484 16.8833 9.01971 17.0145 9.12872C17.1361 9.23474 17.145 9.22575 17.0642 9.082L17.0049 8.97898L17.0702 8.92567C17.1918 8.82625 17.2726 8.7981 17.4008 8.81666C17.5727 8.83882 17.7787 8.9107 17.8752 8.97599C17.9908 9.05445 18.3495 9.17903 18.8299 9.30062C19.0729 9.3625 19.1963 9.39585 19.315 9.3834C19.4478 9.36944 19.5746 9.29804 19.8565 9.14489C20.041 9.04187 20.15 9.03229 20.3435 9.10716C20.4429 9.14729 20.5304 9.21018 20.6022 9.29104C20.6585 9.34375 20.7052 9.40304 20.746 9.47192C20.7586 9.51265 20.7741 9.51565 20.8742 9.50307C20.9838 9.49049 20.9898 9.49409 21.0772 9.59052C21.1617 9.68096 21.1736 9.68755 21.2269 9.66239C21.3078 9.62526 21.4078 9.62825 21.4515 9.67198ZM19.7451 9.13531L19.5546 9.23534C19.4175 9.30721 19.336 9.33536 19.2707 9.33536C19.0677 9.33237 18.1663 9.05146 18.1663 8.99216C18.1663 8.98317 18.113 8.9083 18.0477 8.82385C17.9261 8.67112 17.9261 8.66812 17.9417 8.55552C17.9542 8.49622 17.9602 8.39979 17.9602 8.34349L17.9632 8.23747L18.1381 8.41536C18.21 8.49023 18.2879 8.55911 18.3723 8.6214C18.4352 8.65554 19.112 8.6807 19.2492 8.65554C19.2959 8.64596 19.4049 8.58067 19.5175 8.49323L19.708 8.34648L19.7236 8.54593C19.7243 8.56327 19.7252 8.58061 19.726 8.59797C19.7312 8.71139 19.7365 8.82549 19.7391 8.94185L19.7451 9.13531ZM19.611 7.90924C19.5265 8.32073 19.4175 8.48304 19.1929 8.52677L19.1923 8.52617C19.0521 8.55132 18.7059 8.55132 18.5436 8.52317C18.4005 8.49802 18.3316 8.44531 18.2537 8.29856C18.0914 7.99609 17.998 7.1881 18.0602 6.62028L18.0614 6.61051C18.0944 6.32424 18.0952 6.31712 18.1693 6.25552C18.2908 6.1525 18.4376 6.11836 18.7934 6.10578C19.3642 6.08721 19.6637 6.2058 19.7014 6.47414C19.7421 6.77062 19.6984 7.46601 19.611 7.90924Z" fill="white"/>
</svg>
