<svg width="19" height="21" viewBox="0 0 19 21" fill="none" xmlns="http://www.w3.org/2000/svg">
<path d="M18.917 11.0164C18.7872 10.8217 18.5925 10.6919 18.3329 10.6919C16.905 10.6919 15.542 11.3409 14.6982 12.5092L14.1141 13.288C13.4002 14.1318 12.2968 14.5861 11.1934 14.5861H9.24632C8.8569 14.5861 8.59728 14.3265 8.59728 13.9371C8.59728 13.5477 8.8569 13.288 9.24632 13.288H10.4795C11.518 13.288 12.4915 12.4443 12.4915 11.4058V11.3409C12.4915 11.0164 12.167 10.6919 11.8425 10.6919H7.88334C5.5468 10.6919 3.66459 11.7304 2.62613 13.4179L0.873723 16.1438C0.743915 16.3385 0.743915 16.5981 0.873723 16.7929L2.82084 20.038C2.88574 20.1679 3.08045 20.2977 3.21026 20.3626C3.27517 20.3626 3.27517 20.3626 3.34007 20.3626C3.46988 20.3626 3.59968 20.2977 3.72949 20.2328C6.19584 18.6102 9.05161 17.7664 11.9723 17.7664C14.1141 17.7664 16.0612 16.5981 17.0997 14.7159L18.8521 11.6005C18.9819 11.4707 18.9819 11.2111 18.917 11.0164Z" fill="#6167F8"/>
<path d="M7.88341 9.39391H11.8425C12.881 9.39391 13.7897 10.2377 13.7897 11.2761V11.4059L17.8137 7.25208C19.3714 5.62949 19.3714 3.09824 17.8137 1.47564C17.0349 0.7617 16.0613 0.307373 15.0228 0.307373C13.9844 0.307373 12.9459 0.7617 12.1671 1.54055L11.8425 1.86507L11.518 1.54055C10.7392 0.7617 9.76562 0.307373 8.66226 0.307373C7.6238 0.307373 6.65024 0.7617 5.87139 1.54055C4.3137 3.16314 4.3137 5.69439 5.87139 7.31699L7.88341 9.39391ZM8.59736 5.49968H9.63582L10.7392 4.39632C10.869 4.26651 11.0637 4.2016 11.3233 4.2016C11.518 4.26651 11.7127 4.39632 11.7776 4.52612L12.4267 5.8242L13.2055 3.94199C13.2704 3.74728 13.4651 3.55257 13.7248 3.55257C13.9844 3.55257 14.1791 3.61747 14.3089 3.81218L15.607 5.7593C15.8017 6.08382 15.7368 6.47324 15.4123 6.66795C15.0877 6.86266 14.6983 6.79776 14.5036 6.47324L13.9195 5.56458L13.0757 7.64151C13.0108 7.90112 12.7512 8.09583 12.4916 8.09583C12.232 8.09583 12.0373 7.96603 11.9075 7.70641L10.9988 5.8891L10.3498 6.53814C10.22 6.73285 10.0901 6.79776 9.89543 6.79776H8.59736C8.20793 6.79776 7.94832 6.53814 7.94832 6.14872C7.94832 5.7593 8.20793 5.49968 8.59736 5.49968Z" fill="#6167F8"/>
</svg>
