<svg width="474" height="76" viewBox="0 0 474 76" fill="none" xmlns="http://www.w3.org/2000/svg">
<path fill-rule="evenodd" clip-rule="evenodd" d="M361.334 1.31413H380.6V30.5865H419.628V1.31413H438.9V74.4309H419.628V42.1749H380.6V74.4309H361.334V1.31413ZM0 1.31413H19.2748V30.5865H58.297V1.31413H77.6907V74.4309H58.297V42.1749H19.2748V74.4309H0V1.31413ZM93.6317 1.31413H113.147V74.4309H93.6317V1.31413ZM454.487 1.31413H474V74.4309H454.487V1.31413ZM120.284 1.31413H196.073V13.4993H167.757V74.4309H148.601V13.4993H120.284V1.31413ZM212.727 46.4744L226.173 13.8573L239.499 46.4744H212.727ZM244.375 58.0628L251.039 74.4309H272.816L238.429 1.43348H214.038L179.416 74.4309H201.068L207.851 58.0628H244.375ZM331.467 26.1648H351.22C350.976 12.9025 339.557 0.239987 313.024 0.00129086C293.276 -0.118057 269.36 8.00636 269.239 37.7532C269.12 67.2613 293.511 76.4599 313.024 75.9825C330.988 75.3857 350.976 70.3702 351.814 48.1481L331.942 48.2675C331.348 62.1293 320.286 64.8744 313.027 64.9937C305.53 64.9937 290.18 63.4422 289.948 38.1141C289.711 14.2212 303.747 10.8765 313.027 10.8765C322.187 10.993 331.348 15.2953 331.467 26.1648Z" fill="#CF4044"/>
</svg>
