<svg width="30" height="30" viewBox="0 0 30 30" fill="none" xmlns="http://www.w3.org/2000/svg">
<path fill-rule="evenodd" clip-rule="evenodd" d="M24.9999 0H5.00001C2.25 0 0 2.25 0 5.00001V25C0 27.75 2.25 30 5.00001 30H25C27.75 30 30 27.75 30 25V5.00001C29.9999 2.25 27.7499 0 24.9999 0ZM12.1725 10.2917C11.9576 10.2917 11.7547 10.3908 11.6224 10.5602C11.4902 10.7295 11.4433 10.9504 11.4955 11.1589L12.1933 13.9505C12.271 14.2612 12.5502 14.4791 12.8704 14.4791H16.2203C16.2974 14.4791 16.3599 14.5416 16.3599 14.6187V16.2259C16.3599 16.263 16.3452 16.2985 16.319 16.3247L15.0628 17.5809C15.0083 17.6354 14.9199 17.6354 14.8654 17.5809L13.3639 16.0793C13.0914 15.8068 12.6495 15.8068 12.3769 16.0793C12.1044 16.3519 12.1044 16.7938 12.3769 17.0663L14.4706 19.16C14.7432 19.4325 15.1851 19.4325 15.4576 19.16L17.5513 17.0663C17.6821 16.9355 17.7557 16.7579 17.7557 16.5728V13.7812C17.7557 13.3958 17.4433 13.0833 17.0578 13.0833H13.5243C13.4602 13.0833 13.4044 13.0397 13.3889 12.9776L13.1097 11.861C13.0877 11.7729 13.1543 11.6875 13.2451 11.6875H17.7557C18.1411 11.6875 18.4536 11.3751 18.4536 10.9896C18.4536 10.6042 18.1411 10.2917 17.7557 10.2917H12.1725ZM7.52144 9.88978C7.34125 8.62847 8.31997 7.5 9.59408 7.5H20.3333C21.6074 7.5 22.5861 8.62847 22.4059 9.88978L21.3109 17.5549C21.2401 18.0507 20.9939 18.5047 20.617 18.8345L16.3424 22.5747C15.553 23.2654 14.3744 23.2654 13.585 22.5747L9.31039 18.8345C8.93348 18.5047 8.68728 18.0507 8.61645 17.5549L7.52144 9.88978ZM9.59408 8.8958C9.16938 8.8958 8.84314 9.27196 8.9032 9.69239L9.99821 17.3575C10.0218 17.5227 10.1039 17.6741 10.2295 17.784L14.5041 21.5243C14.7672 21.7545 15.1602 21.7545 15.4233 21.5243L19.6979 17.784C19.8235 17.6741 19.9056 17.5227 19.9292 17.3575L21.0242 9.69239C21.0843 9.27196 20.758 8.8958 20.3333 8.8958H9.59408Z" fill="white"/>
</svg>
