<svg width="115" height="31" viewBox="0 0 115 31" fill="none" xmlns="http://www.w3.org/2000/svg">
<g clip-path="url(#clip0_222_1479)">
<path fill-rule="evenodd" clip-rule="evenodd" d="M113.932 5.28061C113.528 4.82709 112.986 4.59652 112.253 4.59652C111.52 4.59652 110.961 4.83931 110.572 5.34016C110.182 5.82422 109.981 6.55107 109.981 7.50392V14.4121C109.08 13.4409 108.144 12.7446 107.194 12.2758C106.539 11.9676 105.841 11.763 105.123 11.6696C104.649 11.6067 104.171 11.576 103.692 11.578C101.312 11.578 99.3832 12.3964 97.9035 14.0334C96.4407 15.6703 95.7077 17.9425 95.7077 20.8621C95.7077 22.2425 95.8955 23.5298 96.2681 24.7101C96.6438 25.889 97.1691 26.9212 97.8867 27.7977C98.5798 28.6513 99.4499 29.3442 100.437 29.8286C101.433 30.3041 102.523 30.5469 103.627 30.5387C104.154 30.5387 104.653 30.4944 105.119 30.4043C105.432 30.3585 105.725 30.2821 106.023 30.1905C106.749 29.9498 107.436 29.603 108.061 29.1613C108.761 28.6475 109.403 28.0586 109.974 27.4053V27.8588C109.974 28.7216 110.193 29.3736 110.613 29.8439C111.049 30.2974 111.595 30.5387 112.247 30.5387C112.915 30.5387 113.459 30.3112 113.881 29.8744C114.297 29.4194 114.517 28.7536 114.517 27.8619V7.26571C114.523 6.3999 114.322 5.7326 113.932 5.28061ZM109.093 24.333C108.673 25.211 108.112 25.863 107.429 26.2875C106.727 26.7136 105.963 26.9228 105.123 26.9228H105.108C104.292 26.9265 103.492 26.696 102.804 26.2585C102.103 25.8035 101.544 25.1377 101.141 24.2597C100.738 23.3664 100.536 22.2898 100.536 21.0179C100.536 19.8207 100.721 18.7625 101.112 17.8692C101.486 16.9591 102.029 16.2628 102.715 15.7802C103.418 15.2794 104.196 15.0519 105.079 15.0519H105.125C105.951 15.0519 106.713 15.2931 107.414 15.7619C108.115 16.2322 108.673 16.9163 109.093 17.8081C109.513 18.7014 109.716 19.7779 109.716 21.0179C109.716 22.3494 109.513 23.4565 109.093 24.333ZM93.9822 24.5315C93.686 24.2749 93.2813 24.1375 92.7835 24.1375C92.3315 24.1375 91.9895 24.2444 91.7406 24.4414C91.1328 24.985 90.6518 25.4248 90.2747 25.7424C89.9051 26.0463 89.4806 26.3486 89.0332 26.6341C88.6104 26.9049 88.1491 27.1103 87.665 27.2434C87.1522 27.3802 86.623 27.446 86.0922 27.4389C85.9685 27.4389 85.8433 27.4389 85.7334 27.4236C85.0307 27.3866 84.3476 27.1785 83.7437 26.8174C83.026 26.4097 82.4671 25.8065 82.0304 25.0171C81.6105 24.1986 81.3921 23.261 81.3784 22.1998H90.7618C92.0215 22.1998 93.0004 22.0165 93.686 21.6852C94.3884 21.3202 94.7289 20.5628 94.7289 19.3977C94.7289 18.1257 94.3869 16.8843 93.718 15.6566C93.0492 14.4426 92.0536 13.4439 90.7007 12.6743C89.36 11.9017 87.7582 11.523 85.8754 11.523H85.7364C84.3514 11.5382 83.0749 11.7673 81.9403 12.1903C80.8114 12.6145 79.7863 13.2752 78.9336 14.128C78.1191 15.0056 77.4952 16.0423 77.1012 17.1729C76.669 18.4084 76.4521 19.7089 76.4599 21.0179C76.4599 23.9573 77.3181 26.2585 79.0283 27.9687C80.6469 29.5904 82.887 30.4394 85.7334 30.5295C85.8906 30.5448 86.0586 30.5448 86.2327 30.5448C87.5703 30.5448 88.7675 30.3768 89.8089 30.0302C90.8519 29.682 91.7085 29.256 92.3957 28.7429C93.0767 28.2131 93.5913 27.6679 93.9333 27.109C94.2754 26.5486 94.4479 26.0478 94.4479 25.6385C94.4479 25.1652 94.2952 24.788 93.9822 24.5315ZM82.7802 15.9727C83.5437 15.1695 84.5225 14.7755 85.7211 14.7755H85.7395C86.9825 14.7755 87.9949 15.1695 88.7568 15.9559C89.5203 16.7453 89.9708 17.941 90.0807 19.5443H81.3799C81.5341 17.9715 82.0029 16.7743 82.7802 15.9727ZM73.5494 24.136C73.0837 24.136 72.7417 24.2429 72.4928 24.4383C71.9018 24.9835 71.404 25.4232 71.0299 25.7409C70.6558 26.0432 70.2511 26.3471 69.7991 26.6326C69.3502 26.906 68.8967 27.1182 68.4157 27.2404C67.903 27.3783 67.3737 27.444 66.8429 27.4358C66.7207 27.4358 66.5955 27.4358 66.4856 27.4206C65.7826 27.3835 65.0992 27.176 64.4943 26.8159C63.7713 26.3864 63.1839 25.7619 62.7994 25.014C62.3627 24.1971 62.1443 23.258 62.1275 22.1982H71.5262C72.7707 22.1982 73.7495 22.015 74.4504 21.6821C75.1345 21.3187 75.4796 20.5613 75.4796 19.3962C75.4796 18.1227 75.1513 16.8812 74.4824 15.655C73.8136 14.4411 72.8027 13.4409 71.4651 12.6713C70.1244 11.9001 68.5073 11.5215 66.6428 11.5215H66.4856C65.1021 11.5367 63.8423 11.7658 62.6894 12.1888C61.5638 12.6081 60.5438 13.269 59.7011 14.125C58.875 14.997 58.2441 16.035 57.8504 17.1698C57.417 18.405 57.2 19.7058 57.209 21.0148C57.209 23.9543 58.0825 26.2555 59.7927 27.9657C61.4113 29.5889 63.6362 30.4364 66.484 30.5265C66.6551 30.5417 66.8078 30.5417 66.9818 30.5417C68.3347 30.5417 69.5182 30.3753 70.5596 30.0287C71.601 29.679 72.4592 29.2545 73.1417 28.7414C73.8442 28.21 74.3404 27.6664 74.684 27.1075C75.0245 26.5471 75.1986 26.0463 75.1986 25.6355C75.1986 25.1667 75.0413 24.788 74.7466 24.5315C74.4382 24.2719 74.0304 24.136 73.5494 24.136ZM63.5293 15.9727C64.2913 15.1695 65.2731 14.7755 66.4718 14.7755H66.4886C67.7316 14.7755 68.744 15.1695 69.506 15.9559C70.2832 16.7453 70.7199 17.941 70.8451 19.5443H62.1306C62.3016 17.9715 62.7704 16.7743 63.5293 15.9727ZM9.99579 27.4389V16.2903C10.3195 16.3208 10.6325 16.3346 10.9593 16.3346C12.4562 16.3416 13.9278 15.9494 15.2227 15.1985V27.4358C15.2227 28.4818 14.9738 29.253 14.4897 29.7691C14.0087 30.2822 13.3705 30.5387 12.5932 30.5387C11.8297 30.5387 11.2235 30.2821 10.7257 29.7523C10.2447 29.2392 9.99579 28.4665 9.99579 27.4389ZM55.1949 5.28214C54.7903 4.82709 54.2314 4.59652 53.5305 4.59652C52.7975 4.59652 52.2387 4.83931 51.8478 5.34016C51.4446 5.82422 51.2568 6.55107 51.2568 7.50392V14.4121C50.3559 13.4409 49.4244 12.7446 48.4716 12.2758C47.8173 11.9696 47.12 11.7652 46.404 11.6696C45.9292 11.6065 45.4506 11.5759 44.9717 11.578C42.5911 11.578 40.6457 12.3964 39.1844 14.0334C37.72 15.6703 36.9885 17.9425 36.9885 20.8621C36.9885 22.2425 37.1763 23.5298 37.5321 24.7101C37.8757 25.8344 38.4313 26.8825 39.1691 27.7977C39.8616 28.6518 40.7318 29.3448 41.7192 29.8286C42.7149 30.3041 43.8057 30.5469 44.9091 30.5387C45.4221 30.5387 45.9199 30.4944 46.4009 30.4043C46.714 30.3585 47.0087 30.2821 47.3049 30.1905C48.0314 29.9498 48.7184 29.603 49.3435 29.1613C49.9802 28.7063 50.6063 28.1153 51.2553 27.4053V27.8588C51.2553 28.7216 51.4752 29.3736 51.8951 29.8439C52.315 30.2974 52.8769 30.5387 53.529 30.5387C54.1657 30.5387 54.7277 30.3112 55.1476 29.8744C55.5675 29.4194 55.7676 28.7536 55.7676 27.8619V7.26571C55.7691 6.3999 55.5843 5.7326 55.1965 5.28061L55.1949 5.28214ZM50.3696 24.333C49.9512 25.211 49.3893 25.863 48.6899 26.2875C48.0058 26.7136 47.2255 26.9228 46.404 26.9228H46.3887C45.5489 26.9228 44.7854 26.6952 44.086 26.2585C43.3714 25.8035 42.8262 25.1377 42.4216 24.2597C42.0185 23.3664 41.8154 22.2898 41.8154 21.0179C41.8154 19.8207 42.0032 18.7625 42.3743 17.8692C42.7621 16.9591 43.292 16.2628 43.9929 15.7802C44.677 15.2794 45.471 15.0519 46.3429 15.0519H46.404C47.2286 15.0519 47.9906 15.2931 48.6762 15.7619C49.3923 16.2322 49.9512 16.9163 50.3711 17.8081C50.7743 18.7014 50.9942 19.7779 50.9942 21.0179C50.9942 22.3494 50.7727 23.4565 50.3696 24.333ZM22.8959 14.125V14.7022C23.751 13.6104 24.6687 12.824 25.6658 12.3079C26.6767 11.8101 27.8281 11.5505 29.1352 11.5505C30.3965 11.5505 31.5326 11.8253 32.5251 12.3537C33.4893 12.8555 34.2686 13.6513 34.75 14.6258C35.0783 15.2 35.2813 15.823 35.373 16.4903C35.4661 17.1408 35.5119 17.9883 35.5119 19.019V27.7C35.5119 28.6376 35.2783 29.3492 34.8431 29.8179C34.4094 30.302 33.8322 30.5433 33.1329 30.5433C32.4152 30.5433 31.841 30.302 31.389 29.8042C30.937 29.3171 30.7187 28.6086 30.7187 27.7V19.923C30.7187 18.3792 30.5003 17.1988 30.0651 16.3804C29.6299 15.5649 28.7412 15.1542 27.4387 15.1542C26.5805 15.1542 25.8048 15.4107 25.1024 15.8963C24.386 16.4087 23.8435 17.1281 23.5479 17.9578C23.3143 18.6525 23.2058 19.9398 23.2058 21.8669V27.6969C23.2058 28.6498 22.9737 29.3461 22.5233 29.8332C22.0713 30.302 21.4971 30.5433 20.7794 30.5433C20.0786 30.5433 19.5166 30.302 19.0677 29.8042C18.6157 29.3171 18.3989 28.6086 18.3989 27.7V14.2013C18.3989 13.3096 18.6019 12.6438 19.0066 12.2162C19.3945 11.7795 19.9381 11.5505 20.6405 11.5505C21.0604 11.5505 21.4345 11.6421 21.775 11.8391C22.1171 12.0345 22.395 12.3231 22.5996 12.7156C22.8012 13.1095 22.8959 13.5814 22.8959 14.125ZM10.0248 0.722522C13.262 -0.413565 16.9497 -0.352485 19.7182 1.97771C20.2328 2.4465 20.8222 3.03898 21.0558 3.73376C21.3368 4.61484 20.077 3.64214 19.9045 3.52151C19.0005 2.94583 18.0996 2.46177 17.0887 2.12889C11.6434 0.494999 6.49133 3.44821 3.28768 8.03837C1.95003 10.0632 1.07812 12.201 0.36501 14.5464C0.285606 14.803 0.224526 15.1374 0.0840425 15.3634C-0.0579684 15.623 0.0229625 14.6686 0.0229625 14.6365C0.129852 13.6669 0.332943 12.7278 0.584898 11.7902C2.06151 6.79234 5.32775 2.62822 10.0263 0.719468L10.0248 0.722522ZM16.2947 9.7028C16.2665 10.703 15.8493 11.6528 15.1319 12.3502C14.4145 13.0477 13.4533 13.4379 12.4527 13.4379C11.4521 13.4379 10.491 13.0477 9.77357 12.3502C9.05614 11.6528 8.639 10.703 8.6108 9.7028C8.59632 9.18915 8.68498 8.67782 8.87154 8.19904C9.0581 7.72025 9.33877 7.28374 9.69696 6.91531C10.0551 6.54688 10.4836 6.25401 10.9569 6.05403C11.4302 5.85405 11.9389 5.75101 12.4527 5.75101C12.9666 5.75101 13.4752 5.85405 13.9485 6.05403C14.4219 6.25401 14.8503 6.54688 15.2085 6.91531C15.5667 7.28374 15.8474 7.72025 16.0339 8.19904C16.2205 8.67782 16.3091 9.18915 16.2947 9.7028Z" fill="white"/>
</g>
<defs>
<clipPath id="clip0_222_1479">
<rect width="114.525" height="30.54" fill="white"/>
</clipPath>
</defs>
</svg>
