<svg width="26" height="26" viewBox="0 0 26 26" fill="none" xmlns="http://www.w3.org/2000/svg">
<path d="M22.1613 9.51358V8.9857C22.8349 8.82813 23.3431 8.2254 23.3431 7.50449C23.3431 6.66934 22.6577 5.98389 21.8186 5.98389C20.9834 5.98389 20.298 6.66934 20.298 7.50449C20.298 8.19783 20.7628 8.77692 21.3971 8.95813V9.51358C21.3971 9.89177 21.0859 10.203 20.7077 10.203H16.4531V10.9672H20.7077C21.5074 10.9672 22.1613 10.3133 22.1613 9.51358Z" fill="#424242"/>
<path d="M19.258 5.94861V5.42073C19.9316 5.26315 20.4398 4.66043 20.4398 3.93952C20.4398 3.10437 19.7543 2.42285 18.9152 2.42285C18.0801 2.42285 17.3946 3.10437 17.3946 3.93952C17.3946 4.63285 17.8595 5.21194 18.4937 5.39315V5.94861C18.4937 6.32679 18.1825 6.638 17.8043 6.638H16.4531V7.40225H17.8043C18.604 7.40225 19.258 6.74831 19.258 5.94861Z" fill="#424242"/>
<path d="M22.1613 19.0865V18.5586C22.1613 17.7589 21.5073 17.1089 20.7116 17.1089H16.457V17.8731H20.7116C21.0898 17.8731 21.401 18.1843 21.401 18.5625V19.118C20.7667 19.3031 20.3019 19.8822 20.3019 20.5716C20.3019 21.4068 20.9873 22.0922 21.8225 22.0922C22.6616 22.0922 23.347 21.4068 23.347 20.5716C23.3392 19.8468 22.831 19.244 22.1613 19.0865Z" fill="#424242"/>
<path d="M18.6158 21.6314V21.1035C18.6158 20.2999 17.9658 19.6538 17.1661 19.6538H16.457V20.4181H17.1661C17.5443 20.4181 17.8555 20.7253 17.8555 21.1074V21.659C17.2252 21.8481 16.7604 22.4232 16.7604 23.1165C16.7604 23.9517 17.4419 24.6332 18.277 24.6332C19.1161 24.6332 19.8016 23.9517 19.8016 23.1165C19.7937 22.3917 19.2895 21.789 18.6158 21.6314Z" fill="#424242"/>
<path d="M21.7752 15.5568C22.6143 15.5568 23.2998 14.8714 23.2998 14.0323C23.2998 13.1971 22.6143 12.5156 21.7752 12.5156C21.074 12.5156 20.4792 13.0002 20.3137 13.6541H16.457V14.4184H20.3137C20.4831 15.0723 21.0701 15.5568 21.7752 15.5568Z" fill="#424242"/>
<path d="M12.3609 1.37109C10.5409 1.37109 9.06366 2.84837 9.06366 4.69988C9.06366 4.88897 9.09517 5.07806 9.12669 5.26321C8.78002 5.13715 8.40578 5.07412 7.99608 5.07412C6.17608 5.07412 4.69881 6.5514 4.69881 8.40291C4.69881 8.59988 4.71851 8.78897 4.75396 8.97806C4.7579 8.982 4.76578 8.98594 4.76972 8.98988C5.32911 9.58079 6.08942 9.90382 6.90881 9.90382C7.12154 9.90382 7.29093 10.0732 7.29093 10.2859C7.29093 10.4987 7.12154 10.6681 6.90881 10.6681C6.0579 10.6681 5.2582 10.3844 4.60426 9.86837C3.45396 10.3805 2.6582 11.5308 2.6582 12.8662C2.6582 14.4065 3.72578 15.7223 5.17154 16.069C4.85639 16.5732 4.69881 17.1365 4.69881 17.7629C4.69881 19.5514 6.17608 21.0602 7.99608 21.0602C8.16154 21.0602 8.32699 21.0444 8.49245 21.0208C8.87457 19.8626 9.80033 18.9723 10.9782 18.6453C10.5094 18.1962 10.1627 17.6211 9.98548 16.975C9.64275 17.2587 9.22517 17.4635 8.75245 17.5541C8.72881 17.5581 8.70517 17.562 8.68154 17.562C8.50033 17.562 8.34275 17.4359 8.30729 17.2508C8.2679 17.042 8.40184 16.845 8.61063 16.8017C9.15033 16.6993 9.59154 16.3841 9.87517 15.9626C9.89093 15.9035 9.91851 15.8523 9.96184 15.809C10.1706 15.4308 10.2612 14.9817 10.1824 14.5129C10.147 14.3041 10.2888 14.1072 10.4976 14.0717C10.7064 14.0362 10.9034 14.1781 10.9388 14.3869C11.0491 15.0408 10.927 15.6711 10.6315 16.2029C10.7379 17.7275 11.9985 18.9014 13.5585 18.9014C13.7712 18.9014 13.9406 19.0708 13.9406 19.2835C13.9406 19.4962 13.7712 19.6656 13.5585 19.6656C12.9518 19.6656 12.3806 19.5238 11.8764 19.2717C10.4897 19.319 9.37487 20.3156 9.12275 21.6393C9.39851 23.1835 10.7418 24.3575 12.3649 24.3575C14.1849 24.3575 15.6937 22.8802 15.6937 21.0602V12.6456C15.5991 12.6535 15.5046 12.6653 15.414 12.6653C14.9097 12.6653 14.4134 12.5314 13.9643 12.2753C13.4364 11.9681 13.0267 11.5111 12.7785 10.9596C12.3373 11.2156 11.8409 11.3496 11.3209 11.3496C11.2697 11.3496 11.2185 11.3496 11.1673 11.3456C10.9546 11.3338 10.7931 11.1565 10.8049 10.9438C10.8167 10.7311 10.9979 10.5735 11.2067 10.5814C11.7779 10.609 12.3294 10.4159 12.7549 10.0378C13.1843 9.65564 13.4364 9.12382 13.464 8.54473C13.4758 8.332 13.6609 8.17049 13.8658 8.18231C14.0746 8.19412 14.24 8.3714 14.2282 8.58413C14.1927 9.30109 13.9012 9.95897 13.4127 10.4632C13.5821 10.9478 13.9052 11.3535 14.3503 11.6096C14.76 11.8459 15.2288 11.9326 15.6976 11.8696V4.69988C15.6897 2.84443 14.1809 1.37109 12.3609 1.37109Z" fill="#424242"/>
</svg>
