<svg width="126" height="36" viewBox="0 0 126 36" fill="none" xmlns="http://www.w3.org/2000/svg">
<path d="M6.48518 0.126761C3.90784 1.21391 1.07117 4.28547 0.175465 8.14087C-0.958566 13.0257 3.76051 15.0915 4.14759 14.4141C4.60308 13.6183 3.302 13.3491 3.03393 10.8146C2.68774 7.54114 4.19882 3.88314 6.10065 2.2783C6.45415 1.98027 6.43729 2.39526 6.43729 3.16276L6.36204 19.4307C6.36204 22.9108 6.21933 24.01 5.96303 25.0957C5.70323 26.1961 5.28576 26.9399 5.6022 27.2261C5.95571 27.5465 7.46521 26.7843 8.33864 25.5562C9.38644 24.0832 9.75299 22.3143 9.81902 20.3932C9.89856 18.0774 9.89538 14.4027 9.89856 12.3065L9.86675 1.37093C9.85084 0.540949 7.56496 -0.329889 6.48629 0.125158M98.0658 16.4128C97.9825 18.2221 97.585 19.6361 97.0915 20.6337C96.1361 22.5647 94.1535 23.1643 93.3117 20.3885C92.853 18.8753 92.8315 16.3482 93.1613 14.2366C93.4954 12.0855 94.4344 10.4608 95.9869 10.6074C97.5178 10.7523 98.2346 12.7391 98.0659 16.4129L98.0658 16.4128ZM72.2535 27.6382C72.2328 30.6444 71.763 33.2801 70.7556 34.0473C69.327 35.1328 67.4064 34.3186 67.8041 32.1249C68.156 30.1837 69.8198 28.2014 72.2577 25.7792L72.2537 27.6398L72.2535 27.6382ZM71.8633 16.3958C71.7758 18.0436 71.3518 19.6991 70.889 20.6345C69.9338 22.5655 67.9368 23.1693 67.1092 20.3893C66.5433 18.4898 66.6788 16.0314 66.9588 14.4825C67.3222 12.4728 68.203 10.6082 69.7844 10.6082C71.322 10.6082 72.0801 12.3071 71.8634 16.396L71.8633 16.3958ZM56.911 16.3706C56.8172 18.1158 56.4792 19.5749 55.9367 20.6343C54.9551 22.5522 53.0134 23.1603 52.1569 20.3892C51.5397 18.3908 51.7497 15.6661 52.0066 14.1943C52.3878 12.01 53.342 10.4614 54.8321 10.6084C56.3626 10.759 57.1066 12.7399 56.9112 16.371L56.911 16.3706ZM125.434 18.4091C125.06 18.4091 124.889 18.7975 124.748 19.4512C124.258 21.7243 123.743 22.2391 123.078 22.2391C122.336 22.2391 121.669 21.1135 121.498 18.8604C121.363 17.0888 121.385 13.827 121.557 10.5826C121.592 9.91603 121.41 9.25637 119.634 8.60697C118.87 8.32753 117.76 7.91639 117.207 9.26038C115.645 13.0578 115.034 16.0728 114.89 17.2974C114.882 17.3609 114.805 17.3737 114.792 17.2256C114.7 16.2447 114.495 14.4622 114.47 10.7169C114.465 9.98621 114.311 9.36421 113.51 8.85501C112.991 8.52462 111.413 7.9401 110.845 8.63549C110.352 9.2043 109.782 10.7345 109.19 12.5483L108.373 15.0198L108.385 9.53309C108.388 8.9638 108 8.77425 107.883 8.73996C107.357 8.58614 106.321 8.32914 105.879 8.32914C105.336 8.32914 105.203 8.63485 105.203 9.08012L105.117 17.9386L105.119 18.4498C104.818 20.1142 103.844 22.3737 102.785 22.3737C101.725 22.3737 101.226 21.4292 101.226 17.1119C101.226 14.5934 101.301 13.4982 101.338 11.6769L101.398 9.63916C101.391 9.07836 100.428 8.79588 99.98 8.69141C99.5298 8.58614 99.1388 8.54529 98.8334 8.56275C98.4011 8.58727 98.0952 8.87295 98.0952 9.26567L98.0976 9.87678C97.5407 8.99552 96.6455 8.38249 96.0497 8.2048C94.4451 7.72492 92.7708 8.15032 91.5075 9.92997C90.5036 11.3441 89.8986 12.9459 89.662 15.2473C89.488 16.9297 89.5448 18.6358 89.8542 20.0786C89.4803 21.7066 88.7862 22.3737 88.0262 22.3737C86.9227 22.3737 86.1228 20.56 86.2157 17.4227C86.277 15.3593 86.687 13.9112 87.1353 11.8163C87.3262 10.9232 87.1711 10.4557 86.7818 10.0077C86.4246 9.5967 85.6637 9.3868 84.5697 9.64509C83.7905 9.82935 82.6765 10.0272 81.6572 10.1793C81.6572 10.1793 81.7187 9.93222 81.7692 9.4964C82.0342 7.21155 79.5689 7.39677 78.7822 8.12645C78.3128 8.56227 77.993 9.07612 77.8717 10.0002C77.6791 11.4666 78.8668 12.1581 78.8668 12.1581C78.477 13.9527 77.5221 16.3006 76.536 17.9968C76.0079 18.9056 75.6038 19.5792 75.0824 20.2951L75.0781 19.4967L75.1381 11.6776L75.199 9.66127C75.1931 9.25109 74.9553 9.09631 74.4608 8.90019C74.0233 8.72682 73.5062 8.60665 72.9701 8.56483C72.2931 8.51164 71.8851 8.87327 71.8959 9.30092C71.8979 9.38167 71.8979 9.87742 71.8979 9.87742C71.3411 8.99617 70.4457 8.38313 69.8501 8.20544C68.2454 7.72572 66.5711 8.15096 65.3079 9.93061C64.3043 11.3448 63.647 13.3294 63.4624 15.2303C63.2874 17.0021 63.3208 18.5078 63.5574 19.776C63.3022 21.0461 62.5686 22.3742 61.7392 22.3742C60.6789 22.3742 60.0754 21.4297 60.0754 17.1123C60.0754 14.5939 60.1505 13.4987 60.1874 11.6774L60.2479 9.63964C60.2399 9.07884 59.2774 8.79636 58.8294 8.69173C58.3607 8.58278 57.9544 8.5424 57.6453 8.56547C57.2353 8.59624 56.9468 8.96604 56.9468 9.24163V9.8771C56.39 8.99584 55.4948 8.38281 54.8989 8.20512C53.2943 7.7254 51.6292 8.15753 50.3568 9.93029C49.5271 11.0863 48.8554 12.3678 48.5113 15.205C48.4114 16.0249 48.3673 16.7925 48.3729 17.5102C48.0419 19.548 46.5808 21.8966 45.3854 21.8966C44.6858 21.8966 44.0197 20.5302 44.0197 17.6182C44.0197 13.7391 44.258 8.2165 44.2984 7.68406L46.101 7.65474C46.8543 7.64641 47.5367 7.66435 48.5399 7.6126C49.0431 7.58696 49.5279 5.76774 49.0086 5.54246C48.7731 5.44055 47.1093 5.35131 46.4497 5.33737C45.8951 5.32455 44.3513 5.20966 44.3513 5.20966L44.522 1.1567C44.5493 0.834005 44.1347 0.668009 43.8967 0.567066C43.3186 0.320796 42.8014 0.202869 42.188 0.075648C41.341 -0.100282 40.9566 0.0718021 40.8815 0.791865C40.7702 1.88462 40.7097 5.08533 40.7097 5.08533C40.0881 5.08533 37.9647 4.96291 37.343 4.96291C36.7654 4.96291 36.1418 7.46519 36.9404 7.49611L40.5226 7.59545L40.4773 15.4766C39.8929 18.5438 37.8347 20.2007 37.8347 20.2007C38.2767 18.1716 37.3738 16.6478 35.7474 15.3578C35.1482 14.8825 33.9655 13.9826 32.6419 12.9966C32.6419 12.9966 33.4084 12.2358 34.0896 10.7053C34.5712 9.62105 34.592 8.38041 33.41 8.10674C31.4566 7.65442 29.8462 9.09903 29.3658 10.6415C28.9935 11.8364 29.192 12.7229 29.921 13.6442C29.9743 13.7115 30.0319 13.7804 30.0916 13.8493C29.6505 14.7052 29.0447 15.8576 28.5319 16.751C27.108 19.2322 26.0322 21.1946 25.2196 21.1946C24.5697 21.1946 24.5784 19.2022 24.5784 17.3367C24.5784 15.7285 24.6962 13.3106 24.7905 10.8074C24.8217 9.97948 24.4106 9.50793 23.7214 9.0806C23.303 8.82104 22.4092 8.31087 21.8918 8.31087C21.117 8.31087 18.8825 8.41694 16.771 14.5684C16.5048 15.3439 15.9819 16.7565 15.9819 16.7565L16.0269 9.35924C16.0269 9.18587 15.9353 9.01796 15.7251 8.90339C15.3694 8.70888 14.4205 8.31087 13.5741 8.31087C13.1716 8.31087 12.9705 8.49946 12.9705 8.87535L12.8969 20.4486C12.8969 21.3279 12.9196 22.3553 13.006 22.8023C13.0924 23.2494 13.2313 23.6169 13.4037 23.8342C13.5762 24.0515 13.7754 24.2168 14.1041 24.2851C14.41 24.3485 16.0848 24.5652 16.172 23.9206C16.2764 23.1483 16.2802 22.3124 17.16 19.1961C18.5292 14.3444 20.3144 11.977 21.1536 11.1363C21.3003 10.9894 21.4678 10.9806 21.4599 11.2212L21.2133 17.2009C20.9857 23.2439 22.0775 24.3641 23.6374 24.3641C24.8306 24.3641 26.513 23.1699 28.3148 20.1469L31.315 15.0845L33.0878 16.7284C34.5122 18.0899 34.9798 19.3837 34.6695 20.6108C34.4322 21.549 33.5384 22.5175 31.9479 21.5761C31.4843 21.3021 31.2864 21.0902 30.8202 20.7809C30.5698 20.6149 30.1873 20.5652 29.9579 20.7393C29.3624 21.1914 29.0218 21.7666 28.8272 22.4788C28.6379 23.1718 29.3271 23.538 30.0414 23.8568C30.6565 24.1324 31.9784 24.3824 32.8215 24.4109C36.1063 24.523 38.7376 22.8134 40.5694 18.4079C40.8971 22.2127 42.2929 24.3658 44.7173 24.3658C46.3385 24.3658 47.9635 22.2557 48.674 20.1797C48.878 21.0257 49.18 21.7618 49.5701 22.384C51.4383 25.3652 55.0627 24.7233 56.8832 22.192C57.4461 21.4098 57.5318 21.1288 57.5318 21.1288C57.7975 23.519 59.7087 24.3542 60.8028 24.3542C62.0285 24.3542 63.2939 23.7706 64.1809 21.7596C64.2848 21.9778 64.3982 22.1863 64.5221 22.3838C66.3904 25.365 70.0147 24.7232 71.8353 22.1919C71.9122 22.0854 71.9874 21.9777 72.0607 21.8687L72.1142 23.4389L70.4381 24.9871C67.6321 27.5795 65.4987 29.5466 65.3416 31.8373C65.1402 34.7582 67.4921 35.8434 69.2716 35.9856C71.1613 36.1367 72.7797 35.0851 73.774 33.6142C74.649 32.3192 75.2214 29.5319 75.1794 26.7792L75.1134 22.7729C76.0998 21.6192 77.2108 20.1616 78.2339 18.4552C79.3488 16.5956 80.544 14.0983 81.1555 12.1547C81.1555 12.1547 82.1936 12.1637 83.3017 12.0906C83.6562 12.0674 83.7579 12.1403 83.6925 12.4018C83.6134 12.7179 82.2927 17.8479 83.4979 21.2656C84.323 23.6049 86.1826 24.358 87.2853 24.358C88.576 24.358 89.8108 23.3763 90.4725 21.9185C90.552 22.081 90.6355 22.2383 90.7265 22.3835C92.5948 25.3647 96.2064 24.7192 98.0397 22.1916C98.4533 21.6211 98.6883 21.1283 98.6883 21.1283C99.0817 23.6022 100.992 24.3665 102.086 24.3665C103.226 24.3665 104.308 23.8959 105.185 21.8044C105.222 22.7253 105.28 23.4782 105.371 23.7155C105.426 23.8607 105.75 24.0428 105.986 24.131C107.028 24.5203 108.092 24.336 108.484 24.2559C108.756 24.2003 108.969 23.9803 108.998 23.4115C109.074 21.9185 109.027 19.41 109.475 17.5456C110.229 14.4168 110.933 13.2034 111.267 12.6026C111.453 12.2661 111.664 12.2103 111.672 12.5667C111.688 13.2877 111.723 15.4043 112.016 18.2488C112.23 20.3406 112.517 21.5771 112.737 21.9684C113.366 23.0874 114.143 23.1404 114.774 23.1404C115.176 23.1404 116.017 23.0283 115.942 22.3164C115.906 21.9693 115.97 19.8242 116.713 16.7417C117.199 14.7288 118.009 12.91 118.301 12.2451C118.409 12 118.459 12.1932 118.457 12.2307C118.395 13.617 118.257 18.1511 118.818 20.6309C119.578 23.9904 121.777 24.3663 122.543 24.3663C124.179 24.3663 125.517 23.1133 125.968 19.8159C126.076 19.0223 125.915 18.4095 125.434 18.4095" fill="white"/>
</svg>
