<svg width="86" height="75" viewBox="0 0 86 75" fill="none" xmlns="http://www.w3.org/2000/svg">
<path fill-rule="evenodd" clip-rule="evenodd" d="M1.39179 21.0195H19.4641C20.2048 21.0195 20.7973 21.6297 20.7973 22.3925V28.3421C20.7973 29.1049 20.2048 29.7151 19.4641 29.7151H15.7608V45.8858H19.4641C20.2048 45.8858 20.7973 46.496 20.7973 47.2587V53.2083C20.7973 53.9711 20.2048 54.5813 19.4641 54.5813H1.39179C0.651119 54.5813 0.0585938 53.9711 0.0585938 53.2083V47.2587C0.0585938 46.496 0.651119 45.8858 1.39179 45.8858H5.39141V29.7151H1.39179C0.651119 29.7151 0.0585938 29.1049 0.0585938 28.3421V22.3925C0.206727 21.6297 0.799253 21.0195 1.39179 21.0195ZM68.4963 54.7338C59.312 54.7338 51.9053 49.0894 51.9053 37.953C51.9053 26.8166 59.312 21.1721 68.4963 21.1721C77.6806 21.1721 85.0873 26.8166 85.0873 37.953C85.0873 49.0894 77.6806 54.7338 68.4963 54.7338ZM73.2366 37.953C73.2366 31.8508 72.1997 28.7998 68.4963 28.7998C64.793 28.7998 63.756 31.8508 63.756 37.953C63.756 44.0551 64.793 47.1062 68.4963 47.1062C72.1997 47.1062 73.2366 44.0551 73.2366 37.953ZM37.9808 33.6815C34.87 32.7662 31.7592 32.6136 31.9073 30.1727C31.9073 29.2574 32.648 28.1896 35.0181 28.1896C36.4995 28.1896 38.8696 28.6472 40.7953 29.8677C42.7211 31.0881 44.2024 33.0712 45.5356 33.0712H49.0908C50.1278 33.0712 50.8684 31.5457 50.8684 30.4779V23.613C50.8684 22.3925 50.1278 21.9349 49.239 21.9349H45.8319C43.6099 21.9349 44.6468 23.7655 43.6099 24.2232C41.0916 25.1385 41.0916 21.3247 34.2775 21.3247C26.5745 21.1721 21.9824 25.9012 22.1305 31.0881C22.2786 37.8004 27.167 40.2412 33.2405 42.2244C36.2032 43.2923 41.2397 43.75 41.0916 46.1908C41.0916 47.1062 40.3509 48.1741 37.9808 48.1741C36.4995 48.1741 34.1293 47.7164 32.2036 46.496C30.2778 45.2755 28.7965 43.2923 27.4633 43.2923H23.9081C22.8712 43.2923 22.1305 44.8179 22.1305 45.8858V52.7507C22.1305 53.9711 22.8712 54.4287 23.76 54.4287H27.167C29.389 54.4287 28.3521 52.5981 29.389 52.1404C31.9073 51.2251 31.9073 55.039 38.7215 55.039C46.4244 55.1915 51.0165 50.4623 50.8684 45.2755C50.7203 38.5632 45.8319 35.9698 37.9808 33.6815Z" fill="white"/>
<path fill-rule="evenodd" clip-rule="evenodd" d="M63.4588 10.0365C62.57 11.1043 61.2368 12.1722 59.4592 13.0875C60.4962 14.4605 61.385 15.986 62.1256 17.6641C62.2738 17.9692 62.4219 18.2743 62.57 18.5794H60.9406C60.9406 18.4269 60.7924 18.4269 60.7924 18.2743C60.0518 16.5962 59.0148 15.0707 58.126 13.6977C57.2372 14.1554 56.3484 14.4605 55.3115 14.7656C54.2745 15.0707 52.9413 15.3758 51.7563 15.6809C52.0525 16.4437 52.3488 17.2064 52.4969 18.1218C52.4969 18.2743 52.6451 18.4269 52.6451 18.5794H51.1637C50.8675 17.6641 50.5712 16.9013 50.4231 15.986C47.9048 16.4437 45.2384 16.7488 42.572 16.7488V18.5794H41.0907V16.7488C38.2761 16.7488 35.6097 16.4437 33.2396 15.986C32.9433 16.7488 32.647 17.6641 32.4989 18.5794H31.0176C31.0176 18.4269 31.1657 18.2743 31.1657 18.1218C31.462 17.2064 31.6101 16.4437 31.9064 15.6809C30.5732 15.3758 29.24 15.0707 28.0549 14.6131C27.1661 14.3079 26.4254 14.0028 25.5366 13.6977C24.4997 15.0707 23.6109 16.5962 22.8702 18.2743C22.8702 18.4269 22.7221 18.4269 22.7221 18.5794H21.0926C21.2408 18.2743 21.3889 17.9692 21.537 17.6641C22.2777 15.986 23.1665 14.4605 24.2034 13.0875C22.574 12.1722 21.2408 11.1043 20.2038 10.0365C17.2412 12.4773 14.871 15.3758 12.7972 18.5794H11.0195C17.3893 7.74812 28.7956 0.578125 41.8313 0.578125C54.8671 0.578125 66.4215 7.74812 72.6431 18.5794H70.8655C68.9398 15.3758 66.4215 12.4773 63.4588 10.0365ZM32.4989 3.47663C33.0914 4.08684 33.9802 4.69707 35.1653 5.15473C36.9429 5.91749 39.3131 6.37513 41.8313 6.37513C44.2015 6.37513 46.2753 5.9175 48.0529 5.30729C49.3861 4.84963 50.4231 4.2394 51.1637 3.47663C48.2011 2.56131 45.0903 2.10366 41.8313 2.10366C38.5724 2.10366 35.4616 2.56131 32.4989 3.47663ZM32.2026 5.15473C31.7582 4.69707 31.3138 4.39198 30.8694 3.93432C27.3142 5.15475 24.0553 6.98538 21.0926 9.12112C21.9814 10.189 23.1665 11.1043 24.796 11.8671C27.018 9.12111 29.5362 6.83281 32.2026 5.15473ZM36.3504 7.1379C35.7578 6.98535 35.1653 6.8328 34.5728 6.5277C34.2765 6.37514 33.9802 6.22261 33.684 6.07006C30.8694 7.59559 28.4993 9.73131 26.2773 12.4773C26.8698 12.7824 27.6105 12.9349 28.203 13.24C29.3881 13.6977 30.7213 14.0028 32.2026 14.3079C33.3877 11.2569 34.7209 8.81599 36.3504 7.1379ZM41.0907 7.74815C40.0537 7.74815 39.0168 7.59558 38.128 7.44303C36.4985 8.96856 35.0172 11.4094 33.8321 14.6131C36.2023 15.0707 38.5724 15.2233 41.2388 15.2233V7.74815H41.0907ZM45.5347 7.44303C44.6459 7.59558 43.6089 7.74815 42.572 7.74815V15.2233C45.2384 15.2233 47.6086 14.9182 49.9787 14.6131C48.6455 11.4094 47.1641 8.96856 45.5347 7.44303ZM49.8306 6.07006C49.3862 6.22261 48.9417 6.52771 48.4973 6.68026C48.0529 6.83281 47.6085 6.98535 47.1641 7.1379C48.7936 8.81599 50.1268 11.2569 51.3119 14.3079C52.6451 14.0028 53.8302 13.6977 55.0152 13.3926C55.904 13.0875 56.6447 12.7824 57.3854 12.4773C55.1634 9.73131 52.6451 7.59559 49.8306 6.07006ZM52.6451 3.93432C52.3488 4.39198 51.9044 4.84962 51.3119 5.15473C53.9783 6.83281 56.4966 9.12111 58.7186 11.8671C60.348 11.1043 61.5331 10.189 62.4219 9.12112C59.4592 6.83282 56.2003 5.15475 52.6451 3.93432ZM63.4588 64.8031C62.57 63.7352 61.2368 62.6674 59.4592 61.752C60.4962 60.3791 61.385 58.8535 62.1256 57.1754C62.2738 56.8703 62.4219 56.5652 62.57 56.2601H60.9406C60.9406 56.4127 60.7924 56.4127 60.7924 56.5652C60.0518 58.2433 59.0148 59.7689 58.126 61.1418C57.2372 60.6842 56.3484 60.3791 55.3115 60.0739C54.2745 59.7688 52.9413 59.4637 51.7563 59.1586C52.0525 58.3958 52.3488 57.6331 52.4969 56.7178C52.4969 56.5652 52.6451 56.4127 52.6451 56.2601H51.1637C50.8675 57.1754 50.5712 57.9382 50.4231 58.8535C47.9048 58.3959 45.2384 58.0908 42.572 58.0908V56.2601H41.0907V58.0908C38.2761 58.0908 35.6097 58.3959 33.2396 58.8535C32.9433 58.0908 32.647 57.1754 32.4989 56.2601H31.0176C31.0176 56.4127 31.1657 56.5652 31.1657 56.7178C31.462 57.6331 31.6101 58.3958 31.9064 59.1586C30.5732 59.4637 29.24 59.7688 28.0549 60.2265C27.1661 60.5316 26.4254 60.8367 25.5366 61.1418C24.4997 59.7689 23.6109 58.2433 22.8702 56.5652C22.8702 56.4127 22.7221 56.4127 22.7221 56.2601H21.0926C21.2408 56.5652 21.3889 56.8703 21.537 57.1754C22.2777 58.8535 23.1665 60.3791 24.2034 61.752C22.574 62.6674 21.2408 63.7352 20.2038 64.8031C17.2412 62.3623 14.871 59.4637 12.7972 56.2601H11.0195C17.3893 67.0914 28.7956 74.2614 41.8313 74.2614C54.8671 74.2614 66.2734 66.9388 72.6431 56.2601H70.8655C68.9398 59.4637 66.4215 62.3623 63.4588 64.8031ZM32.4989 71.3629C33.0914 70.7527 33.9802 70.1424 35.1653 69.6848C36.9429 68.922 39.3131 68.4644 41.8313 68.4644C44.2015 68.4644 46.2753 68.9221 48.0529 69.5323C49.3861 69.9899 50.4231 70.6001 51.1637 71.3629C48.2011 72.2782 45.0903 72.7359 41.8313 72.7359C38.5724 72.7359 35.4616 72.2782 32.4989 71.3629ZM32.2026 69.6848C31.7582 70.1424 31.3138 70.4476 30.8694 70.9052C27.3142 69.6848 24.0553 67.8542 21.0926 65.7184C21.9814 64.6506 23.1665 63.7352 24.796 62.9724C27.018 65.7184 29.5362 68.0067 32.2026 69.6848ZM36.3504 67.7016C35.7578 67.8542 35.1653 68.0067 34.5728 68.3118C34.2765 68.4644 33.9802 68.617 33.684 68.7695C30.8694 67.244 28.4993 65.1082 26.2773 62.3622C26.8698 62.0571 27.6105 61.9046 28.203 61.5995C29.3881 61.1418 30.7213 60.8367 32.2026 60.5316C33.3877 63.5827 34.7209 66.0235 36.3504 67.7016ZM41.0907 67.0914C40.0537 67.0914 39.0168 67.2439 38.128 67.3965C36.4985 65.871 35.0172 63.4301 33.8321 60.2265C36.2023 59.7688 38.5724 59.6163 41.2388 59.6163V67.0914H41.0907ZM45.5347 67.3965C44.6459 67.2439 43.6089 67.0914 42.572 67.0914V59.6163C45.2384 59.6163 47.6086 59.9214 49.9787 60.2265C48.6455 63.4301 47.1641 65.871 45.5347 67.3965ZM49.8306 68.7695C49.3862 68.617 48.9417 68.3118 48.4973 68.1593C48.0529 68.0067 47.6085 67.8542 47.1641 67.7016C48.7936 66.0235 50.1268 63.5827 51.3119 60.5316C52.6451 60.8367 53.8302 61.1418 55.0152 61.4469C55.904 61.752 56.6447 62.0571 57.3854 62.3622C55.1634 65.1082 52.6451 67.244 49.8306 68.7695ZM52.6451 70.9052C52.3488 70.4476 51.9044 69.9899 51.3119 69.6848C53.9783 68.0067 56.4966 65.7184 58.7186 62.9724C60.348 63.7352 61.5331 64.6506 62.4219 65.7184C59.4592 68.0067 56.2003 69.6848 52.6451 70.9052Z" fill="white"/>
</svg>
