<svg width="184" height="158" viewBox="0 0 184 158" fill="none" xmlns="http://www.w3.org/2000/svg">
<g clip-path="url(#clip0_1090_493)">
<path fill-rule="evenodd" clip-rule="evenodd" d="M55.6257 4.37126C59.8989 0.151961 67.3959 0.000366237 71.8906 3.95875C78.5348 10.3341 84.923 16.9705 91.6352 23.2869C85.4687 30.0244 78.6028 36.1218 72.2999 42.7416C68.6751 46.4387 68.4619 52.3172 70.8244 56.7306C72.0103 55.8378 73.1615 54.8945 74.2021 53.8417C81.5113 46.4725 88.9913 39.272 96.3091 31.9194C97.0085 31.2544 97.8273 30.7236 98.6291 30.1844C100.77 32.5258 103.158 34.6312 105.256 37.0061C96.1725 45.9927 87.1575 55.0461 77.9461 63.9059C80.121 66.2555 82.4408 68.4621 84.7098 70.7277C94.0578 61.8929 102.817 52.4353 112.361 43.8112C114.766 48.3509 114.911 54.4228 111.141 58.2969C104.719 64.9248 97.9383 71.2078 91.5416 77.861C85.051 84.0425 78.748 90.4097 72.3683 96.6926C67.9759 101.148 59.933 101.131 55.5662 96.6506C42.841 83.9924 29.7916 71.6542 17.1856 58.8783C12.8188 54.4395 12.6992 46.5989 17.2451 42.2448C30.0556 29.6369 42.8154 16.9791 55.6257 4.37126Z" fill="#E41B13"/>
<path fill-rule="evenodd" clip-rule="evenodd" d="M110.356 4.6067C114.783 -0.177036 123.107 -0.0843949 127.644 4.50572C140.233 16.7849 152.686 29.1905 165.198 41.5368C169.957 45.8318 170.554 53.9256 165.982 58.549C153.214 71.2159 140.378 83.8233 127.602 96.4816C123.286 100.97 115.448 101.139 110.885 96.9278C104.403 90.603 98.0058 84.2025 91.5412 77.8605C97.9379 71.2073 104.718 64.9243 111.141 58.2965C114.91 54.4224 114.766 48.3504 112.36 43.8107C102.816 52.4349 94.0573 61.8924 84.7094 70.7272C82.4404 68.4616 80.1206 66.2551 77.9457 63.9055C87.157 55.0457 96.172 45.9923 105.256 37.0057C103.157 34.6308 100.769 32.5254 98.6286 30.1839C97.8269 30.7232 97.008 31.2539 96.3086 31.919C88.9908 39.2715 81.5108 46.4721 74.2017 53.8413C73.1611 54.8941 72.0098 55.8373 70.8239 56.7301C68.4614 52.3167 68.6746 46.4382 72.2995 42.7412C78.6023 36.1214 85.4683 30.024 91.6347 23.2864C97.699 16.8945 104.164 10.881 110.356 4.6067ZM182.537 29.4851C186.077 29.468 189.616 29.4766 193.156 29.468C193.232 43.3475 193.198 57.2184 193.173 71.0978C189.625 71.2159 186.077 71.1737 182.537 71.1316C182.537 57.2436 182.537 43.3643 182.537 29.4851ZM205.207 31.6495C209.02 29.123 213.822 29.022 218.24 29.3416C222.299 29.6871 226.547 31.1696 229.216 34.3359C226.982 36.374 224.901 38.5722 222.683 40.627C219.579 38.404 215.314 37.4941 211.706 38.9427C209.301 39.8862 208.832 43.7098 211.527 44.594C216.696 46.1013 223.033 45.2591 227.05 49.5293C231.511 54.9697 230.811 64.419 224.722 68.4616C220.159 71.6705 214.239 71.9739 208.858 71.3422C204.542 70.9292 200.201 69.1692 197.335 65.8593C199.587 63.7372 201.761 61.5389 203.97 59.366C207.791 62.0863 213.028 63.1812 217.515 61.5895C220.073 60.6043 220.159 56.4604 217.48 55.6014C212.628 54.3467 206.998 54.8941 202.964 51.4324C197.318 46.1775 198.495 35.5573 205.207 31.6495ZM236.415 29.5775C241.771 29.3588 247.136 29.5274 252.492 29.468C256.364 29.4345 260.492 30.3696 263.341 33.1234C267.708 36.9133 268.919 43.7431 266.207 48.8049C265.03 51.0283 263 52.5948 260.961 54.0012C263.81 59.72 267.017 65.2698 269.763 71.0473C265.703 71.2494 261.644 71.1988 257.592 71.0896C255.213 65.9943 252.62 60.9999 250.36 55.854C249.2 55.8373 248.04 55.8287 246.88 55.8287C246.948 60.9239 246.965 66.0111 246.88 71.1064C243.494 70.8791 239.596 71.8135 236.526 70.6934C236.381 56.9911 236.603 43.28 236.415 29.5775ZM246.837 39.2292C246.965 41.8822 246.897 44.535 247.017 47.188C249.677 47.0195 252.569 47.6092 255.068 46.4635C258.036 44.8466 257.447 39.9704 254.189 39.1029C251.75 38.8671 249.251 38.7407 246.837 39.2292ZM285.849 29.5609C288.621 29.4259 291.393 29.4431 294.156 29.5355C299.077 43.4485 304.579 57.168 309.287 71.1565C305.653 71.1651 302.028 71.182 298.404 71.1397C297.713 69.1272 297.056 67.1059 296.468 65.0593C292.178 65.1099 287.887 64.9416 283.606 65.1688C283.043 67.1983 282.352 69.186 281.593 71.1484C278.002 71.1737 274.412 71.1737 270.829 71.1484C275.418 57.1594 281.039 43.4905 285.849 29.5609ZM286.668 56.3091C288.996 56.4435 291.325 56.469 293.662 56.4181C292.655 52.9823 291.41 49.6217 290.506 46.1605C288.664 49.3018 288.084 52.9823 286.668 56.3091ZM314.558 35.17C319.624 28.4407 330.149 27.3879 337.074 31.8013C340.904 34.2263 342.865 38.5722 343.701 42.8421C340.094 43.0191 336.477 43.0023 332.878 42.8589C332.298 37.9072 324.502 36.8204 322.839 41.5788C321.637 47.045 321.756 52.7887 322.6 58.2965C323.07 61.4465 326.891 63.2064 329.748 61.8925C331.71 61.3451 331.974 59.0121 333.45 57.9341C336.861 57.8584 340.29 57.7658 343.693 58.0859C342.789 62.558 340.528 66.9877 336.435 69.3712C329.407 73.4056 319.206 72.0581 314.353 65.3032C310.958 60.5028 311.564 54.3801 311.53 48.8384C311.445 44.1729 311.59 39.0523 314.558 35.17ZM359.156 29.5609C361.936 29.4259 364.725 29.4179 367.514 29.5694C372.384 43.4905 377.894 57.1933 382.602 71.1651C379.012 71.0724 375.412 71.3504 371.83 71.0473C370.806 69.1946 370.482 67.0637 369.826 65.0846C365.527 65.1099 361.22 64.8993 356.938 65.2023C356.384 67.2069 355.685 69.1607 354.994 71.123C351.36 71.2073 347.727 71.1484 344.102 71.1737C348.759 57.1847 354.311 43.4905 359.156 29.5609ZM359.975 56.3933C362.294 56.4353 364.623 56.4521 366.943 56.4014C365.953 52.9992 364.76 49.6558 363.838 46.2277C361.919 49.3438 361.322 53.0327 359.975 56.3933ZM386.867 29.468C392.991 29.5609 399.123 29.325 405.247 29.5861C410.611 29.881 415.686 33.4603 417.298 38.5892C419.379 44.3414 416.846 51.1295 411.302 53.9256C414.117 59.72 417.401 65.2784 420.147 71.1064C416.027 71.1316 411.899 71.3504 407.797 70.98C405.537 65.8762 402.969 60.9073 400.624 55.8459C399.558 55.8037 398.492 55.7697 397.434 55.7363C397.076 60.7895 397.264 65.8762 397.332 70.9378C393.86 71.4346 390.338 71.0724 386.85 71.123C386.79 57.2436 386.756 43.3561 386.867 29.468ZM397.451 38.9007C397.076 41.6378 397.272 44.4001 397.289 47.1542C399.916 47.0618 402.714 47.5502 405.221 46.5478C408.283 45.1414 407.976 40.2233 404.769 39.1872C402.372 38.6987 399.882 39.0523 397.451 38.9007ZM425.256 29.468C431.371 29.6116 437.504 29.2154 443.61 29.6785C448.694 30.0748 453.401 33.334 455.423 37.9661C456.924 41.099 456.242 44.6529 456.361 47.9964C456.259 51.6263 456.66 55.2646 456.463 58.8945C455.901 65.4128 449.956 70.7776 443.388 71.0896C437.35 71.2661 431.303 71.1316 425.264 71.1397C425.136 57.2522 425.153 43.3561 425.256 29.468ZM435.849 38.7408C435.849 46.4468 435.857 54.1442 435.84 61.8421C438.621 61.7579 441.981 62.6001 444.259 60.5449C446.28 58.9112 445.964 56.1321 446.152 53.8413C446.263 49.7902 446.476 45.6045 445.487 41.655C443.593 38.2187 439.184 38.7155 435.849 38.7408Z" fill="#22317F"/>
</g>
<g clip-path="url(#clip1_1090_493)">
<path fill-rule="evenodd" clip-rule="evenodd" d="M-42.2652 110.888C-39.3839 107.694 -33.9655 107.755 -31.012 110.82C-22.8177 119.019 -14.7122 127.303 -6.56796 135.546C-3.47013 138.414 -3.08145 143.818 -6.05715 146.906C-14.368 155.363 -22.7233 163.781 -31.0397 172.233C-33.8489 175.231 -38.9508 175.343 -41.921 172.531C-46.1403 168.308 -50.3042 164.035 -54.5121 159.8C-50.3484 155.358 -45.9349 151.162 -41.7544 146.737C-39.3007 144.15 -39.395 140.096 -40.9606 137.065C-47.173 142.823 -52.8743 149.138 -58.9591 155.037C-60.436 153.524 -61.946 152.051 -63.3616 150.482C-57.3658 144.566 -51.4978 138.521 -45.5851 132.521C-46.9509 130.935 -48.5053 129.529 -49.8988 127.966C-50.4206 128.326 -50.9537 128.68 -51.4089 129.124C-56.1722 134.034 -61.041 138.842 -65.7987 143.762C-66.476 144.465 -67.2254 145.095 -67.9973 145.691C-69.5351 142.744 -69.3963 138.819 -67.0369 136.35C-62.9342 131.93 -58.4651 127.859 -54.4512 123.36C-50.5039 119.092 -46.2958 115.077 -42.2652 110.888ZM4.71865 127.499C7.02254 127.488 9.32643 127.494 11.6305 127.488C11.6804 136.755 11.6582 146.017 11.6415 155.284C9.33209 155.363 7.02254 155.335 4.71865 155.307C4.71865 146.034 4.71865 136.767 4.71865 127.499ZM19.4749 128.944C21.9565 127.257 25.0822 127.19 27.958 127.403C30.6006 127.634 33.3652 128.624 35.1029 130.738C33.6483 132.099 32.2938 133.567 30.8503 134.939C28.8295 133.454 26.0536 132.847 23.7054 133.814C22.1397 134.444 21.8344 136.997 23.5887 137.588C26.953 138.594 31.078 138.032 33.6928 140.883C36.5964 144.516 36.1411 150.825 32.1772 153.524C29.207 155.667 25.3541 155.869 21.8511 155.448C19.0419 155.172 16.2161 153.997 14.3508 151.787C15.8164 150.37 17.2321 148.902 18.67 147.451C21.157 149.267 24.5658 149.998 27.486 148.936C29.1515 148.278 29.207 145.511 27.4638 144.937C24.305 144.1 20.6407 144.465 18.0149 142.154C14.3396 138.645 15.1058 131.554 19.4749 128.944ZM39.7886 127.561C43.275 127.415 46.767 127.527 50.2534 127.488C52.7738 127.465 55.461 128.09 57.3151 129.929C60.1577 132.459 60.946 137.019 59.1806 140.399C58.4143 141.884 57.093 142.93 55.7662 143.869C57.6206 147.687 59.7079 151.393 61.4956 155.251C58.8529 155.386 56.2104 155.352 53.5733 155.279C52.0245 151.877 50.3367 148.542 48.8656 145.106C48.1105 145.095 47.3555 145.089 46.6004 145.089C46.6449 148.491 46.6559 151.888 46.6004 155.29C44.3964 155.138 41.8593 155.762 39.8607 155.014C39.7663 145.865 39.9107 136.71 39.7886 127.561ZM46.5727 134.005C46.656 135.777 46.6115 137.548 46.6893 139.32C48.4213 139.207 50.3035 139.601 51.93 138.836C53.8621 137.756 53.479 134.5 51.3581 133.921C49.7704 133.764 48.1439 133.679 46.5727 134.005ZM71.9661 127.55C73.7704 127.46 75.5746 127.471 77.3733 127.533C80.5766 136.823 84.1575 145.983 87.222 155.324C84.8571 155.329 82.4975 155.341 80.138 155.312C79.6884 153.969 79.261 152.619 78.8778 151.252C76.0854 151.286 73.2929 151.174 70.5059 151.326C70.1395 152.681 69.6899 154.008 69.1957 155.318C66.8585 155.335 64.5212 155.335 62.1895 155.318C65.1764 145.978 68.8349 136.851 71.9661 127.55ZM72.499 145.41C74.0146 145.5 75.5302 145.517 77.0514 145.483C76.3963 143.189 75.5858 140.945 74.9972 138.634C73.7981 140.731 73.4205 143.189 72.499 145.41ZM90.653 131.295C93.9507 126.802 100.801 126.099 105.309 129.046C107.802 130.665 109.079 133.567 109.623 136.418C107.275 136.536 104.921 136.525 102.578 136.429C102.2 133.123 97.1262 132.397 96.0436 135.574C95.2608 139.224 95.3386 143.059 95.8881 146.737C96.1936 148.84 98.6807 150.015 100.54 149.138C101.817 148.772 101.99 147.215 102.95 146.495C105.171 146.444 107.402 146.383 109.617 146.596C109.029 149.582 107.558 152.54 104.893 154.132C100.318 156.825 93.6786 155.926 90.5197 151.415C88.3101 148.21 88.7043 144.122 88.6821 140.422C88.6266 137.306 88.721 133.887 90.653 131.295ZM119.683 127.55C121.493 127.46 123.308 127.454 125.123 127.556C128.293 136.851 131.88 146 134.944 155.329C132.607 155.268 130.264 155.453 127.932 155.251C127.266 154.014 127.055 152.591 126.628 151.269C123.83 151.286 121.026 151.146 118.239 151.348C117.878 152.686 117.423 153.991 116.973 155.301C114.608 155.358 112.243 155.318 109.884 155.335C112.915 145.995 116.529 136.851 119.683 127.55ZM120.216 145.466C121.726 145.494 123.241 145.505 124.751 145.472C124.107 143.2 123.33 140.967 122.731 138.678C121.481 140.759 121.093 143.222 120.216 145.466ZM137.72 127.488C141.706 127.55 145.698 127.392 149.684 127.567C153.176 127.764 156.479 130.154 157.528 133.578C158.883 137.419 157.234 141.951 153.626 143.818C155.458 147.687 157.595 151.399 159.383 155.29C156.701 155.307 154.014 155.453 151.344 155.206C149.873 151.798 148.202 148.48 146.675 145.101C145.981 145.072 145.287 145.05 144.599 145.027C144.365 148.401 144.488 151.798 144.532 155.178C142.272 155.509 139.98 155.268 137.709 155.301C137.67 146.034 137.648 136.761 137.72 127.488ZM144.61 133.786C144.365 135.614 144.493 137.458 144.504 139.297C146.214 139.235 148.035 139.561 149.667 138.892C151.66 137.953 151.46 134.669 149.373 133.977C147.813 133.651 146.192 133.887 144.61 133.786ZM162.708 127.488C166.689 127.584 170.68 127.319 174.655 127.628C177.964 127.893 181.029 130.069 182.344 133.162C183.321 135.254 182.877 137.627 182.955 139.859C182.889 142.283 183.149 144.712 183.022 147.136C182.655 151.489 178.786 155.071 174.511 155.279C170.58 155.397 166.644 155.307 162.714 155.312C162.63 146.04 162.642 136.761 162.708 127.488ZM169.603 133.679C169.603 138.825 169.609 143.964 169.598 149.104C171.408 149.048 173.595 149.61 175.077 148.238C176.393 147.147 176.188 145.292 176.31 143.762C176.382 141.057 176.521 138.262 175.877 135.625C174.644 133.331 171.774 133.662 169.603 133.679Z" fill="#22317F"/>
</g>
<defs>
<clipPath id="clip0_1090_493">
<rect width="158" height="101.063" fill="white" transform="translate(12.8105)"/>
</clipPath>
<clipPath id="clip1_1090_493">
<rect width="183.622" height="34.1622" fill="white" transform="translate(0 123.838)"/>
</clipPath>
</defs>
</svg>
