<svg width="30" height="30" viewBox="0 0 30 30" fill="none" xmlns="http://www.w3.org/2000/svg">
<path fill-rule="evenodd" clip-rule="evenodd" d="M6 0C2.68629 0 0 2.68629 0 6V24C0 27.3137 2.68629 30 6 30H24C27.3137 30 30 27.3137 30 24V6C30 2.68629 27.3137 0 24 0H6ZM13.0922 9.14341H10.3571V16.7916C10.3571 18.6627 9.63737 19.1848 8.48529 19.1848C7.9457 19.1848 7.45935 19.0951 7.08164 18.9689L6.77539 21.1827C7.31497 21.3628 8.14331 21.4707 8.79081 21.4707C11.4362 21.4707 13.0922 20.2647 13.0922 16.8099V9.14341ZM18.5084 19.222C17.3388 19.222 16.1867 18.8435 15.4671 18.4658L14.9092 20.7146C15.5932 21.093 16.9611 21.4707 18.3465 21.4707C21.6759 21.4707 23.2232 19.7433 23.2232 17.7097C23.2232 15.9823 22.2337 14.8666 20.0922 14.0748C18.5084 13.463 17.8427 13.121 17.8427 12.3474C17.8427 11.7356 18.4187 11.1778 19.6065 11.1778C20.7761 11.1778 21.6577 11.5198 22.1258 11.7538L22.7376 9.5583C22.0179 9.21632 21.0277 8.94653 19.6423 8.94653C16.7992 8.94653 15.0536 10.5121 15.0536 12.5814C15.0536 14.3635 16.3851 15.4791 18.4005 16.1988C19.8581 16.7027 20.4341 17.1526 20.4341 17.8905C20.4341 18.6999 19.7684 19.222 18.5084 19.222Z" fill="white"/>
</svg>
