<svg width="30" height="30" viewBox="0 0 30 30" fill="none" xmlns="http://www.w3.org/2000/svg">
<path fill-rule="evenodd" clip-rule="evenodd" d="M6 0C2.68629 0 0 2.68629 0 6V24C0 27.3137 2.68629 30 6 30H24C27.3137 30 30 27.3137 30 24V6C30 2.68629 27.3137 0 24 0H6ZM13.949 23.5722C22.1397 25.0658 24.5189 18.65 24.5189 18.65C22.5207 21.2533 18.9739 21.9401 15.6133 21.1753C15.5128 21.1526 15.4147 21.123 15.3167 21.0935C15.2906 21.0856 15.2644 21.0778 15.2383 21.07C15.2065 21.0607 15.1755 21.0514 15.1446 21.0417C15.0233 21.0046 14.903 20.9655 14.7834 20.9243C14.7672 20.9184 14.7506 20.9123 14.7339 20.9064C14.6267 20.8686 14.5207 20.829 14.4154 20.7883C14.3856 20.7764 14.3558 20.765 14.3261 20.7532C14.2104 20.7076 14.0957 20.66 13.9822 20.6103C13.9698 20.605 13.9576 20.5995 13.9455 20.5941C13.9349 20.5893 13.9243 20.5846 13.9135 20.5799C13.8161 20.5358 13.7197 20.4912 13.6237 20.445L13.62 20.4433C13.5934 20.4306 13.5668 20.4181 13.5396 20.4047C13.4788 20.375 13.4185 20.3439 13.3584 20.3129C13.3441 20.3055 13.3298 20.2981 13.3154 20.2907C13.2969 20.2809 13.2783 20.2714 13.2597 20.2618C13.2282 20.2456 13.1968 20.2295 13.1658 20.2123C13.075 20.1637 12.9857 20.1129 12.8967 20.0614C12.8843 20.0545 12.8719 20.0476 12.8594 20.0407C12.8417 20.0309 12.8239 20.021 12.8061 20.0108C12.6881 19.9414 12.5713 19.8695 12.4558 19.7963C12.4356 19.7834 12.4156 19.7699 12.3956 19.7563C12.3842 19.7486 12.3729 19.741 12.3615 19.7334C12.2777 19.6795 12.1943 19.6244 12.1124 19.5677C12.0985 19.5584 12.0849 19.5486 12.0713 19.5389C12.0582 19.5296 12.0452 19.5203 12.0321 19.5114C11.9528 19.4554 11.8743 19.3987 11.7967 19.3411C11.7613 19.3149 11.7263 19.2883 11.6922 19.2622C11.6207 19.2075 11.5497 19.1526 11.4795 19.0961C11.4478 19.0708 11.416 19.0455 11.3849 19.0201C11.2955 18.9466 11.2073 18.8728 11.1201 18.797C11.1155 18.793 11.1107 18.789 11.1058 18.7849C11.1009 18.7809 11.096 18.7768 11.0911 18.7726C10.9969 18.6897 10.9045 18.6049 10.8128 18.5196C10.7861 18.4942 10.7603 18.4696 10.7346 18.4441C10.6668 18.3797 10.6 18.3149 10.5346 18.2481C10.527 18.2406 10.5195 18.2331 10.5119 18.2256C10.4932 18.2071 10.4745 18.1886 10.4561 18.17C10.3728 18.0846 10.291 17.9981 10.2106 17.9104L10.1988 17.8975C10.1138 17.8049 10.031 17.71 9.95 17.6144L9.8846 17.537C9.82403 17.464 9.7641 17.3902 9.70544 17.3155C9.6852 17.2909 9.6649 17.2653 9.64466 17.2397L9.63989 17.2337C9.5694 17.1424 9.50041 17.051 9.43303 16.9583C7.56712 14.4134 6.89677 10.9031 8.38829 8.02039L7.06632 9.69706C5.37261 12.1314 5.58371 15.2984 6.87735 17.8849C6.90363 17.938 6.93107 17.9906 6.95837 18.0429C6.96291 18.0515 6.96745 18.0602 6.97198 18.0689C6.98043 18.0849 6.98862 18.101 6.99679 18.117C7.00849 18.14 7.02016 18.163 7.03255 18.1854C7.04103 18.2015 7.0502 18.2175 7.0592 18.2332C7.06292 18.2397 7.06661 18.2461 7.07021 18.2525C7.0895 18.2884 7.10914 18.3229 7.12902 18.3577C7.13193 18.3629 7.13485 18.368 7.13778 18.3731C7.1778 18.4441 7.21905 18.5145 7.26124 18.5848C7.26509 18.5912 7.26892 18.5976 7.27276 18.604C7.29222 18.6364 7.31165 18.6687 7.33192 18.701C7.3783 18.7763 7.42625 18.8508 7.47514 18.9251C7.47928 18.9316 7.4834 18.9381 7.48751 18.9446C7.50353 18.9699 7.51945 18.995 7.53616 19.0195C7.60373 19.1201 7.67254 19.2205 7.74381 19.319C7.74539 19.3216 7.74737 19.3245 7.74973 19.3271C7.75584 19.3357 7.76231 19.3443 7.76881 19.3529C7.77412 19.3599 7.77944 19.367 7.78462 19.3741C7.84612 19.4591 7.90965 19.5427 7.97393 19.6257C7.99744 19.6559 8.02124 19.6863 8.04505 19.7163C8.10233 19.7886 8.16073 19.8598 8.22002 19.9313C8.242 19.9579 8.26438 19.9848 8.28666 20.0112C8.36621 20.1047 8.44748 20.198 8.53028 20.2892C8.53132 20.2905 8.53272 20.292 8.53395 20.2933C8.53436 20.2937 8.53476 20.2941 8.53511 20.2945C8.53867 20.2984 8.54163 20.3008 8.54458 20.3048C8.62552 20.3931 8.70836 20.4794 8.79225 20.5657C8.81808 20.5925 8.8447 20.6193 8.87165 20.6457C8.93656 20.7111 9.00256 20.7755 9.0692 20.8396C9.07697 20.847 9.08472 20.8544 9.09246 20.8619C9.11167 20.8804 9.1308 20.8988 9.14998 20.9163C9.23919 21.0003 9.32918 21.0827 9.42086 21.163C9.42132 21.1634 9.42174 21.1638 9.42213 21.1641C9.4232 21.1651 9.42409 21.1659 9.42524 21.1663C9.43425 21.1744 9.44346 21.1822 9.45258 21.1899C9.45922 21.1956 9.46582 21.2012 9.47226 21.2068C9.55304 21.2768 9.63559 21.3463 9.71839 21.4145C9.7386 21.4309 9.75899 21.4471 9.77934 21.4632C9.79299 21.474 9.80662 21.4848 9.82018 21.4957C9.88808 21.5499 9.95655 21.6036 10.0254 21.6561C10.0618 21.684 10.0984 21.7118 10.1351 21.7395C10.2111 21.7956 10.2878 21.8507 10.3653 21.9045L10.3726 21.9098C10.3983 21.9285 10.4232 21.9465 10.4492 21.9642C10.4537 21.9673 10.458 21.9706 10.4624 21.9737C10.4656 21.976 10.4688 21.9783 10.4721 21.9805C10.5456 22.0313 10.6206 22.0799 10.6957 22.1284C10.7037 22.1338 10.7117 22.1392 10.7197 22.1446C10.7438 22.1609 10.768 22.1772 10.7925 22.1929C10.9075 22.2658 11.0243 22.3379 11.1423 22.4073C11.1609 22.418 11.1796 22.4286 11.1985 22.4391C11.212 22.4467 11.2255 22.4542 11.239 22.4619C11.3258 22.512 11.4132 22.5611 11.5018 22.6093C11.5334 22.6263 11.5655 22.6426 11.5976 22.6589C11.6141 22.6673 11.6306 22.6757 11.647 22.6842C11.6598 22.6909 11.6726 22.6976 11.6854 22.7043C11.735 22.7304 11.7845 22.7564 11.835 22.7817C11.8421 22.7852 11.8494 22.7887 11.8566 22.7922C11.864 22.7957 11.8714 22.7993 11.8785 22.8028C11.9042 22.815 11.9299 22.8269 11.9554 22.8399C12.0537 22.8869 12.1529 22.9332 12.2533 22.9778C12.2748 22.9873 12.2952 22.9967 12.3164 23.006C12.4311 23.0563 12.5471 23.1044 12.6637 23.1505C12.6852 23.1593 12.7068 23.1676 12.7284 23.176C12.7351 23.1786 12.7417 23.1812 12.7484 23.1838C12.8566 23.2253 12.9662 23.2665 13.0764 23.3052L13.1175 23.3195C13.2385 23.3617 13.3602 23.401 13.4832 23.4392C13.4996 23.4439 13.516 23.4489 13.5325 23.4539C13.5455 23.4578 13.5584 23.4618 13.5713 23.4655C13.6025 23.475 13.6336 23.4848 13.6647 23.4947C13.7584 23.5244 13.8522 23.5542 13.949 23.5722ZM12.7292 14.6331C12.7067 14.6005 12.6844 14.5684 12.6625 14.5369C12.4612 14.2482 12.2811 13.9451 12.1206 13.6326C11.1653 11.7684 11.0988 9.409 12.3235 7.64638L13.3243 6.23366C12.5097 7.60973 12.4083 9.30534 12.8783 10.8159C13.3273 12.2724 14.2708 13.5569 15.4611 14.4969C15.4767 14.5093 15.4923 14.5215 15.5079 14.5337C15.518 14.5416 15.5281 14.5494 15.5382 14.5574C15.6501 14.6427 15.7635 14.727 15.8799 14.8074C15.9341 14.8441 15.989 14.8803 16.0443 14.916C16.0553 14.9232 16.0661 14.9306 16.0769 14.938C16.0914 14.9479 16.1059 14.9578 16.1206 14.9671C16.2042 15.0202 16.2886 15.0718 16.374 15.1219C16.3835 15.1275 16.3931 15.1328 16.4026 15.1381C16.4099 15.1421 16.4171 15.1461 16.4241 15.1502C16.4931 15.1904 16.5632 15.23 16.6336 15.2682L16.729 15.3173C16.7437 15.3249 16.7584 15.3325 16.7731 15.3401C16.8134 15.3609 16.8537 15.3817 16.8946 15.4017C17.003 15.4553 17.1129 15.5064 17.2245 15.555C17.2386 15.5614 17.253 15.5674 17.2674 15.5733C17.2773 15.5774 17.2872 15.5815 17.2972 15.5858C17.3861 15.6235 17.4759 15.6596 17.5667 15.6945C17.602 15.7081 17.638 15.7212 17.6739 15.7344L17.6797 15.7365C17.7626 15.7667 17.8463 15.7957 17.9303 15.8229C17.9663 15.8349 18.0018 15.8467 18.0382 15.8576C18.1564 15.8949 18.2754 15.9296 18.3961 15.9613C21.1159 16.6672 23.6646 15.7628 24.9808 13.8674C24.9808 13.8674 23.5209 18.7365 17.1968 17.6887C17.107 17.6739 17.0206 17.6451 16.9346 17.6164C16.903 17.6059 16.8715 17.5954 16.8399 17.5856C16.8167 17.5785 16.7938 17.571 16.7708 17.5636C16.7566 17.559 16.7424 17.5544 16.7281 17.5498C16.6453 17.5221 16.5633 17.4944 16.4812 17.4639C16.4709 17.4601 16.4606 17.4564 16.4502 17.4526C16.4223 17.4425 16.3941 17.4322 16.3662 17.4217C16.2761 17.3871 16.1864 17.3502 16.0975 17.3126C16.0892 17.3091 16.0809 17.3058 16.0726 17.3025C16.0566 17.296 16.0407 17.2896 16.0251 17.2826C15.9138 17.2344 15.805 17.183 15.6971 17.1299C15.6894 17.1267 15.6812 17.1229 15.6732 17.1192C15.6331 17.0992 15.5933 17.0784 15.5537 17.0576C15.5411 17.051 15.5285 17.0445 15.516 17.0379C15.5071 17.0333 15.4982 17.0287 15.4893 17.0242C15.4715 17.0151 15.4537 17.006 15.4363 16.9962C15.361 16.9555 15.2854 16.9133 15.2115 16.8706C15.2068 16.8678 15.2021 16.8652 15.1974 16.8626C15.1902 16.8585 15.1829 16.8544 15.1755 16.8499C15.0895 16.7998 15.0049 16.7476 14.9212 16.6939C14.9064 16.6849 14.8921 16.6752 14.8777 16.6655C14.8675 16.6586 14.8574 16.6517 14.8469 16.645C14.8323 16.6354 14.8176 16.6258 14.8029 16.6163C14.7653 16.5918 14.7277 16.5674 14.6906 16.5417C14.6871 16.5392 14.6843 16.5366 14.6807 16.5342C14.5636 16.4539 14.4495 16.3695 14.3376 16.2837C14.3255 16.2744 14.3135 16.265 14.3015 16.2556C14.2887 16.2455 14.276 16.2355 14.2631 16.2256C14.1517 16.1374 14.0418 16.0476 13.9353 15.9545C13.9348 15.9538 13.9343 15.9534 13.9338 15.9529C13.9334 15.9526 13.9329 15.9522 13.9325 15.9517C13.9305 15.9503 13.9286 15.9485 13.9267 15.9468C13.9249 15.9451 13.923 15.9433 13.9209 15.9418C13.825 15.857 13.7316 15.7697 13.6404 15.6809C13.6352 15.6759 13.63 15.6708 13.6248 15.6658C13.6056 15.6471 13.5865 15.6286 13.5679 15.6095C13.4737 15.5162 13.3812 15.4215 13.2931 15.3242C13.0786 15.1382 12.8954 14.8733 12.7292 14.6331ZM19.4632 12.4034C19.4179 12.3882 19.3731 12.373 19.3281 12.3563C18.0645 11.893 16.9818 10.9157 16.4535 9.67011C15.9527 8.49641 16.0235 7.17676 16.7455 6.11413L17.286 5.36914C16.2872 7.17365 17.2381 9.3895 18.7688 10.5511C19.0375 10.7538 19.3267 10.9309 19.6307 11.0768C19.7908 11.1537 19.955 11.2215 20.122 11.2811C20.2525 11.3272 20.401 11.376 20.536 11.409C22.247 11.8241 23.6411 11.5373 24.4708 10.3428C24.4453 10.3794 24.4128 10.4376 24.3712 10.5118C24.0014 11.172 22.9189 13.1043 19.7796 12.4978C19.7197 12.4865 19.6616 12.4676 19.6038 12.4486C19.5873 12.4433 19.5708 12.4379 19.5543 12.4327C19.5411 12.4288 19.528 12.4246 19.5149 12.4203C19.5049 12.4171 19.495 12.4139 19.485 12.4108C19.4777 12.4084 19.4704 12.4059 19.4632 12.4034Z" fill="white"/>
</svg>
