<svg width="30" height="30" viewBox="0 0 30 30" fill="none" xmlns="http://www.w3.org/2000/svg">
<path fill-rule="evenodd" clip-rule="evenodd" d="M5 0C2.23858 0 0 2.23858 0 5V25C0 27.7614 2.23858 30 5 30H25C27.7614 30 30 27.7614 30 25V5C30 2.23858 27.7614 0 25 0H5ZM23.5894 10.1457C23.5893 10.1208 23.586 10.0961 23.5795 10.0721C23.5781 10.0667 23.5758 10.0618 23.5735 10.0569C23.5721 10.054 23.5707 10.0511 23.5696 10.0481C23.5683 10.0448 23.567 10.0414 23.5658 10.038C23.5616 10.0265 23.5574 10.0151 23.5511 10.0045C23.5479 9.99849 23.5435 9.99328 23.539 9.98802C23.5366 9.98522 23.5342 9.9824 23.532 9.97946C23.5294 9.97604 23.527 9.97259 23.5245 9.96916C23.5189 9.96127 23.5134 9.95347 23.5065 9.94636C23.5014 9.94148 23.4954 9.93715 23.4895 9.93286C23.486 9.93034 23.4825 9.92783 23.4792 9.92523C23.4759 9.92269 23.4727 9.92008 23.4695 9.91748C23.4625 9.91178 23.4556 9.90612 23.4473 9.90129L20.0431 7.95291C20 7.92822 19.9511 7.91522 19.9014 7.91522C19.8517 7.91522 19.8028 7.92822 19.7597 7.95291L16.3548 9.90129C16.3469 9.90591 16.3401 9.91171 16.3331 9.91764C16.33 9.92029 16.3269 9.92297 16.3236 9.92558C16.3205 9.92793 16.3173 9.93016 16.3141 9.93239C16.3078 9.93685 16.3014 9.94131 16.296 9.94671C16.2889 9.95371 16.2833 9.96161 16.2776 9.96963C16.2753 9.9729 16.2729 9.97619 16.2705 9.97946C16.268 9.98285 16.2653 9.98608 16.2626 9.98932C16.2586 9.99414 16.2545 9.99898 16.2513 10.0045C16.2451 10.0154 16.2407 10.0273 16.2363 10.0392C16.2351 10.0422 16.234 10.0452 16.2329 10.0481C16.2316 10.0517 16.23 10.0552 16.2284 10.0587C16.2264 10.063 16.2244 10.0674 16.223 10.0721C16.2166 10.0957 16.2131 10.1207 16.2131 10.1453V13.8463L13.3763 15.47V8.23039C13.3763 8.20554 13.3729 8.18079 13.3664 8.1568C13.3652 8.15193 13.363 8.14742 13.3609 8.14292C13.3593 8.1396 13.3577 8.13629 13.3565 8.13285C13.3552 8.12962 13.3541 8.12639 13.3529 8.12317C13.3486 8.11163 13.3444 8.10019 13.3381 8.08919C13.3351 8.08362 13.3309 8.07871 13.3267 8.07381C13.324 8.07065 13.3213 8.0675 13.3189 8.06418C13.3164 8.06077 13.3139 8.05732 13.3115 8.05389C13.3059 8.046 13.3003 8.0382 13.2934 8.03108C13.288 8.02592 13.2816 8.02138 13.2752 8.01684C13.2721 8.01457 13.2689 8.0123 13.2658 8.00996C13.2629 8.00764 13.26 8.00527 13.2571 8.0029C13.2499 7.99697 13.2427 7.99104 13.2346 7.98601H13.2339L9.82968 6.03763C9.78658 6.01298 9.73772 6 9.68798 6C9.63825 6 9.58939 6.01298 9.54629 6.03763L6.1417 7.98601C6.13305 7.99096 6.12576 7.99725 6.1184 8.00362C6.1158 8.00586 6.1132 8.00811 6.11052 8.01031C6.10732 8.01275 6.10395 8.01507 6.10058 8.0174C6.09423 8.02176 6.08786 8.02615 6.08254 8.03144C6.07509 8.03911 6.06893 8.04786 6.06272 8.05668C6.06096 8.05918 6.05919 8.06169 6.05739 8.06418C6.05504 8.06729 6.0525 8.07026 6.04997 8.07323C6.04561 8.07832 6.04126 8.0834 6.0379 8.08919C6.03109 8.10119 6.02644 8.11428 6.02183 8.12726C6.02117 8.12913 6.0205 8.13099 6.01984 8.13285C6.0186 8.13639 6.01695 8.1398 6.01532 8.14319C6.01321 8.14755 6.01111 8.15189 6.00992 8.15644C6.00354 8.18039 6 8.20504 6 8.23039V19.8213C6.00003 19.8709 6.01322 19.9196 6.03822 19.9625C6.06322 20.0054 6.09915 20.041 6.1424 20.0657L12.9505 23.9625C12.9626 23.9693 12.9755 23.9738 12.9883 23.9783C12.9913 23.9794 12.9943 23.9804 12.9973 23.9815C13.0002 23.9826 13.0031 23.9839 13.0059 23.9852C13.0104 23.9873 13.0149 23.9894 13.0196 23.9907C13.0672 24.0031 13.1172 24.0031 13.1648 23.9907C13.1686 23.9897 13.1721 23.988 13.1757 23.9864C13.1784 23.9851 13.1812 23.9838 13.184 23.9829L13.1884 23.9814C13.2039 23.9759 13.2193 23.9705 13.2336 23.9625L20.0431 20.0657C20.131 20.015 20.1848 19.9221 20.1848 19.8213V16.1207L23.447 14.2537C23.4903 14.229 23.5262 14.1934 23.5512 14.1505C23.5762 14.1076 23.5894 14.0589 23.5894 14.0093V10.1457ZM23.0219 10.6334V13.8463H23.0223L20.1848 15.47V12.2571L21.8306 11.3151L23.0219 10.6334ZM19.6177 16.4433V19.6583L13.376 23.2304V19.9851L17.9988 17.3624L19.6177 16.4433ZM6.56749 19.6583V8.7181L7.7588 9.39949L9.40424 10.3418V17.9068C9.40424 17.9138 9.4055 17.9209 9.40676 17.9279C9.40739 17.9314 9.40802 17.9349 9.40849 17.9385C9.40878 17.9413 9.40905 17.9442 9.40932 17.9471C9.41033 17.9582 9.41135 17.9694 9.41416 17.98C9.41611 17.9878 9.41956 17.9949 9.42303 18.002C9.4246 18.0052 9.42618 18.0084 9.42762 18.0117C9.42867 18.0145 9.42969 18.0172 9.43071 18.02C9.43414 18.0294 9.43758 18.0388 9.4425 18.0469L9.44285 18.048C9.44639 18.0541 9.45102 18.0596 9.45573 18.0651C9.45857 18.0685 9.46144 18.0719 9.4641 18.0754C9.4667 18.0787 9.46914 18.0821 9.47158 18.0855C9.47646 18.0924 9.48134 18.0992 9.48748 18.105L9.48819 18.1061C9.49299 18.1109 9.49873 18.1148 9.5045 18.1188C9.5081 18.1213 9.51171 18.1238 9.51512 18.1265C9.51869 18.1292 9.52214 18.1321 9.52558 18.1349C9.53202 18.1403 9.53842 18.1456 9.54558 18.1497L9.547 18.1505L9.54806 18.1512L12.8085 19.9854V23.23L6.56749 19.6583ZM9.68798 6.60759L6.85195 8.23039L9.68763 9.85339L12.5237 8.23004L9.68798 6.60759ZM12.8088 15.7947L11.1634 16.7363L9.97173 17.4184V10.3418L11.6175 9.39984L12.8088 8.7181V15.7947ZM17.0654 10.1457L19.9014 8.52267L22.7371 10.1453L19.9014 11.7687L17.0654 10.1457ZM17.9719 11.3151L19.6177 12.2571V15.47L18.426 14.7879L16.7806 13.8463V10.6334L17.9719 11.3151ZM17.2517 17.1367L13.0919 19.4974L10.2604 17.9043L13.2343 16.2024L16.4972 14.335L19.3311 15.957L17.2517 17.1367Z" fill="white"/>
</svg>
