<svg width="30" height="30" viewBox="0 0 30 30" fill="none" xmlns="http://www.w3.org/2000/svg">
<path fill-rule="evenodd" clip-rule="evenodd" d="M6 0C2.68629 0 0 2.68629 0 6V24C0 27.3137 2.68629 30 6 30H24C27.3137 30 30 27.3137 30 24V6C30 2.68629 27.3137 0 24 0H6ZM25.6808 13.6569V13.6521H25.6818C25.6837 13.4091 25.7028 13.0871 25.7391 12.6861C25.7754 12.2851 25.7935 11.9388 25.7935 11.6472L25.7926 11.655C25.7994 11.5909 25.8033 11.5258 25.8033 11.4597C25.8033 11.0509 25.6703 10.6731 25.4481 10.372C25.4485 10.3724 25.449 10.3728 25.4495 10.3732L25.4475 10.3712C25.4477 10.3715 25.4479 10.3717 25.4481 10.372C25.18 10.1404 24.8297 10 24.4474 10C24.3959 10 24.3444 10.0019 24.2997 10.0068H23.5707V10.8795H23.7855C23.8156 10.8746 23.8467 10.8727 23.8778 10.8727C24.047 10.8727 24.2015 10.9368 24.3172 11.0428L24.3142 11.0369C24.4007 11.1944 24.4503 11.3761 24.4503 11.5695C24.4503 11.6084 24.4484 11.6472 24.4445 11.6803L24.3716 13.5753V13.5695C24.3677 13.6152 24.3658 13.6618 24.3658 13.7085C24.3658 14.0068 24.4425 14.2877 24.5718 14.5238L24.5738 14.5267C24.7244 14.7279 24.947 14.8727 25.2094 14.9252V14.9981L25.2026 14.999C24.9435 15.0514 24.7202 15.2036 24.5725 15.4159C24.5739 15.4133 24.5753 15.4108 24.5767 15.4082L24.5718 15.4169C24.572 15.4166 24.5723 15.4163 24.5725 15.4159C24.4419 15.6599 24.3677 15.938 24.3677 16.2342C24.3677 16.275 24.3687 16.3158 24.3716 16.3508L24.4445 18.2459V18.241C24.4493 18.2789 24.4513 18.3168 24.4513 18.3547C24.4513 18.5509 24.395 18.7335 24.2998 18.8831C24.1833 18.9867 24.0291 19.0505 23.8604 19.0505C23.8351 19.0505 23.8108 19.0486 23.7894 19.0466V19.0836H23.5668V19.9932H24.2958L24.289 19.9922C24.3395 19.9971 24.391 20 24.4435 20C24.8261 20 25.1766 19.8594 25.4428 19.6285C25.4418 19.6299 25.4408 19.6313 25.4398 19.6327L25.4436 19.6278C25.4434 19.628 25.4431 19.6283 25.4428 19.6285C25.6674 19.3231 25.7994 18.9467 25.7994 18.5394C25.7994 18.4733 25.7955 18.4082 25.7896 18.3518C25.7896 18.0603 25.7715 17.714 25.7352 17.3129C25.6989 16.9119 25.6808 16.596 25.6808 16.3654V16.3518C25.6808 16.1247 25.769 15.9179 25.9135 15.7654C26.0874 15.6043 26.3205 15.5063 26.5759 15.5063C26.6061 15.5063 26.6362 15.5083 26.6615 15.5102V14.4902C26.6628 14.49 26.6641 14.4899 26.6654 14.4898H26.6615V14.4902C26.6327 14.4928 26.6048 14.4937 26.5759 14.4937C26.3203 14.4937 26.0871 14.3955 25.9141 14.2352C25.7692 14.0855 25.6808 13.8814 25.6808 13.6569ZM23.3851 16.5685C23.3851 15.7418 22.8622 15.1584 21.8164 14.8183L21.8202 14.8154C21.771 14.7907 21.6848 14.7545 21.5617 14.7065L21.5452 14.7026C21.3401 14.6433 21.1467 14.5569 20.9786 14.4519L20.9756 14.4509C20.8347 14.3703 20.7365 14.2235 20.7229 14.0515C20.7229 13.76 20.9303 13.6142 21.345 13.6142H21.3498C21.8183 13.6395 22.2469 13.8134 22.5842 14.0875L23.3471 13.0691C23.3491 13.0707 23.351 13.0723 23.353 13.0739L23.3472 13.069L23.3471 13.0691C22.8018 12.6307 22.114 12.3614 21.3596 12.3401H21.3654C21.3216 12.3372 21.2779 12.3362 21.2342 12.3362C20.6763 12.3362 20.1611 12.5228 19.7549 12.8319L19.752 12.8348C19.3865 13.1254 19.1533 13.5743 19.1533 14.0777C19.1533 14.0869 19.1535 14.0958 19.1538 14.1042C19.154 14.112 19.1542 14.1194 19.1542 14.1263C19.1542 14.8558 19.6525 15.415 20.6491 15.8037L20.7949 15.8766L20.825 15.8844C21.0757 15.9611 21.3178 16.0603 21.5228 16.1681C21.7418 16.3139 21.8514 16.4597 21.8514 16.6054C21.8514 16.921 21.6084 17.0787 21.1224 17.0787H21.1175C20.549 17.0534 20.0299 16.8377 19.6276 16.4956L18.8628 17.6247C18.8618 17.6238 18.8607 17.6229 18.8597 17.622L18.8626 17.6249L18.8628 17.6247C19.1518 17.878 19.4909 18.0763 19.8832 18.208L19.8599 18.2002C20.2175 18.3382 20.6044 18.4169 21.0126 18.4266H21.0048C21.0621 18.4305 21.1205 18.4325 21.1788 18.4325C21.7765 18.4325 22.3286 18.2323 22.763 17.8989L22.7659 17.897C23.144 17.5899 23.3851 17.1215 23.3851 16.5967V16.5685ZM8.94692 16.9699H8.72824V16.9679C8.64659 16.966 8.57467 16.9261 8.52802 16.8649L8.52899 16.8669C8.4697 16.7765 8.43471 16.6686 8.43471 16.552C8.43471 16.5335 8.43471 16.516 8.43665 16.5005V10.0107H5.70162L5.70842 10.0117C5.65788 10.0068 5.60637 10.0039 5.55388 10.0039C5.17134 10.0039 4.82081 10.1445 4.5546 10.3754C4.55562 10.374 4.55663 10.3726 4.55765 10.3712L4.55376 10.3761C4.55404 10.3758 4.55432 10.3756 4.5546 10.3754C4.32999 10.6807 4.19803 11.0572 4.19803 11.4645C4.19803 11.5306 4.20192 11.5957 4.20775 11.6521C4.20775 11.9423 4.22589 12.2938 4.26218 12.7065C4.29846 13.1192 4.31661 13.4351 4.31661 13.654V13.6599C4.31661 13.884 4.22842 14.0878 4.08399 14.2374C3.91005 14.3986 3.67691 14.4966 3.42145 14.4966C3.39132 14.4966 3.36119 14.4947 3.33592 14.4927V15.5128C3.33462 15.5129 3.33333 15.513 3.33203 15.5131H3.33592V15.5128C3.3658 15.51 3.39658 15.5083 3.42825 15.5083C3.67804 15.5083 3.90645 15.5977 4.08237 15.7454C4.22621 15.8892 4.31563 16.0875 4.31563 16.3071V16.3285C4.31563 16.5591 4.29749 16.875 4.2612 17.276C4.22492 17.677 4.20678 18.0233 4.20678 18.3149L4.20775 18.3071C4.20094 18.3712 4.19706 18.4373 4.19706 18.5034C4.19706 18.9122 4.33 19.29 4.55226 19.5911C4.55179 19.5907 4.55132 19.5903 4.55084 19.5899L4.55279 19.5918C4.55261 19.5916 4.55244 19.5914 4.55226 19.5911C4.8213 19.8246 5.17161 19.965 5.55486 19.965C5.60637 19.965 5.65788 19.9631 5.70162 19.9582H6.43446V19.0836H6.21772C6.19245 19.0865 6.16718 19.0884 6.14191 19.0884C5.97473 19.0884 5.82603 19.0165 5.72203 18.9018L5.72494 18.9086C5.63844 18.7415 5.58985 18.553 5.58985 18.3518C5.58985 18.3149 5.59179 18.2779 5.5947 18.2459V17.3712C5.61933 16.9339 5.63164 16.5938 5.63164 16.3508V16.3567C5.63455 16.3168 5.63553 16.276 5.63553 16.2352C5.63553 15.9368 5.56069 15.655 5.43142 15.4189L5.42948 15.4159C5.28368 15.206 5.06014 15.0535 4.79383 15V14.9271H4.79772C5.06014 14.898 5.2866 14.7541 5.43142 14.5452L5.42656 14.5549C5.5568 14.3032 5.63067 14.0185 5.63067 13.7162C5.63067 13.6676 5.62872 13.62 5.62581 13.5792L5.58887 11.7191V11.724C5.58499 11.6871 5.58304 11.6482 5.58304 11.6093C5.58304 11.4169 5.63261 11.2352 5.7162 11.0826C5.82408 10.9776 5.97085 10.9135 6.13316 10.9135C6.16037 10.9135 6.18662 10.9155 6.20897 10.9184H6.72021V16.3858C6.72021 17.6984 7.24311 18.3547 8.28892 18.3547H8.286C8.30544 18.3557 8.32585 18.3557 8.34529 18.3557C8.63882 18.3557 8.92068 18.3022 9.16366 18.2089L8.94692 16.9699ZM18.7548 16.5685C18.7548 15.7418 18.2319 15.1584 17.186 14.8183H17.1831C17.1345 14.7937 17.05 14.7574 16.9295 14.7094L16.9129 14.7055C16.6933 14.6492 16.4863 14.5617 16.3074 14.4538L16.3045 14.4529C16.1558 14.381 16.0528 14.2284 16.0518 14.0525C16.0518 13.7609 16.2705 13.6152 16.7079 13.6152H16.7147C17.1686 13.6453 17.5836 13.8192 17.9111 14.0884L18.6751 13.069L18.6799 13.0729C18.1492 12.6297 17.4699 12.3567 16.7244 12.3392H16.7302C16.6894 12.3372 16.6476 12.3362 16.6058 12.3362C16.0401 12.3362 15.5172 12.5219 15.1022 12.8309L15.0983 12.8338C14.7222 13.1215 14.4792 13.5743 14.4792 14.0845C14.4792 14.0921 14.4795 14.0994 14.4797 14.1064C14.4799 14.113 14.4802 14.1193 14.4802 14.1254C14.4802 14.8549 14.9908 15.414 16.0119 15.8027L16.1218 15.8756L16.1519 15.8834C16.4027 15.9602 16.6447 16.0593 16.8498 16.1672C17.0688 16.3129 17.1783 16.4587 17.1783 16.6045C17.1783 16.92 16.9353 17.0777 16.4493 17.0777H16.4445C15.8759 17.0525 15.3569 16.8367 14.9545 16.4947L14.1896 17.6239C14.1876 17.6223 14.1857 17.6207 14.1837 17.619L14.1896 17.6239L14.1896 17.6239C14.4895 17.8694 14.8327 18.066 15.2286 18.207L15.2052 18.1992C15.5707 18.3411 15.9663 18.4218 16.3823 18.4266H16.3745C16.4318 18.4305 16.4901 18.4325 16.5485 18.4325C17.1462 18.4325 17.6983 18.2323 18.1327 17.8989L18.1356 17.897C18.5137 17.5899 18.7548 17.1215 18.7548 16.5967V16.5685ZM11.6557 12.3003C11.6139 12.3003 11.5712 12.3013 11.5352 12.3032H11.5333C10.7781 12.3032 10.0977 12.6259 9.62145 13.1429L9.62242 13.1419C9.1209 13.6715 8.81377 14.3858 8.81377 15.172C8.81377 15.2335 8.81567 15.2949 8.81852 15.347C8.81759 15.3836 8.81668 15.4202 8.81668 15.4577C8.81668 16.2566 9.12965 16.9815 9.63894 17.517C10.1463 18.0136 10.8412 18.3207 11.6081 18.3207C11.647 18.3207 11.6849 18.3197 11.7179 18.3188C12.4848 18.3178 13.1933 18.0719 13.76 17.6628L13.2157 16.6425C13.2196 16.6402 13.2235 16.6379 13.2273 16.6356L13.2157 16.6424L13.2157 16.6425C12.8413 16.8647 12.407 16.9962 11.9395 17.0068L11.9454 17.0058C11.8968 17.0107 11.8472 17.0136 11.7976 17.0136C11.4662 17.0136 11.1629 16.895 10.9287 16.6997L10.9268 16.6978C10.6566 16.4723 10.4748 16.1438 10.4418 15.7668H13.9038V15.7342C13.949 15.522 13.9739 15.3016 13.9767 15.0739V15.0797C13.9786 15.0379 13.9796 14.9951 13.9796 14.9534C13.9796 14.2468 13.7396 13.5967 13.3401 13.0865L13.3372 13.0836C12.9348 12.6045 12.3302 12.3003 11.6557 12.3003ZM12.5198 14.7094H10.4418V14.7046C10.469 14.381 10.6099 14.0904 10.8247 13.8717C11.0074 13.6919 11.2582 13.5802 11.5352 13.5802C12.1916 13.5802 12.5198 13.9566 12.5198 14.7094Z" fill="white"/>
</svg>
