<svg width="140" height="140" viewBox="0 0 140 140" fill="none" xmlns="http://www.w3.org/2000/svg">
<path d="M69.6154 139.227C108.061 139.227 139.231 108.059 139.231 69.6136C139.231 31.1679 108.063 0 69.6154 0C31.1679 0 0 31.1679 0 69.6136C0 108.059 31.1679 139.227 69.6154 139.227Z" fill="#A70B52"/>
<path d="M86.5653 94.1115H72.1491V39.625H66.8027V99.4878H72.1491V99.4525H86.5653V94.1115Z" fill="white"/>
<path d="M122.549 71.8428H86.6506V66.4964H127.807C127.862 67.5301 127.889 68.5655 127.889 69.6132C127.889 101.799 101.797 127.889 69.6132 127.889C37.4293 127.889 11.3379 101.799 11.3379 69.6132C11.3379 37.4276 37.4293 11.3379 69.615 11.3379C70.4634 11.3379 71.3101 11.3555 72.1514 11.3926L72.1444 16.6983C71.3018 16.6594 70.4585 16.64 69.615 16.6401C40.3591 16.6401 16.6401 40.3574 16.6401 69.6132C16.6401 98.8708 40.3574 122.586 69.615 122.586C98.0736 122.586 121.29 100.146 122.535 71.9927L122.549 71.8428Z" fill="white"/>
<path d="M47.8763 55.7547C50.0482 55.7547 52.131 54.8919 53.6667 53.3562C55.2024 51.8205 56.0652 49.7376 56.0652 47.5658C56.0652 45.394 55.2024 43.3111 53.6667 41.7754C52.131 40.2397 50.0482 39.377 47.8763 39.377C45.7045 39.377 43.6217 40.2397 42.086 41.7754C40.5503 43.3111 39.6875 45.394 39.6875 47.5658C39.6875 49.7376 40.5503 51.8205 42.086 53.3562C43.6217 54.8919 45.7045 55.7547 47.8763 55.7547Z" fill="white"/>
</svg>
