<svg width="114" height="28" viewBox="0 0 114 28" fill="none" xmlns="http://www.w3.org/2000/svg">
<path d="M109.726 23.8579H105.445V17.3606C105.445 15.8112 105.417 13.8168 103.219 13.8168C100.989 13.8168 100.648 15.5048 100.648 17.2478V23.8575H96.3678V10.4964H100.477V12.3223H100.535C100.946 11.6408 101.54 11.0801 102.254 10.7001C102.968 10.32 103.775 10.1347 104.589 10.164C108.928 10.164 109.728 12.9299 109.728 16.5282L109.726 23.8579ZM91.538 8.67001C91.0467 8.6701 90.5664 8.52897 90.1579 8.26449C89.7493 8.00001 89.4308 7.62404 89.2428 7.18414C89.0547 6.74423 89.0054 6.26014 89.1011 5.79309C89.1969 5.32604 89.4334 4.897 89.7807 4.56022C90.1281 4.22345 90.5706 3.99406 91.0525 3.90108C91.5343 3.8081 92.0338 3.85569 92.4877 4.03784C92.9417 4.21999 93.3297 4.52851 93.6027 4.9244C93.8757 5.32029 94.0215 5.78575 94.0216 6.26194C94.0216 6.57812 93.9574 6.89121 93.8327 7.18334C93.7079 7.47547 93.525 7.74091 93.2943 7.96452C93.0637 8.18814 92.7899 8.36553 92.4885 8.48658C92.1872 8.60762 91.8642 8.66995 91.538 8.67001ZM93.6782 23.8579H89.3933V10.4964H93.6782V23.8579ZM111.86 0.00190699H87.2423C86.6836 -0.00420453 86.1452 0.20494 85.7454 0.583382C85.3457 0.961824 85.1173 1.4786 85.1105 2.02016V25.9794C85.1171 26.5212 85.3453 27.0384 85.745 27.4172C86.1448 27.796 86.6833 28.0056 87.2423 27.9998H111.86C112.42 28.0066 112.96 27.7977 113.361 27.4189C113.762 27.04 113.992 26.5223 114 25.9794V2.01843C113.992 1.4758 113.762 0.958435 113.361 0.580002C112.959 0.201569 112.42 -0.00697834 111.86 0.000178292M73.4599 13.7213C71.3197 13.7213 70.0355 15.1064 70.0355 17.1246C70.0355 19.1429 71.3192 20.5293 73.4599 20.5293C75.6006 20.5293 76.8875 19.1463 76.8875 17.1246C76.8875 15.1029 75.6029 13.7213 73.4599 13.7213ZM80.8282 23.8501H76.8875V22.0782H76.829C76.3347 22.7227 75.6934 23.2479 74.9553 23.6128C74.2171 23.9777 73.402 24.1725 72.5735 24.182C68.4606 24.182 65.7514 21.305 65.7514 17.2366C65.7514 13.5 68.149 10.069 72.0902 10.069C73.8617 10.069 75.5164 10.5387 76.4871 11.8409H76.5432V4.1391H80.8278L80.8282 23.8501ZM60.2554 15.6181C60.2636 15.2815 60.2012 14.9468 60.072 14.6342C59.9428 14.3217 59.7495 14.0378 59.5038 13.7998C59.2581 13.5618 58.9651 13.3747 58.6425 13.2497C58.32 13.1246 57.9746 13.0644 57.6274 13.0726C56.8795 13.0275 56.1432 13.269 55.5774 13.7452C55.0115 14.2214 54.6614 14.894 54.6025 15.6181H60.2554ZM63.8814 21.5388C63.1701 22.3749 62.2758 23.0471 61.2634 23.5069C60.251 23.9667 59.1458 24.2024 58.0278 24.1971C53.7472 24.1971 50.3202 21.4278 50.3202 17.1393C50.3202 12.8509 53.7468 10.0828 58.0278 10.0828C62.0287 10.0828 64.5377 12.8487 64.5377 17.1393V18.4402H54.6025C54.7262 19.1779 55.1208 19.8475 55.7136 20.3255C56.3064 20.8035 57.0575 21.0578 57.8285 21.0414C58.4377 21.0378 59.0364 20.8864 59.5699 20.6013C60.1034 20.3161 60.5549 19.9061 60.8832 19.4087L63.8814 21.5388ZM21.3286 10.4929H25.4392V12.3189H25.4976C25.9082 11.6371 26.5021 11.0761 27.216 10.696C27.9298 10.3159 28.7368 10.1308 29.5507 10.1606C33.8914 10.1606 34.6905 12.9286 34.6905 16.5248V23.8518H30.41V17.3558C30.41 15.8052 30.3805 13.812 28.1805 13.812C25.9555 13.812 25.6122 15.5005 25.6122 17.243V23.8501H21.3317L21.3286 10.4929ZM36.8611 4.1404H41.1416V15.9236L45.9928 10.4856H51.2409L45.6227 16.6713L51.1228 23.8583H45.7427L41.1987 17.2538H41.1425V23.8575H36.8619L36.8611 4.1404ZM14.6746 10.4916H18.9551V23.8527H14.6746V10.4916ZM16.8149 3.84912C17.306 3.8492 17.786 3.99043 18.1943 4.25494C18.6026 4.51945 18.9208 4.89537 19.1087 5.33516C19.2965 5.77495 19.3457 6.25885 19.2498 6.72569C19.1539 7.19253 18.9174 7.62134 18.5701 7.95789C18.2228 8.29444 17.7804 8.52362 17.2987 8.61645C16.817 8.70928 16.3178 8.66159 15.864 8.47942C15.4103 8.29724 15.0225 7.98876 14.7497 7.59298C14.4769 7.19719 14.3313 6.73189 14.3313 6.25589C14.3313 5.93979 14.3955 5.62679 14.5203 5.33476C14.6451 5.04273 14.8281 4.77739 15.0587 4.55389C15.2893 4.3304 15.5631 4.15312 15.8645 4.0322C16.1658 3.91127 16.4887 3.84906 16.8149 3.84912ZM0 4.14343H4.45575V19.8745H12.7047V23.86H0V4.14343Z" fill="white"/>
</svg>
