<svg width="36" height="39" viewBox="0 0 36 39" fill="none" xmlns="http://www.w3.org/2000/svg">
<g clip-path="url(#clip0_80_9714)">
<path d="M18.447 0.896484C8.7818 0.896484 0.947021 9.13699 0.947021 19.3027C0.947021 29.4685 8.7818 37.709 18.447 37.709C28.1122 37.709 35.947 29.4685 35.947 19.3027C35.947 9.13699 28.1122 0.896484 18.447 0.896484ZM24.2538 27.4371C23.9786 27.7251 23.69 28.0271 23.4557 28.2743C23.2447 28.497 23.0958 28.7716 23.0203 29.0692C22.9138 29.4893 22.8277 29.9138 22.6837 30.3212L21.4566 33.7984C20.4856 34.0211 19.4808 34.1465 18.447 34.1465V32.1144C18.5663 31.1777 17.9079 29.4232 16.8501 28.3107C16.4268 27.8654 16.189 27.2612 16.189 26.6311V24.2554C16.189 23.3914 15.7465 22.5973 15.0275 22.1795C14.0135 21.5894 12.5711 20.7648 11.5832 20.2416C10.7731 19.8126 10.0237 19.2664 9.34984 18.6273L9.29339 18.5739C8.81148 18.1164 8.38361 17.5996 8.019 17.0346C7.3571 16.0126 6.27888 14.3316 5.57817 13.2391C7.02263 9.86211 9.62575 7.15016 12.8604 5.67691L14.5547 6.56828C15.3055 6.96312 16.189 6.38941 16.189 5.50621V4.66754C16.7528 4.5718 17.3265 4.51094 17.91 4.48793L19.907 6.58832C20.348 7.05219 20.348 7.80402 19.907 8.26789L19.5761 8.61523L18.8464 9.38266C18.6263 9.61422 18.6263 9.99051 18.8464 10.2221L19.1774 10.5702C19.3975 10.8017 19.3975 11.178 19.1774 11.4096L18.6128 12.0033C18.5069 12.1146 18.3632 12.1771 18.2135 12.177H17.5791C17.4323 12.177 17.2912 12.2371 17.1853 12.3455L16.4853 13.0617C16.3995 13.1496 16.3425 13.2638 16.3224 13.388C16.3024 13.5122 16.3204 13.6399 16.3738 13.7527L17.4739 16.0675C17.6616 16.4624 17.3886 16.927 16.9694 16.927H16.5714C16.4352 16.927 16.304 16.875 16.2017 16.7815L15.5468 16.1833C15.3986 16.0481 15.2195 15.9558 15.0271 15.9155C14.8348 15.8751 14.6357 15.8881 14.4495 15.9532L12.25 16.7244C12.0821 16.7833 11.9361 16.8962 11.8326 17.0473C11.7291 17.1984 11.6735 17.3798 11.6735 17.566C11.6735 17.9022 11.8542 18.2087 12.14 18.3594L12.9218 18.7706C13.5858 19.1202 14.3183 19.302 15.0606 19.302C15.803 19.302 16.6547 21.3274 17.3187 21.677H22.0289C22.628 21.677 23.2017 21.9271 23.6258 22.3724L24.5918 23.3885C24.9953 23.8131 25.222 24.389 25.2219 24.9894C25.2218 25.4443 25.1362 25.8948 24.97 26.3148C24.8039 26.7349 24.5605 27.1163 24.2538 27.4371ZM30.3724 20.6572C29.9639 20.5496 29.6075 20.2861 29.3739 19.9173L28.1052 17.9156C27.9195 17.6231 27.8205 17.2794 27.8205 16.9277C27.8205 16.5761 27.9195 16.2323 28.1052 15.9399L29.4875 13.7593C29.6513 13.5018 29.8757 13.2925 30.1396 13.1545L31.0555 12.6728C32.0095 14.6707 32.5599 16.9181 32.5599 19.3027C32.5599 19.9462 32.5077 20.5763 32.4315 21.1983L30.3724 20.6572Z" fill="black"/>
</g>
<defs>
<clipPath id="clip0_80_9714">
<rect width="35" height="38" fill="white" transform="translate(0.947021 0.302734)"/>
</clipPath>
</defs>
</svg>
