<svg width="30" height="30" viewBox="0 0 30 30" fill="none" xmlns="http://www.w3.org/2000/svg">
<path fill-rule="evenodd" clip-rule="evenodd" d="M5 0C2.23858 0 0 2.23858 0 5V25C0 27.7614 2.23858 30 5 30H25C27.7614 30 30 27.7614 30 25V5C30 2.23858 27.7614 0 25 0H5ZM22.9866 8.44113C23.0862 7.76731 22.6204 7.14001 21.9456 7.04029C19.3967 6.66363 16.9822 8.92772 14.4064 13.8326C12.3837 17.6844 10.5645 19.6202 9.32604 19.5287C8.6456 19.4784 8.05361 19.9889 8.00341 20.6684C7.95321 21.3477 8.46357 21.9395 9.1439 21.9897C11.6519 22.175 14.0341 19.8529 16.5935 14.9792C18.5983 11.1615 20.389 9.30486 21.5842 9.4815C22.2593 9.58124 22.887 9.11518 22.9866 8.44113Z" fill="white"/>
</svg>
