<svg width="30" height="30" viewBox="0 0 30 30" fill="none" xmlns="http://www.w3.org/2000/svg">
<path fill-rule="evenodd" clip-rule="evenodd" d="M30 25V5.00002C30 2.25 27.75 0 25 0H5.00002C2.25 0 0 2.25 0 5.00002V25C0 27.75 2.25 30 5.00002 30.0001H25C27.75 30.0001 30 27.7501 30 25ZM15.0948 13.0944C14.8903 13.0938 14.8903 19.3124 14.8903 19.3124C14.8903 19.7962 15.1757 21.0824 15.4586 21.116C15.4586 21.116 15.253 13.0944 15.0948 13.0944ZM18.8514 13.1533C18.3037 10.7485 17.1083 8.6806 15.461 7.08396L15.4569 7.08036C15.2559 6.77066 15.0722 6.41534 14.9248 6.04081L14.9105 6C14.9111 6.012 14.9111 6.02641 14.9111 6.04081C14.9111 6.37993 14.7607 6.68303 14.5235 6.8865L14.5217 6.8877C12.397 8.7087 11.0452 11.3922 11.0006 14.395V14.4028C11 14.44 11 14.4838 11 14.5276C11 17.5028 12.4178 20.1437 14.6085 21.7991L14.6317 21.8159L14.6834 21.8537C14.7789 22.5675 14.8606 23.283 14.9284 24H15.2857C15.3843 23.1051 15.5175 22.3218 15.6917 21.5536L15.6643 21.697C15.8998 21.532 16.1054 21.3609 16.2975 21.1755L16.2957 21.1773C17.9608 19.6185 19 17.3978 19 14.9328C19 14.8962 19 14.8602 18.9994 14.8235V14.8289C18.9976 14.2401 18.9447 13.6646 18.8442 13.1058L18.8514 13.1533Z" fill="white"/>
</svg>
