<svg width="279" height="133" viewBox="0 0 279 133" fill="none" xmlns="http://www.w3.org/2000/svg">
<rect y="0.535156" width="61" height="61" rx="4" fill="#23113D"/>
<rect x="72" y="0.535156" width="61" height="61" rx="4" fill="#23113D"/>
<rect x="145" y="0.535156" width="61" height="61" rx="4" fill="#23113D"/>
<rect x="218" y="0.535156" width="61" height="61" rx="4" fill="#23113D"/>
<rect y="71.5352" width="61" height="61" rx="4" fill="#23113D"/>
<rect x="72" y="71.5352" width="61" height="61" rx="4" fill="#23113D"/>
<rect x="145" y="71.5352" width="61" height="61" rx="4" fill="#23113D"/>
<rect x="218" y="71.5352" width="61" height="61" rx="4" fill="#23113D"/>
<path d="M19.3729 46.2884L16.9648 19.1445H43.4264L41.0157 46.2841L30.1794 49.3031L19.3729 46.2884Z" fill="white"/>
<path d="M30.1953 46.9948L38.9516 44.5553L41.0117 21.3633H30.1953V46.9948Z" fill="white"/>
<path d="M30.1934 31.4315H25.8098L25.5071 28.0225H30.1934V24.6934H21.8867L21.966 25.5865L22.7802 34.7605H30.1934V31.4315ZM30.1934 40.0775L30.179 40.0814L26.4895 39.0802L26.2537 36.4251H22.9282L23.3923 41.6523L30.1782 43.5454L30.1934 43.5411V40.0775Z" fill="#111111"/>
<path d="M19.4258 11.7676H21.1093V13.4391H22.6492V11.7676H24.3328V16.8292H22.6493V15.1343H21.1093V16.8292H19.4259V11.7676H19.4258ZM26.5466 13.4461H25.0646V11.7676H29.713V13.4461H28.2303V16.8292H26.5468L26.5466 13.4461ZM30.4507 11.7676H32.206L33.2859 13.5461L34.3646 11.7676H36.1207V16.8292H34.4442V14.3204L33.2859 16.1201H33.257L32.0979 14.3204V16.8292H30.4508V11.7676H30.4507ZM36.9585 11.7676H38.6425V15.1561H41.01V16.8292H36.9585V11.7676Z" fill="white"/>
<path d="M30.1836 31.4315V34.7605H34.2628L33.8782 39.0781L30.1836 40.0803V43.5438L36.9748 41.6523L37.0246 41.0898L37.803 32.3255L37.8839 31.4315H36.9912H30.1836ZM30.1836 24.6934V28.0225H38.1853L38.2518 27.2742L38.4027 25.5865L38.4819 24.6934H30.1836Z" fill="#111111"/>
<g clip-path="url(#clip0_6_3918)">
<path d="M122.5 101.182C122.5 98.5663 119.182 96.0869 114.094 94.5494C115.268 89.4298 114.746 85.3566 112.447 84.0526C111.917 83.7467 111.297 83.6018 110.621 83.6018V85.3969C110.996 85.3969 111.297 85.4693 111.55 85.6062C112.659 86.2341 113.14 88.6248 112.765 91.6998C112.675 92.4565 112.529 93.2534 112.349 94.0665C110.751 93.6801 109.006 93.3822 107.172 93.189C106.071 91.6998 104.93 90.3475 103.78 89.1642C106.438 86.7251 108.933 85.3888 110.629 85.3888V83.5938C108.387 83.5938 105.451 85.1715 102.484 87.9084C99.5159 85.1876 96.5807 83.6259 94.3386 83.6259V85.421C96.0263 85.421 98.5294 86.7492 101.187 89.1722C100.046 90.3555 98.9044 91.6998 97.82 93.189C95.9774 93.3822 94.2326 93.6801 92.6345 94.0745C92.447 93.2695 92.3084 92.4887 92.2106 91.7401C91.8274 88.6651 92.3002 86.2743 93.4009 85.6384C93.6455 85.4935 93.9635 85.4291 94.3386 85.4291V83.634C93.6537 83.634 93.034 83.7789 92.4959 84.0848C90.2049 85.3888 89.6912 89.454 90.8734 94.5575C85.8021 96.103 82.5 98.5743 82.5 101.182C82.5 103.799 85.8184 106.278 90.906 107.815C89.732 112.935 90.2538 117.008 92.553 118.312C93.083 118.618 93.7026 118.763 94.3875 118.763C96.6296 118.763 99.5648 117.185 102.533 114.448C105.5 117.169 108.436 118.731 110.678 118.731C111.363 118.731 111.982 118.586 112.52 118.28C114.811 116.976 115.325 112.911 114.143 107.807C119.198 106.27 122.5 103.791 122.5 101.182ZM111.884 95.8132C111.583 96.8517 111.208 97.9223 110.784 98.9929C110.449 98.3489 110.099 97.7049 109.716 97.061C109.341 96.417 108.941 95.7891 108.542 95.1773C109.699 95.3464 110.816 95.5557 111.884 95.8132ZM108.15 104.386C107.514 105.473 106.862 106.503 106.185 107.461C104.97 107.566 103.739 107.622 102.5 107.622C101.269 107.622 100.038 107.566 98.831 107.469C98.1543 106.511 97.4939 105.489 96.8579 104.41C96.2383 103.356 95.6757 102.285 95.162 101.207C95.6676 100.128 96.2383 99.0492 96.8498 97.9947C97.4857 96.908 98.138 95.8776 98.8147 94.9197C100.03 94.8151 101.261 94.7587 102.5 94.7587C103.731 94.7587 104.962 94.8151 106.169 94.9117C106.846 95.8696 107.506 96.8919 108.142 97.9706C108.762 99.0251 109.324 100.096 109.838 101.174C109.324 102.253 108.762 103.332 108.15 104.386ZM110.784 103.34C111.224 104.418 111.599 105.497 111.909 106.544C110.841 106.801 109.716 107.018 108.55 107.188C108.949 106.568 109.349 105.932 109.724 105.28C110.099 104.636 110.449 103.984 110.784 103.34ZM102.516 111.929C101.758 111.156 101 110.295 100.25 109.353C100.983 109.385 101.734 109.409 102.492 109.409C103.258 109.409 104.017 109.393 104.758 109.353C104.025 110.295 103.266 111.156 102.516 111.929ZM96.4503 107.188C95.2925 107.018 94.1755 106.809 93.1074 106.552C93.4091 105.513 93.7841 104.443 94.2081 103.372C94.5424 104.016 94.893 104.66 95.2762 105.304C95.6594 105.948 96.0508 106.576 96.4503 107.188ZM102.476 90.436C103.234 91.2088 103.992 92.0701 104.742 93.0119C104.008 92.9797 103.258 92.9556 102.5 92.9556C101.734 92.9556 100.975 92.9717 100.233 93.0119C100.967 92.0701 101.725 91.2088 102.476 90.436ZM96.4421 95.1773C96.0426 95.7971 95.6431 96.4331 95.268 97.0851C94.893 97.7291 94.5424 98.3731 94.2081 99.017C93.7678 97.9384 93.3928 96.8597 93.083 95.8132C94.151 95.5637 95.2762 95.3464 96.4421 95.1773ZM89.0634 105.256C86.1771 104.04 84.31 102.446 84.31 101.182C84.31 99.9186 86.1771 98.3167 89.0634 97.1093C89.7646 96.8114 90.531 96.5458 91.3219 96.2962C91.7866 97.874 92.3981 99.5161 93.1563 101.199C92.4062 102.873 91.8029 104.507 91.3463 106.077C90.5391 105.827 89.7727 105.553 89.0634 105.256ZM93.4499 116.759C92.341 116.131 91.86 113.74 92.235 110.665C92.3247 109.908 92.4715 109.111 92.6508 108.298C94.2489 108.685 95.9937 108.983 97.8282 109.176C98.9289 110.665 100.07 112.017 101.22 113.201C98.562 115.64 96.0671 116.976 94.3712 116.976C94.0043 116.968 93.6945 116.896 93.4499 116.759ZM112.789 110.625C113.173 113.7 112.7 116.091 111.599 116.726C111.354 116.871 111.036 116.936 110.661 116.936C108.974 116.936 106.471 115.608 103.813 113.185C104.954 112.001 106.096 110.657 107.18 109.168C109.023 108.975 110.767 108.677 112.365 108.282C112.553 109.095 112.7 109.876 112.789 110.625ZM115.928 105.256C115.227 105.553 114.461 105.819 113.67 106.069C113.205 104.491 112.594 102.849 111.836 101.166C112.586 99.492 113.189 97.8579 113.646 96.2882C114.453 96.5377 115.219 96.8114 115.937 97.1093C118.823 98.3248 120.69 99.9186 120.69 101.182C120.682 102.446 118.815 104.048 115.928 105.256Z" fill="#DFDFDF"/>
<path d="M102.492 104.861C104.55 104.861 106.218 103.214 106.218 101.183C106.218 99.1509 104.55 97.5039 102.492 97.5039C100.434 97.5039 98.7656 99.1509 98.7656 101.183C98.7656 103.214 100.434 104.861 102.492 104.861Z" fill="#DFDFDF"/>
</g>
<g clip-path="url(#clip1_6_3918)">
<path d="M30.4386 81.5859L10.6328 88.1936L13.7627 112.793L30.4595 121.493L47.2427 112.675L50.3713 88.0766L30.4386 81.5859Z" fill="#B3B3B3"/>
<path d="M48.3941 89.4979L30.3906 83.6777V119.414L45.4783 111.498L48.3941 89.4979Z" fill="white"/>
<path d="M12.8555 89.6033L15.5375 111.604L30.3922 119.414V83.6777L12.8556 89.6032L12.8555 89.6033Z" fill="white"/>
<path d="M35.3497 102.703L30.3939 104.9H25.1706L22.7153 110.722L18.1484 110.802L30.3939 84.9766L35.3497 102.703ZM34.8706 101.597L30.4269 93.2569L26.7817 101.453H30.3937L34.8706 101.597Z" fill="#111111"/>
<path d="M30.3906 84.9746L30.4234 93.2551L34.5594 101.458H30.4L30.3906 104.893L36.1422 104.898L38.8303 110.801L43.2002 110.878L30.3906 84.9746Z" fill="#111111"/>
</g>
<g clip-path="url(#clip2_6_3918)">
<path d="M82.5 17.0023L85.6406 42.4038L102.5 50.4914L119.391 42.4184L122.5 16.9731C122.5 16.9731 111.969 10.5352 102.516 10.5352C93.0625 10.5352 82.5 17.0023 82.5 17.0023Z" fill="white"/>
<path d="M83.7969 17.7464L86.7344 41.0311L102.516 48.4471L118.313 41.0457L121.219 17.7318C121.219 17.7318 111.359 11.834 102.516 11.834C93.6719 11.834 83.7969 17.7464 83.7969 17.7464Z" fill="white"/>
<path d="M84.8281 18.4185L87.6094 40.258L102.516 47.2069L117.438 40.2726L120.172 18.4039C120.172 18.4039 110.859 12.8711 102.5 12.8711C94.1406 12.8711 84.8281 18.4185 84.8281 18.4185Z" fill="white"/>
<path d="M91.4844 39.8344V18.2577L97 18.2285L102.5 31.7906L108.453 18.3015L113.891 18.2577V39.8344H109.406L109.641 24.6811L102.5 39.8344L95.6094 24.7103L95.9687 39.8344H91.4844Z" fill="#111111"/>
<path opacity="0.1" d="M102.516 10.5352C93.0469 10.5352 82.5 17.0023 82.5 17.0023L85.6406 42.4038L102.5 50.4914V10.5352H102.516Z" fill="#B3B3B3"/>
</g>
<g clip-path="url(#clip3_6_3918)">
<path fill-rule="evenodd" clip-rule="evenodd" d="M195.201 19.4304C195.216 19.4829 195.223 19.5369 195.223 19.5912V28.0312C195.223 28.1395 195.193 28.2459 195.137 28.3397C195.081 28.4334 194.999 28.5112 194.902 28.5651L187.534 32.6435V40.7274C187.534 40.9474 187.413 41.1504 187.214 41.2612L171.836 49.7735C171.801 49.7927 171.762 49.8051 171.724 49.8181C171.71 49.8227 171.696 49.8312 171.681 49.8351C171.573 49.8623 171.46 49.8623 171.353 49.8351C171.335 49.8304 171.319 49.8212 171.302 49.8151C171.267 49.8027 171.23 49.792 171.197 49.7735L155.822 41.2612C155.724 41.2073 155.643 41.1295 155.586 41.0358C155.53 40.9421 155.5 40.8357 155.5 40.7274V15.4074C155.5 15.352 155.508 15.2981 155.522 15.2458C155.527 15.2281 155.538 15.212 155.545 15.1943C155.557 15.162 155.568 15.1289 155.586 15.0989C155.598 15.0789 155.615 15.0627 155.63 15.0443C155.648 15.0197 155.665 14.9943 155.686 14.9727C155.705 14.9551 155.729 14.942 155.75 14.9266C155.773 14.9081 155.794 14.8881 155.82 14.8735L163.509 10.6174C163.606 10.5635 163.716 10.5352 163.829 10.5352C163.941 10.5352 164.051 10.5635 164.149 10.6174L171.837 14.8735H171.838C171.864 14.8889 171.886 14.9081 171.909 14.9258C171.93 14.9412 171.953 14.9551 171.971 14.972C171.994 14.9943 172.01 15.0197 172.029 15.0443C172.042 15.0627 172.061 15.0789 172.072 15.0989C172.09 15.1297 172.101 15.162 172.114 15.1943C172.12 15.212 172.131 15.2281 172.136 15.2466C172.151 15.299 172.158 15.3531 172.158 15.4074V31.222L178.565 27.6751V19.5904C178.565 19.5366 178.573 19.482 178.587 19.4304C178.593 19.412 178.603 19.3958 178.61 19.3781C178.622 19.3458 178.634 19.3127 178.651 19.2827C178.663 19.2627 178.681 19.2466 178.694 19.2281C178.714 19.2035 178.73 19.1781 178.752 19.1566C178.77 19.1389 178.794 19.1258 178.814 19.1104C178.838 19.092 178.859 19.072 178.885 19.0574L186.574 14.8012C186.672 14.7473 186.782 14.7189 186.894 14.7189C187.007 14.7189 187.117 14.7473 187.214 14.8012L194.902 19.0574C194.93 19.0727 194.95 19.092 194.974 19.1097C194.994 19.1251 195.018 19.1389 195.036 19.1558C195.058 19.1781 195.074 19.2035 195.094 19.2281C195.108 19.2466 195.126 19.2627 195.137 19.2827C195.155 19.3127 195.166 19.3458 195.178 19.3781C195.186 19.3958 195.196 19.412 195.201 19.4304ZM193.942 27.6751V20.6566L191.251 22.1458L187.534 24.2035V31.222L193.942 27.6751H193.942ZM186.254 40.3712V33.3481L182.598 35.3558L172.158 41.0851V48.1743L186.254 40.3712ZM156.782 16.4727V40.3712L170.876 48.1735V41.0858L163.513 37.0789L163.51 37.0774L163.507 37.0758C163.482 37.062 163.462 37.042 163.438 37.0251C163.418 37.0097 163.395 36.9974 163.378 36.9804L163.376 36.9781C163.355 36.9589 163.341 36.9351 163.323 36.9135C163.307 36.8927 163.288 36.8751 163.275 36.8535L163.274 36.8512C163.26 36.8281 163.251 36.8004 163.241 36.7743C163.23 36.7512 163.217 36.7297 163.21 36.7051C163.202 36.6758 163.201 36.6443 163.198 36.6143C163.194 36.5912 163.188 36.5681 163.188 36.5451V36.5435V20.0197L159.472 17.9612L156.782 16.4727ZM163.83 11.862L157.424 15.4074L163.828 18.9527L170.233 15.4066L163.828 11.862H163.83ZM167.161 33.9881L170.877 31.9312V16.4727L168.186 17.962L164.47 20.0197V35.4781L167.161 33.9881ZM186.894 16.0458L180.49 19.5912L186.894 23.1366L193.298 19.5904L186.894 16.0458ZM186.254 24.2035L182.537 22.1458L179.846 20.6566V27.6751L183.562 29.732L186.254 31.222V24.2035ZM171.516 40.0197L180.91 34.8627L185.606 32.2858L179.206 28.7427L171.838 32.822L165.122 36.5397L171.516 40.0197Z" fill="white"/>
</g>
<g clip-path="url(#clip4_6_3918)">
<path d="M189.018 81.5352H198.031L175.498 121.499L152.965 81.5352H170.203L175.498 90.8021L180.681 81.5352H189.018Z" fill="white"/>
<path d="M152.965 81.5352L175.498 121.499L198.031 81.5352H189.018L175.498 105.513L161.865 81.5352H152.965Z" fill="white"/>
<path d="M161.867 81.5352L175.5 105.629L189.02 81.5352H180.682L175.5 90.8021L170.204 81.5352H161.867Z" fill="#B3B3B3"/>
</g>
<g clip-path="url(#clip5_6_3918)">
<path d="M228.5 10.5352H268.5V50.5352H228.5V10.5352Z" fill="white"/>
<path d="M265.225 40.9958C264.932 39.1707 263.742 37.6384 260.217 36.2088C258.993 35.646 257.628 35.243 257.221 34.3152C257.076 33.7753 257.057 33.4711 257.149 33.1441C257.411 32.0833 258.677 31.7525 259.681 32.0567C260.327 32.2734 260.939 32.7715 261.308 33.5662C263.035 32.4483 263.031 32.4559 264.236 31.6879C263.795 31.0035 263.559 30.6878 263.27 30.3951C262.232 29.2354 260.818 28.6384 258.555 28.6841C258.164 28.7335 257.768 28.7867 257.377 28.8362C256.247 29.1213 255.171 29.7145 254.54 30.5092C252.647 32.6575 253.187 36.4179 255.491 37.9654C257.761 39.6689 261.095 40.0567 261.521 41.6499C261.936 43.6004 260.088 44.2316 258.251 44.0073C256.898 43.7259 256.145 43.0377 255.331 41.7867C253.833 42.6537 253.833 42.6537 252.293 43.5396C252.658 44.3381 253.042 44.6993 253.654 45.3913C256.552 48.3305 263.803 48.186 265.103 43.7373C265.156 43.5852 265.506 42.5662 265.225 40.9958ZM250.244 28.9198H246.502C246.502 32.1517 246.487 35.3608 246.487 38.5928C246.487 40.6498 246.594 42.5357 246.259 43.1137C245.711 44.2505 244.293 44.1099 243.647 43.8893C242.989 43.5661 242.654 43.1061 242.267 42.4559C242.16 42.2696 242.08 42.1251 242.054 42.1137C241.038 42.7335 240.027 43.357 239.012 43.9768C239.517 45.0148 240.263 45.916 241.217 46.5015C242.643 47.357 244.559 47.6194 246.563 47.1593C247.867 46.7791 248.993 45.992 249.582 44.7943C250.434 43.224 250.251 41.3228 250.244 39.2202C250.263 35.7905 250.244 32.3608 250.244 28.9198Z" fill="#111111"/>
</g>
<g clip-path="url(#clip6_6_3918)">
<path d="M229.976 127.857C229.137 127.857 228.893 127.369 228.893 126.637C228.893 126.393 228.924 126.117 228.961 125.828C229.145 124.562 229.594 123.837 230.677 123.837C231.409 123.837 231.766 124.165 231.766 124.76V125.05H232.493C232.501 125.05 232.501 124.783 232.501 124.722C232.501 123.853 231.975 123.028 230.678 123.028C228.916 123.028 228.191 123.986 227.924 125.862C227.886 126.114 227.863 126.349 227.863 126.6C227.863 127.706 228.298 128.712 229.854 128.712C231.036 128.712 231.739 128.136 232.15 127.426L231.456 126.959C231.006 127.668 230.518 127.857 229.976 127.857ZM234.744 124.364C233.332 124.364 232.722 125.088 232.516 126.529C232.492 126.696 232.479 126.864 232.478 127.033C232.478 127.963 232.913 128.704 234.117 128.704C235.529 128.704 236.147 127.948 236.353 126.529C236.376 126.346 236.391 126.179 236.391 126.011C236.391 125.065 235.941 124.364 234.744 124.364ZM235.331 126.53C235.178 127.575 234.851 127.895 234.232 127.895C233.737 127.895 233.493 127.689 233.493 127.071C233.493 126.919 233.508 126.736 233.539 126.53C233.691 125.493 233.996 125.172 234.622 125.172C235.125 125.172 235.377 125.378 235.377 126.003C235.377 126.156 235.361 126.332 235.331 126.53ZM239.939 123.104L239.703 124.504C239.687 124.626 239.695 124.586 239.741 124.7C239.52 124.533 239.123 124.422 238.856 124.422C237.59 124.422 236.881 124.995 236.652 126.597C236.625 126.766 236.613 126.937 236.614 127.108C236.614 128.275 237.3 128.71 238.223 128.71C238.613 128.71 238.994 128.719 239.291 128.467L239.367 128.942H240.099L240.953 123.104H239.939ZM239.214 127.674C238.871 127.879 238.536 127.926 238.33 127.926C237.773 127.926 237.621 127.636 237.621 127.171C237.621 126.995 237.644 126.79 237.674 126.568C237.849 125.355 238.239 125.141 238.742 125.141C239.07 125.141 239.321 125.195 239.558 125.325L239.214 127.674ZM243.181 124.364C241.785 124.364 241.129 125.027 240.908 126.529C240.885 126.713 240.869 126.888 240.869 127.056C240.869 128.086 241.396 128.704 242.555 128.704C243.455 128.704 244.127 128.329 244.485 127.643L243.714 127.33C243.494 127.666 243.196 127.894 242.67 127.894C242.105 127.894 241.876 127.743 241.876 127.239C241.876 127.14 241.884 126.995 241.9 126.995H244.653C244.691 126.606 244.736 126.331 244.736 126.103C244.736 125.341 244.447 124.363 243.181 124.363V124.364ZM243.707 126.218H242.029C242.197 125.828 242.479 125.226 243.059 125.226C243.509 125.226 243.73 125.489 243.73 125.939C243.73 126.015 243.723 126.218 243.707 126.218ZM247.672 124.272L247.763 123.493H245.612L245.521 124.272H246.085L245.475 128.163H244.91L244.819 128.942H246.97L247.062 128.163H246.497L247.107 124.272H247.672ZM252.043 125.439L252.318 124.661H251.578L251.044 124.771C250.747 124.581 250.342 124.438 249.961 124.438C248.87 124.438 247.94 124.965 247.94 126.163C247.94 126.499 248.062 126.77 248.206 126.953C247.978 127.075 247.78 127.279 247.78 127.554C247.78 127.676 247.825 127.8 247.917 127.915C247.459 128.19 247.178 128.645 247.178 129.179C247.178 130.209 248.253 130.429 249.077 130.429C250.114 130.429 251.35 130.192 251.35 128.872C251.35 128.423 251.068 128.071 250.251 127.919L248.779 127.643C248.612 127.613 248.574 127.559 248.574 127.483C248.574 127.369 248.643 127.308 248.757 127.308L248.856 127.323C249.054 127.369 249.283 127.392 249.52 127.392C250.58 127.392 251.526 126.934 251.526 125.744C251.526 125.576 251.495 125.463 251.419 125.279C251.549 125.34 251.717 125.44 251.785 125.44H252.043V125.439ZM249.946 128.596C250.235 128.65 250.334 128.757 250.334 128.947C250.334 129.565 249.671 129.642 249.19 129.642C248.458 129.642 248.184 129.467 248.184 129.077C248.184 128.734 248.282 128.574 248.512 128.329L249.946 128.596ZM249.632 126.599C249.19 126.599 248.946 126.439 248.946 126.057C248.946 125.493 249.274 125.164 249.846 125.164C250.304 125.164 250.525 125.355 250.525 125.728C250.525 126.293 250.204 126.599 249.632 126.599ZM254.752 124.364C254.325 124.364 253.944 124.573 253.471 124.947L253.403 124.661H252.563L251.976 128.942H252.99L253.433 125.695C253.731 125.512 254.096 125.247 254.409 125.247C254.79 125.247 254.928 125.431 254.928 125.781C254.928 125.865 254.92 126.114 254.905 126.205L254.531 128.942H255.546L255.919 126.183C255.935 126.054 255.95 125.842 255.95 125.72C255.95 124.994 255.607 124.364 254.752 124.364ZM257.877 127.869L257.885 127.764L258.327 124.661H256.641L256.535 125.439H257.274C257.213 125.439 257.175 125.507 257.168 125.569L256.862 127.636C256.847 127.735 256.84 127.942 256.84 128.026C256.84 128.559 257.129 128.942 257.724 128.942H258.243L258.357 128.163H258.03C257.915 128.163 257.877 127.961 257.877 127.869ZM258.533 123.104H257.541C257.48 123.104 257.48 122.88 257.473 122.956L257.335 124.053C257.327 124.122 257.327 124.272 257.388 124.272H258.38C258.441 124.272 258.441 124.005 258.449 123.936L258.587 123.089C258.594 123.013 258.594 123.104 258.533 123.104ZM260.602 127.895C260.35 127.895 260.228 127.788 260.228 127.56L260.236 127.544L260.556 125.439H261.715L262.066 124.661H260.663L260.899 122.948L259.832 123.289L259.64 124.661H259.023L258.916 125.439H259.633C259.565 125.828 259.496 125.576 259.488 125.652L259.214 127.498C259.198 127.582 259.198 127.643 259.198 127.719C259.198 128.444 259.732 128.715 260.374 128.715C260.968 128.715 261.449 128.542 261.823 128.228L261.35 127.646C261.113 127.791 260.953 127.895 260.602 127.895ZM264.324 124.364C262.928 124.364 262.272 125.027 262.051 126.529C262.028 126.713 262.013 126.888 262.013 127.056C262.013 128.086 262.539 128.704 263.698 128.704C264.598 128.704 265.27 128.329 265.628 127.643L264.858 127.33C264.637 127.666 264.339 127.894 263.813 127.894C263.249 127.894 263.019 127.743 263.019 127.239C263.019 127.14 263.028 126.995 263.043 126.995H265.796C265.834 126.606 265.88 126.331 265.88 126.103C265.88 125.341 265.59 124.363 264.324 124.363V124.364ZM264.85 126.218H263.172C263.34 125.828 263.622 125.226 264.202 125.226C264.652 125.226 264.873 125.489 264.873 125.939C264.873 126.015 264.866 126.218 264.85 126.218ZM268.687 124.363C268.321 124.363 267.978 124.573 267.634 124.901L267.573 124.661H266.735L266.147 128.942H267.169L267.619 125.627C267.886 125.467 268.191 125.33 268.481 125.33C268.665 125.33 268.84 125.301 269.007 125.324L269.138 124.44C268.984 124.409 268.832 124.364 268.687 124.364V124.363ZM242.783 120.038C240.475 119.04 238.314 116.504 238.309 113.908C238.303 111.079 240.096 108.677 242.326 107.098C242.058 108.111 241.912 109.037 242.576 109.943C243.194 110.786 244.275 111.195 245.296 110.973C247.682 110.451 247.792 107.828 246.377 106.299C244.979 104.786 243.626 103.076 244.158 100.881C244.425 99.7812 245.1 98.7507 245.956 98.014C245.298 99.7427 247.167 101.448 248.399 102.297C250.535 103.77 252.88 104.883 254.844 106.611C256.91 108.426 258.436 110.88 258.128 113.726C257.794 116.812 255.342 118.957 252.593 120.041C258.404 118.758 264.408 114.248 264.531 107.803C264.633 102.501 260.996 98.4211 256.49 96.0851L256.255 95.9566C256.378 96.2566 256.419 96.5118 256.414 96.7403C256.454 96.5718 256.482 96.3987 256.49 96.22C256.488 96.4322 256.461 96.6435 256.407 96.8488L256.414 96.7403C256.347 97.0218 256.235 97.2904 256.081 97.5353L256.147 97.4642C255.248 98.9551 252.814 99.2788 251.612 97.7351C249.68 95.2518 251.653 92.5745 251.929 89.9448C252.274 86.6492 250.207 83.4497 247.645 81.5352C249.056 83.8183 247.197 86.8389 245.709 88.5276C244.267 90.1646 242.512 91.5313 240.92 93.0187C239.209 94.6161 237.565 96.2989 236.159 98.1738C233.347 101.927 231.625 106.646 232.89 111.328C234.154 116.007 238.207 118.985 242.784 120.038L242.783 120.038Z" fill="white"/>
</g>
<defs>
<clipPath id="clip0_6_3918">
<rect width="40" height="40" fill="white" transform="translate(82.5 81.5352)"/>
</clipPath>
<clipPath id="clip1_6_3918">
<rect width="40" height="40" fill="white" transform="translate(10.5 81.5352)"/>
</clipPath>
<clipPath id="clip2_6_3918">
<rect width="40" height="40" fill="white" transform="translate(82.5 10.5352)"/>
</clipPath>
<clipPath id="clip3_6_3918">
<rect width="40" height="40" fill="white" transform="translate(155.5 10.5352)"/>
</clipPath>
<clipPath id="clip4_6_3918">
<rect width="45.0704" height="40" fill="white" transform="translate(152.965 81.5352)"/>
</clipPath>
<clipPath id="clip5_6_3918">
<rect width="40" height="40" fill="white" transform="translate(228.5 10.5352)"/>
</clipPath>
<clipPath id="clip6_6_3918">
<rect width="41.2745" height="40" fill="white" transform="translate(227.863 81.5352)"/>
</clipPath>
</defs>
</svg>
