<svg width="23" height="27" viewBox="0 0 23 27" fill="none" xmlns="http://www.w3.org/2000/svg">
<g clip-path="url(#clip0_299_2394)">
<path d="M3.32988 10.2091H0.0546875V16.7222H3.32988L9.88026 21.6071H11.5179V5.32422H9.88026L3.32988 10.2091ZM13.8338 11.1629C13.514 10.845 12.9956 10.845 12.6758 11.1629C12.3561 11.4808 12.3561 11.9963 12.6758 12.3143C13.3153 12.9502 13.3153 13.9812 12.6758 14.617C12.3561 14.935 12.3561 15.4505 12.6758 15.7684C12.9956 16.0864 13.514 16.0864 13.8338 15.7684C15.1128 14.4966 15.1128 12.4347 13.8338 11.1629ZM16.1497 8.86018C15.83 8.54223 15.3115 8.54223 14.9917 8.86018C14.672 9.1781 14.672 9.69361 14.9917 10.0116C16.9103 11.9192 16.9103 15.0121 14.9917 16.9198C14.672 17.2377 14.672 17.7533 14.9917 18.0712C15.3115 18.3891 15.83 18.3891 16.1497 18.0712C18.7078 15.5276 18.7078 11.4037 16.1497 8.86018ZM18.4656 6.55742C18.1458 6.23947 17.6273 6.23947 17.3076 6.55742C16.9879 6.87534 16.9879 7.39085 17.3076 7.7088C20.5052 10.8882 20.5052 16.0431 17.3076 19.2225C16.9879 19.5405 16.9879 20.056 17.3076 20.3739C17.6273 20.6919 18.1458 20.6919 18.4656 20.3739C22.3027 16.5586 22.3027 10.3727 18.4656 6.55742Z" fill="white"/>
</g>
<defs>
<clipPath id="clip0_299_2394">
<rect width="22.9263" height="26.0526" fill="white" transform="translate(0.0546875 0.439453)"/>
</clipPath>
</defs>
</svg>
