<svg width="22" height="21" viewBox="0 0 22 21" fill="none" xmlns="http://www.w3.org/2000/svg">
<path fill-rule="evenodd" clip-rule="evenodd" d="M1.15289 1.10992C1.46613 0.796692 1.97398 0.796692 2.28721 1.10992L19.933 18.7558C20.2463 19.069 20.2463 19.5768 19.933 19.8901C19.6198 20.2033 19.112 20.2033 18.7987 19.8901L1.15289 2.24424C0.83966 1.93101 0.83966 1.42316 1.15289 1.10992Z" fill="white"/>
<path d="M10.3381 2.84422C10.13 2.74253 9.89424 2.69662 9.65837 2.71184C9.4225 2.72705 9.19629 2.80278 9.00619 2.93015L8.97178 2.95423L7.485 4.05674C7.4399 4.09016 7.40303 4.13177 7.37677 4.1789C7.35051 4.22602 7.33545 4.2776 7.33255 4.33032C7.32965 4.38303 7.33898 4.43572 7.35994 4.48497C7.38091 4.53422 7.41303 4.57894 7.45425 4.61626L10.2865 7.18153C10.3448 7.23442 10.4192 7.27044 10.5001 7.28504C10.5811 7.29964 10.665 7.29216 10.7412 7.26355C10.8175 7.23493 10.8826 7.18647 10.9285 7.1243C10.9743 7.06213 10.9987 6.98904 10.9986 6.91429V3.86929C11.001 3.66033 10.9408 3.4547 10.8245 3.27422C10.7082 3.09374 10.5402 2.94515 10.3381 2.84422Z" fill="white"/>
<path d="M10.7706 14.2836L3.17672 6.60785C3.02945 6.45886 2.82967 6.3751 2.62132 6.375H1.17856C0.86599 6.375 0.566217 6.50054 0.345194 6.724C0.12417 6.94747 0 7.25055 0 7.56658V13.1273C0 13.4433 0.12417 13.7464 0.345194 13.9698C0.566217 14.1933 0.86599 14.3188 1.17856 14.3188H4.60426L9.12209 18.0579C9.30342 18.194 9.51972 18.2743 9.74505 18.2891C9.97039 18.304 10.1952 18.2529 10.3925 18.1418C10.5789 18.0344 10.7335 17.8786 10.8403 17.6904C10.9471 17.5023 11.0022 17.2888 10.9999 17.0719V14.8446C11 14.6343 10.9175 14.4325 10.7706 14.2836Z" fill="white"/>
<path d="M15.582 10.337C15.582 9.1221 15.2495 7.96898 14.5662 6.81142C14.512 6.71812 14.437 6.635 14.3455 6.56686C14.254 6.49872 14.1478 6.4469 14.033 6.41438C13.9182 6.38186 13.7972 6.36929 13.6767 6.37738C13.5563 6.38548 13.4389 6.41409 13.3314 6.46155C13.2238 6.50902 13.1282 6.57441 13.05 6.65397C12.9717 6.73352 12.9125 6.82566 12.8757 6.92508C12.8388 7.0245 12.8251 7.12923 12.8353 7.23326C12.8455 7.33728 12.8794 7.43853 12.935 7.53118C13.4839 8.46021 13.7506 9.37834 13.7506 10.337C13.7506 10.469 13.7447 10.603 13.7328 10.7392C13.728 10.796 13.7373 10.853 13.7602 10.9063C13.7831 10.9597 13.8191 11.0082 13.8656 11.0484L14.6875 11.7588C14.7468 11.8102 14.8214 11.8465 14.9031 11.8637C14.9847 11.8809 15.0703 11.8784 15.1504 11.8564C15.2305 11.8344 15.302 11.7937 15.3571 11.7389C15.4123 11.6841 15.4489 11.6172 15.463 11.5456C15.5418 11.1463 15.5816 10.7421 15.582 10.337Z" fill="white"/>
<path d="M18.332 10.6329C18.332 8.19367 17.7691 6.63469 16.8609 4.91081C16.7677 4.73894 16.617 4.61466 16.4416 4.56489C16.2662 4.51511 16.0802 4.54384 15.9237 4.64486C15.7673 4.74588 15.6531 4.91105 15.6059 5.10462C15.5586 5.29819 15.5821 5.50458 15.6713 5.6791C16.4843 7.22235 16.9548 8.52777 16.9548 10.6329C16.9548 11.7687 16.8132 12.6766 16.5515 13.5236C16.5304 13.5911 16.527 13.6638 16.5414 13.7334C16.5559 13.803 16.5877 13.8667 16.6333 13.9172L17.17 14.5125C17.2105 14.5575 17.2606 14.5905 17.3157 14.6086C17.3707 14.6267 17.429 14.6292 17.4851 14.616C17.5413 14.6028 17.5936 14.5742 17.6372 14.5329C17.6809 14.4916 17.7145 14.4389 17.7351 14.3795C18.1168 13.2905 18.332 12.1228 18.332 10.6329Z" fill="white"/>
<path d="M22.0013 10.6432C22.0013 6.90893 20.8449 4.5522 19.1083 2.16328C18.9775 1.98321 18.7706 1.85614 18.5331 1.81002C18.2956 1.7639 18.047 1.80251 17.8419 1.91735C17.6369 2.0322 17.4921 2.21387 17.4396 2.42241C17.3871 2.63094 17.4311 2.84926 17.5618 3.02933C19.1272 5.18036 20.1685 7.2987 20.1685 10.6432C20.1685 12.9662 19.6856 14.6802 18.8838 16.2021C18.8445 16.2766 18.8322 16.36 18.8485 16.4409C18.8647 16.5218 18.9088 16.5964 18.9748 16.6547L19.6576 17.2542C19.7092 17.3003 19.7727 17.3347 19.8427 17.3547C19.9127 17.3746 19.9872 17.3795 20.0597 17.3688C20.1323 17.3582 20.2009 17.3323 20.2597 17.2935C20.3186 17.2546 20.3658 17.2039 20.3976 17.1456C21.5202 15.1142 22.0013 13.1075 22.0013 10.6432Z" fill="white"/>
</svg>
