<svg width="30" height="30" viewBox="0 0 30 30" fill="none" xmlns="http://www.w3.org/2000/svg">
<path fill-rule="evenodd" clip-rule="evenodd" d="M5.00001 0H24.9999C27.7499 0 29.9999 2.25 30 5.00001V25C30 27.75 27.75 30 25 30H5.00001C2.25 30 0 27.75 0 25V5.00001C0 2.25 2.25 0 5.00001 0ZM23.9449 23.7184L23.9469 23.7204L23.9447 23.7181C23.944 23.7168 23.9432 23.7156 23.9424 23.7143L23.9439 23.7173L23.9447 23.7181C23.9448 23.7182 23.9448 23.7183 23.9449 23.7184ZM22.895 23.2416C23.0405 23.3276 23.1855 23.423 23.3299 23.5278C23.4745 23.6328 23.6137 23.7344 23.7473 23.8327C23.8021 23.8877 23.8501 23.9488 23.8906 24.0153L23.8929 24.0191C23.9612 24.0986 24.0558 24.1528 24.1631 24.1666H24.1654V24.1299C24.0993 24.0787 24.0505 24.0077 24.0272 23.9259L24.0265 23.9229C24.0081 23.8466 23.9812 23.7799 23.9449 23.7184L23.5656 23.3506C23.3772 23.0977 23.1768 22.8738 22.9584 22.6698L22.9546 22.6668C22.7304 22.4594 22.4975 22.2623 22.2558 22.0754C22.0621 21.9399 21.7959 21.7766 21.4571 21.5856C21.1786 21.458 20.9609 21.2342 20.8431 20.9561L20.8401 20.9484L20.8041 20.9301C20.9632 20.914 21.1088 20.8842 21.2484 20.8422L21.2312 20.8468L21.659 20.7268C21.8362 20.6703 22.0411 20.6336 22.2535 20.6252H22.258C22.4817 20.6161 22.6926 20.5794 22.8938 20.519L22.875 20.5236C22.9721 20.4992 23.072 20.4714 23.1745 20.4403C23.2771 20.4093 23.3649 20.3815 23.438 20.357V20.2279C23.3654 20.1174 23.2776 19.9911 23.1745 19.8489C23.0762 19.7129 22.9659 19.5945 22.842 19.4914L22.8383 19.4883C22.5235 19.2051 22.1975 18.9311 21.8602 18.6662C21.5629 18.4301 21.2259 18.1894 20.8761 17.9663L20.8251 17.9358C20.6404 17.812 20.4287 17.6974 20.2058 17.6034L20.1803 17.5942C19.9561 17.5015 19.7352 17.3999 19.5175 17.2894C19.4447 17.2527 19.3598 17.2206 19.272 17.1985L19.2638 17.1969C19.1759 17.1786 19.1009 17.1328 19.0461 17.0678L19.0453 17.0671C18.9417 16.928 18.8509 16.7698 18.7789 16.6017L18.7729 16.5865C18.7003 16.4138 18.6217 16.248 18.5372 16.0891C18.3555 15.7315 18.1799 15.3681 18.0102 14.9988C17.8406 14.6295 17.6777 14.2597 17.5216 13.8894C17.413 13.6428 17.3131 13.3966 17.2221 13.1505C17.1215 12.8801 17.0081 12.6486 16.876 12.4308L16.8858 12.4484C16.5615 11.886 16.238 11.4062 15.8867 10.9501L15.9077 10.9791C15.5602 10.5329 15.1999 10.1341 14.8125 9.76428L14.8065 9.75893C14.4245 9.39372 14.0131 9.04531 13.5815 8.72288L13.5447 8.69614C13.0964 8.36454 12.6059 8.03804 12.0735 7.71663C11.8596 7.58827 11.6111 7.4836 11.3491 7.41636L11.3296 7.41178L10.4942 7.19937L10.022 7.1627C9.8649 7.15047 9.70752 7.14436 9.54989 7.14436C9.4388 7.08476 9.34347 7.01371 9.2594 6.93119C9.17683 6.85096 9.0875 6.77532 8.99443 6.70579L8.98692 6.70045C8.53279 6.43074 8.0051 6.18395 7.45339 5.98988L7.38958 5.97002C7.24471 5.88368 7.07057 5.83325 6.88516 5.83325C6.75305 5.83325 6.6262 5.85923 6.5106 5.90584L6.51735 5.90354C6.23212 6.01892 6.01443 6.25348 5.92061 6.54534L5.91835 6.55299C5.86356 6.6844 5.83203 6.83645 5.83203 6.9969C5.83203 7.27807 5.92961 7.53555 6.0925 7.7365L6.091 7.7342C6.36323 8.10349 6.5719 8.39383 6.71702 8.60522C6.82561 8.75344 6.93771 8.90753 7.0533 9.06747C7.15914 9.21111 7.25297 9.37538 7.32878 9.54882L7.33479 9.56486C7.37682 9.65578 7.4136 9.76428 7.44063 9.87583L7.44288 9.88805C7.4669 9.99298 7.49717 10.1071 7.5337 10.2303C7.6423 10.5136 7.74513 10.8039 7.84221 11.1014C7.94805 11.4261 8.06515 11.7011 8.20101 11.9632L8.18675 11.9326C8.25931 12.0681 8.33212 12.2006 8.40518 12.33C8.47824 12.4593 8.55681 12.5857 8.64088 12.7089C8.68967 12.7838 8.75122 12.8457 8.82178 12.8938L8.82403 12.8953C8.89835 12.9504 8.94714 13.0367 8.95089 13.1345C8.86532 13.2629 8.80752 13.4172 8.788 13.583L8.78725 13.5876C8.76098 13.7809 8.72345 13.9528 8.67241 14.1186L8.67841 14.0957C8.51102 14.6045 8.41494 15.1913 8.41494 15.8003C8.41494 15.991 8.42408 16.1788 8.44302 16.3645C8.48874 17.0946 8.70547 17.7652 9.05222 18.3461L9.04172 18.327C9.18959 18.5524 9.34797 18.7487 9.52287 18.9283C9.64897 19.0719 9.83213 19.1621 10.0363 19.1621C10.15 19.1621 10.2578 19.134 10.3522 19.0838C10.6134 18.9868 10.799 18.7431 10.8124 18.453V18.4515C10.8485 18.0893 10.9025 17.7654 10.9768 17.4491L10.9671 17.5003C10.9851 17.4521 10.9956 17.3971 10.9956 17.3391C10.9956 17.3276 10.9948 17.3161 10.9941 17.3047V17.3062C10.9881 17.2507 11.0214 17.1982 11.0939 17.1488V17.1855C11.1665 17.3582 11.2421 17.5306 11.3206 17.7027C11.3992 17.8749 11.4808 18.0473 11.5653 18.22C11.7868 18.5631 12.0217 18.8626 12.2799 19.1384L12.2777 19.1361C12.5366 19.4203 12.8189 19.6755 13.1236 19.9009L13.1401 19.9124C13.2993 20.0361 13.4389 20.1698 13.565 20.3158L13.568 20.3188C13.6866 20.461 13.8285 20.5779 13.9884 20.6657L13.9959 20.6695V20.6512H14.0319C14.0026 20.5847 13.9553 20.5312 13.8968 20.4946L13.8953 20.4938C13.836 20.4602 13.7849 20.4266 13.7369 20.3899L13.7406 20.3922C13.6321 20.2817 13.52 20.1584 13.4044 20.0224C13.2888 19.8864 13.1829 19.757 13.0868 19.6343C12.8326 19.2767 12.5902 18.9031 12.3595 18.5134C12.1288 18.1237 11.9109 17.7277 11.7057 17.3253C11.6086 17.1282 11.5148 16.9249 11.4242 16.7156C11.3336 16.5062 11.2458 16.303 11.1607 16.1059C11.124 16.0302 11.0984 15.9431 11.0887 15.8507V15.8469C11.0842 15.759 11.0346 15.6834 10.9626 15.6444L10.9611 15.6436C10.8702 15.801 10.7697 15.937 10.6548 16.06L10.6556 16.0593C10.5362 16.1869 10.4386 16.3374 10.3688 16.5024L10.3651 16.5124C10.2592 16.7737 10.1819 17.077 10.1481 17.3941L10.1466 17.4086C10.1106 17.7351 10.0743 18.0708 10.0378 18.4156L10.0018 18.4339L9.98375 18.4523C9.78859 18.4118 9.62796 18.2849 9.54088 18.1138L9.53938 18.11C9.44831 17.9312 9.36674 17.7555 9.29468 17.5828C9.10852 17.0961 8.99292 16.533 8.97716 15.9447V15.9378C8.97041 15.8446 8.9674 15.7353 8.9674 15.6261C8.9674 15.1172 9.04622 14.6267 9.19184 14.1667L9.18453 14.194C9.22129 14.0578 9.29929 13.8317 9.41853 13.5158C9.53963 13.1949 9.5639 12.973 9.49134 12.8503C9.45381 12.7242 9.384 12.618 9.29243 12.537L9.29167 12.5362C9.2001 12.4553 9.11678 12.3704 9.04021 12.2803L9.03796 12.2772C8.95339 12.1529 8.87182 12.0205 8.79326 11.8799C8.71469 11.7393 8.64513 11.6008 8.58458 11.4643C8.46073 11.1724 8.33387 10.8064 8.22879 10.4305L8.21227 10.3625C8.09292 9.93084 7.96006 9.56563 7.80243 9.21416L7.82195 9.26306C7.73907 9.07155 7.64283 8.90574 7.531 8.75436C7.40999 8.58966 7.3018 8.43374 7.20643 8.28661C7.08433 8.12667 6.96323 7.97259 6.84313 7.82436C6.72077 7.67384 6.61193 7.50423 6.52336 7.32238L6.5166 7.3071C6.48057 7.23299 6.44905 7.14665 6.42728 7.05726L6.42578 7.04885C6.41752 7.02211 6.41302 6.99078 6.41302 6.95946C6.41302 6.89724 6.43078 6.83879 6.46191 6.79009C6.46187 6.79026 6.46184 6.79043 6.46181 6.7906L6.46256 6.78908C6.46234 6.78941 6.46212 6.78975 6.46191 6.79009C6.47022 6.74752 6.48969 6.71026 6.5166 6.67982C6.54588 6.65308 6.58341 6.63321 6.62394 6.62481H6.62544C6.68925 6.58278 6.76656 6.55757 6.85063 6.55757C6.91346 6.55757 6.97405 6.57198 7.0272 6.59778C7.02665 6.59762 7.02609 6.59746 7.02553 6.5973L7.02778 6.59806C7.02759 6.59797 7.0274 6.59788 7.0272 6.59778C7.19082 6.64499 7.32322 6.69223 7.45264 6.74629L7.42561 6.73636C7.65531 6.83517 7.86723 6.93068 8.0614 7.02287C8.28171 7.12974 8.46999 7.24253 8.64775 7.36782C8.64596 7.36668 8.64417 7.36554 8.64238 7.3644L8.65589 7.37357C8.65318 7.37165 8.65046 7.36973 8.64775 7.36782C8.74303 7.42854 8.83807 7.49514 8.93287 7.56764C9.02946 7.6415 9.13229 7.71561 9.24138 7.78998H9.49585C9.68951 7.78998 9.89518 7.7994 10.1129 7.81825C10.3328 7.83582 10.5362 7.87784 10.7299 7.94355L10.7119 7.9382C11.0729 8.04746 11.3829 8.17659 11.6772 8.33169L11.6464 8.31717C11.9431 8.471 12.2246 8.63425 12.4909 8.80693C12.933 9.08733 13.315 9.37461 13.6746 9.68864L13.6618 9.67794C14.0371 10.005 14.3779 10.3404 14.6977 10.6949L14.7052 10.7041C15.0175 11.0509 15.3155 11.4276 15.5879 11.8226L15.6112 11.8585C15.8619 12.2192 16.1149 12.6363 16.3423 13.0688L16.3738 13.1337C16.4346 13.2514 16.4962 13.3958 16.5495 13.5433L16.5578 13.5685C16.6063 13.7101 16.6606 13.8552 16.7206 14.004C16.8538 14.3121 16.9964 14.6231 17.1485 14.9369C17.3006 15.2507 17.4432 15.5558 17.5764 15.8522L17.9757 16.7393C18.1161 17.0495 18.2729 17.3169 18.4553 17.5637L18.4471 17.5522C18.5995 17.718 18.8029 17.8342 19.0311 17.8746L19.0371 17.8754C19.3133 17.9457 19.546 18.0252 19.7712 18.1191L19.7359 18.1062C19.8432 18.1558 19.9814 18.2085 20.1232 18.2551L20.1533 18.2635C20.3124 18.3132 20.4505 18.3789 20.5774 18.4614L20.5706 18.4576C20.8161 18.5974 21.024 18.735 21.2222 18.8847L21.2064 18.8733C21.4121 19.0271 21.6177 19.1723 21.8234 19.3088C21.9205 19.3826 22.0834 19.4904 22.3121 19.632C22.5408 19.7736 22.6619 19.906 22.6754 20.0293C22.5898 20.0262 22.4885 20.0239 22.3871 20.0239C22.0178 20.0239 21.6545 20.0484 21.2987 20.0957L21.3408 20.0912C20.9384 20.1462 20.5736 20.2463 20.2306 20.3891L20.2606 20.3784C20.1758 20.4159 20.0744 20.4503 19.9694 20.477L19.9551 20.4801C19.8485 20.4961 19.7659 20.5832 19.7554 20.6917C19.8012 20.7498 19.838 20.8178 19.8628 20.8911L19.8643 20.8957C19.8898 20.9736 19.9206 21.0409 19.9581 21.1035L19.9558 21.0989C20.0452 21.2601 20.1412 21.3992 20.2493 21.5276L20.2463 21.5237C20.3522 21.6567 20.4715 21.7721 20.6036 21.8706L20.6089 21.8744C20.731 21.9733 20.8581 22.0749 20.9902 22.1793C21.1111 22.2756 21.2477 22.3703 21.3895 22.4559L21.4076 22.4658C21.6207 22.5988 21.8684 22.7256 22.1267 22.8318L22.1612 22.844C22.4371 22.9567 22.6746 23.087 22.895 23.2416ZM22.895 23.2416C22.8949 23.2415 22.8947 23.2414 22.8946 23.2413L22.9066 23.2497C22.9027 23.247 22.8989 23.2443 22.895 23.2416ZM9.73079 9.05601C9.81536 9.04989 9.90619 9.04684 10.0033 9.04684C10.0558 9.09803 10.1159 9.14158 10.1864 9.17596L10.1887 9.17673C10.254 9.20882 10.3095 9.25924 10.3493 9.32342L10.4101 9.46248L10.4109 9.46477C10.4304 9.50909 10.4582 9.54882 10.4919 9.58244V9.58014C10.4927 9.5939 10.4927 9.60765 10.4927 9.6214C10.4927 9.74976 10.4702 9.87354 10.4311 9.97974L10.4296 9.98356C10.3906 10.0821 10.3253 10.1662 10.2405 10.2288L10.2044 10.2472L9.91395 9.63745C9.8544 9.55085 9.78784 9.46146 9.71428 9.36927C9.64072 9.27707 9.57967 9.19405 9.53113 9.12019H9.4951V9.10186C9.56892 9.07722 9.64703 9.06194 9.73079 9.05601ZM9.4951 9.10186V9.10185L9.49331 9.10245C9.49391 9.10225 9.4945 9.10206 9.4951 9.10186Z" fill="white"/>
</svg>
