<svg width="108" height="42" viewBox="0 0 108 42" fill="none" xmlns="http://www.w3.org/2000/svg">
<mask id="mask0_299_2276" style="mask-type:luminance" maskUnits="userSpaceOnUse" x="0" y="0" width="108" height="43">
<path d="M107.734 0H0.00390625V42.0081H107.734V0Z" fill="white"/>
</mask>
<g mask="url(#mask0_299_2276)">
<path d="M18.0321 5.58203C8.07778 5.58203 0.00390625 13.7382 0.00390625 23.7941C0.00390625 33.8499 8.07778 42.0056 18.0321 42.0056C27.9864 42.0056 36.0597 33.8505 36.0597 23.7946C36.0597 13.7388 27.9864 5.58257 18.0321 5.58257V5.58203ZM17.9647 11.2956C24.8013 11.2956 30.3365 16.8877 30.3365 23.7941C30.3365 30.7004 24.8013 36.292 17.9647 36.292C11.1282 36.292 5.57571 30.7004 5.57571 23.7941C5.57571 16.8877 11.1282 11.2956 17.9647 11.2956Z" fill="#FEB511"/>
<path d="M41.4165 9.50948V25.3746H44.5477V14.3725L50.102 25.3746H53.4857V9.50948H50.3553V19.4059L45.2208 9.51006H42.0896L41.4165 9.50948ZM60.6399 13.4377C59.8524 13.4365 59.0728 13.5923 58.345 13.8962C57.6176 14.2 56.9565 14.6458 56.3997 15.2082C55.843 15.7705 55.4018 16.4383 55.1008 17.1733C54.8002 17.9083 54.6456 18.696 54.6468 19.4913C54.6468 22.8406 57.3241 25.5618 60.6399 25.5618C63.9557 25.5618 66.6489 22.8406 66.6489 19.4908C66.6489 16.1416 63.9552 13.4377 60.6399 13.4377ZM60.6559 16.3793C62.3529 16.3793 63.7201 17.7778 63.7201 19.4908C63.7201 21.2048 62.3524 22.5859 60.6567 22.5859C58.961 22.5859 57.5761 21.2043 57.5761 19.4908C57.5778 18.6661 57.903 17.8756 58.4803 17.2926C59.0576 16.7094 59.8397 16.3811 60.6559 16.3793ZM67.4614 13.6945V25.3746H70.8623V20.6335C70.8623 18.9526 71.2254 17.9585 71.8294 17.238C72.4557 16.4909 73.0063 16.0523 74.688 16.03L75.9635 16.0474L75.9808 21.3893C75.9832 22.2066 76.0239 22.8961 76.2053 23.4832C76.6226 24.8327 77.6383 25.5722 79.6021 25.5722C80.4993 25.5722 81.3743 25.4508 82.2037 25.1423L81.7962 22.772C81.4064 22.9227 80.9421 23.0179 80.5885 23.0212C79.5906 23.0305 79.3607 22.5897 79.364 21.5357V16.0474H81.8126L81.8213 13.694H79.364L79.3558 10.3872L76.6099 10.379L76.0227 13.694H74.4244C73.9137 13.694 73.5211 13.6984 73.1345 13.7974C71.4968 14.2142 70.8245 15.4309 70.4117 16.1933L69.4511 13.694L67.4614 13.6945ZM88.2028 13.4377C87.4154 13.4366 86.6358 13.5925 85.9084 13.8963C85.1806 14.2001 84.5199 14.646 83.9631 15.2084C83.4064 15.7707 82.9652 16.4385 82.6642 17.1734C82.3636 17.9084 82.209 18.696 82.2102 19.4913C82.2102 22.8406 84.8875 25.5618 88.2028 25.5618C91.5182 25.5618 94.2119 22.8406 94.2119 19.4908C94.2119 16.1416 91.5186 13.4377 88.2028 13.4377ZM88.2193 16.3793C89.9158 16.3793 91.2834 17.7778 91.2834 19.4908C91.2834 21.2048 89.9158 22.5859 88.2193 22.5859C86.5232 22.5859 85.1387 21.2043 85.1387 19.4908C85.1407 18.666 85.466 17.8755 86.0433 17.2924C86.621 16.7092 87.4031 16.3809 88.2193 16.3793ZM101.678 13.4377C100.123 13.4458 98.8447 14.2022 97.6552 15.4946L96.9985 13.6923H95.0125V25.3746H98.3283V17.3485C98.6675 16.9605 99.4344 16.2422 100.415 16.2433C101.662 16.2444 102.114 17.0541 102.116 17.9607L102.133 25.3746H105.516V17.8584C105.519 14.9352 103.836 13.4252 101.678 13.4377ZM105.824 15.0484V13.9318H105.501V13.7H106.404V13.9318H106.073V15.0484H105.824ZM106.575 15.0484V13.7H106.934L107.173 14.5929L107.398 13.7005H107.738V15.0484H107.549V13.9987L107.254 15.0484H107.075L106.806 13.9797V15.0484H106.575ZM36.2319 1.43218V2.82683H37.6125V1.43164L36.2319 1.43218ZM36.2319 2.82683H33.6733V4.22094H36.2319V2.82683ZM33.6733 4.22094H32.394V6.94167H33.6733V4.22094ZM33.6733 6.94167V8.26831H34.9865V6.94167H33.6733ZM34.9865 6.94167H36.4339V5.63246H34.986L34.9865 6.94167ZM33.6733 8.26831H32.394V9.62867H31.0641V8.26831H28.8927V9.23688H27.7142V10.4275H29.0107V11.7541H27.6975L27.7142 10.4275H26.3002V12.5192H24.9875V13.8284H24.0955V15.155H23.1529C21.1254 18.5135 19.4986 21.6162 18.5571 23.912C15.9732 20.4365 14.7612 19.185 12.5823 17.9607C11.8035 17.5232 11.1097 17.3197 10.6125 17.6037C10.0959 17.8986 9.94457 18.8302 10.5963 19.5588C14.6416 24.085 15.3693 26.4999 16.8409 29.9487C17.2794 30.9772 18.1068 31.4185 19.0462 31.4451C19.5482 31.4593 20.1644 31.3059 20.5776 30.8161C20.7693 30.5892 20.8254 30.2785 20.9816 29.8976C22.2113 26.9026 23.5757 23.8995 25.544 21.0389L25.5601 19.5425H26.604L26.5873 18.2158H27.7147L27.6986 16.634H29.0112V15.1888H27.6813L27.698 13.8284H29.0112V15.1888H30.3239V13.8115H31.3512V12.1959H32.5459V11.0908H33.6733V8.26831ZM31.0641 8.26831H32.394V6.94167H31.0641V8.26831ZM31.0641 6.94167V5.66619H29.7347V6.94167H31.0641Z" fill="black"/>
<path d="M33.668 4.22758H34.9785V5.62439H33.668V4.22758ZM37.6001 2.83075H39.0184V4.22758H37.6001V2.83075ZM37.6001 0.00390625H39.0184V1.43393H37.6001V0.00390625Z" fill="#FEB511"/>
<path d="M42.1602 37.937H41.5352V29.2317H42.5878V32.4498C43.0039 31.9231 43.5874 31.5602 44.2329 31.5803C45.9817 31.6347 46.6281 33.2095 46.6474 34.7309C46.6713 36.5549 45.6787 38.0409 44.0755 38.0578C43.3892 38.0649 42.7913 37.7564 42.4003 37.1774L42.1602 37.937ZM42.5944 36.5603C43.0241 36.9603 43.1071 37.1768 43.9394 37.1845C45.1898 37.1959 45.5109 35.7936 45.5084 34.8196C45.5052 33.5914 45.1704 32.5396 44.0853 32.5081C43.4015 32.4879 42.9352 32.8291 42.6075 33.2024L42.5944 36.5603ZM47.5574 40.1103L47.6947 39.3077C48.5779 39.4851 49.2157 39.2925 49.5631 38.3086L47.3748 31.706H48.4702L50.0163 36.9689L51.4764 31.706H52.5467L50.4209 38.5459C49.9299 40.125 48.7827 40.4042 47.5574 40.1103ZM55.7692 37.0196L56.3045 36.2725C57.1199 36.8623 57.7342 37.1017 58.7371 37.1061C59.8218 37.1115 60.5147 36.5413 60.5085 35.6592C60.492 33.1817 56.2844 34.5709 56.2124 31.2685C56.1808 29.8211 57.4567 29.1082 58.6873 29.1017C59.6166 29.0968 60.4883 29.2388 61.0813 29.6622L60.6179 30.5034C60.3395 30.2243 59.337 30.0376 58.7926 30.0333C57.8444 30.0262 57.2457 30.4055 57.2182 31.2102C57.1384 33.5784 61.5726 32.2752 61.5648 35.6342C61.5624 37.2002 60.4049 38.0148 58.7338 38.0295C57.1906 38.0431 56.0426 37.3385 55.7692 37.0196ZM68.5389 37.9288V31.7158H69.1882L69.4407 32.729C69.9514 32.0423 70.8358 31.5841 71.5801 31.5863C72.4596 31.589 72.8338 32.2153 72.9468 32.6746C73.5015 32.0216 74.2458 31.5863 74.9995 31.5803C76.2976 31.5694 76.5957 32.526 76.5957 33.5991V37.9288L75.5426 37.9327V33.9424C75.5426 33.0685 75.4386 32.5015 74.6973 32.5167C73.8757 32.5347 73.4386 33.0805 73.1389 33.3504V37.9327H72.0459V33.8243C72.0459 32.9907 71.9119 32.5081 71.2112 32.5233C70.5056 32.5385 70.2992 32.8253 69.615 33.3733V37.9332L68.5389 37.9288ZM81.8157 37.1883C81.2709 37.7645 80.5706 38.0409 79.9148 38.035C78.8691 38.0246 78.0221 37.382 78.0262 36.3372C78.0303 35.0623 78.9008 34.7091 79.6471 34.4588C80.3827 34.2118 80.9699 34.1264 81.6372 34.0088C81.666 32.9004 81.4337 32.4906 80.5365 32.4847C79.7273 32.4792 79.0336 32.8509 78.7347 33.007L78.3531 32.2964C78.6483 32.064 79.3913 31.5928 80.6076 31.5819C81.9411 31.571 82.7363 32.3274 82.7367 33.7422L82.7384 37.9327H82.09L81.8157 37.1883ZM81.6459 34.7325C80.9835 34.8631 80.62 34.9736 80.0998 35.1406C79.4325 35.3545 79.1101 35.6946 79.1179 36.3132C79.1261 36.9619 79.5488 37.2116 80.076 37.1991C80.7059 37.1845 81.1122 36.976 81.6418 36.5728L81.6459 34.7325ZM93.8716 37.0909L94.0324 37.8298C93.6628 38.0355 93.1101 38.0213 92.8889 38.0224C91.5896 38.0262 91.3947 37.1752 91.3947 36.205V32.4798H90.4765V31.706H91.3947L91.7092 29.9348L92.4617 29.932V31.706H93.8457V32.4798H92.4617V36.2616C92.4617 37.1845 92.8424 37.1883 93.2006 37.203C93.5452 37.2177 93.8716 37.0909 93.8716 37.0909ZM99.2183 36.5679L99.6657 37.2128C99.1973 37.5838 98.6722 38.0371 97.5431 38.0409C95.6624 38.0464 94.8231 36.5924 94.8305 34.8637C94.8388 33.1409 95.6262 31.5917 97.3601 31.5825C99.5156 31.57 99.8194 33.6731 99.8186 35.139H95.9707C95.9724 36.3165 96.4465 37.1703 97.4165 37.1796C98.4185 37.1888 99.2183 36.5679 99.2183 36.5679ZM95.9703 34.3941H98.7055C98.6517 33.4184 98.4025 32.3916 97.3696 32.4047C96.2627 32.4183 96.0448 33.4494 95.9703 34.3941ZM105.423 37.2122C104.983 37.6432 104.283 38.017 103.379 38.0235C101.649 38.0366 100.797 36.6882 100.797 34.825C100.796 32.9695 101.722 31.5835 103.521 31.5803C104.319 31.5786 104.893 31.9003 105.305 32.2387L104.839 32.9532C104.58 32.7442 104.009 32.4536 103.509 32.4607C102.284 32.4781 101.903 33.3896 101.906 34.7962C101.908 35.9678 102.165 37.1518 103.504 37.1643C103.902 37.1681 104.383 37.0256 104.9 36.5723L105.423 37.2122ZM62.3847 40.1103L62.5216 39.3077C63.4049 39.4851 64.0434 39.2925 64.3909 38.3086L62.2017 31.706H63.298L64.8436 36.9689L66.3041 31.706H67.3745L65.2482 38.5459C64.7577 40.125 63.6096 40.4042 62.3847 40.1103ZM84.5303 37.9288V31.7158H85.1796L85.4317 32.729C85.9428 32.0423 86.8996 31.5792 87.7639 31.5863C88.8844 31.5955 89.3227 32.5929 89.3227 33.6421V37.9327H88.2298V33.8243C88.2298 32.9907 88.0953 32.5081 87.3951 32.5233C86.6895 32.5385 86.2906 32.8253 85.606 33.3733V37.9332L84.5303 37.9288Z" fill="#999999"/>
</g>
</svg>
