<svg width="262" height="102" viewBox="0 0 262 102" fill="none" xmlns="http://www.w3.org/2000/svg">
<g clip-path="url(#clip0_1087_333)">
<path d="M43.8444 13.5518C19.6356 13.5518 0 33.3559 0 57.7725C0 82.189 19.6356 101.992 43.8444 101.992C68.0532 101.992 87.6875 82.1904 87.6875 57.7738C87.6875 33.3572 68.0532 13.5531 43.8444 13.5531V13.5518ZM43.6806 27.4248C60.3072 27.4248 73.7687 41.0032 73.7687 57.7725C73.7687 74.5417 60.3072 88.1188 43.6806 88.1188C27.0541 88.1188 13.5506 74.5417 13.5506 57.7725C13.5506 41.0032 27.0541 27.4248 43.6806 27.4248Z" fill="#FEB511"/>
<path d="M100.707 23.0894V61.6116H108.322V34.8974L121.83 61.6116H130.059V23.0894H122.446V47.1189L109.959 23.0908H102.344L100.707 23.0894ZM147.458 32.6275C145.543 32.6247 143.647 33.003 141.877 33.7407C140.108 34.4784 138.5 35.561 137.146 36.9264C135.792 38.2919 134.719 39.9133 133.987 41.6979C133.256 43.4825 132.88 45.3952 132.883 47.3263C132.883 55.4586 139.394 62.0661 147.458 62.0661C155.522 62.0661 162.072 55.4586 162.072 47.325C162.072 39.1928 155.521 32.6275 147.458 32.6275ZM147.497 39.7701C151.624 39.7701 154.949 43.1657 154.949 47.325C154.949 51.4869 151.623 54.8402 147.499 54.8402C143.375 54.8402 140.007 51.4856 140.007 47.325C140.011 45.3225 140.802 43.4033 142.206 41.9875C143.61 40.5716 145.512 39.7743 147.497 39.7701ZM164.048 33.2511V61.6116H172.319V50.0996C172.319 46.0183 173.202 43.6044 174.671 41.8551C176.194 40.041 177.533 38.9761 181.623 38.9219L184.725 38.9642L184.767 51.9348C184.773 53.9193 184.872 55.5934 185.313 57.019C186.328 60.2957 188.798 62.0912 193.574 62.0912C195.756 62.0912 197.884 61.7966 199.901 61.0474L198.91 55.2921C197.962 55.6581 196.833 55.8893 195.973 55.8972C193.546 55.9197 192.987 54.8495 192.995 52.2902V38.9642H198.95L198.971 33.2498H192.995L192.975 25.2206L186.297 25.2008L184.869 33.2498H180.982C179.74 33.2498 178.785 33.2604 177.845 33.5008C173.862 34.5129 172.227 37.4672 171.223 39.3183L168.887 33.2498L164.048 33.2511ZM214.491 32.6275C212.576 32.6249 210.68 33.0033 208.911 33.7411C207.141 34.4788 205.534 35.5614 204.18 36.9269C202.826 38.2923 201.753 39.9137 201.021 41.6982C200.29 43.4828 199.914 45.3953 199.917 47.3263C199.917 55.4586 206.428 62.0661 214.491 62.0661C222.554 62.0661 229.105 55.4586 229.105 47.325C229.105 39.1928 222.555 32.6275 214.491 32.6275ZM214.531 39.7701C218.657 39.7701 221.983 43.1657 221.983 47.325C221.983 51.4869 218.657 54.8402 214.531 54.8402C210.406 54.8402 207.039 51.4856 207.039 47.325C207.044 45.3223 207.835 43.4029 209.239 41.987C210.644 40.5711 212.546 39.774 214.531 39.7701ZM247.263 32.6275C243.48 32.6473 240.372 34.4838 237.479 37.6218L235.882 33.2458H231.052V61.6116H239.116V42.1233C239.941 41.1812 241.806 39.4372 244.192 39.4398C247.224 39.4425 248.324 41.4085 248.327 43.6097L248.369 61.6116H256.597V43.3613C256.603 36.2636 252.51 32.5971 247.263 32.6275ZM257.345 36.5384V33.8272H256.559V33.2643H258.756V33.8272H257.95V36.5384H257.345ZM259.171 36.5384V33.2643H260.045L260.626 35.4325L261.174 33.2657H262V36.5384H261.541V33.9897L260.824 36.5384H260.388L259.733 33.9435V36.5384H259.171ZM88.098 3.47691V6.86325H91.4555V3.47559L88.098 3.47691ZM88.098 6.86325H81.8755V10.2483H88.098V6.86325ZM81.8755 10.2483H78.7642V16.8545H81.8755V10.2483ZM81.8755 16.8545V20.0757H85.0693V16.8545H81.8755ZM85.0693 16.8545H88.5892V13.6756H85.068L85.0693 16.8545ZM81.8755 20.0757H78.7642V23.3788H75.5299V20.0757H70.2492V22.4275H67.383V25.3184H70.5361V28.5396H67.3424L67.383 25.3184H63.9442V30.3972H60.7517V33.5762H58.5824V36.7973H56.2899C51.359 44.9521 47.4028 52.4858 45.113 58.0601C38.8289 49.6213 35.8814 46.5825 30.5824 43.6097C28.6882 42.5474 27.0009 42.0533 25.7918 42.7429C24.5355 43.4591 24.1674 45.721 25.7525 47.4902C35.5906 58.4803 37.3604 64.3439 40.9393 72.718C42.0056 75.2151 44.0178 76.2867 46.3024 76.3514C47.5234 76.3858 49.022 76.0132 50.0268 74.8241C50.4931 74.2731 50.6294 73.5187 51.0093 72.5938C54 65.3217 57.3182 58.0297 62.105 51.084L62.1443 47.4505H64.6831L64.6424 44.2293H67.3843L67.345 40.3885H70.5374V36.8793H67.3031L67.3437 33.5762H70.5374V36.8793H73.7299V33.5352H76.2281V29.6124H79.1337V26.929H81.8755V20.0757ZM75.5299 20.0757H78.7642V16.8545H75.5299V20.0757ZM75.5299 16.8545V13.7575H72.2968V16.8545H75.5299Z" fill="black"/>
<path d="M81.875 10.2643H85.0622V13.6559H81.875V10.2643ZM91.438 6.87265H94.8872V10.2643H91.438V6.87265ZM91.438 0.00878906H94.8872V3.48102H91.438V0.00878906Z" fill="#FEB511"/>
<path d="M102.518 92.1154H100.998V70.9782H103.558V78.792C104.57 77.5131 105.989 76.6318 107.559 76.6807C111.812 76.8128 113.384 80.6365 113.431 84.3307C113.489 88.7595 111.075 92.3678 107.176 92.4088C105.507 92.4259 104.053 91.6768 103.102 90.271L102.518 92.1154ZM103.574 88.7727C104.619 89.7438 104.821 90.2697 106.845 90.2882C109.886 90.3159 110.667 86.9111 110.661 84.546C110.653 81.564 109.839 79.01 107.2 78.9334C105.537 78.8845 104.403 79.7129 103.606 80.6193L103.574 88.7727ZM115.644 97.3925L115.978 95.4437C118.126 95.8744 119.677 95.4067 120.522 93.0178L115.2 76.9859H117.864L121.624 89.7649L125.175 76.9859H127.778L122.608 93.5939C121.414 97.4282 118.624 98.106 115.644 97.3925ZM135.615 89.8878L136.917 88.0738C138.9 89.506 140.394 90.0873 142.833 90.0979C145.471 90.1111 147.156 88.7265 147.141 86.5847C147.101 80.5691 136.868 83.9422 136.693 75.9236C136.616 72.4091 139.719 70.6783 142.712 70.6624C144.972 70.6505 147.092 70.9954 148.534 72.0233L147.407 74.0659C146.73 73.3881 144.292 72.9349 142.968 72.9244C140.662 72.9072 139.206 73.8281 139.139 75.7822C138.945 81.5323 149.729 78.3679 149.71 86.5239C149.704 90.3265 146.889 92.3044 142.825 92.3401C139.072 92.3731 136.28 90.6621 135.615 89.8878ZM166.671 92.0956V77.0097H168.25L168.864 79.4698C170.106 77.8024 172.257 76.6899 174.067 76.6952C176.206 76.7018 177.116 78.2226 177.391 79.3377C178.74 77.7522 180.55 76.6952 182.383 76.6807C185.54 76.6542 186.265 78.977 186.265 81.5825V92.0956L183.704 92.1049V82.4162C183.704 80.2943 183.451 78.9175 181.648 78.9545C179.65 78.9981 178.587 80.3233 177.858 80.9787V92.1049H175.2V82.1295C175.2 80.1053 174.874 78.9334 173.17 78.9704C171.454 79.0074 170.952 79.7037 169.288 81.0342V92.1062L166.671 92.0956ZM198.96 90.2974C197.635 91.6966 195.932 92.3678 194.337 92.3533C191.794 92.3282 189.734 90.7678 189.744 88.231C189.754 85.1353 191.871 84.2778 193.686 83.67C195.475 83.0702 196.903 82.8628 198.526 82.5774C198.596 79.886 198.031 78.8911 195.849 78.8766C193.881 78.8634 192.194 79.7658 191.467 80.145L190.539 78.4194C191.257 77.8553 193.064 76.7111 196.022 76.6846C199.265 76.6582 201.199 78.4947 201.2 81.93L201.204 92.1049H199.627L198.96 90.2974ZM198.547 84.3346C196.936 84.6517 196.052 84.9199 194.787 85.3256C193.164 85.8448 192.38 86.6706 192.399 88.1728C192.419 89.7478 193.447 90.3542 194.729 90.3238C196.261 90.2882 197.249 89.7821 198.537 88.8031L198.547 84.3346ZM228.28 90.0609L228.671 91.8552C227.772 92.3546 226.428 92.3202 225.89 92.3229C222.73 92.3321 222.256 90.2657 222.256 87.9099V78.8647H220.023V76.9859H222.256L223.021 72.6852L224.851 72.6786V76.9859H228.217V78.8647H224.851V88.0473C224.851 90.2882 225.777 90.2974 226.648 90.3331C227.486 90.3688 228.28 90.0609 228.28 90.0609ZM241.283 88.7912L242.371 90.3569C241.232 91.2579 239.955 92.3585 237.209 92.3678C232.635 92.381 230.594 88.8506 230.612 84.6531C230.632 80.47 232.547 76.7084 236.764 76.686C242.006 76.6556 242.745 81.7622 242.743 85.3216H233.385C233.389 88.1808 234.542 90.2538 236.901 90.2763C239.338 90.2987 241.283 88.7912 241.283 88.7912ZM233.384 83.5128H240.036C239.905 81.1438 239.299 78.6506 236.787 78.6824C234.095 78.7154 233.565 81.2191 233.384 83.5128ZM256.372 90.3555C255.302 91.402 253.6 92.3097 251.403 92.3255C247.194 92.3572 245.122 89.0832 245.122 84.5592C245.12 80.0538 247.371 76.6886 251.748 76.6807C253.688 76.6767 255.083 77.4576 256.086 78.2794L254.953 80.0142C254.322 79.5068 252.933 78.8013 251.719 78.8184C248.74 78.8607 247.812 81.0738 247.819 84.4892C247.825 87.3339 248.45 90.2089 251.706 90.2393C252.674 90.2485 253.844 89.9024 255.101 88.8018L256.372 90.3555ZM151.704 97.3925L152.037 95.4437C154.185 95.8744 155.738 95.4067 156.583 93.0178L151.259 76.9859H153.925L157.684 89.7649L161.236 76.9859H163.839L158.668 93.5939C157.475 97.4282 154.683 98.106 151.704 97.3925ZM205.562 92.0956V77.0097H207.141L207.754 79.4698C208.997 77.8024 211.324 76.678 213.426 76.6952C216.151 76.7177 217.217 79.1395 217.217 81.6869V92.1049H214.559V82.1295C214.559 80.1053 214.232 78.9334 212.529 78.9704C210.813 79.0074 209.843 79.7037 208.178 81.0342V92.1062L205.562 92.0956Z" fill="#999999"/>
</g>
<defs>
<clipPath id="clip0_1087_333">
<rect width="262" height="102" fill="white"/>
</clipPath>
</defs>
</svg>
