<svg width="179" height="179" viewBox="0 0 179 179" fill="none" xmlns="http://www.w3.org/2000/svg">
<g clip-path="url(#clip0_1087_339)">
<path d="M179 179H0V0H179V179Z" fill="#FF6600"/>
<path d="M37.4064 144.088C32.4613 144.088 28 140.902 28 133.939C28 126.977 32.4613 123.79 37.4064 123.79C42.352 123.79 46.8067 126.977 46.8067 133.939C46.8063 140.902 42.3516 144.088 37.4064 144.088ZM37.4064 128.07C33.6678 128.07 32.985 131.477 32.985 133.939C32.985 136.401 33.6678 139.815 37.4064 139.815C41.1455 139.815 41.8283 136.401 41.8283 133.939C41.8283 131.477 41.1455 128.07 37.4064 128.07ZM50.237 124.298H54.9968V126.558C55.9048 125.337 58.1388 123.902 60.2339 123.902C60.4329 123.902 60.6779 123.902 60.8836 123.929V128.684H60.6381C58.4638 128.684 56.0839 129.026 55.3148 130.737V143.528H50.237V124.298ZM74.1746 141.854C72.2387 143.142 70.1441 143.766 67.8902 143.766C64.3436 143.766 62.2419 141.378 62.2419 138.172C62.2419 133.866 66.153 131.592 74.2144 130.673V129.6C74.2144 128.204 73.167 127.386 71.2312 127.386C69.2954 127.386 67.7244 128.164 66.5904 129.6L63.2162 127.654C64.9862 125.145 67.6842 123.891 71.3104 123.891C76.2692 123.891 79.0534 126.065 79.0534 129.6C79.0534 129.6 79.0468 143.505 79.0534 143.538H74.6182L74.1746 141.854ZM67.1675 137.803C67.1675 139.097 67.9698 140.305 69.4214 140.305C70.9924 140.305 72.524 139.648 74.0552 138.279V133.724C69.3816 134.308 67.1675 135.529 67.1675 137.803ZM83.0066 124.81L87.1499 124.233L87.6072 126.514C89.9407 124.783 91.7969 123.864 94.1304 123.864C98.0415 123.864 100.064 125.964 100.064 130.123V143.511H95.0583V131.001C95.0583 128.646 94.455 127.587 92.6449 127.587C91.1535 127.587 89.6617 128.271 87.9584 129.72V143.511H83.0066V124.81ZM112.305 139.395C116.097 139.369 116.422 135.458 116.422 132.915C116.422 129.897 114.97 127.462 112.272 127.462C110.476 127.462 108.467 128.79 108.467 133.123C108.467 135.492 108.633 139.429 112.305 139.395ZM121.228 124.229V142.44C121.228 145.647 120.977 150.953 111.928 151C108.189 151.027 104.722 149.511 104.032 146.21L108.965 145.405C109.17 146.351 109.747 147.29 112.545 147.29C115.137 147.29 116.383 146.036 116.383 143.031V140.79L116.317 140.723C115.521 142.165 114.314 143.527 111.411 143.527C106.976 143.527 103.489 140.415 103.489 133.915C103.489 127.482 107.089 123.88 111.126 123.873C114.924 123.867 116.323 125.617 116.655 126.536L116.589 126.529L117.006 124.229H121.228V124.229ZM133.189 143.88C127.588 143.88 124.246 140.231 124.246 133.905C124.246 127.506 127.627 123.863 133.109 123.863C138.592 123.863 141.853 127.398 141.853 133.65C141.853 133.985 141.813 134.314 141.813 134.643H129.158C129.191 138.292 130.689 140.129 133.632 140.129C135.522 140.129 136.775 139.358 137.948 137.668L141.607 139.72C139.997 142.451 137.094 143.88 133.189 143.88ZM136.941 131.363C136.941 128.794 135.482 127.278 133.109 127.278C130.849 127.278 129.436 128.76 129.238 131.363H136.941ZM150.416 117L148.573 121.823L146.697 117H145.093V123.359H146.134V118.053H146.16L148.222 123.359H148.885L150.933 118.053H150.966V123.359H152V117H150.416ZM138.849 117V117.846H140.811V123.36H141.851V117.845H143.821V117L138.849 117Z" fill="white"/>
</g>
<defs>
<clipPath id="clip0_1087_339">
<rect width="179" height="179" rx="89.5" fill="white"/>
</clipPath>
</defs>
</svg>
