<svg width="85" height="85" viewBox="0 0 85 85" fill="none" xmlns="http://www.w3.org/2000/svg">
<path fill-rule="evenodd" clip-rule="evenodd" d="M0.757812 18.3027H84.8049V70.8321H0.757812V18.3027Z" fill="white"/>
<path fill-rule="evenodd" clip-rule="evenodd" d="M84.8049 18.3028H0.757812V7.77938C0.757812 3.92093 3.89924 0.792969 7.77903 0.792969H77.7837C81.6613 0.792969 84.8049 3.91716 84.8049 7.77938V18.3028Z" fill="#4C5777"/>
<path fill-rule="evenodd" clip-rule="evenodd" d="M21.7705 13.0509C19.8365 13.0509 18.2686 11.4828 18.2686 9.54878C18.2686 7.61471 19.8363 6.04688 21.7705 6.04688C23.7048 6.04688 25.2724 7.61471 25.2724 9.54878C25.2724 11.4828 23.7048 13.0509 21.7705 13.0509ZM9.51362 13.0509C7.57956 13.0509 6.01172 11.4828 6.01172 9.54878C6.01172 7.61471 7.57956 6.04688 9.51362 6.04688C11.4477 6.04688 13.0157 7.61471 13.0157 9.54878C13.0157 11.4828 11.4477 13.0509 9.51362 13.0509Z" fill="white"/>
<path fill-rule="evenodd" clip-rule="evenodd" d="M14.7656 70.8322H0.757812C0.757812 60.0775 4.86069 49.3226 13.0661 41.117C29.4774 24.7058 56.0852 24.7058 72.4966 41.117L62.5915 51.0221C57.5216 45.9523 50.5176 42.8165 42.7813 42.8165C27.3086 42.8165 14.7656 55.3595 14.7656 70.8322Z" fill="#303670"/>
<path fill-rule="evenodd" clip-rule="evenodd" d="M70.7954 70.8324H84.8032C84.8032 60.0777 80.7003 49.3228 72.4949 41.1172L62.5898 51.0223C67.6596 56.0922 70.7954 63.096 70.7954 70.8324Z" fill="#4C5777"/>
<path fill-rule="evenodd" clip-rule="evenodd" d="M32.8763 80.7377C27.4058 75.2674 27.4058 66.3981 32.8763 60.9275C38.3467 55.4573 68.7821 44.832 68.7821 44.832C68.7821 44.832 58.1569 75.2674 52.6864 80.7377C47.216 86.2081 38.3467 86.2081 32.8763 80.7377Z" fill="#161B4E"/>
<path fill-rule="evenodd" clip-rule="evenodd" d="M42.7813 77.8359C38.9132 77.8359 35.7773 74.7002 35.7773 70.8321C35.7773 66.964 38.9132 63.8281 42.7813 63.8281C46.6495 63.8281 49.7853 66.964 49.7853 70.8321C49.7853 74.7002 46.6495 77.8359 42.7813 77.8359Z" fill="white"/>
</svg>
