<svg width="83" height="79" viewBox="0 0 83 79" fill="none" xmlns="http://www.w3.org/2000/svg">
<path d="M50.6445 39.0101C50.6444 44.6385 55.1291 53.3372 61.0737 53.3372C67.0183 53.3372 71.5032 44.6385 71.5032 39.0099C71.4975 36.2476 70.3962 33.6003 68.4409 31.6491C66.4856 29.6979 63.8361 28.602 61.0738 28.6021C58.3115 28.6021 55.662 29.698 53.7067 31.6492C51.7515 33.6005 50.6502 36.2477 50.6445 39.0101Z" fill="url(#paint0_linear_222_2172)"/>
<path d="M82.2324 67.904C81.4086 64.9167 79.9623 62.1375 77.9884 59.7487C76.0146 57.3599 73.5579 55.4155 70.7796 54.0432C70.5126 53.9107 70.2098 53.8684 69.9167 53.9227C69.6236 53.977 69.356 54.1249 69.1542 54.3443C67.427 56.3553 65.0638 57.7148 62.4571 58.1969C62.4561 60.2023 62.4578 63.2453 62.4571 65.2402C62.4519 65.6041 62.3037 65.9512 62.0446 66.2067C61.7855 66.4621 61.4363 66.6053 61.0724 66.6053C60.7086 66.6053 60.3593 66.462 60.1002 66.2066C59.8412 65.9511 59.693 65.604 59.6879 65.2401C59.6878 63.2406 59.6879 60.2019 59.6879 58.1968C57.0783 57.711 54.7115 56.3525 52.9758 54.3442C52.7729 54.1216 52.5026 53.9715 52.2063 53.9172C51.91 53.8628 51.6041 53.9071 51.3353 54.0432C47.4446 55.9685 44.2091 58.9999 42.0346 62.757C40.7341 65.4166 38.3859 69.1695 40.9208 71.7716C42.8868 73.82 45.247 75.4493 47.8593 76.5615C50.4716 77.6737 53.2819 78.2457 56.1211 78.2431L66.0087 78.2432C68.7806 78.2523 71.5267 77.7101 74.0871 76.6482C76.6476 75.5863 78.9713 74.0259 80.9232 72.0577C81.5144 71.562 81.9518 70.9077 82.1838 70.1719C82.4157 69.436 82.4326 68.6491 82.2324 67.904Z" fill="url(#paint1_linear_222_2172)"/>
<path d="M50.0103 51.3348C50.5593 51.0651 51.1598 50.9163 51.7712 50.8983C49.2317 47.4393 47.7898 43.2972 47.6325 39.009C47.6486 36.8128 48.2002 34.6535 49.2395 32.7187C50.2787 30.7838 51.7743 29.1316 53.5965 27.9055C55.4188 26.6793 57.5126 25.9162 59.6964 25.6822C61.8803 25.4483 64.0882 25.7506 66.1288 26.563C65.5246 23.5772 64.4957 20.6934 63.0735 17.9996C63.0735 17.9996 53.1647 23.9673 52.9602 23.6131C52.6336 23.6061 52.3182 23.4934 52.0612 23.2919C51.8041 23.0904 51.6193 22.811 51.5345 22.4956C51.4498 22.1802 51.4695 21.8458 51.5909 21.5426C51.7122 21.2394 51.9286 20.9837 52.2076 20.8139C53.9438 19.8099 59.8918 16.3688 61.5685 15.411C58.6734 10.9094 54.7465 7.16314 50.1138 4.48294C45.4811 1.80275 40.276 0.265934 34.9305 0C34.929 1.90884 34.9317 8.77824 34.9305 10.8209C34.9255 11.2167 34.7647 11.5947 34.483 11.8729C34.2013 12.1511 33.8214 12.3071 33.4255 12.3071C33.0295 12.307 32.6496 12.151 32.3679 11.8728C32.0862 11.5946 31.9255 11.2166 31.9205 10.8208C31.9207 8.81318 31.9205 1.94537 31.9205 0.0150923C26.5679 0.251473 21.351 1.77409 16.7115 4.45405C12.072 7.13401 8.14653 10.8924 5.26745 15.411L14.6283 20.8139C14.9679 21.0163 15.2142 21.3442 15.3138 21.7269C15.4134 22.1095 15.3583 22.5159 15.1605 22.8582C14.9626 23.2005 14.6379 23.4511 14.2567 23.5558C13.8754 23.6605 13.4683 23.6108 13.1234 23.4175C11.383 22.4126 5.43314 18.9834 3.76245 18.0148C1.29059 22.7649 0 28.0408 0 33.3956C0 38.7504 1.29059 44.0263 3.76245 48.7764C5.40427 47.8254 11.3631 44.3887 13.1234 43.3735C13.4682 43.1806 13.8752 43.1311 14.2563 43.2359C14.6373 43.3406 14.9618 43.5912 15.1596 43.9333C15.3573 44.2755 15.4125 44.6817 15.313 45.0642C15.2136 45.4467 14.9676 45.7746 14.6283 45.9771C12.8917 46.9789 6.95228 50.4164 5.28245 51.38C8.15843 55.8981 12.0811 59.6565 16.7182 62.3365C21.3552 65.0165 26.57 66.5393 31.9205 66.7758C31.9207 64.8802 31.9205 57.9864 31.9205 55.9549C31.9264 55.5596 32.0875 55.1824 32.3691 54.9049C32.6507 54.6275 33.0302 54.4719 33.4255 54.4719C33.8209 54.4719 34.2004 54.6275 34.482 54.905C34.7636 55.1825 34.9247 55.5597 34.9305 55.955V66.7909C35.6679 66.7608 36.4053 66.7006 37.1428 66.6102C38.1173 63.3139 39.7637 60.2551 41.9782 57.6261C44.1927 54.9972 46.9274 52.8551 50.0103 51.3348ZM41.4469 39.4304H33.4255C33.2277 39.4311 33.0317 39.3926 32.8488 39.3173C32.6659 39.2419 32.4997 39.1311 32.3598 38.9912C32.2199 38.8513 32.1091 38.6851 32.0337 38.5022C31.9583 38.3193 31.9199 38.1233 31.9205 37.9255V26.578C31.9205 26.3803 31.9595 26.1846 32.0351 26.002C32.1107 25.8194 32.2216 25.6535 32.3613 25.5138C32.5011 25.374 32.667 25.2632 32.8496 25.1876C33.0322 25.1119 33.2279 25.073 33.4255 25.073C33.6231 25.073 33.8188 25.1119 34.0014 25.1876C34.184 25.2632 34.3499 25.374 34.4897 25.5138C34.6294 25.6535 34.7403 25.8194 34.8159 26.002C34.8915 26.1846 34.9305 26.3803 34.9305 26.578V36.4205H41.4469C41.8426 36.4256 42.2205 36.5863 42.4986 36.868C42.7766 37.1497 42.9326 37.5296 42.9326 37.9254C42.9326 38.3212 42.7767 38.7011 42.4986 38.9828C42.2205 39.2645 41.8427 39.4253 41.4469 39.4304Z" fill="url(#paint2_linear_222_2172)"/>
<defs>
<linearGradient id="paint0_linear_222_2172" x1="53.2035" y1="30.973" x2="74.2515" y2="46.9776" gradientUnits="userSpaceOnUse">
<stop stop-color="#4197EA"/>
<stop offset="1" stop-color="#8A5CD0"/>
</linearGradient>
<linearGradient id="paint1_linear_222_2172" x1="45.0165" y1="56.2285" x2="64.4661" y2="86.8963" gradientUnits="userSpaceOnUse">
<stop stop-color="#4197EA"/>
<stop offset="1" stop-color="#8A5CD0"/>
</linearGradient>
<linearGradient id="paint2_linear_222_2172" x1="8.11279" y1="6.40223" x2="66.7157" y2="58.7207" gradientUnits="userSpaceOnUse">
<stop stop-color="#4197EA"/>
<stop offset="1" stop-color="#8A5CD0"/>
</linearGradient>
</defs>
</svg>
