<svg width="67" height="78" viewBox="0 0 67 78" fill="none" xmlns="http://www.w3.org/2000/svg">
<path d="M37.6873 35.9662H45.0385V40.5162H37.6873C36.4245 40.5162 35.4024 41.5398 35.4024 42.8011V50.1538H30.8525V42.8011C30.8525 41.5398 29.8304 40.5162 28.5676 40.5162H21.2148V35.9662H28.5676C29.8304 35.9662 30.8525 34.9441 30.8525 33.6813V26.3286H35.4024V33.6813C35.4024 34.944 36.4245 35.9662 37.6873 35.9662Z" fill="url(#paint0_linear_222_2196)"/>
<path d="M66.1813 21.1553L66.1798 21.0807C66.1432 19.137 66.1082 17.2999 66.1082 15.533C66.1082 12.8551 63.9299 10.6784 61.2536 10.6784C50.8955 10.6784 43.034 7.72479 36.5129 1.38349C34.6149 -0.461164 31.6416 -0.461164 29.7436 1.38349C23.2241 7.72479 15.3626 10.6784 5.00599 10.6784C2.32964 10.6784 0.151388 12.8551 0.151388 15.533C0.151388 17.3365 0.116354 19.1918 0.0782722 21.1568C-0.0969017 30.3268 -0.314726 41.739 3.51473 52.0986C5.62138 57.7956 8.80955 62.7446 12.9924 66.8117C17.7571 71.4439 23.9964 75.118 31.538 77.7319C32.0513 77.9101 32.586 78 33.1283 78C33.6705 78 34.2067 77.9101 34.7185 77.7319C42.2601 75.118 48.5009 71.4439 53.2656 66.8117C57.4485 62.7446 60.6367 57.7941 62.7433 52.0986C66.5743 41.7375 66.3565 30.3253 66.1813 21.1553ZM49.6114 42.8006C49.6114 44.0618 48.5893 45.0854 47.3265 45.0854H39.9753V52.4382C39.9753 53.6994 38.9516 54.723 37.6904 54.723H28.5707C27.3094 54.723 26.2858 53.6994 26.2858 52.4382V45.0854H18.9331C17.6703 45.0854 16.6482 44.0618 16.6482 42.8006V33.6808C16.6482 32.4196 17.6703 31.396 18.9331 31.396H26.2858V24.0432C26.2858 22.782 27.3094 21.7584 28.5707 21.7584H37.6904C38.9516 21.7584 39.9753 22.782 39.9753 24.0432V31.396H47.3265C48.5893 31.396 49.6114 32.4196 49.6114 33.6808V42.8006Z" fill="url(#paint1_linear_222_2196)"/>
<defs>
<linearGradient id="paint0_linear_222_2196" x1="22.1137" y1="30.1468" x2="36.9575" y2="49.3668" gradientUnits="userSpaceOnUse">
<stop stop-color="#4692E8"/>
<stop offset="1" stop-color="#786AD6"/>
</linearGradient>
<linearGradient id="paint1_linear_222_2196" x1="2.5" y1="12.5" x2="52.5" y2="67.5" gradientUnits="userSpaceOnUse">
<stop stop-color="#4692E8"/>
<stop offset="1" stop-color="#786AD6"/>
</linearGradient>
</defs>
</svg>
