<svg width="62" height="78" viewBox="0 0 62 78" fill="none" xmlns="http://www.w3.org/2000/svg">
<path d="M11.3989 38.9968C11.3989 29.0168 18.9317 20.7645 28.6101 19.6234V0L0.65625 13.6892V38.4904C0.65625 44.3669 2.22737 50.0995 5.3262 55.5285C7.76796 59.8063 11.1572 63.8983 15.3999 67.6903C20.8156 72.531 26.1856 76.7253 28.6101 77.9998V58.3702C18.9319 57.2291 11.3989 48.9768 11.3989 38.9968Z" fill="url(#paint0_linear_222_2199)"/>
<path d="M33.207 0V19.6232C42.8854 20.7643 50.4182 29.0168 50.4182 38.9966C50.4182 48.9765 42.8854 57.229 33.207 58.3701V78C35.6424 76.7432 41.0049 72.6124 46.412 67.8088C50.6579 64.0369 54.0493 59.9476 56.4925 55.6539C59.5902 50.2098 61.161 44.4352 61.161 38.4904V13.6892L33.207 0Z" fill="url(#paint1_linear_222_2199)"/>
<path d="M45.8217 38.9963C45.8217 30.7734 39.1319 24.0835 30.9089 24.0835C22.6858 24.0835 15.9961 30.7732 15.9961 38.9963C15.9961 47.2193 22.6858 53.9091 30.9089 53.9091C39.1319 53.9091 45.8217 47.2192 45.8217 38.9963ZM24.0217 46.1901L21.5246 42.3306L26.678 38.9961L21.5246 35.6616L24.0217 31.8021L28.6105 34.7713V29.3058H33.2073V34.7715L37.796 31.8023L40.2931 35.6618L35.1398 38.9963L40.2931 42.3308L37.796 46.1901L33.2073 43.2209V48.6866H28.6105V43.2209L24.0217 46.1901Z" fill="url(#paint2_linear_222_2199)"/>
<defs>
<linearGradient id="paint0_linear_222_2199" x1="14.6332" y1="0" x2="14.6332" y2="77.9998" gradientUnits="userSpaceOnUse">
<stop stop-color="#4890E7"/>
<stop offset="1" stop-color="#8A5CD0"/>
</linearGradient>
<linearGradient id="paint1_linear_222_2199" x1="47.184" y1="0" x2="47.184" y2="78" gradientUnits="userSpaceOnUse">
<stop stop-color="#4890E7"/>
<stop offset="1" stop-color="#8A5CD0"/>
</linearGradient>
<linearGradient id="paint2_linear_222_2199" x1="30.9089" y1="24.0835" x2="30.9089" y2="53.9091" gradientUnits="userSpaceOnUse">
<stop stop-color="#4890E7"/>
<stop offset="1" stop-color="#8A5CD0"/>
</linearGradient>
</defs>
</svg>
