<svg width="87" height="76" viewBox="0 0 87 76" fill="none" xmlns="http://www.w3.org/2000/svg">
<path d="M86.4769 39.0026C85.5358 37.3295 83.3399 36.7021 81.5623 37.7478L69.6418 44.6491L66.6094 46.4268V62.9482L69.4327 64.6213C69.5372 64.6213 69.5372 64.7258 69.6418 64.7258L81.3532 71.5226C81.876 71.9409 82.608 72.15 83.3399 72.15C85.3267 72.15 86.8952 70.5815 86.8952 68.5948V54.5829L86.9997 40.7802C86.9997 40.1528 86.8952 39.5254 86.4769 39.0026Z" fill="url(#paint0_linear_222_2203)"/>
<path d="M16.8362 33.6703C26.1426 33.6703 33.6713 26.1415 33.6713 16.8351C33.6713 7.52876 26.1426 0 16.8362 0C7.52982 0 0.00106167 7.52876 0.00106167 16.8351C-0.103504 26.1415 7.52982 33.6703 16.8362 33.6703ZM16.8362 9.93377C20.7051 9.93377 23.7376 13.0708 23.7376 16.8351C23.7376 20.7041 20.6006 23.7365 16.8362 23.7365C13.0718 23.7365 9.93484 20.5995 9.93484 16.8351C9.83027 12.9662 12.9672 9.93377 16.8362 9.93377Z" fill="url(#paint1_linear_222_2203)"/>
<path d="M59.4993 34.6121C56.7806 35.9714 53.7482 36.808 50.5066 36.808C46.5331 36.808 42.7688 35.6577 39.6318 33.5664H27.7112C24.5743 35.6577 20.8099 36.808 16.8364 36.808C13.5948 36.808 10.5624 36.076 7.8437 34.6121C5.43868 35.9714 3.76562 38.6901 3.76562 41.618V67.1321C3.76562 71.8376 7.63457 75.602 12.2355 75.602H55.2121C59.9176 75.602 63.682 71.733 63.682 67.1321V41.618C63.5774 38.6901 61.9043 35.9714 59.4993 34.6121Z" fill="url(#paint2_linear_222_2203)"/>
<path d="M50.507 33.6703C59.8134 33.6703 67.3421 26.1415 67.3421 16.8351C67.3421 7.52876 59.8134 0 50.507 0C41.2006 0 33.6719 7.52876 33.6719 16.8351C33.6719 26.1415 41.2006 33.6703 50.507 33.6703ZM50.507 9.93377C54.3759 9.93377 57.4084 13.0708 57.4084 16.8351C57.4084 20.7041 54.2714 23.7365 50.507 23.7365C46.7426 23.7365 43.6056 20.5995 43.6056 16.8351C43.6056 12.9662 46.6381 9.93377 50.507 9.93377Z" fill="url(#paint3_linear_222_2203)"/>
<defs>
<linearGradient id="paint0_linear_222_2203" x1="66.7266" y1="40.4692" x2="94.4087" y2="52.3635" gradientUnits="userSpaceOnUse">
<stop stop-color="#4197EA"/>
<stop offset="1" stop-color="#8A5CD0"/>
</linearGradient>
<linearGradient id="paint1_linear_222_2203" x1="0.193515" y1="3.11754" x2="35.3273" y2="28.9666" gradientUnits="userSpaceOnUse">
<stop stop-color="#4197EA"/>
<stop offset="1" stop-color="#8A5CD0"/>
</linearGradient>
<linearGradient id="paint2_linear_222_2203" x1="4.10997" y1="37.4585" x2="50.0027" y2="85.5843" gradientUnits="userSpaceOnUse">
<stop stop-color="#4197EA"/>
<stop offset="1" stop-color="#8A5CD0"/>
</linearGradient>
<linearGradient id="paint3_linear_222_2203" x1="33.8654" y1="3.11754" x2="68.9989" y2="28.9656" gradientUnits="userSpaceOnUse">
<stop stop-color="#4197EA"/>
<stop offset="1" stop-color="#8A5CD0"/>
</linearGradient>
</defs>
</svg>
