<svg width="80" height="80" viewBox="0 0 80 80" fill="none" xmlns="http://www.w3.org/2000/svg">
<path d="M34.2539 57.4234L33.3082 62.1523L39.5442 60.0736C39.6908 60.0248 39.8433 60.0003 39.996 60.0003C40.1485 60.0003 40.3012 60.0248 40.4478 60.0736L46.6838 62.1523L45.7381 57.4234C45.6585 57.0248 45.7522 56.6111 45.9962 56.2861L48.9217 52.3852L44.0017 51.4011C43.6571 51.3322 43.3499 51.1386 43.139 50.8573L39.9958 46.667L36.853 50.8575C36.6421 51.1388 36.3349 51.3323 35.9903 51.4013L31.0703 52.3854L33.9958 56.2861C34.2398 56.6112 34.3335 57.0248 34.2539 57.4234Z" fill="url(#paint0_linear_222_2209)"/>
<path d="M29.4458 22.8571L27.2154 16.166C26.966 15.4174 27.3704 14.6083 28.119 14.3589C28.8672 14.1096 29.6765 14.5141 29.926 15.2624L32.4574 22.8571H38.5706V15.7142C38.5706 14.9253 39.21 14.2857 39.9991 14.2857C40.7881 14.2857 41.4277 14.9253 41.4277 15.7142V22.8571H47.5409L50.0725 15.2624C50.3218 14.5142 51.1307 14.1096 51.8794 14.3589C52.6278 14.6083 53.0325 15.4174 52.783 16.166L50.5525 22.8571H52.4025C54.5335 21.3297 59.1805 17.6328 60.0903 15.2119C60.9742 12.8594 62.7917 6.53265 63.7365 3.18749C63.1844 3.40267 62.7294 3.70588 62.2194 4.04588C61.1044 4.78909 59.7166 5.71427 57.1412 5.71427C54.2839 5.71427 52.858 3.8132 51.7123 2.28571C50.6173 0.82589 49.9314 0 48.5691 0C47.207 0 46.5213 0.82589 45.4264 2.28571C44.2809 3.81338 42.8552 5.71427 39.9981 5.71427C37.1409 5.71427 35.7152 3.8132 34.5695 2.28571C33.4747 0.82589 32.7888 0 31.4267 0C30.0645 0 29.3788 0.82589 28.2842 2.28571C27.1385 3.8132 25.7128 5.71427 22.8558 5.71427C20.2805 5.71427 18.893 4.78909 17.778 4.0457C17.2683 3.70606 16.8135 3.40267 16.2617 3.18749C17.2065 6.53248 19.0242 12.8592 19.9081 15.2117C20.8178 17.6326 25.4647 21.3297 27.5958 22.8569H29.4458V22.8571Z" fill="url(#paint1_linear_222_2209)"/>
<path d="M27.7781 25.7144C27.2916 26.2576 26.4102 27.2569 25.3086 28.5715H54.6947C53.5928 27.2569 52.7114 26.2576 52.2246 25.7144H27.7781Z" fill="url(#paint2_linear_222_2209)"/>
<path d="M40.0033 71.4282C48.6681 71.4282 55.7175 64.3788 55.7175 55.714C55.7175 47.0492 48.6681 39.9998 40.0033 39.9998C31.3385 39.9998 24.2891 47.0492 24.2891 55.714C24.2891 64.3788 31.3385 71.4282 40.0033 71.4282ZM27.2403 50.9185C27.4153 50.4603 27.8135 50.1238 28.2946 50.0276L34.9022 48.7062L38.8604 43.4283C39.1303 43.0685 39.5537 42.8569 40.0033 42.8569C40.4529 42.8569 40.8763 43.0685 41.1461 43.4283L45.1043 48.706L51.712 50.0274C52.1931 50.1236 52.5913 50.4601 52.7663 50.9183C52.9413 51.3767 52.8691 51.8928 52.5747 52.2852L48.6722 57.4886L49.9756 64.005C50.0754 64.5045 49.9018 65.0193 49.5202 65.3561C49.2552 65.59 48.9177 65.7138 48.5747 65.7138C48.4234 65.7138 48.2709 65.6897 48.1231 65.6406L40.0033 62.9341L31.8837 65.6407C31.4006 65.8014 30.8683 65.6936 30.4865 65.3563C30.1048 65.0193 29.9314 64.5045 30.0312 64.0052L31.3346 57.4888L27.4319 52.2854C27.1374 51.8929 27.0651 51.3769 27.2403 50.9185Z" fill="url(#paint3_linear_222_2209)"/>
<path d="M10.0603 68.8024C9.71762 71.6403 10.6085 74.4944 12.5046 76.6335C14.4014 78.7729 17.129 79.9999 19.9883 79.9999H60.0215C62.8808 79.9999 65.6087 78.7729 67.5053 76.6333C69.4013 74.4942 70.2924 71.6401 69.9496 68.8023C68.6435 57.9877 67.6869 51.1014 67.1831 48.8882C65.9656 43.5377 60.9899 36.444 57.0248 31.4285H22.9863C19.0206 36.4454 14.0435 43.5411 12.8267 48.8882C12.323 51.1016 11.3664 57.9877 10.0603 68.8024ZM40.005 37.1429C50.2453 37.1429 58.5764 45.474 58.5764 55.7143C58.5764 65.9546 50.2453 74.2856 40.005 74.2856C29.7647 74.2856 21.4337 65.9546 21.4337 55.7143C21.4337 45.474 29.7647 37.1429 40.005 37.1429Z" fill="url(#paint4_linear_222_2209)"/>
<path d="M25.0213 24.5083C24.4571 25.1458 23.7053 26.0136 22.8356 27.0565C20.5749 27.8457 17.7374 28.994 14.9249 30.5636C6.91783 35.0279 2.85713 40.6064 2.85713 47.1421C2.85713 47.9314 2.21785 48.5707 1.42857 48.5707C0.639283 48.5707 0 47.9314 0 47.1421C0 39.5832 4.69998 32.9761 13.591 28.0368C17.5178 25.8565 21.4089 24.46 23.9463 23.6797C24.3374 23.9886 24.6999 24.269 25.0213 24.5083Z" fill="url(#paint5_linear_222_2209)"/>
<path d="M80.0018 47.1421C80.0018 47.9314 79.3625 48.5707 78.5732 48.5707C77.784 48.5707 77.1447 47.9314 77.1447 47.1421C77.1447 40.6064 73.084 35.0279 65.0769 30.5636C62.2644 28.9957 59.4269 27.844 57.1644 27.0565C56.2965 26.0136 55.5448 25.1458 54.9805 24.5083C55.3019 24.269 55.6644 23.9886 56.0555 23.6797C58.593 24.46 62.484 25.8565 66.4108 28.0368C75.3018 32.9761 80.0018 39.5832 80.0018 47.1421Z" fill="url(#paint6_linear_222_2209)"/>
<defs>
<linearGradient id="paint0_linear_222_2209" x1="33.0785" y1="46.2799" x2="44.2083" y2="63.6692" gradientUnits="userSpaceOnUse">
<stop stop-color="#4197EA"/>
<stop offset="1" stop-color="#8A5CD0"/>
</linearGradient>
<linearGradient id="paint1_linear_222_2209" x1="21.6025" y1="-0.571428" x2="33.0153" y2="31.5564" gradientUnits="userSpaceOnUse">
<stop stop-color="#4197EA"/>
<stop offset="1" stop-color="#8A5CD0"/>
</linearGradient>
<linearGradient id="paint2_linear_222_2209" x1="28.6144" y1="25.6429" x2="28.9372" y2="30.1425" gradientUnits="userSpaceOnUse">
<stop stop-color="#4197EA"/>
<stop offset="1" stop-color="#8A5CD0"/>
</linearGradient>
<linearGradient id="paint3_linear_222_2209" x1="27.8247" y1="39.214" x2="51.5927" y2="71.4276" gradientUnits="userSpaceOnUse">
<stop stop-color="#4197EA"/>
<stop offset="1" stop-color="#8A5CD0"/>
</linearGradient>
<linearGradient id="paint4_linear_222_2209" x1="16.7418" y1="30.2142" x2="50.5812" y2="86.9006" gradientUnits="userSpaceOnUse">
<stop stop-color="#4197EA"/>
<stop offset="1" stop-color="#8A5CD0"/>
</linearGradient>
<linearGradient id="paint5_linear_222_2209" x1="2.81482" y1="23.0574" x2="21.6096" y2="48.664" gradientUnits="userSpaceOnUse">
<stop stop-color="#4197EA"/>
<stop offset="1" stop-color="#8A5CD0"/>
</linearGradient>
<linearGradient id="paint6_linear_222_2209" x1="57.7953" y1="23.0574" x2="76.5901" y2="48.664" gradientUnits="userSpaceOnUse">
<stop stop-color="#4197EA"/>
<stop offset="1" stop-color="#8A5CD0"/>
</linearGradient>
</defs>
</svg>
