<svg width="77" height="82" viewBox="0 0 77 82" fill="none" xmlns="http://www.w3.org/2000/svg">
<path d="M19.3832 1.6125V7.82363C19.3832 8.33496 18.9621 8.77109 18.4357 8.77109C17.9079 8.77109 17.4883 8.33496 17.4883 7.82363V1.6125C17.4883 1.08613 17.9079 0.665039 18.4357 0.665039C18.9621 0.665039 19.3832 1.08613 19.3832 1.6125Z" fill="url(#paint0_linear_222_2217)"/>
<path d="M39.4496 1.6125V7.82363C39.4496 8.33496 39.0285 8.77109 38.5021 8.77109C37.9758 8.77109 37.5547 8.33496 37.5547 7.82363V1.6125C37.5547 1.08613 37.9758 0.665039 38.5021 0.665039C39.0285 0.665039 39.4496 1.08613 39.4496 1.6125Z" fill="url(#paint1_linear_222_2217)"/>
<path d="M59.5043 1.6125V7.82363C59.5043 8.33496 59.0847 8.77109 58.5568 8.77109C58.0305 8.77109 57.6094 8.33496 57.6094 7.82363V1.6125C57.6094 1.08613 58.0305 0.665039 58.5568 0.665039C59.0832 0.665039 59.5043 1.08613 59.5043 1.6125Z" fill="url(#paint2_linear_222_2217)"/>
<path d="M76.9711 23.3891H0.03125C0.19668 15.0274 6.24238 8.09438 14.4838 6.57544V7.82368C14.4838 10.0043 16.2584 11.779 18.4391 11.779C20.6197 11.779 22.3943 10.0043 22.3943 7.82368V6.27466H34.5459V7.82368C34.5459 10.0043 36.3205 11.779 38.5012 11.779C40.6818 11.779 42.4564 10.0043 42.4564 7.82368V6.27466H54.608V7.82368C54.608 10.0043 56.3826 11.779 58.5633 11.779C60.7439 11.779 62.5186 10.0043 62.5186 7.82368V6.57544C70.76 8.09438 76.8057 15.0274 76.9711 23.3891Z" fill="url(#paint3_linear_222_2217)"/>
<path d="M0 26.3972V64.3708C0 73.9958 7.99928 81.8462 17.8213 81.8462H59.1787C68.9992 81.8462 77 73.9958 77 64.3708V26.3972H0ZM36.6953 69.3939C33.2078 69.3939 30.424 68.4013 28.9803 67.4689C28.696 67.2734 28.5592 66.9275 28.6645 66.5966L29.657 63.5738C29.7322 63.3632 29.8977 63.1828 30.1082 63.1076C30.3338 63.0324 30.5594 63.0474 30.7549 63.1677C31.943 63.8595 34.1988 64.6867 36.6502 64.6867C39.7347 64.6867 42.8463 62.7617 42.8463 59.0771C42.8027 55.3173 40.1393 53.3322 35.1628 53.3322C33.6589 53.3322 32.4708 53.4826 31.4331 53.6029L31.1925 53.633C30.9684 53.663 30.7263 53.5878 30.5609 53.4224C30.397 53.257 30.3203 53.0164 30.3503 52.7908L32.2453 38.7142C32.3054 38.3382 32.6212 38.0675 32.9972 38.0675H47.0287C47.4498 38.0675 47.7806 38.3984 47.7806 38.8195V42.1582C47.7806 42.5642 47.4498 42.9101 47.0287 42.9101H36.4863L35.599 48.8205C36.0186 48.7904 36.5013 48.7603 37.1029 48.7603C39.643 48.7603 41.959 49.3468 43.8103 50.4447C46.6978 52.0839 48.3656 55.0767 48.3656 58.6259C48.3656 64.8671 43.4629 69.3939 36.6953 69.3939Z" fill="url(#paint4_linear_222_2217)"/>
<defs>
<linearGradient id="paint0_linear_222_2217" x1="17.6359" y1="0.548708" x2="21.3664" y2="1.68569" gradientUnits="userSpaceOnUse">
<stop stop-color="#4197EA"/>
<stop offset="1" stop-color="#8A5CD0"/>
</linearGradient>
<linearGradient id="paint1_linear_222_2217" x1="37.7023" y1="0.548708" x2="41.4328" y2="1.68569" gradientUnits="userSpaceOnUse">
<stop stop-color="#4197EA"/>
<stop offset="1" stop-color="#8A5CD0"/>
</linearGradient>
<linearGradient id="paint2_linear_222_2217" x1="57.757" y1="0.548708" x2="61.4875" y2="1.68569" gradientUnits="userSpaceOnUse">
<stop stop-color="#4197EA"/>
<stop offset="1" stop-color="#8A5CD0"/>
</linearGradient>
<linearGradient id="paint3_linear_222_2217" x1="6.02656" y1="6.02905" x2="10.7087" y2="33.4727" gradientUnits="userSpaceOnUse">
<stop stop-color="#4197EA"/>
<stop offset="1" stop-color="#8A5CD0"/>
</linearGradient>
<linearGradient id="paint4_linear_222_2217" x1="6" y1="25.6015" x2="44.7254" y2="95.715" gradientUnits="userSpaceOnUse">
<stop stop-color="#4197EA"/>
<stop offset="1" stop-color="#8A5CD0"/>
</linearGradient>
</defs>
</svg>
