<svg width="73" height="73" viewBox="0 0 73 73" fill="none" xmlns="http://www.w3.org/2000/svg">
<path d="M0.0120228 15.2042C-0.0483698 14.6518 0.129193 14.0997 0.50033 13.6861C0.871467 13.2724 1.40111 13.0362 1.95687 13.0365H10.4297C11.1496 13.0365 11.7332 12.4529 11.7332 11.7331C11.7332 11.0132 11.1496 10.4296 10.4297 10.4296H4.56389C4.00821 10.4309 3.47822 10.1957 3.10635 9.78282C2.73448 9.36992 2.55587 8.8183 2.61514 8.26581C2.78195 7.22697 3.69898 6.4768 4.7503 6.51914H13.0367C13.7566 6.51914 14.3403 5.93556 14.3403 5.21567C14.3403 4.49578 13.7566 3.91219 13.0367 3.91219H7.17092C6.61524 3.91351 6.08525 3.67833 5.71338 3.26543C5.34151 2.85253 5.1629 2.30091 5.22217 1.74841C5.38843 0.70927 6.30581 -0.0411906 7.35733 0.00175344H26.6611C26.8987 0.00355648 27.1313 0.0702651 27.3337 0.194668L32.6051 3.35169C33.2117 3.71542 33.9052 3.90903 34.6125 3.91219H46.9281V15.4988L44.6704 13.6505C42.9762 12.3574 40.5932 12.4884 39.051 13.9594C37.9058 15.0699 37.5078 16.7433 38.0303 18.2505H33.6596C32.6337 18.2548 31.6506 18.662 30.9223 19.3845L18.6549 31.5511L18.6288 31.5772L18.0866 32.1142C17.4507 32.7359 16.4327 32.7289 15.8054 32.0986C15.2329 31.5238 15.177 30.613 15.6751 29.9726L19.2597 25.5929C19.5785 25.2031 19.6442 24.6646 19.4285 24.2096C19.2128 23.7545 18.7544 23.4644 18.2508 23.4644H3.44678C2.39716 23.5054 1.48222 22.7561 1.31554 21.719C1.25594 21.167 1.43386 20.6156 1.80491 20.2026C2.17596 19.7895 2.70513 19.5537 3.26038 19.5539H10.4297C11.1496 19.5539 11.7332 18.9703 11.7332 18.2505C11.7332 17.5306 11.1496 16.947 10.4297 16.947H2.14327C1.09469 16.9876 0.180426 16.24 0.0120228 15.2042ZM21.7077 71.6826C21.1589 71.7419 20.6109 71.5635 20.2022 71.1925C19.7915 70.8201 19.5564 70.2922 19.5543 69.7378V69.7183V62.5687C19.5543 61.8488 18.9707 61.2652 18.2508 61.2652C17.5309 61.2652 16.9473 61.8488 16.9473 62.5687V69.7378V69.7561V70.8575C16.9831 71.9108 16.2274 72.8253 15.1862 72.9887C14.6385 73.0483 14.0916 72.8698 13.6846 72.4986C13.273 72.1258 13.0377 71.5967 13.0367 71.0413V68.4344V68.4083V62.5687C13.0367 61.8488 12.4531 61.2652 11.7332 61.2652C11.0133 61.2652 10.4297 61.8488 10.4297 62.5687V68.4344V68.45C10.4262 69.0027 10.189 69.5281 9.77665 69.8962C9.36432 70.2643 8.81546 70.4407 8.26588 70.3818C7.22722 70.2156 6.4769 69.299 6.51917 68.248V65.8274V65.8079V59.9618C6.51917 59.2419 5.93556 58.6583 5.21565 58.6583C4.49574 58.6583 3.91214 59.2419 3.91214 59.9618V65.8274V65.8391C3.90972 66.3923 3.67312 66.9185 3.26096 67.2874C2.8488 67.6564 2.29965 67.8334 1.74961 67.7748C0.71125 67.6087 -0.039315 66.693 0.0015947 65.6423V46.3391C0.00360343 46.1043 0.0650397 45.8738 0.180176 45.6691L3.35163 40.3952C3.7146 39.7888 3.90817 39.096 3.91214 38.3892V26.0713H15.4978L13.6481 28.3302C12.4556 29.7807 12.3708 31.8464 13.4404 33.3897C14.5099 34.933 16.474 35.5788 18.2508 34.9715V39.3407C18.2551 40.3666 18.6624 41.3497 19.3849 42.078L31.5414 54.3307C31.5558 54.3464 31.5701 54.3607 31.5857 54.375L32.1163 54.9095C32.573 55.3744 32.7059 56.0681 32.4532 56.6688C32.2005 57.2696 31.6118 57.6598 30.9601 57.6585C30.6053 57.6601 30.2606 57.541 29.9824 57.3209L25.6039 53.7376C25.2142 53.4121 24.6708 53.3426 24.2117 53.5594C23.7525 53.7763 23.4611 54.2401 23.4649 54.7478V69.5514C23.5009 70.6035 22.7473 71.5175 21.7077 71.6826ZM72.988 57.7941C73.0484 58.3465 72.8708 58.8986 72.4997 59.3122C72.1285 59.7259 71.5989 59.9621 71.0431 59.9618H62.5703C61.8504 59.9618 61.2668 60.5453 61.2668 61.2652C61.2668 61.9851 61.8504 62.5687 62.5703 62.5687H68.4361C68.9918 62.5674 69.5218 62.8026 69.8936 63.2155C70.2655 63.6284 70.4441 64.18 70.3848 64.7325C70.218 65.7713 69.301 66.5215 68.2497 66.4791H59.9633C59.2433 66.4791 58.6597 67.0627 58.6597 67.7826C58.6597 68.5025 59.2433 69.0861 59.9633 69.0861H65.8291C66.3848 69.0848 66.9147 69.32 67.2866 69.7329C67.6585 70.1458 67.8371 70.6974 67.7778 71.2499C67.6116 72.289 66.6942 73.0395 65.6427 72.9965H46.3389C46.1013 72.9947 45.8687 72.928 45.6663 72.8036L40.3949 69.6466C39.7882 69.2829 39.0948 69.0893 38.3875 69.0861H26.0719V57.4969L28.3296 59.3452C30.0222 60.6433 32.4089 60.5121 33.949 59.0363C35.0945 57.9271 35.494 56.255 34.9736 54.7478H39.3404C40.3662 54.7435 41.3494 54.3362 42.0777 53.6138L54.3412 41.4524L54.3868 41.408L54.9174 40.8867C55.5532 40.265 56.5712 40.272 57.1985 40.9023C57.771 41.4771 57.8269 42.3879 57.3289 43.0283L53.7442 47.408C53.4275 47.7973 53.3625 48.3338 53.5769 48.7875C53.7914 49.2412 54.2473 49.5315 54.7492 49.5339H69.5532C70.6028 49.4929 71.5178 50.2422 71.6845 51.2793C71.7441 51.8313 71.5661 52.3826 71.1951 52.7957C70.824 53.2088 70.2949 53.4446 69.7396 53.4444H62.5703C61.8504 53.4444 61.2668 54.028 61.2668 54.7478C61.2668 55.4677 61.8504 56.0513 62.5703 56.0513H70.8606C71.9078 56.0127 72.8197 56.7599 72.988 57.7941ZM72.9984 26.6592C72.9964 26.8966 72.9302 27.129 72.8068 27.3318L69.6484 32.603C69.2848 33.2093 69.0912 33.9022 69.0879 34.6091V46.927H57.4983L59.348 44.668C60.6906 42.99 60.5564 40.5707 59.0365 39.0514C57.8978 37.9587 56.2513 37.5793 54.7492 38.0633V33.6576C54.7449 32.6317 54.3376 31.6486 53.6151 30.9203L41.4534 18.6493L41.4286 18.6245L40.8902 18.0823C40.5848 17.7806 40.4142 17.3684 40.4172 16.9391C40.4201 16.5098 40.5964 16.1 40.9059 15.8025C41.4885 15.2466 42.387 15.1916 43.0332 15.6722L47.4117 19.2554C47.8011 19.5705 48.3366 19.6346 48.7893 19.4203C49.242 19.206 49.5319 18.7513 49.5351 18.2505V3.44685C49.4948 2.39702 50.2445 1.4823 51.2819 1.31566C51.8337 1.25646 52.3847 1.43456 52.7975 1.80555C53.2102 2.17654 53.4459 2.70546 53.4457 3.26045V10.4296C53.4457 11.1495 54.0293 11.7331 54.7492 11.7331C55.4691 11.7331 56.0527 11.1495 56.0527 10.4296V2.14337C56.0118 1.09335 56.7618 0.178275 57.7994 0.0121813C58.3513 -0.0470171 58.9022 0.131081 59.315 0.502071C59.7278 0.873062 59.9635 1.40199 59.9633 1.95697V10.4296C59.9633 11.1495 60.5469 11.7331 61.2668 11.7331C61.9867 11.7331 62.5703 11.1495 62.5703 10.4296V4.56393C62.5693 4.00849 62.8047 3.47886 63.2175 3.10729C63.6304 2.73572 64.1818 2.55728 64.7341 2.61653C65.7728 2.78274 66.5231 3.69933 66.4808 4.75032V13.0365C66.4808 13.7564 67.0644 14.34 67.7843 14.34C68.5043 14.34 69.0879 13.7564 69.0879 13.0365V7.17088C69.0869 6.61545 69.3223 6.08582 69.7351 5.71425C70.148 5.34268 70.6994 5.16424 71.2517 5.22349C72.2895 5.39018 73.0394 6.30567 72.9984 7.35598V26.6592Z" fill="url(#paint0_linear_222_2223)"/>
<defs>
<linearGradient id="paint0_linear_222_2223" x1="4.5" y1="3" x2="68" y2="73" gradientUnits="userSpaceOnUse">
<stop stop-color="#4197EA"/>
<stop offset="1" stop-color="#8A5CD0"/>
</linearGradient>
</defs>
</svg>
