<svg width="59" height="71" viewBox="0 0 59 71" fill="none" xmlns="http://www.w3.org/2000/svg">
<path d="M2.66 70.2329C3.01299 70.0579 3.40161 69.9669 3.79557 69.9669C4.18952 69.9669 4.57815 70.0579 4.93113 70.2329L6.32447 70.9295L7.7178 70.2316C8.07009 70.0551 8.45869 69.9632 8.85273 69.9632C9.24677 69.9632 9.63538 70.0551 9.98767 70.2316L11.381 70.9283L12.7743 70.2291C13.1268 70.0547 13.5148 69.9641 13.908 69.9641C14.3012 69.9641 14.6892 70.0547 15.0417 70.2291L16.435 70.9295L17.8283 70.2291C18.1811 70.0556 18.5689 69.9654 18.962 69.9654C19.3551 69.9654 19.7429 70.0556 20.0957 70.2291L21.5042 70.9333L22.8975 70.2329C23.2498 70.0586 23.6375 69.9679 24.0306 69.9679C24.4236 69.9679 24.8113 70.0586 25.1636 70.2329L26.5683 70.9333L28.5342 69.9504C28.722 69.8634 28.9264 69.8183 29.1333 69.8183C29.3403 69.8183 29.5447 69.8634 29.7325 69.9504L31.6983 70.9333L33.098 70.2329C33.4503 70.0586 33.838 69.9679 34.231 69.9679C34.6241 69.9679 35.0118 70.0586 35.3641 70.2329L36.7637 70.9333L38.1571 70.2329C38.5098 70.0594 38.8977 69.9692 39.2907 69.9692C39.6838 69.9692 40.0717 70.0594 40.4244 70.2329L41.8177 70.9333L43.2111 70.2341C43.5636 70.0598 43.9515 69.9691 44.3447 69.9691C44.738 69.9691 45.1259 70.0598 45.4784 70.2341L46.8895 70.9333L48.2828 70.2341C48.6354 70.0586 49.0239 69.9672 49.4177 69.9672C49.8116 69.9672 50.2001 70.0586 50.5527 70.2341L51.946 70.9308L53.3393 70.2329C53.6914 70.0579 54.0792 69.9669 54.4724 69.9669C54.8655 69.9669 55.2533 70.0579 55.6054 70.2329L57 70.9333L58.2667 70.3V67.2879C58.2667 66.6389 58.1001 66.0008 57.7828 65.4347C57.1052 64.1832 56.5287 62.8794 56.0589 61.5359C54.6064 57.49 54.1336 53.1573 54.6795 48.8933L54.8264 47.7255C55.4046 43.6643 55.7076 39.5687 55.7333 35.4667C55.7074 31.3629 55.404 27.2656 54.8251 23.2028L54.6782 22.0349C54.1332 17.7726 54.6059 13.4418 56.0576 9.3974C56.5278 8.05307 57.1047 6.74847 57.7828 5.49607C58.0998 4.93078 58.2664 4.29358 58.2667 3.64547V0.633333L57 0L55.6067 0.6992C55.2537 0.874128 54.8651 0.965141 54.4711 0.965141C54.0772 0.965141 53.6885 0.874128 53.3355 0.6992L51.9447 0L50.5514 0.697933C50.1991 0.874463 49.8105 0.966381 49.4165 0.966381C49.0224 0.966381 48.6338 0.874463 48.2815 0.697933L46.8895 0L45.4961 0.6992C45.1436 0.873518 44.7557 0.964201 44.3625 0.964201C43.9692 0.964201 43.5813 0.873518 43.2288 0.6992L41.8253 0L40.432 0.700467C40.0794 0.874503 39.6915 0.965029 39.2983 0.965029C38.9052 0.965029 38.5172 0.874503 38.1647 0.700467L36.7625 0L35.3691 0.700467C35.0169 0.874769 34.6291 0.965447 34.2361 0.965447C33.8431 0.965447 33.4553 0.874769 33.1031 0.700467L31.6983 0L29.7325 0.982933C29.5447 1.06994 29.3403 1.115 29.1333 1.115C28.9264 1.115 28.722 1.06994 28.5342 0.982933L26.5683 0L25.1687 0.700467C24.8164 0.874769 24.4287 0.965447 24.0356 0.965447C23.6426 0.965447 23.2549 0.874769 22.9026 0.700467L21.5029 0L20.1096 0.700467C19.757 0.874503 19.3691 0.965029 18.9759 0.965029C18.5827 0.965029 18.1948 0.874503 17.8423 0.700467L16.4401 0L15.0467 0.6992C14.6942 0.873518 14.3063 0.964201 13.9131 0.964201C13.5198 0.964201 13.1319 0.873518 12.7794 0.6992L11.3772 0L9.98387 0.6992C9.6313 0.874775 9.2428 0.966156 8.84893 0.966156C8.45507 0.966156 8.06657 0.874775 7.714 0.6992L6.32193 0L4.9286 0.697933C4.57661 0.87318 4.18877 0.964388 3.79557 0.964388C3.40237 0.964388 3.01452 0.87318 2.66253 0.697933L1.26667 0L4.0565e-09 0.633333V3.64547C-3.00175e-05 4.29442 0.166579 4.9325 0.483867 5.4986C1.1615 6.75018 1.73798 8.05393 2.2078 9.3974C3.6603 13.4434 4.13303 17.776 3.5872 22.04L3.44027 23.2079C2.8621 27.269 2.5591 31.3646 2.53333 35.4667C2.55929 39.5704 2.86271 43.6677 3.44153 47.7305L3.58847 48.8984C4.13348 53.1607 3.66077 57.4915 2.20907 61.5359C1.73886 62.8803 1.16196 64.1849 0.483867 65.4373C0.16684 66.0025 0.000233819 66.6398 4.0565e-09 67.2879V70.3L1.26667 70.9333L2.66 70.2329ZM3.8 6.33333C3.8 5.99739 3.93345 5.67521 4.171 5.43766C4.40854 5.20012 4.73073 5.06667 5.06667 5.06667H53.2C53.5359 5.06667 53.8581 5.20012 54.0957 5.43766C54.3332 5.67521 54.4667 5.99739 54.4667 6.33333C54.4667 6.66927 54.3332 6.99146 54.0957 7.229C53.8581 7.46655 53.5359 7.6 53.2 7.6H5.06667C4.73073 7.6 4.40854 7.46655 4.171 7.229C3.93345 6.99146 3.8 6.66927 3.8 6.33333ZM50.6667 35.4667C50.6667 39.7256 49.4038 43.8888 47.0376 47.4299C44.6715 50.9711 41.3085 53.7311 37.3738 55.3609C33.4391 56.9907 29.1094 57.4171 24.9324 56.5862C20.7553 55.7554 16.9185 53.7045 13.907 50.693C10.8955 47.6815 8.84463 43.8447 8.01376 39.6676C7.18289 35.4906 7.60932 31.1609 9.23913 27.2262C10.8689 23.2915 13.6289 19.9285 17.1701 17.5624C20.7112 15.1962 24.8744 13.9333 29.1333 13.9333C34.8424 13.9397 40.3158 16.2104 44.3527 20.2473C48.3896 24.2842 50.6603 29.7576 50.6667 35.4667ZM5.06667 63.3333H53.2C53.5359 63.3333 53.8581 63.4668 54.0957 63.7043C54.3332 63.9419 54.4667 64.2641 54.4667 64.6C54.4667 64.9359 54.3332 65.2581 54.0957 65.4957C53.8581 65.7332 53.5359 65.8667 53.2 65.8667H5.06667C4.73073 65.8667 4.40854 65.7332 4.171 65.4957C3.93345 65.2581 3.8 64.9359 3.8 64.6C3.8 64.2641 3.93345 63.9419 4.171 63.7043C4.40854 63.4668 4.73073 63.3333 5.06667 63.3333Z" fill="url(#paint0_linear_222_2224)"/>
<path d="M10.1328 35.467C10.1328 39.2249 11.2471 42.8983 13.3349 46.0229C15.4226 49.1474 18.39 51.5827 21.8618 53.0208C25.3336 54.4588 29.1539 54.8351 32.8395 54.102C36.5252 53.3689 39.9106 51.5593 42.5678 48.9021C45.225 46.2449 47.0346 42.8594 47.7677 39.1738C48.5009 35.4881 48.1246 31.6679 46.6865 28.1961C45.2485 24.7243 42.8132 21.7569 39.6887 19.6691C36.5641 17.5814 32.8907 16.467 29.1328 16.467C24.0955 16.4727 19.266 18.4763 15.7041 22.0383C12.1421 25.6003 10.1385 30.4297 10.1328 35.467ZM36.3098 27.045C36.5055 26.7471 36.7615 26.4935 37.0611 26.3004C37.3608 26.1074 37.6975 25.9792 38.0497 25.9241C38.4019 25.869 38.7617 25.8882 39.106 25.9804C39.4503 26.0727 39.7715 26.236 40.049 26.4598C41.4034 27.5343 42.4938 28.9048 43.2364 30.4662C43.9789 32.0275 44.354 33.7382 44.3328 35.467C44.3328 41.9068 40.6392 45.6004 34.1995 45.6004C31.4413 45.6207 28.7262 44.9161 26.3259 43.5572C24.9569 44.0482 23.5165 44.3106 22.0623 44.3337C20.3183 44.3682 18.6057 43.8674 17.1552 42.8986C16.1411 42.1938 15.3164 41.2498 14.7544 40.1501C14.1923 39.0505 13.9101 37.8291 13.9328 36.5944C13.9328 31.0134 16.8461 29.425 17.1755 29.2642V29.273C17.4193 29.1507 17.6963 29.1111 17.9646 29.1602C18.2329 29.2094 18.4779 29.3446 18.6625 29.5454C18.6739 29.5517 20.8083 31.667 26.5995 31.667C32.3907 31.667 35.171 28.7714 36.3098 27.045Z" fill="url(#paint1_linear_222_2224)"/>
<path d="M20.2578 33.2552C22.1806 37.1135 26.4075 43.0668 34.1987 43.0668C39.2413 43.0668 41.7987 40.5094 41.7987 35.4668C41.8171 34.118 41.5262 32.7829 40.9483 31.5641C40.3703 30.3452 39.5208 29.275 38.4649 28.4355C37.0044 30.5901 33.5793 34.2001 26.5987 34.2001C24.4472 34.2407 22.304 33.9213 20.2578 33.2552Z" fill="url(#paint2_linear_222_2224)"/>
<path d="M17.2774 32.7581C16.6901 33.9488 16.4118 35.2682 16.468 36.5948C16.4481 37.4183 16.6316 38.234 17.0021 38.9697C17.3726 39.7055 17.9188 40.3385 18.5922 40.8128C20.0901 41.7416 21.8927 42.045 23.612 41.6577C20.8658 39.1984 18.7018 36.1582 17.2774 32.7581Z" fill="url(#paint3_linear_222_2224)"/>
<defs>
<linearGradient id="paint0_linear_222_2224" x1="29.1333" y1="0" x2="29.1333" y2="70.9333" gradientUnits="userSpaceOnUse">
<stop stop-color="#4197EA"/>
<stop offset="1" stop-color="#8A5CD0"/>
</linearGradient>
<linearGradient id="paint1_linear_222_2224" x1="29.1328" y1="16.467" x2="29.1328" y2="54.4671" gradientUnits="userSpaceOnUse">
<stop stop-color="#4197EA"/>
<stop offset="1" stop-color="#8A5CD0"/>
</linearGradient>
<linearGradient id="paint2_linear_222_2224" x1="31.0287" y1="28.4355" x2="31.0287" y2="43.0668" gradientUnits="userSpaceOnUse">
<stop stop-color="#4197EA"/>
<stop offset="1" stop-color="#8A5CD0"/>
</linearGradient>
<linearGradient id="paint3_linear_222_2224" x1="20.0365" y1="32.7581" x2="20.0365" y2="41.822" gradientUnits="userSpaceOnUse">
<stop stop-color="#4197EA"/>
<stop offset="1" stop-color="#8A5CD0"/>
</linearGradient>
</defs>
</svg>
