<svg width="30" height="30" viewBox="0 0 30 30" fill="none" xmlns="http://www.w3.org/2000/svg">
<path fill-rule="evenodd" clip-rule="evenodd" d="M5.00001 0H24.9999C27.7499 0 29.9999 2.25 30 5.00001V25C30 27.75 27.75 30 25 30H5.00001C2.25 30 0 27.75 0 25V5.00001C0 2.25 2.25 0 5.00001 0ZM9.63664 12.2365C10.5855 12.2365 11.2776 12.4855 11.7127 12.9835C12.1477 13.4815 12.2786 14.1766 12.1051 15.0691C12.0336 15.4367 11.9127 15.7728 11.7427 16.0774C11.5723 16.3821 11.3501 16.6607 11.0752 16.9133C10.7477 17.2199 10.3839 17.4382 9.98359 17.5683C9.5832 17.6988 9.07328 17.7637 8.4534 17.7637H7.04859L6.65953 19.7653H5.01953L6.48281 12.2365H9.63664ZM9.75461 16.2018C10.0782 15.9527 10.2965 15.5368 10.4099 14.9541C10.5186 14.3945 10.469 13.9997 10.2616 13.7696C10.054 13.5395 9.63875 13.4246 9.01563 13.4246H7.89188L7.27945 16.5756H8.27719C8.93832 16.5756 9.43086 16.451 9.75461 16.2018ZM17.5156 17.7637L18.1964 14.2602C18.3348 13.5475 18.2312 13.0319 17.8848 12.7137C17.5386 12.3957 16.9094 12.2365 15.9975 12.2365H14.5478L14.9368 10.2349H13.3096L11.8464 17.7637H13.4736L14.3118 13.4504H15.6121C16.0284 13.4504 16.3007 13.5194 16.4285 13.6573C16.5565 13.7951 16.5835 14.0536 16.5099 14.4326L15.8626 17.7637H17.5156ZM22.438 12.2365C23.3866 12.2365 24.0788 12.4855 24.5138 12.9835C24.949 13.4815 25.0798 14.1766 24.9063 15.0691C24.8348 15.4367 24.7139 15.7728 24.5439 16.0774C24.3736 16.3821 24.1512 16.6607 23.8764 16.9133C23.5489 17.2199 23.185 17.4382 22.7848 17.5683C22.3843 17.6988 21.8746 17.7637 21.2547 17.7637H19.8499L19.4609 19.7653H17.8209L19.2841 12.2365H22.438ZM22.5557 16.2018C22.8795 15.9527 23.0978 15.5368 23.2112 14.9541C23.3197 14.3945 23.2703 13.9997 23.0629 13.7696C22.8552 13.5395 22.44 13.4246 21.8168 13.4246H20.6932L20.0808 16.5756H21.0783C21.7395 16.5756 22.2322 16.451 22.5557 16.2018Z" fill="white"/>
</svg>
