<svg width="847" height="87" viewBox="0 0 847 87" fill="none" xmlns="http://www.w3.org/2000/svg">
<g clip-path="url(#clip0_1087_134)">
<path d="M10.7694 82.0842H0V6.67989H23.6694C27.9964 6.57462 32.303 7.30391 36.3541 8.82789C39.7027 10.1422 42.6088 12.3811 44.7338 15.2836C47.537 19.3741 48.9643 24.2513 48.8087 29.2077C48.9903 32.2482 48.5073 35.2917 47.3935 38.1266C46.2796 40.9615 44.5615 43.5197 42.3587 45.6234C37.2487 49.7345 30.7893 51.7924 24.2428 51.3951H10.7694V82.0842ZM10.7694 16.1829V41.8979H22.412C25.6197 42.0499 28.8138 41.388 31.697 39.974C33.6026 38.8288 35.1457 37.1684 36.1484 35.1842C37.1511 33.2 37.5725 30.9729 37.3641 28.7595C37.5641 26.7221 37.1937 24.6692 36.2942 22.8301C35.3947 20.9911 34.0016 19.4384 32.2704 18.3455C29.0443 16.7306 25.4524 15.9862 21.8503 16.1858L10.7694 16.1829Z" fill="#0A0B09"/>
<path d="M99.1685 83.6789C93.537 83.744 87.9482 82.6955 82.7233 80.5936C77.6816 78.4758 73.1409 75.3225 69.3954 71.338C65.8751 67.7942 63.0924 63.5874 61.2083 58.9612C59.3243 54.3349 58.3764 49.381 58.4194 44.3861C58.3783 39.3099 59.3597 34.2773 61.3049 29.5884C63.2501 24.8995 66.1194 20.6501 69.7418 17.0936C73.492 13.2161 77.9999 10.1517 82.9853 8.09122C88.1341 6.05156 93.6307 5.03334 99.1685 5.09332C104.597 5.03877 109.984 6.04733 115.026 8.06211C119.96 10.1179 124.427 13.1504 128.159 16.9772C131.815 20.5351 134.714 24.7964 136.68 29.5045C138.646 34.2125 139.638 39.2697 139.597 44.3715C139.633 49.4128 138.661 54.4103 136.736 59.0699C134.713 63.7818 131.801 68.0598 128.159 71.6698C124.408 75.5205 119.924 78.5805 114.97 80.6693C109.953 82.7035 104.583 83.7262 99.1685 83.6789ZM99.0783 8.64132C94.3631 8.49249 89.6703 9.35 85.3124 11.1567C80.9546 12.9635 77.0317 15.6779 73.8051 19.1194C67.3442 25.9812 63.8319 35.103 64.0224 44.5258C63.823 53.9095 67.3391 62.9919 73.8051 69.7954C77.0534 73.1985 80.9838 75.8773 85.3391 77.6564C89.6943 79.4354 94.3762 80.2747 99.0783 80.1192C103.747 80.2707 108.396 79.4425 112.725 77.6879C117.055 75.9334 120.969 73.2914 124.215 69.9322C127.441 66.5523 129.967 62.5673 131.646 58.2068C133.325 53.8463 134.124 49.1966 133.997 44.5258C134.21 35.0783 130.696 25.9267 124.215 19.0495C121.001 15.6338 117.098 12.9397 112.765 11.1454C108.431 9.35109 103.766 8.49757 99.0783 8.64132Z" fill="#0A0B09"/>
<path d="M150.434 82.081H161.188V6.66797H150.434V82.081Z" fill="#0A0B09"/>
<path d="M234.151 83.65L182.629 28.9806V82.0841H173.117V5.06445L224.636 59.4398V6.67982H234.148L234.151 83.65Z" fill="#0A0B09"/>
<path d="M292.984 16.1769H273.96V82.081H263.205V16.1769H244.178V6.67383H292.984V16.1769Z" fill="#0A0B09"/>
<path d="M350.393 63.1736C350.469 66.0367 349.861 68.8768 348.621 71.4582C347.38 74.0397 345.542 76.2883 343.259 78.0175C338.279 81.8667 332.118 83.8676 325.827 83.6786C322.079 83.6731 318.348 83.177 314.728 82.2029C310.115 80.962 305.723 79.0109 301.709 76.4196L306.351 67.4783C312.015 71.7885 318.928 74.1383 326.045 74.1727C327.885 74.3096 329.733 74.0575 331.47 73.4326C333.206 72.8078 334.791 71.8243 336.122 70.5461C338.022 68.4871 339.039 65.7647 338.954 62.964C338.954 58.3556 336.35 54.4661 331.142 51.2955C330.389 50.8376 326.878 49.0195 320.611 45.8411C316.711 44.0879 313.119 41.7185 309.972 38.8237C308.126 36.9686 306.672 34.7598 305.7 32.3297C304.727 29.8996 304.255 27.2982 304.311 24.6812C304.279 22.0689 304.832 19.4826 305.928 17.1112C307.025 14.7399 308.637 12.6435 310.648 10.9753C315.57 6.91502 321.821 4.81973 328.196 5.09307C331.387 5.0664 334.572 5.35006 337.708 5.94005C340.927 6.62078 344.048 7.7053 346.996 9.16788L342.237 18.3362C338.023 15.8469 333.209 14.5557 328.315 14.6019C326.502 14.4713 324.682 14.7158 322.968 15.3203C321.253 15.9247 319.682 16.8761 318.352 18.115C317.518 18.9447 316.858 19.9325 316.411 21.0205C315.963 22.1086 315.738 23.2749 315.747 24.4513C315.747 28.984 319.559 33.2529 327.183 37.2578C330.73 39.0682 334.32 40.8796 337.952 42.6919C341.469 44.6071 344.52 47.2744 346.888 50.5039C349.319 54.2767 350.544 58.6996 350.401 63.1852" fill="#0A0B09"/>
<path d="M440.475 83.6788C434.844 83.7438 429.255 82.6953 424.03 80.5936C418.988 78.4753 414.448 75.322 410.702 71.338C407.182 67.7941 404.399 63.5874 402.515 58.9611C400.631 54.3349 399.683 49.381 399.726 44.386C399.686 39.3102 400.667 34.2781 402.612 29.5893C404.556 24.9005 407.424 20.6509 411.046 17.0936C414.797 13.2161 419.306 10.1517 424.292 8.09117C429.441 6.05202 434.937 5.03382 440.475 5.09328C445.906 5.0379 451.295 6.04647 456.338 8.06207C461.273 10.1185 465.741 13.1509 469.474 16.9772C473.13 20.5383 476.028 24.8024 477.994 29.5127C479.959 34.2231 480.951 39.2823 480.91 44.386C480.946 49.4273 479.973 54.4247 478.049 59.0844C476.026 63.7954 473.116 68.0731 469.477 71.6843C465.724 75.5352 461.238 78.5952 456.283 80.6838C451.262 82.7137 445.89 83.7315 440.475 83.6788ZM440.388 8.64127C435.671 8.49138 430.977 9.34837 426.617 11.1551C422.258 12.9619 418.334 15.6769 415.106 19.1193C408.646 25.9817 405.134 35.1031 405.323 44.5258C405.125 53.9093 408.641 62.9914 415.106 69.7954C418.355 73.1996 422.287 75.879 426.644 77.6581C431.001 79.4372 435.684 80.2759 440.388 80.1192C445.056 80.2702 449.705 79.4418 454.033 77.6873C458.362 75.9327 462.276 73.291 465.521 69.9322C468.747 66.5519 471.271 62.5667 472.949 58.2062C474.627 53.8457 475.426 49.1962 475.298 44.5258C475.511 35.074 471.994 25.9185 465.507 19.0408C462.294 15.629 458.393 12.9379 454.063 11.1452C449.733 9.35254 445.072 8.49909 440.388 8.64127Z" fill="#0A0B09"/>
<path d="M538.049 16.1769H502.489V36.449H537.723V45.952H502.489V82.081H491.734V6.67383H538.049V16.1769Z" fill="#0A0B09"/>
<path d="M652.251 6.67383L624.969 57.3964V82.081H614.2V57.3964L586.924 6.67383H598.587L619.544 45.8443L640.59 6.67383H652.251Z" fill="#0A0B09"/>
<path d="M814.831 51.5171C815.139 58.4224 813.533 65.2785 810.192 71.3294C805.146 79.5527 796.278 83.6663 783.585 83.6702C773.245 83.6702 765.412 80.8207 760.088 75.1218C754.763 69.4229 752.106 61.5547 752.115 51.5171V6.67676H762.864V51.8518C762.609 56.8054 763.706 61.7351 766.037 66.1136C769.277 71.471 775.09 74.1507 783.475 74.1526C791.927 74.1526 797.739 71.5506 800.909 66.3465C803.253 61.8867 804.348 56.8767 804.079 51.846V6.67676H814.828L814.831 51.5171Z" fill="#0A0B09"/>
<path d="M94.4297 44.383C94.4297 43.4775 94.6982 42.5923 95.2013 41.8394C95.7044 41.0865 96.4194 40.4997 97.256 40.1532C98.0926 39.8067 99.0132 39.716 99.9014 39.8927C100.789 40.0693 101.605 40.5054 102.246 41.1457C102.886 41.7859 103.322 42.6017 103.499 43.4898C103.675 44.3779 103.585 45.2985 103.238 46.1351C102.892 46.9717 102.305 47.6867 101.552 48.1898C100.799 48.6928 99.9137 48.9614 99.0081 48.9614C97.7939 48.9614 96.6293 48.479 95.7707 47.6204C94.9121 46.7618 94.4297 45.5973 94.4297 44.383Z" fill="#0A0B09"/>
<path d="M435.793 82.4123C435.794 81.5067 436.064 80.6218 436.567 79.8693C437.071 79.1168 437.787 78.5306 438.624 78.1845C439.461 77.8385 440.381 77.7483 441.27 77.9252C442.158 78.1022 442.973 78.5384 443.614 79.1787C444.254 79.8191 444.69 80.6348 444.867 81.523C445.044 82.4111 444.954 83.3318 444.608 84.1686C444.262 85.0055 443.676 85.7211 442.923 86.2249C442.171 86.7287 441.286 86.9983 440.38 86.9994C439.778 87.0002 439.181 86.882 438.624 86.6518C438.067 86.4215 437.561 86.0837 437.135 85.6576C436.709 85.2315 436.371 84.7255 436.141 84.1686C435.91 83.6118 435.792 83.0149 435.793 82.4123Z" fill="#0A0B09"/>
<path d="M435.793 6.91234C435.794 6.00675 436.064 5.12182 436.567 4.36933C437.071 3.61684 437.787 3.03055 438.624 2.68453C439.461 2.33851 440.381 2.24827 441.27 2.42523C442.158 2.60218 442.973 3.03838 443.614 3.67873C444.254 4.31908 444.69 5.13484 444.867 6.02298C445.044 6.91111 444.954 7.83176 444.608 8.66864C444.262 9.50551 443.676 10.2211 442.923 10.7249C442.171 11.2287 441.286 11.4983 440.38 11.4994C439.778 11.5002 439.181 11.382 438.624 11.1518C438.067 10.9215 437.561 10.5837 437.135 10.1576C436.709 9.73149 436.371 9.22551 436.141 8.66864C435.91 8.11176 435.792 7.51493 435.793 6.91234Z" fill="#0A0B09"/>
<path d="M438.828 82.8407H441.96V5.64062H438.828V82.8407Z" fill="#0A0B09"/>
<path d="M724.897 77.6369L700.073 59.4633L675.291 77.5962L684.605 48.1412L659.795 29.9675L690.357 29.9966L697.994 5.83887H701.487L709.375 30.0199L740.228 30.0548L715.319 48.2867L724.895 77.6311L724.897 77.6369ZM687.225 50.0534L681.043 69.5805L697.462 57.5598L687.225 50.0534ZM712.714 50.196L702.666 57.5511L719.024 69.531L712.714 50.196ZM692.595 33.0731L688.203 46.9624L700.067 55.6475L711.709 47.1225L707.131 33.0877L692.595 33.0731ZM710.35 33.0906L714.306 45.2131L730.838 33.1139L710.35 33.0906ZM669.196 33.044L685.586 45.0501L689.37 33.0673L669.196 33.044ZM699.758 10.4638L693.558 29.9966H706.121L699.758 10.4638Z" fill="#0A0B09"/>
<path d="M700.169 83.5919C694.536 83.6571 688.946 82.6086 683.721 80.5067C678.678 78.3882 674.136 75.2362 670.387 71.254C666.867 67.7063 664.086 63.4962 662.204 58.867C660.321 54.2379 659.375 49.2816 659.419 44.2846C659.382 39.2107 660.365 34.1811 662.311 29.495C664.256 24.8088 667.124 20.5618 670.745 17.0067C674.495 13.1296 679.003 10.0653 683.988 8.00427C689.136 5.96505 694.632 4.94684 700.169 5.00637C705.599 4.95091 710.989 5.95949 716.032 7.97516C720.966 10.0311 725.435 13.0635 729.167 16.8903C732.816 20.5051 735.729 24.7929 737.745 29.5163C739.668 34.2006 740.639 39.2211 740.601 44.2846C740.638 49.3263 739.667 54.3246 737.745 58.9859C735.724 63.699 732.811 67.9773 729.167 71.5858C725.415 75.4363 720.93 78.4963 715.976 80.5853C710.957 82.6193 705.585 83.6411 700.169 83.5919ZM700.084 8.55436C695.369 8.40427 690.677 9.2612 686.319 11.068C681.961 12.8748 678.039 15.59 674.814 19.0324C668.352 25.8936 664.841 35.0161 665.034 44.4388C664.827 53.8268 668.343 62.9155 674.814 69.7201C678.061 73.1242 681.991 75.8036 686.346 77.5828C690.701 79.3619 695.382 80.2006 700.084 80.0439C704.753 80.1961 709.402 79.3682 713.732 77.6136C718.061 75.859 721.975 73.2167 725.221 69.8569C728.448 66.4786 730.975 62.4942 732.654 58.134C734.333 53.7737 735.131 49.124 735.003 44.4534C735.218 35.0055 731.704 25.8531 725.221 18.9771C722.008 15.5587 718.106 12.8617 713.772 11.0648C709.439 9.268 704.773 8.41228 700.084 8.55436Z" fill="#0A0B09"/>
<path d="M680.269 79.0949C679.736 79.8271 678.997 80.3848 678.147 80.6974C677.297 81.01 676.373 81.0636 675.492 80.8513C674.611 80.6391 673.814 80.1705 673.199 79.5048C672.585 78.8391 672.181 78.0062 672.04 77.1114C671.899 76.2166 672.026 75.3 672.406 74.4776C672.786 73.6551 673.401 72.9637 674.173 72.4906C674.946 72.0176 675.841 71.7842 676.747 71.82C677.652 71.8558 678.526 72.1591 679.259 72.6916C679.746 73.0453 680.159 73.4916 680.474 74.0049C680.788 74.5182 680.999 75.0886 681.093 75.6833C681.187 76.278 681.163 76.8854 681.022 77.4708C680.881 78.0562 680.626 78.608 680.272 79.0949" fill="#0A0B09"/>
<path d="M726.508 73.7129C727.039 74.4459 727.34 75.3196 727.374 76.2238C727.408 77.128 727.174 78.0219 726.7 78.7926C726.226 79.5634 725.534 80.1763 724.711 80.5538C723.889 80.9314 722.973 81.0567 722.08 80.9139C721.186 80.7711 720.355 80.3666 719.692 79.7515C719.028 79.1365 718.562 78.3384 718.352 77.4584C718.142 76.5783 718.197 75.6557 718.511 74.8072C718.825 73.9587 719.384 73.2223 720.117 72.6913C720.603 72.3358 721.155 72.0801 721.741 71.9388C722.327 71.7976 722.935 71.7736 723.53 71.8683C724.126 71.963 724.696 72.1744 725.209 72.4905C725.722 72.8066 726.168 73.2211 726.52 73.71" fill="#0A0B09"/>
<path d="M662.36 35.9926C661.5 35.7121 660.742 35.183 660.183 34.4721C659.623 33.7613 659.287 32.9006 659.217 31.9988C659.147 31.097 659.345 30.1946 659.787 29.4055C660.23 28.6165 660.896 27.9763 661.702 27.5658C662.508 27.1552 663.418 26.9928 664.316 27.099C665.214 27.2053 666.061 27.5754 666.749 28.1626C667.437 28.7498 667.936 29.5278 668.182 30.3982C668.428 31.2686 668.41 32.1925 668.131 33.053C667.946 33.6253 667.65 34.1555 667.259 34.6131C666.868 35.0707 666.391 35.4468 665.855 35.7199C665.319 35.9929 664.734 36.1576 664.135 36.2044C663.535 36.2512 662.932 36.1792 662.36 35.9926Z" fill="#0A0B09"/>
<path d="M734.836 27.2864C735.697 27.0047 736.623 26.9849 737.496 27.2296C738.369 27.4744 739.15 27.9725 739.739 28.6611C740.329 29.3496 740.701 30.1976 740.808 31.0977C740.916 31.9978 740.754 32.9096 740.343 33.7176C739.932 34.5256 739.291 35.1935 738.5 35.6368C737.709 36.0802 736.805 36.2789 735.901 36.208C734.997 36.1371 734.135 35.7997 733.423 35.2384C732.711 34.6772 732.182 33.9174 731.902 33.0551C731.715 32.4837 731.643 31.8811 731.689 31.2818C731.736 30.6825 731.9 30.0982 732.173 29.5624C732.445 29.0266 732.821 28.5498 733.278 28.1592C733.735 27.7687 734.264 27.4721 734.836 27.2864Z" fill="#0A0B09"/>
<path d="M698.655 1.19079C699.517 0.909642 700.442 0.890438 701.315 1.13561C702.188 1.38077 702.968 1.87929 703.557 2.56808C704.146 3.25687 704.518 4.10496 704.625 5.00504C704.732 5.90511 704.57 6.81672 704.159 7.62449C703.747 8.43226 703.106 9.0999 702.315 9.5429C701.524 9.98591 700.62 10.1844 699.716 10.1132C698.812 10.042 697.95 9.70435 697.238 9.14298C696.527 8.58161 695.998 7.82175 695.718 6.95955C695.531 6.38796 695.459 5.78518 695.506 5.18572C695.553 4.58626 695.717 4.00188 695.99 3.46604C696.263 2.93021 696.638 2.45343 697.096 2.06301C697.553 1.67259 698.083 1.3762 698.655 1.19079Z" fill="#0A0B09"/>
<path d="M837.939 18.1186C836.727 18.1246 835.527 17.8829 834.411 17.4084C833.334 16.9554 832.353 16.2993 831.524 15.4758C830.701 14.6451 830.044 13.6652 829.588 12.5885C829.121 11.47 828.881 10.27 828.881 9.05795C828.881 7.8459 829.121 6.64589 829.588 5.52743C830.502 3.35076 832.234 1.61992 834.411 0.707515C835.53 0.240481 836.73 0 837.942 0C839.154 0 840.354 0.240481 841.473 0.707515C843.648 1.62281 845.379 3.35418 846.293 5.53034C846.76 6.6488 847 7.84881 847 9.06087C847 10.2729 846.76 11.4729 846.293 12.5914C845.836 13.6683 845.178 14.6482 844.354 15.4787C843.525 16.3013 842.546 16.9573 841.47 17.4113C840.353 17.885 839.152 18.1257 837.939 18.1186ZM837.939 1.03932C836.866 1.03223 835.802 1.24726 834.816 1.67092C832.897 2.48861 831.368 4.01637 830.549 5.93491C830.125 6.92115 829.91 7.9845 829.917 9.05795C829.91 10.1333 830.125 11.1985 830.549 12.1868C831.372 14.1026 832.9 15.6291 834.816 16.4508C835.803 16.8749 836.868 17.0899 837.942 17.0824C839.016 17.0894 840.081 16.8744 841.068 16.4508C842.982 15.6278 844.508 14.1015 845.329 12.1868C845.753 11.1985 845.968 10.1333 845.961 9.05795C845.968 7.9845 845.753 6.92115 845.329 5.93491C844.511 4.01691 842.983 2.48923 841.065 1.67092C840.078 1.24735 839.013 1.03233 837.939 1.03932ZM839.651 14.0729C839.097 13.0775 838.574 12.1286 838.134 11.3253C837.788 10.6908 837.52 10.2076 837.337 9.8962C837.153 9.58477 837.045 9.42178 837.011 9.36357C836.976 9.30535 836.926 9.28789 836.894 9.28789C836.874 9.28451 836.853 9.28935 836.836 9.30134C836.819 9.31333 836.807 9.33151 836.804 9.35192C836.796 9.46528 836.796 9.5791 836.804 9.69246C836.804 10.0592 836.804 10.4725 836.804 10.9207C836.804 11.27 836.821 11.6163 836.833 11.9511V12.2217V12.3731C836.848 12.7369 836.862 13.0629 836.88 13.3627C836.897 13.6625 836.912 13.9244 836.932 14.0467L836.35 13.9972C836.175 13.971 835.977 13.971 835.762 13.971C835.547 13.971 835.372 13.971 835.18 13.9972H835.139L834.571 14.0438C834.571 13.9506 834.571 13.776 834.598 13.5519C834.618 13.2434 834.633 12.8941 834.647 12.5128C834.662 12.1315 834.679 11.5727 834.697 10.8305C834.714 10.1814 834.723 9.37521 834.723 8.40308C834.723 7.5299 834.723 6.93032 834.723 6.44135C834.702 5.90871 834.702 5.46048 834.676 5.11413C834.65 4.76777 834.641 4.4738 834.624 4.24095C834.606 4.00811 834.595 3.85094 834.574 3.65884C834.918 3.67339 835.244 3.68794 835.576 3.69668C835.907 3.70541 836.231 3.71123 836.551 3.71123C836.775 3.71123 837.048 3.71123 837.424 3.68212C837.834 3.66757 838.239 3.65884 838.667 3.65884C839.446 3.62024 840.211 3.87229 840.815 4.36611C841.075 4.59641 841.281 4.88109 841.419 5.19998C841.557 5.51887 841.623 5.86417 841.612 6.21141C841.621 6.54803 841.561 6.88286 841.437 7.19591C841.313 7.50896 841.127 7.7938 840.89 8.03343C840.423 8.5151 839.809 8.82743 839.144 8.92116L842.392 14.0671H842.148L841.711 14.0321C841.493 14.0176 841.263 14.0088 841.027 14.0088C840.791 14.0088 840.562 14.0088 840.343 14.0321L839.936 14.0641L839.645 14.0845L839.651 14.0729ZM836.871 4.46798C836.836 5.34115 836.818 6.11245 836.818 6.79644V8.64465H836.862C837.019 8.64465 837.22 8.64465 837.473 8.60682C837.753 8.5808 838.024 8.49863 838.271 8.36524C838.554 8.21043 838.787 7.97824 838.943 7.69581C839.151 7.29775 839.249 6.8519 839.228 6.40351C839.25 6.1402 839.218 5.8752 839.133 5.62489C839.049 5.37459 838.914 5.14429 838.737 4.94822C838.599 4.79988 838.433 4.68067 838.249 4.59767C838.064 4.51468 837.865 4.46958 837.663 4.46507L836.871 4.46798Z" fill="#1A1919"/>
</g>
<defs>
<clipPath id="clip0_1087_134">
<rect width="847" height="87" fill="white"/>
</clipPath>
</defs>
</svg>
