<svg width="86" height="74" viewBox="0 0 86 74" fill="none" xmlns="http://www.w3.org/2000/svg">
<path d="M24.2848 29.6777H10.396C9.7027 29.6777 9.14062 30.2396 9.14062 30.9331C9.14062 31.6266 9.7027 32.1885 10.396 32.1885H24.2848C24.9781 32.1885 25.5401 31.6266 25.5401 30.9331C25.5401 30.2396 24.9781 29.6777 24.2848 29.6777Z" fill="white"/>
<path d="M24.2848 23.4375H10.396C9.7027 23.4375 9.14062 23.9994 9.14062 24.6929C9.14062 25.3863 9.7027 25.9482 10.396 25.9482H24.2848C24.9781 25.9482 25.5401 25.3863 25.5401 24.6929C25.5401 23.9994 24.9781 23.4375 24.2848 23.4375Z" fill="white"/>
<path d="M82.6689 48.9954C82.4461 48.9954 82.2495 48.8555 82.1792 48.6476C81.9401 47.9392 81.6504 47.2403 81.3181 46.5701C81.2199 46.3714 81.2594 46.1322 81.4176 45.974C82.599 44.7924 82.599 42.87 81.4176 41.6883L78.5674 38.8383C77.3858 37.6571 75.4636 37.6567 74.2814 38.839C74.1239 38.9965 73.8847 39.0361 73.6862 38.9379C73.0156 38.6055 72.3165 38.3157 71.6088 38.0769C71.4004 38.0066 71.2604 37.8096 71.2604 37.5869C71.2604 35.9161 69.901 34.5566 68.2301 34.5566H64.1994C62.5286 34.5566 61.1691 35.9161 61.1691 37.5869C61.1691 37.8096 61.0292 38.0066 60.8213 38.0767C60.1132 38.3157 59.4141 38.6053 58.7435 38.9377C58.5452 39.0365 58.3058 38.9966 58.1477 38.8383C56.9663 37.6571 55.0439 37.6571 53.8623 38.8383L51.0121 41.6885C49.8307 42.8701 49.8307 44.7924 51.0128 45.9745C51.1701 46.1318 51.21 46.371 51.1116 46.5697C50.7793 47.2402 50.4897 47.9394 50.2507 48.6471C50.1804 48.8553 49.9834 48.9953 49.7608 48.9953C48.09 48.9953 46.7305 50.3546 46.7305 52.0256V56.0561C46.7305 57.727 48.09 59.0864 49.7608 59.0864C49.9834 59.0864 50.1802 59.2264 50.2505 59.4344C50.4896 60.1423 50.7793 60.8411 51.1116 61.512C51.21 61.7105 51.1701 61.9497 51.0123 62.1077C49.8279 63.2918 49.8277 65.209 51.0123 66.3934L53.8623 69.2432C55.0466 70.4276 56.9631 70.4281 58.1482 69.2429C58.3057 69.0854 58.545 69.0454 58.7437 69.1441C59.4143 69.4762 60.1132 69.766 60.8211 70.005C61.0292 70.0753 61.1691 70.2723 61.1691 70.4949C61.1691 72.1657 62.5286 73.5252 64.1994 73.5252H68.2301C69.901 73.5252 71.2604 72.1659 71.2604 70.4949C71.2604 70.2723 71.4002 70.0753 71.6086 70.005C72.3165 69.766 73.0155 69.4764 73.6863 69.144C73.8847 69.0454 74.1239 69.0854 74.2819 69.2432C75.4661 70.4276 77.383 70.428 78.5674 69.2434L81.4174 66.3934C82.6015 65.2097 82.6023 63.2924 81.4171 62.1075C81.2596 61.95 81.2197 61.7107 81.3181 61.5122C81.6504 60.8416 81.94 60.1426 82.1792 59.4346C82.2495 59.2265 82.4463 59.0866 82.6689 59.0866C84.3397 59.0866 85.6992 57.7271 85.6992 56.0563V52.0257C85.6992 50.3547 84.3397 48.9954 82.6689 48.9954ZM83.1885 56.0561C83.1885 56.3427 82.9553 56.5757 82.6689 56.5757C81.3682 56.5757 80.2154 57.4019 79.8003 58.6312C79.5971 59.2331 79.3509 59.8273 79.0684 60.3972C78.4912 61.5619 78.7215 62.9624 79.6421 63.8831C79.8448 64.0858 79.8452 64.4147 79.6421 64.6178L76.7919 67.468C76.5901 67.6698 76.2615 67.6722 76.0566 67.4673C75.1365 66.547 73.7357 66.3169 72.5716 66.8942C72.0014 67.1767 71.4071 67.4228 70.8053 67.6262C69.5759 68.0411 68.7499 69.194 68.7499 70.4948C68.7499 70.7812 68.5167 71.0143 68.2303 71.0143H64.1996C63.9132 71.0143 63.68 70.7812 63.68 70.4948C63.68 69.194 62.854 68.0413 61.6247 67.6262C61.0228 67.4228 60.4286 67.1766 59.8588 66.8944C59.4312 66.6823 58.9717 66.5792 58.5157 66.5792C57.7302 66.5792 56.9554 66.8853 56.3727 67.468C56.1709 67.6698 55.842 67.6719 55.6381 67.4678L52.7879 64.6178C52.5869 64.4168 52.583 64.0882 52.7884 63.8825C53.7083 62.9625 53.9386 61.5619 53.3615 60.3974C53.079 59.8271 52.8328 59.2329 52.6295 58.631C52.2144 57.4016 51.0615 56.5757 49.7609 56.5757C49.4745 56.5757 49.2414 56.3425 49.2414 56.0561V52.0256C49.2414 51.7392 49.4745 51.506 49.7609 51.506C51.0613 51.506 52.2141 50.68 52.6295 49.4504C52.8328 48.8486 53.079 48.2544 53.3613 47.6845C53.9385 46.5195 53.7082 45.1188 52.7877 44.1987C52.5852 43.996 52.5852 43.6663 52.7877 43.4638L55.6378 40.6137C55.8405 40.411 56.1702 40.4112 56.3731 40.6141C57.2932 41.5342 58.6937 41.7646 59.8585 41.1873C60.4286 40.9048 61.0226 40.6588 61.6247 40.4556C62.854 40.0403 63.6798 38.8873 63.6798 37.5869C63.6798 37.3004 63.913 37.0674 64.1994 37.0674H68.2301C68.5165 37.0674 68.7497 37.3005 68.7497 37.5869C68.7497 38.8873 69.5757 40.0401 70.8053 40.4557C71.4071 40.6588 72.0011 40.905 72.5712 41.1875C73.7359 41.7645 75.1367 41.5342 76.0571 40.6137C76.2597 40.411 76.5894 40.411 76.7919 40.6137L79.642 43.4636C79.8445 43.6663 79.8445 43.996 79.6416 44.1991C78.7215 45.119 78.4912 46.5195 79.0684 47.6847C79.3507 48.2543 79.597 48.8485 79.8002 49.4505C80.2154 50.6801 81.3682 51.506 82.6688 51.506C82.9552 51.506 83.1883 51.7392 83.1883 52.0256V56.0561H83.1885Z" fill="white"/>
<path d="M66.2163 45.4766C61.4941 45.4766 57.6523 49.3183 57.6523 54.0405C57.6523 58.7628 61.4941 62.6045 66.2163 62.6045C70.9385 62.6045 74.7803 58.7628 74.7803 54.0405C74.7803 49.3183 70.9385 45.4766 66.2163 45.4766ZM66.2163 60.0938C62.8785 60.0938 60.1631 57.3782 60.1631 54.0405C60.1631 50.7029 62.8785 47.9873 66.2163 47.9873C69.5541 47.9873 72.2696 50.7029 72.2696 54.0405C72.2696 57.3782 69.5541 60.0938 66.2163 60.0938Z" fill="white"/>
<path d="M45.8368 64.4064C45.8366 64.4064 45.8365 64.4064 45.8365 64.4064L5.74726 64.4198C5.74693 64.4198 5.74659 64.4198 5.74626 64.4198C3.95844 64.4198 2.51091 62.973 2.51091 61.1843V19.8183C2.51091 18.0343 3.96229 16.5828 5.74642 16.5828H44.3719C46.6143 16.5828 48.6656 15.265 49.5979 13.2256L53.5173 4.65206C54.0423 3.50415 55.1972 2.76197 56.4594 2.7618L74.2556 2.75879H74.2563C76.0439 2.75879 77.4914 4.20548 77.4916 5.99414L77.4945 34.3938C77.4945 35.0871 78.0565 35.649 78.75 35.649C79.4433 35.649 80.0054 35.087 80.0052 34.3935L80.0023 5.9938C80.002 2.81871 77.4329 0.248047 74.2563 0.248047C74.2559 0.248047 74.2554 0.248047 74.2551 0.248047L56.4589 0.251059C54.217 0.251562 52.1661 1.5692 51.2337 3.60826L50.5672 5.06616L5.74793 5.05395C5.74743 5.05395 5.74693 5.05395 5.74642 5.05395C2.57117 5.05395 0 7.62327 0 10.8002V61.1843C0 64.3594 2.56916 66.9306 5.74609 66.9306H5.74793L45.8372 66.9172C46.5304 66.917 47.0924 66.3548 47.0922 65.6613C47.0919 64.9683 46.5299 64.4064 45.8368 64.4064ZM5.74642 7.56469H5.74726L49.4195 7.57674L47.3143 12.1818C46.7894 13.33 45.6343 14.072 44.3717 14.072H5.74626C4.54713 14.072 3.43302 14.4418 2.51074 15.0725V10.8002C2.51074 9.01222 3.9576 7.56469 5.74642 7.56469Z" fill="white"/>
</svg>
