<svg width="30" height="30" viewBox="0 0 30 30" fill="none" xmlns="http://www.w3.org/2000/svg">
<path fill-rule="evenodd" clip-rule="evenodd" d="M0 6C0 2.68629 2.68629 0 6 0H24C27.3137 0 30 2.68629 30 6V24C30 27.3137 27.3137 30 24 30H6C2.68629 30 0 27.3137 0 24V6ZM10.125 20.1958L10.1259 20.198L10.1257 20.1971L10.125 20.1958ZM20.9282 19.248L20.9277 19.2463V19.2449L20.9278 19.2462L20.928 19.2471L20.9282 19.248ZM17.147 19.568C17.0369 19.5831 16.9321 19.5898 16.8327 19.5898C16.4356 19.5898 16.1245 19.484 15.9123 19.3789C15.8063 19.3265 15.7253 19.2741 15.6721 19.2359L15.655 19.2233V18.8749C15.7669 18.8138 15.7957 18.6899 15.8229 18.5729C15.8535 18.4408 15.8821 18.3175 16.026 18.3031C16.3478 18.2709 16.2833 18.6247 16.1548 18.7857C16.0903 18.9146 16.8305 18.7857 16.8305 18.0777C16.8305 17.2408 16.0582 16.9832 15.4786 16.9832C14.8994 16.9832 14.1272 17.2408 14.1272 18.0777C14.1272 18.7857 14.8672 18.9146 14.8029 18.7857C14.6739 18.6247 14.6097 18.2709 14.9316 18.3031C15.0756 18.3176 15.1041 18.4409 15.1347 18.573C15.1616 18.6894 15.1902 18.8126 15.3006 18.8741V19.2233C15.2414 19.2674 15.1376 19.3364 14.9926 19.4031C14.7826 19.4995 14.4895 19.5898 14.1229 19.5898C14.0237 19.5898 13.9187 19.5831 13.8086 19.568C13.7116 19.5549 13.6222 19.6228 13.6091 19.7198C13.5958 19.8168 13.6638 19.906 13.7607 19.9192C13.8868 19.9363 14.0078 19.9441 14.1229 19.9441C14.5838 19.9441 14.9501 19.8206 15.2008 19.6964C15.3194 19.6376 15.4115 19.579 15.4778 19.5323C15.5442 19.579 15.6363 19.6376 15.7549 19.6964C16.0056 19.8206 16.3718 19.9441 16.8327 19.9441C16.9477 19.9441 17.0686 19.9363 17.1948 19.9192C17.2921 19.906 17.3598 19.8168 17.3466 19.7198C17.3335 19.6228 17.244 19.5551 17.147 19.568ZM11.9461 16.1049C11.6757 16.1049 11.457 15.8862 11.457 15.6162C11.457 15.3461 11.6757 15.1272 11.9461 15.1272C12.2158 15.1272 12.4347 15.3461 12.4347 15.6162C12.4347 15.8862 12.2157 16.1049 11.9461 16.1049ZM23.2971 9.22298C23.2971 9.20338 23.2985 9.14576 23.3004 9.06528V9.06516C23.3085 8.72529 23.3264 7.97798 23.2914 7.96321C23.2861 7.81758 23.2729 7.53707 23.2931 8.03226C23.2589 7.18836 22.4505 6.74883 21.6848 7.00381C21.3244 7.12394 20.9778 7.31033 20.6375 7.49331L20.6375 7.49333C20.5296 7.55137 20.4223 7.60907 20.3154 7.6642C19.8447 7.90708 19.3759 8.15478 18.9167 8.41913L18.8738 8.44386L18.8738 8.44387C18.4759 8.67318 18.0675 8.90852 17.74 9.23371C17.4036 9.56766 17.1656 9.99702 17.0086 10.4414C16.9299 10.6652 16.8679 10.897 16.8367 11.1327C16.8255 11.2179 16.7775 11.2138 16.7051 11.2077L16.6812 11.2057C16.5835 11.199 16.4895 11.1926 16.3913 11.1926H14.7695C14.6917 11.1926 14.6132 11.1909 14.5345 11.1891H14.5345C14.3689 11.1855 14.2023 11.1818 14.0391 11.1942C13.9809 11.1986 13.9321 10.9333 13.9003 10.7598V10.7597C13.8891 10.6991 13.88 10.6496 13.8733 10.6268C13.7409 10.1771 13.5272 9.73778 13.217 9.38313C12.7277 8.8238 12.0358 8.46136 11.3727 8.11403C11.2338 8.04127 11.0962 7.96917 10.9619 7.89607C10.5031 7.64592 10.0408 7.40193 9.56772 7.17977C9.16134 6.98902 8.75286 6.84127 8.30189 6.97449C7.88465 7.09757 7.61196 7.44225 7.54334 7.86595C7.51558 8.03794 7.51875 8.21517 7.52188 8.3905V8.39051C7.52287 8.44607 7.52386 8.50145 7.52386 8.5564V9.39328V11.0391C7.52386 11.1398 7.52278 11.2409 7.5217 11.3421V11.3421C7.51719 11.7649 7.51265 12.1909 7.58645 12.6071C7.66692 13.0595 7.83858 13.4979 8.12902 13.8574C8.38517 14.1747 8.71284 14.4243 9.05106 14.6478C9.20157 14.7471 9.35507 14.8419 9.50855 14.9367L9.50859 14.9367L9.55281 14.9641C9.56549 14.9719 9.58592 14.9821 9.60937 14.9937C9.67208 15.0249 9.75637 15.0668 9.77164 15.1035C9.78663 15.1392 9.71989 15.2652 9.67698 15.3463C9.66265 15.3733 9.65098 15.3954 9.6459 15.4074C9.44371 15.884 9.32172 16.3375 9.44829 16.8544C9.53117 17.1934 9.66898 17.5216 9.80563 17.8471L9.80564 17.8472C9.86253 17.9827 9.91922 18.1177 9.97165 18.2528C9.98658 18.2912 10.0085 18.337 10.0323 18.3865C10.1029 18.5336 10.1898 18.7143 10.1569 18.8388C10.1388 18.9074 10.1164 18.9712 10.0943 19.034C10.0538 19.1492 10.0143 19.2614 10.0039 19.3957C9.9416 20.1966 10.4568 20.9408 11.1695 21.2723C11.3922 21.376 11.633 21.444 11.8753 21.4819C11.9415 21.4922 11.9705 21.5388 12.0014 21.5883C12.0062 21.5961 12.0111 21.6038 12.0161 21.6116C12.0191 21.6161 12.0221 21.6206 12.0253 21.6251C12.097 21.7274 12.1761 21.8247 12.2616 21.9161C12.5747 22.2506 12.9761 22.5079 13.4183 22.6324C13.8489 22.7533 14.2987 22.752 14.743 22.7506H14.7431L14.8837 22.7503C15.0028 22.7503 15.1219 22.7501 15.241 22.75H15.2413C15.6542 22.7493 16.0672 22.7487 16.48 22.7554C16.9819 22.7638 17.4714 22.7361 17.9378 22.534C18.3746 22.3444 18.7562 22.0356 19.0334 21.6482C19.0651 21.6042 19.0955 21.5591 19.1242 21.5131C19.1552 21.4639 19.1821 21.4593 19.2249 21.452C19.2382 21.4497 19.2529 21.4472 19.2698 21.443C19.3754 21.4167 19.4794 21.3828 19.5812 21.3449C19.776 21.2721 19.9635 21.1781 20.1344 21.059C20.4721 20.824 20.736 20.4865 20.8633 20.0932C21.0022 19.6642 20.9703 19.1835 20.7803 18.7746C20.7758 18.7649 20.7714 18.7557 20.7671 18.7467L20.7648 18.742C20.7311 18.6717 20.7055 18.6187 20.7303 18.5328C20.7473 18.4726 20.7746 18.4166 20.8019 18.3607C20.8127 18.3387 20.8234 18.3167 20.8335 18.2945C20.91 18.1262 20.9747 17.9511 21.0391 17.7766C21.0701 17.6927 21.1011 17.6089 21.1333 17.5261L21.1444 17.4975L21.1444 17.4974C21.3215 17.0415 21.4882 16.6121 21.4111 16.1113C21.3738 15.869 21.2816 15.6428 21.183 15.4198C21.1366 15.3153 21.0909 15.2105 21.0457 15.1052C21.0416 15.0952 21.137 15.0406 21.1695 15.022L21.1795 15.0162C21.5385 14.7978 21.9025 14.5756 22.2362 14.3199C22.6112 14.0324 22.8888 13.6544 23.0645 13.2165C23.3332 12.545 23.3182 11.8011 23.3037 11.0788C23.3004 10.9165 23.2972 10.7553 23.2972 10.5962L23.2971 9.22298ZM23.2914 7.96478L23.2913 7.96381C23.2911 7.96305 23.291 7.96237 23.2906 7.96237C23.2909 7.96237 23.2912 7.96293 23.2914 7.96321V7.96478ZM23.2933 8.03034C23.2939 8.01961 23.2939 7.97394 23.2914 7.96478C23.2927 7.99651 23.2933 8.02178 23.2933 8.03034ZM17.9294 15.2188C18.1145 14.787 18.5027 14.6145 18.9318 14.5909C19.5132 14.6245 19.9753 15.1696 19.8941 15.7537C19.8109 16.3547 19.1919 16.7717 18.6048 16.6067C18.0199 16.4428 17.6884 15.7808 17.9294 15.2188ZM12.9714 15.6723C12.9377 16.2534 12.3926 16.7155 11.8087 16.6346C11.2076 16.5511 10.7907 15.9321 10.9554 15.3451C11.1193 14.7602 11.7815 14.4284 12.3436 14.6694C12.7752 14.8545 12.9476 15.243 12.9714 15.6723ZM10.3337 13.132L10.332 13.131C10.3428 13.138 10.3488 13.142 10.3337 13.132ZM10.5556 13.2731C10.473 13.221 10.3907 13.1683 10.3085 13.1154C10.1874 13.0375 10.0683 12.9588 9.95446 12.8707C9.8247 12.7699 9.58386 12.4158 9.55306 12.224C9.50301 11.9116 9.51251 11.5821 9.52185 11.2584C9.52552 11.1313 9.52916 11.0051 9.52916 10.8812C9.52916 10.8229 9.52966 10.7647 9.53015 10.7063V10.7062C9.53139 10.5612 9.53264 10.4159 9.52622 10.271L9.52583 10.2623C9.51809 10.0904 9.50948 9.89905 9.65517 9.7786C9.80578 9.65366 9.97264 9.69989 10.1315 9.7786C10.2197 9.82225 10.3086 9.8645 10.3974 9.90674C10.5148 9.96255 10.6322 10.0183 10.748 10.0774C10.8015 10.1047 10.8569 10.1322 10.9131 10.1601L10.9133 10.1602C11.2152 10.3102 11.5441 10.4735 11.7742 10.7063C11.9097 10.8433 11.9985 11.0252 12.0599 11.206C12.0943 11.3079 11.991 11.3433 11.8951 11.3762C11.8615 11.3877 11.8288 11.399 11.8032 11.4126C11.1823 11.7432 10.9244 12.3744 10.6723 12.9916L10.6723 12.9916C10.6337 13.0862 10.5952 13.1804 10.5556 13.2731ZM20.2386 19.5977L20.2382 19.5994L20.238 19.6001C20.1999 19.9661 20.0019 20.285 19.7012 20.4943C19.5572 20.5945 19.396 20.6687 19.2289 20.7205C19.1568 20.7428 19.0794 20.749 19.0024 20.7553C18.9111 20.7627 18.8204 20.77 18.7394 20.8038C18.6815 20.828 18.6531 20.8877 18.6262 20.9443L18.6261 20.9444C18.6175 20.9625 18.609 20.9804 18.5997 20.9967C18.5492 21.0862 18.4944 21.1732 18.4336 21.2562C18.302 21.4365 18.1427 21.5961 17.9565 21.7202C17.56 21.9849 17.0903 22.0367 16.625 22.0413C16.2656 22.0446 15.9062 22.0436 15.5468 22.0427C15.3774 22.0423 15.2081 22.0418 15.0388 22.0418C14.9343 22.0418 14.829 22.0446 14.7233 22.0473H14.7232C14.34 22.0573 13.9525 22.0674 13.5858 21.947C13.1725 21.8113 12.808 21.5335 12.5722 21.1673C12.5541 21.1393 12.5365 21.1016 12.5176 21.0611C12.466 20.9506 12.4049 20.8198 12.2992 20.8113C12.116 20.7963 11.9385 20.7791 11.7608 20.728C11.0294 20.5185 10.4498 19.814 10.8265 19.0443C11.0351 18.6182 11.4817 18.3952 11.9036 18.2171C12.1173 18.1268 12.3374 18.0521 12.5605 17.9892C12.5872 17.9817 12.6163 17.9757 12.6459 17.9695C12.7109 17.956 12.7788 17.9419 12.8315 17.9105C12.89 17.8757 12.9236 17.7851 12.9516 17.7098C12.9608 17.6848 12.9695 17.6615 12.9783 17.6424C13.4162 16.6897 13.7968 15.7244 14.0151 14.6957C14.2031 13.8097 14.2636 12.9198 14.3092 12.0182C14.3095 12.0137 14.3096 12.009 14.3097 12.0042C14.3098 11.9997 14.3099 11.995 14.3099 11.9904C14.3103 11.9611 14.3107 11.9292 14.3201 11.904C14.3257 11.8894 14.4894 11.8967 14.5633 11.9C14.5806 11.9008 14.593 11.9013 14.5972 11.9013H15.4373H16.2016C16.2173 11.9013 16.2415 11.8991 16.2698 11.8965C16.3537 11.8889 16.4729 11.878 16.508 11.9124C16.5373 11.9409 16.5283 12.0661 16.5222 12.1518V12.1518C16.5199 12.1829 16.5181 12.2088 16.5186 12.2229C16.5558 13.2618 16.6826 14.2989 16.9627 15.3018C17.0965 15.7814 17.2606 16.2521 17.4455 16.7145C17.5347 16.9375 17.6287 17.1586 17.7265 17.3783C17.7759 17.4893 17.8267 17.6 17.8777 17.7104C17.9043 17.7679 17.9307 17.8254 17.957 17.8826C18.0365 17.8998 18.116 17.9181 18.1953 17.938C18.9807 18.1333 20.3272 18.5618 20.2386 19.5977ZM20.2375 19.6071L20.2377 19.6038L20.238 19.6001L20.2382 19.5999L20.2383 19.5996L20.238 19.6022L20.2375 19.6071ZM20.2386 19.5988C20.2367 19.6157 20.2369 19.6128 20.2375 19.6071C20.2297 19.6799 20.1786 20.1748 20.2386 19.5988ZM21.2928 10.3736V10.9529L21.2927 11.2962C21.2926 11.5251 21.2924 11.7541 21.2928 11.983C21.2936 12.2548 21.2229 12.5539 21.0279 12.7543C20.8688 12.918 20.6706 13.0338 20.4737 13.1489C20.4033 13.19 20.3331 13.2311 20.2649 13.2742C20.2193 13.1672 20.1758 13.0579 20.1321 12.9481C19.9297 12.4389 19.7232 11.9197 19.2767 11.5778C19.1547 11.4843 19.0218 11.4058 18.8802 11.3462C18.8618 11.3385 18.8428 11.3333 18.825 11.3285C18.7726 11.3143 18.7314 11.3032 18.7523 11.2371C18.781 11.1463 18.8168 11.0576 18.8608 10.9727C19.0091 10.6858 19.2775 10.5203 19.5481 10.3624C19.8667 10.1762 20.1972 10.0115 20.5308 9.85402L20.5488 9.84552C20.7863 9.73321 21.1255 9.57282 21.2665 9.91287C21.3106 10.0189 21.3039 10.1379 21.2974 10.2533L21.2974 10.2534C21.2951 10.2942 21.2928 10.3345 21.2928 10.3736ZM19.3644 15.6162C19.3644 15.8862 19.1454 16.1049 18.8751 16.1049C18.6054 16.1049 18.3867 15.8862 18.3867 15.6162C18.3867 15.3461 18.6054 15.1272 18.8751 15.1272C19.1454 15.1272 19.3644 15.3461 19.3644 15.6162Z" fill="white"/>
</svg>
