<svg width="20" height="16" viewBox="0 0 20 16" fill="none" xmlns="http://www.w3.org/2000/svg">
<path d="M5.84875 0.711224C6.01804 0.618413 6.17455 0.534238 6.2903 0.473431C6.33243 0.451308 6.36888 0.43241 6.39841 0.417399C6.42282 0.452069 6.45398 0.497205 6.49014 0.550265C6.57816 0.679398 6.69412 0.852854 6.81079 1.02951C6.92746 1.20611 7.04457 1.38546 7.13486 1.52628C7.17914 1.59529 7.21671 1.65468 7.24453 1.69979C7.23141 1.70972 7.21647 1.72072 7.19979 1.73275C7.1174 1.79214 7.00032 1.87052 6.86875 1.95317C5.48165 2.82459 4.2971 4.04038 3.60936 5.30572C3.21032 6.03986 2.8576 7.10662 2.73964 7.93626L2.70362 8.18934L2.67229 8.40974L2.8703 8.32554L3.18279 8.1927C3.6287 8.00311 3.98373 7.94807 4.57708 7.98259C6.73896 8.10834 8.26431 9.72156 8.27426 11.871C8.27721 12.5133 8.18155 12.9717 7.92412 13.55C7.52208 14.4531 7.02631 15.0262 6.33392 15.4048C6.03616 15.5675 5.81113 15.6643 5.56089 15.7218C5.30912 15.7797 5.0257 15.7995 4.60893 15.8C4.19669 15.8006 3.89466 15.7766 3.61558 15.711C3.33713 15.6456 3.07585 15.5374 2.74678 15.3632C2.04027 14.9893 1.61189 14.5784 1.01901 13.6927C0.599507 13.0658 0.251691 12.1395 0.0897423 11.2056C0.0246408 10.8301 -0.00530046 10.2717 0.000136794 9.70531C0.00557405 9.13909 0.0462452 8.5757 0.118783 8.19038C0.697015 5.11802 2.77594 2.39589 5.84875 0.711224ZM13.773 7.59377C13.7445 7.7406 13.7187 7.87718 13.6999 7.9789C13.6905 8.02973 13.6828 8.07217 13.6775 8.10301C13.6748 8.11832 13.6726 8.1313 13.6711 8.14116C13.6707 8.14357 13.6703 8.14593 13.67 8.14824C13.6696 8.15061 13.6693 8.15292 13.669 8.15508C13.669 8.15508 13.6674 8.16722 13.6674 8.17771C13.6674 8.20626 13.6765 8.23519 13.6951 8.25894C13.712 8.28063 13.7317 8.29165 13.7445 8.29714C13.7679 8.30715 13.7887 8.30732 13.7954 8.30732C13.8125 8.3073 13.8284 8.30412 13.8377 8.30209C13.8591 8.29742 13.8857 8.28934 13.9137 8.27992C13.971 8.26061 14.0478 8.23095 14.131 8.19572C15.0227 7.81759 16.2754 7.9199 17.2813 8.46683C18.7906 9.28743 19.5714 11.1197 19.1468 12.8479C18.9641 13.5914 18.4328 14.5309 17.9337 14.9993C17.2969 15.5967 16.3655 15.8695 15.4123 15.8181C14.4598 15.7668 13.5009 15.3924 12.8147 14.7166C11.472 13.3944 10.8357 11.4721 10.9852 9.12779C11.1985 5.78027 13.3861 2.60928 16.8295 0.699641C16.9917 0.609701 17.1421 0.527963 17.2536 0.468782C17.2943 0.447217 17.3295 0.428828 17.3581 0.414172C17.3843 0.450596 17.4182 0.499161 17.4578 0.556768C17.5499 0.690879 17.6702 0.87076 17.7899 1.05244C17.9096 1.23413 18.0282 1.41693 18.1166 1.55689C18.1535 1.61518 18.1847 1.66549 18.2086 1.70497C18.1919 1.71706 18.1727 1.7307 18.1513 1.74566C18.0619 1.80822 17.9377 1.89155 17.8007 1.98043C15.5609 3.43299 14.2177 5.29628 13.773 7.59377Z" fill="black"/>
</svg>
