<svg width="137" height="137" viewBox="0 0 137 137" fill="none" xmlns="http://www.w3.org/2000/svg">
<circle cx="68.5" cy="68.5" r="68.5" fill="#2D9AB7"/>
<path d="M48.4708 101.38V77.7705H36.9902V68.7285L48.4708 68.6371L58.1705 68.6704V62.7321H48.4708V35.6201H75.4815C76.1313 35.6201 76.9357 35.6506 77.8949 35.7114C78.854 35.7419 79.7667 35.8332 80.6331 35.9855C84.3459 36.5639 87.4399 37.8121 89.9151 39.7301C92.4213 41.6481 94.2931 44.0684 95.5307 46.9911C96.7683 49.9138 97.3871 53.1409 97.3871 56.6725C97.3871 61.9089 96.0258 66.4299 93.3031 70.2355C90.5803 74.0106 86.4962 76.37 81.0508 77.3138L77.1059 77.7705H58.1705V101.38H48.4708ZM87.5482 101.38L74.3677 74.6195L84.1602 72.1535L98.6402 101.38H87.5482ZM48.4708 68.6371L75.1103 68.7285C75.7291 68.7285 76.4097 68.698 77.1523 68.6371C77.9258 68.5762 78.6529 68.4697 79.3336 68.3175C81.3138 67.8608 82.9072 67.0236 84.1138 65.8058C85.3205 64.5576 86.1868 63.1267 86.7128 61.5131C87.2388 59.8996 87.5018 58.286 87.5018 56.6725C87.5018 55.0589 87.2388 53.4606 86.7128 51.8774C86.1868 50.2639 85.3205 48.8482 84.1138 47.6305C82.9072 46.3822 81.3138 45.5298 79.3336 45.0731C78.6529 44.8905 77.9258 44.7687 77.1523 44.7078C76.4097 44.6469 75.7291 44.6165 75.1103 44.6165H58.1705V62.7321V68.6704L48.4708 68.6371Z" fill="white"/>
</svg>
