<svg width="17" height="16" viewBox="0 0 17 16" fill="none" xmlns="http://www.w3.org/2000/svg">
<path d="M14.5363 8.6314V9.6102C14.5369 9.65083 14.5526 9.68961 14.5802 9.71835C14.6077 9.74708 14.6448 9.76352 14.6838 9.76419H16.4688V10.8526H14.6838C14.6446 10.8526 14.6071 10.8688 14.5795 10.8977C14.5518 10.9266 14.5363 10.9658 14.5363 11.0066V11.9854C14.5369 12.026 14.5526 12.0648 14.5802 12.0935C14.6077 12.1223 14.6448 12.1387 14.6838 12.1394H16.4688V13.2226H14.6838C14.6444 13.2233 14.6069 13.2401 14.5793 13.2694C14.5517 13.2987 14.5362 13.3381 14.5363 13.3792V14.358C14.5369 14.3986 14.5526 14.4374 14.5802 14.4661C14.6077 14.4949 14.6448 14.5113 14.6838 14.512H16.4688V15.9971H13.1038V4.73711L16.4688 7.62651V8.47741H14.6838C14.6446 8.47741 14.6071 8.49363 14.5795 8.52251C14.5518 8.55139 14.5363 8.59056 14.5363 8.6314ZM3.17875 7.17496H0.46875V8.48002H1.61125C1.63083 8.47967 1.65028 8.4834 1.66846 8.49098C1.68665 8.49857 1.70321 8.50985 1.71717 8.52419C1.73113 8.53852 1.74222 8.55562 1.74979 8.57447C1.75736 8.59333 1.76125 8.61357 1.76125 8.63401V9.61281C1.76059 9.65389 1.7445 9.69305 1.71644 9.72186C1.68838 9.75067 1.6506 9.76681 1.61125 9.7668H0.46875V10.8552H1.61125C1.63083 10.8549 1.65028 10.8586 1.66846 10.8662C1.68665 10.8738 1.70321 10.8851 1.71717 10.8994C1.73113 10.9137 1.74222 10.9308 1.74979 10.9497C1.75736 10.9685 1.76125 10.9888 1.76125 11.0092V11.988C1.76059 12.0291 1.7445 12.0683 1.71644 12.0971C1.68838 12.1259 1.6506 12.142 1.61125 12.142H0.46875V13.2226H1.61125C1.63095 13.2226 1.65045 13.2266 1.66865 13.2345C1.68685 13.2424 1.70339 13.2539 1.71732 13.2685C1.73124 13.283 1.74229 13.3003 1.74983 13.3193C1.75737 13.3383 1.76125 13.3586 1.76125 13.3792V14.358C1.76059 14.3991 1.7445 14.4382 1.71644 14.467C1.68838 14.4959 1.6506 14.512 1.61125 14.512H0.46875V15.9971H3.17875V7.17496ZM12.1038 15.9998H4.17875V0.521779C4.17875 0.38333 4.23143 0.250551 4.3252 0.152653C4.41896 0.0547546 4.54614 -0.000244141 4.67875 -0.000244141H11.6088C11.7414 -0.000244141 11.8685 0.0547546 11.9623 0.152653C12.0561 0.250551 12.1087 0.38333 12.1087 0.521779V15.9998H12.1038ZM7.42375 11.4086C7.42375 11.3679 7.41604 11.3276 7.40106 11.2901C7.38608 11.2526 7.36412 11.2185 7.33647 11.1899C7.30881 11.1612 7.27599 11.1386 7.23991 11.1233C7.20383 11.1079 7.1652 11.1002 7.12625 11.1006H5.96875C5.9298 11.1002 5.89117 11.1079 5.85509 11.1233C5.81901 11.1386 5.78619 11.1612 5.75854 11.1899C5.73088 11.2185 5.70892 11.2526 5.69394 11.2901C5.67896 11.3276 5.67125 11.3679 5.67125 11.4086V12.6249C5.67125 12.6657 5.67895 12.7061 5.6939 12.7437C5.70885 12.7814 5.73076 12.8157 5.75839 12.8445C5.78601 12.8734 5.81881 12.8962 5.8549 12.9118C5.891 12.9274 5.92968 12.9355 5.96875 12.9355H7.13125C7.21015 12.9355 7.28582 12.9028 7.34162 12.8445C7.39741 12.7863 7.42875 12.7073 7.42875 12.6249L7.42375 11.4086ZM7.42375 8.39127C7.42375 8.3089 7.39241 8.22989 7.33661 8.17164C7.28082 8.11339 7.20515 8.08067 7.12625 8.08067H5.96875C5.88985 8.08067 5.81418 8.11339 5.75839 8.17164C5.70259 8.22989 5.67125 8.3089 5.67125 8.39127V9.60498C5.67125 9.68735 5.70259 9.76636 5.75839 9.82461C5.81418 9.88286 5.88985 9.91558 5.96875 9.91558H7.13125C7.21015 9.91558 7.28582 9.88286 7.34162 9.82461C7.39741 9.76636 7.42875 9.68735 7.42875 9.60498L7.42375 8.39127ZM7.42375 5.37137C7.42375 5.28899 7.39241 5.20999 7.33661 5.15174C7.28082 5.09349 7.20515 5.06077 7.12625 5.06077H5.96875C5.88985 5.06077 5.81418 5.09349 5.75839 5.15174C5.70259 5.20999 5.67125 5.28899 5.67125 5.37137V6.58768C5.67125 6.67006 5.70259 6.74906 5.75839 6.80731C5.81418 6.86556 5.88985 6.89829 5.96875 6.89829H7.13125C7.21015 6.89829 7.28582 6.86556 7.34162 6.80731C7.39741 6.74906 7.42875 6.67006 7.42875 6.58768L7.42375 5.37137ZM7.42375 2.35147C7.42375 2.3108 7.41604 2.27054 7.40106 2.233C7.38608 2.19546 7.36412 2.16139 7.33647 2.13276C7.30881 2.10412 7.27599 2.08149 7.23991 2.06617C7.20383 2.05084 7.1652 2.04313 7.12625 2.04348H5.96875C5.9298 2.04313 5.89117 2.05084 5.85509 2.06617C5.81901 2.08149 5.78619 2.10412 5.75854 2.13276C5.73088 2.16139 5.70892 2.19546 5.69394 2.233C5.67896 2.27054 5.67125 2.3108 5.67125 2.35147V3.56517C5.67092 3.60618 5.67837 3.64685 5.69317 3.68484C5.70798 3.72282 5.72984 3.75737 5.7575 3.78649C5.78516 3.81561 5.81806 3.83872 5.85432 3.8545C5.89058 3.87027 5.92947 3.87839 5.96875 3.87839H7.13125C7.20972 3.87701 7.28449 3.84332 7.33927 3.78466C7.39406 3.72599 7.42442 3.6471 7.42375 3.56517V2.35147ZM10.6187 11.4086C10.6181 11.3266 10.5865 11.2483 10.5307 11.1906C10.475 11.1329 10.3997 11.1006 10.3212 11.1006H9.15625C9.1173 11.1002 9.07867 11.1079 9.04259 11.1233C9.00651 11.1386 8.97369 11.1612 8.94604 11.1899C8.91838 11.2185 8.89642 11.2526 8.88144 11.2901C8.86646 11.3276 8.85875 11.3679 8.85875 11.4086V12.6249C8.85875 12.7073 8.89009 12.7863 8.94589 12.8445C9.00168 12.9028 9.07735 12.9355 9.15625 12.9355H10.3212C10.4002 12.9355 10.4758 12.9028 10.5316 12.8445C10.5874 12.7863 10.6187 12.7073 10.6187 12.6249V11.4086ZM10.6187 8.39127C10.6187 8.3089 10.5874 8.22989 10.5316 8.17164C10.4758 8.11339 10.4002 8.08067 10.3212 8.08067H9.15625C9.07735 8.08067 9.00168 8.11339 8.94589 8.17164C8.89009 8.22989 8.85875 8.3089 8.85875 8.39127V9.60498C8.85875 9.68735 8.89009 9.76636 8.94589 9.82461C9.00168 9.88286 9.07735 9.91558 9.15625 9.91558H10.3212C10.4002 9.91558 10.4758 9.88286 10.5316 9.82461C10.5874 9.76636 10.6187 9.68735 10.6187 9.60498V8.39127ZM10.6187 5.37137C10.6187 5.28899 10.5874 5.20999 10.5316 5.15174C10.4758 5.09349 10.4002 5.06077 10.3212 5.06077H9.15625C9.07735 5.06077 9.00168 5.09349 8.94589 5.15174C8.89009 5.20999 8.85875 5.28899 8.85875 5.37137V6.58768C8.85875 6.67006 8.89009 6.74906 8.94589 6.80731C9.00168 6.86556 9.07735 6.89829 9.15625 6.89829H10.3212C10.3999 6.89761 10.4752 6.86466 10.5309 6.80656C10.5865 6.74846 10.6181 6.66985 10.6187 6.58768V5.37137ZM10.6187 2.35147C10.6181 2.26954 10.5865 2.19121 10.5307 2.13352C10.475 2.07584 10.3997 2.04347 10.3212 2.04348H9.15625C9.1173 2.04313 9.07867 2.05084 9.04259 2.06617C9.00651 2.08149 8.97369 2.10412 8.94604 2.13276C8.91838 2.16139 8.89642 2.19546 8.88144 2.233C8.86646 2.27054 8.85875 2.3108 8.85875 2.35147V3.56517C8.85875 3.64755 8.89009 3.72655 8.94589 3.7848C9.00168 3.84305 9.07735 3.87578 9.15625 3.87578H10.3212C10.4002 3.87578 10.4758 3.84305 10.5316 3.7848C10.5874 3.72655 10.6187 3.64755 10.6187 3.56517V2.35147Z" fill="#6167F8"/>
</svg>
