<svg width="30" height="30" viewBox="0 0 30 30" fill="none" xmlns="http://www.w3.org/2000/svg">
<path fill-rule="evenodd" clip-rule="evenodd" d="M6 0C2.68629 0 0 2.68629 0 6V24C0 27.3137 2.68629 30 6 30H24C27.3137 30 30 27.3137 30 24V6C30 2.68629 27.3137 0 24 0H6ZM13.6687 17.7862C14.328 17.4243 14.6574 17.2443 14.958 17.1062L14.9549 17.1043C15.0432 17.0597 15.1343 17.0181 15.228 16.9793C15.812 16.7382 16.4375 16.6135 17.0693 16.6124C19.1793 16.5999 20.3712 17.9712 20.3087 19.2212C20.2885 19.5402 20.1722 19.8457 19.9752 20.0974C19.7783 20.3492 19.5097 20.5355 19.2049 20.6318C19.0855 20.6487 19.0174 20.6531 19.0005 20.5593C18.988 20.4956 19.0349 20.4656 19.1755 20.3762C19.3417 20.279 19.4852 20.1473 19.5962 19.99C19.7073 19.8327 19.7833 19.6535 19.8193 19.4643C19.8962 18.9312 19.4955 17.6656 17.4668 17.4268C16.5003 17.4239 15.5451 17.635 14.6699 18.0449C14.4723 18.1503 14.2552 18.2795 14.0272 18.4153C13.9602 18.4552 13.8923 18.4956 13.8237 18.5362C13.6662 18.6226 13.5165 18.7223 13.3762 18.8343C13.6141 19.422 13.7066 20.0585 13.6457 20.6896C13.5849 21.3208 13.3726 21.9279 13.0268 22.4593C12.6196 23.1002 12.0224 23.5979 11.3186 23.883C10.6148 24.168 9.83958 24.2262 9.10115 24.0493C8.61115 23.9131 7.86928 22.8987 8.50865 21.4837C9.07178 20.2349 11.3305 19.0543 11.923 18.7599C11.9558 18.7412 11.9913 18.7218 12.031 18.7001C12.0481 18.6907 12.0661 18.6809 12.0849 18.6706C11.7818 18.4062 11.3632 18.1183 10.9009 17.8003C9.55175 16.8724 7.83055 15.6885 7.5224 14.0887C7.4074 13.4837 7.68865 12.0387 9.46615 10.3762C11.0727 8.9745 12.9395 7.90268 14.9599 7.22181C18.1862 6.07556 21.5962 6.75306 22.1118 8.80744C22.6255 10.8337 20.8718 13.2506 18.6255 14.1199C17.2572 14.7152 15.7365 14.8658 14.278 14.5506C13.996 14.4735 13.7322 14.3406 13.5024 14.1598C13.2725 13.979 13.0813 13.754 12.9399 13.4981L12.9376 13.4921C12.8947 13.3806 12.8227 13.1932 12.9399 13.1318C13.0124 13.0893 13.0418 13.1018 13.238 13.3149C13.5594 13.583 13.937 13.7755 14.3428 13.878C14.7486 13.9806 15.1722 13.9906 15.5824 13.9074C19.2887 13.4893 21.528 10.6062 20.8193 9.05681C20.3262 7.96993 17.4705 7.47994 13.8818 9.24868C9.52116 11.4224 9.28678 13.2124 9.24865 13.8943C9.17782 15.1878 10.308 16.0576 11.4435 16.9314C11.9512 17.3222 12.46 17.7137 12.863 18.1443C12.8707 18.1522 12.8785 18.161 12.8863 18.1697C12.8957 18.1802 12.9051 18.1907 12.9143 18.1999C12.9678 18.1708 13.0221 18.1412 13.0771 18.1114C13.2718 18.0056 13.4737 17.8959 13.6687 17.7862ZM9.92615 22.7812C10.3312 23.0156 11.2687 22.7387 11.9424 22.0056C12.3006 21.6342 12.5536 21.1743 12.6757 20.673C12.7977 20.1716 12.7843 19.6469 12.6368 19.1524L12.5343 19.2149C12.5343 19.2149 12.5174 19.2237 12.4874 19.2406C12.4173 19.2828 12.3519 19.3214 12.2923 19.3565C12.2039 19.4087 12.1286 19.4532 12.0699 19.4906C11.5077 19.8347 10.9784 20.2299 10.4887 20.6712C9.66178 21.4468 9.48865 22.5312 9.92615 22.7812Z" fill="white"/>
</svg>
