<svg width="73" height="74" viewBox="0 0 73 74" fill="none" xmlns="http://www.w3.org/2000/svg">
<path d="M39.6511 57.6298H4.5263C3.61646 57.629 2.7441 57.2688 2.1006 56.6282C1.4571 55.9876 1.095 55.119 1.09375 54.2129V42.4676C1.09375 41.3255 1.65926 40.4115 2.56755 40.0827L17.1176 34.822C17.2846 34.7616 17.4638 34.7422 17.64 34.7654C17.8161 34.7885 17.9841 34.8537 18.1297 34.9552C18.2752 35.0568 18.394 35.1918 18.476 35.3488C18.558 35.5058 18.6009 35.6802 18.6008 35.8572C18.6008 37.8535 19.7745 38.8667 22.0871 38.8667C24.3997 38.8667 25.5749 37.8535 25.5749 35.8572C25.5749 35.6802 25.6177 35.5058 25.6998 35.3488C25.7818 35.1918 25.9006 35.0568 26.0461 34.9552C26.1917 34.8537 26.3596 34.7885 26.5358 34.7654C26.712 34.7422 26.8912 34.7616 27.0582 34.822L41.6082 40.0827C42.5165 40.4115 43.0804 41.3255 43.0804 42.4676V54.2129C43.0796 55.1186 42.7181 55.987 42.0752 56.6276C41.4323 57.2681 40.5605 57.6286 39.6511 57.6298ZM3.36684 42.1373C3.32266 42.2417 3.30164 42.3544 3.30524 42.4676V54.2129C3.30566 54.5352 3.43449 54.8441 3.66344 55.0718C3.89238 55.2995 4.20273 55.4274 4.5263 55.4274H39.6511C39.8112 55.4274 39.9698 55.396 40.1177 55.335C40.2657 55.2739 40.4001 55.1845 40.5134 55.0717C40.6266 54.9589 40.7164 54.825 40.7777 54.6777C40.839 54.5303 40.8705 54.3724 40.8705 54.2129V42.4676C40.8746 42.3545 40.8542 42.2418 40.8105 42.1373L27.6142 37.3659C27.0424 39.7114 25.0663 41.0691 22.0855 41.0691C19.1047 41.0691 17.1318 39.7114 16.5568 37.3659L3.36684 42.1373Z" fill="white"/>
<path d="M31.0457 25.976C30.8871 25.976 30.7304 25.9421 30.5862 25.8765C30.4419 25.8109 30.3135 25.7152 30.2097 25.5958C30.1058 25.4764 30.029 25.3362 29.9844 25.1847C29.9398 25.0331 29.9284 24.8738 29.951 24.7175C30.8499 18.4248 27.5611 17.0546 27.5279 17.0404C23.7636 15.538 20.7355 15.4798 18.524 16.8673C14.8276 19.1893 14.4169 24.8905 14.4169 24.9424C14.403 25.1619 14.3235 25.3722 14.1886 25.5463C14.0536 25.7203 13.8694 25.8502 13.6597 25.9191C13.45 25.9879 13.2244 25.9927 13.0119 25.9328C12.7995 25.8728 12.6099 25.7509 12.4676 25.5827C9.43948 22.0053 8.8171 17.8742 10.7142 13.957C12.9621 9.31299 18.4229 5.91494 23.4161 6.05495C26.9687 6.15406 29.7346 7.99153 31.2527 11.2464C33.2319 12.0723 34.4893 13.4017 34.9917 15.2014C36.2554 19.7337 31.9477 25.5135 31.9035 25.5685C31.7999 25.6957 31.6692 25.7982 31.5208 25.8687C31.3724 25.9392 31.2101 25.9758 31.0457 25.976ZM23.1207 8.25425C19.0705 8.25425 14.5338 11.141 12.7077 14.915C11.8611 16.6628 11.3035 19.172 12.7077 21.9943C13.3001 19.7651 14.5828 16.7525 17.3361 15.0173C20.1794 13.2239 23.8868 13.2176 28.3477 15C28.5057 15.0613 31.4391 16.2821 32.1594 20.6414C32.8228 19.0446 33.2778 17.2166 32.8497 15.752C32.5006 14.5501 31.586 13.6974 30.0506 13.1452C29.906 13.0933 29.7738 13.0119 29.6626 12.9063C29.5513 12.8006 29.4634 12.6731 29.4045 12.5317C27.9828 9.10061 25.3259 8.3156 23.3561 8.26054L23.1207 8.25425Z" fill="white"/>
<path d="M22.1824 34.9913C17.9474 34.9913 14.2384 31.3353 12.2639 25.2094C12.2195 25.0717 12.2028 24.9266 12.2147 24.7825C12.2266 24.6384 12.2668 24.498 12.3332 24.3694C12.3996 24.2407 12.4907 24.1264 12.6015 24.0329C12.7122 23.9393 12.8404 23.8684 12.9787 23.8242C13.1169 23.78 13.2626 23.7633 13.4073 23.7752C13.552 23.787 13.693 23.8272 13.8221 23.8933C13.9513 23.9594 14.0661 24.0501 14.16 24.1604C14.2539 24.2707 14.3251 24.3984 14.3695 24.5361C16.036 29.7071 18.9599 32.7889 22.1824 32.7889C25.4049 32.7889 28.3288 29.7039 29.9953 24.5361C30.0397 24.3984 30.1109 24.2707 30.2048 24.1604C30.2987 24.0501 30.4135 23.9594 30.5427 23.8933C30.6718 23.8272 30.8128 23.787 30.9575 23.7752C31.1022 23.7633 31.2479 23.78 31.3861 23.8242C31.5244 23.8684 31.6526 23.9393 31.7633 24.0329C31.8741 24.1264 31.9652 24.2407 32.0316 24.3694C32.098 24.498 32.1383 24.6384 32.1502 24.7825C32.1621 24.9266 32.1453 25.0717 32.1009 25.2094C30.1264 31.3369 26.4174 34.9913 22.1824 34.9913Z" fill="white"/>
<path d="M17.4964 36.8198C17.2031 36.8198 16.9219 36.7038 16.7145 36.4973C16.5071 36.2908 16.3906 36.0107 16.3906 35.7186V31.943C16.3906 31.651 16.5071 31.3709 16.7145 31.1643C16.9219 30.9578 17.2031 30.8418 17.4964 30.8418C17.7896 30.8418 18.0709 30.9578 18.2782 31.1643C18.4856 31.3709 18.6021 31.651 18.6021 31.943V35.7186C18.6021 36.0107 18.4856 36.2908 18.2782 36.4973C18.0709 36.7038 17.7896 36.8198 17.4964 36.8198Z" fill="white"/>
<path d="M26.68 37.1818C26.3867 37.1818 26.1055 37.0658 25.8981 36.8593C25.6907 36.6527 25.5742 36.3726 25.5742 36.0806V32.0973C25.5742 31.8053 25.6907 31.5252 25.8981 31.3186C26.1055 31.1121 26.3867 30.9961 26.68 30.9961C26.9732 30.9961 27.2545 31.1121 27.4618 31.3186C27.6692 31.5252 27.7857 31.8053 27.7857 32.0973V36.0806C27.7857 36.3726 27.6692 36.6527 27.4618 36.8593C27.2545 37.0658 26.9732 37.1818 26.68 37.1818Z" fill="white"/>
<path d="M8.60965 57.6309C8.31639 57.6309 8.03514 57.5149 7.82777 57.3083C7.6204 57.1018 7.50391 56.8217 7.50391 56.5297V44.2731C7.50391 43.981 7.6204 43.7009 7.82777 43.4944C8.03514 43.2879 8.31639 43.1719 8.60965 43.1719C8.90291 43.1719 9.18416 43.2879 9.39153 43.4944C9.5989 43.7009 9.7154 43.981 9.7154 44.2731V56.5297C9.7154 56.8217 9.5989 57.1018 9.39153 57.3083C9.18416 57.5149 8.90291 57.6309 8.60965 57.6309Z" fill="white"/>
<path d="M35.5667 57.6309C35.2734 57.6309 34.9922 57.5149 34.7848 57.3083C34.5774 57.1018 34.4609 56.8217 34.4609 56.5297V44.2731C34.4609 44.1285 34.4895 43.9853 34.5451 43.8517C34.6007 43.7181 34.6821 43.5967 34.7848 43.4944C34.8875 43.3922 35.0094 43.311 35.1435 43.2557C35.2777 43.2004 35.4215 43.1719 35.5667 43.1719C35.7119 43.1719 35.8557 43.2004 35.9898 43.2557C36.124 43.311 36.2459 43.3922 36.3486 43.4944C36.4512 43.5967 36.5327 43.7181 36.5883 43.8517C36.6438 43.9853 36.6724 44.1285 36.6724 44.2731V56.5297C36.6724 56.8217 36.5559 57.1018 36.3486 57.3083C36.1412 57.5149 35.8599 57.6309 35.5667 57.6309Z" fill="white"/>
<path d="M8.41062 51.1517H2.19949C1.90623 51.1517 1.62498 51.0356 1.41761 50.8291C1.21025 50.6226 1.09375 50.3425 1.09375 50.0504C1.09375 49.7584 1.21025 49.4783 1.41761 49.2718C1.62498 49.0652 1.90623 48.9492 2.19949 48.9492H8.41062C8.70388 48.9492 8.98513 49.0652 9.1925 49.2718C9.39987 49.4783 9.51636 49.7584 9.51636 50.0504C9.51636 50.3425 9.39987 50.6226 9.1925 50.8291C8.98513 51.0356 8.70388 51.1517 8.41062 51.1517Z" fill="white"/>
<path d="M41.9737 51.1517H35.5667C35.2734 51.1517 34.9922 51.0356 34.7848 50.8291C34.5774 50.6226 34.4609 50.3425 34.4609 50.0504C34.4609 49.7584 34.5774 49.4783 34.7848 49.2718C34.9922 49.0652 35.2734 48.9492 35.5667 48.9492H41.9737C42.2669 48.9492 42.5482 49.0652 42.7556 49.2718C42.9629 49.4783 43.0794 49.7584 43.0794 50.0504C43.0794 50.3425 42.9629 50.6226 42.7556 50.8291C42.5482 51.0356 42.2669 51.1517 41.9737 51.1517Z" fill="white"/>
<path d="M22.0862 57.6304C21.793 57.6304 21.5117 57.5143 21.3043 57.3078C21.097 57.1013 20.9805 56.8212 20.9805 56.5292V39.9684C20.9805 39.6763 21.097 39.3962 21.3043 39.1897C21.5117 38.9832 21.793 38.8672 22.0862 38.8672C22.3795 38.8672 22.6607 38.9832 22.8681 39.1897C23.0755 39.3962 23.192 39.6763 23.192 39.9684V56.5292C23.192 56.8212 23.0755 57.1013 22.8681 57.3078C22.6607 57.5143 22.3795 57.6304 22.0862 57.6304Z" fill="white"/>
<path d="M68.4599 20.1635H61.8792C61.5859 20.1635 61.3047 20.0475 61.0973 19.841C60.8899 19.6344 60.7734 19.3543 60.7734 19.0623C60.7734 18.7702 60.8899 18.4901 61.0973 18.2836C61.3047 18.0771 61.5859 17.9611 61.8792 17.9611H68.4599C68.7825 17.9611 69.0919 17.8334 69.32 17.6063C69.5481 17.3791 69.6763 17.071 69.6763 16.7497C69.6763 16.4284 69.5481 16.1203 69.32 15.8932C69.0919 15.666 68.7825 15.5384 68.4599 15.5384H61.8792C61.5859 15.5384 61.3047 15.4224 61.0973 15.2158C60.8899 15.0093 60.7734 14.7292 60.7734 14.4372C60.7734 14.1451 60.8899 13.865 61.0973 13.6585C61.3047 13.452 61.5859 13.3359 61.8792 13.3359H68.4599C69.3691 13.3359 70.2409 13.6956 70.8838 14.3358C71.5266 14.976 71.8877 15.8443 71.8877 16.7497C71.8877 17.6551 71.5266 18.5234 70.8838 19.1636C70.2409 19.8038 69.3691 20.1635 68.4599 20.1635Z" fill="white"/>
<path d="M68.1709 25.3674H62.1682C61.875 25.3674 61.5937 25.2514 61.3864 25.0449C61.179 24.8384 61.0625 24.5583 61.0625 24.2662C61.0625 23.9741 61.179 23.694 61.3864 23.4875C61.5937 23.281 61.875 23.165 62.1682 23.165H68.1709C68.5705 23.165 68.9538 23.0069 69.2364 22.7254C69.5191 22.444 69.6778 22.0622 69.6778 21.6642C69.6778 21.2661 69.5191 20.8844 69.2364 20.6029C68.9538 20.3215 68.5705 20.1634 68.1709 20.1634H62.1682C61.875 20.1634 61.5937 20.0474 61.3864 19.8408C61.179 19.6343 61.0625 19.3542 61.0625 19.0622C61.0625 18.7701 61.179 18.49 61.3864 18.2835C61.5937 18.077 61.875 17.9609 62.1682 17.9609H68.1709C68.6592 17.9609 69.1427 18.0567 69.5939 18.2428C70.045 18.4289 70.4549 18.7017 70.8002 19.0456C71.1455 19.3895 71.4194 19.7977 71.6063 20.247C71.7931 20.6963 71.8893 21.1779 71.8893 21.6642C71.8893 22.1505 71.7931 22.632 71.6063 23.0813C71.4194 23.5306 71.1455 23.9389 70.8002 24.2828C70.4549 24.6266 70.045 24.8994 69.5939 25.0855C69.1427 25.2716 68.6592 25.3674 68.1709 25.3674Z" fill="white"/>
<path d="M68.1709 30.5729H62.1682C61.875 30.5729 61.5937 30.4569 61.3864 30.2504C61.179 30.0438 61.0625 29.7637 61.0625 29.4717C61.0625 29.1796 61.179 28.8995 61.3864 28.693C61.5937 28.4865 61.875 28.3705 62.1682 28.3705H68.1709C68.373 28.377 68.5743 28.343 68.763 28.2704C68.9516 28.1979 69.1237 28.0883 69.269 27.9483C69.4143 27.8082 69.5298 27.6404 69.6087 27.455C69.6876 27.2696 69.7282 27.0703 69.7282 26.8689C69.7282 26.6675 69.6876 26.4682 69.6087 26.2827C69.5298 26.0973 69.4143 25.9296 69.269 25.7895C69.1237 25.6494 68.9516 25.5398 68.763 25.4673C68.5743 25.3948 68.373 25.3608 68.1709 25.3673H62.1682C61.875 25.3673 61.5937 25.2513 61.3864 25.0447C61.179 24.8382 61.0625 24.5581 61.0625 24.2661C61.0625 23.974 61.179 23.6939 61.3864 23.4874C61.5937 23.2809 61.875 23.1648 62.1682 23.1648H68.1709C68.6657 23.1547 69.1577 23.243 69.6178 23.4246C70.078 23.6062 70.4971 23.8774 70.8507 24.2223C71.2043 24.5673 71.4852 24.979 71.677 25.4335C71.8688 25.8879 71.9675 26.3759 71.9675 26.8689C71.9675 27.3618 71.8688 27.8498 71.677 28.3043C71.4852 28.7587 71.2043 29.1705 70.8507 29.5154C70.4971 29.8604 70.078 30.1316 69.6178 30.3132C69.1577 30.4948 68.6657 30.5831 68.1709 30.5729Z" fill="white"/>
<path d="M68.1698 35.7776H47.137C46.8437 35.7776 46.5625 35.6616 46.3551 35.455C46.1477 35.2485 46.0312 34.9684 46.0312 34.6764C46.0312 34.3843 46.1477 34.1042 46.3551 33.8977C46.5625 33.6912 46.8437 33.5751 47.137 33.5751H68.1698C68.5695 33.5751 68.9528 33.417 69.2354 33.1356C69.518 32.8541 69.6768 32.4724 69.6768 32.0743C69.6768 31.6763 69.518 31.2946 69.2354 31.0131C68.9528 30.7317 68.5695 30.5735 68.1698 30.5735C67.8766 30.5735 67.5953 30.4575 67.388 30.251C67.1806 30.0445 67.0641 29.7644 67.0641 29.4723C67.0641 29.1803 67.1806 28.9002 67.388 28.6936C67.5953 28.4871 67.8766 28.3711 68.1698 28.3711C69.156 28.3711 70.1018 28.7613 70.7992 29.4557C71.4965 30.1502 71.8883 31.0922 71.8883 32.0743C71.8883 33.0565 71.4965 33.9984 70.7992 34.6929C70.1018 35.3874 69.156 35.7776 68.1698 35.7776Z" fill="white"/>
<path d="M48.0082 35.7771H39.5745C39.2812 35.7771 39 35.6611 38.7926 35.4546C38.5852 35.2481 38.4688 34.968 38.4688 34.6759V16.7497C38.4688 16.4576 38.5852 16.1775 38.7926 15.971C39 15.7645 39.2812 15.6484 39.5745 15.6484H48.0082C48.3014 15.6484 48.5827 15.7645 48.79 15.971C48.9974 16.1775 49.1139 16.4576 49.1139 16.7497V34.6759C49.1139 34.968 48.9974 35.2481 48.79 35.4546C48.5827 35.6611 48.3014 35.7771 48.0082 35.7771ZM40.6802 33.5747H46.9024V17.8509H40.6802V33.5747Z" fill="white"/>
<path d="M48.2936 17.8622C48.1543 17.8629 48.0152 17.8566 47.8766 17.8433C47.5852 17.8095 47.3192 17.6618 47.1372 17.4327C46.9551 17.2036 46.8719 16.9119 46.9059 16.6217C46.9398 16.3315 47.0881 16.0667 47.3181 15.8854C47.5482 15.7041 47.8411 15.6212 48.1325 15.655C48.3425 15.6755 52.7008 15.9932 55.7637 9.02567C56.4735 7.37908 56.8924 5.62279 57.0021 3.83421C57.1143 2.22171 57.6229 1.18185 58.5122 0.746082C59.3021 0.359082 60.2167 0.505387 61.2339 1.1787C62.5577 2.06587 63.489 3.42525 63.8356 4.97633C64.2763 6.88301 64.4991 9.77922 63.0584 12.7415C63.0316 12.7981 62.9873 12.8768 62.9336 12.9712C62.7425 13.3 62.6446 13.5249 62.643 13.6382C62.8526 13.8393 62.9742 14.1146 62.9813 14.4044C62.9884 14.6942 62.8804 14.9751 62.6809 15.1862C62.4807 15.3984 62.2043 15.5229 61.9121 15.5326C61.6199 15.5424 61.3358 15.4365 61.1218 15.2381C60.2388 14.4091 60.2024 13.2764 61.0175 11.87C61.0397 11.8322 61.0586 11.8007 61.0712 11.7756C62.2275 9.39694 62.0411 7.03247 61.6794 5.47031C61.4594 4.46804 60.8611 3.58829 60.0082 3.01302C59.8492 2.8971 59.6719 2.80831 59.4837 2.7503C59.4016 2.88245 59.2594 3.24899 59.2089 3.98681C59.0811 6.02796 58.6001 8.03176 57.7872 9.90979C54.5505 17.2769 49.7389 17.8622 48.2936 17.8622Z" fill="white"/>
<path d="M43.7932 27.253C43.5 27.253 43.2187 27.137 43.0114 26.9304C42.804 26.7239 42.6875 26.4438 42.6875 26.1518V23.1344C42.6875 22.8424 42.804 22.5623 43.0114 22.3557C43.2187 22.1492 43.5 22.0332 43.7932 22.0332C44.0865 22.0332 44.3678 22.1492 44.5751 22.3557C44.7825 22.5623 44.899 22.8424 44.899 23.1344V26.1518C44.899 26.4438 44.7825 26.7239 44.5751 26.9304C44.3678 27.137 44.0865 27.253 43.7932 27.253Z" fill="white"/>
<path d="M9.79628 73.5334C9.67378 73.5329 9.55217 73.5127 9.43612 73.4736L6.47905 72.4589L3.51723 73.4736C3.34942 73.5304 3.17036 73.5461 2.99516 73.5196C2.81996 73.493 2.65373 73.4249 2.5105 73.3209C2.36726 73.217 2.25121 73.0803 2.17213 72.9223C2.09304 72.7644 2.05324 72.5898 2.05607 72.4133L2.10977 69.2937L0.222111 66.8018C0.115356 66.6605 0.0443513 66.4956 0.0151021 66.3212C-0.0141471 66.1468 -0.00077994 65.9679 0.054073 65.7997C0.108926 65.6315 0.203651 65.4789 0.330234 65.3548C0.456818 65.2308 0.611537 65.139 0.781302 65.0871L3.78261 64.1746L5.58023 61.6182C5.68218 61.4732 5.81776 61.3547 5.97546 61.2729C6.13317 61.1911 6.30835 61.1484 6.48615 61.1484C6.66396 61.1484 6.83914 61.1911 6.99684 61.2729C7.15455 61.3547 7.29012 61.4732 7.39207 61.6182L9.18812 64.1746L12.1894 65.0871C12.3593 65.1388 12.5142 65.2305 12.641 65.3544C12.7677 65.4784 12.8626 65.631 12.9177 65.7992C12.9727 65.9674 12.9862 66.1464 12.957 66.3209C12.9279 66.4954 12.8569 66.6604 12.7502 66.8018L10.8531 69.2937L10.902 72.4133C10.9045 72.5595 10.8778 72.7047 10.8234 72.8405C10.7689 72.9763 10.6879 73.1 10.5849 73.2042C10.482 73.3085 10.3593 73.3913 10.2239 73.4478C10.0884 73.5043 9.9431 73.5334 9.79628 73.5334ZM6.47905 70.192C6.60156 70.1923 6.72321 70.2125 6.8392 70.2518L8.66842 70.8811L8.63525 68.9539C8.63118 68.7085 8.70957 68.4687 8.85798 68.2727L10.0206 66.7342L8.17083 66.171C7.93334 66.0994 7.72693 65.9504 7.58479 65.7478L6.47905 64.1746L5.3733 65.7478C5.23127 65.9488 5.02625 66.0971 4.79042 66.1694L2.94066 66.7326L4.10959 68.2712C4.25799 68.4672 4.33639 68.7069 4.33232 68.9523L4.29915 70.8795L6.12837 70.2502C6.24134 70.2121 6.35977 70.1924 6.47905 70.192Z" fill="white"/>
<path d="M24.8041 73.5342C24.6816 73.534 24.5599 73.5138 24.4439 73.4745L21.4869 72.4598L18.525 73.4745C18.357 73.5322 18.1774 73.5486 18.0015 73.5225C17.8257 73.4964 17.6588 73.4284 17.5149 73.3244C17.3711 73.2203 17.2545 73.0833 17.1752 72.9248C17.0958 72.7664 17.056 72.5912 17.0591 72.4142L17.1144 69.2946L15.2299 66.8027C15.1232 66.6613 15.0522 66.4965 15.0229 66.322C14.9937 66.1476 15.007 65.9687 15.0619 65.8005C15.1167 65.6323 15.2115 65.4797 15.338 65.3557C15.4646 65.2316 15.6193 65.1398 15.7891 65.0879L18.7904 64.1755L20.588 61.6191C20.69 61.4743 20.8255 61.3561 20.9831 61.2746C21.1406 61.193 21.3156 61.1504 21.4932 61.1504C21.6707 61.1504 21.8457 61.193 22.0033 61.2746C22.1608 61.3561 22.2963 61.4743 22.3983 61.6191L24.1959 64.1755L27.1972 65.0879C27.3671 65.1396 27.522 65.2313 27.6488 65.3553C27.7755 65.4792 27.8705 65.6318 27.9255 65.8C27.9805 65.9682 27.994 66.1472 27.9648 66.3217C27.9357 66.4963 27.8647 66.6612 27.758 66.8027L25.8735 69.2946L25.9272 72.4142C25.9297 72.5603 25.903 72.7056 25.8485 72.8414C25.7941 72.9772 25.7131 73.1008 25.6101 73.2051C25.5072 73.3093 25.3844 73.3921 25.249 73.4487C25.1136 73.5052 24.9683 73.5343 24.8215 73.5342H24.8041ZM21.4869 70.1928C21.6094 70.1931 21.731 70.2133 21.847 70.2526L23.6762 70.8819L23.6431 68.9548C23.6385 68.7095 23.7164 68.4698 23.8642 68.2736L25.0284 66.735L23.1786 66.1718C22.9431 66.0997 22.7385 65.9513 22.5973 65.7502L21.4916 64.177L20.3859 65.7502C20.2438 65.9512 20.0388 66.0995 19.803 66.1718L17.9532 66.735L19.1174 68.2736C19.2658 68.4696 19.3442 68.7093 19.3401 68.9548L19.3054 70.8819L21.1346 70.2526C21.2481 70.2142 21.367 70.194 21.4869 70.1928Z" fill="white"/>
<path d="M33.174 73.5342C33.0272 73.5343 32.8818 73.5052 32.7464 73.4487C32.611 73.3921 32.4883 73.3093 32.3853 73.2051C32.2824 73.1008 32.2013 72.9772 32.1469 72.8414C32.0925 72.7056 32.0657 72.5603 32.0682 72.4142L32.1219 69.2946L30.2374 66.8027C30.1307 66.6612 30.0598 66.4963 30.0306 66.3217C30.0015 66.1472 30.015 65.9682 30.07 65.8C30.125 65.6318 30.2199 65.4792 30.3467 65.3553C30.4734 65.2313 30.6283 65.1396 30.7982 65.0879L33.7995 64.1755L35.5971 61.6191C35.6991 61.4743 35.8346 61.3561 35.9922 61.2746C36.1497 61.193 36.3247 61.1504 36.5023 61.1504C36.6798 61.1504 36.8548 61.193 37.0124 61.2746C37.1699 61.3561 37.3054 61.4743 37.4074 61.6191L39.205 64.1755L42.2063 65.0879C42.3762 65.1396 42.5311 65.2313 42.6579 65.3553C42.7846 65.4792 42.8795 65.6318 42.9346 65.8C42.9896 65.9682 43.0031 66.1472 42.9739 66.3217C42.9448 66.4963 42.8738 66.6612 42.7671 66.8027L40.8826 69.2946L40.9363 72.4142C40.9394 72.5912 40.8996 72.7664 40.8203 72.9248C40.7409 73.0833 40.6244 73.2203 40.4805 73.3244C40.3367 73.4284 40.1698 73.4964 39.9939 73.5225C39.8181 73.5486 39.6385 73.5322 39.4704 73.4745L36.4912 72.4598L33.5294 73.4745C33.4149 73.5133 33.2949 73.5335 33.174 73.5342ZM32.9544 66.7334L34.1186 68.272C34.2664 68.4682 34.3443 68.7079 34.3398 68.9532L34.3066 70.8803L36.1358 70.251C36.3694 70.1724 36.6225 70.1724 36.8561 70.251L38.6853 70.8803L38.6522 68.9532C38.6476 68.7079 38.7255 68.4682 38.8733 68.272L40.0375 66.7334L38.1877 66.1702C37.9522 66.0981 37.7476 65.9498 37.6064 65.7486L36.5007 64.1755L35.3949 65.7486C35.2538 65.9498 35.0492 66.0981 34.8136 66.1702L32.9544 66.7334Z" fill="white"/>
<path d="M54.8171 73.5338C54.6951 73.5334 54.574 73.5132 54.4585 73.474L51.4999 72.4593L48.538 73.474C48.37 73.5317 48.1904 73.5482 48.0145 73.5221C47.8387 73.4959 47.6718 73.428 47.5279 73.3239C47.3841 73.2199 47.2675 73.0828 47.1882 72.9244C47.1089 72.7659 47.069 72.5907 47.0721 72.4137L47.1259 69.2941L45.2413 66.8022C45.1346 66.6608 45.0637 66.4958 45.0345 66.3213C45.0054 66.1468 45.0189 65.9678 45.0739 65.7996C45.1289 65.6313 45.2238 65.4788 45.3506 65.3548C45.4773 65.2309 45.6322 65.1392 45.8021 65.0875L48.8034 64.175L50.5995 61.6202C50.7014 61.4751 50.837 61.3567 50.9947 61.2749C51.1524 61.1931 51.3276 61.1504 51.5054 61.1504C51.6832 61.1504 51.8584 61.1931 52.0161 61.2749C52.1738 61.3567 52.3094 61.4751 52.4113 61.6202L54.2089 64.1766L57.2102 65.089C57.38 65.1409 57.5347 65.2328 57.6613 65.3568C57.7879 65.4808 57.8826 65.6334 57.9375 65.8016C57.9923 65.9698 58.0057 66.1487 57.9764 66.3232C57.9472 66.4976 57.8762 66.6624 57.7694 66.8038L55.8849 69.2957L55.9386 72.4153C55.9412 72.5615 55.9144 72.7067 55.86 72.8425C55.8055 72.9783 55.7245 73.1019 55.6215 73.2062C55.5186 73.3105 55.3959 73.3933 55.2605 73.4498C55.1251 73.5063 54.9797 73.5354 54.8329 73.5354L54.8171 73.5338ZM51.4999 70.1924C51.6219 70.1925 51.743 70.2127 51.8584 70.2522L53.6877 70.8814L53.6545 68.9543C53.6504 68.7089 53.7288 68.4691 53.8772 68.2731L55.0414 66.7346L53.1916 66.1714C52.9558 66.099 52.7508 65.9507 52.6088 65.7498L51.503 64.1766L50.3973 65.7498C50.2561 65.9509 50.0515 66.0993 49.816 66.1714L47.9662 66.7346L49.1304 68.2731C49.2786 68.4697 49.3564 68.7101 49.3516 68.9559L49.3184 70.8814L51.1476 70.2522C51.2611 70.2137 51.38 70.1935 51.4999 70.1924Z" fill="white"/>
<path d="M63.186 73.5336C63.0392 73.5336 62.8938 73.5045 62.7584 73.448C62.623 73.3915 62.5003 73.3087 62.3973 73.2044C62.2944 73.1002 62.2134 72.9765 62.1589 72.8407C62.1045 72.7049 62.0777 72.5597 62.0803 72.4135L62.134 69.2939L60.2495 66.802C60.1427 66.6607 60.0717 66.4958 60.0424 66.3214C60.0132 66.147 60.0266 65.9681 60.0814 65.7999C60.1363 65.6317 60.231 65.4791 60.3576 65.355C60.4842 65.231 60.6389 65.1392 60.8086 65.0873L63.81 64.1748L65.606 61.6184C65.7078 61.4729 65.8434 61.3539 66.0012 61.2717C66.1591 61.1896 66.3346 61.1466 66.5127 61.1465C66.6906 61.1469 66.8657 61.1899 67.0233 61.2721C67.1809 61.3543 67.3162 61.4731 67.4178 61.6184L69.2155 64.1748L72.2168 65.0873C72.3865 65.1392 72.5413 65.231 72.6678 65.355C72.7944 65.4791 72.8891 65.6317 72.944 65.7999C72.9988 65.9681 73.0122 66.147 72.983 66.3214C72.9537 66.4958 72.8827 66.6607 72.776 66.802L70.8915 69.2939L70.9452 72.4135C70.9482 72.5904 70.9084 72.7653 70.8291 72.9236C70.7499 73.0819 70.6335 73.2188 70.4898 73.3229C70.3462 73.4269 70.1795 73.4949 70.0039 73.5212C69.8282 73.5475 69.6488 73.5312 69.4808 73.4738L66.5032 72.4591L63.5414 73.4738C63.4269 73.5124 63.3069 73.5326 63.186 73.5336ZM66.5032 70.1922C66.6252 70.1923 66.7464 70.2125 66.8618 70.252L68.691 70.8813L68.6579 68.9541C68.6538 68.7087 68.7322 68.4689 68.8806 68.2729L70.0448 66.7344L68.195 66.1712C67.9589 66.0994 67.7537 65.951 67.6121 65.7496L66.5064 64.1764L65.4006 65.7496C65.2591 65.951 65.0539 66.0994 64.8178 66.1712L62.9696 66.7344L64.1322 68.2729C64.2809 68.4694 64.3593 68.7097 64.3549 68.9557L64.3218 70.8813L66.151 70.252C66.2644 70.2135 66.3834 70.1933 66.5032 70.1922Z" fill="white"/>
<path d="M62.2136 56.4036H47.6604C47.3672 56.4036 47.0859 56.2876 46.8785 56.0811C46.6712 55.8746 46.5547 55.5945 46.5547 55.3024C46.5547 55.0103 46.6712 54.7302 46.8785 54.5237C47.0859 54.3172 47.3672 54.2012 47.6604 54.2012H62.2136C62.5069 54.2012 62.7881 54.3172 62.9955 54.5237C63.2029 54.7302 63.3194 55.0103 63.3194 55.3024C63.3194 55.5945 63.2029 55.8746 62.9955 56.0811C62.7881 56.2876 62.5069 56.4036 62.2136 56.4036Z" fill="white"/>
<path d="M71.8762 51.4368H47.6604C47.3672 51.4368 47.0859 51.3208 46.8785 51.1143C46.6712 50.9078 46.5547 50.6277 46.5547 50.3356C46.5547 50.0435 46.6712 49.7634 46.8785 49.5569C47.0859 49.3504 47.3672 49.2344 47.6604 49.2344H71.8762C72.1695 49.2344 72.4507 49.3504 72.6581 49.5569C72.8655 49.7634 72.982 50.0435 72.982 50.3356C72.982 50.6277 72.8655 50.9078 72.6581 51.1143C72.4507 51.3208 72.1695 51.4368 71.8762 51.4368Z" fill="white"/>
<path d="M62.2136 46.4739H47.6604C47.3672 46.4739 47.0859 46.3579 46.8785 46.1514C46.6712 45.9449 46.5547 45.6648 46.5547 45.3727C46.5547 45.0806 46.6712 44.8005 46.8785 44.594C47.0859 44.3875 47.3672 44.2715 47.6604 44.2715H62.2136C62.5069 44.2715 62.7881 44.3875 62.9955 44.594C63.2029 44.8005 63.3194 45.0806 63.3194 45.3727C63.3194 45.6648 63.2029 45.9449 62.9955 46.1514C62.7881 46.3579 62.5069 46.4739 62.2136 46.4739Z" fill="white"/>
<path d="M71.8762 41.5032H47.6604C47.3672 41.5032 47.0859 41.3872 46.8785 41.1807C46.6712 40.9742 46.5547 40.6941 46.5547 40.402C46.5547 40.1099 46.6712 39.8298 46.8785 39.6233C47.0859 39.4168 47.3672 39.3008 47.6604 39.3008H71.8762C72.1695 39.3008 72.4507 39.4168 72.6581 39.6233C72.8655 39.8298 72.982 40.1099 72.982 40.402C72.982 40.6941 72.8655 40.9742 72.6581 41.1807C72.4507 41.3872 72.1695 41.5032 71.8762 41.5032Z" fill="white"/>
<path d="M71.8747 56.4036H67.0979C66.8047 56.4036 66.5234 56.2876 66.316 56.0811C66.1087 55.8746 65.9922 55.5945 65.9922 55.3024C65.9922 55.0103 66.1087 54.7302 66.316 54.5237C66.5234 54.3172 66.8047 54.2012 67.0979 54.2012H71.8747C72.168 54.2012 72.4493 54.3172 72.6566 54.5237C72.864 54.7302 72.9805 55.0103 72.9805 55.3024C72.9805 55.5945 72.864 55.8746 72.6566 56.0811C72.4493 56.2876 72.168 56.4036 71.8747 56.4036Z" fill="white"/>
<path d="M71.8747 46.4739H67.0979C66.8047 46.4739 66.5234 46.3579 66.316 46.1514C66.1087 45.9449 65.9922 45.6648 65.9922 45.3727C65.9922 45.0806 66.1087 44.8005 66.316 44.594C66.5234 44.3875 66.8047 44.2715 67.0979 44.2715H71.8747C72.168 44.2715 72.4493 44.3875 72.6566 44.594C72.864 44.8005 72.9805 45.0806 72.9805 45.3727C72.9805 45.6648 72.864 45.9449 72.6566 46.1514C72.4493 46.3579 72.168 46.4739 71.8747 46.4739Z" fill="white"/>
</svg>
