<svg width="21" height="21" viewBox="0 0 21 21" fill="none" xmlns="http://www.w3.org/2000/svg">
<path d="M17.9141 2.16016H15.9141V1.16016C15.9141 0.89494 15.8087 0.640586 15.6212 0.453049C15.4336 0.265513 15.1793 0.160156 14.9141 0.160156C14.6488 0.160156 14.3945 0.265513 14.207 0.453049C14.0194 0.640586 13.9141 0.89494 13.9141 1.16016V2.16016H7.91406V1.16016C7.91406 0.89494 7.80871 0.640586 7.62117 0.453049C7.43363 0.265513 7.17928 0.160156 6.91406 0.160156C6.64885 0.160156 6.39449 0.265513 6.20696 0.453049C6.01942 0.640586 5.91406 0.89494 5.91406 1.16016V2.16016H3.91406C3.11841 2.16016 2.35535 2.47623 1.79274 3.03884C1.23013 3.60145 0.914063 4.36451 0.914062 5.16016V17.1602C0.914063 17.9558 1.23013 18.7189 1.79274 19.2815C2.35535 19.8441 3.11841 20.1602 3.91406 20.1602H17.9141C18.7097 20.1602 19.4728 19.8441 20.0354 19.2815C20.598 18.7189 20.9141 17.9558 20.9141 17.1602V5.16016C20.9141 4.36451 20.598 3.60145 20.0354 3.03884C19.4728 2.47623 18.7097 2.16016 17.9141 2.16016ZM18.9141 17.1602C18.9141 17.4254 18.8087 17.6797 18.6212 17.8673C18.4336 18.0548 18.1793 18.1602 17.9141 18.1602H3.91406C3.64885 18.1602 3.39449 18.0548 3.20696 17.8673C3.01942 17.6797 2.91406 17.4254 2.91406 17.1602V10.1602H18.9141V17.1602ZM18.9141 8.16016H2.91406V5.16016C2.91406 4.89494 3.01942 4.64059 3.20696 4.45305C3.39449 4.26551 3.64885 4.16016 3.91406 4.16016H5.91406V5.16016C5.91406 5.42537 6.01942 5.67973 6.20696 5.86726C6.39449 6.0548 6.64885 6.16016 6.91406 6.16016C7.17928 6.16016 7.43363 6.0548 7.62117 5.86726C7.80871 5.67973 7.91406 5.42537 7.91406 5.16016V4.16016H13.9141V5.16016C13.9141 5.42537 14.0194 5.67973 14.207 5.86726C14.3945 6.0548 14.6488 6.16016 14.9141 6.16016C15.1793 6.16016 15.4336 6.0548 15.6212 5.86726C15.8087 5.67973 15.9141 5.42537 15.9141 5.16016V4.16016H17.9141C18.1793 4.16016 18.4336 4.26551 18.6212 4.45305C18.8087 4.64059 18.9141 4.89494 18.9141 5.16016V8.16016Z" fill="black"/>
</svg>
