<svg width="30" height="30" viewBox="0 0 30 30" fill="none" xmlns="http://www.w3.org/2000/svg">
<path fill-rule="evenodd" clip-rule="evenodd" d="M5 0C2.23853 0 0 2.23853 0 5V25C0 27.7615 2.23853 30 5 30H25C27.7615 30 30 27.7615 30 25V5C30 2.23853 27.7615 0 25 0H5ZM14.9565 7.0022C14.9855 6.99927 15.0145 6.99927 15.0435 7.0022L19.1161 7.42969C19.2395 7.44263 19.3517 7.51001 19.4248 7.61499L22.913 12.6187C22.9629 12.6885 22.9941 12.7737 22.9993 12.8662L23 12.8875V12.8931V12.895C22.9995 13.0059 22.9615 13.1077 22.8987 13.1865L15.3369 22.833C15.254 22.9387 15.1305 23 15 23C14.9243 23 14.851 22.9792 14.7865 22.9414C14.7399 22.9138 14.6979 22.8774 14.6631 22.833L7.10132 13.1865C7.03845 13.1077 7.00037 13.0059 7 12.895V12.8931L7.00012 12.885C7.00171 12.7852 7.03381 12.6931 7.08704 12.6187L10.5751 7.61499C10.6483 7.51001 10.7605 7.44263 10.8839 7.42969L14.9565 7.0022ZM21.6184 12.313H18.9962L19.363 9.07764L21.6184 12.313ZM15.6334 7.98486L18.5731 8.29346L18.1124 12.3562L15.6334 7.98486ZM11.4269 8.29346L14.3666 7.98486L11.8876 12.3562L11.4269 8.29346ZM8.38159 12.313L10.6368 9.07764L11.0038 12.313H8.38159ZM14.1373 20.7205L8.36047 13.3511H11.171C11.1753 13.3684 11.1808 13.3855 11.1876 13.4023L14.1373 20.7205ZM15 20.7812L12.2661 13.3511H12.339H17.661H17.7339L15 20.7812ZM18.8124 13.4023C18.8192 13.3855 18.8247 13.3684 18.829 13.3511H21.6395L15.8627 20.7205L18.8124 13.4023ZM17.1415 12.4351L15 8.65894L12.8585 12.4351H17.1415Z" fill="white"/>
</svg>
