<svg width="100" height="100" viewBox="0 0 100 100" fill="none" xmlns="http://www.w3.org/2000/svg">
<rect width="100" height="100" rx="10" fill="#6167F8"/>
<path d="M74.8294 35.8854H73.1637C73.021 32.8965 70.9418 30.4076 68.1559 29.645C62.8397 16.2629 46.9674 16.0306 39.0852 20.9085C35.8483 22.9117 33.4484 25.8509 31.9413 29.645C29.1554 30.4077 27.0762 32.8965 26.9335 35.8854H25.1682C24.1127 35.8854 23.2539 36.7437 23.2539 37.7989V44.3647C23.2539 45.4199 24.1127 46.2782 25.1682 46.2782H26.9338C27.0814 49.269 29.1682 51.7572 31.9602 52.5129C33.3234 56.7376 35.5743 60.8839 38.8903 63.9187C38.9075 64.679 38.8703 67.1341 37.8577 70.0112C36.2414 74.6029 33.026 78.0529 28.3005 80.2651C27.4215 80.6765 27.7175 82 28.6869 82H71.4103C72.381 82 72.6745 80.6758 71.7967 80.265C67.0713 78.0526 63.8558 74.6027 62.2395 70.0111C61.2265 67.133 61.1897 64.6771 61.2068 63.9187C64.5159 60.891 66.7704 56.7476 68.1369 52.5129C70.9289 51.7572 73.0158 49.269 73.1634 46.2782H74.8294C75.8849 46.2782 76.7435 45.4199 76.7435 44.3647V37.7989C76.7435 36.7437 75.8849 35.8854 74.8294 35.8854ZM26.9252 44.4571C25.2734 44.42 25.0757 44.5387 25.0757 44.3646C25.1178 37.5996 24.9869 37.7064 25.1683 37.7064H26.9253L26.9252 44.4571ZM50.0487 19.844C57.6025 19.844 63.2388 23.2247 66.0743 29.4027H34.023C36.8585 23.2247 42.4948 19.844 50.0487 19.844ZM67.9539 80.179H32.1432C37.2892 76.6989 40.2338 71.2962 40.6689 65.4161C46.7917 69.524 53.6404 69.3421 59.4268 65.3974C59.8503 71.1959 62.7309 76.6467 67.9539 80.179ZM42.5425 64.4379C38.8428 62.1571 35.843 58.1348 33.9578 52.7497H44.7545C46.372 52.7497 47.688 51.4342 47.688 49.8174C47.688 49.1545 48.2274 48.6152 48.8905 48.6152H51.2065C51.8697 48.6152 52.409 49.1545 52.409 49.8174C52.409 51.4344 53.725 52.7497 55.3425 52.7497H66.1393C61.5435 65.8776 50.9764 69.3877 42.5425 64.4379ZM71.3345 45.9386C71.3345 48.6814 69.1023 50.9129 66.3585 50.9129H55.3428C54.7384 50.9129 54.2468 50.4214 54.2468 49.8172C54.2468 48.1416 52.883 46.7784 51.2068 46.7784H48.8908C47.2145 46.7784 45.8508 48.1415 45.8508 49.8172C45.8508 50.4214 45.3592 50.9129 44.7548 50.9129H33.7389C30.9952 50.9129 28.7629 48.6814 28.7629 45.9386V36.2137C28.7629 33.471 30.9952 31.2395 33.7389 31.2395H66.3587C69.1024 31.2395 71.3347 33.471 71.3347 36.2137L71.3345 45.9386ZM74.8294 44.4571H73.172V37.7064C74.7155 37.743 74.922 37.6247 74.922 37.7989C74.8798 44.564 75.0107 44.4571 74.8294 44.4571ZM60.3499 33.9189C59.8852 33.7267 59.3524 33.9476 59.1602 34.4124L57.0205 39.5861L54.8809 34.4124C54.6888 33.9476 54.1562 33.7267 53.6913 33.9189C53.2264 34.1109 53.0053 34.6434 53.1975 35.1081L56.131 42.2015C56.4499 42.9721 57.6038 42.9426 57.9102 42.2015L60.8437 35.1081C61.0359 34.6434 60.8149 34.1109 60.3499 33.9189ZM66.7703 39.2717C67.7015 38.7977 68.3414 37.8306 68.3414 36.7162C68.3414 35.1357 67.0552 33.8497 65.474 33.8497H63.0868C62.5838 33.8497 62.1759 34.2574 62.1759 34.7602V41.922C62.1759 42.4249 62.5837 42.8325 63.0868 42.8325C63.5899 42.8325 63.9975 42.4249 63.9975 41.922V39.5826H64.7924L66.6707 42.424C66.948 42.8435 67.5132 42.959 67.9327 42.6816C68.3524 42.4045 68.4678 41.8396 68.1904 41.4201L66.7703 39.2717ZM65.4739 37.7616H63.9975V35.6707H65.4739C66.0505 35.6707 66.5197 36.1397 66.5197 36.7162C66.5197 37.2926 66.0507 37.7616 65.4739 37.7616ZM31.2579 41.3607C30.7549 41.3607 30.3472 41.7684 30.3472 42.2712V43.7057C30.3472 44.2086 30.7549 44.6162 31.2579 44.6162C31.7609 44.6162 32.1687 44.2086 32.1687 43.7057V42.2712C32.1688 41.7684 31.7609 41.3607 31.2579 41.3607ZM34.2795 32.7649C32.0009 32.7649 30.347 34.4181 30.347 36.6959V39.3591C30.347 39.862 30.7548 40.2696 31.2578 40.2696C31.7608 40.2696 32.1685 39.862 32.1685 39.3591V36.6959C32.1685 35.7225 32.7214 34.5859 34.2794 34.5859C34.7824 34.5859 35.1902 34.1782 35.1902 33.6754C35.1904 33.1725 34.7827 32.7649 34.2795 32.7649Z" fill="white"/>
</svg>
