<svg width="100" height="100" viewBox="0 0 100 100" fill="none" xmlns="http://www.w3.org/2000/svg">
<path d="M0 10C0 4.47716 4.47715 0 10 0H90C95.5228 0 100 4.47715 100 10V90C100 95.5228 95.5228 100 90 100H10C4.47716 100 0 95.5228 0 90V10Z" fill="#6167F8"/>
<g clip-path="url(#clip0_4637_8347)">
<path d="M48.9538 42.0486C48.9464 42.0291 48.9386 42.0096 48.9308 41.9904C48.589 41.1605 47.7728 40.625 46.8753 40.625C45.9843 40.625 45.1795 41.1618 44.8413 41.986C44.8334 42.0053 44.8256 42.0245 44.8183 42.0439L39.1858 56.8326C38.8173 57.8004 39.3029 58.8836 40.2706 59.2521C41.2384 59.6206 42.3216 59.135 42.6901 58.1673L43.633 55.6917H50.0944L51.0266 58.162C51.3923 59.1309 52.474 59.6199 53.4429 59.2542C54.4118 58.8886 54.9008 57.8069 54.5351 56.838L48.9538 42.0486ZM45.0613 51.9419L46.8785 47.1705L48.6791 51.9419H45.0613Z" fill="white"/>
<path d="M59.0625 40.625C58.027 40.625 57.1875 41.4645 57.1875 42.5V57.5C57.1875 58.5355 58.027 59.375 59.0625 59.375C60.098 59.375 60.9375 58.5355 60.9375 57.5V42.5C60.9375 41.4645 60.098 40.625 59.0625 40.625Z" fill="white"/>
<path d="M33.75 68.125H66.25C67.2855 68.125 68.125 67.2855 68.125 66.25V33.75C68.125 32.7145 67.2855 31.875 66.25 31.875H33.75C32.7145 31.875 31.875 32.7145 31.875 33.75V66.25C31.875 67.2855 32.7145 68.125 33.75 68.125ZM35.625 35.625H64.375V64.375H35.625V35.625Z" fill="white"/>
<path d="M80.125 40.625C81.1605 40.625 82 39.7855 82 38.75C82 37.7145 81.1605 36.875 80.125 36.875H75.625V33.125H80.125C81.1605 33.125 82 32.2855 82 31.25C82 30.2145 81.1605 29.375 80.125 29.375H75.625V26.25C75.625 25.2145 74.7855 24.375 73.75 24.375H70.625V19.875C70.625 18.8395 69.7855 18 68.75 18C67.7145 18 66.875 18.8395 66.875 19.875V24.375H63.125V19.875C63.125 18.8395 62.2855 18 61.25 18C60.2145 18 59.375 18.8395 59.375 19.875V24.375H55.625V19.875C55.625 18.8395 54.7855 18 53.75 18C52.7145 18 51.875 18.8395 51.875 19.875V24.375H48.125V19.875C48.125 18.8395 47.2855 18 46.25 18C45.2145 18 44.375 18.8395 44.375 19.875V24.375H40.625V19.875C40.625 18.8395 39.7855 18 38.75 18C37.7145 18 36.875 18.8395 36.875 19.875V24.375H33.125V19.875C33.125 18.8395 32.2855 18 31.25 18C30.2145 18 29.375 18.8395 29.375 19.875V24.375H26.25C25.2145 24.375 24.375 25.2145 24.375 26.25V29.375H19.875C18.8395 29.375 18 30.2145 18 31.25C18 32.2855 18.8395 33.125 19.875 33.125H24.375V36.875H19.875C18.8395 36.875 18 37.7145 18 38.75C18 39.7855 18.8395 40.625 19.875 40.625H24.375V44.375H19.875C18.8395 44.375 18 45.2145 18 46.25C18 47.2855 18.8395 48.125 19.875 48.125H24.375V51.875H19.875C18.8395 51.875 18 52.7145 18 53.75C18 54.7855 18.8395 55.625 19.875 55.625H24.375V59.375H19.875C18.8395 59.375 18 60.2145 18 61.25C18 62.2855 18.8395 63.125 19.875 63.125H24.375V66.875H19.875C18.8395 66.875 18 67.7145 18 68.75C18 69.7855 18.8395 70.625 19.875 70.625H24.375V73.75C24.375 74.7855 25.2145 75.625 26.25 75.625H29.375V80.125C29.375 81.1605 30.2145 82 31.25 82C32.2855 82 33.125 81.1605 33.125 80.125V75.625H36.875V80.125C36.875 81.1605 37.7145 82 38.75 82C39.7855 82 40.625 81.1605 40.625 80.125V75.625H44.375V80.125C44.375 81.1605 45.2145 82 46.25 82C47.2855 82 48.125 81.1605 48.125 80.125V75.625H51.875V80.125C51.875 81.1605 52.7145 82 53.75 82C54.7855 82 55.625 81.1605 55.625 80.125V75.625H59.375V80.125C59.375 81.1605 60.2145 82 61.25 82C62.2855 82 63.125 81.1605 63.125 80.125V75.625H66.875V80.125C66.875 81.1605 67.7145 82 68.75 82C69.7855 82 70.625 81.1605 70.625 80.125V75.625H73.75C74.7855 75.625 75.625 74.7855 75.625 73.75V70.625H80.125C81.1605 70.625 82 69.7855 82 68.75C82 67.7145 81.1605 66.875 80.125 66.875H75.625V63.125H80.125C81.1605 63.125 82 62.2855 82 61.25C82 60.2145 81.1605 59.375 80.125 59.375H75.625V55.625H80.125C81.1605 55.625 82 54.7855 82 53.75C82 52.7145 81.1605 51.875 80.125 51.875H75.625V48.125H80.125C81.1605 48.125 82 47.2855 82 46.25C82 45.2145 81.1605 44.375 80.125 44.375H75.625V40.625H80.125ZM71.875 71.875H28.125V28.125H71.875V71.875Z" fill="white"/>
</g>
<defs>
<clipPath id="clip0_4637_8347">
<rect width="64" height="64" fill="white" transform="translate(18 18)"/>
</clipPath>
</defs>
</svg>
