<svg width="100" height="100" viewBox="0 0 100 100" fill="none" xmlns="http://www.w3.org/2000/svg">
<rect width="100" height="100" rx="10" fill="#6167F8"/>
<path d="M49.0012 27.8484C39.9437 27.8484 32.5749 35.2171 32.5749 44.2746C32.5749 48.5278 33.8667 50.7355 35.2343 53.0728C36.7202 55.6123 38.4039 58.4906 38.79 64.9916V67.4659C38.79 69.0521 39.849 70.395 41.297 70.8266V72.4796C41.297 74.089 42.3873 75.4479 43.8678 75.8585V77.4935C43.8678 79.4271 45.4409 81.0003 47.3745 81.0003H50.6278C52.5614 81.0003 54.1345 79.4271 54.1345 77.4935V75.8586C55.615 75.448 56.7053 74.0893 56.7053 72.4798V70.8268C58.1532 70.3953 59.2122 69.0522 59.2122 67.466V64.9917C59.5983 58.4907 61.2822 55.6125 62.768 53.0729C64.1357 50.7356 65.4274 48.528 65.4274 44.2747C65.4275 35.2171 58.0587 27.8484 49.0012 27.8484ZM52.9668 40.3091V48.2402H50.0012V40.3091H52.9668ZM41.028 49.1735C40.5077 48.3288 40.1274 47.4116 39.898 46.4478C39.8218 46.127 39.5923 45.8644 39.2845 45.746L37.9244 45.2225V43.327L39.2848 42.8034C39.5925 42.685 39.822 42.4224 39.8983 42.1017C40.1275 41.1385 40.5078 40.2215 41.0283 39.3762C41.2013 39.0954 41.2245 38.7474 41.0908 38.446L40.4985 37.1125L41.8389 35.7721L43.1727 36.3645C43.4738 36.4983 43.822 36.4751 44.1028 36.3021C44.9483 35.7815 45.8652 35.4014 46.828 35.1721C47.1487 35.0959 47.4113 34.8664 47.5297 34.5586L48.0012 33.3337V37.649C44.779 38.1332 42.3005 40.9198 42.3005 44.2747C42.3005 47.6297 44.779 50.4163 48.0012 50.9004V55.2156L47.5298 53.9909C47.4114 53.683 47.1488 53.4535 46.828 53.3771C45.8657 53.1483 44.9487 52.7681 44.1028 52.2474C43.8218 52.0744 43.4738 52.0511 43.1727 52.185L41.8389 52.7772L40.4985 51.4369L41.0905 50.1037C41.2244 49.8025 41.201 49.4544 41.028 49.1735ZM48.0012 48.8673C45.8882 48.4075 44.3005 46.5234 44.3005 44.2747C44.3005 42.0261 45.8882 40.142 48.0012 39.6822V48.8673ZM34.5749 44.2746C34.5749 36.6561 40.5113 30.399 48.0012 29.8836V31.1979H47.3668C46.953 31.1979 46.5822 31.4526 46.4335 31.8386L45.8469 33.3626C45.0367 33.5965 44.2563 33.92 43.5168 34.3288L42.0232 33.6652C41.6454 33.4974 41.2027 33.5794 40.9102 33.872L38.5988 36.1834C38.3063 36.476 38.2242 36.9184 38.392 37.2964L39.0554 38.7896C38.6465 39.5291 38.323 40.3096 38.0892 41.1203L36.5654 41.7068C36.1794 41.8553 35.9247 42.2262 35.9247 42.64V45.9088C35.9247 46.3225 36.1794 46.6934 36.5654 46.842L38.0889 47.4284C38.3229 48.2395 38.6464 49.02 39.0552 49.7594L38.392 51.2523C38.2242 51.6302 38.3063 52.0726 38.5988 52.3652L40.9102 54.6766C41.2028 54.969 41.6449 55.0511 42.0232 54.8834L43.5168 54.22C44.2565 54.6289 45.0368 54.9523 45.847 55.1861L46.4335 56.71C46.582 57.0961 46.953 57.3509 47.3668 57.3509H48.0012V63.9581H40.7228C40.2104 57.617 38.4882 54.6731 36.9604 52.0621C35.6277 49.7849 34.5749 47.9858 34.5749 44.2746ZM50.6279 79H47.3747C46.5439 79 45.8679 78.3241 45.8679 77.4933V75.9863H52.1347V77.4934C52.1345 78.3241 51.4587 79 50.6279 79ZM53.1988 73.9863H44.8039C43.973 73.9863 43.297 73.3104 43.297 72.4795V70.9725H54.7054V72.4795C54.7054 73.3102 54.0295 73.9863 53.1988 73.9863ZM55.7057 68.9725H42.2968C41.466 68.9725 40.79 68.2966 40.79 67.4658V65.9588H57.2122V67.4659C57.2122 68.2966 56.5363 68.9725 55.7057 68.9725ZM61.0419 52.0628C59.5142 54.6738 57.7919 57.6175 57.2794 63.9588H50.0012V50.2402H50.6172V52.9658C50.6172 53.518 51.0649 53.9658 51.6172 53.9658H53.9638C54.3687 55.0324 55.4008 55.7928 56.6077 55.7928C58.1665 55.7928 59.4347 54.5245 59.4347 52.9658C59.4347 51.407 58.1664 50.1386 56.6077 50.1386C55.4008 50.1386 54.3687 50.8991 53.9638 51.9658H52.6172V50.2402H53.1298C54.1428 50.2402 54.9668 49.4161 54.9668 48.4032V45.2747H56.3135C56.7183 46.3414 57.7504 47.1017 58.9573 47.1017C60.5162 47.1017 61.7843 45.8335 61.7843 44.2747C61.7843 42.716 60.516 41.4478 58.9573 41.4478C57.7504 41.4478 56.7183 42.2081 56.3135 43.2747H54.9668V40.1462C54.9668 39.1332 54.1427 38.3092 53.1298 38.3092H52.6172V36.5837H53.9638C54.3687 37.6504 55.4008 38.4109 56.6077 38.4109C58.1665 38.4109 59.4347 37.1426 59.4347 35.5837C59.4347 34.0249 58.1664 32.7568 56.6077 32.7568C55.4008 32.7568 54.3687 33.5171 53.9638 34.5837H51.6172C51.0649 34.5837 50.6172 35.0315 50.6172 35.5837V38.3092H50.0012V29.8836C57.491 30.399 63.4275 36.6561 63.4275 44.2746C63.4275 47.9858 62.3748 49.7849 61.0419 52.0628ZM55.7804 52.9658C55.7804 52.5098 56.1515 52.1386 56.6075 52.1386C57.0635 52.1386 57.4345 52.5098 57.4345 52.9658C57.4345 53.4218 57.0635 53.7928 56.6075 53.7928C56.1515 53.7928 55.7804 53.4218 55.7804 52.9658ZM58.1302 44.2746C58.1302 43.8186 58.5012 43.4476 58.9572 43.4476C59.4132 43.4476 59.7842 43.8186 59.7842 44.2746C59.7842 44.7306 59.4132 45.1016 58.9572 45.1016C58.5012 45.1016 58.1302 44.7308 58.1302 44.2746ZM55.7804 35.5836C55.7804 35.1276 56.1515 34.7566 56.6075 34.7566C57.0635 34.7566 57.4345 35.1276 57.4345 35.5836C57.4345 36.0396 57.0635 36.4107 56.6075 36.4107C56.1515 36.4107 55.7804 36.0396 55.7804 35.5836ZM48.0013 23.6337V20C48.0013 19.4477 48.449 19 49.0013 19C49.5535 19 50.0013 19.4477 50.0013 20V23.6337C50.0013 24.186 49.5535 24.6337 49.0013 24.6337C48.449 24.6337 48.0013 24.186 48.0013 23.6337ZM34.6835 24.1044C34.4073 23.6261 34.5713 23.0145 35.0495 22.7384C35.528 22.4621 36.1395 22.6262 36.4155 23.1044L38.2323 26.2513C38.5085 26.7295 38.3445 27.3411 37.8663 27.6173C37.7088 27.7083 37.5368 27.7514 37.3673 27.7514C37.0215 27.7514 36.6855 27.572 36.5003 27.2513L34.6835 24.1044ZM29.7149 35.7685C29.5298 36.0892 29.1935 36.2686 28.8479 36.2686C28.6783 36.2686 28.5064 36.2254 28.3489 36.1345L25.202 34.3178C24.7238 34.0416 24.5598 33.43 24.836 32.9517C25.112 32.4734 25.7238 32.3095 26.202 32.5857L29.3489 34.4025C29.8272 34.6788 29.9912 35.2902 29.7149 35.7685ZM25.7314 47.9036H22.0977C21.5454 47.9036 21.0977 47.4559 21.0977 46.9036C21.0977 46.3514 21.5454 45.9036 22.0977 45.9036H25.7314C26.2837 45.9036 26.7314 46.3514 26.7314 46.9036C26.7314 47.4559 26.2837 47.9036 25.7314 47.9036ZM29.7149 58.0385C29.9912 58.5168 29.8272 59.1284 29.3489 59.4045L26.2019 61.2214C26.0444 61.3124 25.8724 61.3555 25.7029 61.3555C25.3572 61.3555 25.0212 61.1761 24.8359 60.8554C24.5597 60.3771 24.7237 59.7655 25.2019 59.4894L28.3489 57.6725C28.8274 57.3963 29.4389 57.5604 29.7149 58.0385ZM59.7702 26.2514L61.587 23.1044C61.863 22.626 62.4748 22.4621 62.953 22.7384C63.4313 23.0145 63.5953 23.6261 63.319 24.1044L61.5022 27.2514C61.317 27.5721 60.9808 27.7515 60.6352 27.7515C60.4655 27.7515 60.2937 27.7083 60.1362 27.6174C59.6579 27.3411 59.4939 26.7296 59.7702 26.2514ZM68.2875 35.7686C68.0113 35.2904 68.1753 34.6787 68.6535 34.4026L71.8004 32.5857C72.2789 32.3095 72.8903 32.4736 73.1664 32.9517C73.4426 33.43 73.2787 34.0416 72.8004 34.3178L69.6535 36.1346C69.496 36.2256 69.324 36.2687 69.1545 36.2687C68.8088 36.2687 68.4727 36.0895 68.2875 35.7686ZM76.9048 46.9036C76.9048 47.4559 76.457 47.9036 75.9048 47.9036H72.2712C71.7189 47.9036 71.2712 47.4559 71.2712 46.9036C71.2712 46.3514 71.7189 45.9036 72.2712 45.9036H75.9048C76.4569 45.9036 76.9048 46.3514 76.9048 46.9036ZM73.1663 60.8554C72.9812 61.1761 72.6449 61.3555 72.2993 61.3555C72.1297 61.3555 71.9578 61.3122 71.8003 61.2214L68.6534 59.4046C68.1752 59.1285 68.0112 58.5169 68.2874 58.0386C68.5634 57.5602 69.1752 57.3964 69.6534 57.6726L72.8003 59.4894C73.2787 59.7655 73.4425 60.3771 73.1663 60.8554Z" fill="white"/>
</svg>
