<svg width="100" height="100" viewBox="0 0 100 100" fill="none" xmlns="http://www.w3.org/2000/svg">
<rect width="100" height="100" rx="10" fill="#6167F8"/>
<path d="M38.6953 34.6929L40.1093 36.1069C41.407 34.8051 42.9489 33.7722 44.6465 33.0675C46.3442 32.3628 48.1642 32 50.0023 32C51.8404 32 53.6605 32.3628 55.3581 33.0675C57.0557 33.7722 58.5976 34.8051 59.8953 36.1069L61.3093 34.6929C59.826 33.2053 58.0637 32.0251 56.1234 31.2198C54.1831 30.4145 52.1031 30 50.0023 30C47.9016 30 45.8215 30.4145 43.8812 31.2198C41.941 32.0251 40.1787 33.2053 38.6953 34.6929Z" fill="white"/>
<path d="M41.5156 37.5109L42.9266 38.9289C44.8031 37.0534 47.3476 35.9999 50.0006 35.9999C52.6537 35.9999 55.1981 37.0534 57.0746 38.9289L58.4856 37.5109C56.2342 35.2626 53.1824 33.9998 50.0006 33.9998C46.8188 33.9998 43.7671 35.2626 41.5156 37.5109Z" fill="white"/>
<path d="M44.3438 40.3428L45.7577 41.7568C46.3149 41.1995 46.9764 40.7575 47.7044 40.4559C48.4324 40.1543 49.2127 39.9991 50.0007 39.9991C50.7888 39.9991 51.5691 40.1543 52.2971 40.4559C53.0251 40.7575 53.6866 41.1995 54.2437 41.7568L55.6578 40.3428C54.9149 39.5999 54.0329 39.0106 53.0623 38.6085C52.0917 38.2065 51.0514 37.9995 50.0007 37.9995C48.9501 37.9995 47.9098 38.2065 46.9392 38.6085C45.9686 39.0106 45.0866 39.5999 44.3438 40.3428Z" fill="white"/>
<path d="M50 42C49.4067 42 48.8266 42.1759 48.3333 42.5056C47.8399 42.8352 47.4554 43.3038 47.2284 43.8519C47.0013 44.4001 46.9419 45.0033 47.0576 45.5853C47.1734 46.1672 47.4591 46.7018 47.8787 47.1213C48.2982 47.5409 48.8328 47.8266 49.4147 47.9424C49.9967 48.0581 50.5999 47.9987 51.148 47.7716C51.6962 47.5446 52.1648 47.1601 52.4944 46.6667C52.8241 46.1734 53 45.5933 53 45C53 44.2044 52.6839 43.4413 52.1213 42.8787C51.5587 42.3161 50.7957 42 50 42ZM50 46C49.8022 46 49.6089 45.9414 49.4444 45.8315C49.28 45.7216 49.1518 45.5654 49.0761 45.3827C49.0004 45.2 48.9806 44.9989 49.0192 44.8049C49.0578 44.6109 49.153 44.4327 49.2929 44.2929C49.4327 44.153 49.6109 44.0578 49.8049 44.0192C49.9989 43.9806 50.2 44.0004 50.3827 44.0761C50.5654 44.1518 50.7216 44.28 50.8315 44.4444C50.9414 44.6089 51 44.8022 51 45C51 45.2652 50.8946 45.5196 50.7071 45.7071C50.5196 45.8946 50.2652 46 50 46Z" fill="white"/>
<path d="M79.0006 73.9999V66.9999C78.9982 66.205 78.6814 65.4433 78.1193 64.8812C77.5572 64.3191 76.7955 64.0023 76.0006 63.9999H71.0006V59.9999C71.0006 59.7347 70.8953 59.4803 70.7077 59.2928C70.5202 59.1052 70.2658 58.9999 70.0006 58.9999H52.8206C52.6692 58.5817 52.4276 58.2019 52.1131 57.8874C51.7986 57.5729 51.4188 57.3314 51.0006 57.1799V55.9999H69.0006C71.7535 56.0084 74.4096 54.9843 76.4442 53.1299C78.4789 51.2755 79.7442 48.7255 79.9904 45.9836C80.2366 43.2417 79.4457 40.5072 77.7739 38.32C76.1022 36.1328 73.671 34.6519 70.9606 34.1699C70.7503 31.9378 69.7158 29.8642 68.0592 28.3537C66.4026 26.8431 64.2426 26.0039 62.0006 25.9999C61.0809 25.9978 60.1665 26.1395 59.2906 26.4199C57.2502 23.851 54.5093 21.9282 51.3994 20.8838C48.2894 19.8394 44.9436 19.7181 41.7662 20.5347C38.5888 21.3513 35.716 23.0707 33.4949 25.4851C31.2739 27.8995 29.7997 30.9056 29.2506 34.1399C26.5203 34.5797 24.0558 36.0318 22.348 38.2071C20.6402 40.3823 19.8144 43.121 20.0351 45.8777C20.2558 48.6344 21.5068 51.2068 23.5389 53.0827C25.571 54.9585 28.2351 56 31.0006 55.9999H49.0006V57.1799C48.5824 57.3314 48.2026 57.5729 47.8881 57.8874C47.5736 58.2019 47.3321 58.5817 47.1806 58.9999H30.0006C29.7354 58.9999 29.4811 59.1052 29.2935 59.2928C29.106 59.4803 29.0006 59.7347 29.0006 59.9999V61.9999H23.0006C22.2057 62.0023 21.444 62.3191 20.8819 62.8812C20.3198 63.4433 20.003 64.205 20.0006 64.9999V72.9999C20.003 73.7948 20.3198 74.5565 20.8819 75.1186C21.444 75.6807 22.2057 75.9975 23.0006 75.9999H27.0006V77.9999H25.0006V79.9999H35.0006V77.9999H33.0006V75.9999H37.0006C37.7955 75.9975 38.5572 75.6807 39.1193 75.1186C39.6814 74.5565 39.9982 73.7948 40.0006 72.9999V64.9999C39.9982 64.205 39.6814 63.4433 39.1193 62.8812C38.5572 62.3191 37.7955 62.0023 37.0006 61.9999H31.0006V60.9999H47.1806C47.3321 61.4181 47.5736 61.7979 47.8881 62.1124C48.2026 62.4269 48.5824 62.6684 49.0006 62.8199V63.9999H47.0006C46.2057 64.0023 45.444 64.3191 44.8819 64.8812C44.3198 65.4433 44.003 66.205 44.0006 66.9999V76.9999C44.003 77.7948 44.3198 78.5565 44.8819 79.1186C45.444 79.6807 46.2057 79.9975 47.0006 79.9999H53.0006C53.7955 79.9975 54.5572 79.6807 55.1193 79.1186C55.6814 78.5565 55.9982 77.7948 56.0006 76.9999V66.9999C55.9982 66.205 55.6814 65.4433 55.1193 64.8812C54.5572 64.3191 53.7955 64.0023 53.0006 63.9999H51.0006V62.8199C51.4188 62.6684 51.7986 62.4269 52.1131 62.1124C52.4276 61.7979 52.6692 61.4181 52.8206 60.9999H69.0006V63.9999H64.0006C63.2057 64.0023 62.444 64.3191 61.8819 64.8812C61.3198 65.4433 61.003 66.205 61.0006 66.9999V73.9999C60.7354 73.9999 60.4811 74.1052 60.2935 74.2928C60.106 74.4803 60.0006 74.7347 60.0006 74.9999V76.9999C60.003 77.7948 60.3198 78.5565 60.8819 79.1186C61.444 79.6807 62.2057 79.9975 63.0006 79.9999H77.0006C77.7955 79.9975 78.5572 79.6807 79.1193 79.1186C79.6814 78.5565 79.9982 77.7948 80.0006 76.9999V74.9999C80.0006 74.7347 79.8953 74.4803 79.7077 74.2928C79.5202 74.1052 79.2658 73.9999 79.0006 73.9999ZM31.0006 77.9999H29.0006V75.9999H31.0006V77.9999ZM38.0006 72.9999C38.0006 73.2651 37.8953 73.5195 37.7077 73.707C37.5202 73.8945 37.2658 73.9999 37.0006 73.9999H23.0006C22.7354 73.9999 22.4811 73.8945 22.2935 73.707C22.106 73.5195 22.0006 73.2651 22.0006 72.9999V71.9999H38.0006V72.9999ZM37.0006 63.9999C37.2658 63.9999 37.5202 64.1052 37.7077 64.2928C37.8953 64.4803 38.0006 64.7347 38.0006 64.9999V69.9999H22.0006V64.9999C22.0006 64.7347 22.106 64.4803 22.2935 64.2928C22.4811 64.1052 22.7354 63.9999 23.0006 63.9999H37.0006ZM31.0006 53.9999C28.6926 53.9832 26.4792 53.0804 24.8179 51.4781C23.1566 49.8759 22.1743 47.6965 22.0742 45.3906C21.974 43.0847 22.7636 40.8285 24.2798 39.0882C25.7959 37.3479 27.9227 36.2566 30.2206 36.0399C30.4487 36.0185 30.6626 35.9194 30.8264 35.7593C30.9903 35.5991 31.0941 35.3875 31.1206 35.1599C31.487 32.1717 32.7451 29.3632 34.7309 27.1004C36.7168 24.8377 39.3382 23.2256 42.2535 22.4744C45.1689 21.7231 48.2429 21.8676 51.075 22.8889C53.907 23.9101 56.3657 25.7609 58.1306 28.1999C58.2634 28.3802 58.4528 28.5107 58.6686 28.5705C58.8844 28.6304 59.114 28.6161 59.3206 28.5299C60.3884 28.0892 61.5486 27.9193 62.698 28.0354C63.8473 28.1515 64.9501 28.55 65.9082 29.1953C66.8663 29.8407 67.65 30.7129 68.1895 31.7343C68.7291 32.7557 69.0077 33.8947 69.0006 35.0499C69.0019 35.2969 69.0945 35.5348 69.2607 35.7176C69.4268 35.9004 69.6548 36.0152 69.9006 36.0399C72.2087 36.2578 74.3437 37.3579 75.8606 39.111C77.3776 40.8642 78.1595 43.1351 78.0435 45.4505C77.9275 47.7659 76.9224 49.9473 75.2378 51.54C73.5532 53.1326 71.3189 54.0138 69.0006 53.9999H31.0006ZM53.0006 65.9999C53.2658 65.9999 53.5202 66.1052 53.7077 66.2928C53.8953 66.4803 54.0006 66.7347 54.0006 66.9999V76.9999C54.0006 77.2651 53.8953 77.5195 53.7077 77.707C53.5202 77.8945 53.2658 77.9999 53.0006 77.9999H47.0006C46.7354 77.9999 46.481 77.8945 46.2935 77.707C46.106 77.5195 46.0006 77.2651 46.0006 76.9999V66.9999C46.0006 66.7347 46.106 66.4803 46.2935 66.2928C46.481 66.1052 46.7354 65.9999 47.0006 65.9999H53.0006ZM50.0006 60.9999C49.8028 60.9999 49.6095 60.9412 49.445 60.8314C49.2806 60.7215 49.1524 60.5653 49.0767 60.3826C49.0011 60.1998 48.9812 59.9988 49.0198 59.8048C49.0584 59.6108 49.1537 59.4326 49.2935 59.2928C49.4334 59.1529 49.6115 59.0577 49.8055 59.0191C49.9995 58.9805 50.2006 59.0003 50.3833 59.076C50.566 59.1517 50.7222 59.2799 50.8321 59.4443C50.942 59.6088 51.0006 59.8021 51.0006 59.9999C51.0006 60.2651 50.8953 60.5195 50.7077 60.707C50.5202 60.8945 50.2658 60.9999 50.0006 60.9999ZM63.0006 66.9999C63.0006 66.7347 63.106 66.4803 63.2935 66.2928C63.4811 66.1052 63.7354 65.9999 64.0006 65.9999H76.0006C76.2658 65.9999 76.5202 66.1052 76.7077 66.2928C76.8953 66.4803 77.0006 66.7347 77.0006 66.9999V73.9999H63.0006V66.9999ZM78.0006 76.9999C78.0006 77.2651 77.8953 77.5195 77.7077 77.707C77.5202 77.8945 77.2658 77.9999 77.0006 77.9999H63.0006C62.7354 77.9999 62.4811 77.8945 62.2935 77.707C62.106 77.5195 62.0006 77.2651 62.0006 76.9999V75.9999H78.0006V76.9999Z" fill="white"/>
<path d="M52 75H48V77H52V75Z" fill="white"/>
</svg>
