<svg width="86" height="86" viewBox="0 0 86 86" fill="none" xmlns="http://www.w3.org/2000/svg">
<g opacity="0.94">
<path d="M85.8438 42.9219C85.8438 66.627 66.627 85.8438 42.9219 85.8438C19.2168 85.8438 0 66.627 0 42.9219C0 19.2168 19.2168 0 42.9219 0C66.627 0 85.8438 19.2168 85.8438 42.9219Z" fill="white"/>
</g>
<g clip-path="url(#clip0_168_1515)">
<path d="M29.4342 36.8652H23.1484V49.3652H29.4342L42.0056 58.7402H45.1484V27.4902H42.0056L29.4342 36.8652ZM49.5931 38.6958C48.9795 38.0856 47.9845 38.0856 47.3708 38.6958C46.7571 39.306 46.7571 40.2953 47.3708 40.9055C48.5982 42.1259 48.5982 44.1045 47.3708 45.325C46.7571 45.9351 46.7571 46.9245 47.3708 47.5347C47.9845 48.1448 48.9795 48.1448 49.5931 47.5347C52.0478 45.0938 52.0478 41.1366 49.5931 38.6958ZM54.0378 34.2764C53.4242 33.6662 52.4292 33.6662 51.8155 34.2764C51.2019 34.8866 51.2019 35.8759 51.8155 36.4861C55.4976 40.1473 55.4976 46.0832 51.8155 49.7443C51.2019 50.3545 51.2019 51.3439 51.8155 51.9541C52.4292 52.5643 53.4242 52.5643 54.0378 51.9541C58.9473 47.0726 58.9473 39.158 54.0378 34.2764ZM58.4825 29.857C57.8688 29.2468 56.8737 29.2468 56.2601 29.857C55.6465 30.4671 55.6465 31.4565 56.2601 32.0667C62.3969 38.1687 62.3969 48.0618 56.2601 54.1638C55.6465 54.774 55.6465 55.7633 56.2601 56.3735C56.8737 56.9837 57.8688 56.9837 58.4825 56.3735C65.8466 49.0511 65.8466 37.1793 58.4825 29.857Z" fill="black"/>
</g>
<defs>
<clipPath id="clip0_168_1515">
<rect width="44" height="50" fill="white" transform="translate(23.1484 18.1152)"/>
</clipPath>
</defs>
</svg>
