<svg width="23" height="22" viewBox="0 0 23 22" fill="none" xmlns="http://www.w3.org/2000/svg">
<path d="M13.2289 2.44418L14.9889 5.99287C15.2289 6.48687 15.8689 6.9607 16.4089 7.05143L19.5989 7.58576C21.6389 7.92853 22.1189 9.42059 20.6489 10.8925L18.1689 13.3927C17.7489 13.8161 17.5189 14.6327 17.6489 15.2175L18.3589 18.3125C18.9189 20.7623 17.6289 21.71 15.4789 20.4296L12.4889 18.6452C11.9489 18.3226 11.0589 18.3226 10.5089 18.6452L7.51893 20.4296C5.37893 21.71 4.07893 20.7522 4.63893 18.3125L5.34893 15.2175C5.47893 14.6327 5.24893 13.8161 4.82893 13.3927L2.34893 10.8925C0.888932 9.42059 1.35893 7.92853 3.39893 7.58576L6.58893 7.05143C7.11893 6.9607 7.75893 6.48687 7.99893 5.99287L9.75893 2.44418C10.7189 0.518607 12.2789 0.518607 13.2289 2.44418Z" stroke="#6167F8" stroke-width="1.5" stroke-linecap="round" stroke-linejoin="round"/>
</svg>
