<svg width="30" height="30" viewBox="0 0 30 30" fill="none" xmlns="http://www.w3.org/2000/svg">
<path fill-rule="evenodd" clip-rule="evenodd" d="M6 0C2.68628 0 0 2.68628 0 6V24C0 27.3137 2.68628 30 6 30H24C27.3137 30 30 27.3137 30 24V6C30 2.68628 27.3137 0 24 0H6ZM7.5791 13.0066C7.42163 12.9358 7.21484 12.9004 6.95935 12.9004L6.95667 12.9031C6.45667 12.9031 6.07898 13.0056 5.82263 13.2119C5.56628 13.4182 5.4386 13.6736 5.4386 13.979C5.4386 14.1909 5.48804 14.3906 5.58704 14.5789C5.68591 14.7671 5.79382 14.9514 5.90991 15.134C6.02588 15.3169 6.13379 15.5039 6.23279 15.6985C6.33167 15.8931 6.3811 16.1011 6.3811 16.3247C6.3811 16.5718 6.29749 16.7808 6.12842 16.9509C5.95935 17.1208 5.72375 17.2063 5.42151 17.2063C5.20117 17.2063 5.02039 17.1379 4.88098 17.0034C4.74158 16.8691 4.67151 16.6956 4.67151 16.4836C4.67151 16.4209 4.67554 16.3645 4.68359 16.3147C4.69214 16.261 4.70544 16.2144 4.72363 16.1748C4.74329 16.1318 4.76843 16.0896 4.79907 16.0483C4.823 16.0161 4.85022 15.9846 4.88098 15.9539C4.90442 15.9185 4.90173 15.8831 4.87195 15.8477C4.84229 15.812 4.81079 15.8066 4.77576 15.8303C4.73193 15.8623 4.68945 15.8994 4.64868 15.9414C4.61414 15.9771 4.58093 16.0164 4.54919 16.0593C4.47986 16.1528 4.41602 16.2473 4.35754 16.3411C4.29907 16.4355 4.2533 16.5237 4.21814 16.6055C4.18311 16.6873 4.16602 16.7517 4.16602 16.7991C4.16602 16.9517 4.2793 17.0925 4.50598 17.2217C4.65002 17.3035 4.828 17.3594 5.04028 17.3894C5.16211 17.4067 5.29517 17.4153 5.43945 17.4153C5.98633 17.4153 6.42883 17.2971 6.76599 17.0625C7.10327 16.8281 7.27234 16.4983 7.27234 16.0757C7.27234 15.8284 7.21936 15.6086 7.11499 15.4141C7.01062 15.2195 6.89734 15.0378 6.77502 14.8669C6.65271 14.697 6.54211 14.5251 6.44312 14.3552C6.34424 14.1853 6.2948 14.0054 6.2948 13.8174C6.2948 13.5947 6.35596 13.4211 6.47827 13.2974C6.60059 13.1738 6.76062 13.1121 6.9585 13.1121C7.10962 13.1121 7.22827 13.1658 7.31641 13.271C7.40454 13.3765 7.44775 13.512 7.44775 13.6765C7.44775 13.7581 7.44287 13.8298 7.43298 13.8916C7.42432 13.9451 7.41187 13.991 7.39563 14.0291C7.39563 14.0762 7.41272 14.1089 7.44775 14.1262C7.48279 14.1436 7.5116 14.1409 7.53503 14.1172C7.59351 14.0117 7.65466 13.8765 7.71851 13.7119C7.78235 13.5474 7.8147 13.4001 7.8147 13.271C7.8147 13.1658 7.73645 13.0776 7.5791 13.0066ZM11.7893 13.0396C11.7793 13.0203 11.7583 13.0037 11.7257 12.9902H11.7278L11.7233 12.9893C11.7241 12.9893 11.725 12.9902 11.7257 12.9902H11.0911C10.8644 12.9902 10.6405 12.9956 10.4192 13.0076C10.5936 12.5959 10.7771 12.2024 10.9688 11.8262C11.1603 11.45 11.3555 11.1091 11.5533 10.8027C11.5641 10.7563 11.5326 10.7346 11.457 10.741C11.3815 10.7473 11.2853 10.7673 11.1693 10.8027C11.0524 10.8381 10.9336 10.8882 10.8113 10.9526C10.689 11.0173 10.5928 11.0908 10.5236 11.1726C10.4448 11.2979 10.3661 11.4297 10.2874 11.5684C10.2032 11.7166 10.1193 11.8726 10.0352 12.0369C9.90979 12.2817 9.78772 12.5332 9.66907 12.7917C9.63367 12.8689 9.59863 12.9465 9.56396 13.0249C9.51721 13.0366 9.47131 13.042 9.42456 13.042H9.28516C9.25122 13.042 9.2168 13.0447 9.18152 13.05C9.11963 13.0598 9.05542 13.0779 8.9884 13.1038C8.88318 13.1448 8.79321 13.1912 8.71765 13.2446C8.64124 13.2974 8.58997 13.3474 8.5603 13.3948C8.53052 13.4419 8.54492 13.4709 8.60339 13.4829C8.85889 13.4246 9.1377 13.3774 9.44067 13.342C9.18445 13.9653 8.97571 14.5762 8.81201 15.176C8.64844 15.7756 8.5675 16.2456 8.5675 16.5864C8.5675 16.8445 8.6394 17.0471 8.78503 17.1943C8.93079 17.3416 9.15381 17.4153 9.45691 17.4153C9.74744 17.4153 10.0442 17.2944 10.3463 17.0535C10.6486 16.8127 10.8986 16.5273 11.0964 16.1982C11.1082 16.1392 11.1 16.0984 11.0703 16.0747C11.0516 16.0598 11.0322 16.0542 11.0117 16.0581C10.9996 16.0603 10.9871 16.0659 10.9741 16.0747C10.6008 16.6038 10.2637 16.8682 9.96143 16.8682C9.6593 16.8682 9.50818 16.6692 9.50818 16.2693C9.50818 15.9285 9.58374 15.4849 9.73486 14.9377C9.88586 14.3906 10.0775 13.8301 10.3104 13.2539C10.5658 13.2312 10.8077 13.2119 11.0344 13.2012C11.261 13.1902 11.4615 13.1838 11.636 13.1838C11.6942 13.1692 11.7367 13.1509 11.7631 13.1294C11.7792 13.1165 11.7893 13.1021 11.7935 13.0867C11.798 13.0696 11.7966 13.0537 11.7893 13.0396ZM22.7367 4.29932C22.6261 4.21118 22.484 4.16675 22.3096 4.16675L22.3077 4.16772C21.8195 4.16772 21.296 4.39673 20.7374 4.85571C20.179 5.31445 19.6232 5.91064 19.071 6.646C18.5188 7.38037 17.9873 8.2063 17.4746 9.12329C16.962 10.0403 16.5115 10.96 16.1219 11.8826C15.7317 12.8049 15.4214 13.6809 15.1885 14.5098C14.9556 15.3386 14.8395 16.0293 14.8395 16.5818C14.8395 16.6831 14.8508 16.7751 14.8733 16.8582C14.8953 16.9392 14.9277 17.0117 14.9708 17.0754C15.0581 17.2043 15.2119 17.2688 15.4331 17.2688C15.6895 17.2688 15.9745 17.1516 16.2883 16.9163C16.6023 16.6809 16.8756 16.3875 17.1086 16.0347C17.114 16.0127 17.1151 15.9927 17.1118 15.9746C17.108 15.9539 17.0984 15.9358 17.0825 15.9202C17.0529 15.8911 17.0214 15.8875 16.9863 15.9111C16.931 15.9856 16.8778 16.0542 16.8267 16.1169C16.7163 16.2522 16.6156 16.3599 16.524 16.4402C16.39 16.5574 16.2533 16.6165 16.1139 16.6165C15.916 16.6165 15.8171 16.4402 15.8171 16.0874C15.8171 15.4285 15.9008 14.7007 16.0698 13.9009C16.2389 13.1011 16.4691 12.2959 16.7596 11.4854C17.051 10.6738 17.3945 9.88574 17.7894 9.12231C18.1842 8.35913 18.6096 7.68286 19.0629 7.09497C19.5171 6.50684 19.9847 6.03442 20.4677 5.67529C20.9507 5.31641 21.4309 5.13745 21.9076 5.13745C22.1638 5.13745 22.3527 5.18457 22.475 5.27832C22.5973 5.37183 22.6469 5.48999 22.6234 5.63086C22.6351 5.66626 22.6584 5.69531 22.6936 5.71899C22.7286 5.74268 22.7574 5.74268 22.7808 5.71899C22.8851 5.53076 22.9526 5.34277 22.9813 5.15454C23.0101 4.96655 23.0039 4.79932 22.9634 4.6521C22.9229 4.50488 22.8474 4.3877 22.7367 4.29932ZM6.39014 25.7007C6.50073 25.7888 6.64282 25.8335 6.81726 25.8335C7.30566 25.8335 7.8291 25.6025 8.38757 25.1445C8.94604 24.6865 9.50183 24.0894 10.0541 23.3552C10.6063 22.6208 11.1378 21.7947 11.6504 20.8777C12.1631 19.9607 12.6136 19.041 13.0031 18.1187C13.3934 17.1953 13.7036 16.3201 13.9365 15.4912C14.1696 14.6624 14.2855 13.9717 14.2855 13.4192C14.2855 13.2532 14.2551 13.1116 14.1948 12.9946C14.1825 12.9707 14.1689 12.9478 14.1542 12.9258C14.067 12.7966 13.9132 12.7322 13.692 12.7322C13.4357 12.7322 13.1505 12.8503 12.8367 13.0847C12.5228 13.3193 12.2494 13.6138 12.0165 13.9663C12.0048 14.0137 12.0128 14.0518 12.0426 14.0808C12.0723 14.1099 12.1038 14.1135 12.1388 14.0898C12.1929 14.0168 12.245 13.9497 12.2952 13.8882C12.4067 13.7512 12.5087 13.6426 12.6011 13.561C12.6962 13.4773 12.7924 13.4236 12.8901 13.3994C12.9302 13.3896 12.9706 13.3848 13.0111 13.3848C13.209 13.3848 13.308 13.561 13.308 13.9136C13.308 14.5725 13.2234 15.3005 13.0552 16.1001C12.8871 16.8999 12.6569 17.7051 12.3663 18.5159C12.2444 18.8564 12.113 19.1926 11.9724 19.5247C11.7778 19.9841 11.5657 20.4355 11.3365 20.8787C10.9418 21.6421 10.5164 22.3181 10.0631 22.9062C9.60889 23.4932 9.14124 23.9658 8.65833 24.3247C8.17529 24.6838 7.69507 24.8628 7.21838 24.8628C6.96301 24.8628 6.77417 24.8157 6.65186 24.7219C6.52954 24.6284 6.4801 24.5103 6.50342 24.3694C6.49829 24.3525 6.49036 24.3374 6.47974 24.3232C6.4679 24.3076 6.45264 24.2937 6.4342 24.2812C6.39905 24.2576 6.37036 24.2576 6.34692 24.2812C6.24268 24.4692 6.17517 24.6575 6.14636 24.8455C6.11755 25.0337 6.12305 25.2009 6.16345 25.3481C6.20398 25.4954 6.27954 25.6125 6.39014 25.7007ZM17.8712 16.6038C17.8712 17.1443 18.1158 17.4143 18.6042 17.4143L18.6033 17.4116C18.9406 17.4116 19.3542 17.1736 19.8427 16.6973C20.3309 16.2209 20.7959 15.5767 21.2384 14.7661C21.0289 15.354 20.9246 15.9475 20.9246 16.5474C20.9246 17.1235 21.1692 17.4116 21.6575 17.4116C21.8553 17.4116 22.074 17.3315 22.3123 17.1736C22.5505 17.0154 22.7692 16.7827 22.967 16.4773C22.9786 16.4302 22.9661 16.3945 22.9319 16.3711C22.8977 16.3474 22.8627 16.3474 22.8276 16.3711C22.7052 16.5481 22.5885 16.6807 22.4775 16.7688C22.3676 16.8562 22.2633 16.8999 22.1648 16.8999C21.9669 16.8999 21.8679 16.7119 21.8679 16.3354C21.8679 16.1038 21.879 15.886 21.9008 15.6821C21.9088 15.6072 21.9182 15.5342 21.9291 15.4631C21.9696 15.1987 22.0308 14.937 22.1125 14.6787C22.1945 14.4207 22.297 14.1589 22.4183 13.8945C22.5398 13.6301 22.6827 13.3457 22.8456 13.0393C22.8809 12.9917 22.8846 12.9561 22.8567 12.9326C22.8298 12.9099 22.7737 12.8984 22.6882 12.8984C22.5137 12.8984 22.3428 12.9338 22.1737 13.0049C22.073 13.0471 21.9962 13.0894 21.9431 13.1313C21.9071 13.1599 21.8821 13.1882 21.8679 13.2166C21.7615 13.4377 21.6501 13.6575 21.5334 13.8755C21.4205 14.0867 21.3025 14.2964 21.1791 14.5044C20.9281 14.927 20.6818 15.3069 20.4371 15.6414C20.1925 15.9766 19.9604 16.2466 19.7393 16.4529C19.5179 16.6592 19.3318 16.7617 19.1807 16.7617C18.9712 16.7617 18.8668 16.5908 18.8668 16.2502C18.8668 15.7102 18.9801 15.1504 19.2068 14.5752C19.4335 14 19.7329 13.4646 20.1052 12.9712C20.1287 12.9248 20.125 12.8857 20.0962 12.8567C20.0675 12.8276 20.0234 12.8123 19.9658 12.8123C19.6277 12.9412 19.277 13.1174 18.91 13.3411C18.7328 13.449 18.5754 13.5554 18.4379 13.6606C18.2906 13.7732 18.166 13.884 18.0637 13.9937C18.0403 14.0291 18.0439 14.0664 18.0728 14.1082C18.1014 14.1499 18.1339 14.158 18.1689 14.1345C18.2616 14.04 18.3668 13.949 18.4828 13.8608C18.5422 13.8157 18.6033 13.7715 18.6659 13.728C18.7256 13.6865 18.7866 13.6458 18.8489 13.6055C18.7656 13.7314 18.6887 13.8601 18.6179 13.9917C18.5497 14.1187 18.4871 14.2485 18.4297 14.3816C18.3129 14.6526 18.2112 14.9197 18.124 15.1841C18.0367 15.4485 17.9738 15.7039 17.9324 15.9512C17.891 16.1982 17.8712 16.4155 17.8712 16.6038ZM26.0726 12.9146C25.9919 12.905 25.9047 12.9004 25.8108 12.9004L25.809 12.9031C25.3088 12.9031 24.9312 13.0056 24.6748 13.2119C24.4186 13.4182 24.2908 13.6736 24.2908 13.979C24.2908 14.1909 24.3403 14.3906 24.4392 14.5789C24.4983 14.6912 24.5604 14.802 24.6256 14.9119C24.6698 14.9863 24.7153 15.0603 24.7621 15.134C24.821 15.2271 24.8781 15.3213 24.9327 15.417C24.9856 15.5093 25.0364 15.603 25.085 15.6985C25.1838 15.8931 25.2334 16.1011 25.2334 16.3247C25.2334 16.5718 25.1497 16.7808 24.9806 16.9509C24.8115 17.1208 24.5759 17.2063 24.2737 17.2063C24.0533 17.2063 23.8727 17.1379 23.7333 17.0034C23.5939 16.8691 23.5237 16.6956 23.5237 16.4836C23.5237 16.4175 23.5281 16.3584 23.5371 16.3064C23.5458 16.2561 23.5586 16.2122 23.5758 16.1748C23.611 16.0984 23.6631 16.0239 23.7333 15.9539C23.743 15.9385 23.7482 15.9231 23.7485 15.9077C23.7489 15.8877 23.7411 15.8677 23.7242 15.8477C23.6946 15.812 23.6631 15.8066 23.6281 15.8303C23.5471 15.8894 23.4706 15.9656 23.4014 16.0593C23.3562 16.1204 23.3134 16.1816 23.2728 16.2429C23.2512 16.2756 23.2302 16.3083 23.2098 16.3411C23.1514 16.4355 23.1055 16.5237 23.0704 16.6055C23.0353 16.6873 23.0182 16.7517 23.0182 16.7991C23.0182 16.9517 23.1316 17.0925 23.3582 17.2217C23.5848 17.3506 23.896 17.4153 24.2917 17.4153C24.8376 17.4153 25.2802 17.2971 25.6173 17.0625C25.9546 16.8281 26.1237 16.4983 26.1237 16.0757C26.1237 15.8284 26.0707 15.6086 25.9663 15.4141C25.8744 15.2427 25.7756 15.0815 25.6699 14.9287L25.6263 14.8669C25.504 14.697 25.3934 14.5251 25.2946 14.3552C25.1956 14.1853 25.1461 14.0054 25.1461 13.8174C25.1461 13.5947 25.2073 13.4211 25.3296 13.2974C25.4519 13.1738 25.6119 13.1121 25.8098 13.1121C25.9609 13.1121 26.0796 13.1658 26.1677 13.271C26.2559 13.3765 26.2991 13.512 26.2991 13.6765C26.2991 13.8291 26.282 13.9473 26.2469 14.0291C26.2469 14.0762 26.264 14.1089 26.2991 14.1262C26.3212 14.1372 26.3408 14.1401 26.3582 14.135C26.3683 14.1318 26.3777 14.126 26.3864 14.1172C26.4448 14.0117 26.506 13.8765 26.5698 13.7119C26.6337 13.5474 26.666 13.4001 26.666 13.271C26.666 13.1658 26.5878 13.0776 26.4304 13.0066C26.3308 12.9619 26.2114 12.9312 26.0726 12.9146Z" fill="white"/>
</svg>
