<svg width="219" height="68" viewBox="0 0 219 68" fill="none" xmlns="http://www.w3.org/2000/svg">
<g clip-path="url(#clip0_1088_391)">
<path d="M14.3668 67.6476C9.3159 67.6476 4.26502 66.6803 0.933594 65.928V49.1635H1.79331C3.0829 59.9101 8.56364 63.9938 13.8294 63.9938C17.4833 63.9938 20.0624 61.9519 20.0624 58.0832C20.0624 54.9667 18.1281 52.8174 14.5817 50.1307L9.42337 46.1545C3.83516 41.8559 0.933594 37.4498 0.933594 31.5392C0.933594 22.4046 7.59645 14.9895 18.9878 14.9895C23.2864 14.9895 27.585 15.9567 30.3791 16.8164V30.6794H29.6269C28.7672 23.1569 24.1461 18.6433 19.2027 18.6433C15.8713 18.6433 13.5071 20.6851 13.5071 23.8016C13.5071 27.0256 15.9788 29.0675 18.5579 31.0018L23.7163 34.9781C30.0567 39.9215 33.0658 45.0798 33.0658 50.2382C33.0658 60.7698 27.0477 67.6476 14.3668 67.6476ZM74.9261 67.6476L64.0721 33.9034L52.1434 67.6476H51.2837L34.6266 20.0404C34.0892 18.5358 33.337 17.3537 32.0474 17.0313V16.0641H55.2599V17.0313H55.1525C53.1106 17.0313 52.036 18.4284 52.036 20.3628C52.036 21.8673 52.6808 24.0166 53.7554 27.2405L58.1615 39.9215L62.2452 28.4227L60.2034 21.9747C59.0212 18.4284 58.5914 17.5686 57.4092 17.0313V16.0641H79.0098V17.0313H78.9024C76.968 17.0313 75.8933 18.4284 75.8933 20.3628C75.8933 21.8673 76.1083 24.0166 77.1829 27.2405L81.2666 40.0289L85.3503 27.6704C86.21 25.1987 87.0697 22.8345 87.0697 20.9001C87.0697 18.3209 85.7802 17.0313 83.201 17.0313H83.0935V16.0641H95.8819V17.0313C93.8401 17.0313 91.9057 19.0732 89.434 26.5958L75.7859 67.6476H74.9261ZM111.551 67.6476C99.5148 67.6476 92.8519 56.0413 92.8519 42.1783C92.8519 26.0584 100.912 14.9895 112.948 14.9895C124.447 14.9895 129.82 24.4464 129.283 37.1274H106.607C107.467 50.4531 113.7 53.4621 118.428 53.4621C122.405 53.4621 126.273 51.4203 128.638 46.3694L129.39 46.5843C126.918 58.6205 120.9 67.6476 111.551 67.6476ZM106.5 33.581H114.775C114.667 21.7598 113.485 17.9985 110.584 17.9985C108.004 17.9985 106.5 22.0822 106.5 33.581ZM150.276 67.6476C138.24 67.6476 131.577 56.0413 131.577 42.1783C131.577 26.0584 139.637 14.9895 151.673 14.9895C163.172 14.9895 168.545 24.4464 168.008 37.1274H145.333C146.192 50.4531 152.425 53.4621 157.154 53.4621C161.13 53.4621 164.999 51.4203 167.363 46.3694L168.115 46.5843C165.644 58.6205 159.626 67.6476 150.276 67.6476ZM145.225 33.581H153.5C153.393 21.7598 152.21 17.9985 149.309 17.9985C146.73 17.9985 145.225 22.0822 145.225 33.581ZM184.058 67.4326C176.858 67.4326 173.204 63.134 173.204 53.2472V19.8254H169.658V18.4284C175.891 16.7089 184.703 7.8967 187.282 0.15918H188.787V16.0641H197.061V19.8254H188.787L188.679 53.4621C188.679 56.901 189.754 57.9757 191.473 57.9757C193.515 57.9757 195.234 56.4712 197.169 52.6024L197.921 52.9248C194.805 63.134 190.076 67.4326 184.058 67.4326ZM209.042 67.6476C203.776 67.6476 199.478 63.349 199.478 58.0832C199.478 52.7099 203.776 48.4113 209.042 48.4113C214.308 48.4113 218.607 52.7099 218.607 58.0832C218.607 63.349 214.308 67.6476 209.042 67.6476Z" fill="#0F190A"/>
</g>
<defs>
<clipPath id="clip0_1088_391">
<rect width="219" height="68" fill="white"/>
</clipPath>
</defs>
</svg>
