<svg width="30" height="30" viewBox="0 0 30 30" fill="none" xmlns="http://www.w3.org/2000/svg">
<path fill-rule="evenodd" clip-rule="evenodd" d="M5 0C2.23858 0 0 2.23858 0 5V25C0 27.7614 2.23858 30 5 30H25C27.7614 30 30 27.7614 30 25V5C30 2.23858 27.7614 0 25 0H5ZM10.6237 13.0556C11.2629 10.4627 12.8595 9.16675 15.4154 9.16675C17.7911 9.16675 18.8778 10.2857 19.817 11.254L19.8184 11.2555C20.3948 11.8486 20.9158 12.3848 21.6445 12.5695C22.9229 12.8933 24.0404 12.4072 24.9987 11.1112C24.3595 13.7041 22.7629 15.0001 20.207 15.0001C17.833 15.0001 16.7452 13.8808 15.8053 12.9137L15.8044 12.9128C15.2285 12.3191 14.7072 11.7822 13.9779 11.5973C12.7004 11.2736 11.582 11.7597 10.6237 13.0556ZM5.83203 18.889C6.47124 16.2961 8.06782 15.0001 10.6237 15.0001C12.9966 15.0001 14.0845 16.1183 15.0251 17.0851L15.0272 17.0873C15.6032 17.681 16.1245 18.218 16.8538 18.4029C18.1313 18.7266 19.2497 18.2405 20.208 16.9445C19.5688 19.5374 17.9722 20.8334 15.4163 20.8334C13.0406 20.8334 11.9529 19.7135 11.0137 18.7462L11.0123 18.7447C10.436 18.1516 9.91488 17.6153 9.1862 17.4306C7.90874 17.1069 6.79036 17.592 5.83203 18.889Z" fill="white"/>
</svg>
