<svg width="81" height="102" viewBox="0 0 81 102" fill="none" xmlns="http://www.w3.org/2000/svg">
<path d="M79.7163 42.0626C81.7205 38.9921 81.3503 34.9972 78.8159 32.3474C77.6992 31.1798 77.2325 29.5391 77.5673 27.9584C78.3272 24.3715 76.5387 20.7799 73.2181 19.2243C71.7552 18.5389 70.7272 17.1779 70.4684 15.583C69.881 11.9637 66.9158 9.26083 63.2578 9.00977C61.6463 8.89915 60.1958 8.00115 59.3784 6.60773C57.5233 3.44518 53.7816 1.99566 50.2803 3.0831C48.7367 3.56232 47.0606 3.24883 45.7952 2.24475C42.9225 -0.0346111 38.9103 -0.0348088 36.0383 2.24475C34.7723 3.24903 33.096 3.56252 31.5529 3.0829C28.0512 1.99665 24.31 3.44518 22.455 6.60773C21.6374 8.00115 20.1871 8.89915 18.5754 9.00977C14.9174 9.26083 11.9524 11.9639 11.3649 15.5832C11.1062 17.1779 10.0782 18.5389 8.61523 19.2243C5.29465 20.7799 3.50636 24.3715 4.26608 27.9586C4.6009 29.5391 4.13413 31.1798 3.01746 32.3474C0.483073 34.9972 0.112891 38.9923 2.11709 42.0625C3.00007 43.4156 3.15751 45.1142 2.53804 46.6062C1.13198 49.9925 2.23008 53.8514 5.20813 55.9907C6.52016 56.9331 7.28068 58.4603 7.24196 60.0754C7.15425 63.7408 9.57209 66.9427 13.1218 67.8616C14.1693 68.1328 15.0794 68.7391 15.7317 69.5658L7.56849 89.2715C7.03929 90.5488 7.28838 91.9776 8.21838 93.0006C9.14857 94.0235 10.5479 94.4073 11.8692 94.0015L20.8062 91.2591C21.0659 91.1791 21.3484 91.2961 21.476 91.5367L25.8558 99.7953C26.4762 100.965 27.6585 101.673 28.9707 101.673C30.4173 101.673 31.6876 100.829 32.2413 99.4919L40.7494 78.9525C40.8608 78.9487 40.9722 78.9487 41.0836 78.9525L49.5917 99.4919C50.1205 100.769 51.3071 101.603 52.6878 101.669C54.0471 101.736 55.3212 101.032 55.977 99.7951L60.3566 91.5367C60.4846 91.2959 60.7659 91.1786 61.0268 91.259L69.9635 94.0013C71.2856 94.4069 72.6844 94.0233 73.6144 93.0004C74.5444 91.9774 74.7935 90.5486 74.2643 89.2715L66.1017 69.5654C66.754 68.7389 67.6638 68.1326 68.7116 67.8614C72.2613 66.9425 74.6791 63.7406 74.5914 60.0754C74.5529 58.4601 75.3132 56.9329 76.6254 55.9905C79.6033 53.8512 80.7014 49.9923 79.2953 46.6062C78.6759 45.1142 78.8333 43.4156 79.7163 42.0626ZM29.5033 98.3578C29.3828 98.6482 29.139 98.7023 29.0041 98.7088C28.8702 98.7149 28.6213 98.6845 28.4741 98.4068L24.0941 90.148C23.3014 88.6538 21.5532 87.9299 19.9364 88.4259L10.9997 91.1683C10.6992 91.2603 10.5019 91.1067 10.4112 91.0069C10.3206 90.9071 10.1862 90.6962 10.3065 90.4058L17.5484 72.9229C19.1824 75.1612 21.9135 76.409 24.7891 76.072C26.3946 75.8849 27.9846 76.5008 29.044 77.7204C31.0673 80.0492 34.1801 80.9399 37.0477 80.1444L29.5033 98.3578ZM71.4217 91.0069C71.3309 91.1068 71.1335 91.2603 70.8333 91.1683L61.8968 88.4259C60.2803 87.9301 58.5315 88.6538 57.7386 90.1482L53.3589 98.4066C53.2119 98.6841 52.9658 98.7134 52.8287 98.7088C52.694 98.7023 52.4502 98.6482 52.3297 98.3578L44.7836 80.1408C45.4726 80.3323 46.1755 80.4298 46.8744 80.4298C49.0844 80.4296 51.2512 79.4902 52.7888 77.7204C53.8484 76.5008 55.4401 75.8845 57.0437 76.072C59.918 76.4076 62.6502 75.1604 64.2844 72.9225L71.5262 90.4062C71.6467 90.6964 71.5124 90.9071 71.4217 91.0069ZM77.2344 40.4429C75.8157 42.6163 75.5627 45.3453 76.5579 47.7428C77.433 49.8503 76.7497 52.2521 74.896 53.5835C72.7881 55.0978 71.5663 57.5512 71.6282 60.1463C71.6827 62.4276 70.1779 64.4205 67.9684 64.9924C65.9006 65.5277 64.1647 66.8737 63.1239 68.694C63.1217 68.6982 63.1193 68.7023 63.1171 68.7065C62.8961 69.0948 62.7047 69.5033 62.5506 69.9314C61.7773 72.0786 59.652 73.3924 57.3874 73.1281C54.8084 72.8267 52.2535 73.8173 50.5511 75.7763C49.0544 77.499 46.5994 77.9581 44.5818 76.8924C42.3352 75.706 39.5823 75.6609 37.2504 76.8924C35.2322 77.9583 32.7776 77.499 31.2811 75.7763C29.5787 73.8169 27.0224 72.8269 24.4448 73.1281C22.1776 73.3918 20.0547 72.0782 19.2816 69.9314C19.1277 69.5041 18.9369 69.0966 18.7164 68.7091C18.7131 68.7027 18.7095 68.6964 18.7062 68.6901C17.6651 66.8718 15.93 65.5273 13.8638 64.9922C11.6543 64.4203 10.1495 62.4276 10.204 60.1459C10.266 57.5508 9.04428 55.0974 6.93617 53.5833C5.0825 52.2519 4.39922 49.8501 5.2743 47.7424C6.26949 45.3451 6.01664 42.6163 4.59774 40.4425C3.35031 38.5315 3.58063 36.0449 5.15815 34.3957C6.95217 32.5199 7.70222 29.8838 7.16433 27.3443C6.69162 25.1117 7.80474 22.8762 9.87136 21.9081C12.2218 20.8068 13.8734 18.6199 14.2892 16.0578C14.6549 13.8049 16.5005 12.1225 18.7771 11.9663C21.3666 11.7887 23.6967 10.3461 25.0101 8.10703C26.1651 6.13858 28.4937 5.23663 30.6731 5.913C33.1517 6.6826 35.8457 6.17967 37.8796 4.566C39.6671 3.14749 42.1645 3.14749 43.952 4.566H43.9522C45.9856 6.17947 48.6796 6.68259 51.1583 5.91319C53.3381 5.23624 55.6667 6.13838 56.8215 8.10703C58.1349 10.3461 60.465 11.7887 63.0543 11.9663C65.3311 12.1225 67.1767 13.8049 67.5423 16.0576C67.9582 18.6199 69.6097 20.807 71.9602 21.9081C74.0268 22.8762 75.14 25.1117 74.6673 27.3441C74.1294 29.8836 74.8792 32.5197 76.6734 34.3957C78.2515 36.0451 78.4819 38.5317 77.2344 40.4429Z" fill="white"/>
<path d="M70.1587 42.3029C69.3486 42.2106 68.6123 42.7973 68.5213 43.6108C67.9 49.1607 65.6722 54.1708 62.3327 58.2029V57.3314C62.3327 53.58 59.8186 50.2219 56.2191 49.1651L52.1226 47.9625C51.7768 47.5388 51.3037 47.2266 50.7585 47.0838C50.7284 47.0759 50.698 47.0692 50.6678 47.0631L46.9845 46.3431V43.6783C49.0211 42.1255 50.4547 39.8117 50.8397 37.1486C51.9231 36.7555 52.6989 35.7158 52.6989 34.4986C52.6989 31.5935 52.6989 29.0089 52.6989 26.07C52.6989 24.0213 51.1583 22.3259 49.175 22.0809C48.8868 20.1457 47.2139 18.6562 45.1994 18.6562H36.4551C32.4177 18.6562 29.133 21.9409 29.133 25.9781V34.4986C29.133 35.716 29.909 36.7555 30.9922 37.1486C31.3774 39.8119 32.811 42.1257 34.8475 43.6785V46.3433L31.2164 47.0475C31.1846 47.0536 31.1532 47.0609 31.1218 47.069C30.5774 47.2122 30.1047 47.5253 29.7588 47.9496L25.6165 49.1653C22.0166 50.2217 19.5026 53.58 19.5026 57.3318V58.2027C16.163 54.1706 13.9352 49.1605 13.314 43.6106C13.2231 42.7971 12.4885 42.2104 11.6766 42.3027C10.8631 42.3937 10.2776 43.1268 10.3687 43.94C12.11 59.4952 25.243 71.2251 40.9176 71.2251C56.5923 71.2251 69.7253 59.495 71.4665 43.94C71.5576 43.127 70.9721 42.3939 70.1587 42.3029ZM59.3689 57.3314V61.2691C55.9479 64.303 51.7772 66.4949 47.187 67.5511L44.4209 58.4216L46.4759 56.4529C46.5861 56.4658 46.6965 56.4739 46.807 56.4739C47.6807 56.4739 48.5411 56.0749 49.0996 55.3274L52.1938 51.187C52.2169 51.156 52.2352 51.1224 52.257 51.0906L55.384 52.0086C57.7303 52.6974 59.3689 54.8863 59.3689 57.3314ZM39.685 56.4988L38.1723 55.071L41.0103 53.2146L43.7118 54.9965L42.1437 56.4988H39.685ZM46.7852 53.4735L43.4645 51.2828L45.9259 49.156L49.4911 49.8529L46.7852 53.4735ZM36.4551 21.6199H45.1994C45.7815 21.6199 46.255 22.0934 46.255 22.6755C46.255 23.9652 47.3044 25.0143 48.5941 25.0143H48.6796C49.2617 25.0143 49.7352 25.4878 49.7352 26.07V30.1295H47.6564C47.4999 30.1295 47.3725 30.0021 47.3725 29.8455V28.8791C47.3725 27.5149 46.5697 26.4425 45.17 25.9368C44.3549 25.6423 43.5871 25.6275 43.4415 25.6275V25.6312C43.1087 25.6261 38.3755 25.6275 38.3556 25.6275C36.478 25.6615 34.4596 26.6926 34.4596 28.8787V29.8455C34.4596 30.0021 34.3322 30.1295 34.1757 30.1295H32.0969V25.9781C32.0967 23.5749 34.0519 21.6199 36.4551 21.6199ZM32.0967 34.3584V33.0932H34.1755C35.9664 33.0932 37.423 31.6361 37.423 29.8455V28.8787C37.423 28.8661 37.4236 28.8564 37.4242 28.8493C37.5413 28.7387 37.9781 28.6059 38.3745 28.5917C38.3858 28.5919 38.3977 28.5917 38.4097 28.5919C38.597 28.5911 42.0969 28.5913 43.4313 28.5913C43.793 28.5968 44.2797 28.7268 44.4075 28.8487C44.4083 28.856 44.4089 28.8661 44.4089 28.8791V29.8455C44.4089 31.585 45.7845 33.0054 47.5047 33.0855C47.6384 33.0991 47.5347 33.0906 49.7354 33.0932V34.3584C48.791 34.4301 48.0263 35.1938 47.9655 36.1561C47.7318 39.8645 44.6354 42.7693 40.9162 42.7693C37.1972 42.7693 34.1009 39.8643 33.867 36.1559C33.8059 35.1938 33.0413 34.4301 32.0967 34.3584ZM40.9158 45.7329C41.997 45.7329 43.0409 45.559 44.0205 45.2386V46.8851L40.9931 49.5009L37.8112 46.8679V45.2386C38.791 45.5592 39.8347 45.7329 40.9158 45.7329ZM35.9243 49.1534L38.5207 51.302L35.0927 53.5442L32.3861 49.8397L35.9243 49.1534ZM26.4513 52.009L29.6263 51.0772C29.6423 51.1007 29.6553 51.1258 29.6721 51.1489C29.6721 51.1489 29.6723 51.1489 29.6723 51.1491L32.7588 55.3736C33.317 56.1377 34.185 56.5464 35.0682 56.5464C35.1774 56.5464 35.2867 56.5385 35.3959 56.5258L37.4125 58.4293L34.6555 67.5529C30.0624 66.4973 25.8891 64.3048 22.4664 61.2691V57.332C22.4664 54.8865 24.1052 52.6976 26.4513 52.009ZM37.597 68.0649L40.1966 59.4624H41.6398L44.2459 68.0639C43.1537 68.1941 42.0432 68.2616 40.9178 68.2616C39.795 68.2616 38.6869 68.1945 37.597 68.0649Z" fill="white"/>
<path d="M11.6981 38.3175C12.5071 38.4151 13.2504 37.8415 13.3511 37.0292C15.0703 23.1628 26.9207 12.706 40.9161 12.706C54.9176 12.706 66.7688 23.1677 68.4824 37.041C68.575 37.7915 69.2139 38.3414 69.9511 38.3414C70.0117 38.3414 70.0729 38.3377 70.1348 38.33C70.9468 38.2296 71.524 37.4898 71.4237 36.6776C69.527 21.3219 56.4114 9.74219 40.9161 9.74219C25.4273 9.74219 12.3127 21.3162 10.4098 36.6645C10.3093 37.4768 10.8861 38.217 11.6981 38.3175Z" fill="white"/>
</svg>
