<svg width="32" height="33" viewBox="0 0 32 33" fill="none" xmlns="http://www.w3.org/2000/svg">
<g clip-path="url(#clip0_717_3320)">
<path d="M23.7285 23.557C23.9323 21.8608 23.871 21.6133 25.1335 21.887L25.4548 21.9158C26.426 21.9595 27.696 21.7595 28.4548 21.4133C30.061 20.6683 31.0135 19.4233 29.4298 19.7508C25.8173 20.4958 25.5548 19.272 25.5548 19.272C29.371 13.6095 30.9673 6.42201 29.5885 4.66326C25.8335 -0.136738 19.3323 2.13326 19.2235 2.19326L19.1885 2.19951C18.476 2.04951 17.6885 1.96201 16.776 1.94951C15.141 1.92451 13.901 2.37826 12.9585 3.09201C12.9585 3.09201 1.36227 -1.68549 1.90102 9.10076C2.01602 11.3958 5.18852 26.4758 8.97602 21.9133C10.3623 20.2458 11.6998 18.837 11.6998 18.837C12.3623 19.2783 13.1585 19.5033 13.9923 19.422L14.0573 19.367C14.038 19.5831 14.0469 19.8007 14.0835 20.0145C13.1085 21.1045 13.396 21.2958 11.446 21.697C9.47352 22.1033 10.6335 22.827 11.3885 23.017C12.306 23.247 14.4285 23.572 15.8635 21.5645L15.806 21.7933C16.1885 22.0995 16.1623 23.9933 16.2185 25.3458C16.2748 26.6983 16.3635 27.962 16.6398 28.7058C16.916 29.4495 17.2398 31.3683 19.8023 30.8308C21.9435 30.372 23.581 29.7108 23.731 23.5683" fill="black"/>
<path d="M23.7285 23.557C23.9323 21.8608 23.871 21.6133 25.1335 21.887L25.4548 21.9158C26.426 21.9595 27.696 21.7595 28.4548 21.4133C30.061 20.6683 31.0135 19.4233 29.4298 19.7508C25.8173 20.4958 25.5548 19.272 25.5548 19.272C29.371 13.6095 30.9673 6.42201 29.5885 4.66326C25.8335 -0.136738 19.3323 2.13326 19.2235 2.19326L19.1885 2.19951C18.476 2.04951 17.6885 1.96201 16.776 1.94951C15.141 1.92451 13.901 2.37826 12.9585 3.09201C12.9585 3.09201 1.36227 -1.68549 1.90102 9.10076C2.01602 11.3958 5.18852 26.4758 8.97602 21.9133C10.3623 20.2458 11.6998 18.837 11.6998 18.837C12.3623 19.2783 13.1585 19.5033 13.9923 19.422L14.0573 19.367C14.038 19.5831 14.0469 19.8007 14.0835 20.0145C13.1085 21.1045 13.396 21.2958 11.446 21.697C9.47352 22.1033 10.6335 22.827 11.3885 23.017C12.306 23.247 14.4285 23.572 15.8635 21.5645L15.806 21.7933C16.1885 22.0995 16.1623 23.9933 16.2185 25.3458C16.2748 26.6983 16.3635 27.962 16.6398 28.7058C16.916 29.4495 17.2398 31.3683 19.8023 30.8308C21.9435 30.372 23.581 29.7108 23.731 23.5683" stroke="black" stroke-width="2.68625"/>
<path d="M29.4195 19.762C25.807 20.507 25.5445 19.2833 25.5445 19.2833C29.3608 13.6208 30.957 6.43325 29.5795 4.6745C25.8245 -0.125497 19.3233 2.14575 19.2145 2.2045L19.1795 2.21075C18.3855 2.05142 17.5781 1.9673 16.7683 1.9595C15.1333 1.9345 13.8933 2.38825 12.9508 3.102C12.9508 3.102 1.35329 -1.6755 1.89329 9.11075C2.00829 11.4058 5.18079 26.4858 8.96829 21.9233C10.3633 20.2458 11.7008 18.837 11.7008 18.837C12.3633 19.2783 13.1595 19.5033 13.9933 19.422L14.0583 19.367C14.0392 19.5831 14.048 19.8007 14.0845 20.0145C13.1095 21.1045 13.397 21.2958 11.447 21.697C9.47454 22.1033 10.6345 22.827 11.3895 23.017C12.307 23.247 14.4295 23.572 15.8645 21.5645L15.807 21.7933C16.1895 22.0995 16.457 23.7845 16.412 25.312C16.367 26.8395 16.337 27.887 16.637 28.707C16.937 29.527 17.237 31.3695 19.7995 30.832C21.9408 30.3733 23.0495 29.182 23.2058 27.1995C23.3158 25.7895 23.5633 25.997 23.5808 24.737L23.7808 24.1395C24.0095 22.227 23.8183 21.6108 25.137 21.8983L25.4583 21.927C26.4295 21.9708 27.7008 21.7708 28.4458 21.4245C30.052 20.6795 31.0033 19.4345 29.4195 19.762Z" fill="black"/>
<path d="M16.0171 20.8449C15.9171 24.4024 16.0421 27.9849 16.3896 28.8449C16.7371 29.7049 17.4834 31.4074 20.0471 30.8599C22.1884 30.4012 22.9684 29.5124 23.3059 27.5512L24.0971 21.2799M12.9446 3.01118C12.9446 3.01118 1.33961 -1.73381 1.87961 9.05243C1.99461 11.3474 5.16711 26.4274 8.95461 21.8649C10.3371 20.1987 11.5871 18.8949 11.5871 18.8949M19.2121 2.14493C18.8121 2.26993 25.6671 -0.361316 29.5646 4.61743C30.9396 6.37618 29.3459 13.5637 25.5296 19.2262" stroke="white" stroke-width="0.895" stroke-linecap="round" stroke-linejoin="round"/>
<path d="M25.5309 19.2236C25.5309 19.2236 25.7809 20.4486 29.4059 19.7011C30.9896 19.3736 30.0359 20.6186 28.4309 21.3636C27.1134 21.9761 24.1584 22.1323 24.1096 21.2886C23.9846 19.1073 25.6646 19.7698 25.5434 19.2236C25.4334 18.7311 24.6809 18.2486 24.1859 17.0436C23.7521 15.9936 18.2359 7.93107 25.7159 9.12732C25.9909 9.07107 23.7659 2.00232 16.7659 1.89982C9.76586 1.79732 9.98711 10.5061 9.98711 10.5061" stroke="white" stroke-width="0.895" stroke-linecap="round" stroke-linejoin="bevel"/>
<path d="M14.0578 19.9715C13.0828 21.0615 13.3703 21.2528 11.4203 21.6541C9.44784 22.0603 10.6078 22.784 11.3628 22.974C12.2803 23.204 14.4028 23.529 15.8378 21.5203C16.2753 20.9078 15.8353 19.9328 15.2353 19.6853C14.9453 19.5653 14.5578 19.4153 14.0603 19.9728L14.0578 19.9715Z" stroke="white" stroke-width="0.895" stroke-linejoin="round"/>
<path d="M13.9939 19.953C13.8939 19.3117 14.2039 18.5505 14.5352 17.658C15.0327 16.3205 16.1802 14.983 15.2627 10.7367C14.5789 7.57423 9.98767 10.078 9.98767 10.5067C9.98767 10.9355 10.1952 12.6817 9.91267 14.713C9.54142 17.3655 11.6002 19.608 13.9702 19.3792" stroke="white" stroke-width="0.895" stroke-linecap="round" stroke-linejoin="round"/>
<path d="M12.9015 10.4438C12.8802 10.59 13.1702 10.9813 13.5465 11.0338C13.9227 11.0863 14.244 10.7813 14.2652 10.6338C14.2865 10.4863 13.9965 10.3263 13.6202 10.2738C13.244 10.2213 12.9202 10.2988 12.9015 10.4438Z" fill="white" stroke="white" stroke-width="0.29875"/>
<path d="M24.3568 10.145C24.3768 10.2912 24.0881 10.6825 23.7118 10.735C23.3356 10.7875 23.0118 10.4825 22.9931 10.335C22.9743 10.1875 23.2618 10.0275 23.6381 9.97495C24.0143 9.92245 24.3381 9.99995 24.3568 10.145Z" fill="white" stroke="white" stroke-width="0.14875"/>
<path d="M25.7022 9.13086C25.7647 10.2809 25.4547 11.0621 25.4147 12.2859C25.3572 14.0634 26.2622 16.0984 24.8984 18.1359" stroke="white" stroke-width="0.895" stroke-linecap="round" stroke-linejoin="round"/>
</g>
<defs>
<clipPath id="clip0_717_3320">
<rect width="32" height="32" fill="white" transform="translate(0 0.262695)"/>
</clipPath>
</defs>
</svg>
