<svg width="31" height="33" viewBox="0 0 31 33" fill="none" xmlns="http://www.w3.org/2000/svg">
<g clip-path="url(#clip0_717_3335)">
<path d="M15.1446 1.14285C13.8805 1.14867 12.6734 1.25702 11.6115 1.44602C8.48266 2.00166 7.91458 3.16419 7.91458 5.30858V8.14052H15.3084V9.0844H5.13957C2.99082 9.0844 1.10901 10.3825 0.520531 12.8516C-0.1584 15.6819 -0.188458 17.448 0.520531 20.4033C1.04614 22.6031 2.30141 24.1705 4.45016 24.1705H6.99243V20.7757C6.99243 18.3232 9.10395 16.1599 11.6115 16.1599H18.9967C21.0525 16.1599 22.6936 14.459 22.6936 12.3841V5.30831C22.6936 3.29472 21.0032 1.7819 18.9967 1.44575C17.7263 1.23347 16.4087 1.13675 15.1446 1.14285ZM11.146 3.42026C11.9098 3.42026 12.5333 4.05737 12.5333 4.84052C12.5333 5.6209 11.9096 6.25219 11.146 6.25219C10.3796 6.25219 9.75862 5.62118 9.75862 4.84052C9.75862 4.05737 10.3796 3.42026 11.146 3.42026Z" fill="black"/>
<path d="M23.6152 9.08398V12.3834C23.6152 14.9416 21.4571 17.0945 18.9962 17.0945H11.611C9.58795 17.0945 7.91406 18.8343 7.91406 20.8704V27.9456C7.91406 29.9595 9.65634 31.1439 11.611 31.7214C13.9514 32.4131 16.1958 32.5381 18.9962 31.7214C20.8576 31.1799 22.6931 30.0897 22.6931 27.9456V25.114H15.3078V24.1701H26.39C28.539 24.1701 29.3395 22.6636 30.0868 20.4029C30.859 18.0756 30.8262 15.837 30.0868 12.8512C29.5557 10.7016 28.5415 9.08398 26.39 9.08398H23.6152ZM19.4614 27.0017C20.2277 27.0017 20.8488 27.6328 20.8488 28.4134C20.8488 29.1966 20.2277 29.8337 19.4614 29.8337C18.6975 29.8337 18.074 29.1966 18.074 28.4134C18.074 27.633 18.6978 27.0017 19.4614 27.0017Z" fill="black"/>
</g>
<defs>
<clipPath id="clip0_717_3335">
<rect width="30.6383" height="32" fill="white" transform="translate(0 0.262695)"/>
</clipPath>
</defs>
</svg>
