<svg width="62" height="33" viewBox="0 0 62 33" fill="none" xmlns="http://www.w3.org/2000/svg">
<path fill-rule="evenodd" clip-rule="evenodd" d="M0.00350645 29.4152H2.03739V21.3579L5.21377 28.3829C5.57355 29.2273 6.09044 29.5401 7.09126 29.5401C8.09207 29.5401 8.5781 29.2269 8.94981 28.3829L12.1104 21.3579V29.4152H14.1601V21.3579C14.1601 20.5759 13.8469 20.1996 13.1898 19.9962C11.6409 19.5271 10.6081 19.9338 10.1389 20.9816L7.02568 27.9284L4.02149 20.9816C3.56772 19.9338 2.51922 19.5271 0.954875 19.9962C0.313148 20.1996 0.000350478 20.5756 0.000350478 21.3579L0 29.4152H0.00350645ZM15.8531 22.8598H17.9028V27.2877C17.8873 27.5378 17.981 28.1013 19.0951 28.1164C19.6737 28.1321 23.5072 28.1164 23.538 28.1164V22.8283H25.5877V30.0724C25.5877 31.8559 23.3785 32.2466 22.3489 32.2627H15.9036V30.9021H22.3654C23.6797 30.7611 23.5233 30.1043 23.5233 29.8851V29.3528H19.189C17.1706 29.3371 15.8717 28.4453 15.8566 27.4284V22.8591L15.8531 22.8598ZM59.818 17.7278C58.5669 17.6962 57.5962 17.8217 56.7826 18.1661C56.5484 18.2608 56.1725 18.2608 56.1416 18.5574C56.2668 18.6819 56.2819 18.8857 56.3916 19.0582C56.5792 19.3714 56.9082 19.7932 57.2052 20.012C57.5341 20.2628 57.8627 20.5128 58.2064 20.732C58.8165 21.1072 59.5049 21.3263 60.0993 21.7019C60.4436 21.9211 60.7876 22.2027 61.132 22.4376C61.3073 22.5628 61.4136 22.7665 61.6328 22.8444V22.7971C61.5234 22.6568 61.4918 22.4534 61.3827 22.2963C61.226 22.1402 61.0696 21.9989 60.9128 21.8429C60.4594 21.2327 59.8959 20.7004 59.2857 20.2628C58.785 19.9184 57.6902 19.4492 57.4868 18.8706L57.4559 18.839C57.7996 18.8075 58.2064 18.6823 58.5353 18.5883C59.0676 18.448 59.5522 18.4789 60.0993 18.3383C60.35 18.2752 60.6 18.1973 60.8508 18.1191V17.9788C60.5692 17.6973 60.3658 17.3217 60.0688 17.0559C59.271 16.3675 58.3943 15.6946 57.4868 15.1314C57.0018 14.8186 56.3759 14.6149 55.8597 14.3494C55.6714 14.2554 55.3589 14.2084 55.2495 14.052C54.9672 13.7084 54.8112 13.2543 54.6078 12.8471C54.1544 11.9866 53.716 11.0324 53.325 10.1249C53.0434 9.51471 52.8709 8.90455 52.5273 8.34137C50.9156 5.68153 49.1629 4.0702 46.4719 2.48973C45.8933 2.16115 45.2049 2.01983 44.4731 1.84801L43.2997 1.78489C43.049 1.67548 42.799 1.37811 42.5798 1.23714C41.688 0.673962 39.388 -0.546371 38.7305 1.06531C38.3079 2.08225 39.3564 3.08342 39.7124 3.59995C39.9789 3.95974 40.3225 4.36652 40.5108 4.7733C40.616 5.03911 40.6511 5.32104 40.7609 5.60263C41.0109 6.291 41.2458 7.05792 41.5744 7.69964C41.7498 8.02822 41.9339 8.37293 42.153 8.66995C42.2782 8.84177 42.4974 8.92032 42.544 9.20191C42.3249 9.51506 42.3098 9.98391 42.1846 10.3756C41.6211 12.1437 41.8402 14.334 42.638 15.6322C42.8887 16.0232 43.4796 16.884 44.2812 16.5551C44.9854 16.2735 44.8283 15.3818 45.0317 14.5994C45.079 14.4118 45.0475 14.2866 45.1411 14.1611V14.1927L45.7828 15.4912C46.2678 16.2578 47.1129 17.0559 47.8167 17.5882C48.1919 17.8698 48.4893 18.3551 48.9585 18.5269V18.4796H48.9276C48.8336 18.3393 48.6927 18.2762 48.5675 18.1668C48.2859 17.8852 47.9731 17.5409 47.7539 17.2281C47.0971 16.3521 46.5185 15.3818 46.002 14.3806C45.7513 13.8956 45.5321 13.3637 45.3294 12.8787C45.2347 12.6907 45.2347 12.4088 45.0787 12.3155C44.8437 12.6592 44.5001 12.9572 44.3272 13.3794C44.0298 14.052 43.999 14.8814 43.8895 15.7419C43.8264 15.7577 43.8545 15.7419 43.8264 15.7735C43.3264 15.6486 43.1538 15.1317 42.9662 14.6941C42.497 13.5832 42.4185 11.7997 42.8253 10.5166C42.9347 10.188 43.4046 9.15527 43.217 8.84247C43.1223 8.54511 42.8102 8.37328 42.6376 8.13833C42.4343 7.84096 42.2158 7.46574 42.0748 7.13717C41.6996 6.26049 41.512 5.29089 41.1049 4.41456C40.9166 4.00778 40.5883 3.58523 40.3222 3.21001C40.0248 2.78745 39.6969 2.49008 39.462 1.98968C39.3838 1.81785 39.2744 1.53591 39.3996 1.34795C39.4304 1.22276 39.4935 1.17612 39.618 1.14456C39.8214 0.972733 40.4007 1.19155 40.6041 1.28483C41.1827 1.51978 41.6677 1.7386 42.1527 2.06682C42.3718 2.22322 42.6068 2.52059 42.8884 2.59914H43.2173C43.7181 2.70855 44.2809 2.6307 44.7497 2.77097C45.5791 3.03748 46.3299 3.42813 47.0031 3.85103C49.0525 5.14957 50.7427 6.99584 51.8845 9.20226C52.0721 9.56205 52.1503 9.89063 52.3228 10.2662C52.6517 11.0331 53.0585 11.8151 53.3864 12.5666C53.7153 13.3019 54.0281 14.0534 54.4973 14.6636C54.7323 14.9922 55.6707 15.164 56.0929 15.3362C56.406 15.4765 56.8906 15.6027 57.1729 15.7745C57.7046 16.1031 58.2365 16.4787 58.7369 16.8385C58.9869 17.0257 59.7696 17.4171 59.8163 17.7292L59.818 17.7278ZM43.8625 4.13157C43.6464 4.12966 43.4309 4.15595 43.2215 4.20977V4.24133H43.2524C43.3776 4.49171 43.5967 4.66389 43.7531 4.88306L44.1133 5.63419L44.1441 5.60263C44.3633 5.44623 44.4731 5.19585 44.4731 4.82064C44.3791 4.71123 44.3636 4.60147 44.2854 4.49206C44.1915 4.33566 43.9881 4.25711 43.8625 4.13227V4.13157Z" fill="black"/>
<path fill-rule="evenodd" clip-rule="evenodd" d="M27.1504 29.4154H33.0332C33.7216 29.4154 34.3791 29.2751 34.9107 29.0244C35.8025 28.6176 36.225 28.0706 36.225 27.3506V25.8487C36.225 25.2701 35.7401 24.722 34.7705 24.3468C34.2697 24.1592 33.6438 24.0494 33.0336 24.0494H30.5614C29.732 24.0494 29.341 23.7987 29.2313 23.2516C29.2158 23.1892 29.2158 23.1265 29.2158 23.064V22.1407C29.2158 22.0934 29.2158 22.0313 29.2313 21.9689C29.3407 21.5463 29.5598 21.4366 30.2833 21.3587H36.3067V19.9971H30.5803C29.751 19.9971 29.313 20.0444 28.9216 20.1696C27.7167 20.5448 27.1848 21.1396 27.1848 22.1874V23.3772C27.1848 24.2994 28.2175 25.0825 29.9698 25.2701C30.1574 25.2859 30.3608 25.2859 30.5642 25.2859H32.6766C32.7548 25.2859 32.8327 25.2859 32.8951 25.3017C33.5368 25.3641 33.8184 25.4735 34.006 25.7077C34.1312 25.8329 34.1627 25.9427 34.1627 26.0837V27.2724C34.1627 27.4127 34.0688 27.6014 33.8812 27.7574C33.6935 27.9135 33.3955 28.0232 33.0045 28.039C32.9263 28.039 32.88 28.0548 32.8011 28.0548H27.1504V29.4154ZM48.9603 27.0533C48.9603 28.4454 50.0123 29.2274 52.1058 29.3845C52.3092 29.4003 52.4968 29.4154 52.7002 29.4154H58.0199V28.0548H52.6536C51.4638 28.0548 51.0104 27.7574 51.0104 27.0378V19.9971H48.9565V27.0536L48.9603 27.0533ZM37.5232 27.1153V22.2656C37.5232 21.0294 38.3992 20.278 40.1052 20.0437C40.2928 20.0279 40.4804 20.0121 40.6523 20.0121H44.5321C44.7355 20.0121 44.908 20.0279 45.1114 20.0437C46.8167 20.278 47.6769 21.0291 47.6769 22.2656V27.1153C47.6769 28.1165 47.3174 28.6488 46.472 29.0089L48.4743 30.8233H46.1122L44.4851 29.353L42.8418 29.4469H40.6515C40.2502 29.4449 39.8507 29.3925 39.4624 29.2909C38.1649 28.9304 37.5232 28.2424 37.5232 27.1153ZM39.7289 27.0066C39.7289 27.069 39.764 27.1311 39.7763 27.21C39.8857 27.7728 40.4173 28.086 41.2309 28.086H43.0775L41.388 26.5525H43.7501L45.2362 27.8984C45.5185 27.7416 45.6903 27.5225 45.7528 27.2409C45.7685 27.1784 45.7685 27.1006 45.7685 27.0375V22.3904C45.7685 22.328 45.7685 22.2659 45.7528 22.2028C45.6433 21.6712 45.1117 21.3742 44.3136 21.3742H41.2312C40.3237 21.3742 39.7293 21.7651 39.7293 22.3904L39.7289 27.0066Z" fill="black"/>
</svg>
