<svg width="32" height="33" viewBox="0 0 32 33" fill="none" xmlns="http://www.w3.org/2000/svg">
<g clip-path="url(#clip0_717_3297)">
<path d="M6.47557 28.865L4.50781 7.1499H26.1307L24.1608 28.8616L15.306 31.2768L6.47557 28.865Z" fill="black"/>
<path d="M15.3203 29.4305L22.4754 27.4789L24.1588 8.92529H15.3203V29.4305Z" fill="black"/>
<path d="M15.321 16.9794H11.739L11.4916 14.2522H15.321V11.5889H8.5332L8.598 12.3034L9.26332 19.6426H15.321V16.9794ZM15.321 23.8962L15.3092 23.8993L12.2944 23.0984L12.1016 20.9743H9.38427L9.76351 25.156L15.3085 26.6705L15.321 26.6671V23.8962Z" fill="white"/>
<path d="M6.51953 1.24854H7.89517V2.58572H9.15356V1.24854H10.5293V5.29787H9.15362V3.94192H7.89523V5.29787H6.51965V1.24854H6.51953ZM12.3383 2.59135H11.1273V1.24854H14.9257V2.59135H13.7141V5.29787H12.3384L12.3383 2.59135ZM15.5285 1.24854H16.9628L17.8452 2.67135L18.7267 1.24854H20.1617V5.29787H18.7917V3.2908L17.8453 4.73056H17.8216L16.8745 3.2908V5.29787H15.5285V1.24854H15.5285ZM20.8463 1.24854H22.2224V3.95939H24.1569V5.29787H20.8463V1.24854Z" fill="black"/>
<path d="M15.3105 16.9794V19.6426H18.6438L18.3296 23.0967L15.3105 23.8984V26.6692L20.8599 25.156L20.9006 24.706L21.5367 17.6945L21.6028 16.9794H20.8733H15.3105ZM15.3105 11.5889V14.2522H21.8491L21.9034 13.6535L22.0267 12.3034L22.0915 11.5889H15.3105Z" fill="white"/>
</g>
<defs>
<clipPath id="clip0_717_3297">
<rect width="32" height="32" fill="white" transform="translate(0 0.262695)"/>
</clipPath>
</defs>
</svg>
