<svg width="32" height="33" viewBox="0 0 32 33" fill="none" xmlns="http://www.w3.org/2000/svg">
<g clip-path="url(#clip0_717_3286)">
<path d="M15.9501 0.303223L0.105469 5.58939L2.60934 25.2689L15.9668 32.2287L29.3933 25.1746L31.8962 5.49577L15.9501 0.303223Z" fill="#B3B3B3"/>
<path d="M30.3168 6.63315L15.9141 1.97705V30.5659L27.9842 24.2331L30.3168 6.63315Z" fill="black"/>
<path d="M1.88477 6.71704L4.03039 24.3172L15.9141 30.5659V1.97656L1.88489 6.71692L1.88477 6.71704Z" fill="black"/>
<path d="M19.8782 17.1961L15.9136 18.9537H11.7349L9.77069 23.6114L6.11719 23.6754L15.9136 3.01514L19.8782 17.1961ZM19.4949 16.3113L15.9399 9.6394L13.0238 16.1965H15.9134L19.4949 16.3113Z" fill="white"/>
<path d="M15.9141 3.01514L15.9403 9.63952L19.2491 16.2017H15.9216L15.9141 18.9496L20.5153 18.9537L22.6658 23.6762L26.1617 23.7376L15.9141 3.01514Z" fill="white"/>
</g>
<defs>
<clipPath id="clip0_717_3286">
<rect width="32" height="32" fill="white" transform="translate(0 0.262695)"/>
</clipPath>
</defs>
</svg>
