<svg width="32" height="33" viewBox="0 0 32 33" fill="none" xmlns="http://www.w3.org/2000/svg">
<g clip-path="url(#clip0_717_3295)">
<path d="M1.638 37.3202C0.9875 37.3202 0.798375 36.9294 0.798375 36.3438C0.798375 36.1487 0.822125 35.9285 0.851375 35.6966C0.993875 34.684 1.34175 34.1046 2.18138 34.1046C2.74925 34.1046 3.02612 34.3667 3.02612 34.8426V35.0746H3.5895C3.59575 35.0746 3.59575 34.8611 3.59575 34.8124C3.59575 34.117 3.18762 33.4573 2.18225 33.4573C0.816125 33.4573 0.254375 34.2231 0.047375 35.7243C0.01775 35.9258 0 36.1139 0 36.3146C0 37.1994 0.337375 38.0042 1.54362 38.0042C2.46012 38.0042 3.0045 37.5431 3.32363 36.9756L2.78538 36.6015C2.43663 37.1692 2.05787 37.3202 1.638 37.3202ZM5.33425 34.5254C4.24 34.5254 3.76725 35.1048 3.60763 36.2579C3.58888 36.3914 3.57886 36.526 3.57763 36.6609C3.57763 37.4051 3.91475 37.9974 4.84888 37.9974C5.94312 37.9974 6.42225 37.3931 6.58187 36.2579C6.59962 36.1117 6.6115 35.9774 6.6115 35.8433C6.61175 35.0868 6.263 34.5254 5.33425 34.5254ZM5.78963 36.2583C5.67125 37.0945 5.41725 37.3508 4.93787 37.3508C4.55375 37.3508 4.36462 37.186 4.36462 36.6917C4.36462 36.5696 4.37663 36.4233 4.40013 36.2583C4.5185 35.4286 4.755 35.1723 5.23987 35.1723C5.63025 35.1723 5.82513 35.337 5.82513 35.8373C5.82513 35.9593 5.81313 36.0998 5.78963 36.2583ZM9.36213 33.518L9.179 34.6382C9.16725 34.7355 9.17325 34.7032 9.209 34.7948C9.0375 34.6606 8.72975 34.5719 8.52275 34.5719C7.541 34.5719 6.99125 35.0304 6.814 36.3119C6.7933 36.4471 6.78339 36.5839 6.78438 36.7209C6.78438 37.6548 7.3165 38.0029 8.03187 38.0029C8.33387 38.0029 8.62937 38.0094 8.85975 37.8083L8.91862 38.1879H9.4865L10.1488 33.518H9.36213ZM8.80037 37.1736C8.5345 37.3379 8.2745 37.3751 8.11487 37.3751C7.68313 37.3751 7.56488 37.143 7.56488 36.771C7.56488 36.6306 7.58262 36.4662 7.6065 36.2888C7.74225 35.3187 8.044 35.1475 8.43437 35.1475C8.68837 35.1475 8.88338 35.1905 9.06713 35.2944L8.80037 37.1736ZM11.8757 34.5254C10.7932 34.5254 10.2851 35.0559 10.1134 36.2579C10.0954 36.4046 10.0835 36.5451 10.0835 36.6792C10.0835 37.503 10.4917 37.9974 11.3903 37.9974C12.0881 37.9974 12.609 37.6982 12.8868 37.1489L12.2894 36.8987C12.1181 37.167 11.8875 37.3502 11.4794 37.3502C11.0419 37.3502 10.8644 37.2287 10.8644 36.8258C10.8644 36.7464 10.8704 36.631 10.8822 36.631H13.0168C13.0468 36.3196 13.0817 36.0995 13.0817 35.917C13.0817 35.3072 12.8572 34.5253 11.8757 34.5253V34.5254ZM12.2836 36.0086H10.9826C11.113 35.6972 11.3314 35.2154 11.781 35.2154C12.1298 35.2154 12.3015 35.4257 12.3015 35.7857C12.3011 35.8467 12.2957 36.0086 12.2836 36.0086ZM15.3575 34.4519L15.4284 33.8293H13.7605L13.6899 34.4519H14.1274L13.6546 37.5652H13.2165L13.146 38.1879H14.8135L14.8848 37.5652H14.4469L14.9198 34.4519H15.3575ZM18.7463 35.3859L18.9594 34.7633H18.3857L17.9721 34.8514C17.7414 34.6992 17.4279 34.5849 17.1325 34.5849C16.2865 34.5849 15.5654 35.0064 15.5654 35.9646C15.5654 36.2334 15.6599 36.4504 15.772 36.597C15.595 36.6944 15.4411 36.8576 15.4411 37.0776C15.4411 37.1751 15.4764 37.275 15.5476 37.3663C15.1925 37.5863 14.9744 37.951 14.9744 38.3778C14.9744 39.202 15.808 39.3778 16.4466 39.3778C17.2507 39.3778 18.209 39.1882 18.209 38.1324C18.209 37.7726 17.9902 37.4914 17.3575 37.3694L16.2162 37.1493C16.0863 37.1247 16.0566 37.082 16.0566 37.021C16.0566 36.9294 16.1104 36.8809 16.1986 36.8809L16.2756 36.893C16.4294 36.9296 16.6069 36.9481 16.79 36.9481C17.6123 36.9481 18.3454 36.5818 18.3454 35.6299C18.3454 35.4955 18.3219 35.4046 18.2628 35.2579C18.3631 35.3069 18.4935 35.3863 18.5462 35.3863H18.7463V35.3859ZM17.1204 37.9118C17.3449 37.9547 17.4216 38.04 17.4216 38.1926C17.4216 38.6869 16.9071 38.748 16.5347 38.748C15.967 38.748 15.7542 38.6079 15.7542 38.2962C15.7542 38.0215 15.8309 37.8937 16.0086 37.6982L17.1204 37.9118ZM16.8775 36.3134C16.5345 36.3134 16.3452 36.1855 16.3452 35.88C16.3452 35.4286 16.5996 35.1661 17.0431 35.1661C17.398 35.1661 17.5696 35.3187 17.5696 35.6173C17.5696 36.069 17.321 36.3134 16.8775 36.3134ZM20.8471 34.5254C20.5159 34.5254 20.2205 34.6931 19.8536 34.9918L19.8005 34.7633H19.1497L18.6945 38.1878H19.481L19.8241 35.5908C20.0549 35.4444 20.3385 35.2319 20.581 35.2319C20.8765 35.2319 20.9832 35.379 20.9832 35.6596C20.9832 35.7268 20.977 35.9258 20.9651 35.9989L20.6758 38.1878H21.4624L21.7518 35.9811C21.7638 35.878 21.7755 35.7078 21.7755 35.6104C21.7759 35.03 21.5094 34.5254 20.8471 34.5254ZM23.2696 37.3299L23.2756 37.2461L23.6184 34.7633H22.3114L22.229 35.3859H22.8022C22.7549 35.3859 22.7254 35.4404 22.7196 35.4896L22.483 37.1431C22.4713 37.2227 22.4655 37.3883 22.4655 37.455C22.4655 37.8821 22.69 38.1879 23.151 38.1879H23.5532L23.642 37.5652H23.3879C23.2989 37.5652 23.2696 37.403 23.2696 37.3299ZM23.778 33.518H23.0093C22.9619 33.518 22.9619 33.3383 22.9561 33.3993L22.8494 34.2766C22.8433 34.3318 22.8433 34.452 22.8906 34.452H23.6597C23.7071 34.452 23.7071 34.2387 23.7129 34.1832L23.8196 33.5061C23.8256 33.4451 23.8256 33.518 23.778 33.518ZM25.3819 37.3507C25.187 37.3507 25.0923 37.2652 25.0923 37.0824L25.0982 37.0699L25.3466 35.3859H26.2454L26.5173 34.7633H25.4293L25.6124 33.3931L24.7849 33.6662L24.6367 34.7633H24.1579L24.0753 35.3859H24.631C24.5779 35.6972 24.5245 35.4953 24.5187 35.5565L24.3057 37.0331C24.294 37.1005 24.294 37.1492 24.294 37.21C24.294 37.7897 24.7079 38.0067 25.2051 38.0067C25.6661 38.0067 26.0387 37.8678 26.3288 37.6172L25.9619 37.1515C25.7781 37.2672 25.6541 37.3507 25.3819 37.3507ZM28.2677 34.5254C27.1856 34.5254 26.6771 35.0559 26.5055 36.2579C26.4878 36.4046 26.4759 36.5451 26.4759 36.6792C26.4759 37.503 26.8839 37.9974 27.7826 37.9974C28.4805 37.9974 29.0014 37.6982 29.2789 37.1489L28.6817 36.8987C28.5105 37.167 28.2796 37.3502 27.8714 37.3502C27.4341 37.3502 27.2564 37.2287 27.2564 36.8258C27.2564 36.7464 27.2628 36.631 27.2746 36.631H29.4093C29.4387 36.3196 29.4743 36.0995 29.4743 35.917C29.4743 35.3072 29.2496 34.5253 28.2677 34.5253V34.5254ZM28.676 36.0086H27.375C27.505 35.6972 27.7235 35.2154 28.1734 35.2154C28.5221 35.2154 28.6939 35.4257 28.6939 35.7857C28.6935 35.8467 28.6877 36.0086 28.676 36.0086ZM31.6506 34.5253C31.3668 34.5253 31.1006 34.6932 30.8344 34.9551L30.7871 34.7633H30.1369L29.6814 38.1878H30.4739L30.8226 35.5359C31.0297 35.4081 31.2662 35.2988 31.491 35.2988C31.6331 35.2988 31.7689 35.2755 31.8989 35.2937L32 34.5862C31.8811 34.5618 31.7629 34.5254 31.6506 34.5254V34.5253ZM11.5675 31.0651C9.7775 30.2667 8.1025 28.2375 8.0985 26.1613C8.09363 23.8976 9.48388 21.9758 11.213 20.7128C11.0051 21.5232 10.8917 22.2645 11.4067 22.9893C11.8855 23.6633 12.724 23.9908 13.5157 23.813C15.3658 23.3951 15.4506 21.2966 14.3539 20.0739C13.2695 18.8632 12.2205 17.4956 12.6333 15.7397C12.8399 14.8596 13.3636 14.0351 14.0271 13.4458C13.5171 14.8287 14.9664 16.1926 15.9213 16.8719C17.5776 18.0506 19.395 18.9413 20.918 20.323C22.52 21.7751 23.703 23.7385 23.4641 26.0157C23.2052 28.4839 21.3045 30.2005 19.1725 31.0672C23.6777 30.0411 28.3329 26.4331 28.4282 21.2774C28.5072 17.0358 25.6874 13.7715 22.1943 11.9026L22.0117 11.7998C22.1076 12.0399 22.139 12.244 22.1354 12.4268C22.1666 12.292 22.1879 12.1535 22.1939 12.0106C22.193 12.1804 22.1715 12.3494 22.1299 12.5136L22.1354 12.4268C22.0835 12.652 21.9961 12.8669 21.8768 13.0628L21.928 13.0059C21.2311 14.1986 19.3445 14.4576 18.4125 13.2226C16.9142 11.236 18.4439 9.09415 18.6579 6.99044C18.9258 4.3539 17.3234 1.79437 15.3366 0.262695C16.4309 2.08922 14.9892 4.50571 13.8359 5.85668C12.7175 7.16624 11.3574 8.25963 10.1228 9.4495C8.7965 10.7275 7.5215 12.0737 6.43138 13.5736C4.25113 16.5758 2.91637 20.3516 3.89725 24.097C4.8775 27.8399 8.0195 30.2224 11.5676 31.065L11.5675 31.0651Z" fill="black"/>
</g>
<defs>
<clipPath id="clip0_717_3295">
<rect width="32" height="32" fill="white" transform="translate(0 0.262695)"/>
</clipPath>
</defs>
</svg>
