<svg width="32" height="33" viewBox="0 0 32 33" fill="none" xmlns="http://www.w3.org/2000/svg">
<g clip-path="url(#clip0_717_3292)">
<path d="M0 0.262695H32V32.2627H0V0.262695Z" fill="black"/>
<path d="M29.3805 24.6306C29.1463 23.1706 28.1942 21.9447 25.3744 20.801C24.3949 20.3508 23.3029 20.0284 22.9775 19.2862C22.8619 18.8542 22.8467 18.6109 22.9197 18.3493C23.1295 17.5006 24.1425 17.236 24.9455 17.4793C25.4626 17.6527 25.9524 18.0512 26.2474 18.6869C27.6284 17.7927 27.6254 17.7987 28.5896 17.1843C28.2368 16.6368 28.0482 16.3843 27.817 16.1501C26.9866 15.2223 25.855 14.7447 24.0451 14.7812C23.7318 14.8208 23.4155 14.8633 23.1022 14.9029C22.1988 15.1311 21.3379 15.6056 20.833 16.2413C19.3181 17.96 19.7501 20.9683 21.5934 22.2063C23.4094 23.5691 26.0771 23.8793 26.4178 25.1539C26.7493 26.7143 25.271 27.2192 23.8018 27.0398C22.7189 26.8147 22.1166 26.2641 21.4657 25.2634C20.2672 25.9569 20.2672 25.9569 19.0353 26.6657C19.3273 27.3044 19.6345 27.5934 20.1243 28.147C22.4421 30.4984 28.2429 30.3828 29.2832 26.8238C29.3257 26.7021 29.6056 25.8869 29.3805 24.6306ZM17.3957 14.9698H14.4026C14.4026 17.5554 14.3904 20.1227 14.3904 22.7082C14.3904 24.3538 14.4756 25.8626 14.2079 26.3249C13.7699 27.2344 12.6353 27.1219 12.1182 26.9454C11.5919 26.6869 11.3243 26.3188 11.014 25.7987C10.9288 25.6497 10.8649 25.5341 10.8436 25.5249C10.0315 26.0208 9.22232 26.5196 8.41016 27.0154C8.81475 27.8459 9.41092 28.5668 10.1744 29.0352C11.3151 29.7196 12.8482 29.9295 14.4513 29.5614C15.4946 29.2572 16.3949 28.6276 16.8664 27.6694C17.5478 26.4132 17.4018 24.8922 17.3957 23.2101C17.4109 20.4664 17.3957 17.7227 17.3957 14.9698Z" fill="white"/>
</g>
<defs>
<clipPath id="clip0_717_3292">
<rect width="32" height="32" fill="white" transform="translate(0 0.262695)"/>
</clipPath>
</defs>
</svg>
