<svg width="32" height="33" viewBox="0 0 32 33" fill="none" xmlns="http://www.w3.org/2000/svg">
<g clip-path="url(#clip0_717_3311)">
<path d="M0 5.43642L2.5125 25.7576L16 32.2277L29.5125 25.7693L32 5.41306C32 5.41306 23.575 0.262695 16.0125 0.262695C8.45 0.262695 0 5.43642 0 5.43642Z" fill="black"/>
<path d="M1.03711 6.03217L3.38711 24.6599L16.0121 30.5928L28.6496 24.6716L30.9746 6.02049C30.9746 6.02049 23.0871 1.30225 16.0121 1.30225C8.93711 1.30225 1.03711 6.03217 1.03711 6.03217Z" fill="black"/>
<path d="M1.86328 6.5693L4.08828 24.0408L16.0133 29.6L27.9508 24.0525L30.1383 6.55763C30.1383 6.55763 22.6883 2.13135 16.0008 2.13135C9.31328 2.13135 1.86328 6.5693 1.86328 6.5693Z" fill="black"/>
<path d="M7.1875 23.7022V6.44084L11.6 6.41748L16 17.2671L20.7625 6.47587L25.1125 6.44084V23.7022H21.525L21.7125 11.5795L16 23.7022L10.4875 11.6029L10.775 23.7022H7.1875Z" fill="white"/>
<path opacity="0.1" d="M16.0125 0.262695C8.4375 0.262695 0 5.43642 0 5.43642L2.5125 25.7576L16 32.2277V0.262695H16.0125Z" fill="#B3B3B3"/>
</g>
<defs>
<clipPath id="clip0_717_3311">
<rect width="32" height="32" fill="white" transform="translate(0 0.262695)"/>
</clipPath>
</defs>
</svg>
