<svg width="114" height="33" viewBox="0 0 114 33" fill="none" xmlns="http://www.w3.org/2000/svg">
<path d="M104.242 11.6177C103.966 11.6177 103.698 11.6747 103.461 11.809L95.9477 16.1477C95.4615 16.4277 95.166 16.9569 95.166 17.5196V26.1815C95.166 26.7439 95.4615 27.2722 95.9477 27.5531L97.9098 28.6838C98.8631 29.1538 99.2147 29.1463 99.6486 29.1463C101.06 29.1463 101.866 28.2898 101.866 26.8013V18.2559C101.866 18.135 101.761 18.0486 101.642 18.0486H100.701C100.581 18.0486 100.478 18.1372 100.478 18.2559V26.8058C100.478 27.4656 99.7907 28.1293 98.6756 27.5715L96.6359 26.3752C96.5638 26.336 96.5082 26.2644 96.5082 26.1839V17.522C96.5082 17.44 96.5632 17.3562 96.6359 17.3147L104.133 12.9916C104.203 12.9512 104.287 12.9512 104.356 12.9916L111.854 17.3147C111.925 17.3575 111.981 17.4373 111.981 17.522V26.1839C111.981 26.2666 111.94 26.3513 111.87 26.3912L104.357 30.7144C104.29 30.7527 104.201 30.7527 104.133 30.7144L102.203 29.566C102.146 29.5323 102.067 29.5349 102.012 29.566C101.479 29.8679 101.379 29.9029 100.879 30.0763C100.756 30.1191 100.569 30.1858 100.943 30.3956L103.464 31.881C103.704 32.0197 103.971 32.0883 104.245 32.0883C104.524 32.0883 104.787 32.0217 105.027 31.881L112.54 27.5578C113.026 27.2749 113.322 26.7486 113.322 26.1861V17.5242C113.322 16.9616 113.026 16.4335 112.54 16.1524L105.027 11.8137C104.792 11.6793 104.522 11.6223 104.245 11.6223L104.242 11.6177ZM106.252 17.8071C104.113 17.8071 102.839 18.7177 102.839 20.2317C102.839 21.8723 104.103 22.3254 106.157 22.5285C108.613 22.769 108.805 23.1297 108.805 23.6133C108.805 24.452 108.136 24.8096 106.556 24.8096C104.57 24.8096 104.134 24.3138 103.988 23.3242C103.97 23.2182 103.889 23.1328 103.78 23.1328H102.805C102.746 23.1341 102.69 23.1581 102.648 23.1997C102.607 23.2413 102.583 23.2973 102.581 23.3561C102.581 24.6205 103.269 26.1156 106.553 26.1156C108.931 26.1156 110.302 25.1845 110.302 23.5474C110.302 21.929 109.194 21.4916 106.888 21.1863C104.561 20.8759 104.336 20.7274 104.336 20.1813C104.336 19.7308 104.525 19.1283 106.25 19.1283C107.792 19.1283 108.362 19.4608 108.595 20.5001C108.616 20.5977 108.702 20.6775 108.803 20.6775H109.778C109.838 20.6775 109.896 20.6407 109.938 20.5977C109.979 20.5518 110.007 20.5001 110.002 20.4381C109.851 18.648 108.657 17.806 106.253 17.806L106.252 17.8071Z" fill="black"/>
<path d="M60.0729 0.262985C59.9889 0.263137 59.9065 0.285142 59.8336 0.326835C59.7612 0.36924 59.701 0.429794 59.6591 0.50253C59.6171 0.575266 59.5948 0.657675 59.5944 0.741638V12.9445C59.5944 13.0642 59.5386 13.1715 59.4348 13.2316C59.384 13.2613 59.3262 13.2769 59.2673 13.2769C59.2085 13.2769 59.1507 13.2613 59.0998 13.2316L57.1058 12.0832C56.9604 11.9991 56.7953 11.9547 56.6273 11.9547C56.4593 11.9547 56.2942 11.9991 56.1488 12.0832L48.1892 16.6771C47.8917 16.8487 47.7104 17.179 47.7104 17.5224V26.7104C47.7101 26.8785 47.7542 27.0438 47.8383 27.1894C47.9223 27.335 48.0433 27.4559 48.189 27.5398L56.1488 32.1339C56.2941 32.2183 56.4592 32.2627 56.6273 32.2627C56.7954 32.2627 56.9605 32.2183 57.1058 32.1339L65.0656 27.5398C65.2113 27.4559 65.3323 27.335 65.4163 27.1894C65.5003 27.0438 65.5445 26.8785 65.5442 26.7104V3.80422C65.5442 3.45571 65.354 3.1287 65.0498 2.95887L60.3123 0.310651C60.2378 0.269193 60.1553 0.262098 60.0729 0.262985ZM8.86872 11.732C8.71686 11.7382 8.5743 11.7646 8.43796 11.8438L0.478436 16.4377C0.332625 16.5214 0.211566 16.6423 0.127542 16.7879C0.0435169 16.9336 -0.000483766 17.0989 4.01179e-06 17.267L0.0161882 29.5978C0.0161882 29.7694 0.104869 29.9286 0.255626 30.0124C0.4035 30.1011 0.586848 30.1011 0.734057 30.0124L5.45563 27.3006C5.75493 27.1232 5.95003 26.8137 5.95003 26.4714V20.7127C5.95003 20.3691 6.13071 20.0543 6.4289 19.8836L8.43884 18.7192C8.58408 18.6347 8.74926 18.5906 8.91728 18.5915C9.08537 18.5905 9.25067 18.6346 9.39593 18.7192L11.405 19.8829C11.7027 20.0536 11.8834 20.3689 11.8834 20.7121V26.4705C11.8834 26.8133 12.0829 27.1245 12.3778 27.2997L17.0994 30.0115C17.2479 30.1002 17.4308 30.1002 17.5778 30.0115C17.7241 29.9273 17.8173 29.7683 17.8173 29.597L17.8332 17.2666C17.8342 17.0983 17.7904 16.9329 17.7063 16.7871C17.6222 16.6414 17.5009 16.5206 17.3548 16.4372L9.39526 11.8436C9.26069 11.7646 9.11747 11.738 8.9645 11.7318H8.86917L8.86872 11.732ZM80.3949 11.8438C80.2269 11.8433 80.0617 11.8874 79.9162 11.9715L71.9565 16.5656C71.6594 16.7374 71.4776 17.0515 71.4776 17.3947V26.5827C71.4776 26.9281 71.6723 27.2412 71.972 27.4119L79.8679 31.9124C80.1594 32.0787 80.5153 32.0913 80.809 31.9279L85.5945 29.264C85.7463 29.1797 85.849 29.0223 85.8494 28.8494C85.8499 28.6765 85.7601 28.5208 85.61 28.4348L77.6021 23.8407C77.4523 23.7551 77.3472 23.582 77.3472 23.4099V20.5369C77.3472 20.3653 77.4536 20.2079 77.6021 20.1223L80.0905 18.6866C80.2386 18.601 80.4204 18.601 80.5694 18.6866L83.0589 20.1223C83.1318 20.1642 83.1923 20.2246 83.2343 20.2974C83.2763 20.3702 83.2983 20.4529 83.2981 20.5369V22.802C83.2979 22.8861 83.3199 22.9687 83.3619 23.0415C83.4039 23.1143 83.4644 23.1747 83.5373 23.2166C83.6865 23.3026 83.8672 23.3031 84.0162 23.2166L88.7854 20.4416C89.0814 20.2695 89.2643 19.9545 89.2643 19.6124V17.3954C89.2643 17.2273 89.2201 17.0622 89.136 16.9166C89.052 16.771 88.9312 16.6501 88.7856 16.566L80.8738 11.9719C80.7283 11.8877 80.5632 11.8437 80.3951 11.8442L80.3949 11.8438ZM56.5953 18.7032C56.6398 18.703 56.6837 18.7139 56.723 18.7349L59.4506 20.3141C59.5246 20.3569 59.5782 20.436 59.5782 20.5214V23.6797C59.5782 23.7655 59.525 23.8445 59.4506 23.887L56.723 25.4662C56.6487 25.5083 56.558 25.5083 56.4835 25.4662L53.7559 23.887C53.6817 23.8442 53.6282 23.7651 53.6282 23.6797V20.5209C53.6282 20.4354 53.6819 20.3569 53.7559 20.3137L56.4835 18.7347C56.5208 18.7132 56.5536 18.7032 56.5953 18.7032Z" fill="#404137"/>
<path d="M32.7803 11.7952C32.6123 11.7949 32.4471 11.8389 32.3015 11.9229L24.3417 16.501C24.0442 16.6726 23.8633 17.0031 23.8633 17.3463V26.5343C23.8628 26.7024 23.9069 26.8677 23.9909 27.0133C24.0749 27.1589 24.1959 27.2797 24.3417 27.3635L32.3015 31.9576C32.4468 32.0419 32.6119 32.0864 32.78 32.0864C32.9481 32.0864 33.1132 32.0419 33.2585 31.9576L41.2183 27.3635C41.364 27.2796 41.485 27.1587 41.569 27.0131C41.653 26.8674 41.6972 26.7022 41.6969 26.5341V17.3461C41.6969 17.0025 41.516 16.6721 41.2181 16.5008L33.2583 11.9226C33.1129 11.8383 32.9476 11.7942 32.7795 11.7949L32.7803 11.7952ZM80.3796 19.9943C80.3479 19.9943 80.3127 19.9943 80.2838 20.0099L78.7526 20.9033C78.724 20.9192 78.7001 20.9422 78.6833 20.9702C78.6665 20.9982 78.6574 21.0301 78.6568 21.0627V22.8175C78.6568 22.8835 78.6951 22.9438 78.7526 22.9771L80.2838 23.8544C80.3101 23.8707 80.3405 23.8793 80.3714 23.8793C80.4024 23.8793 80.4327 23.8707 80.459 23.8544L81.9903 22.9771C82.047 22.9445 82.086 22.8835 82.086 22.8175V21.0627C82.086 20.9966 82.0472 20.9363 81.9903 20.9031L80.459 20.0096C80.4306 19.9928 80.4111 19.9941 80.3792 19.9941L80.3796 19.9943Z" fill="black"/>
</svg>
