<svg width="32" height="33" viewBox="0 0 32 33" fill="none" xmlns="http://www.w3.org/2000/svg">
<g clip-path="url(#clip0_717_3318)">
<path fill-rule="evenodd" clip-rule="evenodd" d="M31.7606 7.37892C31.7724 7.42086 31.7784 7.4641 31.7786 7.50754V14.2595C31.7786 14.3462 31.7548 14.4313 31.7096 14.5063C31.6644 14.5813 31.5995 14.6435 31.5213 14.6866L25.6275 17.9494V24.4165C25.6275 24.5925 25.5302 24.7549 25.3715 24.8435L13.0688 31.6534C13.0406 31.6688 13.0099 31.6786 12.9792 31.6891C12.9677 31.6928 12.9568 31.6995 12.9446 31.7026C12.8586 31.7244 12.7682 31.7244 12.6822 31.7026C12.6682 31.6989 12.6554 31.6915 12.6419 31.6866C12.6138 31.6768 12.5843 31.6682 12.5574 31.6534L0.25728 24.8435C0.179141 24.8004 0.114215 24.7382 0.0690461 24.6632C0.0238774 24.5882 6.19132e-05 24.5031 0 24.4165L0 4.16046C0 4.11615 0.0064 4.07308 0.01792 4.03123C0.02176 4.01708 0.03072 4.00415 0.03584 3.99C0.04544 3.96415 0.0544 3.93769 0.06848 3.91369C0.07808 3.89769 0.09216 3.88477 0.10368 3.87C0.1184 3.85031 0.13184 3.83 0.14912 3.81277C0.16384 3.79862 0.18304 3.78815 0.19968 3.77585C0.21824 3.76108 0.23488 3.74508 0.256 3.73339L6.40704 0.328462C6.48492 0.285373 6.57319 0.262695 6.66304 0.262695C6.75289 0.262695 6.84116 0.285373 6.91904 0.328462L13.0694 3.73339H13.0707C13.0912 3.74569 13.1085 3.76108 13.127 3.77523C13.1437 3.78754 13.1622 3.79862 13.177 3.81215C13.1949 3.83 13.2077 3.85031 13.223 3.87C13.2339 3.88477 13.2486 3.89769 13.2576 3.91369C13.2723 3.93831 13.2806 3.96415 13.2909 3.99C13.296 4.00415 13.305 4.01708 13.3088 4.03185C13.3206 4.07378 13.3266 4.11702 13.3267 4.16046V16.8122L18.4518 13.9746V7.50692C18.4518 7.46385 18.4582 7.42015 18.4698 7.37892C18.4742 7.36415 18.4826 7.35123 18.4877 7.33708C18.4979 7.31123 18.5069 7.28477 18.521 7.26077C18.5306 7.24477 18.5446 7.23185 18.5555 7.21708C18.5709 7.19738 18.5837 7.17708 18.6016 7.15985C18.6163 7.14569 18.6349 7.13523 18.6515 7.12292C18.6707 7.10815 18.6874 7.09215 18.7078 7.08046L24.8595 3.67554C24.9374 3.63239 25.0257 3.60968 25.1155 3.60968C25.2054 3.60968 25.2937 3.63239 25.3715 3.67554L31.5219 7.08046C31.5437 7.09277 31.5603 7.10815 31.5795 7.12231C31.5955 7.13462 31.6141 7.14569 31.6288 7.15923C31.6467 7.17708 31.6595 7.19738 31.6749 7.21708C31.6864 7.23185 31.7005 7.24477 31.7094 7.26077C31.7242 7.28477 31.7325 7.31123 31.7427 7.33708C31.7485 7.35123 31.7568 7.36415 31.7606 7.37892ZM30.7533 13.9746V8.35985L28.601 9.55123L25.6275 11.1974V16.8122L30.7539 13.9746H30.7533ZM24.6029 24.1315V18.5131L21.6781 20.1192L13.3261 24.7026V30.374L24.6029 24.1315ZM1.02528 5.01277V24.1315L12.3008 30.3734V24.7032L6.41024 21.4977L6.40832 21.4965L6.40576 21.4952C6.38592 21.4842 6.36928 21.4682 6.35072 21.4546C6.33472 21.4423 6.31616 21.4325 6.30208 21.4189L6.3008 21.4171C6.28416 21.4017 6.27264 21.3826 6.25856 21.3654C6.24576 21.3488 6.2304 21.3346 6.22016 21.3174L6.21952 21.3155C6.208 21.2971 6.20096 21.2749 6.19264 21.254C6.18432 21.2355 6.17344 21.2183 6.16832 21.1986C6.16192 21.1752 6.16064 21.15 6.15808 21.126C6.15552 21.1075 6.1504 21.0891 6.1504 21.0706V21.0694V7.85031L3.1776 6.20354L1.02528 5.01277ZM6.66368 1.32415L1.5392 4.16046L6.6624 6.99677L11.7862 4.15985L6.6624 1.32415H6.66368ZM9.32864 19.0251L12.3014 17.3795V5.01277L10.1491 6.20415L7.17568 7.85031V20.2171L9.32864 19.0251ZM25.1155 4.67123L19.9917 7.50754L25.1155 10.3438L30.2387 7.50692L25.1155 4.67123ZM24.6029 11.1974L21.6294 9.55123L19.4771 8.35985V13.9746L22.4499 15.6202L24.6029 16.8122V11.1974ZM12.8128 23.8503L20.3283 19.7248L24.0851 17.6632L18.9651 14.8288L13.0701 18.0922L7.69728 21.0663L12.8128 23.8503Z" fill="black"/>
</g>
<defs>
<clipPath id="clip0_717_3318">
<rect width="32" height="32" fill="white" transform="translate(0 0.262695)"/>
</clipPath>
</defs>
</svg>
