<svg width="32" height="30" viewBox="0 0 32 30" fill="none" xmlns="http://www.w3.org/2000/svg">
<path d="M32 14.9806C32 12.8877 29.3453 10.9042 25.2752 9.67422C26.2144 5.57851 25.797 2.31998 23.9576 1.27674C23.5336 1.03202 23.0379 0.916108 22.4965 0.916108V2.35218C22.7966 2.35218 23.0379 2.41014 23.2401 2.51961C24.1272 3.02192 24.512 4.93454 24.212 7.39453C24.1402 7.99987 24.0228 8.63741 23.8793 9.28783C22.6009 8.97872 21.2051 8.74045 19.7375 8.5859C18.8569 7.39453 17.9437 6.31265 17.0241 5.366C19.1504 3.41475 21.1464 2.34574 22.5031 2.34574V0.909668C20.7093 0.909668 18.3612 2.17187 15.987 4.36139C13.6127 2.18475 11.2646 0.935427 9.47085 0.935427V2.3715C10.821 2.3715 12.8235 3.43407 14.9499 5.37244C14.0367 6.31909 13.1235 7.39453 12.256 8.5859C10.7819 8.74045 9.38606 8.97872 8.10762 9.29427C7.9576 8.65029 7.84672 8.02563 7.76845 7.42673C7.46188 4.96673 7.8402 3.05412 8.72075 2.54537C8.91643 2.42946 9.17081 2.37794 9.47085 2.37794V0.941867C8.92295 0.941867 8.42723 1.05778 7.99674 1.30249C6.16388 2.34574 5.75296 5.59783 6.69874 9.68066C2.64166 10.9171 0 12.8941 0 14.9806C0 17.0735 2.65471 19.057 6.72483 20.287C5.78557 24.3827 6.20302 27.6412 8.0424 28.6845C8.46637 28.9292 8.96209 29.0451 9.50999 29.0451C11.3037 29.0451 13.6519 27.7829 16.0261 25.5934C18.4003 27.77 20.7485 29.0193 22.5422 29.0193C23.0901 29.0193 23.5858 28.9034 24.0163 28.6587C25.8492 27.6155 26.2601 24.3634 25.3143 20.2806C29.3583 19.0506 32 17.0671 32 14.9806ZM23.5075 10.6853C23.2662 11.516 22.9662 12.3725 22.627 13.229C22.3596 12.7138 22.0791 12.1986 21.7725 11.6834C21.4725 11.1683 21.1529 10.6659 20.8333 10.1765C21.7595 10.3118 22.6531 10.4792 23.5075 10.6853ZM20.5202 17.5436C20.0114 18.413 19.4896 19.2373 18.9482 20.0036C17.9764 20.0874 16.9914 20.1324 16 20.1324C15.0151 20.1324 14.0302 20.0874 13.0648 20.0101C12.5234 19.2437 11.9951 18.4259 11.4863 17.563C10.9906 16.7193 10.5406 15.8629 10.1296 14.9999C10.534 14.137 10.9906 13.2741 11.4798 12.4304C11.9886 11.5611 12.5104 10.7368 13.0518 9.97045C14.0236 9.88673 15.0086 9.84165 16 9.84165C16.9849 9.84165 17.9698 9.88673 18.9352 9.96401C19.4766 10.7303 20.0049 11.5482 20.5137 12.4111C21.0094 13.2547 21.4594 14.1112 21.8704 14.9742C21.4594 15.8371 21.0094 16.7 20.5202 17.5436ZM22.627 16.7065C22.9792 17.5694 23.2793 18.4323 23.5271 19.2695C22.6726 19.4756 21.7725 19.6495 20.8398 19.7847C21.1594 19.2888 21.479 18.7801 21.779 18.2585C22.0791 17.7433 22.3596 17.2216 22.627 16.7065ZM16.013 23.5777C15.4064 22.9595 14.7998 22.2704 14.1998 21.517C14.7868 21.5427 15.3869 21.5621 15.9935 21.5621C16.6066 21.5621 17.2132 21.5492 17.8068 21.517C17.2197 22.2704 16.6131 22.9595 16.013 23.5777ZM11.1602 19.7847C10.234 19.6495 9.3404 19.482 8.48594 19.2759C8.72727 18.4452 9.02731 17.5887 9.36649 16.7322C9.63392 17.2474 9.91439 17.7626 10.221 18.2778C10.5275 18.793 10.8406 19.2953 11.1602 19.7847ZM15.9804 6.38349C16.587 7.00171 17.1936 7.69076 17.7937 8.44422C17.2067 8.41846 16.6066 8.39914 16 8.39914C15.3869 8.39914 14.7803 8.41202 14.1867 8.44422C14.7737 7.69076 15.3804 7.00171 15.9804 6.38349ZM11.1537 10.1765C10.8341 10.6724 10.5145 11.1811 10.2144 11.7028C9.91439 12.2179 9.63392 12.7331 9.36649 13.2483C9.01427 12.3854 8.71423 11.5224 8.46637 10.6853C9.32083 10.4856 10.221 10.3118 11.1537 10.1765ZM5.25071 18.2391C2.9417 17.2667 1.44802 15.9917 1.44802 14.9806C1.44802 13.9696 2.9417 12.688 5.25071 11.7221C5.81166 11.4838 6.42479 11.2713 7.05748 11.0717C7.42927 12.3339 7.91847 13.6476 8.52507 14.9935C7.92499 16.333 7.44232 17.6402 7.07705 18.896C6.43131 18.6964 5.81818 18.4774 5.25071 18.2391ZM8.75989 27.4416C7.87281 26.9393 7.48798 25.0267 7.78802 22.5667C7.85976 21.9613 7.97717 21.3238 8.12067 20.6734C9.39911 20.9825 10.7949 21.2208 12.2625 21.3753C13.1431 22.5667 14.0563 23.6486 14.9759 24.5952C12.8496 26.5465 10.8536 27.6155 9.49694 27.6155C9.20342 27.609 8.95557 27.5511 8.75989 27.4416ZM24.2316 22.5345C24.5381 24.9945 24.1598 26.9071 23.2792 27.4158C23.0836 27.5318 22.8292 27.5833 22.5291 27.5833C21.179 27.5833 19.1765 26.5207 17.0501 24.5823C17.9633 23.6357 18.8765 22.5602 19.744 21.3689C21.2181 21.2143 22.6139 20.976 23.8924 20.6605C24.0424 21.3109 24.1598 21.9356 24.2316 22.5345ZM26.7428 18.2391C26.1818 18.4774 25.5687 18.6899 24.936 18.8896C24.5642 17.6274 24.075 16.3136 23.4684 14.9677C24.0685 13.6282 24.5512 12.321 24.9164 11.0652C25.5622 11.2648 26.1753 11.4838 26.7493 11.7221C29.0583 12.6945 30.552 13.9696 30.552 14.9806C30.5455 15.9917 29.0518 17.2732 26.7428 18.2391Z" fill="black"/>
<path d="M15.9945 17.9236C17.6408 17.9236 18.9754 16.6059 18.9754 14.9806C18.9754 13.3552 17.6408 12.0376 15.9945 12.0376C14.3482 12.0376 13.0137 13.3552 13.0137 14.9806C13.0137 16.6059 14.3482 17.9236 15.9945 17.9236Z" fill="black"/>
</svg>
