<svg width="30" height="30" viewBox="0 0 30 30" fill="none" xmlns="http://www.w3.org/2000/svg">
<path fill-rule="evenodd" clip-rule="evenodd" d="M6 0C2.68629 0 0 2.68629 0 6V24C0 27.3137 2.68629 30 6 30H24C27.3137 30 30 27.3137 30 24V6C30 2.68629 27.3137 0 24 0H6ZM7.666 6.92342C7.46012 6.86415 7.23826 6.91915 7.08391 7.06772C6.92955 7.21629 6.86613 7.4359 6.91751 7.64389L10.6461 22.7384C10.6975 22.9465 10.8561 23.1114 11.062 23.1709C11.268 23.2304 11.49 23.1755 11.6445 23.0269L22.8629 12.2357C23.0175 12.0871 23.0809 11.8672 23.0294 11.659C22.9778 11.4509 22.819 11.2861 22.613 11.2267L18.9369 10.1684C18.9108 10.1566 18.8837 10.1466 18.8558 10.1385C18.8276 10.1304 18.7992 10.1244 18.7706 10.1205L11.5222 8.03365C11.4941 8.0205 11.4647 8.00944 11.4344 8.00067C11.4037 7.99183 11.3728 7.98553 11.3417 7.98168L7.666 6.92342ZM10.0974 8.87217L8.33139 8.36373L8.77245 10.1493L10.0974 8.87217ZM9.25644 12.1086L9.69797 13.8961L11.0268 12.6168L9.25644 12.1086ZM11.861 13.4794L10.5303 14.7605L12.3031 15.2714L11.861 13.4794ZM11.911 16.4072L10.1962 15.9131L10.6246 17.6473L11.911 16.4072ZM11.1088 19.6076L11.5618 21.4415L12.926 20.1292L11.1088 19.6076ZM14.39 18.7209L13.9652 16.9992L15.6694 17.4903L14.39 18.7209ZM14.2372 15.8287L15.5625 14.5512L16.0034 16.3377L14.2372 15.8287ZM15.0618 12.522L13.3623 12.0342L14.6383 10.8058L15.0618 12.522ZM16.7268 14.2605L17.1681 16.0487L18.4983 14.7691L16.7268 14.2605ZM19.9606 13.3624L21.2813 12.0921L19.5223 11.5857L19.9606 13.3624ZM17.5198 11.0091L16.231 12.2514L15.8025 10.5147L17.5198 11.0091ZM12.5265 11.1731L12.1011 9.44907L13.8072 9.94024L12.5265 11.1731ZM13.4521 14.9187L13.0245 13.1856L14.7394 13.6779L13.4521 14.9187ZM10.9349 9.73163L11.3625 11.4647L9.64758 10.9725L10.9349 9.73163ZM11.499 18.4711L12.7863 17.2303L13.2139 18.9634L11.499 18.4711ZM18.7839 13.6026L17.069 13.1103L18.3563 11.8695L18.7839 13.6026Z" fill="white"/>
</svg>
