<svg width="26" height="26" viewBox="0 0 26 26" fill="none" xmlns="http://www.w3.org/2000/svg">
<path d="M25.4704 20.701C24.7681 20.9237 24.1057 21.2566 23.5079 21.6872C22.9556 22.0579 22.0604 22.4492 21.5749 22.0131C20.8783 21.3855 22.2513 19.8259 22.2513 18.1982C22.2464 16.9372 21.3606 16.0187 19.819 15.678C19.4068 15.5941 19.0246 15.4016 18.7118 15.1204C18.9046 14.5912 18.9464 14.0187 18.8323 13.4671C19.5765 12.6921 20.7953 12.6566 22.0626 11.2706C25.4139 13.105 26.8749 17.1479 25.4704 20.701ZM18.237 10.3135C19.2536 10.2926 20.2638 10.4792 21.206 10.8617C20.1628 11.8695 19.3434 11.904 18.5428 12.5204L17.9152 10.6345L18.237 10.3135ZM17.1916 8.2613C17.4929 7.95961 17.5539 7.85785 17.7296 7.85426C17.8824 7.8444 17.9013 7.90357 18.4419 8.44509C18.5498 8.57128 18.5373 8.76054 18.4136 8.8714L17.5991 9.68547L17.137 8.29895C17.1561 8.28772 17.1743 8.27514 17.1916 8.2613ZM11.2995 1.7604C11.3608 1.69793 11.4438 1.66135 11.5313 1.65819C11.6039 1.65473 11.6747 1.68132 11.7272 1.73171L12.2431 2.24812C12.3502 2.37493 12.3377 2.56372 12.2149 2.67533L12.0952 2.79502L10.6571 2.40278L11.2995 1.7604ZM7.97375 6.30547C7.95597 6.3077 7.93831 6.31084 7.92086 6.31488C7.84724 6.334 7.76897 6.31384 7.71375 6.26154C7.66159 6.20587 7.64133 6.12751 7.65996 6.05354C7.66407 6.03657 7.66706 6.01935 7.66892 6.00198C7.7127 5.82847 7.77273 5.65947 7.84823 5.49723L8.78961 5.96747C8.53616 6.12044 8.26113 6.23438 7.97375 6.30547ZM13.276 8.84361C11.7541 10.3646 10.6284 11.0957 8.62913 12.524C8.35675 12.7176 8.23196 13.0592 8.31534 13.3828L8.70982 14.9608L8.43144 15.2392L4.93489 11.7426L5.21327 11.4647L6.7912 11.8596C7.11547 11.9413 7.45659 11.8154 7.6501 11.5427C9.06889 9.55681 9.81572 8.41147 11.3309 6.89629C11.4325 6.79439 11.479 6.64992 11.4559 6.50789C11.4328 6.36586 11.343 6.24354 11.2143 6.17905L4.53906 2.84119C5.07432 2.26361 5.88601 2.03098 6.64596 2.23736L13.6086 4.13716C13.8411 4.19951 14.0892 4.13342 14.2599 3.96367L16.2323 1.99126C17.86 0.364019 19.156 0.384191 19.6841 0.488191C19.7464 0.840985 19.8185 2.12619 18.1662 3.95516C17.3118 4.90102 16.2274 5.99885 15.9159 6.31219C15.7362 6.49167 15.6742 6.75761 15.7558 6.99805L17.934 13.529C18.1407 14.2888 17.9082 15.1006 17.3306 15.6359L13.9941 8.95971C13.9296 8.83081 13.807 8.74079 13.6648 8.71778C13.5225 8.69478 13.3778 8.7416 13.276 8.84361ZM14.2039 11.3849L14.6741 12.3263C14.4969 12.4108 14.3099 12.4733 14.1174 12.5123C14.0437 12.5333 13.9644 12.5127 13.9102 12.4585C13.8561 12.4044 13.8355 12.3251 13.8565 12.2514C13.9232 11.9456 14.0406 11.6532 14.2039 11.3862V11.3849ZM11.001 16.0483C11.3038 16.5985 11.7823 17.0313 12.3601 17.2775C13.3463 17.6858 14.6347 17.537 14.5661 18.3556C14.503 18.8167 14.3737 19.2663 14.1824 19.6905C13.6444 21.0658 13.6776 21.4424 13.839 22.3802C13.9777 22.9206 13.9698 23.4882 13.8161 24.0245C11.3389 22.1887 10.2248 19.0323 11.001 16.0483ZM17.2616 25.4679C18.2478 24.8085 19.3062 24.4727 21.1616 24.6081C21.3998 24.6271 21.637 24.6583 21.8721 24.7014C20.4541 25.4355 18.8408 25.7037 17.2616 25.4679ZM22.9385 24.0361C21.5301 23.6223 20.04 23.5699 18.606 23.8837C17.6882 24.1262 16.8396 24.5793 16.1274 25.207C15.5983 25.0422 15.0889 24.8199 14.6082 24.544C14.8639 23.7992 14.9035 22.9973 14.7225 22.2309C14.5881 21.4505 14.5468 21.2196 15.0171 20.0191C15.242 19.515 15.391 18.9804 15.4595 18.4327C15.5267 17.7986 15.1614 17.1979 14.5674 16.9659C13.9 16.6736 13.2509 16.6777 12.7026 16.4508C12.0412 16.1181 11.5775 15.4904 11.4537 14.7604C11.7699 14.0635 12.1907 13.4191 12.7017 12.8494C12.7914 12.7472 12.894 12.6571 12.99 12.5607C13.0338 12.7609 13.1329 12.9448 13.276 13.0915C13.7803 13.5962 14.4415 13.4227 15.0758 13.1282L16.5798 16.138C16.697 16.3716 16.9192 16.5348 17.1773 16.5767C17.4353 16.6186 17.6978 16.5341 17.8829 16.3495C18.0208 16.2199 18.1487 16.0801 18.2657 15.9313C18.6684 16.2357 19.1327 16.4485 19.6262 16.5548C20.4125 16.7283 21.3508 17.156 21.3548 18.2014C21.3548 19.3584 20.5093 20.3692 20.4851 21.4908C20.4618 22.577 21.3776 23.2225 22.4253 23.0835C23.5011 22.9446 24.105 22.2914 24.8908 21.8898C24.3842 22.7242 23.7213 23.4529 22.9385 24.0361Z" fill="#424242"/>
<path d="M6.01152 24.6945C3.31693 23.4814 1.70314 21.6552 1.21766 19.2663C0.505794 15.7657 2.44459 11.7258 4.547 9.45353C4.71085 9.27127 4.69795 8.99121 4.51804 8.82478C4.33813 8.65835 4.05791 8.66725 3.88893 8.84478C1.56104 11.3609 -0.439619 15.6142 0.339036 19.4452C0.885484 22.1321 2.67007 24.1736 5.64304 25.5121C5.86882 25.6139 6.13435 25.5133 6.2361 25.2875C6.33786 25.0617 6.23731 24.7962 6.01152 24.6945Z" fill="#424242"/>
<path d="M4.25548 18.705C4.10673 17.5611 4.47004 16.4098 5.24841 15.5585C5.41829 15.3826 5.41586 15.103 5.24295 14.9301C5.07003 14.7572 4.79044 14.7548 4.61455 14.9247C3.64651 15.9661 3.18823 17.3821 3.36251 18.7933C3.56558 20.8401 4.83017 22.7381 6.92361 24.1318C7.1296 24.2692 7.40797 24.2136 7.54537 24.0076C7.68278 23.8016 7.62718 23.5233 7.4212 23.3859C5.55548 22.1419 4.4312 20.4797 4.25548 18.705Z" fill="#424242"/>
<path d="M7.50494 19.5565C7.3857 18.9359 7.54373 18.2941 7.93752 17.7997C8.10741 17.6238 8.10498 17.3443 7.93206 17.1713C7.75915 16.9984 7.47955 16.996 7.30366 17.1659C6.17625 18.2933 6.26769 20.7969 8.20021 22.7308C8.37611 22.9007 8.6557 22.8982 8.82861 22.7253C9.00153 22.5524 9.00396 22.2728 8.83407 22.0969C8.12358 21.4194 7.6564 20.5265 7.50494 19.5565Z" fill="#424242"/>
<path d="M5.37992 8.51716C5.62749 8.51716 5.82819 8.31646 5.82819 8.06888C5.82819 7.82131 5.62749 7.62061 5.37992 7.62061C5.13234 7.62061 4.93164 7.82131 4.93164 8.06888C4.93164 8.31646 5.13234 8.51716 5.37992 8.51716Z" fill="#424242"/>
</svg>
