<svg width="160" height="136" viewBox="0 0 160 136" fill="none" xmlns="http://www.w3.org/2000/svg">
<g clip-path="url(#clip0_1087_311)">
<path d="M41.1397 114.243C34.6797 108.803 33.6597 100.983 30.9397 94.183C29.2397 89.763 26.1797 86.023 23.1197 82.283C27.1997 93.843 24.8197 102.003 34.6797 110.163C32.9797 109.483 31.2797 108.123 29.9197 107.103C22.0997 100.643 10.5397 99.623 5.77969 89.083C7.13969 96.903 13.2597 103.703 19.7197 108.123C26.1797 112.203 34.3397 111.863 41.1397 114.243ZM58.1397 118.323C59.1597 117.983 60.5197 117.983 61.8797 117.643C57.1197 116.963 52.6997 115.263 49.2997 112.203C44.1997 107.443 39.7797 102.683 34.3397 98.943C40.1197 110.503 42.1597 115.263 51.6797 117.303C51.6797 117.303 48.9597 116.963 47.5997 116.623C37.3997 114.583 25.1597 117.303 17.6797 108.803C20.7397 114.243 26.5197 118.663 31.9597 120.703C40.7997 123.423 49.9797 120.363 58.1397 118.323ZM71.7397 117.643C55.4197 117.643 46.9197 131.923 30.9397 122.403C38.7597 131.923 51.3397 132.603 61.5397 126.143C65.6197 123.423 69.3597 119.683 74.4597 119.683C82.2797 119.683 90.7797 127.843 97.9197 135.323C99.2797 134.303 100.3 133.283 101.32 132.263C93.8397 125.123 82.9597 117.643 71.7397 117.643ZM25.8397 101.663C25.8397 101.663 23.7997 97.923 23.1197 95.543C20.7397 86.363 22.0997 75.143 18.0197 66.303C18.6997 71.403 16.6597 75.823 16.3197 80.583C15.6397 87.043 18.0197 91.463 19.7197 94.523C19.7197 94.523 17.3397 91.463 16.3197 89.763C11.5597 82.283 1.69969 77.183 1.01969 68.003C-0.340312 88.063 13.5997 93.503 25.8397 101.663ZM21.0797 42.163C22.4397 39.443 23.1197 36.043 23.7997 32.983C23.1197 34.343 22.4397 35.703 21.4197 36.723C14.9597 42.163 11.2197 45.223 9.51969 53.723L10.1997 46.243C10.8797 38.763 6.79969 30.603 11.2197 24.143C6.79969 28.903 4.41969 35.023 4.41969 41.143C4.41969 49.303 9.17969 55.083 9.51969 62.903C10.8797 54.743 17.6797 48.963 21.0797 42.163ZM18.6997 27.203C21.7597 24.483 25.4997 22.103 28.2197 18.703C31.2797 14.623 33.9997 9.86305 38.0797 6.12305C32.6397 8.50305 26.5197 10.543 22.7797 16.323C20.7397 19.723 20.3997 23.803 18.6997 27.203ZM11.8997 43.523C13.2597 40.803 15.6397 38.083 18.0197 36.043C24.1397 31.623 30.2597 25.843 30.5997 18.363C27.1997 26.523 16.6597 27.883 14.2797 36.383C14.2797 36.383 15.6397 31.283 15.9797 30.263C17.6797 24.483 17.3397 17.683 23.1197 13.943C11.8997 16.323 11.2197 28.563 11.8997 37.743C11.8997 39.783 12.2397 41.483 11.8997 43.523ZM13.5997 82.963C13.5997 82.963 12.9197 76.503 13.9397 73.783C16.6597 65.623 19.3797 56.783 19.0397 48.283C16.3197 58.483 7.81969 61.883 11.5597 75.823C10.1997 73.103 9.85969 70.043 8.83969 67.323C6.79969 59.843 1.01969 53.383 2.71969 44.543C-0.000312448 52.363 -0.000312448 58.483 2.71969 66.643C4.41969 72.763 10.5397 77.183 13.5997 82.963Z" fill="#009EDC"/>
<path d="M118.653 114.243C125.113 108.803 126.133 100.983 128.853 94.183C130.553 89.763 133.613 86.023 136.673 82.283C132.593 93.843 134.973 102.003 125.113 110.163C126.813 109.483 128.513 108.123 129.873 107.103C137.693 100.643 149.253 99.623 154.013 89.083C152.653 96.903 146.533 103.703 140.073 108.123C133.613 112.203 125.453 111.863 118.653 114.243ZM101.653 118.323C100.633 117.983 99.2733 117.983 97.9133 117.643C102.673 116.963 107.093 115.263 110.493 112.203C115.593 107.443 120.013 102.683 125.453 98.943C119.673 110.503 117.633 115.263 108.113 117.303C108.113 117.303 110.833 116.963 112.193 116.623C122.393 114.583 134.633 117.303 142.113 108.803C139.053 114.243 133.273 118.663 127.833 120.703C118.993 123.423 109.813 120.363 101.653 118.323ZM88.0533 117.643C104.373 117.643 112.873 131.923 128.853 122.403C121.033 131.923 108.453 132.603 98.2533 126.143C94.1733 123.423 90.4333 119.683 85.3333 119.683C77.5133 119.683 69.0133 127.843 61.8733 135.323C60.5133 134.303 59.4933 133.283 58.4733 132.263C65.9533 125.123 76.8333 117.643 88.0533 117.643ZM133.953 101.663C133.953 101.663 135.993 97.923 136.673 95.543C139.053 86.363 137.693 75.143 141.773 66.303C141.093 71.403 143.133 75.823 143.473 80.583C144.153 87.043 141.773 91.463 140.073 94.523C140.073 94.523 142.453 91.463 143.473 89.763C148.233 82.283 158.093 77.183 158.773 68.003C160.133 88.063 146.193 93.503 133.953 101.663ZM138.713 42.163C137.353 39.443 136.673 36.043 135.993 32.983C136.673 34.343 137.353 35.703 138.373 36.723C144.833 42.163 148.573 45.223 150.273 53.723L149.593 46.243C148.913 38.763 152.993 30.603 148.573 24.143C152.993 28.903 155.373 35.023 155.373 41.143C155.373 49.303 150.613 55.083 150.273 62.903C148.913 54.743 142.113 48.963 138.713 42.163ZM141.093 27.203C138.033 24.483 134.293 22.103 131.573 18.703C128.513 14.623 125.793 9.86305 121.713 6.12305C127.153 8.50305 133.273 10.543 137.013 16.323C139.053 19.723 139.393 23.803 141.093 27.203ZM147.893 43.523C146.533 40.803 144.153 38.083 141.773 36.043C135.653 31.623 129.533 25.843 129.193 18.363C132.593 26.523 143.133 27.883 145.513 36.383C145.513 36.383 144.153 31.283 143.813 30.263C142.113 24.483 142.453 17.683 136.673 13.943C147.893 16.323 148.573 28.563 147.893 37.743C147.893 39.783 147.553 41.483 147.893 43.523ZM146.193 82.963C146.193 82.963 146.873 76.503 145.853 73.783C143.133 65.623 140.413 56.783 140.753 48.283C143.473 58.483 151.973 61.883 148.233 75.823C149.593 73.103 149.933 70.043 150.953 67.323C152.993 59.843 158.773 53.383 157.073 44.543C159.793 52.363 159.793 58.483 157.073 66.643C155.373 72.763 149.253 77.183 146.193 82.963Z" fill="#009EDC"/>
<path d="M79.9005 112.2C110.508 112.2 135.32 87.388 135.32 56.7804C135.32 26.1727 110.508 1.36035 79.9005 1.36035C49.2928 1.36035 24.4805 26.1727 24.4805 56.7804C24.4805 87.388 49.2928 112.2 79.9005 112.2Z" stroke="#009EDC" stroke-width="1.36"/>
<path d="M79.8971 100.638C104.12 100.638 123.757 81.0012 123.757 56.778C123.757 32.5548 104.12 12.918 79.8971 12.918C55.6739 12.918 36.0371 32.5548 36.0371 56.778C36.0371 81.0012 55.6739 100.638 79.8971 100.638Z" stroke="#009EDC" stroke-width="1.36"/>
<path d="M79.904 90.1039C98.3061 90.1039 113.224 75.186 113.224 56.7839C113.224 38.3817 98.3061 23.4639 79.904 23.4639C61.5019 23.4639 46.584 38.3817 46.584 56.7839C46.584 75.186 61.5019 90.1039 79.904 90.1039Z" stroke="#009EDC" stroke-width="1.36"/>
<path d="M79.9026 78.5415C91.9203 78.5415 101.663 68.7992 101.663 56.7815C101.663 44.7638 91.9203 35.0215 79.9026 35.0215C67.8849 35.0215 58.1426 44.7638 58.1426 56.7815C58.1426 68.7992 67.8849 78.5415 79.9026 78.5415Z" stroke="#009EDC" stroke-width="1.36"/>
<path d="M79.8997 67.9996C86.0963 67.9996 91.1197 62.9762 91.1197 56.7796C91.1197 50.5829 86.0963 45.5596 79.8997 45.5596C73.7031 45.5596 68.6797 50.5829 68.6797 56.7796C68.6797 62.9762 73.7031 67.9996 79.8997 67.9996Z" stroke="#009EDC" stroke-width="1.36"/>
<path d="M79.9005 1.36035V45.5604M79.9005 68.0004V112.2M40.8005 17.6804L72.0805 48.9604M87.7205 64.6004L119 95.8804M24.4805 56.7804H68.6805M91.1205 56.7804H135.32M40.8005 95.8804L72.0805 64.6004M87.7205 48.9604L119 17.6804" stroke="#009EDC" stroke-width="1.36"/>
<path d="M77.2112 70.4422C77.3472 70.1702 77.6192 69.0822 77.9592 69.4222C78.2992 69.7622 78.5032 69.4222 78.5032 69.4222C78.5032 69.4222 78.6732 69.5922 78.5712 69.9322C78.5032 70.2722 78.4012 70.6122 78.1972 70.6802C77.9932 70.7142 77.8232 70.8502 77.5512 70.8842C77.3472 70.9182 77.2112 70.4422 77.2112 70.4422ZM79.9992 70.0002C80.0672 69.9322 80.1692 70.2722 80.3392 70.2042C80.5092 70.1702 80.5772 70.5102 80.4072 70.5102C80.2372 70.5102 80.2372 70.7142 80.2372 70.8162C80.2372 70.9182 80.2372 71.1222 80.1012 71.2582C79.9652 71.3942 79.8632 71.2922 79.6932 71.2242C79.5232 71.1222 79.4552 71.1222 79.2172 71.1222C79.0132 71.1222 79.1832 71.4622 79.1832 71.4622C79.1832 71.4622 78.2992 71.4282 78.4692 71.2922C78.6392 71.1562 78.8092 71.1222 78.6732 71.0202C78.5372 70.9182 78.6732 70.8502 78.6732 70.6802C78.6732 70.5102 79.0812 70.5782 78.9792 70.4762C78.8432 70.3402 78.9792 69.8642 79.1832 70.1362L79.3192 69.8302C79.1832 69.6942 79.2852 69.6602 79.0132 69.5582C78.7752 69.4562 78.9792 68.9462 78.9792 68.9462L79.0132 68.6062C79.0812 68.1642 79.9312 68.1302 79.9992 68.5042C80.0332 68.8782 79.9992 69.1502 79.9992 69.1502L80.2372 69.2522C80.2372 69.2522 80.2032 69.5242 79.9992 69.5242C79.7952 69.5242 79.9992 69.6602 79.8632 69.7962L79.9992 70.0002ZM111.313 49.3282C111.075 49.5662 110.565 49.6682 110.565 49.6682L110.395 50.3142L110.123 50.5522C110.123 50.5522 110.191 50.7222 110.123 51.1302C110.055 51.5382 109.545 51.7762 109.545 51.7762L109.307 52.0482C109.307 52.0482 107.947 52.1162 107.777 52.0482C107.267 51.8102 107.607 51.1302 107.947 51.1982C108.287 51.2662 107.879 50.2122 107.879 50.2122L108.321 50.1442C108.321 50.1442 108.389 49.1242 108.559 49.1242C108.729 49.1242 108.491 48.7842 108.287 48.6142C108.049 48.4442 107.777 47.8662 107.539 47.9342C107.301 48.0022 106.417 47.9342 106.417 47.9342L106.247 48.2742L105.635 48.3762C105.635 48.3762 105.703 48.8182 105.567 48.9542C105.227 49.3622 103.935 50.2122 104.479 48.7842L104.649 48.4442V47.9342L103.629 47.8662C103.629 47.8662 103.119 47.6962 103.119 47.4582C103.119 47.2202 103.051 46.9482 103.051 46.9482L101.861 45.6222L100.433 45.4522L100.331 45.1802L99.4812 45.0782C98.4612 44.5682 97.5432 45.0102 97.7132 45.8942C97.8832 46.7442 98.1552 47.0842 97.6112 47.0842C97.0332 47.0842 96.9312 46.6422 96.9312 46.6422C96.9312 46.6422 96.4892 46.4722 96.4892 46.7102C96.4892 46.9482 96.3192 47.3902 96.4892 47.6282C96.6592 47.8662 96.2512 48.2062 96.0812 48.0362C95.9112 47.8662 95.4692 47.3562 95.5712 47.1862C95.6732 47.0162 94.7892 45.9282 95.6732 45.7582C96.5912 45.5882 95.6052 45.0782 95.9452 44.9422L96.3872 44.7042H96.8292L97.1012 44.4662L96.3532 44.3642L95.9112 44.2962L95.0612 44.2282C94.2112 44.8062 94.0412 45.4862 94.0412 45.4862C93.5992 46.3362 92.5112 45.1462 92.9192 44.6702C93.3272 44.1942 91.6612 44.6022 91.3892 44.8402C91.1172 45.0782 90.2672 44.9422 90.2672 44.9422C90.0972 45.4522 89.3152 44.8742 89.5192 44.5342C89.7572 44.1942 89.7572 43.9562 89.7572 43.9562L89.4852 43.8882L89.1452 44.5342C88.3632 44.5342 88.1252 44.9762 88.2952 45.2822C88.4652 45.5542 88.0572 45.2142 87.9552 45.6222C87.8532 46.0302 88.0232 46.0302 88.3632 46.2002C88.7032 46.3702 88.1932 46.3702 88.4312 46.6422C88.6692 46.9142 89.3492 46.6422 88.9412 47.0502C88.5332 47.4582 87.7512 47.2882 87.7512 47.2882C87.6832 47.7982 86.6292 47.6962 86.4932 47.5262C86.3912 47.3562 85.5412 46.3362 85.5412 46.3362L84.4532 46.2682C84.3512 45.4522 84.9632 45.8602 85.2012 45.2482C85.4392 44.6022 85.5412 43.5822 85.5412 43.5822C85.5412 43.5822 84.6232 43.5142 84.5892 43.8202C84.5212 44.0922 83.9772 44.2962 83.9772 44.2962C83.9772 44.2962 83.5352 44.4662 83.7052 44.7042C83.8752 44.9422 83.3652 45.0442 83.3652 45.0442C83.3652 45.0442 83.4672 45.4182 83.2972 45.5542C82.8552 46.0302 81.6992 45.6222 81.5292 45.4522L80.8492 45.1802L80.1692 44.7382L79.3872 45.0782L79.1492 45.3162H78.2992L78.2312 45.9962L79.7612 46.1662L79.8632 47.5942L79.2512 47.3902H78.8432L78.6732 47.0502L78.3332 46.9822V48.2402L78.6732 48.5122L78.9452 48.7842L79.5232 48.8522L79.6252 49.5322L81.0532 49.6002L81.2232 49.8722L82.0732 49.9402L83.7052 51.6062L83.6032 52.1162L83.3312 52.2862C83.4332 52.6942 82.5832 52.4562 82.5832 52.4562V52.7962L82.9912 52.8642L83.3992 53.1022L83.9772 52.1162C84.5892 51.7082 84.8952 52.2862 84.9292 52.6262C84.9972 52.9662 84.6572 52.8982 84.6572 52.8982V53.7142L84.9972 53.8162C85.5752 54.4962 84.7592 54.9042 84.7592 54.9042L84.5892 55.4822C84.4192 55.9922 83.8072 55.8902 83.8072 55.8902L83.5692 56.2302L82.8892 56.4002L84.2152 56.5702C84.3512 56.0942 84.6912 55.9922 84.8612 56.2302C85.0312 56.4682 85.0312 56.8762 85.0312 56.8762L85.3712 56.9442L85.3032 57.5902L85.6432 57.6922V59.5282L86.0512 59.9702C86.7312 59.6982 86.7312 60.1402 86.3912 60.3782C86.0512 60.6162 86.2892 61.6362 86.2892 61.6362L86.0172 61.9082V62.3842L85.6772 62.6222V63.2682C85.0992 62.9962 84.4192 63.0982 84.2492 63.2682C83.7392 62.9282 82.6512 63.0302 82.6512 63.3362C82.9912 63.7782 82.2432 63.9142 82.2432 63.9142L81.8352 64.3562C82.1072 64.9342 81.5632 65.0022 81.5632 65.0022V66.0902L80.8832 66.7362L80.9512 68.2322C80.9512 68.6402 81.8012 68.6742 81.9712 68.4702C82.1412 68.2322 82.8212 68.9462 82.8212 68.9462H83.3312L83.4332 67.9262L83.0932 67.7562V66.0902L83.6712 65.4442C84.3512 65.2062 84.1132 66.9402 84.1132 67.1102C84.1812 67.7562 84.4532 67.6882 84.7252 67.5522C85.3032 67.3142 84.8272 68.1982 84.3852 68.1302C83.9432 68.0622 84.2152 68.7082 84.2152 68.7082L84.4872 68.8102L83.9772 69.2182L83.5352 69.7282L82.9572 69.5582L82.2772 69.4902L82.0392 69.0822L81.6312 69.0142L81.5632 69.8302L81.2912 70.1702L80.6112 70.8502C81.5292 70.8502 80.5092 71.4962 80.2712 71.4962C80.7812 71.6662 80.2032 72.1762 78.9112 71.7682V72.1762L78.4692 72.2442L78.8772 72.6862L79.3192 72.7542L79.1492 73.7402C79.1492 74.4882 77.2792 73.9782 77.1092 73.8082L77.0412 74.8282L76.7012 74.8962L76.7692 75.5762L76.7012 76.5622L77.3132 76.4602V76.8682L78.8432 76.9362L81.0532 74.5902L82.3452 74.3182C82.4472 73.7402 83.0252 74.4202 83.0252 74.4202C83.6032 74.3522 83.7052 74.7602 83.7052 74.7602L84.4532 74.8622C85.0652 75.0322 84.6912 75.1002 84.7252 75.3382C84.7932 75.6782 85.0652 75.5762 85.0652 75.5762L85.1672 74.8282L85.5072 74.8962L85.1672 74.4882L84.5552 74.2162L83.8752 73.9442C83.4332 73.2982 83.9772 73.4342 84.4532 73.5022H85.2012C85.2012 73.5022 86.0512 74.6582 86.0512 74.9302C86.0512 75.2022 86.4592 75.2702 86.4592 75.2702L86.9692 75.2022L87.1392 75.6102H87.6492L87.8192 75.9502H88.8392L88.9072 75.4402L87.9552 75.2702L87.8872 74.6922L87.2072 74.5222C86.9692 73.5362 87.3772 73.2642 87.6492 73.7062L87.9892 73.7742L87.8872 72.9242L88.2952 72.8222L88.1932 71.6322L87.8532 71.5302V71.1222L89.2812 71.1902C89.1792 70.4422 89.3492 70.1022 89.3492 70.1022H89.7572L89.8252 70.3742L91.5592 70.5442L92.7832 69.1502C92.7152 69.0482 92.9192 68.9802 92.7832 68.8442C92.6132 68.6742 92.3752 68.8442 92.1032 68.6742C91.8312 68.5042 92.1032 67.5182 92.0352 67.3142C91.9672 67.0762 92.9872 66.7362 92.8172 67.2462C92.6472 67.7562 92.8172 67.9942 92.8172 67.9942C93.5652 67.3142 94.1772 68.0622 94.1092 68.2322C94.0412 68.4022 94.5172 68.5722 94.7892 68.4022C95.0612 68.2322 95.4012 68.9122 95.2992 69.2522C95.1972 69.5922 94.1772 69.5242 94.1092 69.1842C94.0412 68.8442 93.8712 68.9462 93.7692 69.1162C93.6672 69.2862 93.1572 69.3882 92.8512 69.2182C92.7832 69.1842 92.7832 69.1502 92.7492 69.1162L91.5252 70.5102H91.5932C92.2732 70.9182 91.9332 71.4282 91.6952 71.5302C91.4572 71.6322 91.0832 71.6322 91.0832 71.6322L90.9812 71.8702L89.5192 71.9722L89.4172 72.5502C88.6692 72.4482 88.3972 73.2302 88.5672 73.6382C88.7372 74.0462 88.5672 74.3862 88.5672 74.3862L89.1792 74.6582L89.9612 74.4202C90.0632 73.8422 90.5732 73.7402 91.0492 73.4002C91.4912 73.0602 92.2392 74.0462 92.0012 74.4882C91.7632 74.9302 91.7632 75.1342 91.7632 75.1342L91.8312 75.6442L91.2532 75.8822L90.8112 76.1202L90.7432 76.3922H89.2132L88.9412 76.6642L88.1932 76.7322L87.9552 77.0722L87.4452 77.1402C87.4452 77.1402 86.5952 77.5482 86.9352 77.9902C87.2752 78.4662 85.5072 78.3982 85.1332 77.7522C85.0312 78.3302 84.3852 77.8202 84.3852 77.8202L83.7732 77.6502L83.7052 76.8002C83.6032 76.2222 82.5152 76.2222 82.5832 76.6302C82.6512 77.0382 80.5432 76.8002 80.5432 76.8002L79.8632 77.1402L79.2512 77.5142L79.1832 77.7862L78.1632 77.8882L77.7212 78.1262L77.5512 77.7862H77.1092L76.6672 78.4322C75.4772 78.5002 74.3552 79.1802 74.4572 79.4522C74.5592 79.7242 74.0152 80.0302 74.0152 80.0302L73.5052 80.2002L73.1652 80.7102L72.4852 80.9482L72.3832 82.1382L72.0432 82.3762V82.8862L71.6352 82.9882V83.2602L71.0572 83.3282L71.3972 84.1782L71.8392 84.4162C72.6212 84.5182 72.2812 85.5042 72.2812 85.5042L72.7232 85.5722L72.9612 86.2182L73.4032 87.1362C73.5732 87.8162 74.0832 87.6462 74.3212 87.6122C74.5592 87.5442 74.7632 88.2922 74.7632 88.2922L77.0072 88.3602C77.0072 88.3602 76.9052 88.5982 77.2792 88.7002C77.6872 88.8022 80.2712 88.9382 80.3732 88.7682C80.2712 88.2582 81.8012 88.1222 82.4132 88.5982C83.0252 89.0402 83.8752 88.7682 83.8752 88.7682L84.7252 89.7882L85.3032 91.0462L86.2552 91.3182L86.9352 91.4882L87.1732 92.4742L87.6832 92.5422L87.8532 93.1882C88.4652 93.6302 87.6832 94.6162 87.6832 94.6162V95.8742L88.1252 96.1122L88.0572 96.5882L88.8052 97.3362L89.6552 97.4042L91.7972 99.6822L93.4972 100.192L93.7692 101.11L94.2112 101.042L94.5512 100.77L95.9112 100.702L96.5912 100.056L97.3392 99.9542L103.629 94.6162L103.051 94.2762V93.0182C104.071 92.2702 104.139 90.9442 103.153 90.8422C102.439 90.7402 102.745 89.9922 103.425 89.8562L103.833 89.6862V89.1762L105.125 87.9862V87.0682L102.303 84.7222C101.045 84.2802 102.303 81.5262 103.153 81.5602C104.003 81.6282 103.085 77.3102 103.085 77.3102L102.643 77.0722L102.745 75.6782H102.133L101.113 77.0042L100.841 77.9222C100.739 79.1122 97.2372 78.9082 97.0672 78.7382C96.8972 78.5682 95.7072 78.0582 95.7072 78.0582C95.7072 78.0582 94.7892 77.3102 94.6192 77.5482C94.4492 77.7862 93.6672 77.2762 93.6672 77.4462C93.6672 77.6162 92.9192 77.0382 92.9192 77.0382L91.7972 76.6302L92.6472 76.4602L92.4772 75.7802L93.9392 76.5282C94.1092 76.7662 94.8572 76.6982 94.8572 76.6982L95.0952 76.9702C95.0952 76.9702 95.5372 76.9022 95.8432 77.2422C96.1152 77.5822 97.6112 77.3102 97.6112 77.3102L98.0192 77.6502L98.6312 77.8882L100.399 77.9562L100.467 76.8682L100.807 76.5282L100.739 75.8482L101.147 75.5082V74.9302L101.487 74.8282L101.555 73.5702L101.827 73.5022V70.7482L100.977 69.9322C100.909 70.2042 100.025 70.2042 100.025 70.2042C100.025 70.2042 99.7872 70.6122 99.6172 70.6122C99.4472 70.6122 99.8552 71.1222 99.7192 71.4622C99.6172 71.8022 99.1412 71.8022 99.1412 71.8022L98.2912 72.0402L98.0532 72.3122H97.1352L97.0332 71.5642L98.0532 71.2922L98.6312 71.0202L98.9032 70.4422C98.9712 69.8642 99.6512 69.9322 99.6512 69.9322C99.6512 69.9322 100.943 68.8442 101.011 68.3342C101.079 67.8242 101.521 66.3962 102.303 66.3962H103.765C104.343 66.1582 104.173 65.4102 104.173 65.4102L104.921 65.3082L105.023 65.7162C105.023 65.7162 106.043 65.8182 106.145 65.6482C106.247 65.4782 106.485 65.0702 106.757 65.2402C107.029 65.4102 107.947 64.8322 107.947 64.8322C108.015 64.4242 109.409 64.5942 109.409 64.5942L109.579 64.0842C109.579 64.0842 108.627 62.7582 108.457 62.7582C108.287 62.7582 107.369 61.9422 107.267 62.2482C106.349 62.0102 106.417 60.7522 106.417 60.7522L106.077 59.9362C106.077 59.4602 105.227 58.5082 105.057 58.6102C104.207 57.9642 104.819 57.2502 105.057 57.1822C105.295 57.1142 105.839 56.3322 105.839 56.3322L106.111 55.5162L107.063 55.2442L107.165 54.4962L106.655 54.4282C106.655 54.4282 107.233 53.4082 107.505 53.4082C107.777 53.4082 109.647 53.4082 109.817 53.3062C109.987 53.2042 110.327 52.2862 110.327 52.1162C110.327 51.9462 110.769 51.8782 110.939 51.8442C111.109 51.7762 111.517 51.3342 111.619 51.0962C111.925 50.5182 111.551 49.0902 111.313 49.3282ZM126.987 67.6542C126.953 67.5522 126.919 67.4502 126.817 67.4162C126.579 67.3142 126.137 67.4842 125.933 67.6202L126.137 67.8922C126.341 67.7562 126.647 67.6882 126.681 67.7222V67.6882L126.987 67.6542ZM128.449 74.4882L128.109 74.4542C128.075 74.7262 128.143 75.0662 128.415 75.1002L128.483 74.7602C128.483 74.7602 128.449 74.6242 128.449 74.4882ZM129.707 73.1282C129.809 73.4682 129.911 73.8082 129.911 73.8422L130.217 73.7062C130.217 73.7062 130.081 73.3662 130.013 73.0262L129.707 73.1282ZM130.455 72.8562V72.7882C130.455 72.6862 130.421 72.5502 130.353 72.4142L130.047 72.5842C130.081 72.6522 130.081 72.7542 130.115 72.8222C130.115 72.9242 130.149 73.0262 130.217 73.0942C130.285 73.1282 130.353 73.1622 130.455 73.1282L130.387 72.7882C130.387 72.8222 130.421 72.8222 130.455 72.8562ZM127.565 75.3042C127.803 75.1682 128.109 74.8622 128.075 75.5082C128.041 76.1542 127.769 75.9502 127.565 76.1542C127.361 76.3582 127.225 75.5082 127.565 75.3042ZM113.931 79.7242L113.965 79.2142L114.509 79.2822L114.475 79.7582L113.931 79.7242ZM113.965 80.8462C113.897 80.5402 113.557 80.4382 113.523 80.4382L113.421 80.7782C113.455 80.7782 113.489 80.8122 113.523 80.8462L113.591 81.1522C113.557 81.1862 113.523 81.2202 113.523 81.2542L113.761 81.4922C113.931 81.2202 113.999 81.0502 113.965 80.8462ZM71.7032 91.4542L71.3632 91.7602L71.1932 91.8962L71.3632 92.0322L71.7712 92.3042L71.9752 92.0322L71.7372 91.8622L71.9072 91.7262L71.7032 91.4542ZM75.7152 95.5682L75.5792 95.8742L75.9192 96.0442L75.8172 96.1802L76.0552 96.4182L76.4972 95.9762L76.2932 95.8402L75.7152 95.5682ZM60.1092 21.7882L60.4492 22.1282L60.2112 22.3662L59.8712 22.0262L60.1092 21.7882ZM70.3772 32.4982L70.7172 32.7702L70.5132 33.0422L70.1732 32.7702L70.3772 32.4982ZM69.0852 32.7362L69.1532 33.3822H70.0032C70.3432 33.3822 69.7312 32.9742 69.7312 32.9742C69.7312 32.9742 69.0512 33.0422 69.0852 32.7362ZM87.7172 16.7562L87.1392 16.6882L87.1052 17.0282L87.5812 17.0622L87.9552 17.6402L88.2272 17.4362L87.8532 16.8242L87.7852 16.7562H87.7172ZM89.2472 4.72016L89.0772 5.02616L89.5192 5.29816L89.6212 5.36616L89.6892 5.29816L90.3352 4.89016L90.1312 4.61816L89.6212 4.95816L89.2472 4.72016ZM92.2732 6.35216L92.0012 6.04616L91.7632 6.31816L92.2732 6.82816L92.3752 6.72616L92.9532 6.25016L92.7152 5.97816L92.2732 6.35216ZM73.5052 18.2862C73.4712 18.0822 74.6272 18.0482 74.7972 18.2182C74.9672 18.3882 74.8652 18.6942 75.3752 18.6942C75.8852 18.6942 75.6472 19.0342 75.6132 19.2042C75.5452 19.3742 75.0012 19.3062 74.9332 19.1362C74.8652 18.9662 74.0152 18.8982 74.0152 18.8982C74.0152 18.8982 73.5732 18.5582 73.5052 18.2862ZM79.9992 17.6402C80.8832 17.9122 81.1892 17.7082 81.2572 17.4702C81.3252 17.2322 81.3592 17.1982 81.6992 17.1302C82.0392 17.0622 81.6312 16.3822 81.2912 16.4502C80.9512 16.5182 80.6112 16.3482 80.5432 16.0422C80.4752 15.7702 79.9312 15.0222 79.8632 15.6002C79.7952 16.1782 79.4552 16.1782 79.5232 16.5862C79.6252 16.9602 79.7952 17.5722 79.9992 17.6402ZM85.6092 7.95016C85.4732 7.44016 84.7592 8.59616 85.5072 8.80016C86.2552 9.03816 86.9692 8.80016 86.9692 8.80016L87.1392 8.46016L89.9612 8.52816C90.1992 8.29016 90.3012 7.95016 90.3012 7.95016C90.3012 7.95016 90.9812 7.71216 91.2532 7.84816C91.5252 7.95016 91.3212 7.03216 91.0152 7.16816C90.7432 7.27016 90.1652 7.23616 90.1652 7.23616H89.1452C89.0772 6.82816 88.1932 6.99816 88.1252 7.23616C88.0912 7.44016 87.7512 7.50816 87.7512 7.50816L86.4592 7.61016C86.3232 7.95016 85.6772 8.18816 85.6092 7.95016ZM85.7112 10.7722L84.9632 10.0242V9.37816L84.7252 9.14016L84.4872 8.32416L83.7392 8.08616L82.9912 8.35816L82.2092 8.86816L81.3592 8.97016L80.9172 9.48016L82.7192 9.65016L83.0592 10.2282L84.3512 10.3302L85.2012 11.1802C85.9832 11.5202 86.1532 11.1802 85.7112 10.7722ZM88.3292 16.2802L88.5672 15.7362L88.8732 15.9062L88.6352 16.4162L88.3292 16.2802ZM105.227 15.7022C105.125 15.2602 106.349 14.8522 106.655 15.1922C106.927 15.5322 107.743 15.6002 107.845 17.3002C107.879 17.9122 106.825 16.6542 106.825 16.6542L105.975 16.3822C105.499 16.2802 105.261 16.0082 105.227 15.7022ZM99.2772 17.1982C99.1072 17.7082 99.0392 18.3882 98.7672 18.3882C98.4952 18.3882 98.5972 19.1362 98.5972 19.1362C98.5972 19.1362 99.3452 19.1362 99.5492 19.2042C99.7872 19.2722 99.7872 19.8502 99.7872 19.8502C100.637 19.7822 100.977 20.9382 100.875 21.2442C100.773 21.5162 101.215 21.5162 101.215 21.5162C101.215 21.5162 101.215 22.4342 101.113 22.6722C101.011 22.9102 101.861 23.0802 102.065 23.4202C102.303 23.7602 101.963 24.9162 101.793 24.9842C101.623 25.0522 102.235 25.2222 102.201 25.4942C102.133 25.7662 102.371 25.4942 102.439 25.9702C102.507 26.4122 102.609 27.3982 102.609 27.3982L103.391 27.4662C103.493 26.7182 104.955 26.6842 105.193 26.7862C106.145 27.1262 106.893 28.6222 106.893 28.9622C106.893 29.3022 106.281 29.3702 106.281 29.3702L106.383 31.0362C107.335 31.3082 108.151 32.7022 108.015 32.9402C107.913 33.1782 108.695 33.1102 108.695 33.1102C108.797 32.0902 109.783 32.4302 109.817 32.7702C109.885 33.1102 110.055 33.8582 110.055 33.8582L110.327 34.3682L110.735 34.7762L111.347 34.7082L111.517 35.0482L112.265 35.1502C112.265 35.1502 112.877 35.8302 112.945 36.0002C113.013 36.1702 113.863 36.1022 114.067 36.1702C114.305 36.2382 114.645 36.4082 114.679 36.6802C114.747 36.9522 115.087 37.4282 115.087 37.4282C115.087 37.4282 115.767 37.5982 115.835 37.8362C115.903 38.0742 116.175 38.5842 116.175 38.5842L116.753 39.0602L116.821 39.5702L117.433 39.6382L117.603 40.3182L118.623 40.2502L119.201 39.8422C119.949 39.4342 120.459 38.9242 120.493 38.6862C120.561 38.4482 120.663 37.5982 121.241 37.7682C121.819 37.9382 121.411 36.5102 121.411 36.5102C121.411 36.5102 120.629 35.9322 120.663 35.6602C120.731 35.3882 119.881 34.8102 119.915 34.5722C119.983 34.3342 119.167 33.8922 119.235 33.6542C119.303 33.4162 118.827 32.8042 118.827 32.8042L117.977 31.9882L117.875 31.4782L117.195 31.4102L115.835 29.7442L115.903 29.2682L115.495 29.2002V28.5542L115.087 28.3162L114.475 28.2482L113.217 26.8882L113.115 26.2422H112.503L112.605 25.0522C113.013 24.5422 112.775 23.5562 112.775 23.5562C112.775 23.5562 111.993 23.9642 111.585 23.7942C111.177 23.6242 111.755 23.2162 111.755 23.2162V22.7742L111.415 22.4342C111.415 22.4342 110.463 22.5362 110.395 22.3662C110.327 22.1962 110.157 21.4482 110.157 21.4482L110.089 20.4622L109.681 20.2922L109.613 19.9522L109.001 20.0202V19.3402L108.661 19.2382L108.321 19.0682L108.253 18.3882L106.995 18.3202L106.587 17.7422L106.145 17.0622L104.717 16.9602L104.377 16.6202L103.799 16.5182L103.391 16.3482L103.221 16.6202L102.133 16.6882L102.065 17.0282C101.589 17.2662 99.3452 17.0282 99.2772 17.1982ZM88.8732 16.8582C88.9752 17.0282 89.6552 17.1982 89.6552 17.1982C90.0972 17.1982 90.4032 17.5382 90.4032 17.7082C90.4032 17.8782 91.0152 17.8102 91.0152 17.8102L91.0832 17.4022L90.6412 16.8242L90.2332 16.5522C90.2332 16.5522 89.6212 16.4842 89.6212 16.3142C89.6212 16.1782 88.9752 16.6882 88.8732 16.8582ZM88.8732 18.7962L88.4312 18.6942V19.2042L89.0432 19.2722L88.8732 18.7962ZM95.1632 25.1202V24.6782C95.1632 24.6782 95.0952 24.2362 94.8232 24.2362C94.5512 24.2362 94.0412 23.8962 94.1432 23.6582C94.2452 23.4202 93.1912 23.1822 93.1912 23.1822C93.1912 23.1822 92.2392 22.2642 92.5792 22.3662C92.9192 22.4682 92.7492 21.9582 92.7492 21.9582C92.7492 21.9582 92.0692 22.0602 91.8992 22.0262C91.7292 21.9582 91.7972 21.4482 91.7972 21.4482C91.7972 21.4482 91.1172 21.2782 91.1172 21.4482C91.1172 21.6182 91.3552 21.6182 91.4572 21.9582C91.5592 22.2982 91.5252 22.8762 92.0352 22.9782C92.5452 23.0802 92.6472 23.2162 92.7152 23.4542C92.7832 23.6922 93.3952 23.7262 93.3952 23.7262L93.8372 23.9642L95.1632 25.1202ZM95.6052 26.6502C95.5372 26.4122 95.4352 25.6302 95.7752 25.6642C96.1152 25.7322 95.8772 25.6642 96.2852 25.8342C96.6932 26.0042 96.7272 25.5622 96.7272 25.5622H97.3392L98.1212 26.2082L98.0192 26.7182L97.4412 26.7862C97.1692 26.3442 96.5912 26.5142 96.6932 26.8882C96.7952 27.2962 96.4212 28.0442 96.1832 28.0782C95.9452 28.1462 95.2312 28.1462 95.2652 27.8062C95.3672 27.4662 95.6052 26.6502 95.6052 26.6502ZM104.921 34.4702L105.329 33.2122C104.751 33.1102 104.887 32.4642 104.887 32.4642C104.819 31.9542 104.037 31.3762 103.765 31.5462C103.493 31.7162 103.595 30.3562 103.595 30.3562C103.595 30.3562 104.105 30.0162 104.343 30.1862C104.581 30.3562 102.405 27.3302 101.963 27.6022C101.521 27.8742 100.501 27.3302 100.535 26.7862C100.603 26.2762 98.4952 24.5422 98.4952 24.5422C98.4952 24.5422 97.8152 24.1002 97.7132 24.4402C97.6112 24.7802 97.3732 25.0182 97.7132 25.1882C98.0532 25.3582 97.9852 24.9162 98.3932 25.2902C98.8012 25.6982 99.5152 26.2082 99.2432 26.5482C98.9712 26.8882 98.6312 27.0242 98.6312 27.0242L99.0392 27.5002H99.6512L99.7532 28.4862C99.7532 28.4862 100.433 28.8262 100.603 29.2342C100.773 29.6422 100.773 29.8802 100.603 30.0842C100.433 30.3222 100.093 30.7302 100.161 31.1042C100.229 31.5122 100.671 31.6822 100.671 31.6822L101.113 31.7502L101.453 31.9202V32.6682C101.895 32.5662 102.643 33.1782 102.575 33.5862C102.507 33.9942 102.677 33.7562 103.255 34.1642C103.833 34.5722 103.663 34.6402 104.037 34.9122C104.411 35.1502 104.751 34.9802 104.921 34.4702ZM91.9332 41.8142C91.9332 41.9842 91.8312 42.2222 92.1712 42.2902C92.5112 42.3582 93.1232 42.0522 93.1912 42.3922C93.2592 42.7322 93.2592 42.9702 93.7012 43.1402C94.1432 43.3102 94.4492 43.3782 94.7892 43.3782C95.1292 43.3782 95.8772 43.2762 95.8772 43.2762C95.8772 43.2762 96.6932 43.4122 96.8292 43.5482C97.4412 44.1942 97.8492 44.3642 98.0192 44.0582C98.1892 43.7862 97.9512 43.1402 97.9172 42.9022C97.8492 42.6642 97.0672 41.5762 96.7952 41.8142C96.5232 42.0522 96.4552 41.8142 95.9452 41.9842C95.4352 42.1542 94.3472 42.0522 94.3132 41.8142C94.2452 41.5762 93.4632 41.4742 93.4632 41.2362C93.4632 40.9982 92.8852 40.7262 92.9532 41.0662C93.0212 41.4062 92.5452 41.5762 92.4432 41.4742C92.2732 41.3382 91.9332 41.8142 91.9332 41.8142ZM89.1112 42.4262L89.0432 42.8342L89.6552 42.9022C89.6552 42.9022 89.9272 43.1402 89.9272 43.3102C89.9272 43.4802 90.3352 43.6502 90.5392 43.6502C90.7772 43.6502 91.3892 43.1742 91.3892 43.1742C91.3892 43.1742 91.6612 42.3582 91.4572 42.4262C91.2192 42.4942 90.7772 42.8342 90.7092 42.4942C90.6412 42.1542 89.9612 42.3242 89.9612 42.3242L89.1112 42.4262ZM86.1872 43.0722L86.3572 43.0382L86.4592 43.3442L86.2892 43.4122L86.1872 43.0722ZM86.3912 42.5282L86.7312 42.4602L86.8332 42.9702L86.5272 43.0382L86.3912 42.5282ZM87.3432 42.5962L87.3772 42.9362L88.6012 42.9022V42.5622L87.3432 42.5962ZM98.3592 42.3242L98.9372 42.2562L98.9712 42.5962L98.3932 42.6642L98.3592 42.3242ZM99.8552 43.5822L100.025 43.1742L100.331 43.3102L100.161 43.7182L99.8552 43.5822ZM104.785 37.8362L105.363 37.8022L105.397 38.1422L104.819 38.1762L104.785 37.8362ZM105.737 38.1762H106.077V38.4482H105.737V38.1762ZM106.757 33.3482L106.417 33.3822L106.349 32.8722L106.689 32.8382L106.757 33.3482ZM106.417 40.4882H106.757V40.8962H106.417V40.4882ZM107.165 40.6922L107.471 40.8282L107.301 41.2022L106.995 41.0322L107.165 40.6922ZM105.499 36.1702C105.839 36.1702 105.397 37.4962 106.281 37.3602C107.199 37.2582 106.349 37.7682 107.029 37.8022C107.709 37.8702 107.539 37.2922 107.777 36.8842C108.015 36.4762 107.879 36.2382 107.505 36.1362C107.097 36.0342 107.097 36.0342 106.995 35.5582C106.893 35.1162 106.417 34.9802 106.417 34.9802L106.247 34.3002L105.499 34.7422L104.751 35.7282C104.751 36.5442 105.159 36.1702 105.499 36.1702ZM107.709 39.2982C108.151 39.0602 109.137 39.0602 109.069 38.7202C109.001 38.3802 109.647 38.2782 109.647 38.2782L109.817 38.9582L110.327 39.2982L110.395 39.9442C110.395 39.9442 110.565 39.8422 109.953 40.0122C109.341 40.1822 109.715 40.4542 109.715 40.4542L108.355 40.5222L108.185 39.9442L107.709 39.2982ZM100.399 44.0922C100.671 44.0242 101.351 43.9902 101.487 44.1602C101.589 44.3302 101.079 44.5682 101.079 44.5682L100.399 44.6702C100.195 44.3982 100.127 44.1602 100.399 44.0922ZM104.037 43.5822C104.343 43.8882 102.337 43.8202 102.337 43.5822C102.337 43.3442 102.507 42.5622 103.017 42.7322C103.527 42.9022 103.595 41.7122 103.595 41.7122C103.595 41.7122 103.153 41.7802 103.527 41.5422C103.935 41.3042 103.527 40.9642 103.357 40.7942C103.187 40.6242 103.017 40.3182 103.017 40.3182H103.799C104.139 40.0802 104.241 38.9922 104.241 38.9922C104.921 39.2302 105.261 38.7542 105.261 38.7542C105.261 38.7542 105.363 39.0942 105.601 39.4002C105.839 39.6722 105.023 39.8082 105.329 39.9782C105.601 40.1482 105.737 40.6582 105.601 40.8282C105.499 40.9982 104.853 40.8962 104.853 40.6582C104.853 40.4202 104.615 40.9302 104.853 41.2362C105.091 41.5082 104.581 41.9162 104.445 41.9162C104.343 41.9162 103.595 42.0182 104.207 42.3922C104.819 42.7322 105.499 42.5622 105.499 42.5622C105.499 42.5622 106.009 42.4942 106.179 42.8002C106.349 43.0722 106.111 43.1402 105.839 43.1402C105.567 43.1402 104.207 43.0382 104.207 43.0382C104.207 43.0382 103.867 43.4122 104.037 43.5822ZM110.633 37.0882C110.463 36.8502 110.293 36.6802 110.055 36.5782C109.817 36.4762 109.647 36.3402 109.443 36.3402C109.205 36.3402 109.001 36.1022 109.103 35.8302C109.205 35.5582 108.933 35.4222 108.933 35.1842C108.933 34.9462 109.103 34.9462 109.375 35.1162C109.647 35.2862 109.613 35.3542 109.817 35.6262C110.055 35.8982 110.157 36.2042 110.395 36.1362C110.633 36.0682 110.803 36.6462 111.007 36.4762C111.245 36.3062 111.177 36.8842 111.177 36.8842L110.633 37.0882ZM110.089 37.6322C110.259 37.8702 110.599 38.0402 110.599 38.2782C110.599 38.5162 110.497 38.6862 110.837 38.7202C111.177 38.7882 111.415 38.6522 111.517 38.9582C111.619 39.2302 111.619 39.7062 111.585 39.9442C111.517 40.1822 111.653 40.5222 111.925 40.5222C112.197 40.5222 112.265 40.5902 112.265 40.7602C112.265 40.9302 112.605 40.1142 112.605 40.1142C112.333 39.8762 112.095 39.3662 112.095 39.3662C112.095 39.3662 111.823 38.5502 111.823 38.4482C111.823 38.3462 111.415 38.2102 111.245 38.1762C111.075 38.1082 110.803 37.5982 110.803 37.5982L110.089 37.6322ZM113.761 46.9142L113.523 46.4042C113.523 46.4042 113.523 45.9622 113.625 45.7242C113.727 45.4862 113.387 45.2822 113.217 45.2142C113.047 45.1462 113.115 44.7042 113.047 44.4662C112.979 44.2282 112.605 44.0582 112.605 44.0582C112.605 44.0582 112.503 43.2082 112.503 43.0382C112.503 42.8682 111.993 42.6302 112.163 42.4602C112.333 42.2902 112.435 42.0522 112.605 41.9502C112.775 41.8482 112.435 41.0322 112.707 41.2022C112.979 41.3722 112.979 41.6782 113.115 41.8822C113.217 42.1202 113.047 42.9022 113.353 43.0722C113.625 43.2422 113.285 43.8202 113.761 43.8202C114.203 43.8202 113.931 44.9082 113.931 44.9082C113.931 44.9082 113.829 45.7242 114.101 45.7582C114.373 45.8262 114.203 47.1862 114.203 47.1862L113.761 46.9142ZM113.931 51.3002L114.101 50.9602L114.407 51.1302L114.237 51.4702L113.931 51.3002ZM114.305 49.4302L114.645 49.4642L114.611 49.9402L114.271 49.8722L114.305 49.4302ZM113.591 47.5262L113.149 47.4582L112.129 47.6282L111.551 48.7162C111.551 48.7162 111.823 48.8862 112.061 49.2942C112.299 49.7022 112.401 52.0482 111.721 52.4562C111.041 52.8642 111.789 52.6262 111.789 52.6262L111.687 53.8842C111.857 54.4622 112.129 54.1562 112.299 53.8842C112.469 53.6122 112.639 53.5442 112.877 53.2382C113.115 52.9662 113.455 52.4222 113.489 52.0482C113.557 51.6402 113.829 51.0282 113.659 50.8582C113.489 50.6882 113.829 49.8722 113.829 49.8722C113.829 49.8722 114.067 49.3962 113.829 48.9542C113.591 48.4782 113.897 47.9682 114.067 47.7642L113.591 47.5262ZM111.109 41.6782H110.259C110.259 41.6782 110.531 41.7802 109.749 41.0322C108.967 40.2842 108.457 41.2022 108.457 41.2022L107.539 41.3042V42.2222L107.097 42.3922L107.165 42.9702L107.777 42.9022C107.777 42.9022 107.777 43.5822 107.947 43.3102C108.117 43.0382 109.545 43.3782 109.409 44.0582C109.375 44.3302 110.837 45.0782 110.667 45.9962C111.415 46.0982 111.245 46.8462 111.245 46.8462L112.197 46.9482L112.469 46.3702L112.741 46.4382V46.0982L112.129 45.9282L112.027 44.0922L111.619 43.8202L111.721 43.3442L111.279 43.1742L111.517 42.4262L111.109 41.6782ZM109.001 55.7542L109.341 55.6182L109.205 55.3462L109.137 55.1422L108.967 55.2442L108.559 55.4822L108.185 55.2442L108.015 55.5502L108.457 55.8222L108.559 55.8902L108.627 55.8222L108.967 55.6522L109.001 55.7542ZM110.497 55.0062L111.109 55.1082L111.177 54.7682L110.565 54.6662L110.497 55.0062ZM109.341 62.3502C109.103 62.0102 110.463 61.4322 110.701 62.1122C110.939 62.7922 110.701 62.6902 110.463 62.6222C110.259 62.5542 109.681 62.7922 109.341 62.3502ZM103.493 73.4002H103.901V74.4882H103.493V73.4002ZM106.111 83.9062C106.009 84.3482 105.601 84.5862 105.363 84.4162C105.125 84.2462 105.635 84.6882 105.771 84.9262C105.873 85.1642 106.213 85.1642 106.349 84.9262C106.451 84.6882 106.417 84.1782 106.519 83.9402C106.621 83.7362 106.179 83.6682 106.111 83.9062ZM107.369 86.2182L107.879 86.4562L107.947 87.4422C108.627 88.1222 110.837 87.5442 110.837 87.3742C110.837 87.2042 110.735 85.2662 110.735 85.2662L110.463 84.9942L110.395 83.5662C110.633 82.8182 109.307 81.7302 109.205 81.9682C109.103 82.2062 108.355 82.0362 108.355 82.2402C108.355 82.4782 107.913 83.6002 108.117 84.0082C108.355 84.4162 107.947 84.4162 107.879 84.8242C107.811 85.1642 107.233 85.8442 107.369 86.2182ZM91.4572 73.9442L91.2872 73.6722L90.8112 73.9442L91.0152 74.2502L91.4572 73.9442ZM82.8212 75.0662C82.5492 75.3382 82.6172 75.5762 82.8212 75.7802ZM84.5892 76.4602L84.9632 75.8142L84.6572 75.7122L84.2492 75.9842L84.4192 76.1542L84.5892 76.4602ZM84.2492 58.5422C84.4872 59.0522 84.4192 59.8002 85.2692 60.3782C85.5412 60.5822 85.0992 60.9562 84.8272 60.7862C84.5552 60.6162 83.7392 59.3582 83.7392 59.3582V58.6102C83.9092 58.1682 84.1472 58.3382 84.2492 58.5422ZM81.2572 61.5342C81.3932 62.0442 81.3592 60.7182 81.5972 60.7862C81.8352 60.8542 81.6652 59.9702 81.6652 59.9702L80.6452 60.7182C81.1212 60.7862 81.1892 61.2962 81.2572 61.5342ZM78.1972 65.2062C78.1292 65.8862 77.2792 66.1242 77.2792 66.1242L76.6672 65.9542L76.3272 65.6822L76.2592 64.8662L76.7692 64.7982L76.8712 65.1382L78.1972 65.2062ZM77.2792 58.2702V57.4542L77.1772 56.7062L76.3272 56.2982L75.7152 56.8762L75.6132 57.6922V58.2022L75.0352 58.3042L74.9332 59.8682L74.4912 60.0382L74.5592 60.6162L73.3352 60.9562L73.2332 61.7042L72.7912 61.9762L72.5532 62.6562L72.2812 64.3222C72.2812 64.3222 72.7912 65.3082 73.0632 64.8322C73.3352 64.3902 73.8112 64.3222 73.8112 64.3222L73.9812 63.9142L75.5112 63.9822C75.6132 63.3362 76.3612 63.5742 76.3612 63.8802C76.3612 64.1522 76.9392 63.9482 76.9392 63.9482L77.3472 63.3022H77.9592L78.0272 62.6222L78.2992 62.4522V61.4322C79.2172 61.1602 79.0812 60.2762 79.0812 60.2762L79.3192 60.0042L79.2172 59.5962C78.7752 59.4262 78.9792 59.0182 79.2852 59.1202C79.5572 59.2222 78.8772 58.6102 78.8772 58.6102C78.5372 58.8822 78.2652 58.2702 78.2652 58.2702H77.2792ZM74.6952 55.9242L74.2532 56.0262L73.2332 57.0122L73.1652 57.4542L72.8932 57.8622L72.5532 58.7122L71.3632 58.7802L71.1252 59.8002L71.2952 60.6842L72.3152 61.0922L72.4172 60.5142L72.7572 60.3442L72.8252 59.7662L73.0632 59.3582L73.4032 58.9502L73.5052 58.5082L74.0832 58.1682L74.7632 58.0322L75.0352 57.6922L75.1372 57.0122L75.2052 56.5022L75.4432 56.1282L76.1232 55.8562V54.7682H75.7832L75.7152 54.3602L75.1032 54.2922L74.9672 54.5982H74.6952L74.6272 55.0402H74.9672L75.0352 55.4142L74.7972 55.6182L74.6952 55.9242ZM56.7432 62.8262C56.7432 62.9622 56.6412 63.0642 56.5052 63.0642C56.3692 63.0642 56.2672 62.9622 56.2672 62.8262C56.2672 62.6902 56.3692 62.5882 56.5052 62.5882C56.6412 62.5882 56.7432 62.6902 56.7432 62.8262ZM56.7092 69.3882C56.7092 69.5242 56.6072 69.6262 56.4712 69.6262C56.3352 69.6262 56.2332 69.5242 56.2332 69.3882C56.2332 69.2522 56.3352 69.1502 56.4712 69.1502C56.6072 69.1502 56.7092 69.2522 56.7092 69.3882ZM56.0972 68.4362C56.2332 68.4362 56.3352 68.3342 56.3352 68.1982C56.3352 68.0622 56.2332 67.9602 56.0972 67.9602C55.9612 67.9602 55.8592 68.0622 55.8592 68.1982C55.8592 68.3342 55.9612 68.4362 56.0972 68.4362ZM55.4172 69.7962L54.9412 69.8642V70.2722L55.4172 70.2042V69.7962ZM55.9272 66.8722L55.5192 66.9402L55.4852 67.3822L55.9272 67.4502V66.8722ZM55.8252 63.7782L55.8592 63.3702L55.0092 63.9482L54.4652 63.6082V64.9682L55.3492 66.1922L55.6892 65.3762L55.8252 64.8662L55.4172 64.6962L55.4852 63.8462L55.8252 63.7782ZM55.4852 58.9502L54.4652 58.8482L54.5332 59.2562H54.8052C55.2472 60.0722 54.8732 62.0102 54.8732 62.0102C54.8732 62.0102 54.1932 62.0782 54.0912 61.7382C53.9892 61.3982 53.6832 62.4862 53.9212 62.6562C54.1592 62.8262 54.9412 62.6562 55.0092 63.3022C55.0772 63.9482 55.5192 62.8942 55.5192 62.8942L55.4852 58.9502ZM78.2652 47.5942H77.6532L77.5512 46.3362L77.8912 46.0982V45.4522H75.9192L75.8512 44.8062L76.1232 44.6362L75.6812 44.4662L75.3412 44.9082L75.2392 45.4182L74.6612 45.5202V45.7922H74.2532V46.5402L72.6552 47.8662L69.4932 47.7642C69.2552 48.2742 68.7112 47.6962 68.7112 47.6962C68.6092 47.3562 67.7932 47.6962 67.7932 47.6962C67.7932 48.3422 66.7052 47.4242 66.7052 47.4242L64.7332 45.9962C63.6112 44.9762 61.9112 46.2682 61.8432 46.5742C61.9112 47.3902 60.5512 46.7442 60.5512 46.7442C60.5512 46.7442 59.4292 46.4042 59.2592 46.8462C59.0892 47.2882 58.3412 47.1862 58.3412 47.1862L58.2392 47.4242L57.6612 47.5262L57.5592 47.8662L56.8792 47.9682L58.5792 47.9002C59.0212 47.8322 58.4092 48.8862 58.1372 48.8182L57.3552 48.8862L57.0832 49.1582H56.3352L55.9952 49.6342L54.9072 49.5662C54.9072 49.5662 54.2952 50.0762 54.3292 50.2462C54.3972 50.4162 54.2272 50.9262 54.0572 50.9262C53.8872 50.9262 53.5472 51.4362 53.6492 51.6062C53.7512 51.7762 53.3092 52.3542 53.3092 52.3542L53.2072 52.9322L52.8672 53.0342V54.5982L52.1872 55.0742V55.7542L51.1672 56.8422L51.2692 57.7602L50.4192 58.6782L50.5212 59.5962L50.0112 59.7662L49.9092 60.1742L49.6712 61.3642L50.2492 61.4322C50.5212 61.3302 50.4872 62.1802 50.2492 62.2822C50.0112 62.3842 49.3992 62.6222 49.7392 62.8602C50.0792 63.0982 48.8212 63.0302 48.8212 62.6902C48.8212 62.3502 48.1412 62.0442 47.9712 62.1802C47.8012 62.2822 47.5292 61.6702 47.5292 61.6702C46.9172 61.0242 44.9792 61.7382 44.9792 61.7382L44.7072 62.6562C44.0952 62.7582 43.6872 63.8122 43.6872 63.8122C43.1772 63.9822 42.7692 64.6282 42.9392 64.7982C43.1092 64.9682 42.6672 65.0362 42.6672 65.0362V66.2942L42.3952 66.7022L42.4632 68.0622C42.8032 68.0622 42.7352 68.7082 42.7352 68.7082C42.1572 68.7762 42.2932 69.5242 42.2932 69.5242L41.1032 69.9322L40.8652 70.2722L39.4032 70.2042L38.9952 70.6122L38.5872 70.2042H35.7652L35.6632 69.9322L35.0852 69.8302L35.0172 69.1842L34.1672 69.2522L33.9972 69.5922L33.0792 69.6602C33.1472 70.2382 32.1612 71.0882 32.0592 70.8502C31.9572 70.6122 31.3112 70.0002 31.6172 69.8642C31.8892 69.7622 32.6372 69.6262 32.6372 69.6262V69.2182L30.5292 69.1502L30.2912 69.4902L29.4412 69.5582V70.4762L29.0332 70.5782C28.7612 70.7482 29.1012 71.3942 29.1012 71.3942C29.5092 71.8022 29.0332 72.4142 29.0332 72.4142C28.6932 72.7542 29.3052 73.4002 29.3052 73.4002C29.7472 73.5022 29.0332 73.8422 29.0332 73.8422C29.1352 74.4202 29.4752 74.5902 29.4752 74.5902C29.1352 75.1682 29.7132 75.4402 29.7132 75.4402L29.7812 76.4262L30.1892 76.6642V77.3102L30.4272 77.7182H31.3452L31.2772 76.2902C30.4952 75.3722 31.9572 75.1342 32.0252 75.4742C32.0932 75.8142 32.7052 75.9842 32.7052 75.9842C32.8072 76.8342 33.7932 77.3442 34.0652 76.4942C34.3372 75.6442 34.5752 76.1542 34.7452 76.5622C34.9152 76.9702 36.0032 77.9562 36.0032 77.9562H36.8532L36.9552 78.7722C37.9072 78.7042 38.2132 78.8402 38.5872 80.1322C38.9952 81.4582 40.0492 81.7982 40.0492 81.7982L40.8312 81.7302C40.8312 81.0502 41.6132 81.8322 41.6132 82.2062C41.6132 82.5462 43.1432 83.8722 43.1432 83.8722L44.6732 84.2122L46.1012 85.3682L47.1892 85.2662H47.6312C47.9032 84.2802 49.2632 85.3342 49.3992 85.6742C49.5012 86.0142 50.4192 86.5922 50.5212 86.3202C50.6232 86.0482 51.2692 86.2182 51.3712 87.0682C51.4732 87.9182 51.8812 87.7482 51.8812 87.7482L55.1112 87.6802L56.2332 86.6942L59.1232 86.6262C60.5852 86.5582 59.7012 84.5522 59.3952 84.5522C58.8852 84.1442 59.5652 82.4782 59.5652 82.4782L55.4512 78.6362C54.4992 78.6362 55.3492 77.2422 55.3492 77.2422C56.0972 76.7662 55.1792 76.0522 55.1792 76.0522C55.2812 75.3722 54.7712 74.5562 54.7712 74.5562C53.7512 73.8762 54.0232 72.5502 54.0232 72.5502V71.6322C53.1732 70.8162 54.3632 70.7142 54.3632 70.7142C54.7712 70.0342 54.0912 69.5242 54.0912 69.5242L54.0232 68.7762L53.1052 68.6742L53.0032 65.9882L50.9632 63.0642C50.5552 62.9622 50.8612 62.2482 50.8612 62.2482C51.3712 61.9762 50.7592 61.2622 50.7592 61.2622L50.6912 60.0042L51.8812 59.9022L52.1532 59.4602H52.7312L52.6632 57.9642C52.9352 57.2162 53.6152 57.6242 53.6152 57.6242L54.3972 57.6922L54.8392 56.8422L54.9412 56.1622L54.3292 56.0942C53.6492 55.6862 53.9892 54.1902 53.9892 54.1902C55.0772 52.5922 56.3012 53.5102 56.3012 53.5102L57.0832 53.4422C58.2732 54.2582 57.1852 55.7202 57.1852 55.7202C56.9472 56.0602 57.0832 57.1482 57.0832 57.1482L57.3552 58.9842L56.6072 59.6302C55.9952 59.9702 55.9952 60.7862 56.6752 60.9562C57.1172 61.0242 56.9472 62.1122 56.2672 61.3642C55.2472 61.3642 56.8452 62.2822 56.3692 62.0442C57.3892 62.5542 57.1512 61.6022 57.1512 61.6022L58.5112 60.5142C59.0212 60.1062 59.9392 61.3642 59.9392 61.5342C59.9392 61.7042 62.1832 61.6022 62.1832 61.6022C62.7952 62.0102 63.0332 63.0302 63.0332 63.0302C63.6452 62.2142 64.9712 62.9622 63.9852 63.4382C64.9032 64.0162 64.9032 64.5262 64.9032 64.5262C65.6512 64.2882 65.6512 64.8662 65.6512 65.0362C65.6512 65.2062 65.8892 64.1862 65.8892 64.1862C65.0392 63.5402 67.0112 63.3362 66.4672 64.4582L66.1272 64.9682L66.7052 65.4102L66.7732 66.7362C68.0312 66.6342 67.6912 65.0702 67.6912 65.0702L68.2692 64.9682C68.2692 64.4582 68.6772 64.7302 68.6772 64.7302C68.2692 62.7922 69.5952 62.4522 69.5952 62.4522C70.3432 62.2822 70.3772 60.7182 70.3772 60.7182C69.8672 60.4802 70.1392 59.6982 70.7172 60.3782C71.2952 61.0582 70.3772 58.9842 70.3772 58.9842L69.9352 58.5762L69.3232 58.5082L69.2552 57.8622H68.2352L68.0652 58.6782L67.6912 58.8482L67.5892 58.6102L67.4192 59.2562H66.3992L66.3312 58.5762L66.9432 58.4062L67.1812 58.0662L67.3512 57.1482H68.0992L69.0512 56.8762C69.1192 55.8902 69.6292 56.1282 69.6292 56.1282L70.4792 56.8082L70.5472 57.1482L70.2072 57.3182L70.1392 57.7942L70.3092 58.4402H70.7512C70.9212 57.5222 72.1112 57.5222 72.4512 58.1002L72.7912 57.2842C72.0092 56.8762 72.7912 56.2642 72.9952 56.5362C73.2332 56.8082 73.7432 55.7882 73.7432 55.7882C73.7432 55.7882 74.1512 56.2982 73.7432 55.6182C73.3352 54.9382 74.0152 54.5982 74.0152 54.5982C73.9132 53.9182 74.7632 54.0202 74.7632 54.0202L74.8312 53.1022L74.0492 53.0342C73.8792 53.8502 73.1992 53.1362 73.5392 52.9662C73.8792 52.7962 74.2192 52.4562 74.2192 52.4562V51.8782L74.5592 51.7762L74.6272 51.1982H75.4772L76.2252 50.8582L76.3952 50.5862L77.1772 50.5182L78.2992 49.4982L78.1972 49.0562C77.5172 49.0562 78.1972 48.5462 78.1972 48.5462L78.2652 47.5942ZM47.5632 99.1722L47.1212 98.4922L47.8012 98.5942L48.5152 99.2062L48.8212 99.9542L48.4132 100.192L48.1752 99.8522L47.6312 99.6822L47.5632 99.1722ZM35.0852 81.9682L35.3572 82.7502L35.7652 83.0562L36.1392 83.9062L35.9352 84.3142L35.2892 83.7362L34.8472 83.0902L34.6092 82.5802L34.2352 81.5602L35.0852 81.9682ZM31.6852 78.9082H31.4132V79.4862H31.8552V80.2342H32.1952L32.1272 79.3842L31.6852 79.2142V78.9082ZM76.1572 43.9562L76.4972 43.8882L76.5652 44.2282L76.2252 44.2962L76.1572 43.9562ZM76.5652 43.7522L76.6672 43.4122L77.1092 43.5482L77.0412 43.8882L76.5652 43.7522ZM77.3812 43.4122L77.4152 43.0722L77.0412 43.0042L76.9732 43.3442L77.3812 43.4122ZM77.9592 42.6642H78.4012V43.0042H77.9592V42.6642ZM80.8492 43.0722L80.8832 42.7322L81.2912 42.7662L81.2232 43.1062L80.8492 43.0722ZM81.9712 43.3102L82.0052 42.9702L81.5972 42.9022L81.5632 43.2422L81.9712 43.3102ZM82.3792 43.3442H82.8212V43.6842H82.3792V43.3442ZM82.8892 43.9222V44.3302L83.2292 44.2962V43.8882L82.8892 43.9222Z" fill="#009EDC"/>
</g>
<defs>
<clipPath id="clip0_1087_311">
<rect width="159.8" height="136" fill="white"/>
</clipPath>
</defs>
</svg>
