<svg width="168" height="56" viewBox="0 0 168 56" fill="none" xmlns="http://www.w3.org/2000/svg">
<g clip-path="url(#clip0_323_2424)">
<path d="M72.1749 17.6833C70.6798 17.6833 69.279 17.0386 68.0062 15.9891L68.3161 14.5074L68.3296 14.4525C68.6056 12.875 69.4811 10.2271 72.1749 10.2271C74.1951 10.2271 75.8384 11.9009 75.8384 13.9586C75.8315 16.0096 74.1885 17.6833 72.1749 17.6833ZM72.1749 6.44765C68.7335 6.44765 66.0668 8.72499 64.9827 12.4702C63.3259 9.93905 62.0733 6.90041 61.3393 4.3418H57.6354V14.1575C57.6354 16.0919 56.0865 17.6694 54.1873 17.6694C52.2882 17.6694 50.7395 16.0919 50.7395 14.1575V4.3418H47.0352V14.1575C47.0217 18.1773 50.2341 21.4765 54.1803 21.4765C58.1268 21.4765 61.3391 18.1773 61.3391 14.1575V12.5114C62.0596 14.041 62.9418 15.5843 64.0126 16.9563L61.743 27.8213H65.5346L67.1777 19.94C68.6188 20.8797 70.2756 21.4697 72.1747 21.4697C76.2354 21.4697 79.5421 18.0812 79.5421 13.9449C79.5421 9.81552 76.2356 6.44765 72.1749 6.44765Z" fill="#15A800"/>
<path d="M90.8521 6.87307L93.2428 16.6888L95.8761 6.87307H99.0142L94.967 21.0583H91.8287L89.3438 11.1807L86.8654 21.0513H83.7273L79.6797 6.8663H82.818L85.4511 16.682L87.8418 6.8663H90.852V6.87325L90.8521 6.87307ZM106.523 6.44776C102.449 6.44776 99.149 9.81563 99.149 13.9587C99.149 18.1088 102.455 21.4699 106.523 21.4699C110.597 21.4699 113.904 18.1088 113.904 13.9587C113.904 9.80886 110.597 6.44776 106.523 6.44776ZM106.523 18.3831C104.126 18.3831 102.186 16.4075 102.186 13.9657C102.186 11.5236 104.132 9.54826 106.523 9.54826C108.921 9.54826 110.86 11.5236 110.86 13.9657C110.86 16.4008 108.921 18.3831 106.523 18.3831ZM122.867 10.049C120.76 10.049 119.056 11.7912 119.056 13.9313V21.0513H115.897V6.87307H119.056V9.05432C119.056 9.05432 120.403 6.86612 123.17 6.86612H124.14V10.049H122.867ZM133.467 13.4101C135.71 12.1204 137.232 9.67161 137.232 6.86612H134.073C134.073 9.23257 132.188 11.1532 129.864 11.1532H129.44V0.0273438H126.282V21.0511H129.44V14.3703H129.817C130.127 14.3703 130.531 14.5762 130.713 14.8298L135.198 21.0513H138.983L133.467 13.4101Z" fill="white"/>
</g>
<path d="M3.128 51V41.32L0.96 42.64V40.776L3.128 39.48H4.832V51H3.128ZM11.854 51.24C11.07 51.24 10.3767 51.0693 9.774 50.728C9.17133 50.3813 8.69667 49.9067 8.35 49.304C8.00867 48.7013 7.838 48.008 7.838 47.224V43.256C7.838 42.472 8.00867 41.7787 8.35 41.176C8.69667 40.5733 9.17133 40.1013 9.774 39.76C10.3767 39.4133 11.07 39.24 11.854 39.24C12.638 39.24 13.3313 39.4133 13.934 39.76C14.5367 40.1013 15.0087 40.5733 15.35 41.176C15.6967 41.7787 15.87 42.472 15.87 43.256V47.224C15.87 48.008 15.6967 48.7013 15.35 49.304C15.0087 49.9067 14.5367 50.3813 13.934 50.728C13.3313 51.0693 12.638 51.24 11.854 51.24ZM11.854 49.64C12.2807 49.64 12.6673 49.5387 13.014 49.336C13.366 49.128 13.646 48.8507 13.854 48.504C14.062 48.152 14.166 47.76 14.166 47.328V43.136C14.166 42.7093 14.062 42.3227 13.854 41.976C13.646 41.624 13.366 41.3467 13.014 41.144C12.6673 40.936 12.2807 40.832 11.854 40.832C11.4273 40.832 11.038 40.936 10.686 41.144C10.3393 41.3467 10.062 41.624 9.854 41.976C9.646 42.3227 9.542 42.7093 9.542 43.136V47.328C9.542 47.76 9.646 48.152 9.854 48.504C10.062 48.8507 10.3393 49.128 10.686 49.336C11.038 49.5387 11.4273 49.64 11.854 49.64ZM22.0876 51.24C21.3036 51.24 20.6103 51.0693 20.0076 50.728C19.405 50.3813 18.9303 49.9067 18.5836 49.304C18.2423 48.7013 18.0716 48.008 18.0716 47.224V43.256C18.0716 42.472 18.2423 41.7787 18.5836 41.176C18.9303 40.5733 19.405 40.1013 20.0076 39.76C20.6103 39.4133 21.3036 39.24 22.0876 39.24C22.8716 39.24 23.565 39.4133 24.1676 39.76C24.7703 40.1013 25.2423 40.5733 25.5836 41.176C25.9303 41.7787 26.1036 42.472 26.1036 43.256V47.224C26.1036 48.008 25.9303 48.7013 25.5836 49.304C25.2423 49.9067 24.7703 50.3813 24.1676 50.728C23.565 51.0693 22.8716 51.24 22.0876 51.24ZM22.0876 49.64C22.5143 49.64 22.901 49.5387 23.2476 49.336C23.5996 49.128 23.8796 48.8507 24.0876 48.504C24.2956 48.152 24.3996 47.76 24.3996 47.328V43.136C24.3996 42.7093 24.2956 42.3227 24.0876 41.976C23.8796 41.624 23.5996 41.3467 23.2476 41.144C22.901 40.936 22.5143 40.832 22.0876 40.832C21.661 40.832 21.2716 40.936 20.9196 41.144C20.573 41.3467 20.2956 41.624 20.0876 41.976C19.8796 42.3227 19.7756 42.7093 19.7756 43.136V47.328C19.7756 47.76 19.8796 48.152 20.0876 48.504C20.2956 48.8507 20.573 49.128 20.9196 49.336C21.2716 49.5387 21.661 49.64 22.0876 49.64ZM29.7452 51L28.6252 49.88L39.0332 39.48L40.1532 40.608L29.7452 51ZM37.7533 51.24C37.2252 51.24 36.7426 51.112 36.3053 50.856C35.8732 50.5947 35.5266 50.248 35.2652 49.816C35.0039 49.3787 34.8732 48.8933 34.8732 48.36C34.8732 47.8373 35.0066 47.3573 35.2732 46.92C35.5399 46.4827 35.8919 46.1333 36.3292 45.872C36.7666 45.6107 37.2412 45.48 37.7533 45.48C38.2812 45.48 38.7639 45.6107 39.2013 45.872C39.6386 46.128 39.9853 46.4747 40.2413 46.912C40.5026 47.344 40.6333 47.8267 40.6333 48.36C40.6333 48.8933 40.5026 49.3787 40.2413 49.816C39.9853 50.248 39.6386 50.5947 39.2013 50.856C38.7639 51.112 38.2812 51.24 37.7533 51.24ZM37.7533 49.792C38.0146 49.792 38.2519 49.728 38.4653 49.6C38.6839 49.4667 38.8572 49.2907 38.9852 49.072C39.1186 48.8533 39.1853 48.616 39.1853 48.36C39.1853 48.104 39.1186 47.8667 38.9852 47.648C38.8572 47.4293 38.6839 47.256 38.4653 47.128C38.2519 46.9947 38.0146 46.928 37.7533 46.928C37.4972 46.928 37.2599 46.9947 37.0413 47.128C36.8279 47.256 36.6546 47.4293 36.5212 47.648C36.3932 47.8667 36.3292 48.104 36.3292 48.36C36.3292 48.616 36.3932 48.8533 36.5212 49.072C36.6546 49.2907 36.8279 49.4667 37.0413 49.6C37.2599 49.728 37.4972 49.792 37.7533 49.792ZM31.0252 45C30.4972 45 30.0146 44.872 29.5772 44.616C29.1399 44.3547 28.7906 44.008 28.5292 43.576C28.2732 43.1387 28.1452 42.6533 28.1452 42.12C28.1452 41.5973 28.2786 41.1173 28.5452 40.68C28.8119 40.2427 29.1639 39.8933 29.6012 39.632C30.0386 39.3707 30.5132 39.24 31.0252 39.24C31.5532 39.24 32.0332 39.3707 32.4652 39.632C32.9026 39.888 33.2519 40.2347 33.5132 40.672C33.7746 41.104 33.9052 41.5867 33.9052 42.12C33.9052 42.6533 33.7746 43.1387 33.5132 43.576C33.2519 44.008 32.9026 44.3547 32.4652 44.616C32.0332 44.872 31.5532 45 31.0252 45ZM31.0252 43.552C31.2812 43.552 31.5186 43.488 31.7372 43.36C31.9559 43.2267 32.1292 43.0507 32.2572 42.832C32.3906 42.6133 32.4572 42.376 32.4572 42.12C32.4572 41.864 32.3906 41.6267 32.2572 41.408C32.1292 41.1893 31.9559 41.016 31.7372 40.888C31.5186 40.7547 31.2812 40.688 31.0252 40.688C30.7692 40.688 30.5319 40.7547 30.3132 40.888C30.0999 41.016 29.9266 41.1893 29.7932 41.408C29.6599 41.6267 29.5932 41.864 29.5932 42.12C29.5932 42.376 29.6599 42.6133 29.7932 42.832C29.9266 43.0507 30.0999 43.2267 30.3132 43.36C30.5266 43.488 30.7639 43.552 31.0252 43.552Z" fill="#15A800"/>
<path d="M45.8506 51V39.48H50.5066C50.6186 39.48 50.7573 39.4853 50.9226 39.496C51.088 39.5013 51.2453 39.5173 51.3946 39.544C52.0346 39.6453 52.568 39.864 52.9946 40.2C53.4266 40.536 53.7493 40.96 53.9626 41.472C54.176 41.984 54.2826 42.5493 54.2826 43.168C54.2826 44.0853 54.048 44.8773 53.5786 45.544C53.1093 46.2053 52.4053 46.6187 51.4666 46.784L50.7866 46.864H47.5226V51H45.8506ZM52.5866 51L50.3146 46.312L52.0026 45.88L54.4986 51H52.5866ZM47.5226 45.28H50.4426C50.5493 45.28 50.6666 45.2747 50.7946 45.264C50.928 45.2533 51.0533 45.2347 51.1706 45.208C51.512 45.128 51.7866 44.9813 51.9946 44.768C52.2026 44.5493 52.352 44.2987 52.4426 44.016C52.5333 43.7333 52.5786 43.4507 52.5786 43.168C52.5786 42.8853 52.5333 42.6053 52.4426 42.328C52.352 42.0453 52.2026 41.7973 51.9946 41.584C51.7866 41.3653 51.512 41.216 51.1706 41.136C51.0533 41.104 50.928 41.0827 50.7946 41.072C50.6666 41.0613 50.5493 41.056 50.4426 41.056H47.5226V45.28ZM58.6649 51.24C58.0249 51.24 57.4889 51.1227 57.0569 50.888C56.6249 50.648 56.2969 50.3333 56.0729 49.944C55.8542 49.5493 55.7449 49.1173 55.7449 48.648C55.7449 48.2107 55.8222 47.8267 55.9769 47.496C56.1315 47.1653 56.3609 46.8853 56.6649 46.656C56.9689 46.4213 57.3422 46.232 57.7849 46.088C58.1689 45.976 58.6035 45.8773 59.0889 45.792C59.5742 45.7067 60.0835 45.6267 60.6169 45.552C61.1555 45.4773 61.6889 45.4027 62.2169 45.328L61.6089 45.664C61.6195 44.9867 61.4755 44.4853 61.1769 44.16C60.8835 43.8293 60.3769 43.664 59.6569 43.664C59.2035 43.664 58.7875 43.7707 58.4089 43.984C58.0302 44.192 57.7662 44.5387 57.6169 45.024L56.0569 44.544C56.2702 43.8027 56.6755 43.2133 57.2729 42.776C57.8755 42.3387 58.6755 42.12 59.6729 42.12C60.4462 42.12 61.1182 42.2533 61.6889 42.52C62.2649 42.7813 62.6862 43.1973 62.9529 43.768C63.0915 44.0507 63.1769 44.3493 63.2089 44.664C63.2409 44.9787 63.2569 45.3173 63.2569 45.68V51H61.7769V49.024L62.0649 49.28C61.7075 49.9413 61.2515 50.4347 60.6969 50.76C60.1475 51.08 59.4702 51.24 58.6649 51.24ZM58.9609 49.872C59.4355 49.872 59.8435 49.7893 60.1849 49.624C60.5262 49.4533 60.8009 49.2373 61.0089 48.976C61.2169 48.7147 61.3529 48.4427 61.4169 48.16C61.5075 47.904 61.5582 47.616 61.5689 47.296C61.5849 46.976 61.5929 46.72 61.5929 46.528L62.1369 46.728C61.6089 46.808 61.1289 46.88 60.6969 46.944C60.2649 47.008 59.8729 47.072 59.5209 47.136C59.1742 47.1947 58.8649 47.2667 58.5929 47.352C58.3635 47.432 58.1582 47.528 57.9769 47.64C57.8009 47.752 57.6595 47.888 57.5529 48.048C57.4515 48.208 57.4009 48.4027 57.4009 48.632C57.4009 48.856 57.4569 49.064 57.5689 49.256C57.6809 49.4427 57.8515 49.592 58.0809 49.704C58.3102 49.816 58.6035 49.872 58.9609 49.872ZM70.2463 51C69.7023 51.1067 69.1689 51.152 68.6463 51.136C68.1236 51.12 67.6569 51.0187 67.2463 50.832C66.8356 50.6453 66.5263 50.352 66.3183 49.952C66.1316 49.5947 66.0303 49.232 66.0143 48.864C66.0036 48.4907 65.9983 48.0693 65.9983 47.6V39.96H67.6783V47.52C67.6783 47.8667 67.6809 48.168 67.6863 48.424C67.6969 48.68 67.7529 48.896 67.8543 49.072C68.0463 49.4027 68.3503 49.592 68.7663 49.64C69.1876 49.6827 69.6809 49.664 70.2463 49.584V51ZM64.3423 43.704V42.36H70.2463V43.704H64.3423ZM75.4773 51.24C74.6186 51.24 73.8639 51.0533 73.2133 50.68C72.5679 50.3013 72.0639 49.776 71.7013 49.104C71.3439 48.4267 71.1653 47.6427 71.1653 46.752C71.1653 45.808 71.3413 44.9893 71.6933 44.296C72.0506 43.6027 72.5466 43.0667 73.1813 42.688C73.8159 42.3093 74.5546 42.12 75.3973 42.12C76.2773 42.12 77.0266 42.3253 77.6453 42.736C78.2639 43.1413 78.7253 43.72 79.0293 44.472C79.3386 45.224 79.4613 46.1173 79.3973 47.152H77.7253V46.544C77.7146 45.5413 77.5226 44.8 77.1493 44.32C76.7813 43.84 76.2186 43.6 75.4613 43.6C74.6239 43.6 73.9946 43.864 73.5733 44.392C73.1519 44.92 72.9413 45.6827 72.9413 46.68C72.9413 47.6293 73.1519 48.3653 73.5733 48.888C73.9946 49.4053 74.6026 49.664 75.3973 49.664C75.9199 49.664 76.3706 49.5467 76.7493 49.312C77.1333 49.072 77.4319 48.7307 77.6453 48.288L79.2853 48.808C78.9493 49.5813 78.4399 50.1813 77.7573 50.608C77.0746 51.0293 76.3146 51.24 75.4773 51.24ZM72.3973 47.152V45.848H78.5653V47.152H72.3973ZM84.5921 51.24C83.7868 51.24 83.0908 51.04 82.5041 50.64C81.9228 50.24 81.4721 49.696 81.1521 49.008C80.8375 48.3147 80.6801 47.536 80.6801 46.672C80.6801 45.8027 80.8401 45.0267 81.1601 44.344C81.4801 43.656 81.9335 43.1147 82.5201 42.72C83.1121 42.32 83.8135 42.12 84.6241 42.12C85.4401 42.12 86.1255 42.32 86.6801 42.72C87.2401 43.1147 87.6615 43.656 87.9441 44.344C88.2321 45.032 88.3761 45.808 88.3761 46.672C88.3761 47.536 88.2321 48.312 87.9441 49C87.6561 49.688 87.2321 50.2347 86.6721 50.64C86.1121 51.04 85.4188 51.24 84.5921 51.24ZM84.8241 49.728C85.3735 49.728 85.8215 49.5973 86.1681 49.336C86.5148 49.0747 86.7681 48.7147 86.9281 48.256C87.0881 47.7973 87.1681 47.2693 87.1681 46.672C87.1681 46.0747 87.0855 45.5467 86.9201 45.088C86.7601 44.6293 86.5095 44.272 86.1681 44.016C85.8321 43.76 85.4028 43.632 84.8801 43.632C84.3255 43.632 83.8695 43.768 83.5121 44.04C83.1548 44.312 82.8881 44.6773 82.7121 45.136C82.5415 45.5947 82.4561 46.1067 82.4561 46.672C82.4561 47.2427 82.5415 47.76 82.7121 48.224C82.8881 48.6827 83.1495 49.048 83.4961 49.32C83.8481 49.592 84.2908 49.728 84.8241 49.728ZM87.1681 51V44.784H86.9761V39.48H88.6561V51H87.1681ZM94.1936 40.944V39.32H95.8656V40.944H94.1936ZM94.1936 51V42.36H95.8656V51H94.1936ZM104.3 51V46.752C104.3 46.416 104.271 46.072 104.212 45.72C104.159 45.3627 104.052 45.032 103.892 44.728C103.737 44.424 103.516 44.1787 103.228 43.992C102.945 43.8053 102.575 43.712 102.116 43.712C101.817 43.712 101.535 43.7627 101.268 43.864C101.001 43.96 100.767 44.1173 100.564 44.336C100.367 44.5547 100.209 44.8427 100.092 45.2C99.98 45.5573 99.924 45.992 99.924 46.504L98.884 46.112C98.884 45.328 99.0307 44.6373 99.324 44.04C99.6173 43.4373 100.039 42.968 100.588 42.632C101.137 42.296 101.801 42.128 102.58 42.128C103.177 42.128 103.679 42.224 104.084 42.416C104.489 42.608 104.817 42.8613 105.068 43.176C105.324 43.4853 105.519 43.824 105.652 44.192C105.785 44.56 105.876 44.92 105.924 45.272C105.972 45.624 105.996 45.9333 105.996 46.2V51H104.3ZM98.228 51V42.36H99.724V44.856H99.924V51H98.228ZM115.811 51.24C114.91 51.24 114.112 51.056 113.419 50.688C112.731 50.3147 112.192 49.7947 111.803 49.128C111.414 48.456 111.219 47.6667 111.219 46.76V39.488L112.915 39.48V46.672C112.915 47.1627 112.998 47.5947 113.163 47.968C113.328 48.3413 113.55 48.6533 113.827 48.904C114.104 49.1547 114.414 49.344 114.755 49.472C115.102 49.6 115.454 49.664 115.811 49.664C116.174 49.664 116.526 49.6 116.867 49.472C117.214 49.3387 117.526 49.1467 117.803 48.896C118.08 48.6453 118.299 48.3333 118.459 47.96C118.624 47.5867 118.707 47.1573 118.707 46.672V39.48H120.403V46.76C120.403 47.6613 120.208 48.448 119.819 49.12C119.43 49.792 118.888 50.3147 118.195 50.688C117.507 51.056 116.712 51.24 115.811 51.24ZM126.665 51.24C125.838 51.24 125.145 51.04 124.585 50.64C124.025 50.2347 123.601 49.688 123.313 49C123.025 48.312 122.881 47.536 122.881 46.672C122.881 45.808 123.022 45.032 123.305 44.344C123.593 43.656 124.014 43.1147 124.569 42.72C125.129 42.32 125.817 42.12 126.633 42.12C127.443 42.12 128.142 42.32 128.729 42.72C129.321 43.1147 129.777 43.656 130.097 44.344C130.417 45.0267 130.577 45.8027 130.577 46.672C130.577 47.536 130.417 48.3147 130.097 49.008C129.782 49.696 129.331 50.24 128.745 50.64C128.163 51.04 127.47 51.24 126.665 51.24ZM122.601 54.84V42.36H124.089V48.576H124.281V54.84H122.601ZM126.433 49.728C126.966 49.728 127.406 49.592 127.753 49.32C128.105 49.048 128.366 48.6827 128.537 48.224C128.713 47.76 128.801 47.2427 128.801 46.672C128.801 46.1067 128.713 45.5947 128.537 45.136C128.366 44.6773 128.102 44.312 127.745 44.04C127.387 43.768 126.931 43.632 126.377 43.632C125.854 43.632 125.422 43.76 125.081 44.016C124.745 44.272 124.494 44.6293 124.329 45.088C124.169 45.5467 124.089 46.0747 124.089 46.672C124.089 47.2693 124.169 47.7973 124.329 48.256C124.489 48.7147 124.742 49.0747 125.089 49.336C125.435 49.5973 125.883 49.728 126.433 49.728ZM133.839 51L131.199 42.352L132.855 42.36L134.663 48.288L136.487 42.36H137.927L139.751 48.288L141.559 42.36H143.207L140.567 51H139.223L137.207 44.744L135.183 51H133.839ZM148.047 51.24C147.183 51.24 146.433 51.0453 145.799 50.656C145.164 50.2667 144.673 49.7307 144.327 49.048C143.985 48.36 143.815 47.568 143.815 46.672C143.815 45.7707 143.991 44.9787 144.343 44.296C144.695 43.608 145.188 43.0747 145.823 42.696C146.457 42.312 147.199 42.12 148.047 42.12C148.911 42.12 149.66 42.3147 150.295 42.704C150.929 43.0933 151.42 43.6293 151.767 44.312C152.113 44.9947 152.287 45.7813 152.287 46.672C152.287 47.5733 152.111 48.368 151.759 49.056C151.412 49.7387 150.921 50.2747 150.287 50.664C149.652 51.048 148.905 51.24 148.047 51.24ZM148.047 49.664C148.873 49.664 149.489 49.3867 149.895 48.832C150.305 48.272 150.511 47.552 150.511 46.672C150.511 45.7707 150.303 45.0507 149.887 44.512C149.476 43.968 148.863 43.696 148.047 43.696C147.487 43.696 147.025 43.824 146.663 44.08C146.3 44.3307 146.031 44.68 145.855 45.128C145.679 45.5707 145.591 46.0853 145.591 46.672C145.591 47.5787 145.799 48.304 146.215 48.848C146.631 49.392 147.241 49.664 148.047 49.664ZM154.013 51V42.36H155.501V44.456L155.293 44.184C155.399 43.9067 155.538 43.6533 155.709 43.424C155.879 43.1893 156.077 42.9973 156.301 42.848C156.519 42.688 156.762 42.5653 157.029 42.48C157.301 42.3893 157.578 42.336 157.861 42.32C158.143 42.2987 158.415 42.312 158.677 42.36V43.928C158.394 43.8533 158.079 43.832 157.733 43.864C157.391 43.896 157.077 44.0053 156.789 44.192C156.517 44.368 156.301 44.5813 156.141 44.832C155.986 45.0827 155.874 45.3627 155.805 45.672C155.735 45.976 155.701 46.2987 155.701 46.64V51H154.013ZM160.16 51L160.168 39.48H161.864V46.52L165.256 42.36H167.384L163.8 46.68L167.752 51H165.48L161.864 46.84V51H160.16Z" fill="white"/>
<defs>
<clipPath id="clip0_323_2424">
<rect width="92" height="28" fill="white" transform="translate(47)"/>
</clipPath>
</defs>
</svg>
