<svg width="21" height="21" viewBox="0 0 21 21" fill="none" xmlns="http://www.w3.org/2000/svg">
<path d="M17.5507 3.0702C16.6338 2.14431 15.5418 1.41017 14.3383 0.910571C13.1347 0.410968 11.8438 0.155893 10.5408 0.16021C5.08077 0.16021 0.630781 4.6102 0.630781 10.0702C0.630781 11.8202 1.09078 13.5202 1.95078 15.0202L0.550781 20.1602L5.80077 18.7802C7.25076 19.5702 8.88076 19.9902 10.5408 19.9902C16.0007 19.9902 20.4507 15.5402 20.4507 10.0802C20.4507 7.43019 19.4207 4.9402 17.5507 3.0702ZM10.5408 18.3102C9.06076 18.3102 7.61076 17.9102 6.34076 17.1602L6.04077 16.9802L2.92077 17.8002L3.75077 14.7602L3.55077 14.4502C2.72832 13.1372 2.2917 11.6195 2.29078 10.0702C2.29078 5.5302 5.99077 1.83021 10.5308 1.83021C12.7307 1.83021 14.8007 2.6902 16.3507 4.2502C17.1184 5.01406 17.7267 5.92274 18.1404 6.92352C18.5541 7.9243 18.7649 8.99727 18.7607 10.0802C18.7807 14.6202 15.0807 18.3102 10.5408 18.3102ZM15.0607 12.1502C14.8107 12.0302 13.5907 11.4302 13.3707 11.3402C13.1407 11.2602 12.9807 11.2202 12.8107 11.4602C12.6407 11.7102 12.1707 12.2702 12.0307 12.4302C11.8907 12.6002 11.7407 12.6202 11.4908 12.4902C11.2408 12.3702 10.4408 12.1002 9.50076 11.2602C8.76076 10.6002 8.27076 9.79018 8.12076 9.54019C7.98076 9.29019 8.10076 9.16019 8.23076 9.03019C8.34076 8.92019 8.48076 8.74019 8.60076 8.60019C8.72076 8.46019 8.77076 8.35019 8.85076 8.19019C8.93076 8.02019 8.89076 7.88019 8.83076 7.76019C8.77076 7.64019 8.27076 6.42019 8.07076 5.9202C7.87076 5.4402 7.66076 5.5002 7.51076 5.4902H7.03076C6.86076 5.4902 6.60076 5.5502 6.37076 5.80019C6.15077 6.05019 5.51077 6.65019 5.51077 7.87019C5.51077 9.09019 6.40076 10.2702 6.52076 10.4302C6.64076 10.6002 8.27076 13.1002 10.7508 14.1702C11.3408 14.4302 11.8007 14.5802 12.1607 14.6902C12.7507 14.8802 13.2907 14.8502 13.7207 14.7902C14.2007 14.7202 15.1907 14.1902 15.3907 13.6102C15.6007 13.0302 15.6007 12.5402 15.5307 12.4302C15.4607 12.3202 15.3107 12.2702 15.0607 12.1502Z" fill="black"/>
</svg>
