<svg width="132" height="159" viewBox="0 0 132 159" fill="none" xmlns="http://www.w3.org/2000/svg">
<mask id="mask0_1088_421" style="mask-type:luminance" maskUnits="userSpaceOnUse" x="0" y="0" width="130" height="159">
<path d="M129.536 0H0V159H129.536V0Z" fill="white"/>
</mask>
<g mask="url(#mask0_1088_421)">
<path d="M129.53 0C129.53 0 77.6684 10.1289 64.7617 68.0756V159C125.775 144.16 129.295 74.6711 129.53 63.6V0Z" fill="#323F51"/>
<path d="M129.536 0H0C0 0 51.8613 10.1289 64.768 68.0756C77.6747 10.1289 129.536 0 129.536 0Z" fill="#62C4BB"/>
<path d="M64.768 68.0756C51.8613 10.3644 0 0 0 0V63.3644C0.234667 74.6711 3.75467 144.16 64.768 158.764V68.0756Z" fill="black"/>
<path d="M20.6487 39.808C14.078 46.4036 14.078 56.768 20.6487 63.3636C26.9847 69.9591 37.5448 69.9591 44.1155 63.3636C50.6861 57.0036 50.6861 46.4036 44.1155 39.808C37.5448 33.2124 27.2194 33.2124 20.6487 39.808Z" fill="white"/>
<path d="M33.089 54.6456C31.4463 54.8811 29.8036 53.9389 29.3343 52.0545C29.0995 50.4056 30.0383 48.7567 31.9156 48.2856C33.5583 48.05 35.201 48.9922 35.6703 50.8767C35.6703 52.5256 34.7316 54.1745 33.089 54.6456Z" fill="black"/>
<path d="M85.4221 39.808C78.8515 46.4036 78.8515 56.768 85.4221 63.3636C91.9928 69.9591 102.318 69.9591 108.889 63.3636C115.459 57.0036 115.459 46.4036 108.889 39.808C102.318 33.2124 91.7581 33.2124 85.4221 39.808Z" fill="white"/>
<path d="M97.6221 54.6456C95.9795 54.8811 94.3368 53.9389 93.8675 52.0545C93.6328 50.4056 94.5715 48.7567 96.4488 48.2856C98.0915 48.05 99.7341 48.9922 100.203 50.8767C100.673 52.7611 99.2648 54.1745 97.6221 54.6456Z" fill="black"/>
</g>
</svg>
