<svg width="30" height="30" viewBox="0 0 30 30" fill="none" xmlns="http://www.w3.org/2000/svg">
<path fill-rule="evenodd" clip-rule="evenodd" d="M30 25V5.00002C30 2.25 27.75 0 25 0H5.00002C2.25 0 0 2.25 0 5.00002V25C0 27.75 2.25 30 5.00002 30.0001H25C27.75 30.0001 30 27.7501 30 25ZM15.4246 17.0176L17.6587 22.9819C17.6587 22.982 18.5767 23.1715 19.3221 22.4314C20.2496 20.3773 22.6447 14.9825 23.6125 11.9839C23.9831 10.8309 24.0752 9.52325 23.9449 8.75454C23.9449 8.75454 23.7236 6.52466 21.7563 6.52466C21.1983 6.52466 20.7081 6.5363 20.1575 6.83806C18.869 7.54642 18.4465 9.54972 20.1184 10.5567C21.1634 11.1814 21.534 12.7453 21.4991 13.7003C21.4652 14.6575 19.0722 19.0516 19.0722 19.0516L16.7428 11.3931C16.7428 11.3931 16.6528 10.8553 16.6623 10.7007C16.7079 9.93195 17.2309 9.82713 17.2309 9.82713H18.2241V8.92501H12.2206V9.82713C12.2206 9.82713 12.7839 9.94678 13.0931 10.2824C13.2651 10.452 13.4718 10.991 13.7146 11.6243C13.7811 11.7976 13.8502 11.9779 13.9221 12.1597L14.7946 14.9127L12.9141 19.0749C12.9141 19.0749 10.9638 11.2968 10.8494 10.7568C10.7361 10.2168 11.22 9.82713 11.22 9.82713V8.92501H6.3473L6 9.82713H6.52305C7.37435 9.82713 7.52469 10.4211 7.52469 10.4211L11.3375 22.3922C11.3375 22.3922 11.8987 22.9756 12.8665 23L15.4246 17.0176Z" fill="white"/>
</svg>
