<svg width="30" height="30" viewBox="0 0 30 30" fill="none" xmlns="http://www.w3.org/2000/svg">
<path fill-rule="evenodd" clip-rule="evenodd" d="M0 5C0 2.23858 2.23858 0 5 0H25C27.7614 0 30 2.23858 30 5V25C30 27.7614 27.7614 30 25 30H5C2.23858 30 0 27.7614 0 25V5ZM15.7226 9.1853L12.2039 14.8296L15.9684 20.8232C16.0467 20.9591 15.9684 20.9891 15.855 20.9891H13.1688C12.9795 20.9891 12.8471 20.9826 12.7714 20.86C12.5189 20.382 12.2668 19.907 12.0147 19.4351C11.7623 18.9633 11.4943 18.4823 11.2108 17.9918C10.9269 17.5018 10.6464 17.0054 10.3689 16.5027C10.1812 16.8674 9.97781 17.232 9.77445 17.5966L9.77441 17.5967C9.70436 17.7223 9.6343 17.8479 9.56489 17.9735C9.29356 18.4638 9.02556 18.951 8.76089 19.4351C8.49606 19.9194 8.22491 20.4005 7.94746 20.8783C7.89691 20.9886 7.80851 21 7.68256 21H5.09091C4.98907 21 4.97679 20.9275 5.03416 20.8416L8.68521 15.0134L5.12872 9.16688C5.06412 9.08347 5.11971 8.99462 5.22333 9.00139H7.89066C8.00616 8.99529 8.10823 9.03651 8.17443 9.13013C8.40145 9.62047 8.65368 10.1108 8.93112 10.601C9.20836 11.0913 9.48905 11.5755 9.77296 12.0534C10.0568 12.5314 10.3374 13.0155 10.577 13.5059C10.8291 13.0034 11.0845 12.5132 11.3431 12.035C11.6015 11.557 11.8663 11.0759 12.1376 10.5918C12.4088 10.1078 12.6704 9.62668 12.9227 9.14855C12.9562 9.04367 13.0364 8.99051 13.1497 9.00139H15.6279C15.7226 9.00139 15.7616 9.12384 15.7226 9.1853ZM16.6596 18.9655C17.5602 20.3835 19.3518 21.0236 21.0623 20.9993C22.3693 20.9939 23.6758 20.7637 24.8832 20.2943C24.9566 20.2629 25.0044 20.1885 24.9997 20.1135C24.9915 19.991 24.9818 19.8686 24.9721 19.7462C24.9471 19.4291 24.922 19.1118 24.922 18.7938V8.1094C24.9315 8.04714 24.8725 7.99205 24.8057 8.00095H22.3618C22.2843 8.00095 22.2455 8.04331 22.2455 8.12749V11.689C20.0765 11.5079 17.7931 12.1978 16.6596 14.0391C16.2203 14.7608 15.9928 15.5777 16.0002 16.4074C16.0001 17.4321 16.2199 18.2847 16.6596 18.9655ZM22.2455 13.8222V18.7576C20.3772 19.2669 18.7123 18.0542 18.7543 16.2989C18.7541 14.6012 20.474 13.3749 22.2455 13.8222Z" fill="white"/>
</svg>
