<svg width="26" height="26" viewBox="0 0 26 26" fill="none" xmlns="http://www.w3.org/2000/svg">
<path d="M12.9926 3.42712C7.32539 -1.52966 0.119624 2.82551 0.00146524 8.72965C-0.0286457 10.2343 0.405704 11.7 1.27029 13.0513H6.87429L7.87105 11.3899C8.16048 10.9076 8.8609 10.8921 9.16673 11.3729L11.2698 14.6777L14.3354 8.20604C14.6027 7.64134 15.3995 7.62342 15.6943 8.171L18.3221 13.0513H24.7149C29.4505 5.64995 20.0914 -2.78168 12.9926 3.42712Z" fill="black"/>
<path d="M17.196 14.1738L15.0666 10.2192L12.0555 16.5761C11.7993 17.1169 11.0458 17.1639 10.7246 16.6589L8.54266 13.2303L7.95806 14.2046C7.8204 14.434 7.57251 14.5744 7.30496 14.5744H2.47461C2.62603 14.7328 1.81902 13.9275 12.4548 24.5081C12.7518 24.8037 13.2321 24.8038 13.5291 24.5081C24.0013 14.0903 23.3582 14.7325 23.5093 14.5744H17.8667C17.5864 14.5744 17.3289 14.4206 17.196 14.1738Z" fill="black"/>
</svg>
