<svg width="26" height="26" viewBox="0 0 26 26" fill="none" xmlns="http://www.w3.org/2000/svg">
<g clip-path="url(#clip0_717_155)">
<path d="M18.8499 10.3999H0.650079C0.291119 10.3999 0 10.6908 0 11.0497V25.3498C0 25.7088 0.291119 25.9999 0.650079 25.9999H5.19992V17.5498C5.19992 17.1909 5.49104 16.8997 5.85 16.8997H13.65C14.009 16.8997 14.3001 17.1909 14.3001 17.5498V25.9999H19.5V11.0497C19.5 10.6908 19.2089 10.3999 18.8499 10.3999Z" fill="#424242"/>
<path d="M6.5 18.2002H12.9998V26.0002H6.5V18.2002Z" fill="#424242"/>
<path d="M25.3509 14.3003H20.8008V26.0003H25.3509C25.5232 26.0003 25.6886 25.932 25.8105 25.8099C25.9326 25.688 26.0009 25.5226 26.0009 25.3502V14.9501C26.0009 14.7778 25.9326 14.6124 25.8105 14.4905C25.6886 14.3686 25.5232 14.3001 25.3509 14.3003ZM24.0509 20.8001H22.7508C22.3918 20.8001 22.1009 20.5093 22.1009 20.1503C22.1009 19.7913 22.3918 19.5002 22.7508 19.5002H24.0509C24.4099 19.5002 24.7008 19.7913 24.7008 20.1503C24.7008 20.5093 24.4099 20.8001 24.0509 20.8001ZM24.0509 18.2003H22.7508C22.3918 18.2003 22.1009 17.9092 22.1009 17.5502C22.1009 17.1913 22.3918 16.9001 22.7508 16.9001H24.0509C24.4099 16.9001 24.7008 17.1913 24.7008 17.5502C24.7008 17.9092 24.4099 18.2003 24.0509 18.2003Z" fill="#424242"/>
<path d="M14.3005 3.24992C14.4728 3.25016 14.6382 3.1816 14.7601 3.05973C14.882 2.93785 14.9505 2.77242 14.9503 2.60008C14.9503 2.45702 14.9503 2.41846 15.4811 2.24136C15.9774 2.0764 16.9003 1.76838 16.9003 0.650079C16.9003 0.291119 16.6094 0 16.2505 0C15.8915 0 15.6004 0.291119 15.6004 0.650079C15.6004 0.792902 15.6004 0.831464 15.0698 1.00856C14.5735 1.17376 13.6504 1.48154 13.6504 2.60008C13.6504 2.77242 13.7187 2.93785 13.8406 3.05973C13.9627 3.1816 14.1279 3.25016 14.3005 3.24992Z" fill="#424242"/>
<path d="M16.9003 4.55019C16.9005 4.31024 16.7687 4.08982 16.5573 3.97675C16.3459 3.86369 16.0893 3.87607 15.8898 4.00937L13.9398 5.30929C13.7592 5.42997 13.6506 5.63278 13.6504 5.85011V9.10003H16.9003V4.55019Z" fill="#424242"/>
<path d="M8.77508 3.24992C8.94742 3.25016 9.11285 3.1816 9.23473 3.05973C9.35684 2.93785 9.42516 2.77242 9.42516 2.60008C9.42516 2.45702 9.42516 2.41846 9.95574 2.24136C10.4521 2.0764 11.3752 1.76838 11.3752 0.650079C11.3752 0.291119 11.084 0 10.7251 0C10.3661 0 10.075 0.291119 10.075 0.650079C10.075 0.792902 10.075 0.831464 9.54442 1.00856C9.04811 1.17376 8.125 1.48154 8.125 2.60008C8.125 2.77242 8.19332 2.93785 8.31543 3.05973C8.4373 3.1816 8.60274 3.25016 8.77508 3.24992Z" fill="#424242"/>
<path d="M11.3752 4.55019C11.3754 4.31024 11.2433 4.08982 11.0319 3.97675C10.8205 3.86369 10.5639 3.87607 10.3645 4.00937L8.41445 5.30929C8.23402 5.42997 8.12548 5.63278 8.125 5.85011V9.10003H11.3752V4.55019Z" fill="#424242"/>
<path d="M3.24945 3.24992C3.42203 3.25016 3.58723 3.1816 3.70934 3.05973C3.83121 2.93785 3.89953 2.77242 3.89953 2.60008C3.89953 2.45702 3.89953 2.41846 4.43012 2.24136C4.92642 2.0764 5.84953 1.76838 5.84953 0.650079C5.84953 0.291119 5.55841 0 5.19945 0C4.84049 0 4.54961 0.291119 4.54961 0.650079C4.54961 0.792902 4.54961 0.831464 4.01879 1.00856C3.52248 1.17376 2.59961 1.48154 2.59961 2.60008C2.59937 2.77242 2.66793 2.93785 2.7898 3.05973C2.91168 3.1816 3.07711 3.25016 3.24945 3.24992Z" fill="#424242"/>
<path d="M5.84953 4.55019C5.84977 4.31024 5.7179 4.08982 5.50628 3.97675C5.2949 3.86369 5.0383 3.87607 4.83906 4.00937L2.88906 5.30929C2.70839 5.42997 2.59985 5.63278 2.59961 5.85011V9.10003H5.84953V4.55019Z" fill="#424242"/>
</g>
<defs>
<clipPath id="clip0_717_155">
<rect width="26" height="26" fill="white"/>
</clipPath>
</defs>
</svg>
